<?xml version="1.0" encoding="utf-8"?>
<!-- Generator: Adobe Illustrator 15.0.0, SVG Export Plug-In . SVG Version: 6.00 Build 0)  -->
<!DOCTYPE svg PUBLIC "-//W3C//DTD SVG 1.1//EN" "http://www.w3.org/Graphics/SVG/1.1/DTD/svg11.dtd">
<svg version="1.1" id="Layer_1" xmlns="http://www.w3.org/2000/svg" xmlns:xlink="http://www.w3.org/1999/xlink" x="0px" y="0px"
	 width="864px" height="1152px" viewBox="0 0 864 1152" enable-background="new 0 0 864 1152" xml:space="preserve">
<g transform="translate(22.5, 697.5) ">
	<polygon fill="none" stroke="#ED2224" stroke-width="0.9" points="770.508,-105.008 770.508,-68 787.5,-68 787.5,-14 770.508,-14 
		770.508,22 787.5,22 787.5,58 770.508,58 770.508,94 787.5,94 787.5,130 770.508,130 770.508,166 787.5,166 787.5,202 770.508,202 
		770.508,238 787.5,238 787.5,274 770.508,274 770.508,310 787.5,310 787.5,364 770.508,364 770.508,401.008 742.5,401.008 
		742.5,418 697.5,418 697.5,401.008 661.5,401.008 661.5,418 625.5,418 625.5,401.008 589.5,401.008 589.5,418 553.5,418 
		553.5,401.008 517.5,401.008 517.5,418 481.5,418 481.5,401.008 445.5,401.008 445.5,418 409.5,418 409.5,401.008 373.5,401.008 
		373.5,418 337.5,418 337.5,401.008 301.5,401.008 301.5,418 265.5,418 265.5,401.008 229.5,401.008 229.5,418 193.5,418 
		193.5,401.008 157.5,401.008 157.5,418 121.5,418 121.5,401.008 85.5,401.008 85.5,418 40.5,418 40.5,401.008 12.492,401.008 
		12.492,364 -4.5,364 -4.5,310 12.492,310 12.492,274 -4.5,274 -4.5,238 12.492,238 12.492,202 -4.5,202 -4.5,166 12.492,166 
		12.492,130 -4.5,130 -4.5,94 12.492,94 12.492,58 -4.5,58 -4.5,22 12.492,22 12.492,-14 -4.5,-14 -4.5,-68 12.492,-68 
		12.492,-105.008 40.5,-105.008 40.5,-122 85.5,-122 85.5,-105.008 121.5,-105.008 121.5,-122 157.5,-122 157.5,-105.008 
		193.5,-105.008 193.5,-122 229.5,-122 229.5,-105.008 265.5,-105.008 265.5,-122 301.5,-122 301.5,-105.008 337.5,-105.008 
		337.5,-122 373.5,-122 373.5,-105.008 409.5,-105.008 409.5,-122 445.5,-122 445.5,-105.008 481.5,-105.008 481.5,-122 517.5,-122 
		517.5,-105.008 553.5,-105.008 553.5,-122 589.5,-122 589.5,-105.008 625.5,-105.008 625.5,-122 661.5,-122 661.5,-105.008 
		697.5,-105.008 697.5,-122 742.5,-122 742.5,-105.008 	"/>
</g>
<g transform="translate(697.5, 697.5) ">
	<polygon fill="none" stroke="#ED2224" stroke-width="0.9" points="131.508,-645.007 131.508,-607.999 148.5,-607.999 
		148.5,-553.999 131.508,-553.999 131.508,-517.999 148.5,-517.999 148.5,-481.999 131.508,-481.999 131.508,-445.999 
		148.5,-445.999 148.5,-409.999 131.508,-409.999 131.508,-373.999 148.5,-373.999 148.5,-337.999 131.508,-337.999 131.508,-302 
		148.5,-302 148.5,-266 131.508,-266 131.508,-230 148.5,-230 148.5,-176 131.508,-176 131.508,-138.992 103.5,-138.992 103.5,-122 
		58.5,-122 58.5,-138.992 22.5,-138.992 22.5,-122 -13.5,-122 -13.5,-138.992 -49.5,-138.992 -49.5,-122 -85.5,-122 -85.5,-138.992 
		-121.5,-138.992 -121.5,-122 -157.5,-122 -157.5,-138.992 -193.5,-138.992 -193.5,-122 -229.5,-122 -229.5,-138.992 
		-265.5,-138.992 -265.5,-122 -301.5,-122 -301.5,-138.992 -337.5,-138.992 -337.5,-122 -373.5,-122 -373.5,-138.992 
		-409.5,-138.992 -409.5,-122 -445.5,-122 -445.5,-138.992 -481.5,-138.992 -481.5,-122 -517.5,-122 -517.5,-138.992 
		-553.5,-138.992 -553.5,-122 -598.5,-122 -598.5,-138.992 -626.508,-138.992 -626.508,-176 -643.5,-176 -643.5,-230 -626.508,-230 
		-626.508,-266 -643.5,-266 -643.5,-302 -626.508,-302 -626.508,-337.999 -643.5,-337.999 -643.5,-373.999 -626.508,-373.999 
		-626.508,-409.999 -643.5,-409.999 -643.5,-445.999 -626.508,-445.999 -626.508,-481.999 -643.5,-481.999 -643.5,-517.999 
		-626.508,-517.999 -626.508,-553.999 -643.5,-553.999 -643.5,-607.999 -626.508,-607.999 -626.508,-645.007 -598.5,-645.007 
		-598.5,-661.999 -553.5,-661.999 -553.5,-645.007 -517.5,-645.007 -517.5,-661.999 -481.5,-661.999 -481.5,-645.007 
		-445.5,-645.007 -445.5,-661.999 -409.5,-661.999 -409.5,-645.007 -373.5,-645.007 -373.5,-661.999 -337.5,-661.999 
		-337.5,-645.007 -301.5,-645.007 -301.5,-661.999 -265.5,-661.999 -265.5,-645.007 -229.5,-645.007 -229.5,-661.999 
		-193.5,-661.999 -193.5,-645.007 -157.5,-645.007 -157.5,-661.999 -121.5,-661.999 -121.5,-645.007 -85.5,-645.007 -85.5,-661.999 
		-49.5,-661.999 -49.5,-645.007 -13.5,-645.007 -13.5,-661.999 22.5,-661.999 22.5,-645.007 58.5,-645.007 58.5,-661.999 
		103.5,-661.999 103.5,-645.007 	"/>
</g>
</svg>
