<?xml version="1.0" encoding="utf-8"?>
<!-- Generator: Adobe Illustrator 15.0.0, SVG Export Plug-In . SVG Version: 6.00 Build 0)  -->
<!DOCTYPE svg PUBLIC "-//W3C//DTD SVG 1.1//EN" "http://www.w3.org/Graphics/SVG/1.1/DTD/svg11.dtd">
<svg version="1.1" id="Layer_1" xmlns="http://www.w3.org/2000/svg" xmlns:xlink="http://www.w3.org/1999/xlink" x="0px" y="0px"
	 width="864px" height="1152px" viewBox="0 0 864 1152" enable-background="new 0 0 864 1152" xml:space="preserve">
<g transform="translate(1372.5, 22.5) ">
	<polygon fill="none" stroke="#FF0000" stroke-width="0.9" points="-1319.508,12.5 -1291.5,12.5 -1291.5,29.492 -1246.5,29.492 
		-1246.5,12.5 -1210.5,12.5 -1210.5,29.492 -1174.5,29.492 -1174.5,12.5 -1138.5,12.5 -1138.5,29.492 -1102.5,29.492 -1102.5,12.5 
		-1066.5,12.5 -1066.5,29.492 -1030.5,29.492 -1030.5,12.5 -994.5,12.5 -994.5,29.492 -958.5,29.492 -958.5,12.5 -922.5,12.5 
		-922.5,29.492 -886.5,29.492 -886.5,12.5 -850.5,12.5 -850.5,29.492 -814.5,29.492 -814.5,12.5 -778.5,12.5 -778.5,29.492 
		-742.5,29.492 -742.5,12.5 -706.5,12.5 -706.5,29.492 -670.5,29.492 -670.5,12.5 -634.5,12.5 -634.5,29.492 -589.5,29.492 
		-589.5,12.5 -561.492,12.5 -561.492,66.5 -544.5,66.5 -544.5,120.5 -561.492,120.5 -561.492,156.5 -544.5,156.5 -544.5,192.5 
		-561.492,192.5 -561.492,228.5 -544.5,228.5 -544.5,264.5 -561.492,264.5 -561.492,300.5 -544.5,300.5 -544.5,336.5 
		-561.492,336.5 -561.492,372.5 -544.5,372.5 -544.5,408.5 -561.492,408.5 -561.492,444.5 -544.5,444.5 -544.5,498.5 
		-561.492,498.5 -561.492,552.5 -589.5,552.5 -589.5,535.508 -634.5,535.508 -634.5,552.5 -670.5,552.5 -670.5,535.508 
		-706.5,535.508 -706.5,552.5 -742.5,552.5 -742.5,535.508 -778.5,535.508 -778.5,552.5 -814.5,552.5 -814.5,535.508 
		-850.5,535.508 -850.5,552.5 -886.5,552.5 -886.5,535.508 -922.5,535.508 -922.5,552.5 -958.5,552.5 -958.5,535.508 
		-994.5,535.508 -994.5,552.5 -1030.5,552.5 -1030.5,535.508 -1066.5,535.508 -1066.5,552.5 -1102.5,552.5 -1102.5,535.508 
		-1138.5,535.508 -1138.5,552.5 -1174.5,552.5 -1174.5,535.508 -1210.5,535.508 -1210.5,552.5 -1246.5,552.5 -1246.5,535.508 
		-1291.5,535.508 -1291.5,552.5 -1319.508,552.5 -1319.508,498.5 -1336.5,498.5 -1336.5,444.5 -1319.508,444.5 -1319.508,408.5 
		-1336.5,408.5 -1336.5,372.5 -1319.508,372.5 -1319.508,336.5 -1336.5,336.5 -1336.5,300.5 -1319.508,300.5 -1319.508,264.5 
		-1336.5,264.5 -1336.5,228.5 -1319.508,228.5 -1319.508,192.5 -1336.5,192.5 -1336.5,156.5 -1319.508,156.5 -1319.508,120.5 
		-1336.5,120.5 -1336.5,66.5 -1319.508,66.5 	"/>
</g>
<g transform="translate(1372.5, 697.5) ">
	<polygon fill="none" stroke="#FF0000" stroke-width="0.9" points="-1319.508,-119.5 -1291.5,-119.5 -1291.5,-102.508 
		-1246.5,-102.508 -1246.5,-119.5 -1210.5,-119.5 -1210.5,-102.508 -1174.5,-102.508 -1174.5,-119.5 -1138.5,-119.5 
		-1138.5,-102.508 -1102.5,-102.508 -1102.5,-119.5 -1066.5,-119.5 -1066.5,-102.508 -1030.5,-102.508 -1030.5,-119.5 
		-994.5,-119.5 -994.5,-102.508 -958.5,-102.508 -958.5,-119.5 -922.5,-119.5 -922.5,-102.508 -886.5,-102.508 -886.5,-119.5 
		-850.5,-119.5 -850.5,-102.508 -814.5,-102.508 -814.5,-119.5 -778.5,-119.5 -778.5,-102.508 -742.5,-102.508 -742.5,-119.5 
		-706.5,-119.5 -706.5,-102.508 -670.5,-102.508 -670.5,-119.5 -634.5,-119.5 -634.5,-102.508 -589.5,-102.508 -589.5,-119.5 
		-561.492,-119.5 -561.492,-65.5 -544.5,-65.5 -544.5,-11.5 -561.492,-11.5 -561.492,24.5 -544.5,24.5 -544.5,60.5 -561.492,60.5 
		-561.492,96.5 -544.5,96.5 -544.5,132.5 -561.492,132.5 -561.492,168.5 -544.5,168.5 -544.5,204.5 -561.492,204.5 -561.492,240.5 
		-544.5,240.5 -544.5,276.5 -561.492,276.5 -561.492,312.5 -544.5,312.5 -544.5,366.5 -561.492,366.5 -561.492,420.5 -589.5,420.5 
		-589.5,403.508 -634.5,403.508 -634.5,420.5 -670.5,420.5 -670.5,403.508 -706.5,403.508 -706.5,420.5 -742.5,420.5 
		-742.5,403.508 -778.5,403.508 -778.5,420.5 -814.5,420.5 -814.5,403.508 -850.5,403.508 -850.5,420.5 -886.5,420.5 
		-886.5,403.508 -922.5,403.508 -922.5,420.5 -958.5,420.5 -958.5,403.508 -994.5,403.508 -994.5,420.5 -1030.5,420.5 
		-1030.5,403.508 -1066.5,403.508 -1066.5,420.5 -1102.5,420.5 -1102.5,403.508 -1138.5,403.508 -1138.5,420.5 -1174.5,420.5 
		-1174.5,403.508 -1210.5,403.508 -1210.5,420.5 -1246.5,420.5 -1246.5,403.508 -1291.5,403.508 -1291.5,420.5 -1319.508,420.5 
		-1319.508,366.5 -1336.5,366.5 -1336.5,312.5 -1319.508,312.5 -1319.508,276.5 -1336.5,276.5 -1336.5,240.5 -1319.508,240.5 
		-1319.508,204.5 -1336.5,204.5 -1336.5,168.5 -1319.508,168.5 -1319.508,132.5 -1336.5,132.5 -1336.5,96.5 -1319.508,96.5 
		-1319.508,60.5 -1336.5,60.5 -1336.5,24.5 -1319.508,24.5 -1319.508,-11.5 -1336.5,-11.5 -1336.5,-65.5 -1319.508,-65.5 	"/>
</g>
</svg>
