<?xml version="1.0" encoding="utf-8"?>
<!-- Generator: Adobe Illustrator 15.0.0, SVG Export Plug-In . SVG Version: 6.00 Build 0)  -->
<!DOCTYPE svg PUBLIC "-//W3C//DTD SVG 1.1//EN" "http://www.w3.org/Graphics/SVG/1.1/DTD/svg11.dtd">
<svg version="1.1" id="Layer_1" xmlns="http://www.w3.org/2000/svg" xmlns:xlink="http://www.w3.org/1999/xlink" x="0px" y="0px"
	 width="864px" height="1152px" viewBox="0 0 864 1152" enable-background="new 0 0 864 1152" xml:space="preserve">
<g transform="translate(22.5, 22.5) ">
	<polygon fill="none" stroke="#ED2224" stroke-width="0.9" points="126.547,-4.492 180.547,-4.492 180.547,12.5 234.547,12.5 
		234.547,-4.492 270.547,-4.492 270.547,12.5 306.547,12.5 306.547,-4.492 342.547,-4.492 342.547,12.5 378.547,12.5 
		378.547,-4.492 414.547,-4.492 414.547,12.5 450.547,12.5 450.547,-4.492 486.547,-4.492 486.547,12.5 522.547,12.5 
		522.547,-4.492 558.547,-4.492 558.547,12.5 612.547,12.5 612.547,-4.492 666.547,-4.492 666.547,49.508 649.555,49.508 
		649.555,103.508 666.547,103.508 666.547,139.508 649.555,139.508 649.555,175.508 666.547,175.508 666.547,211.508 
		649.555,211.508 649.555,247.508 666.547,247.508 666.547,283.508 649.555,283.508 649.555,319.508 666.547,319.508 
		666.547,355.508 649.555,355.508 649.555,391.508 666.547,391.508 666.547,427.508 649.555,427.508 649.555,481.508 
		666.547,481.508 666.547,535.508 612.547,535.508 612.547,518.516 558.547,518.516 558.547,535.508 522.547,535.508 
		522.547,518.516 486.547,518.516 486.547,535.508 450.547,535.508 450.547,518.516 414.547,518.516 414.547,535.508 
		378.547,535.508 378.547,518.516 342.547,518.516 342.547,535.508 306.547,535.508 306.547,518.516 270.547,518.516 
		270.547,535.508 234.547,535.508 234.547,518.516 180.547,518.516 180.547,535.508 126.547,535.508 126.547,481.508 
		143.539,481.508 143.539,427.508 126.547,427.508 126.547,391.508 143.539,391.508 143.539,355.508 126.547,355.508 
		126.547,319.508 143.539,319.508 143.539,283.508 126.547,283.508 126.547,247.508 143.539,247.508 143.539,211.508 
		126.547,211.508 126.547,175.508 143.539,175.508 143.539,139.508 126.547,139.508 126.547,103.508 143.539,103.508 
		143.539,49.508 126.547,49.508 	"/>
</g>
<g transform="translate(697.5, 22.5) ">
	<polygon fill="none" stroke="#ED2224" stroke-width="0.9" points="-548.453,541.5 -494.453,541.5 -494.453,558.492 
		-440.453,558.492 -440.453,541.5 -404.453,541.5 -404.453,558.492 -368.453,558.492 -368.453,541.5 -332.453,541.5 
		-332.453,558.492 -296.453,558.492 -296.453,541.5 -260.453,541.5 -260.453,558.492 -224.453,558.492 -224.453,541.5 
		-188.453,541.5 -188.453,558.492 -152.453,558.492 -152.453,541.5 -116.453,541.5 -116.453,558.492 -62.453,558.492 -62.453,541.5 
		-8.453,541.5 -8.453,595.5 -25.445,595.5 -25.445,649.5 -8.453,649.5 -8.453,685.5 -25.445,685.5 -25.445,721.5 -8.453,721.5 
		-8.453,757.5 -25.445,757.5 -25.445,793.5 -8.453,793.5 -8.453,829.5 -25.445,829.5 -25.445,865.5 -8.453,865.5 -8.453,901.5 
		-25.445,901.5 -25.445,937.5 -8.453,937.5 -8.453,973.5 -25.445,973.5 -25.445,1027.5 -8.453,1027.5 -8.453,1081.5 -62.453,1081.5 
		-62.453,1064.508 -116.453,1064.508 -116.453,1081.5 -152.453,1081.5 -152.453,1064.508 -188.453,1064.508 -188.453,1081.5 
		-224.453,1081.5 -224.453,1064.508 -260.453,1064.508 -260.453,1081.5 -296.453,1081.5 -296.453,1064.508 -332.453,1064.508 
		-332.453,1081.5 -368.453,1081.5 -368.453,1064.508 -404.453,1064.508 -404.453,1081.5 -440.453,1081.5 -440.453,1064.508 
		-494.453,1064.508 -494.453,1081.5 -548.453,1081.5 -548.453,1027.5 -531.461,1027.5 -531.461,973.5 -548.453,973.5 
		-548.453,937.5 -531.461,937.5 -531.461,901.5 -548.453,901.5 -548.453,865.5 -531.461,865.5 -531.461,829.5 -548.453,829.5 
		-548.453,793.5 -531.461,793.5 -531.461,757.5 -548.453,757.5 -548.453,721.5 -531.461,721.5 -531.461,685.5 -548.453,685.5 
		-548.453,649.5 -531.461,649.5 -531.461,595.5 -548.453,595.5 	"/>
</g>
<path fill="#FFFFFF" stroke="#ED2224" stroke-miterlimit="10" d="M620.57,356.89c0,4.865-2.195,9.27-5.742,12.458
	c-3.549,3.188-8.449,5.16-13.863,5.16H419.047H237.13c-5.414,0-10.315-1.972-13.863-5.16s-5.742-7.593-5.742-12.458V224.008V91.125
	c0-4.865,2.194-9.27,5.742-12.458c3.548-3.188,8.449-5.16,13.863-5.16h181.917h181.918c5.414,0,10.314,1.972,13.863,5.16
	c3.547,3.188,5.742,7.593,5.742,12.458v132.882V356.89z"/>
<polygon fill="#FFFFFF" stroke="#ED2224" stroke-miterlimit="10" points="224.037,118.788 217.524,118.788 211.012,118.788 
	211.012,155.148 211.012,191.508 217.524,191.508 224.037,191.508 224.037,155.148 "/>
<polygon fill="#FFFFFF" stroke="#ED2224" stroke-miterlimit="10" points="224.037,251.648 217.524,251.648 211.012,251.648 
	211.012,288.008 211.012,324.367 217.524,324.367 224.037,324.367 224.037,288.008 "/>
<g>
	<g id="SPLINE_2_">
		
			<path fill="none" stroke="#ED2224" stroke-width="0.7087" stroke-linecap="round" stroke-linejoin="round" stroke-miterlimit="10" d="
			M527.562,411.475c0,0,0.002-2.517,0.002-5.299c0.002-2.781,0.003-5.826,0.003-6.885c0-3.56-1.176-5.939-2.687-7.43
			c-1.51-1.489-3.354-2.09-4.689-2.09s-3.164,0.601-4.657,2.09c-1.493,1.49-2.652,3.87-2.652,7.43c0,1.904,0.001,4.951,0.001,7.52
			c0.001,2.57,0.002,4.664,0.002,4.664"/>
	</g>
	<g id="LWPOLYLINE_4_">
		
			<polyline fill="none" stroke="#ED2224" stroke-width="0.7087" stroke-linecap="round" stroke-linejoin="round" stroke-miterlimit="10" points="
			512.174,417.988 512.174,415.4 512.174,413.662 512.174,412.568 512.174,411.475 512.529,411.475 512.885,411.475 		"/>
	</g>
	<g id="LWPOLYLINE_3_">
		
			<path fill="none" stroke="#ED2224" stroke-width="0.7087" stroke-linecap="round" stroke-linejoin="round" stroke-miterlimit="10" d="
			M519.868,414.307"/>
		
			<polyline fill="none" stroke="#ED2224" stroke-width="0.7087" stroke-linecap="round" stroke-linejoin="round" stroke-miterlimit="10" points="
			527.562,411.475 527.852,411.475 528.14,411.475 528.175,414.307 528.209,417.988 520.191,417.988 512.174,417.988 		"/>
	</g>
</g>
<g>
	<g id="SPLINE_1_">
		
			<path fill="none" stroke="#ED2224" stroke-width="0.7087" stroke-linecap="round" stroke-linejoin="round" stroke-miterlimit="10" d="
			M325.563,412.475c0,0,0.001-2.517,0.002-5.299c0.001-2.781,0.002-5.826,0.002-6.885c0-3.56-1.176-5.939-2.686-7.43
			c-1.51-1.489-3.354-2.09-4.69-2.09c-1.336,0-3.164,0.601-4.657,2.09c-1.493,1.49-2.652,3.87-2.652,7.43
			c0,1.904,0,4.951,0.001,7.52c0,2.57,0.001,4.664,0.001,4.664"/>
	</g>
	<g id="LWPOLYLINE_2_">
		
			<polyline fill="none" stroke="#ED2224" stroke-width="0.7087" stroke-linecap="round" stroke-linejoin="round" stroke-miterlimit="10" points="
			310.173,418.988 310.173,416.4 310.173,414.662 310.173,413.568 310.173,412.475 310.529,412.475 310.884,412.475 		"/>
	</g>
	<g id="LWPOLYLINE_1_">
		
			<path fill="none" stroke="#ED2224" stroke-width="0.7087" stroke-linecap="round" stroke-linejoin="round" stroke-miterlimit="10" d="
			M317.868,415.307"/>
		
			<polyline fill="none" stroke="#ED2224" stroke-width="0.7087" stroke-linecap="round" stroke-linejoin="round" stroke-miterlimit="10" points="
			325.563,412.475 325.852,412.475 326.14,412.475 326.175,415.307 326.209,418.988 318.191,418.988 310.173,418.988 		"/>
	</g>
</g>
<g>
	<g>
		<g>
			<path fill-rule="evenodd" clip-rule="evenodd" fill="#FFFFFF" d="M282.636,190.213c-17.241,1.069-31.861-8.412-32.654-21.181
				c-0.795-12.766,12.544-23.981,29.785-25.052c17.24-1.071,31.863,8.412,32.653,21.18
				C313.211,177.929,299.876,189.144,282.636,190.213z"/>
			<path fill="#231F20" d="M282.643,190.322c-3.586,0.215-7.197,0.05-10.758-0.548c-3.557-0.612-7.079-1.652-10.35-3.317
				c-1.63-0.836-3.207-1.809-4.646-2.974c-0.726-0.576-1.42-1.195-2.078-1.852c-0.654-0.665-1.275-1.364-1.842-2.113
				c-1.137-1.484-2.083-3.138-2.752-4.906c-0.679-1.764-1.049-3.641-1.143-5.522c-0.08-1.883,0.149-3.776,0.649-5.574
				c0.504-1.8,1.277-3.508,2.24-5.078c0.969-1.569,2.11-3.013,3.39-4.315c1.271-1.311,2.664-2.485,4.139-3.535
				c2.946-2.115,6.217-3.737,9.63-4.932c3.417-1.183,6.984-1.953,10.607-2.273c3.618-0.315,7.298-0.21,10.907,0.448
				c3.606,0.653,7.138,1.846,10.395,3.609c3.253,1.759,6.245,4.121,8.54,7.126c2.303,2.988,3.79,6.695,4.009,10.521
				c0.215,3.824-0.809,7.675-2.755,10.891c-0.479,0.804-1.009,1.581-1.583,2.32c-0.578,0.733-1.199,1.43-1.848,2.09
				c-1.297,1.327-2.75,2.487-4.267,3.515c-3.052,2.049-6.418,3.518-9.872,4.564C289.794,189.504,286.227,190.101,282.643,190.322z
				 M282.627,190.104c3.57-0.224,7.104-0.962,10.443-2.203c3.334-1.231,6.464-2.983,9.205-5.167
				c1.373-1.087,2.632-2.298,3.776-3.595c0.569-0.649,1.104-1.33,1.592-2.033c0.498-0.699,0.955-1.423,1.364-2.17
				c0.811-1.499,1.448-3.079,1.841-4.716c0.393-1.633,0.535-3.322,0.414-4.991c-0.112-1.667-0.466-3.317-1.068-4.883
				c-0.604-1.567-1.439-3.043-2.44-4.413c-2.015-2.734-4.719-4.975-7.723-6.693c-3.008-1.722-6.325-2.926-9.737-3.691
				c-3.422-0.763-6.956-1.101-10.489-0.975c-3.531,0.125-7.067,0.689-10.443,1.784c-3.38,1.082-6.605,2.681-9.451,4.799
				c-1.417,1.062-2.732,2.259-3.901,3.574c-1.16,1.325-2.19,2.759-3.001,4.303c-1.637,3.074-2.416,6.555-2.119,9.945
				c0.264,3.394,1.594,6.633,3.627,9.384c0.507,0.689,1.05,1.352,1.637,1.982c0.58,0.634,1.2,1.242,1.846,1.813
				c1.307,1.142,2.711,2.184,4.212,3.088c1.496,0.914,3.077,1.704,4.717,2.367c0.822,0.333,1.654,0.634,2.499,0.907
				c0.848,0.267,1.704,0.5,2.572,0.706C275.459,190.053,279.062,190.329,282.627,190.104z"/>
		</g>
		<g id="sg3aRw.tif">
			<g>
				<path fill-rule="evenodd" clip-rule="evenodd" fill="#FFFFFF" d="M306.669,203.644c-3.709,0-1.494-0.498-5.203-0.498
					c-1.256-10.224,0.639-16.537-1.602-24.55c-3.47-12.407-33.937-10.689-37.119-0.258c-2.315,7.599,0.653,16.535-0.694,25.434
					c-3.593,0-2.412-0.128-6-0.128c0.61-9.594-0.838-17.951,0-25.489c1.322-11.912,13.431-21.594,28.001-20.102
					c9.269,0.95,17.861,6.968,21.183,15.079C308.528,181.184,305.726,191.725,306.669,203.644z"/>
				<path fill-rule="evenodd" clip-rule="evenodd" fill="#FFFFFF" d="M253.539,202.929c-0.226,1.341-4.23,0.778-5.027,0.358
					C248.737,201.944,252.737,202.503,253.539,202.929z"/>
				<path fill-rule="evenodd" clip-rule="evenodd" fill="#FFFFFF" d="M283.694,202.929c-0.227,1.341-4.229,0.778-5.028,0.358
					C278.895,201.944,282.892,202.503,283.694,202.929z"/>
				<path fill-rule="evenodd" clip-rule="evenodd" fill="#FFFFFF" d="M314.209,202.929c-0.263,1.172-5.124,1.172-5.388,0
					C309.881,202.415,313.175,202.271,314.209,202.929z"/>
				<path fill-rule="evenodd" clip-rule="evenodd" fill="#FFFFFF" d="M280.464,205.8c-0.994,1.943-5.083,1.078-7.899,1.078
					c-7.937,0-17.923,0.288-25.488-0.359c0-0.239,0-0.481,0-0.719c-0.06-0.416,0.077-0.64,0.36-0.72
					C257.936,205.548,270.608,204.142,280.464,205.8z"/>
				<path fill-rule="evenodd" clip-rule="evenodd" fill="#FFFFFF" d="M315.285,205.8c-0.991,1.943-5.08,1.078-7.899,1.078
					c-8.277,0-18.651,0.288-26.563-0.359c0-0.239,0-0.481,0-0.719c-0.06-0.416,0.077-0.64,0.356-0.72
					C292.056,205.553,305.059,204.142,315.285,205.8z"/>
				<path fill-rule="evenodd" clip-rule="evenodd" fill="#FFFFFF" d="M280.464,208.312c-1.019,2.573-4.955,1.437-7.54,1.437
					c-7.999,0-18.241,0.291-25.847-0.358c0-0.717,0-1.435,0-2.156c7.353,0,17.884,0,26.203,0
					C275.701,207.234,278.885,206.343,280.464,208.312z"/>
				<path fill-rule="evenodd" clip-rule="evenodd" fill="#FFFFFF" d="M315.285,208.312c-0.329,2.522-5.107,1.437-7.899,1.437
					c-8.28,0-19.346,0.574-26.563-0.72c0-0.237,0-0.479,0-0.717c-0.017-0.616,0.264-0.929,0.717-1.077
					c9.495,0.42,20.426-0.556,30.515,0C312.877,207.279,315.349,206.423,315.285,208.312z"/>
				<path fill-rule="evenodd" clip-rule="evenodd" fill="#FFFFFF" d="M248.87,212.62c-0.304-1.05-0.902,0.466-1.793,0
					c0-0.838,0-1.676,0-2.512c11.128,0,22.256,0,33.387,0c0.336,1.845-0.441,2.576-1.078,2.512c0.918,0.279,1.359,1.033,1.078,2.513
					c-11.13,0-22.259,0-33.387,0C246.7,213.323,247.454,212.641,248.87,212.62z M279.025,212.62c-5.023,0-10.052,0-15.075,0
					c-2.515,0-5.027,0-7.54,0c-2.277,0.238-5.498-0.473-7.18,0.359C259.043,212.741,269.811,213.456,279.025,212.62z"/>
				<path fill-rule="evenodd" clip-rule="evenodd" d="M249.23,212.979c1.682-0.832,4.902-0.121,7.18-0.359c2.512,0,5.025,0,7.54,0
					c5.023,0,10.052,0,15.075,0C269.811,213.456,259.043,212.741,249.23,212.979z"/>
				<path fill-rule="evenodd" clip-rule="evenodd" d="M283.694,212.979c2.158-0.834,5.861-0.121,8.617-0.359
					C290.15,213.456,286.445,212.743,283.694,212.979z"/>
				<path fill-rule="evenodd" clip-rule="evenodd" d="M298.054,212.979c3.111-0.834,7.775-0.121,11.486-0.359
					C306.427,213.456,301.763,212.741,298.054,212.979z"/>
				<path fill-rule="evenodd" clip-rule="evenodd" fill="#FFFFFF" d="M280.464,216.572c-1.019,2.567-4.955,1.434-7.54,1.434
					c-7.999,0-18.241,0.288-25.847-0.358c0-0.72,0-1.437,0-2.154c7.353,0,17.884,0,26.203,0
					C275.701,215.493,278.885,214.598,280.464,216.572z"/>
				<path fill-rule="evenodd" clip-rule="evenodd" fill="#FFFFFF" d="M315.285,216.572c-0.329,2.519-5.107,1.434-7.899,1.434
					c-8.28,0-19.346,0.576-26.563-0.719c0-0.238,0-0.478,0-0.715c-0.017-0.617,0.264-0.932,0.717-1.079
					c9.495,0.42,20.426-0.557,30.515,0C312.877,215.537,315.349,214.683,315.285,216.572z"/>
				<path fill-rule="evenodd" clip-rule="evenodd" fill="#FFFFFF" d="M280.464,219.084c-0.215,2.508-5.019,1.434-7.54,1.434
					c-8.036,0-18.875,0.576-25.847-0.717c0-0.239,0-0.479,0-0.717c-0.06-0.418,0.077-0.642,0.36-0.719
					C257.936,218.835,270.608,217.423,280.464,219.084z"/>
				<path fill-rule="evenodd" clip-rule="evenodd" fill="#FFFFFF" d="M315.285,219.084c-0.329,2.518-5.107,1.434-7.899,1.434
					c-8.248,0-19.364,0.576-26.563-0.717c0-0.239,0-0.479,0-0.717c-0.06-0.418,0.077-0.642,0.356-0.719
					C292.056,218.835,305.059,217.421,315.285,219.084z"/>
				<path fill-rule="evenodd" clip-rule="evenodd" fill="#FFFFFF" d="M280.464,222.313c-0.994,1.944-5.083,1.078-7.899,1.078
					c-7.937,0-17.923,0.292-25.488-0.36c0-0.599,0-1.197,0-1.796c0.317-0.22,0.642-0.432,0.717,0c7.176-0.077,18.398,0.071,26.208,0
					C276.405,221.213,279.884,220.062,280.464,222.313z"/>
				<path fill-rule="evenodd" clip-rule="evenodd" fill="#FFFFFF" d="M315.285,222.313c-0.991,1.944-5.08,1.078-7.899,1.078
					c-8.277,0-18.651,0.292-26.563-0.36c0-0.599,0-1.197,0-1.796c0.319-0.22,0.639-0.432,0.717,0c7.432,0.336,20.182-0.548,30.872,0
					C313.152,221.274,315.513,220.5,315.285,222.313z"/>
				<path fill-rule="evenodd" clip-rule="evenodd" fill="#FFFFFF" d="M280.464,225.185c-0.994,1.944-5.083,1.078-7.899,1.078
					c-7.937,0-17.923,0.29-25.488-0.358c0-0.72,0-1.437,0-2.156c7.277,0,17.964,0,26.203,0
					C275.587,223.748,279.434,222.597,280.464,225.185z"/>
				<path fill-rule="evenodd" clip-rule="evenodd" fill="#FFFFFF" d="M315.285,224.826c-0.25,2.513-5.322,1.437-7.899,1.437
					c-8.236,0-18.725,0.29-26.563-0.358c0-0.358,0-0.72,0-1.078c-0.017-0.612,0.264-0.93,0.717-1.078
					c9.495,0.422,20.426-0.558,30.515,0C312.877,223.797,315.349,222.939,315.285,224.826z"/>
				<path fill-rule="evenodd" clip-rule="evenodd" fill="#FFFFFF" d="M247.077,226.621c10.13,0.462,23.848-0.936,33.387,0.718
					c-0.181,2.711-4.134,1.312-6.462,1.437c-7.734,0.409-19.57,0.117-26.925,0C247.077,228.057,247.077,227.339,247.077,226.621z"/>
				<path fill-rule="evenodd" clip-rule="evenodd" fill="#FFFFFF" d="M280.823,226.621c7.871,0.713,21.653-0.918,31.589,0
					c1.958,0.182,2.339-0.543,2.874,1.436c0.315,1.176-6.583,1.132-9.692,1.078c-6.91-0.126-20.755,0.07-24.771-0.718
					C280.823,227.818,280.823,227.22,280.823,226.621z"/>
				<path fill-rule="evenodd" clip-rule="evenodd" fill="#FFFFFF" d="M280.464,230.212c-0.215,2.511-5.019,1.435-7.54,1.435
					c-8.036,0-18.875,0.576-25.847-0.717c0-0.24,0-0.48,0-0.718c-0.06-0.418,0.077-0.64,0.36-0.718
					C257.936,229.963,270.608,228.555,280.464,230.212z"/>
				<path fill-rule="evenodd" clip-rule="evenodd" fill="#FFFFFF" d="M315.285,230.212c-0.329,2.518-5.107,1.435-7.899,1.435
					c-8.248,0-19.364,0.576-26.563-0.717c0-0.24,0-0.48,0-0.718c-0.06-0.418,0.077-0.64,0.356-0.718
					C292.056,229.963,305.059,228.555,315.285,230.212z"/>
				<path fill-rule="evenodd" clip-rule="evenodd" fill="#FFFFFF" d="M280.464,233.441c-0.994,1.944-5.083,1.078-7.899,1.078
					c-7.937,0-17.923,0.293-25.488-0.361c0-0.717,0-1.434,0-2.153c6.327,0.022,18.044,0,26.563,0
					C276.021,232.005,279.899,230.993,280.464,233.441z"/>
				<path fill-rule="evenodd" clip-rule="evenodd" fill="#FFFFFF" d="M315.285,233.441c-0.991,1.944-5.08,1.078-7.899,1.078
					c-8.277,0-18.651,0.293-26.563-0.361c0-0.355,0-0.717,0-1.075c-0.017-0.614,0.264-0.93,0.717-1.078
					c5.977,0.039,17.72,0,26.563,0C310.852,232.005,314.602,231.048,315.285,233.441z"/>
				<path fill-rule="evenodd" clip-rule="evenodd" fill="#FFFFFF" d="M280.464,235.954c-1.019,2.572-4.955,1.437-7.54,1.437
					c-7.999,0-18.241,0.29-25.847-0.358c0-0.72,0-1.435,0-2.156c7.353,0,17.884,0,26.203,0
					C275.701,234.876,278.885,233.985,280.464,235.954z"/>
				<path fill-rule="evenodd" clip-rule="evenodd" fill="#FFFFFF" d="M315.285,235.954c-0.329,2.522-5.107,1.437-7.899,1.437
					c-8.28,0-19.346,0.574-26.563-0.717c0-0.24,0-0.481,0-0.72c-0.017-0.612,0.264-0.927,0.717-1.078
					c9.495,0.425,20.426-0.558,30.515,0C312.877,234.924,315.349,234.068,315.285,235.954z"/>
				<path fill-rule="evenodd" clip-rule="evenodd" fill="#FFFFFF" d="M280.464,238.467c-0.215,2.513-5.019,1.438-7.54,1.438
					c-8.036,0-18.875,0.577-25.847-0.716c0-0.242,0-0.479,0-0.722c-0.06-0.416,0.077-0.638,0.36-0.717
					C257.936,238.22,270.608,236.809,280.464,238.467z"/>
				<path fill-rule="evenodd" clip-rule="evenodd" fill="#FFFFFF" d="M315.285,238.467c-0.329,2.52-5.107,1.438-7.899,1.438
					c-8.248,0-19.364,0.577-26.563-0.716c0-0.242,0-0.479,0-0.722c-0.06-0.416,0.077-0.638,0.356-0.717
					C292.056,238.22,305.059,236.809,315.285,238.467z"/>
				<path fill-rule="evenodd" clip-rule="evenodd" fill="#FFFFFF" d="M280.464,241.701c-0.994,1.941-5.083,1.078-7.899,1.078
					c-7.937,0-17.923,0.288-25.488-0.361c0-0.717,0-1.437,0-2.156c7.277,0,17.964,0,26.203,0
					C275.587,240.262,279.434,239.111,280.464,241.701z"/>
				<path fill-rule="evenodd" clip-rule="evenodd" fill="#FFFFFF" d="M315.285,241.34c-0.329,2.521-5.107,1.439-7.899,1.439
					c-8.28,0-19.346,0.571-26.563-0.723c0-0.236,0-0.477,0-0.717c-0.017-0.613,0.264-0.932,0.717-1.078
					c9.495,0.424,20.426-0.557,30.515,0C312.877,240.308,315.349,239.453,315.285,241.34z"/>
				<path fill-rule="evenodd" clip-rule="evenodd" fill="#FFFFFF" d="M280.464,243.853c-0.345,3.103-4.934,1.796-7.184,1.796
					c-8.152,0-18.629,0.287-26.203-0.359c0-0.717,0-1.437,0-2.154C257.207,243.598,270.925,242.199,280.464,243.853z"/>
				<path fill-rule="evenodd" clip-rule="evenodd" fill="#FFFFFF" d="M315.285,244.211c-0.329,2.52-5.107,1.438-7.899,1.438
					c-8.28,0-19.346,0.575-26.563-0.718c0-0.242,0-0.479,0-0.72c-0.017-0.613,0.264-0.927,0.717-1.076
					c9.495,0.421,20.426-0.557,30.515,0C312.877,243.182,315.349,242.322,315.285,244.211z"/>
				<path fill-rule="evenodd" clip-rule="evenodd" fill="#FFFFFF" d="M280.464,246.365c-1.019,2.572-4.955,1.437-7.54,1.437
					c-7.999,0-18.241,0.292-25.847-0.358c0-0.24,0-0.48,0-0.717c-0.06-0.42,0.077-0.64,0.36-0.718
					C258.324,246.246,270.171,245.529,280.464,246.365z"/>
				<path fill-rule="evenodd" clip-rule="evenodd" fill="#FFFFFF" d="M315.285,246.727c-0.991,1.941-5.08,1.075-7.899,1.075
					c-8.277,0-18.651,0.292-26.563-0.358c0-0.24,0-0.48,0-0.717c-0.06-0.42,0.077-0.64,0.356-0.718
					C292.056,246.478,305.059,245.065,315.285,246.727z"/>
				<path fill-rule="evenodd" clip-rule="evenodd" fill="#FFFFFF" d="M314.927,262.88c-0.341,2.532-4.994,1.437-7.541,1.437
					c-19.126,0-42.073,0.587-60.309-0.718c-0.101-0.819,0.084-1.351,0.717-1.437C269.683,262.635,293.682,261.217,314.927,262.88z"
					/>
				<path fill-rule="evenodd" clip-rule="evenodd" fill="#FFFFFF" d="M253.539,266.109c-0.158,1.174-4.872,1.174-5.027,0
					C248.758,264.851,253.255,265.067,253.539,266.109z"/>
				<path fill-rule="evenodd" clip-rule="evenodd" fill="#FFFFFF" d="M290.514,265.753c-1.93,1.927-5.818,1.075-9.335,1.075
					c-3.385,0-7.085,0-10.05,0c0-0.239,0-0.477,0-0.719C276.053,264.68,284.993,265.396,290.514,265.753z"/>
				<path fill-rule="evenodd" clip-rule="evenodd" fill="#FFFFFF" d="M314.209,266.109c-0.345,1.15-5.544,1.346-5.388-0.356
					C309.897,265.323,313.695,264.83,314.209,266.109z"/>
				<path fill-rule="evenodd" clip-rule="evenodd" d="M307.747,203.644c0.605-1.903,3.582-1.441,6.101-1.435
					c0.82,0.735,1.336,1.779,2.872,1.795c0.562,19.186-1.467,40.958,1.797,57.441c0.338,1.297-1.414,0.5-2.154,0.717
					c1.119,3.395-1.937,2.613-1.795,5.025c-2.805-0.068-6.443,0.699-6.821-1.796c-5.267,0-10.534,0-15.796,0
					c-1.505-0.425-0.642,1.513-1.437,1.796c-6.461,0-12.921,0-19.385,0c-1.206,0.367-0.56-1.117-0.717-1.796
					c-5.025,0-10.052,0-15.08,0c-1.046,2.063-4.248,1.974-7.537,1.796c0.324-2.479-2.924-1.385-1.795-4.669
					c0.059-1.015-2.211,0.302-2.152-0.718c3.207-16.655,1.27-38.455,1.793-57.796c1.13-0.306,2.419-0.451,2.512-1.795
					c1.917,0.596,6.425-1.397,6.101,1.435c1.195-9.648-0.15-17.755,0.722-25.848c1.288-11.989,12.507-20.677,25.13-21.18
					c12.997-0.516,26.198,8.614,27.642,21.9C308.592,186.289,307.133,194.148,307.747,203.644z M247.077,215.132
					c11.128,0,22.256,0,33.387,0c0.281-1.48-0.16-2.234-1.078-2.513c0.637,0.064,1.414-0.667,1.078-2.512
					c-11.13,0-22.259,0-33.387,0c0,0.836,0,1.674,0,2.512c0.891,0.466,1.489-1.05,1.793,0
					C247.454,212.641,246.7,213.323,247.077,215.132z M305.235,173.132c-3.321-8.111-11.914-14.129-21.183-15.079
					c-14.57-1.492-26.679,8.19-28.001,20.102c-0.838,7.538,0.61,15.895,0,25.489c3.588,0,3.321,0,6.912,0
					c1.348-8.899-2.953-18.246-0.637-25.848c3.18-10.429,34.447-12.046,37.917,0.359c2.243,8.011-1.369,15.262-0.114,25.489
					c3.709,0,2.832,0,6.541,0C305.726,191.725,308.528,181.184,305.235,173.132z M298.808,177.44
					c-3.477-8.504-32.003-9.888-35.043,0.715c-2.407,8.376,2.01,15.311,0.635,25.489c3.109,0,10.08,0,13.193,0
					c0.146-2.483,4.184-1.076,6.459-1.435c0.955-0.114-0.333,2.012,1.078,1.435c3.111,0,10.809,0,13.92,0
					C297.649,194.706,301.697,184.512,298.808,177.44z M248.512,203.287c0.797,0.42,4.801,0.982,5.027-0.358
					C252.737,202.503,248.737,201.944,248.512,203.287z M278.666,203.287c0.799,0.42,4.801,0.982,5.028-0.358
					C282.892,202.503,278.895,201.944,278.666,203.287z M308.821,202.929c0.265,1.172,5.125,1.172,5.388,0
					C313.175,202.271,309.881,202.415,308.821,202.929z M247.438,205.08c-0.283,0.08-0.42,0.304-0.36,0.72c0,0.237,0,0.479,0,0.719
					c7.565,0.646,17.551,0.359,25.488,0.359c2.816,0,6.905,0.866,7.899-1.078C270.608,204.142,257.936,205.548,247.438,205.08z
					 M281.179,205.08c-0.279,0.08-0.416,0.304-0.356,0.72c0,0.237,0,0.479,0,0.719c7.912,0.646,18.286,0.359,26.563,0.359
					c2.819,0,6.908,0.866,7.899-1.078C305.059,204.142,292.056,205.553,281.179,205.08z M273.28,207.234c-8.319,0-18.851,0-26.203,0
					c0,0.721,0,1.438,0,2.156c7.606,0.649,17.848,0.358,25.847,0.358c2.585,0,6.521,1.136,7.54-1.437
					C278.885,206.343,275.701,207.234,273.28,207.234z M312.055,207.234c-10.089-0.556-21.021,0.42-30.515,0
					c-0.453,0.148-0.734,0.461-0.717,1.077c0,0.238,0,0.48,0,0.717c7.217,1.293,18.284,0.72,26.563,0.72
					c2.792,0,7.57,1.085,7.899-1.437C315.349,206.423,312.877,207.279,312.055,207.234z M280.823,215.132
					c11.347-0.466,24.495,0.939,34.462-0.717c0.907-2.462-2.353-0.756-2.874-1.795c1.882,0.206,3.431,0.083,2.874-2.154
					c-10.772-0.838-23.095-0.121-34.462-0.358C280.987,212.412,280.987,212.83,280.823,215.132z M273.28,215.493
					c-8.319,0-18.851,0-26.203,0c0,0.718,0,1.435,0,2.154c7.606,0.646,17.848,0.358,25.847,0.358c2.585,0,6.521,1.133,7.54-1.434
					C278.885,214.598,275.701,215.493,273.28,215.493z M312.055,215.493c-10.089-0.557-21.021,0.42-30.515,0
					c-0.453,0.146-0.734,0.461-0.717,1.079c0,0.237,0,0.477,0,0.715c7.217,1.295,18.284,0.719,26.563,0.719
					c2.792,0,7.57,1.085,7.899-1.434C315.349,214.683,312.877,215.537,312.055,215.493z M247.438,218.365
					c-0.283,0.077-0.42,0.301-0.36,0.719c0,0.237,0,0.478,0,0.717c6.971,1.293,17.811,0.717,25.847,0.717
					c2.521,0,7.325,1.074,7.54-1.434C270.608,217.423,257.936,218.835,247.438,218.365z M281.179,218.365
					c-0.279,0.077-0.416,0.301-0.356,0.719c0,0.237,0,0.478,0,0.717c7.199,1.293,18.316,0.717,26.563,0.717
					c2.792,0,7.57,1.084,7.899-1.434C305.059,217.421,292.056,218.835,281.179,218.365z M274.002,221.235
					c-7.81,0.071-19.031-0.077-26.208,0c-0.076-0.432-0.4-0.22-0.717,0c0,0.599,0,1.197,0,1.796
					c7.565,0.652,17.551,0.36,25.488,0.36c2.816,0,6.905,0.866,7.899-1.078C279.884,220.062,276.405,221.213,274.002,221.235z
					 M312.412,221.235c-10.69-0.548-23.439,0.336-30.872,0c-0.078-0.432-0.398-0.22-0.717,0c0,0.599,0,1.197,0,1.796
					c7.912,0.652,18.286,0.36,26.563,0.36c2.819,0,6.908,0.866,7.899-1.078C315.513,220.5,313.152,221.274,312.412,221.235z
					 M273.28,223.748c-8.239,0-18.926,0-26.203,0c0,0.72,0,1.437,0,2.156c7.565,0.648,17.551,0.358,25.488,0.358
					c2.816,0,6.905,0.866,7.899-1.078C279.434,222.597,275.587,223.748,273.28,223.748z M312.055,223.748
					c-10.089-0.558-21.021,0.422-30.515,0c-0.453,0.148-0.734,0.466-0.717,1.078c0,0.358,0,0.72,0,1.078
					c7.838,0.648,18.327,0.358,26.563,0.358c2.577,0,7.649,1.076,7.899-1.437C315.349,222.939,312.877,223.797,312.055,223.748z
					 M247.077,228.775c7.354,0.117,19.19,0.409,26.925,0c2.328-0.125,6.281,1.274,6.462-1.437
					c-9.539-1.653-23.257-0.256-33.387-0.718C247.077,227.339,247.077,228.057,247.077,228.775z M280.823,228.417
					c4.015,0.788,17.861,0.592,24.771,0.718c3.109,0.054,10.007,0.098,9.692-1.078c-0.535-1.979-0.916-1.254-2.874-1.436
					c-9.936-0.918-23.718,0.713-31.589,0C280.823,227.22,280.823,227.818,280.823,228.417z M247.438,229.494
					c-0.283,0.078-0.42,0.3-0.36,0.718c0,0.237,0,0.478,0,0.718c6.971,1.293,17.811,0.717,25.847,0.717
					c2.521,0,7.325,1.076,7.54-1.435C270.608,228.555,257.936,229.963,247.438,229.494z M281.179,229.494
					c-0.279,0.078-0.416,0.3-0.356,0.718c0,0.237,0,0.478,0,0.718c7.199,1.293,18.316,0.717,26.563,0.717
					c2.792,0,7.57,1.083,7.899-1.435C305.059,228.555,292.056,229.963,281.179,229.494z M273.641,232.005
					c-8.519,0-20.236,0.022-26.563,0c0,0.72,0,1.437,0,2.153c7.565,0.654,17.551,0.361,25.488,0.361
					c2.816,0,6.905,0.866,7.899-1.078C279.899,230.993,276.021,232.005,273.641,232.005z M308.104,232.005
					c-8.844,0-20.586,0.039-26.563,0c-0.453,0.148-0.734,0.464-0.717,1.078c0,0.358,0,0.72,0,1.075
					c7.912,0.654,18.286,0.361,26.563,0.361c2.819,0,6.908,0.866,7.899-1.078C314.602,231.048,310.852,232.005,308.104,232.005z
					 M273.28,234.876c-8.319,0-18.851,0-26.203,0c0,0.722,0,1.437,0,2.156c7.606,0.648,17.848,0.358,25.847,0.358
					c2.585,0,6.521,1.136,7.54-1.437C278.885,233.985,275.701,234.876,273.28,234.876z M312.055,234.876
					c-10.089-0.558-21.021,0.425-30.515,0c-0.453,0.151-0.734,0.466-0.717,1.078c0,0.238,0,0.479,0,0.72
					c7.217,1.291,18.284,0.717,26.563,0.717c2.792,0,7.57,1.086,7.899-1.437C315.349,234.068,312.877,234.924,312.055,234.876z
					 M247.438,237.75c-0.283,0.079-0.42,0.301-0.36,0.717c0,0.242,0,0.479,0,0.722c6.971,1.293,17.811,0.716,25.847,0.716
					c2.521,0,7.325,1.075,7.54-1.438C270.608,236.809,257.936,238.22,247.438,237.75z M281.179,237.75
					c-0.279,0.079-0.416,0.301-0.356,0.717c0,0.242,0,0.479,0,0.722c7.199,1.293,18.316,0.716,26.563,0.716
					c2.792,0,7.57,1.082,7.899-1.438C305.059,236.809,292.056,238.22,281.179,237.75z M273.28,240.262c-8.239,0-18.926,0-26.203,0
					c0,0.72,0,1.439,0,2.156c7.565,0.649,17.551,0.361,25.488,0.361c2.816,0,6.905,0.863,7.899-1.078
					C279.434,239.111,275.587,240.262,273.28,240.262z M312.055,240.262c-10.089-0.557-21.021,0.424-30.515,0
					c-0.453,0.146-0.734,0.465-0.717,1.078c0,0.24,0,0.48,0,0.717c7.217,1.294,18.284,0.723,26.563,0.723
					c2.792,0,7.57,1.082,7.899-1.439C315.349,239.453,312.877,240.308,312.055,240.262z M247.077,243.135c0,0.718,0,1.438,0,2.154
					c7.574,0.646,18.051,0.359,26.203,0.359c2.25,0,6.838,1.307,7.184-1.796C270.925,242.199,257.207,243.598,247.077,243.135z
					 M312.055,243.135c-10.089-0.557-21.021,0.421-30.515,0c-0.453,0.149-0.734,0.463-0.717,1.076c0,0.24,0,0.478,0,0.72
					c7.217,1.293,18.284,0.718,26.563,0.718c2.792,0,7.57,1.082,7.899-1.438C315.349,242.322,312.877,243.182,312.055,243.135z
					 M247.438,246.009c-0.283,0.078-0.42,0.298-0.36,0.718c0,0.236,0,0.477,0,0.717c7.606,0.65,17.848,0.358,25.847,0.358
					c2.585,0,6.521,1.136,7.54-1.437C270.171,245.529,258.324,246.246,247.438,246.009z M281.179,246.009
					c-0.279,0.078-0.416,0.298-0.356,0.718c0,0.236,0,0.477,0,0.717c7.912,0.65,18.286,0.358,26.563,0.358
					c2.819,0,6.908,0.866,7.899-1.075C305.059,245.065,292.056,246.478,281.179,246.009z M247.794,262.162
					c-0.633,0.086-0.818,0.617-0.717,1.437c18.236,1.305,41.183,0.718,60.309,0.718c2.547,0,7.2,1.096,7.541-1.437
					C293.682,261.217,269.683,262.635,247.794,262.162z M248.512,266.109c0.155,1.174,4.869,1.174,5.027,0
					C253.255,265.067,248.758,264.851,248.512,266.109z M271.129,266.109c0,0.242,0,0.479,0,0.719c2.965,0,6.665,0,10.05,0
					c3.517,0,7.405,0.852,9.335-1.075C284.993,265.396,276.053,264.68,271.129,266.109z M308.821,265.753
					c-0.156,1.702,5.043,1.507,5.388,0.356C313.695,264.83,309.897,265.323,308.821,265.753z"/>
				<path fill-rule="evenodd" clip-rule="evenodd" fill="#FFFFFF" d="M280.823,210.107c11.368,0.238,23.69-0.479,34.462,0.358
					c0.557,2.236-0.991,2.36-2.874,2.154c0.521,1.04,3.78-0.667,2.874,1.795c-9.968,1.656-23.115,0.251-34.462,0.717
					C280.987,212.83,280.987,212.412,280.823,210.107z M292.311,212.62c-2.756,0.238-6.459-0.475-8.617,0.359
					C286.445,212.743,290.15,213.456,292.311,212.62z M309.54,212.62c-3.711,0.238-8.375-0.475-11.486,0.359
					C301.763,212.741,306.427,213.456,309.54,212.62z"/>
			</g>
		</g>
		<g>
			<g>
				<path fill-rule="evenodd" clip-rule="evenodd" fill="#FFFFFF" d="M274.957,180.569c0,0.836-0.169,1.512-0.384,1.512h-8.351
					c-0.215,0-0.389-0.676-0.389-1.512v-25.55c0-0.835,0.174-1.517,0.389-1.517h8.351c0.215,0,0.384,0.681,0.384,1.517V180.569z"/>
				<path fill="#231F20" d="M275.069,180.569c0,0.393-0.027,0.786-0.132,1.184c-0.03,0.096-0.06,0.197-0.124,0.302
					c-0.036,0.045-0.073,0.109-0.171,0.144c-0.022,0.012-0.06,0.012-0.073,0.012h-0.036l-0.073,0.004l-0.58,0.016
					c-0.776,0.029-1.549,0.07-2.323,0.128c-1.548,0.117-3.097,0.281-4.646,0.417l-0.578,0.048l-0.076,0.007h-0.016
					c-0.041,0,0.059,0.005-0.091,0l-0.019-0.002c-0.041-0.002-0.128-0.016-0.188-0.039c-0.192-0.069-0.276-0.146-0.351-0.215
					c-0.066-0.064-0.115-0.128-0.151-0.176c-0.133-0.201-0.178-0.332-0.229-0.464c-0.173-0.5-0.217-0.925-0.246-1.37
					c-0.05-0.775-0.078-1.549-0.096-2.323c-0.034-1.548-0.014-3.099,0.055-4.644c0.144-3.097,0.493-6.195,0.557-9.292
					c0.077-3.097-0.041-6.19-0.245-9.288c-0.021-0.432-0.021-0.845,0.091-1.343c0.034-0.128,0.064-0.26,0.186-0.457
					c0.032-0.05,0.068-0.105,0.139-0.173c0.062-0.064,0.167-0.148,0.331-0.203c0.041-0.012,0.082-0.025,0.13-0.03
					c0.034-0.007,0.125-0.009,0.111-0.009l0.037-0.002l0.073-0.005l0.581-0.039c0.772-0.05,1.546-0.093,2.323-0.128
					c1.546-0.078,3.095-0.116,4.644-0.155l0.579-0.019h0.074h0.016c0.052,0-0.09-0.004,0.123,0.005h0.016
					c0.048,0.005,0.173,0.027,0.251,0.055c0.099,0.036,0.114,0.045,0.169,0.073c0.052,0.027,0.088,0.05,0.123,0.076
					c0.078,0.052,0.124,0.093,0.174,0.141c0.084,0.084,0.141,0.165,0.185,0.224c0.158,0.249,0.199,0.397,0.25,0.545
					c0.084,0.283,0.125,0.519,0.155,0.754c0.029,0.237,0.046,0.466,0.05,0.694l0.048,2.323c0.036,1.546,0.036,3.095,0.025,4.644
					c-0.021,1.548-0.05,3.094-0.109,4.643c-0.057,1.549-0.185,3.1-0.329,4.644C275.375,174.375,275.062,177.472,275.069,180.569z
					 M274.85,180.569c0.006-3.097-0.306-6.194-0.615-9.292c-0.146-1.544-0.274-3.095-0.333-4.644
					c-0.06-1.549-0.087-3.095-0.107-4.643c-0.009-1.549-0.012-3.098,0.027-4.644l0.048-2.323c0-0.16,0-0.318-0.011-0.469
					c-0.007-0.146-0.03-0.294-0.053-0.381c-0.005-0.041-0.028-0.073,0.025,0.009c0.016,0.018,0.043,0.062,0.094,0.109
					c0.034,0.032,0.062,0.057,0.121,0.101c0.025,0.014,0.048,0.029,0.089,0.053c0.048,0.021,0.05,0.024,0.137,0.057
					c0.068,0.027,0.183,0.043,0.215,0.046l-0.019-0.002c0.201,0.009,0.046,0.002,0.085,0.004h-0.016l-0.074-0.002l-0.579-0.014
					c-1.549-0.041-3.098-0.082-4.644-0.158c-0.777-0.034-1.551-0.08-2.323-0.129l-0.581-0.037l-0.073-0.004l-0.037-0.005
					c-0.023,0,0.055,0,0.078-0.005c0.032-0.007,0.064-0.011,0.096-0.022c0.233-0.094,0.24-0.178,0.256-0.188
					c0.014-0.036-0.022,0.019-0.043,0.073c-0.099,0.247-0.158,0.617-0.181,0.959c-0.201,3.098-0.325,6.19-0.247,9.288
					c0.066,3.097,0.416,6.194,0.558,9.292c0.071,1.544,0.092,3.095,0.06,4.644c-0.021,0.774-0.05,1.548-0.096,2.323
					c-0.028,0.324-0.014,0.68,0.018,0.927c0.005,0.052,0.025,0.105-0.005,0.068c-0.006-0.009-0.027-0.032-0.059-0.062
					c-0.043-0.034-0.084-0.085-0.233-0.135c-0.046-0.019-0.123-0.03-0.151-0.03l0.016,0.002c-0.139-0.009-0.025,0-0.052-0.002
					l0.016,0.002l0.076,0.004l0.578,0.05c1.549,0.133,3.098,0.304,4.646,0.416c0.774,0.059,1.547,0.101,2.323,0.128l0.58,0.018
					h0.073h0.036c0.007,0-0.004,0.005-0.004,0.005c-0.005,0.004,0.023-0.014,0.043-0.041c0.041-0.064,0.075-0.146,0.105-0.233
					C274.815,181.332,274.845,180.946,274.85,180.569z"/>
			</g>
			<g>
				<path fill-rule="evenodd" clip-rule="evenodd" fill="#FFFFFF" d="M296.566,180.569c0,0.836-0.175,1.512-0.386,1.512h-8.351
					c-0.211,0-0.386-0.676-0.386-1.512v-25.55c0-0.835,0.174-1.517,0.386-1.517h8.351c0.21,0,0.386,0.681,0.386,1.517V180.569z"/>
				<path fill="#231F20" d="M296.678,180.569c-0.004,0.393-0.027,0.786-0.132,1.184c-0.032,0.096-0.064,0.197-0.123,0.302
					c-0.037,0.045-0.073,0.109-0.174,0.144c-0.023,0.012-0.059,0.012-0.073,0.012h-0.036l-0.071,0.004l-0.582,0.016
					c-0.772,0.029-1.549,0.07-2.321,0.128c-1.549,0.117-3.098,0.281-4.646,0.417l-0.581,0.048l-0.073,0.007h-0.018
					c-0.04,0,0.062,0.005-0.092,0l-0.018-0.002c-0.037-0.002-0.128-0.016-0.185-0.039c-0.194-0.069-0.276-0.146-0.354-0.215
					c-0.068-0.064-0.114-0.128-0.149-0.176c-0.134-0.201-0.18-0.333-0.228-0.464c-0.176-0.5-0.217-0.925-0.25-1.37
					c-0.045-0.775-0.077-1.549-0.095-2.323c-0.033-1.548-0.011-3.099,0.057-4.644c0.144-3.097,0.492-6.195,0.557-9.292
					c0.076-3.097-0.041-6.19-0.244-9.288c-0.018-0.432-0.022-0.845,0.092-1.343c0.032-0.128,0.064-0.26,0.182-0.457
					c0.032-0.05,0.074-0.105,0.138-0.173c0.063-0.064,0.173-0.148,0.333-0.203c0.041-0.012,0.082-0.025,0.132-0.03
					c0.032-0.007,0.124-0.009,0.112-0.009l0.035-0.002l0.072-0.005l0.581-0.039c0.774-0.05,1.549-0.093,2.323-0.128
					c1.551-0.078,3.095-0.116,4.644-0.155l0.58-0.019h0.073h0.019c0.055,0-0.092-0.004,0.124,0.005h0.016
					c0.048,0.005,0.171,0.027,0.249,0.055c0.101,0.036,0.114,0.045,0.173,0.073c0.048,0.027,0.087,0.05,0.119,0.076
					c0.08,0.052,0.123,0.093,0.173,0.141c0.084,0.084,0.144,0.165,0.188,0.224c0.155,0.249,0.196,0.397,0.246,0.545
					c0.087,0.283,0.124,0.519,0.156,0.754c0.032,0.237,0.047,0.466,0.05,0.694l0.05,2.323c0.037,1.546,0.037,3.095,0.023,4.644
					c-0.018,1.548-0.046,3.094-0.107,4.643c-0.06,1.549-0.185,3.1-0.332,4.644C296.985,174.375,296.669,177.472,296.678,180.569z
					 M296.459,180.569c0.007-3.097-0.306-6.194-0.614-9.292c-0.144-1.544-0.276-3.095-0.334-4.644
					c-0.059-1.549-0.088-3.095-0.107-4.643c-0.009-1.549-0.009-3.098,0.028-4.644l0.045-2.323c0.005-0.16,0.002-0.318-0.009-0.469
					c-0.009-0.146-0.032-0.294-0.052-0.381c-0.002-0.041-0.03-0.073,0.028,0.009c0.011,0.018,0.041,0.062,0.088,0.109
					c0.037,0.032,0.064,0.057,0.119,0.101c0.027,0.014,0.05,0.029,0.091,0.053c0.05,0.021,0.05,0.024,0.139,0.057
					c0.064,0.027,0.181,0.043,0.217,0.046l-0.021-0.002c0.201,0.009,0.048,0.002,0.084,0.004h-0.019l-0.073-0.002l-0.58-0.014
					c-1.548-0.041-3.093-0.082-4.644-0.158c-0.774-0.034-1.548-0.08-2.323-0.129l-0.581-0.037l-0.072-0.004l-0.035-0.005
					c-0.028,0,0.053,0,0.073-0.005c0.036-0.007,0.066-0.011,0.098-0.022c0.233-0.094,0.243-0.178,0.258-0.188
					c0.012-0.036-0.025,0.019-0.043,0.073c-0.1,0.247-0.16,0.617-0.183,0.959c-0.201,3.098-0.322,6.19-0.247,9.288
					c0.068,3.097,0.418,6.194,0.557,9.292c0.073,1.544,0.091,3.095,0.06,4.644c-0.019,0.774-0.05,1.548-0.096,2.323
					c-0.027,0.324-0.013,0.68,0.021,0.927c0.004,0.052,0.025,0.105-0.007,0.068c-0.004-0.009-0.025-0.032-0.057-0.062
					c-0.043-0.034-0.084-0.085-0.233-0.135c-0.048-0.019-0.125-0.03-0.153-0.03l0.018,0.002c-0.137-0.009-0.027,0-0.054-0.002
					l0.018,0.002l0.073,0.004l0.581,0.05c1.548,0.133,3.097,0.304,4.646,0.416c0.771,0.059,1.548,0.101,2.321,0.128l0.582,0.018
					h0.071h0.036c0.009,0-0.004,0.005-0.002,0.005c-0.004,0.004,0.021-0.014,0.043-0.041c0.041-0.064,0.078-0.146,0.105-0.233
					C296.423,181.332,296.455,180.946,296.459,180.569z"/>
			</g>
			<g>
				<path fill-rule="evenodd" clip-rule="evenodd" fill="#FFFFFF" d="M289.712,167.819c0,7.907-3.696,14.319-8.25,14.319
					s-8.25-6.412-8.25-14.319c0-7.905,3.696-14.317,8.25-14.317S289.712,159.914,289.712,167.819z"/>
				<path fill="#231F20" d="M289.82,167.824c-0.007,1.505-0.081,3.018-0.254,4.536c-0.171,1.514-0.443,3.042-0.959,4.534
					c-0.521,1.479-1.275,2.939-2.463,4.131c-0.589,0.594-1.283,1.12-2.085,1.49c-0.795,0.372-1.704,0.568-2.597,0.532
					c-0.896-0.039-1.764-0.304-2.51-0.717c-0.747-0.418-1.382-0.963-1.921-1.564c-1.076-1.206-1.8-2.6-2.403-4.011
					c-1.172-2.842-1.798-5.856-2.01-8.931c-0.091-1.54-0.076-3.102,0.151-4.653c0.219-1.548,0.626-3.082,1.242-4.562
					c0.617-1.471,1.444-2.905,2.647-4.121c0.601-0.605,1.307-1.142,2.122-1.535c0.813-0.397,1.745-0.621,2.682-0.614
					c0.932,0.011,1.859,0.244,2.661,0.655c0.806,0.402,1.5,0.946,2.083,1.556c1.174,1.227,1.912,2.698,2.428,4.185
					c0.512,1.496,0.777,3.031,0.955,4.543C289.751,164.8,289.824,166.312,289.82,167.824z M289.603,167.819
					c0.004-2.992-0.836-5.989-2.289-8.492c-0.721-1.248-1.585-2.385-2.577-3.26c-0.493-0.437-1.022-0.799-1.581-1.043
					c-0.552-0.242-1.123-0.365-1.694-0.356c-1.142,0.004-2.262,0.573-3.221,1.459c-0.961,0.889-1.736,2.062-2.351,3.328
					c-0.616,1.27-1.062,2.638-1.407,4.043c-0.333,1.407-0.582,2.855-0.673,4.326c-0.094,1.466-0.064,2.953,0.18,4.413
					c0.229,1.462,0.647,2.901,1.282,4.23c0.635,1.325,1.51,2.541,2.597,3.436c1.08,0.896,2.373,1.416,3.593,1.33
					c1.222-0.069,2.359-0.684,3.339-1.59c0.978-0.908,1.828-2.06,2.536-3.316c0.717-1.256,1.302-2.632,1.69-4.07
					C289.411,170.816,289.607,169.32,289.603,167.819z"/>
			</g>
		</g>
	</g>
	<text transform="matrix(1 0 0 1 316.7061 257.1118)" fill="#231F20" font-family="'CourierNewPSMT'" font-size="68.4053">nocLock</text>
	<text transform="matrix(1 0 0 1 404.5938 269.1226)" fill="#231F20" font-family="'CourierNewPSMT'" font-size="10.004">No numbers. No keys. Just knocks.</text>
</g>
</svg>
