<?xml version="1.0" encoding="utf-8"?>
<!-- Generator: Adobe Illustrator 15.0.0, SVG Export Plug-In . SVG Version: 6.00 Build 0)  -->
<!DOCTYPE svg PUBLIC "-//W3C//DTD SVG 1.1//EN" "http://www.w3.org/Graphics/SVG/1.1/DTD/svg11.dtd">
<svg version="1.1" id="Layer_1" xmlns="http://www.w3.org/2000/svg" xmlns:xlink="http://www.w3.org/1999/xlink" x="0px" y="0px"
	 width="1908px" height="1368px" viewBox="0 0 1908 1368" enable-background="new 0 0 1908 1368" xml:space="preserve">
<g transform="translate(22.5, 22.5) ">
	<polygon fill="none" stroke="#FF0000" stroke-width="0.9" points="-4.5,-4.5 49.5,-4.5 49.5,12.492 103.5,12.492 103.5,-4.5 
		139.5,-4.5 139.5,12.492 175.5,12.492 175.5,-4.5 211.5,-4.5 211.5,12.492 247.5,12.492 247.5,-4.5 283.5,-4.5 283.5,12.492 
		319.5,12.492 319.5,-4.5 355.5,-4.5 355.5,12.492 391.5,12.492 391.5,-4.5 427.5,-4.5 427.5,12.492 481.5,12.492 481.5,-4.5 
		535.5,-4.5 535.5,49.5 518.508,49.5 518.508,103.5 535.5,103.5 535.5,139.5 518.508,139.5 518.508,175.5 535.5,175.5 535.5,211.5 
		518.508,211.5 518.508,247.5 535.5,247.5 535.5,283.5 518.508,283.5 518.508,319.5 535.5,319.5 535.5,355.5 518.508,355.5 
		518.508,391.5 535.5,391.5 535.5,427.5 518.508,427.5 518.508,481.5 535.5,481.5 535.5,535.5 481.5,535.5 481.5,518.508 
		427.5,518.508 427.5,535.5 391.5,535.5 391.5,518.508 355.5,518.508 355.5,535.5 319.5,535.5 319.5,518.508 283.5,518.508 
		283.5,535.5 247.5,535.5 247.5,518.508 211.5,518.508 211.5,535.5 175.5,535.5 175.5,518.508 139.5,518.508 139.5,535.5 
		103.5,535.5 103.5,518.508 49.5,518.508 49.5,535.5 -4.5,535.5 -4.5,481.5 12.492,481.5 12.492,427.5 -4.5,427.5 -4.5,391.5 
		12.492,391.5 12.492,355.5 -4.5,355.5 -4.5,319.5 12.492,319.5 12.492,283.5 -4.5,283.5 -4.5,247.5 12.492,247.5 12.492,211.5 
		-4.5,211.5 -4.5,175.5 12.492,175.5 12.492,139.5 -4.5,139.5 -4.5,103.5 12.492,103.5 12.492,49.5 -4.5,49.5 	"/>
</g>
<g transform="translate(697.5, 22.5) ">
	<polygon fill="none" stroke="#FF0000" stroke-width="0.9" points="-139.5,-4.5 -85.5,-4.5 -85.5,12.492 -31.5,12.492 -31.5,-4.5 
		4.5,-4.5 4.5,12.492 40.5,12.492 40.5,-4.5 76.5,-4.5 76.5,12.492 112.5,12.492 112.5,-4.5 148.5,-4.5 148.5,12.492 184.5,12.492 
		184.5,-4.5 220.5,-4.5 220.5,12.492 256.5,12.492 256.5,-4.5 292.5,-4.5 292.5,12.492 346.5,12.492 346.5,-4.5 400.5,-4.5 
		400.5,49.5 383.508,49.5 383.508,103.5 400.5,103.5 400.5,139.5 383.508,139.5 383.508,175.5 400.5,175.5 400.5,211.5 
		383.508,211.5 383.508,247.5 400.5,247.5 400.5,283.5 383.508,283.5 383.508,319.5 400.5,319.5 400.5,355.5 383.508,355.5 
		383.508,391.5 400.5,391.5 400.5,427.5 383.508,427.5 383.508,481.5 400.5,481.5 400.5,535.5 346.5,535.5 346.5,518.508 
		292.5,518.508 292.5,535.5 256.5,535.5 256.5,518.508 220.5,518.508 220.5,535.5 184.5,535.5 184.5,518.508 148.5,518.508 
		148.5,535.5 112.5,535.5 112.5,518.508 76.5,518.508 76.5,535.5 40.5,535.5 40.5,518.508 4.5,518.508 4.5,535.5 -31.5,535.5 
		-31.5,518.508 -85.5,518.508 -85.5,535.5 -139.5,535.5 -139.5,481.5 -122.508,481.5 -122.508,427.5 -139.5,427.5 -139.5,391.5 
		-122.508,391.5 -122.508,355.5 -139.5,355.5 -139.5,319.5 -122.508,319.5 -122.508,283.5 -139.5,283.5 -139.5,247.5 
		-122.508,247.5 -122.508,211.5 -139.5,211.5 -139.5,175.5 -122.508,175.5 -122.508,139.5 -139.5,139.5 -139.5,103.5 
		-122.508,103.5 -122.508,49.5 -139.5,49.5 	"/>
</g>
<g transform="translate(1372.5, 22.5) ">
	<polygon fill="none" stroke="#FF0000" stroke-width="0.9" points="-257.508,-4.5 -229.5,-4.5 -229.5,12.492 -184.5,12.492 
		-184.5,-4.5 -148.5,-4.5 -148.5,12.492 -112.5,12.492 -112.5,-4.5 -76.5,-4.5 -76.5,12.492 -40.5,12.492 -40.5,-4.5 -4.5,-4.5 
		-4.5,12.492 31.5,12.492 31.5,-4.5 67.5,-4.5 67.5,12.492 103.5,12.492 103.5,-4.5 139.5,-4.5 139.5,12.492 175.5,12.492 
		175.5,-4.5 211.5,-4.5 211.5,12.492 247.5,12.492 247.5,-4.5 283.5,-4.5 283.5,12.492 319.5,12.492 319.5,-4.5 355.5,-4.5 
		355.5,12.492 391.5,12.492 391.5,-4.5 427.5,-4.5 427.5,12.492 472.5,12.492 472.5,-4.5 500.508,-4.5 500.508,49.5 517.5,49.5 
		517.5,103.5 500.508,103.5 500.508,139.5 517.5,139.5 517.5,175.5 500.508,175.5 500.508,211.5 517.5,211.5 517.5,247.5 
		500.508,247.5 500.508,283.5 517.5,283.5 517.5,319.5 500.508,319.5 500.508,355.5 517.5,355.5 517.5,391.5 500.508,391.5 
		500.508,427.5 517.5,427.5 517.5,481.5 500.508,481.5 500.508,535.5 472.5,535.5 472.5,518.508 427.5,518.508 427.5,535.5 
		391.5,535.5 391.5,518.508 355.5,518.508 355.5,535.5 319.5,535.5 319.5,518.508 283.5,518.508 283.5,535.5 247.5,535.5 
		247.5,518.508 211.5,518.508 211.5,535.5 175.5,535.5 175.5,518.508 139.5,518.508 139.5,535.5 103.5,535.5 103.5,518.508 
		67.5,518.508 67.5,535.5 31.5,535.5 31.5,518.508 -4.5,518.508 -4.5,535.5 -40.5,535.5 -40.5,518.508 -76.5,518.508 -76.5,535.5 
		-112.5,535.5 -112.5,518.508 -148.5,518.508 -148.5,535.5 -184.5,535.5 -184.5,518.508 -229.5,518.508 -229.5,535.5 
		-257.508,535.5 -257.508,481.5 -274.5,481.5 -274.5,427.5 -257.508,427.5 -257.508,391.5 -274.5,391.5 -274.5,355.5 
		-257.508,355.5 -257.508,319.5 -274.5,319.5 -274.5,283.5 -257.508,283.5 -257.508,247.5 -274.5,247.5 -274.5,211.5 
		-257.508,211.5 -257.508,175.5 -274.5,175.5 -274.5,139.5 -257.508,139.5 -257.508,103.5 -274.5,103.5 -274.5,49.5 -257.508,49.5 	
		"/>
</g>
<g transform="translate(1372.5, 697.5) ">
	<polygon fill="none" stroke="#FF0000" stroke-width="0.9" points="-257.508,-139.5 -229.5,-139.5 -229.5,-122.508 -184.5,-122.508 
		-184.5,-139.5 -148.5,-139.5 -148.5,-122.508 -112.5,-122.508 -112.5,-139.5 -76.5,-139.5 -76.5,-122.508 -40.5,-122.508 
		-40.5,-139.5 -4.5,-139.5 -4.5,-122.508 31.5,-122.508 31.5,-139.5 67.5,-139.5 67.5,-122.508 103.5,-122.508 103.5,-139.5 
		139.5,-139.5 139.5,-122.508 175.5,-122.508 175.5,-139.5 211.5,-139.5 211.5,-122.508 247.5,-122.508 247.5,-139.5 283.5,-139.5 
		283.5,-122.508 319.5,-122.508 319.5,-139.5 355.5,-139.5 355.5,-122.508 391.5,-122.508 391.5,-139.5 427.5,-139.5 
		427.5,-122.508 472.5,-122.508 472.5,-139.5 500.508,-139.5 500.508,-85.5 517.5,-85.5 517.5,-31.5 500.508,-31.5 500.508,4.5 
		517.5,4.5 517.5,40.5 500.508,40.5 500.508,76.5 517.5,76.5 517.5,112.5 500.508,112.5 500.508,148.5 517.5,148.5 517.5,184.5 
		500.508,184.5 500.508,220.5 517.5,220.5 517.5,256.5 500.508,256.5 500.508,292.5 517.5,292.5 517.5,346.5 500.508,346.5 
		500.508,400.5 472.5,400.5 472.5,383.508 427.5,383.508 427.5,400.5 391.5,400.5 391.5,383.508 355.5,383.508 355.5,400.5 
		319.5,400.5 319.5,383.508 283.5,383.508 283.5,400.5 247.5,400.5 247.5,383.508 211.5,383.508 211.5,400.5 175.5,400.5 
		175.5,383.508 139.5,383.508 139.5,400.5 103.5,400.5 103.5,383.508 67.5,383.508 67.5,400.5 31.5,400.5 31.5,383.508 
		-4.5,383.508 -4.5,400.5 -40.5,400.5 -40.5,383.508 -76.5,383.508 -76.5,400.5 -112.5,400.5 -112.5,383.508 -148.5,383.508 
		-148.5,400.5 -184.5,400.5 -184.5,383.508 -229.5,383.508 -229.5,400.5 -257.508,400.5 -257.508,346.5 -274.5,346.5 -274.5,292.5 
		-257.508,292.5 -257.508,256.5 -274.5,256.5 -274.5,220.5 -257.508,220.5 -257.508,184.5 -274.5,184.5 -274.5,148.5 
		-257.508,148.5 -257.508,112.5 -274.5,112.5 -274.5,76.5 -257.508,76.5 -257.508,40.5 -274.5,40.5 -274.5,4.5 -257.508,4.5 
		-257.508,-31.5 -274.5,-31.5 -274.5,-85.5 -257.508,-85.5 	"/>
</g>
<g transform="translate(22.5, 697.5) ">
	<polygon fill="none" stroke="#FF0000" stroke-width="0.9" points="12.492,-122.508 49.5,-122.508 49.5,-139.5 103.5,-139.5 
		103.5,-122.508 139.5,-122.508 139.5,-139.5 175.5,-139.5 175.5,-122.508 211.5,-122.508 211.5,-139.5 247.5,-139.5 
		247.5,-122.508 283.5,-122.508 283.5,-139.5 319.5,-139.5 319.5,-122.508 355.5,-122.508 355.5,-139.5 391.5,-139.5 
		391.5,-122.508 427.5,-122.508 427.5,-139.5 481.5,-139.5 481.5,-122.508 518.508,-122.508 518.508,-94.5 535.5,-94.5 535.5,-49.5 
		518.508,-49.5 518.508,-13.5 535.5,-13.5 535.5,22.5 518.508,22.5 518.508,58.5 535.5,58.5 535.5,94.5 518.508,94.5 518.508,130.5 
		535.5,130.5 535.5,166.5 518.508,166.5 518.508,202.5 535.5,202.5 535.5,238.5 518.508,238.5 518.508,274.5 535.5,274.5 
		535.5,310.5 518.508,310.5 518.508,346.5 535.5,346.5 535.5,382.5 518.508,382.5 518.508,418.5 535.5,418.5 535.5,454.5 
		518.508,454.5 518.508,490.5 535.5,490.5 535.5,526.5 518.508,526.5 518.508,562.5 535.5,562.5 535.5,607.5 518.508,607.5 
		518.508,635.508 481.5,635.508 481.5,652.5 427.5,652.5 427.5,635.508 391.5,635.508 391.5,652.5 355.5,652.5 355.5,635.508 
		319.5,635.508 319.5,652.5 283.5,652.5 283.5,635.508 247.5,635.508 247.5,652.5 211.5,652.5 211.5,635.508 175.5,635.508 
		175.5,652.5 139.5,652.5 139.5,635.508 103.5,635.508 103.5,652.5 49.5,652.5 49.5,635.508 12.492,635.508 12.492,607.5 
		-4.5,607.5 -4.5,562.5 12.492,562.5 12.492,526.5 -4.5,526.5 -4.5,490.5 12.492,490.5 12.492,454.5 -4.5,454.5 -4.5,418.5 
		12.492,418.5 12.492,382.5 -4.5,382.5 -4.5,346.5 12.492,346.5 12.492,310.5 -4.5,310.5 -4.5,274.5 12.492,274.5 12.492,238.5 
		-4.5,238.5 -4.5,202.5 12.492,202.5 12.492,166.5 -4.5,166.5 -4.5,130.5 12.492,130.5 12.492,94.5 -4.5,94.5 -4.5,58.5 
		12.492,58.5 12.492,22.5 -4.5,22.5 -4.5,-13.5 12.492,-13.5 12.492,-49.5 -4.5,-49.5 -4.5,-94.5 12.492,-94.5 	"/>
</g>
<g transform="translate(697.5, 697.5) ">
	<polygon fill="none" stroke="#FF0000" stroke-width="0.9" points="-122.508,-122.508 -85.5,-122.508 -85.5,-139.5 -31.5,-139.5 
		-31.5,-122.508 4.5,-122.508 4.5,-139.5 40.5,-139.5 40.5,-122.508 76.5,-122.508 76.5,-139.5 112.5,-139.5 112.5,-122.508 
		148.5,-122.508 148.5,-139.5 184.5,-139.5 184.5,-122.508 220.5,-122.508 220.5,-139.5 256.5,-139.5 256.5,-122.508 
		292.5,-122.508 292.5,-139.5 346.5,-139.5 346.5,-122.508 383.508,-122.508 383.508,-94.5 400.5,-94.5 400.5,-49.5 383.508,-49.5 
		383.508,-13.5 400.5,-13.5 400.5,22.5 383.508,22.5 383.508,58.5 400.5,58.5 400.5,94.5 383.508,94.5 383.508,130.5 400.5,130.5 
		400.5,166.5 383.508,166.5 383.508,202.5 400.5,202.5 400.5,238.5 383.508,238.5 383.508,274.5 400.5,274.5 400.5,310.5 
		383.508,310.5 383.508,346.5 400.5,346.5 400.5,382.5 383.508,382.5 383.508,418.5 400.5,418.5 400.5,454.5 383.508,454.5 
		383.508,490.5 400.5,490.5 400.5,526.5 383.508,526.5 383.508,562.5 400.5,562.5 400.5,607.5 383.508,607.5 383.508,635.508 
		346.5,635.508 346.5,652.5 292.5,652.5 292.5,635.508 256.5,635.508 256.5,652.5 220.5,652.5 220.5,635.508 184.5,635.508 
		184.5,652.5 148.5,652.5 148.5,635.508 112.5,635.508 112.5,652.5 76.5,652.5 76.5,635.508 40.5,635.508 40.5,652.5 4.5,652.5 
		4.5,635.508 -31.5,635.508 -31.5,652.5 -85.5,652.5 -85.5,635.508 -122.508,635.508 -122.508,607.5 -139.5,607.5 -139.5,562.5 
		-122.508,562.5 -122.508,526.5 -139.5,526.5 -139.5,490.5 -122.508,490.5 -122.508,454.5 -139.5,454.5 -139.5,418.5 
		-122.508,418.5 -122.508,382.5 -139.5,382.5 -139.5,346.5 -122.508,346.5 -122.508,310.5 -139.5,310.5 -139.5,274.5 
		-122.508,274.5 -122.508,238.5 -139.5,238.5 -139.5,202.5 -122.508,202.5 -122.508,166.5 -139.5,166.5 -139.5,130.5 
		-122.508,130.5 -122.508,94.5 -139.5,94.5 -139.5,58.5 -122.508,58.5 -122.508,22.5 -139.5,22.5 -139.5,-13.5 -122.508,-13.5 
		-122.508,-49.5 -139.5,-49.5 -139.5,-94.5 -122.508,-94.5 	"/>
</g>
<path fill="#FFFFFF" stroke="#FF0000" stroke-miterlimit="10" d="M489.523,356.882c0,4.865-2.194,9.27-5.742,12.458
	s-8.449,5.16-13.863,5.16H288H106.083c-5.414,0-10.315-1.972-13.863-5.16s-5.742-7.593-5.742-12.458V224V91.118
	c0-4.865,2.194-9.27,5.742-12.458c3.548-3.188,8.449-5.16,13.863-5.16H288h181.917c5.414,0,10.315,1.972,13.863,5.16
	c3.548,3.188,5.742,7.593,5.742,12.458V224V356.882z"/>
<polygon fill="#FFFFFF" stroke="#FF0000" stroke-miterlimit="10" points="92.99,118.78 86.478,118.78 79.965,118.78 79.965,155.14 
	79.965,191.5 86.478,191.5 92.99,191.5 92.99,155.14 "/>
<polygon fill="#FFFFFF" stroke="#FF0000" stroke-miterlimit="10" points="92.99,251.64 86.478,251.64 79.965,251.64 79.965,288 
	79.965,324.36 86.478,324.36 92.99,324.36 92.99,288 "/>
<g>
	<g id="SPLINE_2_">
		
			<path fill="none" stroke="#FF0000" stroke-width="0.7087" stroke-linecap="round" stroke-linejoin="round" stroke-miterlimit="10" d="
			M396.516,411.467c0,0,0.001-2.517,0.002-5.299c0.001-2.781,0.002-5.827,0.002-6.885c0-3.56-1.176-5.939-2.686-7.429
			c-1.51-1.49-3.354-2.09-4.69-2.09c-1.336,0-3.164,0.601-4.657,2.09c-1.493,1.49-2.652,3.87-2.652,7.429
			c0,1.904,0,4.951,0.001,7.52c0,2.57,0.001,4.664,0.001,4.664"/>
	</g>
	<g id="LWPOLYLINE_4_">
		
			<polyline fill="none" stroke="#FF0000" stroke-width="0.7087" stroke-linecap="round" stroke-linejoin="round" stroke-miterlimit="10" points="
			381.126,417.981 381.126,415.393 381.126,413.654 381.126,412.561 381.126,411.467 381.482,411.467 381.837,411.467 		"/>
	</g>
	<g id="LWPOLYLINE_3_">
		
			<path fill="none" stroke="#FF0000" stroke-width="0.7087" stroke-linecap="round" stroke-linejoin="round" stroke-miterlimit="10" d="
			M388.821,414.299"/>
		
			<polyline fill="none" stroke="#FF0000" stroke-width="0.7087" stroke-linecap="round" stroke-linejoin="round" stroke-miterlimit="10" points="
			396.516,411.467 396.805,411.467 397.093,411.467 397.128,414.299 397.162,417.981 389.145,417.981 381.126,417.981 		"/>
	</g>
</g>
<g>
	<g id="SPLINE_1_">
		
			<path fill="none" stroke="#FF0000" stroke-width="0.7087" stroke-linecap="round" stroke-linejoin="round" stroke-miterlimit="10" d="
			M194.516,412.467c0,0,0.001-2.517,0.002-5.299c0.001-2.781,0.002-5.827,0.002-6.885c0-3.56-1.176-5.939-2.686-7.429
			c-1.51-1.49-3.354-2.09-4.69-2.09c-1.336,0-3.164,0.601-4.657,2.09c-1.493,1.49-2.652,3.87-2.652,7.429
			c0,1.904,0,4.951,0.001,7.52c0,2.57,0.001,4.664,0.001,4.664"/>
	</g>
	<g id="LWPOLYLINE_2_">
		
			<polyline fill="none" stroke="#FF0000" stroke-width="0.7087" stroke-linecap="round" stroke-linejoin="round" stroke-miterlimit="10" points="
			179.126,418.981 179.126,416.393 179.126,414.654 179.126,413.561 179.126,412.467 179.482,412.467 179.837,412.467 		"/>
	</g>
	<g id="LWPOLYLINE_1_">
		
			<path fill="none" stroke="#FF0000" stroke-width="0.7087" stroke-linecap="round" stroke-linejoin="round" stroke-miterlimit="10" d="
			M186.821,415.299"/>
		
			<polyline fill="none" stroke="#FF0000" stroke-width="0.7087" stroke-linecap="round" stroke-linejoin="round" stroke-miterlimit="10" points="
			194.516,412.467 194.805,412.467 195.093,412.467 195.128,415.299 195.162,418.981 187.145,418.981 179.126,418.981 		"/>
	</g>
</g>
<g>
	<g>
		<g>
			<path fill-rule="evenodd" clip-rule="evenodd" fill="#FFFFFF" d="M151.589,190.205c-17.241,1.069-31.861-8.412-32.654-21.181
				c-0.795-12.766,12.544-23.981,29.785-25.052c17.24-1.071,31.863,8.412,32.653,21.18
				C182.164,177.921,168.829,189.136,151.589,190.205z"/>
			<path fill="#231F20" d="M151.596,190.314c-3.586,0.215-7.197,0.05-10.758-0.548c-3.557-0.612-7.079-1.652-10.35-3.317
				c-1.63-0.836-3.207-1.809-4.646-2.974c-0.726-0.576-1.42-1.195-2.078-1.852c-0.654-0.665-1.275-1.364-1.842-2.113
				c-1.137-1.484-2.083-3.138-2.752-4.906c-0.679-1.764-1.049-3.641-1.143-5.522c-0.08-1.883,0.149-3.776,0.649-5.574
				c0.504-1.8,1.277-3.508,2.24-5.078c0.969-1.569,2.11-3.013,3.39-4.315c1.271-1.311,2.664-2.485,4.139-3.535
				c2.946-2.115,6.217-3.737,9.63-4.932c3.417-1.183,6.984-1.953,10.607-2.273c3.618-0.315,7.298-0.21,10.907,0.448
				c3.606,0.653,7.138,1.846,10.395,3.609c3.253,1.759,6.245,4.121,8.54,7.126c2.303,2.988,3.79,6.695,4.009,10.521
				c0.215,3.824-0.809,7.675-2.755,10.891c-0.479,0.804-1.009,1.581-1.583,2.32c-0.578,0.733-1.199,1.43-1.848,2.09
				c-1.297,1.327-2.75,2.487-4.267,3.515c-3.052,2.049-6.418,3.518-9.872,4.564C158.748,189.497,155.18,190.093,151.596,190.314z
				 M151.58,190.096c3.57-0.224,7.104-0.962,10.443-2.203c3.334-1.231,6.464-2.983,9.205-5.167c1.373-1.087,2.632-2.298,3.776-3.595
				c0.569-0.649,1.104-1.33,1.592-2.033c0.498-0.699,0.955-1.423,1.364-2.17c0.811-1.499,1.448-3.079,1.841-4.716
				c0.393-1.633,0.535-3.322,0.414-4.991c-0.112-1.667-0.466-3.317-1.068-4.883c-0.604-1.567-1.439-3.043-2.44-4.413
				c-2.015-2.734-4.719-4.975-7.723-6.693c-3.008-1.722-6.325-2.926-9.737-3.691c-3.422-0.763-6.956-1.101-10.489-0.975
				c-3.531,0.125-7.067,0.689-10.443,1.784c-3.38,1.082-6.605,2.681-9.451,4.799c-1.417,1.062-2.732,2.259-3.901,3.574
				c-1.16,1.325-2.19,2.759-3.001,4.303c-1.637,3.074-2.416,6.555-2.119,9.945c0.264,3.394,1.594,6.633,3.627,9.384
				c0.507,0.689,1.05,1.352,1.637,1.982c0.58,0.634,1.2,1.242,1.846,1.813c1.307,1.142,2.711,2.184,4.212,3.088
				c1.496,0.914,3.077,1.704,4.717,2.367c0.822,0.333,1.654,0.634,2.499,0.907c0.848,0.267,1.704,0.5,2.572,0.706
				C144.412,190.045,148.015,190.321,151.58,190.096z"/>
		</g>
		<g id="sg3aRw.tif">
			<g>
				<path fill-rule="evenodd" clip-rule="evenodd" fill="#FFFFFF" d="M175.622,203.636c-3.709,0-1.494-0.498-5.203-0.498
					c-1.256-10.224,0.639-16.537-1.602-24.55c-3.47-12.407-33.937-10.689-37.119-0.258c-2.315,7.599,0.653,16.535-0.694,25.434
					c-3.593,0-2.412-0.128-6-0.128c0.61-9.594-0.838-17.951,0-25.489c1.322-11.912,13.431-21.594,28.001-20.102
					c9.269,0.95,17.861,6.968,21.183,15.079C177.481,181.176,174.679,191.717,175.622,203.636z"/>
				<path fill-rule="evenodd" clip-rule="evenodd" fill="#FFFFFF" d="M122.492,202.921c-0.226,1.341-4.23,0.778-5.027,0.358
					C117.69,201.936,121.69,202.496,122.492,202.921z"/>
				<path fill-rule="evenodd" clip-rule="evenodd" fill="#FFFFFF" d="M152.647,202.921c-0.227,1.341-4.229,0.778-5.028,0.358
					C147.848,201.936,151.845,202.496,152.647,202.921z"/>
				<path fill-rule="evenodd" clip-rule="evenodd" fill="#FFFFFF" d="M183.163,202.921c-0.263,1.172-5.124,1.172-5.388,0
					C178.834,202.407,182.128,202.263,183.163,202.921z"/>
				<path fill-rule="evenodd" clip-rule="evenodd" fill="#FFFFFF" d="M149.417,205.792c-0.994,1.943-5.083,1.078-7.899,1.078
					c-7.937,0-17.923,0.288-25.488-0.359c0-0.239,0-0.481,0-0.719c-0.06-0.416,0.077-0.64,0.36-0.72
					C126.889,205.54,139.561,204.134,149.417,205.792z"/>
				<path fill-rule="evenodd" clip-rule="evenodd" fill="#FFFFFF" d="M184.238,205.792c-0.991,1.943-5.08,1.078-7.899,1.078
					c-8.277,0-18.651,0.288-26.563-0.359c0-0.239,0-0.481,0-0.719c-0.06-0.416,0.077-0.64,0.356-0.72
					C161.009,205.545,174.012,204.134,184.238,205.792z"/>
				<path fill-rule="evenodd" clip-rule="evenodd" fill="#FFFFFF" d="M149.417,208.304c-1.019,2.573-4.955,1.437-7.54,1.437
					c-7.999,0-18.241,0.291-25.847-0.358c0-0.717,0-1.435,0-2.156c7.353,0,17.884,0,26.203,0
					C144.654,207.227,147.838,206.335,149.417,208.304z"/>
				<path fill-rule="evenodd" clip-rule="evenodd" fill="#FFFFFF" d="M184.238,208.304c-0.329,2.522-5.107,1.437-7.899,1.437
					c-8.28,0-19.346,0.574-26.563-0.72c0-0.237,0-0.479,0-0.717c-0.017-0.616,0.264-0.929,0.717-1.077
					c9.495,0.42,20.426-0.556,30.515,0C181.831,207.271,184.302,206.416,184.238,208.304z"/>
				<path fill-rule="evenodd" clip-rule="evenodd" fill="#FFFFFF" d="M117.823,212.612c-0.304-1.05-0.902,0.466-1.793,0
					c0-0.838,0-1.676,0-2.512c11.128,0,22.256,0,33.387,0c0.336,1.845-0.441,2.576-1.078,2.512c0.918,0.279,1.359,1.033,1.078,2.513
					c-11.13,0-22.259,0-33.387,0C115.653,213.315,116.407,212.633,117.823,212.612z M147.978,212.612c-5.023,0-10.052,0-15.075,0
					c-2.515,0-5.027,0-7.54,0c-2.277,0.238-5.498-0.473-7.18,0.359C127.997,212.733,138.764,213.448,147.978,212.612z"/>
				<path fill-rule="evenodd" clip-rule="evenodd" d="M118.184,212.971c1.682-0.832,4.902-0.121,7.18-0.359c2.512,0,5.025,0,7.54,0
					c5.023,0,10.052,0,15.075,0C138.764,213.448,127.997,212.733,118.184,212.971z"/>
				<path fill-rule="evenodd" clip-rule="evenodd" d="M152.647,212.971c2.158-0.834,5.861-0.121,8.617-0.359
					C159.104,213.448,155.398,212.735,152.647,212.971z"/>
				<path fill-rule="evenodd" clip-rule="evenodd" d="M167.007,212.971c3.111-0.834,7.775-0.121,11.486-0.359
					C175.38,213.448,170.716,212.733,167.007,212.971z"/>
				<path fill-rule="evenodd" clip-rule="evenodd" fill="#FFFFFF" d="M149.417,216.564c-1.019,2.567-4.955,1.434-7.54,1.434
					c-7.999,0-18.241,0.288-25.847-0.358c0-0.72,0-1.437,0-2.154c7.353,0,17.884,0,26.203,0
					C144.654,215.485,147.838,214.59,149.417,216.564z"/>
				<path fill-rule="evenodd" clip-rule="evenodd" fill="#FFFFFF" d="M184.238,216.564c-0.329,2.519-5.107,1.434-7.899,1.434
					c-8.28,0-19.346,0.576-26.563-0.719c0-0.238,0-0.478,0-0.715c-0.017-0.617,0.264-0.932,0.717-1.079
					c9.495,0.42,20.426-0.557,30.515,0C181.831,215.529,184.302,214.675,184.238,216.564z"/>
				<path fill-rule="evenodd" clip-rule="evenodd" fill="#FFFFFF" d="M149.417,219.076c-0.215,2.508-5.019,1.434-7.54,1.434
					c-8.036,0-18.875,0.576-25.847-0.717c0-0.239,0-0.479,0-0.717c-0.06-0.418,0.077-0.642,0.36-0.719
					C126.889,218.827,139.561,217.416,149.417,219.076z"/>
				<path fill-rule="evenodd" clip-rule="evenodd" fill="#FFFFFF" d="M184.238,219.076c-0.329,2.517-5.107,1.434-7.899,1.434
					c-8.248,0-19.364,0.576-26.563-0.717c0-0.239,0-0.479,0-0.717c-0.06-0.418,0.077-0.642,0.356-0.719
					C161.009,218.827,174.012,217.413,184.238,219.076z"/>
				<path fill-rule="evenodd" clip-rule="evenodd" fill="#FFFFFF" d="M149.417,222.306c-0.994,1.944-5.083,1.078-7.899,1.078
					c-7.937,0-17.923,0.292-25.488-0.361c0-0.598,0-1.197,0-1.795c0.317-0.219,0.642-0.432,0.717,0
					c7.176-0.077,18.398,0.071,26.208,0C145.358,221.205,148.837,220.054,149.417,222.306z"/>
				<path fill-rule="evenodd" clip-rule="evenodd" fill="#FFFFFF" d="M184.238,222.306c-0.991,1.944-5.08,1.078-7.899,1.078
					c-8.277,0-18.651,0.292-26.563-0.361c0-0.598,0-1.197,0-1.795c0.319-0.219,0.639-0.432,0.717,0
					c7.432,0.336,20.182-0.548,30.872,0C182.105,221.267,184.466,220.492,184.238,222.306z"/>
				<path fill-rule="evenodd" clip-rule="evenodd" fill="#FFFFFF" d="M149.417,225.177c-0.994,1.944-5.083,1.078-7.899,1.078
					c-7.937,0-17.923,0.29-25.488-0.358c0-0.72,0-1.437,0-2.156c7.277,0,17.964,0,26.203,0
					C144.541,223.74,148.387,222.589,149.417,225.177z"/>
				<path fill-rule="evenodd" clip-rule="evenodd" fill="#FFFFFF" d="M184.238,224.818c-0.25,2.513-5.322,1.437-7.899,1.437
					c-8.236,0-18.725,0.29-26.563-0.358c0-0.358,0-0.72,0-1.078c-0.017-0.612,0.264-0.93,0.717-1.078
					c9.495,0.422,20.426-0.558,30.515,0C181.831,223.789,184.302,222.932,184.238,224.818z"/>
				<path fill-rule="evenodd" clip-rule="evenodd" fill="#FFFFFF" d="M116.03,226.614c10.13,0.461,23.848-0.937,33.387,0.717
					c-0.181,2.711-4.134,1.311-6.462,1.437c-7.734,0.409-19.57,0.117-26.925,0C116.03,228.048,116.03,227.331,116.03,226.614z"/>
				<path fill-rule="evenodd" clip-rule="evenodd" fill="#FFFFFF" d="M149.776,226.614c7.871,0.712,21.653-0.918,31.589,0
					c1.958,0.181,2.339-0.544,2.874,1.435c0.315,1.176-6.583,1.132-9.692,1.078c-6.91-0.125-20.755,0.071-24.771-0.717
					C149.776,227.811,149.776,227.212,149.776,226.614z"/>
				<path fill-rule="evenodd" clip-rule="evenodd" fill="#FFFFFF" d="M149.417,230.204c-0.215,2.51-5.019,1.435-7.54,1.435
					c-8.036,0-18.875,0.576-25.847-0.717c0-0.24,0-0.479,0-0.717c-0.06-0.418,0.077-0.64,0.36-0.717
					C126.889,229.955,139.561,228.546,149.417,230.204z"/>
				<path fill-rule="evenodd" clip-rule="evenodd" fill="#FFFFFF" d="M184.238,230.204c-0.329,2.518-5.107,1.435-7.899,1.435
					c-8.248,0-19.364,0.576-26.563-0.717c0-0.24,0-0.479,0-0.717c-0.06-0.418,0.077-0.64,0.356-0.717
					C161.009,229.955,174.012,228.546,184.238,230.204z"/>
				<path fill-rule="evenodd" clip-rule="evenodd" fill="#FFFFFF" d="M149.417,233.434c-0.994,1.944-5.083,1.079-7.899,1.079
					c-7.937,0-17.923,0.292-25.488-0.361c0-0.717,0-1.434,0-2.154c6.327,0.023,18.044,0,26.563,0
					C144.975,231.997,148.853,230.985,149.417,233.434z"/>
				<path fill-rule="evenodd" clip-rule="evenodd" fill="#FFFFFF" d="M184.238,233.434c-0.991,1.944-5.08,1.079-7.899,1.079
					c-8.277,0-18.651,0.292-26.563-0.361c0-0.356,0-0.717,0-1.076c-0.017-0.614,0.264-0.93,0.717-1.078
					c5.977,0.039,17.72,0,26.563,0C179.805,231.997,183.555,231.04,184.238,233.434z"/>
				<path fill-rule="evenodd" clip-rule="evenodd" fill="#FFFFFF" d="M149.417,235.946c-1.019,2.572-4.955,1.437-7.54,1.437
					c-7.999,0-18.241,0.29-25.847-0.359c0-0.719,0-1.434,0-2.156c7.353,0,17.884,0,26.203,0
					C144.654,234.868,147.838,233.978,149.417,235.946z"/>
				<path fill-rule="evenodd" clip-rule="evenodd" fill="#FFFFFF" d="M184.238,235.946c-0.329,2.522-5.107,1.437-7.899,1.437
					c-8.28,0-19.346,0.574-26.563-0.717c0-0.24,0-0.481,0-0.72c-0.017-0.612,0.264-0.927,0.717-1.078
					c9.495,0.425,20.426-0.557,30.515,0C181.831,234.917,184.302,234.06,184.238,235.946z"/>
				<path fill-rule="evenodd" clip-rule="evenodd" fill="#FFFFFF" d="M149.417,238.459c-0.215,2.513-5.019,1.437-7.54,1.437
					c-8.036,0-18.875,0.578-25.847-0.715c0-0.242,0-0.479,0-0.722c-0.06-0.416,0.077-0.638,0.36-0.717
					C126.889,238.212,139.561,236.801,149.417,238.459z"/>
				<path fill-rule="evenodd" clip-rule="evenodd" fill="#FFFFFF" d="M184.238,238.459c-0.329,2.52-5.107,1.437-7.899,1.437
					c-8.248,0-19.364,0.578-26.563-0.715c0-0.242,0-0.479,0-0.722c-0.06-0.416,0.077-0.638,0.356-0.717
					C161.009,238.212,174.012,236.801,184.238,238.459z"/>
				<path fill-rule="evenodd" clip-rule="evenodd" fill="#FFFFFF" d="M149.417,241.693c-0.994,1.941-5.083,1.078-7.899,1.078
					c-7.937,0-17.923,0.288-25.488-0.361c0-0.717,0-1.437,0-2.156c7.277,0,17.964,0,26.203,0
					C144.541,240.254,148.387,239.104,149.417,241.693z"/>
				<path fill-rule="evenodd" clip-rule="evenodd" fill="#FFFFFF" d="M184.238,241.332c-0.329,2.521-5.107,1.439-7.899,1.439
					c-8.28,0-19.346,0.571-26.563-0.722c0-0.237,0-0.477,0-0.717c-0.017-0.614,0.264-0.932,0.717-1.078
					c9.495,0.423,20.426-0.557,30.515,0C181.831,240.3,184.302,239.445,184.238,241.332z"/>
				<path fill-rule="evenodd" clip-rule="evenodd" fill="#FFFFFF" d="M149.417,243.845c-0.345,3.102-4.934,1.795-7.184,1.795
					c-8.152,0-18.629,0.288-26.203-0.358c0-0.717,0-1.437,0-2.154C126.16,243.589,139.878,242.191,149.417,243.845z"/>
				<path fill-rule="evenodd" clip-rule="evenodd" fill="#FFFFFF" d="M184.238,244.203c-0.329,2.52-5.107,1.437-7.899,1.437
					c-8.28,0-19.346,0.576-26.563-0.717c0-0.242,0-0.479,0-0.72c-0.017-0.614,0.264-0.927,0.717-1.076
					c9.495,0.42,20.426-0.557,30.515,0C181.831,243.173,184.302,242.314,184.238,244.203z"/>
				<path fill-rule="evenodd" clip-rule="evenodd" fill="#FFFFFF" d="M149.417,246.357c-1.019,2.572-4.955,1.437-7.54,1.437
					c-7.999,0-18.241,0.292-25.847-0.358c0-0.24,0-0.48,0-0.717c-0.06-0.42,0.077-0.639,0.36-0.717
					C127.277,246.238,139.125,245.521,149.417,246.357z"/>
				<path fill-rule="evenodd" clip-rule="evenodd" fill="#FFFFFF" d="M184.238,246.718c-0.991,1.942-5.08,1.076-7.899,1.076
					c-8.277,0-18.651,0.292-26.563-0.358c0-0.24,0-0.48,0-0.717c-0.06-0.42,0.077-0.639,0.356-0.717
					C161.009,246.47,174.012,245.058,184.238,246.718z"/>
				<path fill-rule="evenodd" clip-rule="evenodd" fill="#FFFFFF" d="M183.88,262.872c-0.341,2.532-4.994,1.436-7.541,1.436
					c-19.126,0-42.073,0.587-60.309-0.717c-0.101-0.82,0.084-1.35,0.717-1.437C138.636,262.627,162.635,261.208,183.88,262.872z"/>
				<path fill-rule="evenodd" clip-rule="evenodd" fill="#FFFFFF" d="M122.492,266.101c-0.158,1.174-4.872,1.174-5.027,0
					C117.711,264.843,122.208,265.06,122.492,266.101z"/>
				<path fill-rule="evenodd" clip-rule="evenodd" fill="#FFFFFF" d="M159.467,265.745c-1.93,1.927-5.818,1.076-9.335,1.076
					c-3.385,0-7.085,0-10.05,0c0-0.24,0-0.478,0-0.72C145.006,264.671,153.946,265.389,159.467,265.745z"/>
				<path fill-rule="evenodd" clip-rule="evenodd" fill="#FFFFFF" d="M183.163,266.101c-0.345,1.151-5.544,1.346-5.388-0.356
					C178.85,265.315,182.648,264.822,183.163,266.101z"/>
				<path fill-rule="evenodd" clip-rule="evenodd" d="M176.7,203.636c0.605-1.903,3.582-1.441,6.101-1.435
					c0.82,0.735,1.336,1.779,2.872,1.795c0.562,19.186-1.467,40.958,1.797,57.441c0.338,1.297-1.414,0.5-2.154,0.717
					c1.119,3.395-1.937,2.613-1.795,5.025c-2.805-0.068-6.443,0.699-6.821-1.795c-5.267,0-10.534,0-15.796,0
					c-1.505-0.424-0.642,1.512-1.437,1.795c-6.461,0-12.921,0-19.385,0c-1.206,0.368-0.56-1.117-0.717-1.795
					c-5.025,0-10.052,0-15.08,0c-1.046,2.063-4.248,1.974-7.537,1.795c0.324-2.478-2.924-1.384-1.795-4.668
					c0.059-1.014-2.211,0.301-2.152-0.717c3.207-16.656,1.27-38.456,1.793-57.797c1.13-0.306,2.419-0.451,2.512-1.795
					c1.917,0.596,6.425-1.397,6.101,1.435c1.195-9.648-0.15-17.755,0.722-25.848c1.288-11.989,12.507-20.677,25.13-21.18
					c12.997-0.516,26.198,8.614,27.642,21.9C177.545,186.281,176.086,194.141,176.7,203.636z M116.03,215.125
					c11.128,0,22.256,0,33.387,0c0.281-1.48-0.16-2.234-1.078-2.513c0.637,0.064,1.414-0.667,1.078-2.512
					c-11.13,0-22.259,0-33.387,0c0,0.836,0,1.674,0,2.512c0.891,0.466,1.489-1.05,1.793,0
					C116.407,212.633,115.653,213.315,116.03,215.125z M174.188,173.124c-3.321-8.111-11.914-14.129-21.183-15.079
					c-14.57-1.492-26.679,8.19-28.001,20.102c-0.838,7.538,0.61,15.895,0,25.489c3.588,0,3.321,0,6.912,0
					c1.348-8.899-2.953-18.246-0.637-25.848c3.18-10.429,34.447-12.046,37.917,0.359c2.243,8.011-1.369,15.262-0.114,25.489
					c3.709,0,2.832,0,6.541,0C174.679,191.717,177.481,181.176,174.188,173.124z M167.761,177.432
					c-3.477-8.504-32.003-9.888-35.043,0.715c-2.407,8.376,2.01,15.311,0.635,25.489c3.109,0,10.08,0,13.193,0
					c0.146-2.483,4.184-1.076,6.459-1.435c0.955-0.114-0.333,2.012,1.078,1.435c3.111,0,10.809,0,13.92,0
					C166.602,194.698,170.65,184.504,167.761,177.432z M117.465,203.279c0.797,0.42,4.801,0.982,5.027-0.358
					C121.69,202.496,117.69,201.936,117.465,203.279z M147.619,203.279c0.799,0.42,4.801,0.982,5.028-0.358
					C151.845,202.496,147.848,201.936,147.619,203.279z M177.774,202.921c0.265,1.172,5.125,1.172,5.388,0
					C182.128,202.263,178.834,202.407,177.774,202.921z M116.391,205.072c-0.283,0.08-0.42,0.304-0.36,0.72c0,0.237,0,0.479,0,0.719
					c7.565,0.646,17.551,0.359,25.488,0.359c2.816,0,6.905,0.866,7.899-1.078C139.561,204.134,126.889,205.54,116.391,205.072z
					 M150.132,205.072c-0.279,0.08-0.416,0.304-0.356,0.72c0,0.237,0,0.479,0,0.719c7.912,0.646,18.286,0.359,26.563,0.359
					c2.819,0,6.908,0.866,7.899-1.078C174.012,204.134,161.009,205.545,150.132,205.072z M142.233,207.227
					c-8.319,0-18.851,0-26.203,0c0,0.721,0,1.438,0,2.156c7.606,0.649,17.848,0.358,25.847,0.358c2.585,0,6.521,1.136,7.54-1.437
					C147.838,206.335,144.654,207.227,142.233,207.227z M181.008,207.227c-10.089-0.556-21.021,0.42-30.515,0
					c-0.453,0.148-0.734,0.461-0.717,1.077c0,0.238,0,0.48,0,0.717c7.217,1.293,18.284,0.72,26.563,0.72
					c2.792,0,7.57,1.085,7.899-1.437C184.302,206.416,181.831,207.271,181.008,207.227z M149.776,215.125
					c11.347-0.466,24.495,0.939,34.462-0.717c0.907-2.462-2.353-0.756-2.874-1.795c1.882,0.206,3.431,0.083,2.874-2.154
					c-10.772-0.838-23.095-0.121-34.462-0.358C149.94,212.404,149.94,212.822,149.776,215.125z M142.233,215.485
					c-8.319,0-18.851,0-26.203,0c0,0.718,0,1.435,0,2.154c7.606,0.646,17.848,0.358,25.847,0.358c2.585,0,6.521,1.133,7.54-1.434
					C147.838,214.59,144.654,215.485,142.233,215.485z M181.008,215.485c-10.089-0.557-21.021,0.42-30.515,0
					c-0.453,0.146-0.734,0.461-0.717,1.079c0,0.237,0,0.477,0,0.715c7.217,1.295,18.284,0.719,26.563,0.719
					c2.792,0,7.57,1.085,7.899-1.434C184.302,214.675,181.831,215.529,181.008,215.485z M116.391,218.357
					c-0.283,0.077-0.42,0.301-0.36,0.719c0,0.237,0,0.478,0,0.717c6.971,1.293,17.811,0.717,25.847,0.717
					c2.521,0,7.325,1.074,7.54-1.434C139.561,217.416,126.889,218.827,116.391,218.357z M150.132,218.357
					c-0.279,0.077-0.416,0.301-0.356,0.719c0,0.237,0,0.478,0,0.717c7.199,1.293,18.316,0.717,26.563,0.717
					c2.792,0,7.57,1.083,7.899-1.434C174.012,217.413,161.009,218.827,150.132,218.357z M142.955,221.228
					c-7.81,0.071-19.031-0.077-26.208,0c-0.076-0.432-0.4-0.219-0.717,0c0,0.599,0,1.197,0,1.795
					c7.565,0.653,17.551,0.361,25.488,0.361c2.816,0,6.905,0.866,7.899-1.078C148.837,220.054,145.358,221.205,142.955,221.228z
					 M181.365,221.228c-10.69-0.548-23.439,0.336-30.872,0c-0.078-0.432-0.398-0.219-0.717,0c0,0.599,0,1.197,0,1.795
					c7.912,0.653,18.286,0.361,26.563,0.361c2.819,0,6.908,0.866,7.899-1.078C184.466,220.492,182.105,221.267,181.365,221.228z
					 M142.233,223.74c-8.239,0-18.926,0-26.203,0c0,0.72,0,1.437,0,2.156c7.565,0.648,17.551,0.358,25.488,0.358
					c2.816,0,6.905,0.866,7.899-1.078C148.387,222.589,144.541,223.74,142.233,223.74z M181.008,223.74
					c-10.089-0.558-21.021,0.422-30.515,0c-0.453,0.148-0.734,0.466-0.717,1.078c0,0.358,0,0.72,0,1.078
					c7.838,0.648,18.327,0.358,26.563,0.358c2.577,0,7.649,1.076,7.899-1.437C184.302,222.932,181.831,223.789,181.008,223.74z
					 M116.03,228.768c7.354,0.117,19.19,0.409,26.925,0c2.328-0.125,6.281,1.274,6.462-1.437
					c-9.539-1.654-23.257-0.256-33.387-0.717C116.03,227.331,116.03,228.048,116.03,228.768z M149.776,228.409
					c4.015,0.788,17.861,0.592,24.771,0.717c3.109,0.054,10.007,0.098,9.692-1.078c-0.535-1.979-0.916-1.254-2.874-1.435
					c-9.936-0.918-23.718,0.712-31.589,0C149.776,227.212,149.776,227.811,149.776,228.409z M116.391,229.487
					c-0.283,0.078-0.42,0.299-0.36,0.717c0,0.238,0,0.478,0,0.717c6.971,1.293,17.811,0.717,25.847,0.717
					c2.521,0,7.325,1.076,7.54-1.435C139.561,228.546,126.889,229.955,116.391,229.487z M150.132,229.487
					c-0.279,0.078-0.416,0.299-0.356,0.717c0,0.238,0,0.478,0,0.717c7.199,1.293,18.316,0.717,26.563,0.717
					c2.792,0,7.57,1.083,7.899-1.435C174.012,228.546,161.009,229.955,150.132,229.487z M142.594,231.997
					c-8.519,0-20.236,0.023-26.563,0c0,0.72,0,1.437,0,2.154c7.565,0.653,17.551,0.361,25.488,0.361
					c2.816,0,6.905,0.866,7.899-1.079C148.853,230.985,144.975,231.997,142.594,231.997z M177.057,231.997
					c-8.844,0-20.586,0.039-26.563,0c-0.453,0.148-0.734,0.464-0.717,1.078c0,0.358,0,0.72,0,1.076
					c7.912,0.653,18.286,0.361,26.563,0.361c2.819,0,6.908,0.866,7.899-1.079C183.555,231.04,179.805,231.997,177.057,231.997z
					 M142.233,234.868c-8.319,0-18.851,0-26.203,0c0,0.722,0,1.437,0,2.156c7.606,0.648,17.848,0.359,25.847,0.359
					c2.585,0,6.521,1.135,7.54-1.437C147.838,233.978,144.654,234.868,142.233,234.868z M181.008,234.868
					c-10.089-0.557-21.021,0.425-30.515,0c-0.453,0.151-0.734,0.466-0.717,1.078c0,0.238,0,0.48,0,0.72
					c7.217,1.291,18.284,0.717,26.563,0.717c2.792,0,7.57,1.085,7.899-1.437C184.302,234.06,181.831,234.917,181.008,234.868z
					 M116.391,237.742c-0.283,0.079-0.42,0.301-0.36,0.717c0,0.242,0,0.479,0,0.722c6.971,1.293,17.811,0.715,25.847,0.715
					c2.521,0,7.325,1.076,7.54-1.437C139.561,236.801,126.889,238.212,116.391,237.742z M150.132,237.742
					c-0.279,0.079-0.416,0.301-0.356,0.717c0,0.242,0,0.479,0,0.722c7.199,1.293,18.316,0.715,26.563,0.715
					c2.792,0,7.57,1.083,7.899-1.437C174.012,236.801,161.009,238.212,150.132,237.742z M142.233,240.254
					c-8.239,0-18.926,0-26.203,0c0,0.719,0,1.439,0,2.156c7.565,0.649,17.551,0.361,25.488,0.361c2.816,0,6.905,0.863,7.899-1.078
					C148.387,239.104,144.541,240.254,142.233,240.254z M181.008,240.254c-10.089-0.557-21.021,0.423-30.515,0
					c-0.453,0.146-0.734,0.464-0.717,1.078c0,0.24,0,0.48,0,0.717c7.217,1.293,18.284,0.722,26.563,0.722
					c2.792,0,7.57,1.082,7.899-1.439C184.302,239.445,181.831,240.3,181.008,240.254z M116.03,243.127c0,0.717,0,1.437,0,2.154
					c7.574,0.646,18.051,0.358,26.203,0.358c2.25,0,6.838,1.307,7.184-1.795C139.878,242.191,126.16,243.589,116.03,243.127z
					 M181.008,243.127c-10.089-0.557-21.021,0.42-30.515,0c-0.453,0.149-0.734,0.462-0.717,1.076c0,0.24,0,0.478,0,0.72
					c7.217,1.293,18.284,0.717,26.563,0.717c2.792,0,7.57,1.083,7.899-1.437C184.302,242.314,181.831,243.173,181.008,243.127z
					 M116.391,246.001c-0.283,0.078-0.42,0.297-0.36,0.717c0,0.237,0,0.478,0,0.717c7.606,0.651,17.848,0.358,25.847,0.358
					c2.585,0,6.521,1.135,7.54-1.437C139.125,245.521,127.277,246.238,116.391,246.001z M150.132,246.001
					c-0.279,0.078-0.416,0.297-0.356,0.717c0,0.237,0,0.478,0,0.717c7.912,0.651,18.286,0.358,26.563,0.358
					c2.819,0,6.908,0.866,7.899-1.076C174.012,245.058,161.009,246.47,150.132,246.001z M116.748,262.154
					c-0.633,0.086-0.818,0.617-0.717,1.437c18.236,1.305,41.183,0.717,60.309,0.717c2.547,0,7.2,1.096,7.541-1.436
					C162.635,261.208,138.636,262.627,116.748,262.154z M117.465,266.101c0.155,1.174,4.869,1.174,5.027,0
					C122.208,265.06,117.711,264.843,117.465,266.101z M140.082,266.101c0,0.242,0,0.48,0,0.72c2.965,0,6.665,0,10.05,0
					c3.517,0,7.405,0.852,9.335-1.076C153.946,265.389,145.006,264.671,140.082,266.101z M177.774,265.745
					c-0.156,1.702,5.043,1.507,5.388,0.356C182.648,264.822,178.85,265.315,177.774,265.745z"/>
				<path fill-rule="evenodd" clip-rule="evenodd" fill="#FFFFFF" d="M149.776,210.1c11.368,0.238,23.69-0.479,34.462,0.358
					c0.557,2.236-0.991,2.36-2.874,2.154c0.521,1.04,3.78-0.667,2.874,1.795c-9.968,1.656-23.115,0.251-34.462,0.717
					C149.94,212.822,149.94,212.404,149.776,210.1z M161.264,212.612c-2.756,0.238-6.459-0.475-8.617,0.359
					C155.398,212.735,159.104,213.448,161.264,212.612z M178.493,212.612c-3.711,0.238-8.375-0.475-11.486,0.359
					C170.716,212.733,175.38,213.448,178.493,212.612z"/>
			</g>
		</g>
		<g>
			<g>
				<path fill-rule="evenodd" clip-rule="evenodd" fill="#FFFFFF" d="M143.91,180.561c0,0.836-0.169,1.512-0.384,1.512h-8.351
					c-0.215,0-0.389-0.676-0.389-1.512v-25.55c0-0.835,0.174-1.517,0.389-1.517h8.351c0.215,0,0.384,0.681,0.384,1.517V180.561z"/>
				<path fill="#231F20" d="M144.022,180.561c0,0.393-0.027,0.786-0.132,1.184c-0.03,0.096-0.06,0.197-0.124,0.302
					c-0.036,0.045-0.073,0.109-0.171,0.144c-0.022,0.012-0.06,0.012-0.073,0.012h-0.036l-0.073,0.004l-0.58,0.016
					c-0.776,0.029-1.549,0.07-2.323,0.128c-1.548,0.117-3.097,0.281-4.646,0.417l-0.578,0.048l-0.076,0.007h-0.016
					c-0.041,0,0.059,0.005-0.091,0l-0.019-0.002c-0.041-0.002-0.128-0.016-0.188-0.039c-0.192-0.069-0.276-0.146-0.351-0.215
					c-0.066-0.064-0.115-0.128-0.151-0.176c-0.133-0.201-0.178-0.332-0.229-0.464c-0.173-0.5-0.217-0.925-0.246-1.37
					c-0.05-0.775-0.078-1.549-0.096-2.323c-0.034-1.548-0.014-3.099,0.055-4.644c0.144-3.097,0.493-6.195,0.557-9.292
					c0.077-3.097-0.041-6.19-0.245-9.288c-0.021-0.432-0.021-0.845,0.091-1.343c0.034-0.128,0.064-0.26,0.186-0.457
					c0.032-0.05,0.068-0.105,0.139-0.173c0.062-0.064,0.167-0.148,0.331-0.203c0.041-0.012,0.082-0.025,0.13-0.03
					c0.034-0.007,0.125-0.009,0.111-0.009l0.037-0.002l0.073-0.005l0.581-0.039c0.772-0.05,1.546-0.093,2.323-0.128
					c1.546-0.078,3.095-0.116,4.644-0.155l0.579-0.019h0.074h0.016c0.052,0-0.09-0.004,0.123,0.005h0.016
					c0.048,0.005,0.173,0.027,0.251,0.055c0.099,0.036,0.114,0.045,0.169,0.073c0.052,0.027,0.088,0.05,0.123,0.076
					c0.078,0.052,0.124,0.093,0.174,0.141c0.084,0.084,0.141,0.165,0.185,0.224c0.158,0.249,0.199,0.397,0.25,0.545
					c0.084,0.283,0.125,0.519,0.155,0.754c0.029,0.237,0.046,0.466,0.05,0.694l0.048,2.323c0.036,1.546,0.036,3.095,0.025,4.644
					c-0.021,1.548-0.05,3.094-0.109,4.643c-0.057,1.549-0.185,3.1-0.329,4.644C144.328,174.367,144.015,177.464,144.022,180.561z
					 M143.803,180.561c0.006-3.097-0.306-6.194-0.615-9.292c-0.146-1.544-0.274-3.095-0.333-4.644
					c-0.06-1.549-0.087-3.095-0.107-4.643c-0.009-1.549-0.012-3.098,0.027-4.644l0.048-2.323c0-0.16,0-0.318-0.011-0.469
					c-0.007-0.146-0.03-0.294-0.053-0.381c-0.005-0.041-0.028-0.073,0.025,0.009c0.016,0.018,0.043,0.062,0.094,0.109
					c0.034,0.032,0.062,0.057,0.121,0.101c0.025,0.014,0.048,0.029,0.089,0.053c0.048,0.021,0.05,0.024,0.137,0.057
					c0.068,0.027,0.183,0.043,0.215,0.046l-0.019-0.002c0.201,0.009,0.046,0.002,0.085,0.004h-0.016l-0.074-0.002l-0.579-0.014
					c-1.549-0.041-3.098-0.082-4.644-0.158c-0.777-0.034-1.551-0.08-2.323-0.129l-0.581-0.037l-0.073-0.004l-0.037-0.005
					c-0.023,0,0.055,0,0.078-0.005c0.032-0.007,0.064-0.011,0.096-0.022c0.233-0.094,0.24-0.178,0.256-0.188
					c0.014-0.036-0.022,0.019-0.043,0.073c-0.099,0.247-0.158,0.617-0.181,0.959c-0.201,3.098-0.325,6.19-0.247,9.288
					c0.066,3.097,0.416,6.194,0.558,9.292c0.071,1.544,0.092,3.095,0.06,4.644c-0.021,0.774-0.05,1.548-0.096,2.323
					c-0.028,0.324-0.014,0.68,0.018,0.927c0.005,0.052,0.025,0.105-0.005,0.068c-0.006-0.009-0.027-0.032-0.059-0.062
					c-0.043-0.034-0.084-0.085-0.233-0.135c-0.046-0.019-0.123-0.03-0.151-0.03l0.016,0.002c-0.139-0.009-0.025,0-0.052-0.002
					l0.016,0.002l0.076,0.004l0.578,0.05c1.549,0.133,3.098,0.304,4.646,0.416c0.774,0.059,1.547,0.101,2.323,0.128l0.58,0.018
					h0.073h0.036c0.007,0-0.004,0.005-0.004,0.005c-0.005,0.004,0.023-0.014,0.043-0.041c0.041-0.064,0.075-0.146,0.105-0.233
					C143.768,181.324,143.798,180.938,143.803,180.561z"/>
			</g>
			<g>
				<path fill-rule="evenodd" clip-rule="evenodd" fill="#FFFFFF" d="M165.52,180.561c0,0.836-0.175,1.512-0.386,1.512h-8.351
					c-0.211,0-0.386-0.676-0.386-1.512v-25.55c0-0.835,0.174-1.517,0.386-1.517h8.351c0.21,0,0.386,0.681,0.386,1.517V180.561z"/>
				<path fill="#231F20" d="M165.631,180.561c-0.004,0.393-0.027,0.786-0.132,1.184c-0.032,0.096-0.064,0.197-0.123,0.302
					c-0.037,0.045-0.073,0.109-0.174,0.144c-0.023,0.012-0.059,0.012-0.073,0.012h-0.036l-0.071,0.004l-0.582,0.016
					c-0.772,0.029-1.549,0.07-2.321,0.128c-1.549,0.117-3.098,0.281-4.646,0.417l-0.581,0.048l-0.073,0.007h-0.018
					c-0.04,0,0.062,0.005-0.092,0l-0.018-0.002c-0.037-0.002-0.128-0.016-0.185-0.039c-0.194-0.069-0.276-0.146-0.354-0.215
					c-0.068-0.064-0.114-0.128-0.149-0.176c-0.134-0.201-0.18-0.333-0.228-0.464c-0.176-0.5-0.217-0.925-0.25-1.37
					c-0.045-0.775-0.077-1.549-0.095-2.323c-0.033-1.548-0.011-3.099,0.057-4.644c0.144-3.097,0.492-6.195,0.557-9.292
					c0.076-3.097-0.041-6.19-0.244-9.288c-0.018-0.432-0.022-0.845,0.092-1.343c0.032-0.128,0.064-0.26,0.182-0.457
					c0.032-0.05,0.074-0.105,0.138-0.173c0.063-0.064,0.173-0.148,0.333-0.203c0.041-0.012,0.082-0.025,0.132-0.03
					c0.032-0.007,0.124-0.009,0.112-0.009l0.035-0.002l0.072-0.005l0.581-0.039c0.774-0.05,1.549-0.093,2.323-0.128
					c1.551-0.078,3.095-0.116,4.644-0.155l0.58-0.019h0.073h0.019c0.055,0-0.092-0.004,0.124,0.005h0.016
					c0.048,0.005,0.171,0.027,0.249,0.055c0.101,0.036,0.114,0.045,0.173,0.073c0.048,0.027,0.087,0.05,0.119,0.076
					c0.08,0.052,0.123,0.093,0.173,0.141c0.084,0.084,0.144,0.165,0.188,0.224c0.155,0.249,0.196,0.397,0.246,0.545
					c0.087,0.283,0.124,0.519,0.156,0.754c0.032,0.237,0.047,0.466,0.05,0.694l0.05,2.323c0.037,1.546,0.037,3.095,0.023,4.644
					c-0.018,1.548-0.046,3.094-0.107,4.643c-0.06,1.549-0.185,3.1-0.332,4.644C165.938,174.367,165.623,177.464,165.631,180.561z
					 M165.412,180.561c0.007-3.097-0.306-6.194-0.614-9.292c-0.144-1.544-0.276-3.095-0.334-4.644
					c-0.059-1.549-0.088-3.095-0.107-4.643c-0.009-1.549-0.009-3.098,0.028-4.644l0.045-2.323c0.005-0.16,0.002-0.318-0.009-0.469
					c-0.009-0.146-0.032-0.294-0.052-0.381c-0.002-0.041-0.03-0.073,0.028,0.009c0.011,0.018,0.041,0.062,0.088,0.109
					c0.037,0.032,0.064,0.057,0.119,0.101c0.027,0.014,0.05,0.029,0.091,0.053c0.05,0.021,0.05,0.024,0.139,0.057
					c0.064,0.027,0.181,0.043,0.217,0.046l-0.021-0.002c0.201,0.009,0.048,0.002,0.084,0.004h-0.019l-0.073-0.002l-0.58-0.014
					c-1.548-0.041-3.093-0.082-4.644-0.158c-0.774-0.034-1.548-0.08-2.323-0.129l-0.581-0.037l-0.072-0.004l-0.035-0.005
					c-0.028,0,0.053,0,0.073-0.005c0.036-0.007,0.066-0.011,0.098-0.022c0.233-0.094,0.243-0.178,0.258-0.188
					c0.012-0.036-0.025,0.019-0.043,0.073c-0.1,0.247-0.16,0.617-0.183,0.959c-0.201,3.098-0.322,6.19-0.247,9.288
					c0.068,3.097,0.418,6.194,0.557,9.292c0.073,1.544,0.091,3.095,0.06,4.644c-0.019,0.774-0.05,1.548-0.096,2.323
					c-0.027,0.324-0.013,0.68,0.021,0.927c0.004,0.052,0.025,0.105-0.007,0.068c-0.004-0.009-0.025-0.032-0.057-0.062
					c-0.043-0.034-0.084-0.085-0.233-0.135c-0.048-0.019-0.125-0.03-0.153-0.03l0.018,0.002c-0.137-0.009-0.027,0-0.054-0.002
					l0.018,0.002l0.073,0.004l0.581,0.05c1.548,0.133,3.097,0.304,4.646,0.416c0.771,0.059,1.548,0.101,2.321,0.128l0.582,0.018
					h0.071h0.036c0.009,0-0.004,0.005-0.002,0.005c-0.004,0.004,0.021-0.014,0.043-0.041c0.041-0.064,0.078-0.146,0.105-0.233
					C165.376,181.324,165.408,180.938,165.412,180.561z"/>
			</g>
			<g>
				<path fill-rule="evenodd" clip-rule="evenodd" fill="#FFFFFF" d="M158.665,167.812c0,7.907-3.696,14.319-8.25,14.319
					s-8.25-6.412-8.25-14.319c0-7.905,3.696-14.317,8.25-14.317S158.665,159.906,158.665,167.812z"/>
				<path fill="#231F20" d="M158.773,167.816c-0.007,1.505-0.081,3.018-0.254,4.536c-0.171,1.514-0.443,3.042-0.959,4.534
					c-0.521,1.479-1.275,2.939-2.463,4.131c-0.589,0.594-1.283,1.12-2.085,1.49c-0.795,0.372-1.704,0.568-2.597,0.532
					c-0.896-0.039-1.764-0.304-2.51-0.717c-0.747-0.418-1.382-0.963-1.921-1.564c-1.076-1.206-1.8-2.6-2.403-4.011
					c-1.172-2.842-1.798-5.856-2.01-8.931c-0.091-1.54-0.076-3.102,0.151-4.653c0.219-1.548,0.626-3.082,1.242-4.562
					c0.617-1.471,1.444-2.905,2.647-4.121c0.601-0.605,1.307-1.142,2.122-1.535c0.813-0.397,1.745-0.621,2.682-0.614
					c0.932,0.011,1.859,0.244,2.661,0.655c0.806,0.402,1.5,0.946,2.083,1.556c1.174,1.227,1.912,2.698,2.428,4.185
					c0.512,1.496,0.777,3.031,0.955,4.543C158.704,164.792,158.777,166.304,158.773,167.816z M158.556,167.812
					c0.004-2.992-0.836-5.989-2.289-8.492c-0.721-1.248-1.585-2.385-2.577-3.26c-0.493-0.437-1.022-0.799-1.581-1.043
					c-0.552-0.242-1.123-0.365-1.694-0.356c-1.142,0.004-2.262,0.573-3.221,1.459c-0.961,0.889-1.736,2.062-2.351,3.328
					c-0.616,1.27-1.062,2.638-1.407,4.043c-0.333,1.407-0.582,2.855-0.673,4.326c-0.094,1.466-0.064,2.953,0.18,4.413
					c0.229,1.462,0.647,2.901,1.282,4.23c0.635,1.325,1.51,2.541,2.597,3.436c1.08,0.896,2.373,1.416,3.593,1.33
					c1.222-0.069,2.359-0.684,3.339-1.59c0.978-0.908,1.828-2.06,2.536-3.316c0.717-1.256,1.302-2.632,1.69-4.07
					C158.364,170.809,158.56,169.312,158.556,167.812z"/>
			</g>
		</g>
	</g>
	<text transform="matrix(1 0 0 1 185.6592 257.104)" fill="#231F20" font-family="'CourierNewPSMT'" font-size="68.4053">nocLock</text>
	<text transform="matrix(1 0 0 1 273.5469 269.1147)" fill="#231F20" font-family="'CourierNewPSMT'" font-size="10.004">No numbers. No keys. Just knocks.</text>
</g>
</svg>
