<?xml version="1.0" encoding="UTF-8" standalone="no"?>
<!-- Created with Inkscape (http://www.inkscape.org/) -->

<svg
   xmlns:dc="http://purl.org/dc/elements/1.1/"
   xmlns:cc="http://creativecommons.org/ns#"
   xmlns:rdf="http://www.w3.org/1999/02/22-rdf-syntax-ns#"
   xmlns:svg="http://www.w3.org/2000/svg"
   xmlns="http://www.w3.org/2000/svg"
   xmlns:sodipodi="http://sodipodi.sourceforge.net/DTD/sodipodi-0.dtd"
   xmlns:inkscape="http://www.inkscape.org/namespaces/inkscape"
   width="1080"
   height="720"
   id="svg2"
   version="1.1"
   inkscape:version="0.48.5 r10040"
   sodipodi:docname="New document 1">
  <defs
     id="defs4" />
  <sodipodi:namedview
     id="base"
     pagecolor="#ffffff"
     bordercolor="#666666"
     borderopacity="1.0"
     inkscape:pageopacity="0.0"
     inkscape:pageshadow="2"
     inkscape:zoom="0.49497475"
     inkscape:cx="562.67769"
     inkscape:cy="433.54235"
     inkscape:document-units="px"
     inkscape:current-layer="layer1"
     showgrid="false"
     units="in"
     inkscape:window-width="1280"
     inkscape:window-height="752"
     inkscape:window-x="49"
     inkscape:window-y="0"
     inkscape:window-maximized="0" />
  <metadata
     id="metadata7">
    <rdf:RDF>
      <cc:Work
         rdf:about="">
        <dc:format>image/svg+xml</dc:format>
        <dc:type
           rdf:resource="http://purl.org/dc/dcmitype/StillImage" />
        <dc:title></dc:title>
      </cc:Work>
    </rdf:RDF>
  </metadata>
  <g
     inkscape:label="Layer 1"
     inkscape:groupmode="layer"
     id="layer1"
     transform="translate(0,-332.35975)">
    <rect
       style="fill:none;stroke:#ff0000;stroke-width:1.20000005;stroke-linecap:round;stroke-linejoin:round;stroke-miterlimit:4;stroke-opacity:1;stroke-dasharray:none;stroke-dashoffset:9.54000942"
       id="rect2985"
       width="1033.8"
       height="621.41339"
       x="23.099976"
       y="380.94882"
       ry="87.480522" />
    <flowRoot
       xml:space="preserve"
       id="flowRoot3755"
       style="font-size:40px;font-style:normal;font-variant:normal;font-weight:bold;font-stretch:normal;text-align:center;line-height:125%;letter-spacing:0px;word-spacing:0px;text-anchor:middle;fill:#000000;fill-opacity:1;stroke:none;font-family:Arial;-inkscape-font-specification:Arial Bold"
       transform="matrix(2.3631686,0,0,4.7510597,-469.49762,-852.98491)"><flowRegion
         id="flowRegion3757"><rect
           id="rect3759"
           width="360.71429"
           height="102.85714"
           x="244.28572"
           y="260.21933"
           style="font-size:40px;font-style:normal;font-variant:normal;font-weight:bold;font-stretch:normal;text-align:center;text-anchor:middle;font-family:Arial;-inkscape-font-specification:Arial Bold" /></flowRegion><flowPara
         id="flowPara3761"
         style="font-style:italic;font-variant:normal;font-weight:bold;font-stretch:normal;font-family:Wide Latin;-inkscape-font-specification:Wide Latin Bold Italic">OPEN</flowPara><flowPara
         id="flowPara3763"
         style="font-style:italic;font-variant:normal;font-weight:bold;font-stretch:normal;font-family:Wide Latin;-inkscape-font-specification:Wide Latin Bold Italic">CLOSED</flowPara></flowRoot>    <flowRoot
       xml:space="preserve"
       id="flowRoot3775"
       style="font-size:8px;font-style:normal;font-weight:bold;line-height:125%;letter-spacing:0px;word-spacing:0px;fill:#000000;fill-opacity:1;stroke:none;font-family:Sans;-inkscape-font-specification:Sans Bold"
       transform="matrix(2.1477961,0,0,1.356904,-223.10944,1125.2091)"><flowRegion
         id="flowRegion3777"><rect
           id="rect3779"
           width="631.42859"
           height="120"
           x="40"
           y="-192.85715" /></flowRegion><flowPara
         id="flowPara3781"
         style="font-size:20px;text-align:center;text-anchor:middle">Check psu-epl.github.io</flowPara><flowPara
         style="font-size:20px;text-align:center;text-anchor:middle"
         id="flowPara3787">and ieee.pdx.edu/store.html</flowPara><flowPara
         style="font-size:20px;text-align:center;text-anchor:middle"
         id="flowPara3789">for schedule info</flowPara></flowRoot>    <text
       xml:space="preserve"
       style="font-size:8px;font-style:normal;font-weight:bold;line-height:125%;letter-spacing:0px;word-spacing:0px;fill:#000000;fill-opacity:1;stroke:none;font-family:Sans;-inkscape-font-specification:Sans Bold"
       x="122.85714"
       y="-142.85715"
       id="text3783"
       sodipodi:linespacing="125%"
       transform="translate(0,332.35975)"><tspan
         sodipodi:role="line"
         id="tspan3785"
         x="122.85714"
         y="-142.85715" /></text>
    <flowRoot
       xml:space="preserve"
       id="flowRoot3791"
       style="fill:black;stroke:none;stroke-opacity:1;stroke-width:1px;stroke-linejoin:miter;stroke-linecap:butt;fill-opacity:1;font-family:Sans;font-style:normal;font-weight:bold;font-size:8px;line-height:125%;letter-spacing:0px;word-spacing:0px;-inkscape-font-specification:Sans Bold"><flowRegion
         id="flowRegion3793"><rect
           id="rect3795"
           width="402.85715"
           height="74.285713"
           x="88.571426"
           y="-171.42857" /></flowRegion><flowPara
         id="flowPara3797"></flowPara></flowRoot>    <path
       id="path4266-3"
       style="fill:none;stroke:#ff0000;stroke-width:1.53999996;stroke-linecap:butt;stroke-linejoin:bevel;stroke-miterlimit:4;stroke-opacity:1;stroke-dasharray:none;stroke-dashoffset:0"
       d="m 858.66349,445.22021 -4.11076,1.15841 -2.58678,0.72894 -0.23698,-0.84097 c 0,0 -9.90285,2.79372 -14.40669,4.06289 -8.41769,2.37209 -12.80201,-2.31056 -13.69261,-5.47096 -0.89059,-3.16039 0.38148,-9.52199 8.79917,-11.89408 2.50249,-0.70519 14.40886,-4.05519 14.40886,-4.05519 l -0.19216,-0.6819 6.6744,-1.96946 z"
       inkscape:connector-curvature="0"
       sodipodi:nodetypes="ccccszscccc" />
    <path
       sodipodi:nodetypes="ccccszscccc"
       inkscape:connector-curvature="0"
       d="m 857.83666,517.08047 -4.27086,0 -2.68752,0 0,-0.87373 c 0,0 -10.28938,0.003 -14.96863,0.003 -8.74553,0 -11.69539,-5.69629 -11.69539,-8.97978 0,-3.28348 2.94987,-9.06157 11.69539,-9.06157 2.59995,0 14.96863,0.005 14.96863,0.005 l 0,-0.70846 6.95838,-0.0853 z"
       style="fill:none;stroke:#ff0000;stroke-width:1.53999996;stroke-linecap:butt;stroke-linejoin:bevel;stroke-miterlimit:4;stroke-opacity:1;stroke-dasharray:none;stroke-dashoffset:0"
       id="path3806" />
    <path
       sodipodi:nodetypes="ccccszscccc"
       inkscape:connector-curvature="0"
       d="m 858.66349,566.24251 -4.11076,-1.15841 -2.58678,-0.72894 -0.23698,0.84097 c 0,0 -9.90285,-2.79372 -14.40669,-4.06289 -8.41769,-2.37209 -12.80201,2.31056 -13.69261,5.47096 -0.89059,3.16039 0.38148,9.52199 8.79917,11.89408 2.50249,0.70519 14.40886,4.05519 14.40886,4.05519 l -0.19216,0.6819 6.6744,1.96946 z"
       style="fill:none;stroke:#ff0000;stroke-width:1.53999996;stroke-linecap:butt;stroke-linejoin:bevel;stroke-miterlimit:4;stroke-opacity:1;stroke-dasharray:none;stroke-dashoffset:0"
       id="path3816" />
    <path
       sodipodi:nodetypes="ccccszscccc"
       inkscape:connector-curvature="0"
       d="m 228.42788,439.24052 4.11076,1.15841 2.58678,0.72894 0.23698,-0.84097 c 0,0 9.90285,2.79372 14.40669,4.06289 8.41769,2.37209 12.80201,-2.31056 13.69261,-5.47096 0.89059,-3.16039 -0.38148,-9.52199 -8.79917,-11.89408 -2.50249,-0.70519 -14.40886,-4.05519 -14.40886,-4.05519 l 0.19216,-0.6819 -6.6744,-1.96946 z"
       style="fill:none;stroke:#ff0000;stroke-width:1.53999996;stroke-linecap:butt;stroke-linejoin:bevel;stroke-miterlimit:4;stroke-opacity:1;stroke-dasharray:none;stroke-dashoffset:0"
       id="path3818" />
    <path
       id="path3820"
       style="fill:none;stroke:#ff0000;stroke-width:1.53999996;stroke-linecap:butt;stroke-linejoin:bevel;stroke-miterlimit:4;stroke-opacity:1;stroke-dasharray:none;stroke-dashoffset:0"
       d="m 229.25471,511.10078 4.27086,0 2.68752,0 0,-0.87373 c 0,0 10.28938,0.003 14.96863,0.003 8.74553,0 11.69539,-5.69629 11.69539,-8.97978 0,-3.28348 -2.94987,-9.06157 -11.69539,-9.06157 -2.59995,0 -14.96863,0.005 -14.96863,0.005 l 0,-0.70846 -6.95838,-0.0853 z"
       inkscape:connector-curvature="0"
       sodipodi:nodetypes="ccccszscccc" />
    <path
       id="path3822"
       style="fill:none;stroke:#ff0000;stroke-width:1.53999996;stroke-linecap:butt;stroke-linejoin:bevel;stroke-miterlimit:4;stroke-opacity:1;stroke-dasharray:none;stroke-dashoffset:0"
       d="m 228.42788,560.26282 4.11076,-1.15841 2.58678,-0.72894 0.23698,0.84097 c 0,0 9.90285,-2.79372 14.40669,-4.06289 8.41769,-2.37209 12.80201,2.31056 13.69261,5.47096 0.89059,3.16039 -0.38148,9.52199 -8.79917,11.89408 -2.50249,0.70519 -14.40886,4.05519 -14.40886,4.05519 l 0.19216,0.6819 -6.6744,1.96946 z"
       inkscape:connector-curvature="0"
       sodipodi:nodetypes="ccccszscccc" />
    <path
       id="path3824"
       style="fill:none;stroke:#ff0000;stroke-width:1.53999996;stroke-linecap:butt;stroke-linejoin:bevel;stroke-miterlimit:4;stroke-opacity:1;stroke-dasharray:none;stroke-dashoffset:0"
       d="m 114.28064,685.71774 4.11076,1.15841 2.58678,0.72894 0.23698,-0.84097 c 0,0 9.90285,2.79372 14.40669,4.06289 8.41769,2.37209 12.80201,-2.31056 13.69261,-5.47096 0.89059,-3.16039 -0.38148,-9.52199 -8.79917,-11.89408 -2.50249,-0.70519 -14.40886,-4.05519 -14.40886,-4.05519 l 0.19216,-0.6819 -6.6744,-1.96946 z"
       inkscape:connector-curvature="0"
       sodipodi:nodetypes="ccccszscccc" />
    <path
       sodipodi:nodetypes="ccccszscccc"
       inkscape:connector-curvature="0"
       d="m 115.10747,757.578 4.27086,0 2.68752,0 0,-0.87373 c 0,0 10.28938,0.003 14.96863,0.003 8.74553,0 11.69539,-5.69629 11.69539,-8.97978 0,-3.28348 -2.94987,-9.06157 -11.69539,-9.06157 -2.59995,0 -14.96863,0.005 -14.96863,0.005 l 0,-0.70846 -6.95838,-0.0853 z"
       style="fill:none;stroke:#ff0000;stroke-width:1.53999996;stroke-linecap:butt;stroke-linejoin:bevel;stroke-miterlimit:4;stroke-opacity:1;stroke-dasharray:none;stroke-dashoffset:0"
       id="path3826" />
    <path
       sodipodi:nodetypes="ccccszscccc"
       inkscape:connector-curvature="0"
       d="m 114.28064,806.74004 4.11076,-1.15841 2.58678,-0.72894 0.23698,0.84097 c 0,0 9.90285,-2.79372 14.40669,-4.06289 8.41769,-2.37209 12.80201,2.31056 13.69261,5.47096 0.89059,3.16039 -0.38148,9.52199 -8.79917,11.89408 -2.50249,0.70519 -14.40886,4.05519 -14.40886,4.05519 l 0.19216,0.6819 -6.6744,1.96946 z"
       style="fill:none;stroke:#ff0000;stroke-width:1.53999996;stroke-linecap:butt;stroke-linejoin:bevel;stroke-miterlimit:4;stroke-opacity:1;stroke-dasharray:none;stroke-dashoffset:0"
       id="path3828" />
    <path
       sodipodi:nodetypes="ccccszscccc"
       inkscape:connector-curvature="0"
       d="m 973.82088,680.58575 -4.11076,1.15841 -2.58678,0.72894 -0.23698,-0.84097 c 0,0 -9.90285,2.79372 -14.40669,4.06289 -8.41769,2.37209 -12.80201,-2.31056 -13.69261,-5.47096 -0.89059,-3.16039 0.38148,-9.52199 8.79917,-11.89408 2.50249,-0.70519 14.40886,-4.05519 14.40886,-4.05519 l -0.19216,-0.6819 6.6744,-1.96946 z"
       style="fill:none;stroke:#ff0000;stroke-width:1.53999996;stroke-linecap:butt;stroke-linejoin:bevel;stroke-miterlimit:4;stroke-opacity:1;stroke-dasharray:none;stroke-dashoffset:0"
       id="path3830" />
    <path
       id="path3832"
       style="fill:none;stroke:#ff0000;stroke-width:1.53999996;stroke-linecap:butt;stroke-linejoin:bevel;stroke-miterlimit:4;stroke-opacity:1;stroke-dasharray:none;stroke-dashoffset:0"
       d="m 972.99405,752.44601 -4.27086,0 -2.68752,0 0,-0.87373 c 0,0 -10.28938,0.003 -14.96863,0.003 -8.74553,0 -11.69539,-5.69629 -11.69539,-8.97978 0,-3.28348 2.94987,-9.06157 11.69539,-9.06157 2.59995,0 14.96863,0.005 14.96863,0.005 l 0,-0.70846 6.95838,-0.0853 z"
       inkscape:connector-curvature="0"
       sodipodi:nodetypes="ccccszscccc" />
    <path
       id="path3834"
       style="fill:none;stroke:#ff0000;stroke-width:1.53999996;stroke-linecap:butt;stroke-linejoin:bevel;stroke-miterlimit:4;stroke-opacity:1;stroke-dasharray:none;stroke-dashoffset:0"
       d="m 973.82088,801.60805 -4.11076,-1.15841 -2.58678,-0.72894 -0.23698,0.84097 c 0,0 -9.90285,-2.79372 -14.40669,-4.06289 -8.41769,-2.37209 -12.80201,2.31056 -13.69261,5.47096 -0.89059,3.16039 0.38148,9.52199 8.79917,11.89408 2.50249,0.70519 14.40886,4.05519 14.40886,4.05519 l -0.19216,0.6819 6.6744,1.96946 z"
       inkscape:connector-curvature="0"
       sodipodi:nodetypes="ccccszscccc" />
  </g>
</svg>
