%
M48
M72
T01C0.0320
%
T01
X3600Y4850
X3600Y5850
X3600Y6850
X3600Y7850
X3600Y8850
X3600Y9850
X3600Y10850
X3600Y11850
X5350Y13650
X6350Y13650
X7350Y13650
X8350Y13650
X9350Y13650
X10350Y13650
X11350Y13650
X12350Y13650
X14400Y11850
X14400Y10850
X14400Y9850
X14400Y8850
X14400Y7850
X14400Y6850
X14400Y5850
X14400Y4850
X12500Y3500
X11500Y3500
X10500Y3500
X9500Y3500
X8500Y3500
X7500Y3500
X6500Y3500
X5500Y3500
M30
