%
M48
M72
T01C0.0320
T02C0.0500
T03C0.0670
%
T01
X18000Y5000
X19000Y5000
X20000Y5000
X21000Y5000
X22750Y5750
X23750Y5750
X23250Y4500
X23250Y3500
X25250Y3500
X25250Y4500
X28000Y5000
X29000Y5000
X30000Y5000
X31000Y5000
X31000Y8000
X30000Y8000
X29000Y8000
X28000Y8000
X28750Y10250
X30750Y10250
X25250Y10250
X23250Y10250
X21000Y8000
X20000Y8000
X19000Y8000
X18000Y8000
X22750Y7750
X23750Y7750
T02
X32000Y9000
X32000Y1000
X17000Y1500
T03
X13750Y2000
X15250Y2000
X18750Y2000
X20250Y2000
X22750Y2000
X24250Y2000
X27750Y2000
X29250Y2000
X12000Y4750
X12000Y6250
X14750Y13000
X16250Y13000
X19250Y13000
X20750Y13000
X24750Y12500
X26250Y12500
X29250Y12500
X30750Y12500
X33250Y12500
X34750Y12500
M30
