<?xml version="1.0" encoding="UTF-8" standalone="no"?>
<!-- Created with Inkscape (http://www.inkscape.org/) -->

<svg
   xmlns:dc="http://purl.org/dc/elements/1.1/"
   xmlns:cc="http://creativecommons.org/ns#"
   xmlns:rdf="http://www.w3.org/1999/02/22-rdf-syntax-ns#"
   xmlns:svg="http://www.w3.org/2000/svg"
   xmlns="http://www.w3.org/2000/svg"
   xmlns:sodipodi="http://sodipodi.sourceforge.net/DTD/sodipodi-0.dtd"
   xmlns:inkscape="http://www.inkscape.org/namespaces/inkscape"
   width="1530"
   height="1052.3622"
   id="svg2"
   version="1.1"
   inkscape:version="0.48.5 r10040"
   sodipodi:docname="New document 1">
  <defs
     id="defs4" />
  <sodipodi:namedview
     id="base"
     pagecolor="#ffffff"
     bordercolor="#666666"
     borderopacity="1.0"
     inkscape:pageopacity="0.0"
     inkscape:pageshadow="2"
     inkscape:zoom="0.49497475"
     inkscape:cx="770.15037"
     inkscape:cy="513.71098"
     inkscape:document-units="px"
     inkscape:current-layer="layer1"
     showgrid="false"
     units="in"
     inkscape:window-width="1280"
     inkscape:window-height="752"
     inkscape:window-x="0"
     inkscape:window-y="0"
     inkscape:window-maximized="1" />
  <metadata
     id="metadata7">
    <rdf:RDF>
      <cc:Work
         rdf:about="">
        <dc:format>image/svg+xml</dc:format>
        <dc:type
           rdf:resource="http://purl.org/dc/dcmitype/StillImage" />
        <dc:title></dc:title>
      </cc:Work>
    </rdf:RDF>
  </metadata>
  <g
     inkscape:label="Layer 1"
     inkscape:groupmode="layer"
     id="layer1"
     transform="translate(0,0.00243262)">
    <path
       style="fill:#000000;fill-opacity:0;stroke:#ff0000;stroke-width:1.0629921;stroke-linecap:round;stroke-linejoin:round;stroke-miterlimit:4;stroke-opacity:1;stroke-dasharray:none;stroke-dashoffset:9.54000942"
       d="m 109.28932,601.48647 0,121.96875 10.15625,0 0,22.6875 -10.15625,0 0,74.90625 0,1.65625 0,32.59375 10.15625,0 0,22.6875 -10.15625,0 0,122 221.21875,0 0,-54.375 -9.46875,0 0,-10.1875 9.46875,0 0,-49.8125 -9.46875,0 0,-10.1875 9.46875,0 0,-52.71875 0.0312,0 0,-1 -0.0312,-0.0312 0,-0.625 -0.625,0 -219.5625,-219.5625 -1.03125,0 z"
       id="rect2987"
       inkscape:connector-curvature="0" />
    <path
       inkscape:connector-curvature="0"
       style="fill:#000000;fill-opacity:0;stroke:#ff0000;stroke-width:1.06299198;stroke-linecap:round;stroke-linejoin:round;stroke-miterlimit:4;stroke-opacity:1;stroke-dasharray:none;stroke-dashoffset:9.54000942"
       d="m 189.31758,83.1939 0,54.375 -10.09375,0 0,10.1875 10.09375,0 0,49.8125 -10.09375,0 0,10.1875 10.09375,0 0,54.375 628.93752,0 0,-54.78125 10.1563,0 0,-10.1875 -10.1563,0 0,-49 10.1563,0 0,-10.1875 -10.1563,0 0,-54.78125 -628.93752,0 z"
       id="path3062" />
    <path
       id="path3064"
       d="m 1297.8214,559.06007 0,219.5625 0,1.65625 0,177.28125 -221.2187,0 0,-54.375 9.4687,0 0,-10.1875 -9.4687,0 0,-49.8125 9.4687,0 0,-10.1875 -9.4687,0 0,-52.71875 -0.031,0 0,-1 0.031,-0.0312 0,-0.625 0.625,0 219.5625,-219.5625 1.0312,0 z"
       style="fill:#000000;fill-opacity:0;stroke:#ff0000;stroke-width:1.0629921;stroke-linecap:round;stroke-linejoin:round;stroke-miterlimit:4;stroke-opacity:1;stroke-dasharray:none;stroke-dashoffset:9.54000942"
       inkscape:connector-curvature="0" />
    <path
       inkscape:connector-curvature="0"
       style="fill:#000000;fill-opacity:0;stroke:#ff0000;stroke-width:1.06299198;stroke-linecap:round;stroke-linejoin:round;stroke-miterlimit:4;stroke-opacity:1;stroke-dasharray:none;stroke-dashoffset:9.54000942"
       d="m 858.4888,35.070783 0,121.106257 -10.09375,0 0,22.69002 10.09375,0 0,110.94447 -10.09375,0 0,22.69002 10.09375,0 0,121.10625 628.9374,0 0,-122.01106 10.1563,0 0,-22.69003 -10.1563,0 0,-109.13482 10.1563,0 0,-22.69003 -10.1563,0 0,-122.011077 -628.9374,0 z"
       id="path3067" />
    <flowRoot
       xml:space="preserve"
       id="flowRoot3094"
       style="font-size:8px;font-style:normal;font-weight:bold;line-height:125%;letter-spacing:0px;word-spacing:0px;fill:#000000;fill-opacity:1;stroke:none;font-family:Sans;-inkscape-font-specification:Sans Bold"
       transform="translate(0,-0.00243262)"><flowRegion
         id="flowRegion3096"><rect
           id="rect3098"
           width="111.11678"
           height="60.609154"
           x="251.52798"
           y="355.35693" /></flowRegion><flowPara
         id="flowPara3100" /></flowRoot>    <text
       xml:space="preserve"
       style="font-size:40px;font-style:normal;font-weight:bold;line-height:125%;letter-spacing:0px;word-spacing:0px;fill:#000000;fill-opacity:1;stroke:none;font-family:Sans;-inkscape-font-specification:Sans Bold"
       x="281.83255"
       y="367.47876"
       id="text3102"
       sodipodi:linespacing="125%"
       transform="translate(0,-0.00243262)"><tspan
         sodipodi:role="line"
         id="tspan3104"
         x="281.83255"
         y="367.47876" /></text>
    <flowRoot
       xml:space="preserve"
       id="flowRoot3106"
       style="fill:black;stroke:none;stroke-opacity:1;stroke-width:1px;stroke-linejoin:miter;stroke-linecap:butt;fill-opacity:1;font-family:Sans;font-style:normal;font-weight:bold;font-size:24px;line-height:125%;letter-spacing:0px;word-spacing:0px;-inkscape-font-specification:Sans Bold"><flowRegion
         id="flowRegion3108"><rect
           id="rect3110"
           width="154.55334"
           height="49.497475"
           x="276.7818"
           y="329.09296"
           style="font-size:24px" /></flowRegion><flowPara
         id="flowPara3112"></flowPara></flowRoot>    <flowRoot
       xml:space="preserve"
       id="flowRoot3114"
       style="fill:black;stroke:none;stroke-opacity:1;stroke-width:1px;stroke-linejoin:miter;stroke-linecap:butt;fill-opacity:1;font-family:Sans;font-style:normal;font-weight:bold;font-size:8px;line-height:125%;letter-spacing:0px;word-spacing:0px;-inkscape-font-specification:Sans Bold"><flowRegion
         id="flowRegion3116"><rect
           id="rect3118"
           width="211.12189"
           height="82.832512"
           x="275.77164"
           y="315.96097" /></flowRegion><flowPara
         id="flowPara3120"></flowPara></flowRoot>    <text
       xml:space="preserve"
       style="font-size:8px;font-style:normal;font-weight:bold;line-height:125%;letter-spacing:0px;word-spacing:0px;fill:#000000;fill-opacity:1;stroke:none;font-family:Sans;-inkscape-font-specification:Sans Bold"
       x="223.24371"
       y="158.37718"
       id="text3122"
       sodipodi:linespacing="125%"
       transform="translate(0,-0.00243262)"><tspan
         sodipodi:role="line"
         id="tspan3124"></tspan></text>
    <g
       id="g3197">
      <g
         id="g3086">
        <rect
           style="fill:#000000;fill-opacity:0;stroke:#ff0000;stroke-width:1.0629921;stroke-linecap:round;stroke-linejoin:round;stroke-miterlimit:4;stroke-opacity:1;stroke-dasharray:none;stroke-dashoffset:9.54000942"
           id="rect3070"
           width="628.93701"
           height="313.93701"
           x="-816.16083"
           y="-601.83167"
           transform="scale(-1,-1)" />
        <g
           id="g3080"
           transform="translate(-22.989111,0)">
          <path
             transform="matrix(0.42733402,0,0,0.4766418,176.9974,249.48523)"
             d="m 353.5534,409.90515 c 0,14.50519 -13.11556,26.26397 -29.29443,26.26397 -16.17886,0 -29.29442,-11.75878 -29.29442,-26.26397 0,-14.50519 13.11556,-26.26396 29.29442,-26.26396 16.17887,0 29.29443,11.75877 29.29443,26.26396 z"
             sodipodi:ry="26.263966"
             sodipodi:rx="29.294424"
             sodipodi:cy="409.90515"
             sodipodi:cx="324.25897"
             id="path3072"
             style="fill:#000000;fill-opacity:0;stroke:#ff0000;stroke-width:2.35532188;stroke-linecap:round;stroke-linejoin:round;stroke-miterlimit:4;stroke-opacity:1;stroke-dasharray:none;stroke-dashoffset:9.54000942"
             sodipodi:type="arc" />
          <path
             sodipodi:type="arc"
             style="fill:#000000;fill-opacity:0;stroke:#ff0000;stroke-width:2.35532188;stroke-linecap:round;stroke-linejoin:round;stroke-miterlimit:4;stroke-opacity:1;stroke-dasharray:none;stroke-dashoffset:9.54000942"
             id="path3074"
             sodipodi:cx="324.25897"
             sodipodi:cy="409.90515"
             sodipodi:rx="29.294424"
             sodipodi:ry="26.263966"
             d="m 353.5534,409.90515 c 0,14.50519 -13.11556,26.26397 -29.29443,26.26397 -16.17886,0 -29.29442,-11.75878 -29.29442,-26.26397 0,-14.50519 13.11556,-26.26396 29.29442,-26.26396 16.17887,0 29.29443,11.75877 29.29443,26.26396 z"
             transform="matrix(0.42733402,0,0,0.4766418,317.15882,249.48523)" />
          <path
             transform="matrix(0.42733402,0,0,0.4766418,457.32025,249.48523)"
             d="m 353.5534,409.90515 c 0,14.50519 -13.11556,26.26397 -29.29443,26.26397 -16.17886,0 -29.29442,-11.75878 -29.29442,-26.26397 0,-14.50519 13.11556,-26.26396 29.29442,-26.26396 16.17887,0 29.29443,11.75877 29.29443,26.26396 z"
             sodipodi:ry="26.263966"
             sodipodi:rx="29.294424"
             sodipodi:cy="409.90515"
             sodipodi:cx="324.25897"
             id="path3076"
             style="fill:#000000;fill-opacity:0;stroke:#ff0000;stroke-width:2.35532188;stroke-linecap:round;stroke-linejoin:round;stroke-miterlimit:4;stroke-opacity:1;stroke-dasharray:none;stroke-dashoffset:9.54000942"
             sodipodi:type="arc" />
          <path
             sodipodi:type="arc"
             style="fill:#000000;fill-opacity:0;stroke:#ff0000;stroke-width:2.87141204;stroke-linecap:round;stroke-linejoin:round;stroke-miterlimit:4;stroke-opacity:1;stroke-dasharray:none;stroke-dashoffset:9.54000942"
             id="path3078"
             sodipodi:cx="324.25897"
             sodipodi:cy="409.90515"
             sodipodi:rx="29.294424"
             sodipodi:ry="26.263966"
             d="m 353.5534,409.90515 c 0,14.50519 -13.11556,26.26397 -29.29443,26.26397 -16.17886,0 -29.29442,-11.75878 -29.29442,-26.26397 0,-14.50519 13.11556,-26.26396 29.29442,-26.26396 16.17887,0 29.29443,11.75877 29.29443,26.26396 z"
             transform="matrix(0.35052756,0,0,0.3909731,622.38687,284.60127)" />
        </g>
      </g>
      <g
         id="g3176">
        <flowRoot
           xml:space="preserve"
           id="flowRoot3138"
           style="font-size:20px;font-style:normal;font-weight:bold;line-height:125%;letter-spacing:0px;word-spacing:0px;fill:#000000;fill-opacity:1;stroke:none;font-family:Sans;-inkscape-font-specification:Sans Bold"
           transform="translate(0,-1.2319248)"><flowRegion
             id="flowRegion3140"><rect
               id="rect3142"
               width="94.954338"
               height="47.477169"
               x="260.61935"
               y="355.35693"
               style="font-size:20px" /></flowRegion><flowPara
             id="flowPara3144">Motor</flowPara><flowPara
             id="flowPara3146">Torque</flowPara></flowRoot>        <flowRoot
           xml:space="preserve"
           id="flowRoot3148"
           style="font-size:20px;font-style:normal;font-weight:bold;line-height:125%;letter-spacing:0px;word-spacing:0px;fill:#000000;fill-opacity:1;stroke:none;font-family:Sans;-inkscape-font-specification:Sans Bold"
           transform="translate(-16.208008,1.0756924)"><flowRegion
             id="flowRegion3150"><rect
               id="rect3152"
               width="147.48227"
               height="63.63961"
               x="379.81735"
               y="353.33661"
               style="font-size:20px" /></flowRegion><flowPara
             id="flowPara3154">Gate Driver </flowPara><flowPara
             id="flowPara3156">Temperature</flowPara></flowRoot>        <flowRoot
           xml:space="preserve"
           id="flowRoot3158"
           style="font-size:20px;font-style:normal;font-weight:bold;line-height:125%;letter-spacing:0px;word-spacing:0px;fill:#000000;fill-opacity:1;stroke:none;font-family:Sans;-inkscape-font-specification:Sans Bold"
           transform="translate(-17.400391,-1.3100498)"><flowRegion
             id="flowRegion3160"><rect
               id="rect3162"
               width="91.923882"
               height="57.578693"
               x="554.57373"
               y="355.35693"
               style="font-size:20px" /></flowRegion><flowPara
             id="flowPara3164">Battery</flowPara><flowPara
             id="flowPara3166">Voltage</flowPara></flowRoot>        <flowRoot
           xml:space="preserve"
           id="flowRoot3168"
           style="font-size:20px;font-style:normal;font-weight:bold;line-height:125%;letter-spacing:0px;word-spacing:0px;fill:#000000;fill-opacity:1;stroke:none;font-family:Sans;-inkscape-font-specification:Sans Bold"
           transform="translate(0,4.2544033)"><flowRegion
             id="flowRegion3170"><rect
               id="rect3172"
               width="75.761444"
               height="50.507626"
               x="685.89355"
               y="364.4483"
               style="font-size:20px" /></flowRegion><flowPara
             id="flowPara3174">IMD</flowPara></flowRoot>      </g>
    </g>
  </g>
</svg>
