<?xml version="1.0" encoding="UTF-8" standalone="no"?>
<!-- Created with Inkscape (http://www.inkscape.org/) -->

<svg
   xmlns:dc="http://purl.org/dc/elements/1.1/"
   xmlns:cc="http://creativecommons.org/ns#"
   xmlns:rdf="http://www.w3.org/1999/02/22-rdf-syntax-ns#"
   xmlns:svg="http://www.w3.org/2000/svg"
   xmlns="http://www.w3.org/2000/svg"
   xmlns:sodipodi="http://sodipodi.sourceforge.net/DTD/sodipodi-0.dtd"
   xmlns:inkscape="http://www.inkscape.org/namespaces/inkscape"
   width="744.09448819"
   height="1052.3622047"
   id="svg2"
   version="1.1"
   inkscape:version="0.48.5 r10040"
   sodipodi:docname="case.svg">
  <defs
     id="defs4" />
  <sodipodi:namedview
     id="base"
     pagecolor="#ffffff"
     bordercolor="#666666"
     borderopacity="1.0"
     inkscape:pageopacity="0.0"
     inkscape:pageshadow="2"
     inkscape:zoom="0.49497475"
     inkscape:cx="279.47469"
     inkscape:cy="915.1602"
     inkscape:document-units="px"
     inkscape:current-layer="layer1"
     showgrid="false"
     inkscape:window-width="1440"
     inkscape:window-height="838"
     inkscape:window-x="-8"
     inkscape:window-y="-8"
     inkscape:window-maximized="1" />
  <metadata
     id="metadata7">
    <rdf:RDF>
      <cc:Work
         rdf:about="">
        <dc:format>image/svg+xml</dc:format>
        <dc:type
           rdf:resource="http://purl.org/dc/dcmitype/StillImage" />
        <dc:title />
      </cc:Work>
    </rdf:RDF>
  </metadata>
  <g
     inkscape:label="Layer 1"
     inkscape:groupmode="layer"
     id="layer1">
    <g
       id="g3045"
       transform="translate(14.132016,-39.901026)">
      <rect
         ry="12.121831"
         y="194.29507"
         x="-218.66548"
         height="85.748032"
         width="68.91732"
         id="rect3771-3"
         style="fill:#000000;fill-opacity:0;stroke:#ff0000;stroke-width:1.0629921;stroke-linecap:round;stroke-linejoin:round;stroke-miterlimit:4;stroke-opacity:1;stroke-dasharray:none;stroke-dashoffset:9.54000942" />
      <rect
         ry="0"
         y="111.38168"
         x="-247.01192"
         height="251.5748"
         width="211.18111"
         id="rect3018"
         style="color:#000000;fill:none;stroke:#ff0000;stroke-width:1.41732299;stroke-linecap:round;stroke-linejoin:round;stroke-miterlimit:4;stroke-opacity:1;stroke-dasharray:none;stroke-dashoffset:0;marker:none;visibility:visible;display:inline;overflow:visible;enable-background:accumulate" />
    </g>
    <rect
       ry="0"
       y="585.83313"
       x="165.66502"
       height="179.64566"
       width="370.98425"
       id="rect3779"
       style="fill:#000000;fill-opacity:0;stroke:#ff0000;stroke-width:1.06299198;stroke-linecap:round;stroke-linejoin:round;stroke-miterlimit:4;stroke-opacity:1;stroke-dasharray:none;stroke-dashoffset:9.54000942" />
    <rect
       style="color:#000000;fill:none;stroke:#ff0000;stroke-width:1.41732299;stroke-linecap:round;stroke-linejoin:round;stroke-miterlimit:4;stroke-opacity:1;stroke-dasharray:none;stroke-dashoffset:0;marker:none;visibility:visible;display:inline;overflow:visible;enable-background:accumulate"
       id="rect3018-3"
       width="211.18111"
       height="251.5748"
       x="-281.35709"
       y="402.3056"
       ry="0" />
    <g
       id="g3899">
      <path
         id="rect2985-4"
         d="m 135.29145,-308.29424 0,20.28125 -25.09375,0 0,211.562513 25.09375,0 0,20.65625 23.375,0 0,-20.65625 82.6875,0 0,20.65625 23.375,0 0,-20.65625 25.09375,0 0,-40.187503 -3.625,0 0,-0.3125 -13.875,0 0,-21.625 13.875,0 0,-0.0312 3.625,0 0,-87.46876 -3.625,0 0,-0.1875 -13.875,0 0,-21.625 13.875,0 0,-0.15625 3.625,0 0,-39.96875 -25.09375,0 0,-20.28125 -23.375,0 0,20.28125 -82.6875,0 0,-20.28125 -23.375,0 z"
         style="fill:none;stroke:#ff0000;stroke-width:1.0629921;stroke-linecap:round;stroke-linejoin:round;stroke-miterlimit:4;stroke-opacity:1;stroke-dasharray:none;stroke-dashoffset:9.54000942"
         inkscape:connector-curvature="0" />
      <rect
         ry="12.121831"
         y="-225.1068"
         x="139.08949"
         height="85.748032"
         width="68.91732"
         id="rect3771-1"
         style="fill:#000000;fill-opacity:0;stroke:#ff0000;stroke-width:1.0629921;stroke-linecap:round;stroke-linejoin:round;stroke-miterlimit:4;stroke-opacity:1;stroke-dasharray:none;stroke-dashoffset:9.54000942" />
    </g>
    <path
       inkscape:connector-curvature="0"
       style="fill:none;stroke:#ff0000;stroke-width:1.0629921;stroke-linecap:round;stroke-linejoin:round;stroke-miterlimit:4;stroke-opacity:1;stroke-dasharray:none;stroke-dashoffset:9.54000942"
       d="m -53.944636,-304.21562 0,20.28125 -25.09375,0 0,211.562512 25.09375,0 0,20.65625 23.375,0 0,-20.65625 82.68751,0 0,20.65625 23.375,0 0,-20.65625 25.093746,0 0,-40.187502 -3.624996,0 0,-0.3125 -13.875,0 0,-21.625 13.875,0 0,-0.0312 3.624996,0 0,-87.46876 -3.624996,0 0,-0.1875 -13.875,0 0,-21.625 13.875,0 0,-0.15625 3.624996,0 0,-39.96875 -25.093746,0 0,-20.28125 -23.375,0 0,20.28125 -82.68751,0 0,-20.28125 -23.375,0 z"
       id="rect2985" />
    <g
       id="g2996"
       transform="translate(102.62824,91.943312)">
      <path
         id="path2998"
         d="m 43.228345,37.240158 267.236205,0 0,177.661422 -267.236205,0 z"
         style="fill:none;stroke:#ff0000;stroke-width:1.3818897px;stroke-linecap:round;stroke-linejoin:round;stroke-opacity:1;stroke-dasharray:none"
         inkscape:connector-curvature="0" />
      <path
         id="path3000"
         d="m 0.70866139,0.70866144 352.27557861,0 0,250.72441856 -352.27557861,0 z"
         style="fill:none;stroke:#ff0000;stroke-width:1.3818897px;stroke-linecap:round;stroke-linejoin:round;stroke-opacity:1;stroke-dasharray:none"
         inkscape:connector-curvature="0" />
      <path
         id="path3002"
         d="m 25.05118,10.700788 c 0,2.692913 -2.19685,4.889764 -4.889763,4.889764 -2.692914,0 -4.889764,-2.196851 -4.889764,-4.889764 0,-2.7283468 2.19685,-4.9251973 4.889764,-4.9251973 2.692913,0 4.889763,2.1968505 4.889763,4.9251973 z"
         style="fill:none;stroke:#ff0000;stroke-width:1.41732275px;stroke-linecap:round;stroke-linejoin:round;stroke-opacity:1;stroke-dasharray:none"
         inkscape:connector-curvature="0" />
      <path
         id="path3004"
         d="m 338.45668,10.700788 c 0,2.692913 -2.19685,4.889764 -4.9252,4.889764 -2.69291,0 -4.88976,-2.196851 -4.88976,-4.889764 0,-2.7283468 2.19685,-4.9251973 4.88976,-4.9251973 2.72835,0 4.9252,2.1968505 4.9252,4.9251973 z"
         style="fill:none;stroke:#ff0000;stroke-width:1.41732275px;stroke-linecap:round;stroke-linejoin:round;stroke-opacity:1;stroke-dasharray:none"
         inkscape:connector-curvature="0" />
      <path
         id="path3006"
         d="m 25.05118,241.44095 c 0,2.69291 -2.19685,4.88977 -4.889763,4.88977 -2.692914,0 -4.889764,-2.19686 -4.889764,-4.88977 0,-2.69291 2.19685,-4.88976 4.889764,-4.88976 2.692913,0 4.889763,2.19685 4.889763,4.88976 z"
         style="fill:none;stroke:#ff0000;stroke-width:1.41732275px;stroke-linecap:round;stroke-linejoin:round;stroke-opacity:1;stroke-dasharray:none"
         inkscape:connector-curvature="0" />
      <path
         id="path3008"
         d="m 338.45668,241.44095 c 0,2.69291 -2.19685,4.88977 -4.9252,4.88977 -2.69291,0 -4.88976,-2.19686 -4.88976,-4.88977 0,-2.69291 2.19685,-4.88976 4.88976,-4.88976 2.72835,0 4.9252,2.19685 4.9252,4.88976 z"
         style="fill:none;stroke:#ff0000;stroke-width:1.41732275px;stroke-linecap:round;stroke-linejoin:round;stroke-opacity:1;stroke-dasharray:none"
         inkscape:connector-curvature="0" />
    </g>
    <path
       style="fill:#000000;fill-opacity:0;stroke:#ff0000;stroke-width:1.06299186;stroke-linecap:round;stroke-linejoin:round;stroke-miterlimit:4;stroke-opacity:1;stroke-dasharray:none;stroke-dashoffset:9.54000942"
       d="m -875.72675,45.452217 25.09375,0 0,-19.13142 23.37499,0 0,19.13142 82.68751,0 0,-19.13142 23.375,0 0,19.13142 25.09375,0 0.0312,0 0,-349.937007 -25.0625,0 0,19.42621 -23.375,0 0,-19.42621 -82.68751,0 0,19.42621 -23.37499,0 0,-19.42621 -25.15625,0 0,349.937007 z"
       id="rect3777-0-3"
       inkscape:connector-curvature="0" />
    <rect
       style="color:#000000;fill:none;stroke:#ff0000;stroke-width:1.41732299;stroke-linecap:round;stroke-linejoin:round;stroke-miterlimit:4;stroke-opacity:1;stroke-dasharray:none;stroke-dashoffset:0;marker:none;visibility:visible;display:inline;overflow:visible;enable-background:accumulate"
       id="rect3065"
       width="253.28268"
       height="352.28268"
       x="542.07965"
       y="-652.71655"
       transform="scale(-1,-1)"
       ry="47.407185" />
    <g
       transform="translate(390.60229,-701.17354)"
       id="g3102">
      <g
         transform="translate(-0.70865894,-0.38386485)"
         id="g3074">
        <path
           inkscape:connector-curvature="0"
           style="fill:none;stroke:#ff0000;stroke-width:1.41732275px;stroke-linecap:round;stroke-linejoin:round;stroke-opacity:1;stroke-dasharray:none"
           d="m 499.88976,396.96999 c 0,2.69291 -2.19685,4.88976 -4.88976,4.88976 -2.69292,0 -4.88977,-2.19685 -4.88977,-4.88976 0,-2.72835 2.19685,-4.9252 4.88977,-4.9252 2.69291,0 4.88976,2.19685 4.88976,4.9252 z"
           id="path3002-5" />
        <path
           id="path3072"
           d="m 499.88976,629.96999 c 0,2.69291 -2.19685,4.88976 -4.88976,4.88976 -2.69292,0 -4.88977,-2.19685 -4.88977,-4.88976 0,-2.72835 2.19685,-4.9252 4.88977,-4.9252 2.69291,0 4.88976,2.19685 4.88976,4.9252 z"
           style="fill:none;stroke:#ff0000;stroke-width:1.41732275px;stroke-linecap:round;stroke-linejoin:round;stroke-opacity:1;stroke-dasharray:none"
           inkscape:connector-curvature="0" />
      </g>
      <g
         id="g3094">
        <g
           id="g3090">
          <rect
             ry="47.043842"
             transform="matrix(0,-1,1,0,0,0)"
             y="319.5"
             x="-638.35974"
             height="349.58267"
             width="250.58267"
             id="rect3065-1"
             style="color:#000000;fill:none;stroke:#ff0000;stroke-width:1.41732299;stroke-linecap:round;stroke-linejoin:round;stroke-miterlimit:4;stroke-opacity:1;stroke-dasharray:none;stroke-dashoffset:0;marker:none;visibility:visible;display:inline;overflow:visible;enable-background:accumulate" />
          <rect
             rx="9.7666426"
             ry="10.204724"
             y="423.77707"
             x="360"
             height="178.58269"
             width="268.58267"
             id="rect3070"
             style="color:#000000;fill:none;stroke:#ff0000;stroke-width:1.41732287;stroke-linecap:round;stroke-linejoin:round;stroke-miterlimit:4;stroke-opacity:1;stroke-dasharray:none;stroke-dashoffset:0;marker:none;visibility:visible;display:inline;overflow:visible;enable-background:accumulate" />
        </g>
        <g
           id="g3086"
           transform="translate(0.29628106,-0.38385985)">
          <path
             inkscape:connector-curvature="0"
             style="fill:none;stroke:#ff0000;stroke-width:1.41732287px;stroke-linecap:round;stroke-linejoin:round;stroke-opacity:1;stroke-dasharray:none"
             d="m 659.47173,518.34203 c -2.69278,0 -4.88953,-2.19684 -4.88953,-4.88976 0,-2.69292 2.19675,-4.88977 4.88953,-4.88977 2.72822,0 4.92496,2.19685 4.92496,4.88977 0,2.69291 -2.19674,4.88976 -4.92496,4.88976 z"
             id="path3080" />
          <path
             id="path3082"
             d="m 328.48295,518.34203 c -2.69278,0 -4.88953,-2.19684 -4.88953,-4.88976 0,-2.69292 2.19675,-4.88977 4.88953,-4.88977 2.72822,0 4.92496,2.19685 4.92496,4.88977 0,2.69291 -2.19674,4.88976 -4.92496,4.88976 z"
             style="fill:none;stroke:#ff0000;stroke-width:1.41732287px;stroke-linecap:round;stroke-linejoin:round;stroke-opacity:1;stroke-dasharray:none"
             inkscape:connector-curvature="0" />
        </g>
      </g>
    </g>
  </g>
</svg>
