<?xml version="1.0" encoding="UTF-8" standalone="no"?>
<!-- Created with Inkscape (http://www.inkscape.org/) -->

<svg
   xmlns:dc="http://purl.org/dc/elements/1.1/"
   xmlns:cc="http://creativecommons.org/ns#"
   xmlns:rdf="http://www.w3.org/1999/02/22-rdf-syntax-ns#"
   xmlns:svg="http://www.w3.org/2000/svg"
   xmlns="http://www.w3.org/2000/svg"
   xmlns:sodipodi="http://sodipodi.sourceforge.net/DTD/sodipodi-0.dtd"
   xmlns:inkscape="http://www.inkscape.org/namespaces/inkscape"
   width="1620"
   height="630"
   id="svg2"
   version="1.1"
   inkscape:version="0.48.5 r10040"
   sodipodi:docname="Dash2_JR.svg">
  <defs
     id="defs4" />
  <sodipodi:namedview
     id="base"
     pagecolor="#ffffff"
     bordercolor="#666666"
     borderopacity="1.0"
     inkscape:pageopacity="0.0"
     inkscape:pageshadow="2"
     inkscape:zoom="0.2875"
     inkscape:cx="543.53216"
     inkscape:cy="209.92792"
     inkscape:document-units="in"
     inkscape:current-layer="g3067"
     showgrid="true"
     units="in"
     borderlayer="true"
     guidecolor="#ff0096"
     guideopacity="0.31372549"
     inkscape:window-width="1440"
     inkscape:window-height="838"
     inkscape:window-x="-8"
     inkscape:window-y="-8"
     inkscape:window-maximized="1"
     fit-margin-top="0"
     fit-margin-left="0"
     fit-margin-right="0"
     fit-margin-bottom="0">
    <inkscape:grid
       type="xygrid"
       id="grid2985"
       empspacing="4"
       visible="true"
       enabled="true"
       snapvisiblegridlinesonly="true"
       units="in"
       spacingx="0.25in"
       spacingy="0.25in"
       color="#f000ff"
       opacity="0.0627451"
       empcolor="#f000ff"
       empopacity="0.1254902"
       originx="0.016666667in"
       originy="-6.6119833in" />
    <sodipodi:guide
       position="-66,-77.578497"
       orientation="900,0"
       id="guide3763" />
    <sodipodi:guide
       position="91.5,-505.0785"
       orientation="0,1620"
       id="guide3765" />
    <sodipodi:guide
       position="1711.5,-505.0785"
       orientation="-900,0"
       id="guide3767" />
    <sodipodi:guide
       position="1.5,484.9215"
       orientation="0,-1620"
       id="guide3769" />
  </sodipodi:namedview>
  <metadata
     id="metadata7">
    <rdf:RDF>
      <cc:Work
         rdf:about="">
        <dc:format>image/svg+xml</dc:format>
        <dc:type
           rdf:resource="http://purl.org/dc/dcmitype/StillImage" />
        <dc:title />
      </cc:Work>
    </rdf:RDF>
  </metadata>
  <g
     inkscape:label="Layer 1"
     inkscape:groupmode="layer"
     id="layer1"
     transform="translate(1.5,172.71875)">
    <g
       id="g3067">
      <g
         id="g3104"
         transform="translate(-52.779664,-88.979562)">
        <g
           id="g3096">
          <path
             transform="matrix(0.9322193,0.58251525,-0.54483331,0.87191555,1257.9878,-84.361753)"
             d="m 379.95653,518.67389 c 0,26.47365 -20.58517,47.93478 -45.97826,47.93478 -25.39309,0 -45.97826,-21.46113 -45.97826,-47.93478 0,-26.47365 20.58517,-47.93478 45.97826,-47.93478 25.39309,0 45.97826,21.46113 45.97826,47.93478 z"
             sodipodi:ry="47.934784"
             sodipodi:rx="45.97826"
             sodipodi:cy="518.67389"
             sodipodi:cx="333.97827"
             id="path3867-2"
             style="fill:none;stroke:#ff0000;stroke-width:0.93990111;stroke-linecap:round;stroke-linejoin:round;stroke-miterlimit:4;stroke-opacity:1;stroke-dasharray:none;stroke-dashoffset:0;display:inline"
             sodipodi:type="arc" />
          <g
             id="g3090"
             transform="translate(89.600327,309.66307)">
            <path
               style="fill:none;stroke:#ff0000;stroke-width:1px;stroke-linecap:butt;stroke-linejoin:miter;stroke-opacity:1;display:inline"
               d="m 771.84755,-259.31517 -44.02514,-22.42477 -0.44058,-0.23842 c -6.04639,-3.4468 -12.07172,-6.86005 -18.07725,-10.2273 -1.1342,-0.63594 -2.27938,-1.27791 -3.41204,-1.91098 l -8.87134,-5.02754 -1.24885,-0.59613 C 473.53445,-422.77714 282.51377,-489.70724 210.04883,-469.08565 l -29.95699,47.94123 c 0.0974,0.54615 0.22314,1.09274 0.33473,1.64627 l -4.81897,7.71193 -7.5018,10.53113 -9.77132,5.90709 -9.68524,5.00278 -17.84067,4.54972 -23.469,0.11153 -23.12836,-5.68207 -16.32455,-6.07358 -11.86265,-6.49137 -11.13062,-6.95519 -8.423608,0.74279 -7.127905,6.15859 -3.762215,8.26171 -2.603296,3.45849 -9.055066,13.72452 -6.047494,11.91892 0.977675,5.21708 2.85571,3.62691 3.352094,-1.59031 C 185.01938,-252.24181 273.0815,-195.37363 273.0815,-195.37363 l 58.42936,38.35318 27.4491,18.99457 7.61269,6.15722 c 0.30158,0.18694 0.59988,0.37484 0.90105,0.56303 36.75452,22.96677 66.62173,52.688572 88.92208,86.44441 l 4.65127,5.70699 15.03131,26.89604 1.61703,5.72714 c 6.88772,14.97376 12.45837,30.44815 16.643,46.2541 l 1.03705,2.52732 0.11611,1.87818 c 6.37533,25.7423 9.07979,52.2943 7.98721,78.80016 l 2.50908,16.27073 137.3573,85.83036 3.17672,0.40053 c 5.42052,-3.01779 10.94436,-5.85034 16.54509,-8.49149 l 0.5366,-0.32798 0.30143,-0.0696 c 84.26354,-39.39239 187.52505,-36.004 273.8819,17.95778 7.83073,4.89317 15.35422,10.08532 22.55302,15.56661 l 154.8408,88.86954 30.6619,14.73779 46.9339,26.08479 33.7168,22.4688 9.3316,5.94167 12.2867,7.05117 c 5.8197,3.33937 11.2313,7.07593 16.2225,11.13178 l 49.9323,33.96492 11.3557,4.29526 3.077,-2.68345 27.172,-39.76902 -0.8818,-6.07839 -11.9692,-13.04343 -27.7046,-22.36006 -8.3714,-9.83729 -6.3146,-8.58874 -6.8447,-13.04724 -6.8388,-19.01308 -1.8564,-15.01538 2.0525,-13.01495 5.1833,-8.29496 5.1698,-11.39873 c 1.1904,-0.24046 2.3501,-0.52559 3.488,-0.8053 l 32.0931,-51.35992 C 1313.9136,141.56435 1116.8254,-39.5662 848.50337,-209.20435 l -9.38497,-7.15411 -16.62974,-10.8336 -50.64111,-32.12311 z m 340.79365,398.451 c 4.3068,2.69122 5.7248,8.23497 3.1481,12.35863 -2.5767,4.12365 -8.1645,5.25293 -12.4714,2.56171 -4.3069,-2.69127 -5.7148,-8.19193 -3.138,-12.31556 2.5767,-4.12364 8.1544,-5.29605 12.4613,-2.60478 z m -17.7156,30.2381 c 4.3068,2.69123 5.7147,8.19192 3.1379,12.31553 -2.5767,4.12365 -8.1544,5.29605 -12.4613,2.60481 -4.3068,-2.69125 -5.7248,-8.23501 -3.1481,-12.35864 2.5767,-4.12366 8.1644,-5.25297 12.4715,-2.5617 z m -18.8619,30.18521 c 4.3069,2.69124 5.6983,8.21841 3.1215,12.34204 -2.5767,4.12365 -8.1379,5.26956 -12.4448,2.57829 -4.3068,-2.69122 -5.7413,-8.20849 -3.1646,-12.33213 2.5768,-4.12363 8.181,-5.27944 12.4879,-2.5882 z m -19.2923,30.87425 c 4.3067,2.69123 5.7148,8.19192 3.1381,12.31556 -2.5767,4.12365 -8.1545,5.29603 -12.4615,2.60478 -4.3069,-2.69126 -5.7247,-8.235 -3.1479,-12.35862 2.5767,-4.12366 8.1643,-5.25299 12.4713,-2.56172 z"
               id="path3072"
               inkscape:connector-curvature="0" />
            <path
               sodipodi:type="arc"
               style="fill:none;stroke:#ff0000;stroke-width:0.9311046;stroke-linecap:round;stroke-linejoin:round;stroke-miterlimit:4;stroke-opacity:1;stroke-dasharray:none;stroke-dashoffset:0;display:inline"
               id="path3867"
               sodipodi:cx="333.97827"
               sodipodi:cy="518.67389"
               sodipodi:rx="45.97826"
               sodipodi:ry="47.934784"
               d="m 379.95653,518.67389 c 0,26.47365 -20.58517,47.93478 -45.97826,47.93478 -25.39309,0 -45.97826,-21.46113 -45.97826,-47.93478 0,-26.47365 20.58517,-47.93478 45.97826,-47.93478 25.39309,0 45.97826,21.46113 45.97826,47.93478 z"
               transform="matrix(0.93104854,0.58178368,-0.55587451,0.88958516,198.62156,-995.36895)" />
            <text
               xml:space="preserve"
               style="font-size:40px;font-style:normal;font-weight:normal;line-height:123.00000191%;letter-spacing:0px;word-spacing:0px;fill:#000000;fill-opacity:1;stroke:none;display:inline;font-family:Sans"
               x="-59.706898"
               y="-470.36194"
               id="text3942"
               sodipodi:linespacing="123%"
               transform="matrix(0.84804809,0.52991927,-0.52991927,0.84804809,0,0)"><tspan
                 sodipodi:role="line"
                 id="tspan3944"
                 x="-59.706898"
                 y="-470.36194"
                 style="font-size:24px;font-weight:bold;line-height:123.00000191%;fill:#000000;-inkscape-font-specification:Sans Bold">SHUTDOWN</tspan></text>
          </g>
        </g>
        <text
           xml:space="preserve"
           style="font-size:22px;font-style:normal;font-weight:normal;line-height:125%;letter-spacing:0px;word-spacing:0px;fill:#000000;fill-opacity:1;stroke:none;display:inline;font-family:Sans"
           x="1323.9438"
           y="-282.40753"
           id="text3946"
           sodipodi:linespacing="125%"
           transform="matrix(0.84804809,0.52991927,-0.52991927,0.84804809,0,0)"><tspan
             sodipodi:role="line"
             id="tspan3948"
             x="1323.9438"
             y="-282.40753"
             style="font-size:22px;font-weight:bold;-inkscape-font-specification:Sans Bold">FW ENABLE</tspan></text>
        <text
           xml:space="preserve"
           style="font-size:13px;font-style:normal;font-weight:normal;line-height:125%;letter-spacing:0px;word-spacing:0px;fill:#000000;fill-opacity:1;stroke:none;display:inline;font-family:Sans"
           x="1175.8759"
           y="-237.66446"
           id="text3950"
           sodipodi:linespacing="125%"
           transform="matrix(0.84804809,0.52991927,-0.52991927,0.84804809,0,0)"><tspan
             sodipodi:role="line"
             id="tspan3952"
             x="1175.8759"
             y="-237.66446"
             style="font-size:18px;font-weight:bold;-inkscape-font-specification:Sans Bold">PWR</tspan></text>
        <text
           xml:space="preserve"
           style="font-size:13px;font-style:normal;font-weight:normal;line-height:125%;letter-spacing:0px;word-spacing:0px;fill:#000000;fill-opacity:1;stroke:none;display:inline;font-family:Sans"
           x="1177.4412"
           y="-203.62097"
           id="text3954"
           sodipodi:linespacing="125%"
           transform="matrix(0.84804809,0.52991927,-0.52991927,0.84804809,0,0)"><tspan
             sodipodi:role="line"
             id="tspan3956"
             x="1177.4412"
             y="-203.62097"
             style="font-size:18px;font-weight:bold;-inkscape-font-specification:Sans Bold">RMS</tspan></text>
        <text
           xml:space="preserve"
           style="font-size:13px;font-style:normal;font-weight:normal;line-height:125%;letter-spacing:0px;word-spacing:0px;fill:#000000;fill-opacity:1;stroke:none;display:inline;font-family:Sans"
           x="1179.0063"
           y="-166.83823"
           id="text3958"
           sodipodi:linespacing="125%"
           transform="matrix(0.84804809,0.52991927,-0.52991927,0.84804809,0,0)"><tspan
             sodipodi:role="line"
             id="tspan3960"
             x="1179.0063"
             y="-166.83823"
             style="font-size:18px;font-weight:bold;-inkscape-font-specification:Sans Bold">AMS</tspan></text>
        <text
           xml:space="preserve"
           style="font-size:13px;font-style:normal;font-weight:normal;line-height:125%;letter-spacing:0px;word-spacing:0px;fill:#000000;fill-opacity:1;stroke:none;display:inline;font-family:Sans"
           x="1182.5282"
           y="-130.05502"
           id="text3962"
           sodipodi:linespacing="125%"
           transform="matrix(0.84804809,0.52991927,-0.52991927,0.84804809,0,0)"><tspan
             sodipodi:role="line"
             id="tspan3964"
             x="1182.5282"
             y="-130.05502"
             style="font-size:18px;font-weight:bold;-inkscape-font-specification:Sans Bold">IMD</tspan></text>
        <text
           xml:space="preserve"
           style="font-size:13px;font-style:normal;font-weight:normal;line-height:125%;letter-spacing:0px;word-spacing:0px;fill:#000000;fill-opacity:1;stroke:none;display:inline;font-family:Sans"
           x="1279.5957"
           y="-268.23364"
           id="text3966"
           sodipodi:linespacing="125%"
           transform="matrix(0.84804809,0.52991927,-0.52991927,0.84804809,0,0)"><tspan
             sodipodi:role="line"
             id="tspan3968"
             x="1279.5957"
             y="-268.23364"
             style="font-size:18px;font-weight:bold;-inkscape-font-specification:Sans Bold">ON</tspan></text>
        <text
           xml:space="preserve"
           style="font-size:13px;font-style:normal;font-weight:normal;line-height:125%;letter-spacing:0px;word-spacing:0px;fill:#000000;fill-opacity:1;stroke:none;display:inline;font-family:Sans"
           x="1281.161"
           y="-143.4071"
           id="text3970"
           sodipodi:linespacing="125%"
           transform="matrix(0.84804809,0.52991927,-0.52991927,0.84804809,0,0)"><tspan
             sodipodi:role="line"
             id="tspan3972"
             x="1281.161"
             y="-143.4071"
             style="font-size:18px;font-weight:bold;-inkscape-font-specification:Sans Bold">OFF</tspan></text>
      </g>
      <rect
         ry="47.043842"
         transform="matrix(0.52991927,-0.84804809,0.84804809,0.52991927,0,0)"
         y="570.72333"
         x="139.87901"
         height="349.58267"
         width="255.53267"
         id="rect3065-1"
         style="color:#000000;fill:none;stroke:#ff0000;stroke-width:1.41732299;stroke-linecap:round;stroke-linejoin:round;stroke-miterlimit:4;stroke-opacity:1;stroke-dasharray:none;stroke-dashoffset:0;marker:none;visibility:visible;display:inline;overflow:visible;enable-background:accumulate" />
      <path
         inkscape:connector-curvature="0"
         id="path3019"
         d="m 562.25688,329.1686 c -0.26106,-0.95606 3.43163,-6.32624 4.32562,-6.29064 0.49818,0.0198 1.08259,1.09597 1.39819,2.5746 0.29827,1.39727 0.72758,2.65913 0.95403,2.80408 0.22641,0.14503 1.49498,-0.0539 2.81893,-0.4419 3.67582,-1.07726 4.37382,0.33699 1.8955,3.84065 -1.99738,2.82373 -3.98178,3.45706 -3.2821,1.04747 0.42589,-1.46659 -0.0403,-1.87999 -1.61026,-1.42801 -0.62983,0.18129 -1.48913,0.11469 -1.90958,-0.148 -0.42044,-0.26271 -0.69358,-0.90375 -0.607,-1.42451 0.22814,-1.37219 -1.24697,-2.06292 -1.96197,-0.91869 -0.65361,1.04598 -1.78218,1.26094 -2.02136,0.38498 z m 15.01286,8.59026 c -0.41196,-1.87132 1.50982,-5.00613 3.27399,-5.34027 1.55414,-0.29442 6.35191,2.46417 7.48937,4.30621 0.56648,0.91739 0.3873,1.71542 -0.81841,3.64497 -1.84001,2.94465 -2.95694,3.03 -6.95528,0.53157 -1.89216,-1.18236 -2.75864,-2.09315 -2.98963,-3.14244 z m 6.33935,2.42382 c 1.71206,0.17076 2.80227,-1.4476 1.91933,-2.84911 -0.36455,-0.57863 -1.52588,-1.43654 -2.58073,-1.90645 -1.64027,-0.73069 -2.0455,-0.65028 -2.79888,0.55538 -1.11823,1.78956 0.63565,3.91846 3.46028,4.20018 z m 10.11612,8.64953 c -0.0807,-0.29552 0.40568,-1.42134 1.08088,-2.50185 1.07726,-1.72397 1.07123,-2.1592 -0.0493,-3.55392 -2.04556,-2.54606 -0.56498,-2.57618 3.44554,-0.0702 4.0105,2.50606 4.63246,3.85 1.44736,3.12756 -1.75722,-0.39859 -2.13487,-0.21639 -3.24958,1.56753 -1.21291,1.94105 -2.36697,2.55838 -2.67486,1.43083 z m 10.19981,5.30835 c -0.0817,-0.90285 0.21139,-2.21773 0.65144,-2.92194 0.44005,-0.70423 1.49335,-1.54412 2.34067,-1.86643 1.2879,-0.48989 2.05162,-0.26668 4.65662,1.36114 1.71384,1.07093 3.23995,2.40084 3.39137,2.95533 0.15141,0.55451 -0.37288,2.04557 -1.16518,3.31345 -0.79226,1.26785 -1.90255,2.39276 -2.46733,2.49976 -0.56475,0.10699 -2.42905,-0.68168 -4.1429,-1.75261 -2.60501,-1.62777 -3.14044,-2.21636 -3.26469,-3.58868 z m 6.26939,2.65445 c 1.71207,0.17077 2.80227,-1.44758 1.91932,-2.84911 -0.36455,-0.57862 -1.52588,-1.43652 -2.58074,-1.90645 -1.64025,-0.73069 -2.04549,-0.65025 -2.79887,0.5554 -1.11825,1.78956 0.63565,3.91845 3.46029,4.20016 z m 6.93117,6.3053 c 0.0889,-0.53337 0.9944,-2.13647 2.0127,-3.56236 l 1.85141,-2.5925 3.80432,2.16974 c 2.32592,1.32655 3.95922,2.58342 4.20291,3.23419 0.52338,1.39778 -0.69931,3.29456 -2.21739,3.44005 -0.66201,0.0634 -1.5387,0.65149 -1.94819,1.30681 -1.00832,1.61365 -1.81846,0.94635 -2.53755,-2.09022 -0.66318,-2.80028 -0.10435,-3.47841 1.85668,-2.25302 0.7108,0.44414 1.6013,0.66861 1.97889,0.49882 0.45643,-0.20525 -0.22692,-0.80739 -2.039,-1.79671 l -2.72552,-1.48799 -1.42447,1.89714 c -1.58513,2.11108 -3.0685,2.76251 -2.81471,1.23609 z m 14.66249,8.78563 c 0.41571,-0.43383 1.5084,-0.46249 2.54891,-0.0669 1.69671,0.64517 1.72917,0.62936 0.4748,-0.23129 -1.66851,-1.14472 -2.10796,-2.6027 -1.21517,-4.03147 1.07519,-1.72067 2.66466,-1.50972 5.98171,0.79386 3.13236,2.17532 3.81885,3.84048 1.29117,3.13182 -1.36636,-0.38312 -1.39514,-0.35188 -0.71333,0.77327 1.37114,2.26269 0.91957,3.79611 -1.2383,4.20493 -0.9237,0.17499 -2.36411,-0.38233 -4.60104,-1.78006 -2.80379,-1.752 -3.15524,-2.14037 -2.52875,-2.7942 z m 27.2819,17.16669 c -0.20312,-0.74385 0.16685,-2.16415 0.84736,-3.25322 1.67975,-2.68818 3.26974,-2.83452 6.80376,-0.62622 3.53398,2.20828 4.09946,3.70151 2.4197,6.38969 -1.67976,2.68817 -3.26977,2.83452 -6.80375,0.62624 -1.91892,-1.19907 -3.02907,-2.26486 -3.26707,-3.13649 z m 7.62708,2.02844 c 1.9739,-1.40481 0.37703,-4.19474 -2.81032,-4.91012 -1.6014,-0.35944 -3.06519,0.74265 -2.7107,2.04087 0.31344,1.1479 4.72113,3.43854 5.52102,2.86925 z m 10.72956,8.59376 c -0.75702,-3.02553 -0.22426,-3.77136 1.79337,-2.5106 0.89522,0.5594 1.76858,0.79157 1.9408,0.51598 0.17221,-0.27562 -0.7715,-1.1789 -2.09716,-2.00726 l -2.41031,-1.50615 -1.49773,2.0256 c -1.04818,1.41765 -1.74194,1.87297 -2.31152,1.51705 -0.89803,-0.56114 0.49633,-3.90869 2.33864,-5.61459 0.9792,-0.90668 1.32101,-0.80877 4.82885,1.38316 3.42804,2.14207 3.78481,2.52515 3.88094,4.16712 0.0989,1.68827 -0.017,1.85848 -1.74693,2.56665 -1.01903,0.41719 -2.06114,1.07165 -2.31579,1.45441 -0.81484,1.22476 -1.80347,0.40554 -2.40318,-1.99135 z m 11.79295,8.84177 c -0.083,-0.30409 0.44586,-1.508 1.17537,-2.67542 1.19934,-1.91936 1.19874,-2.27382 -0.006,-3.70229 -2.09235,-2.48016 -0.35647,-2.39936 3.76368,0.17519 2.96421,1.85224 3.66715,2.51118 3.30212,3.09533 -0.25506,0.40819 -1.16254,0.50224 -2.01664,0.20904 -1.31279,-0.45071 -1.73535,-0.24107 -2.73316,1.35574 -1.1286,1.80612 -3.16672,2.70812 -3.48501,1.54241 z m 10.32451,6.22526 c -0.0398,-1.27765 1.23662,-1.31623 3.31336,-0.10018 l 2.03853,1.19375 -1.70052,-1.54513 c -2.3112,-2.09998 -2.67139,-2.9277 -1.84764,-4.24597 1.12791,-1.80502 2.5102,-1.66536 6.17356,0.62373 2.70775,1.69201 3.31844,2.29538 2.93857,2.9033 -0.26375,0.42209 -0.94032,0.66542 -1.5035,0.54075 -0.86205,-0.19089 -0.91944,-0.004 -0.36295,1.18448 0.73214,1.56302 -0.18224,3.55316 -1.77079,3.85411 -1.2386,0.23465 -7.24731,-3.40497 -7.27863,-4.40883 z m -55.04165,-34.85841 c -0.19121,-0.70023 2.22444,-4.61827 3.33442,-5.40825 0.63961,-0.45522 1.64889,-0.0719 4.49807,1.70851 4.11683,2.57248 4.72083,3.74458 3.0133,5.84745 -0.99543,1.22594 -1.24247,1.20238 -4.38075,-0.4177 -2.34293,-1.20951 -3.64148,-1.55758 -4.3938,-1.17773 -1.12328,0.56713 -1.81605,0.38242 -2.07127,-0.5522 z m 8.98795,0.50632 c 0.17221,-0.27563 -0.66345,-1.11138 -1.85708,-1.85725 -1.19362,-0.74585 -2.31115,-1.13059 -2.48338,-0.85494 -0.17222,0.27563 0.66345,1.1114 1.85708,1.85726 1.19363,0.74586 2.31113,1.1306 2.48338,0.85491 z m -83.70869,-66.10571 c -0.2489,-0.47627 1.27406,-4.51372 3.77227,-10.00057 2.30432,-5.06102 4.36121,-10.10588 4.57084,-11.21079 0.20964,-1.10492 0.55748,-2.04234 0.77296,-2.08317 0.84482,-0.16005 11.66478,6.59924 11.89142,7.42822 0.12948,0.47425 -1.55563,4.40334 -3.7447,8.73133 -2.18908,4.32799 -3.78184,8.09503 -3.5395,8.37118 0.24235,0.2762 4.97885,-1.59932 10.5256,-4.16779 l 10.08487,-4.66983 2.74482,1.49905 c 2.38111,1.30044 2.62838,1.5819 1.86585,2.12464 -1.49108,1.06118 -24.24709,11.5204 -25.63828,11.78395 -1.01545,0.19239 -2.61508,-0.5691 -7.09973,-3.37967 -3.18389,-1.99542 -5.97677,-3.98744 -6.20632,-4.42675 z m 25.66462,16.13172 c -0.28396,-1.03991 0.96547,-2.36657 8.70371,-9.24178 5.91401,-5.25444 7.74828,-7.18668 7.85801,-8.27778 0.19298,-1.91895 1.04904,-1.67126 6.93275,2.0053 3.16686,1.97888 4.82295,3.30673 4.92307,3.9473 0.19276,1.23353 -17.48972,17.32805 -18.98941,17.28405 -1.20288,-0.0353 -9.20098,-4.88521 -9.42813,-5.71709 z m 15.69299,9.3996 c -0.10065,-0.66284 2.43163,-3.2549 8.13699,-8.3291 6.19979,-5.51389 8.32385,-7.71816 8.44506,-8.76389 0.0891,-0.7684 0.39284,-1.44088 0.67517,-1.49434 0.28227,-0.0535 2.92169,1.40775 5.86538,3.24718 6.40531,4.00248 6.41659,4.05774 1.71025,8.43299 -1.81888,1.69091 -3.22472,3.36942 -3.12407,3.73007 0.10064,0.36062 3.82618,-0.12506 8.27901,-1.07928 l 8.09603,-1.73497 4.14768,2.59176 c 5.58355,3.48898 5.37599,4.08729 -2.05615,5.92695 -6.19171,1.53264 -7.28365,2.17315 -5.55073,3.25599 0.57918,0.36192 1.06149,0.9274 1.07175,1.25662 0.0232,0.7423 -8.65567,8.66136 -9.92997,9.06065 -0.61082,0.19141 -2.48891,-0.68418 -5.4907,-2.55995 -3.62892,-2.26761 -4.52891,-3.05191 -4.39895,-3.83359 0.0902,-0.54044 1.74663,-2.31986 3.68172,-3.95411 1.93508,-1.63425 3.50813,-3.2988 3.49564,-3.69899 -0.032,-1.0262 -3.43133,-3.03328 -4.57715,-2.70254 -0.52441,0.15139 -2.56096,1.74853 -4.52568,3.54921 -1.96473,1.8007 -4.01019,3.26145 -4.54551,3.24611 -1.5829,-0.0453 -9.23903,-5.04871 -9.40577,-6.14677 z m 33.23409,20.58299 c 0.18516,-1.11349 17.19268,-16.52326 18.72259,-16.96368 1.16883,-0.33648 8.98033,4.28168 9.76034,5.77032 0.3714,0.70879 -1.30501,2.47412 -8.61081,9.06756 -4.98961,4.50308 -9.48474,8.32148 -9.98918,8.48533 -1.42689,0.46347 -10.09045,-5.11141 -9.88294,-6.35953 z m 15.73934,9.8006 c 0.0906,-0.54276 3.77236,-4.27814 8.18244,-8.3007 4.41009,-4.02257 8.3244,-7.90644 8.69844,-8.63082 0.6792,-1.31531 0.68751,-1.31271 6.22965,1.95353 6.29021,3.70708 6.44385,3.95108 5.627,8.93937 -1.16472,7.11282 -1.70635,12.17323 -1.32812,12.40956 0.22681,0.14171 2.98821,-2.06813 6.13641,-4.91079 3.92548,-3.54452 6.11995,-5.12901 6.98412,-5.04283 1.86239,0.18573 4.09956,1.75853 3.93233,2.76451 -0.17174,1.03248 -17.38662,16.65323 -18.80179,17.0606 -1.09057,0.31396 -9.48127,-4.686 -10.21412,-6.08653 -0.24127,-0.46105 0.023,-4.26514 0.58722,-8.45352 0.56423,-4.1884 0.93025,-7.96549 0.81334,-8.39357 -0.21777,-0.79754 -2.39828,0.89956 -8.32973,6.48307 -1.7129,1.61241 -3.53462,3.06099 -4.04828,3.21907 -1.36386,0.41976 -4.66907,-1.80714 -4.46893,-3.01095 z m 32.93249,20.81076 c -1.4706,-2.17994 -0.4212,-3.91242 5.88984,-9.72383 7.73134,-7.11929 8.99915,-7.86349 12.44173,-7.30336 2.32869,0.37893 4.19454,1.32852 11.26228,5.73222 9.38814,5.84949 11.43998,7.74534 10.77303,9.95462 -0.47681,1.58005 -2.8091,4.38622 -4.87668,5.86784 -1.29739,0.92976 -1.45215,0.87555 -6.49678,-2.27669 -5.85025,-3.65564 -5.86124,-3.69577 -1.84873,-6.72972 3.2878,-2.48601 3.32787,-2.79822 0.57951,-4.51558 l -2.42635,-1.51615 -2.44032,2.13338 c -10.78326,9.42695 -12.555,11.15799 -12.38913,12.10445 0.22242,1.26908 2.17812,2.4979 3.81641,2.39785 1.78962,-0.10923 5.12146,-3.23727 5.17557,-4.85897 0.0235,-0.70305 0.28581,-1.32432 0.58302,-1.38062 0.29719,-0.0563 3.0429,1.46138 6.10157,3.37266 3.96336,2.47658 5.51548,3.69671 5.40212,4.24661 -0.19351,0.93853 -6.64879,6.82235 -7.93716,7.23455 -1.20576,0.38578 -22.28306,-12.77245 -23.60991,-14.73929 z m -41.4924,-64.86601 c -3.20096,-3.07735 -4.21643,-4.76308 -4.11669,-6.83396 0.14853,-3.08432 2.48925,-9.23065 5.1391,-13.49444 l 2.40231,-3.86543 -2.32793,-4.5411 c -3.39233,-6.61748 -3.42936,-8.58041 -0.2575,-13.65643 1.59984,-2.56026 2.96045,-4.18372 3.60937,-4.30666 0.81832,-0.15503 0.98095,0.0512 0.75874,0.96186 -1.29457,5.30532 -0.24223,9.23805 3.40545,12.72682 2.35089,2.24846 3.95551,2.645 8.43923,2.08553 3.89938,-0.48653 11.53916,0.78704 14.01992,2.33719 2.63462,1.64629 6.83872,7.61689 8.37321,11.8915 1.18983,3.3145 1.81026,4.22724 3.65872,5.38227 4.42435,2.76464 10.46725,2.49843 13.47604,-0.59368 1.60794,-1.65246 2.53639,-1.68829 2.45898,-0.0949 -0.11235,2.31216 -1.68215,5.41755 -3.61734,7.1558 -2.73098,2.45303 -5.85567,3.3444 -10.99629,3.13686 -4.91924,-0.19861 -4.94087,-0.18488 -9.0779,5.75672 -3.71615,5.33713 -8.21006,9.24902 -10.58611,9.21512 -3.25069,-0.0464 -8.59659,-2.40769 -15.84947,-7.00081 -3.86467,-2.44746 -7.87501,-5.26545 -8.91184,-6.26223 z m 17.41567,1.78288 c 2.59499,-0.74321 5.8962,-1.83633 7.33601,-2.42919 2.37632,-0.97846 2.81725,-0.94319 4.77909,0.38228 3.28574,2.22 3.35807,2.23349 5.05133,0.94248 3.05815,-2.33159 3.83649,-4.41757 2.82554,-7.57246 -0.75019,-2.34118 -0.71097,-3.09267 0.20574,-3.9415 0.87061,-0.80612 0.99877,-1.70386 0.55423,-3.87972 -0.81601,-3.99337 -1.7441,-4.33732 -3.61677,-1.34041 l -1.52303,2.43735 -8.13835,-5.0854 -8.13836,-5.08543 1.52302,-2.43734 c 1.76669,-2.82729 1.31493,-3.43017 -2.13715,-2.85209 -1.73912,0.29122 -2.66328,0.87596 -3.49956,2.2143 -0.90512,1.44851 -1.72028,1.89313 -4.00566,2.18485 -3.11686,0.39787 -4.16881,1.4891 -5.24823,5.44417 -0.65462,2.39834 -0.57726,2.51661 2.92897,4.48023 2.19201,1.22762 2.33152,1.48827 2.58664,4.83258 0.46016,6.03227 1.75397,11.77906 2.79892,12.43202 0.56187,0.35109 3.06509,0.0329 5.71763,-0.72674 z m -3.6554,-7.48891 c -0.0815,-1.88641 0.0811,-3.61131 0.36125,-3.83312 0.28019,-0.22178 2.06115,0.47291 3.95769,1.54378 2.66925,1.50718 3.41249,2.16231 3.2899,2.89977 -0.17045,1.02458 -5.36527,3.38695 -6.67058,3.0334 -0.43457,-0.11762 -0.85676,-1.75743 -0.93824,-3.64383 z m -9.34146,2.09926 c -0.008,-0.48405 -0.26934,-2.34063 -0.58081,-4.12573 -0.45933,-2.63263 -0.91183,-3.46155 -2.3957,-4.38878 -1.04175,-0.65096 -1.98817,-0.88908 -2.19813,-0.55306 -0.7514,1.20249 -0.04,3.89285 1.24104,4.69333 0.72187,0.45108 1.8306,1.76986 2.46382,2.93059 1.3518,2.47794 1.48905,2.61276 1.46978,1.44365 z m 21.4016,11.45695 c 1.40764,0.87959 3.98585,0.58933 4.6836,-0.52732 0.37222,-0.59566 0.009,-1.16083 -1.30635,-2.03127 -1.5301,-1.01271 -2.31307,-1.04959 -4.88635,-0.22997 -5.24598,1.67087 -5.28341,1.70039 -2.39666,1.89033 1.51731,0.0998 3.2749,0.50404 3.90576,0.89823 z"
         style="fill:#000000" />
    </g>
  </g>
  <g
     inkscape:groupmode="layer"
     id="layer2"
     inkscape:label="led holes"
     transform="translate(0,146.125)" />
</svg>
