<?xml version="1.0" encoding="UTF-8" standalone="no"?>
<!-- Created with Inkscape (http://www.inkscape.org/) -->

<svg
   xmlns:osb="http://www.openswatchbook.org/uri/2009/osb"
   xmlns:dc="http://purl.org/dc/elements/1.1/"
   xmlns:cc="http://creativecommons.org/ns#"
   xmlns:rdf="http://www.w3.org/1999/02/22-rdf-syntax-ns#"
   xmlns:svg="http://www.w3.org/2000/svg"
   xmlns="http://www.w3.org/2000/svg"
   xmlns:sodipodi="http://sodipodi.sourceforge.net/DTD/sodipodi-0.dtd"
   xmlns:inkscape="http://www.inkscape.org/namespaces/inkscape"
   width="744.09448819"
   height="1052.3622047"
   id="svg2"
   version="1.1"
   inkscape:version="0.48.5 r10040"
   sodipodi:docname="Labels2.svg">
  <defs
     id="defs4">
    <linearGradient
       id="linearGradient5312"
       osb:paint="solid">
      <stop
         style="stop-color:#90b8f3;stop-opacity:1;"
         offset="0"
         id="stop5314" />
    </linearGradient>
  </defs>
  <sodipodi:namedview
     id="base"
     pagecolor="#ffffff"
     bordercolor="#666666"
     borderopacity="1.0"
     inkscape:pageopacity="0.0"
     inkscape:pageshadow="2"
     inkscape:zoom="0.7"
     inkscape:cx="306.88264"
     inkscape:cy="576.92477"
     inkscape:document-units="px"
     inkscape:current-layer="layer1"
     showgrid="false"
     inkscape:window-width="1280"
     inkscape:window-height="752"
     inkscape:window-x="0"
     inkscape:window-y="0"
     inkscape:window-maximized="1" />
  <metadata
     id="metadata7">
    <rdf:RDF>
      <cc:Work
         rdf:about="">
        <dc:format>image/svg+xml</dc:format>
        <dc:type
           rdf:resource="http://purl.org/dc/dcmitype/StillImage" />
        <dc:title></dc:title>
      </cc:Work>
    </rdf:RDF>
  </metadata>
  <g
     inkscape:label="Layer 1"
     inkscape:groupmode="layer"
     id="layer1">
    <g
       id="g3014"
       transform="translate(-302.85715,-17.142857)">
      <rect
         style="fill:#00beff;fill-opacity:1;stroke:none"
         id="rect3016"
         width="40.748032"
         height="49.6063"
         x="325.40924"
         y="439.25354" />
      <path
         style="fill:#ffffff;fill-opacity:1;stroke:none"
         d="m 343.98375,485.55808 c -1.13238,-0.242 -2.40644,-0.85494 -3.41259,-1.64172 -1.44061,-1.12651 -3.24167,-3.71252 -3.24167,-4.65439 0,-0.83999 0.74301,-1.3825 1.29292,-0.94405 0.10537,0.084 0.34288,0.43358 0.52782,0.77678 1.25903,2.33664 3.04101,3.81569 5.13519,4.26218 0.6618,0.14111 1.82381,0.14379 2.46654,0.006 2.11703,-0.45491 4.02432,-2.06185 5.14492,-4.33469 0.43492,-0.88213 0.95913,-1.09632 1.48576,-0.60715 0.25203,0.23411 0.27768,0.29618 0.30551,0.73904 0.0281,0.44574 0.008,0.5293 -0.26973,1.0712 -1.09639,2.14755 -2.99927,4.0465 -4.83813,4.82821 -1.08822,0.46256 -1.52244,0.54971 -2.87689,0.57751 -0.84719,0.0175 -1.38591,-0.008 -1.71965,-0.0788 z m 0.2099,-3.68227 c -1.04652,-0.26085 -2.06121,-0.82929 -2.88422,-1.61585 -0.85612,-0.81813 -1.80866,-2.3301 -1.81065,-2.874 -0.003,-0.66803 0.44288,-1.15629 0.99255,-1.08828 0.37228,0.0459 0.42073,0.0937 0.83973,0.82699 0.42162,0.7378 1.36756,1.73241 1.9798,2.08161 1.3528,0.77167 2.75026,0.80019 4.18695,0.0855 0.82595,-0.41088 1.68465,-1.25771 2.20324,-2.17279 0.39303,-0.69359 0.58276,-0.86354 0.96385,-0.86354 0.52137,0 0.87031,0.45197 0.87031,1.12727 0,0.29696 -0.0643,0.48331 -0.32706,0.95107 -1.56873,2.79015 -4.3653,4.20233 -7.0145,3.54203 z m 0.68977,-3.52882 c -0.79071,-0.21539 -1.54576,-0.87914 -2.01196,-1.76859 -0.40548,-0.77366 -0.39881,-1.33191 0.0212,-1.78341 0.44379,-0.47693 1.0168,-0.33303 1.35318,0.33983 0.35862,0.71731 0.78186,1.05998 1.30924,1.05998 0.44581,0 0.89002,-0.36331 1.19308,-0.97581 0.23685,-0.47871 0.49072,-0.69143 0.82515,-0.69143 0.50841,0 0.89637,0.48656 0.89637,1.12412 0,0.73056 -1.00626,2.11884 -1.80999,2.49716 -0.69245,0.32596 -1.12859,0.3746 -1.77636,0.19815 z m -6.95579,-1.83975 c -0.66111,-0.22008 -1.23077,-0.70813 -1.55887,-1.33553 l -0.19818,-0.37891 0,-5.57008 0,-5.5701 0.19818,-0.37892 c 0.25244,-0.48273 0.67189,-0.90772 1.14765,-1.16288 0.32844,-0.17615 0.46011,-0.20049 1.08412,-0.20049 0.624,0 0.75568,0.0243 1.08411,0.20049 0.47577,0.25516 0.89521,0.68015 1.14765,1.16288 l 0.19817,0.37892 0,5.5701 0,5.57008 -0.1989,0.37891 c -0.25573,0.48721 -0.573,0.80941 -1.09534,1.11231 -0.36045,0.20904 -0.50195,0.24566 -1.02008,0.26406 -0.3309,0.0118 -0.68571,-0.006 -0.78851,-0.0411 z m 14.35525,0 c -0.6611,-0.22008 -1.23075,-0.70813 -1.55885,-1.33553 l -0.19817,-0.37891 0,-5.57008 0,-5.5701 0.19817,-0.37892 c 0.25245,-0.48273 0.67188,-0.90772 1.14765,-1.16288 0.32842,-0.17615 0.46009,-0.20049 1.08412,-0.20049 0.62401,0 0.75567,0.0243 1.08411,0.20049 0.47624,0.25542 0.89565,0.68064 1.14694,1.16288 l 0.19746,0.37892 0.0488,5.03962 c 0.0269,2.77177 0.0195,5.28614 -0.0161,5.58749 -0.10938,0.92628 -0.58741,1.63759 -1.37718,2.04921 -0.29093,0.15167 -0.50648,0.19992 -0.97197,0.2177 -0.32897,0.0126 -0.68225,-0.006 -0.78505,-0.0395 z m -17.6711,-2.61906 c -1.4361,-0.51838 -2.5829,-1.70114 -3.05395,-3.1498 -0.12124,-0.37277 -0.16572,-0.72304 -0.183,-1.43989 l -0.0227,-0.94729 -0.58637,-1.17464 c -1.21759,-2.43922 -1.8101,-4.93446 -1.8101,-7.62312 0,-1.38439 0.0908,-2.31222 0.34811,-3.5537 1.22815,-5.92761 5.54306,-10.80152 11.24203,-12.69846 1.71505,-0.57087 3.3494,-0.83017 5.23244,-0.83017 1.336,0 2.25716,0.0934 3.47543,0.35284 3.19684,0.68049 6.07114,2.26646 8.41707,4.64426 4.36103,4.42032 5.97042,10.72169 4.28286,16.76879 -0.27652,0.99086 -0.72562,2.10959 -1.2713,3.16691 l -0.48888,0.94729 0.0109,0.73062 c 0.0186,1.23921 -0.33958,2.32348 -1.08006,3.26978 -0.63697,0.81403 -1.994,1.63642 -2.75534,1.66976 l -0.31026,0.0137 0,-4.81224 0,-4.81227 0.31026,0.0136 c 0.42925,0.0187 1.32162,0.41296 1.8552,0.81946 0.24523,0.18679 0.47191,0.31321 0.50374,0.28094 0.10282,-0.10422 0.65348,-1.65468 0.84528,-2.37992 0.42167,-1.59472 0.5681,-3.92682 0.34638,-5.51671 -0.67037,-4.80702 -3.57769,-8.90579 -7.84652,-11.06207 -1.28156,-0.64736 -2.94446,-1.16472 -4.42564,-1.37695 -0.81809,-0.1172 -2.92025,-0.1172 -3.73834,0 -4.74256,0.6795 -8.78633,3.62635 -10.91369,7.95322 -1.3829,2.81268 -1.80758,6.1019 -1.19078,9.22227 0.14898,0.75365 0.58556,2.17355 0.87955,2.86071 l 0.15398,0.35985 0.58976,-0.40703 c 0.65669,-0.45324 1.31906,-0.73553 1.7708,-0.75469 l 0.2991,-0.0127 0,4.81228 0,4.81223 -0.18694,0.0191 c -0.1028,0.0104 -0.41734,-0.0643 -0.69899,-0.16583 z"
         id="path3018"
         inkscape:connector-curvature="0" />
    </g>
    <g
       transform="translate(-211.42858,-80.000001)"
       id="g3020">
      <rect
         y="508.46457"
         x="357.87402"
         height="35.433071"
         width="28.346457"
         id="rect3022"
         style="fill:#00beff;fill-opacity:1;stroke:none" />
      <path
         inkscape:connector-curvature="0"
         id="path3024"
         d="m 370.39623,542.10176 c -0.24422,-0.1046 -0.2803,-0.47194 -0.22329,-2.27475 0.0679,-2.14764 0.0675,-2.1504 -0.43142,-2.55215 -0.76463,-0.61575 -0.89867,-0.99482 -0.89867,-2.54156 l 0,-1.42783 -1.0194,-0.14556 c -2.18249,-0.31163 -2.87084,-0.54079 -4.12093,-1.37185 -1.33387,-0.88679 -2.25658,-1.97993 -2.60226,-3.08299 -0.12504,-0.39869 -0.21849,-1.96563 -0.21849,-3.65961 l 0,-2.96239 -0.55879,-0.3186 c -0.34413,-0.19622 -0.64248,-0.54385 -0.77666,-0.90499 -0.27164,-0.73087 -0.28663,-2.79386 -0.0212,-2.90504 0.10834,-0.0455 5.68737,-0.11268 12.39799,-0.14963 11.15998,-0.0615 12.22852,-0.0487 12.5215,0.14985 0.24299,0.16463 0.31918,0.46093 0.31567,1.22732 -0.008,1.40132 -0.23467,1.94832 -1.04856,2.51311 l -0.69435,0.48184 -0.003,3.08639 c -0.003,4.06832 -0.30444,4.82839 -2.50642,6.32045 -1.26139,0.85472 -2.15924,1.19934 -4.03081,1.5471 l -1.32446,0.2461 -0.0117,1.53293 c -0.0117,1.50553 -0.023,1.54354 -0.63104,2.12813 l -0.61915,0.5952 0,2.14079 c 0,1.48961 -0.071,2.18878 -0.23301,2.29865 -0.27855,0.18876 -2.83617,0.21156 -3.26211,0.029 z m 3.56206,-14.2296 c 1.67188,-1.2034 3.03979,-2.25435 3.03979,-2.33541 0,-0.10126 -0.78718,-0.1474 -2.51277,-0.1474 -1.39993,0 -2.56391,-0.056 -2.62826,-0.12668 -0.0634,-0.0695 0.49656,-0.88063 1.24459,-1.80225 0.74803,-0.92162 1.33012,-1.69595 1.29352,-1.72075 -0.0809,-0.055 -6.98206,4.66991 -7.07333,4.84275 -0.0378,0.0714 0.93523,0.12336 2.33007,0.12466 1.31714,8.6e-4 2.52585,0.0582 2.68599,0.12682 0.24513,0.10504 0.0992,0.38602 -0.9223,1.77554 -1.2486,1.69852 -1.48125,2.1637 -0.85534,1.71027 0.19702,-0.14269 1.72613,-1.24409 3.39804,-2.44749 z m -9.82412,-11.04552 c -0.30573,-0.12062 -0.3398,-0.39853 -0.3398,-2.77203 0,-2.16894 0.0565,-2.71849 0.31743,-3.09119 0.7721,-1.1025 3.11868,-1.10502 3.98807,-0.004 0.31455,0.39826 0.2274,5.76755 -0.0959,5.90686 -0.34178,0.1473 -3.4777,0.11543 -3.8698,-0.0394 z m 11.64035,-0.073 c -0.0747,-0.0505 -0.13559,-1.2691 -0.13559,-2.70793 0,-2.79565 0.0997,-3.14837 1.01293,-3.5818 0.23798,-0.11296 0.81517,-0.20533 1.28268,-0.20533 0.70873,0 0.96034,0.0747 1.51408,0.44999 l 0.66408,0.44999 -0.0527,2.80642 -0.0524,2.8064 -2.04883,0.0371 c -1.12684,0.0204 -2.10985,-0.004 -2.18444,-0.0548 z"
         style="fill:#ffffff;fill-opacity:1;stroke:none" />
    </g>
    <g
       id="g3026"
       transform="translate(-302.85715,-17.142857)">
      <rect
         y="439.00101"
         x="388.0387"
         height="49.6063"
         width="40.748032"
         id="rect3028"
         style="fill:#00beff;fill-opacity:1;stroke:none" />
      <path
         style="fill:#ffffff;fill-opacity:1;stroke:none"
         d="m 410.264,486.3088 c -0.40526,-0.33332 -0.44205,-0.48346 -1.14407,-4.66529 -1.06051,-6.31741 -1.48279,-8.56437 -1.6347,-8.69822 -0.084,-0.0734 -0.13505,-0.0624 -0.13505,0.0305 0,0.22273 -1.47571,7.21881 -1.73549,8.22759 -0.25426,0.98749 -0.60044,1.31749 -1.38203,1.31749 -0.69382,0 -1.09632,-0.40967 -1.29218,-1.3151 -0.16255,-0.75136 -0.92677,-5.62215 -0.92849,-5.91775 -0.003,-0.44647 -0.30386,-0.0174 -0.8343,1.18982 -1.03333,2.3507 -1.37034,2.78669 -2.15402,2.78669 -0.7835,0 -1.12463,-0.38035 -1.74118,-1.9413 -0.45083,-1.14137 -0.40696,-1.10308 -0.91204,-0.79641 -0.40324,0.24475 -0.64308,0.26692 -3.03615,0.28057 -3.04733,0.0182 -3.14555,-0.0157 -3.14555,-1.04973 0,-0.94593 0.20684,-1.05035 2.17543,-1.09791 2.36658,-0.0575 2.20646,0.0147 2.78674,-1.24773 1.10746,-2.40911 2.48325,-2.40821 3.43938,0.003 0.23775,0.59941 0.48223,1.04778 0.54328,0.99647 0.061,-0.0513 0.53475,-1.07968 1.05265,-2.28513 1.33582,-3.10935 1.52842,-3.38159 2.39242,-3.38159 1.11854,0 1.25497,0.22358 1.66443,2.7274 0.13829,0.84562 0.2765,1.51699 0.30713,1.4918 0.0306,-0.0251 0.43137,-1.86167 0.8905,-4.08123 0.45916,-2.21956 0.90697,-4.25556 0.99516,-4.52444 0.27368,-0.83442 1.23642,-1.13175 2.02191,-0.62449 0.47081,0.30407 0.42997,0.12346 1.72084,7.61033 0.54123,3.13914 1.01865,5.7359 1.06091,5.77061 0.0421,0.0341 0.0769,0.0327 0.0769,-0.003 0,-0.0363 0.0705,-0.36999 0.15656,-0.74105 0.086,-0.37106 0.49781,-2.41481 0.91493,-4.54175 0.41711,-2.12688 0.83945,-4.08923 0.93855,-4.36075 0.20298,-0.55631 0.61747,-0.8523 1.19343,-0.8523 0.99153,0 1.18286,0.33425 2.76012,4.8219 1.03656,2.94918 1.47642,4.07038 1.59693,4.07038 0.0333,0 0.34525,-0.25357 0.69328,-0.5636 l 0.63275,-0.56359 2.19248,0 c 1.9891,0 2.22078,0.023 2.49757,0.25047 0.39923,0.32783 0.41637,1.23719 0.0306,1.62819 -0.24504,0.24847 -0.4549,0.28522 -1.96118,0.34388 l -1.68674,0.0658 -0.74653,1.25285 c -0.9245,1.55147 -1.36631,1.96972 -2.08072,1.96972 -0.91929,0 -1.03386,-0.18982 -2.39857,-3.97395 -0.52737,-1.4624 -1.00918,-2.63341 -1.07067,-2.60222 -0.0614,0.0316 -0.15353,0.29777 -0.20461,0.59236 -0.36766,2.12054 -2.27518,11.51165 -2.40433,11.83708 -0.19346,0.48747 -0.80407,0.90991 -1.31507,0.90991 -0.20489,0 -0.56095,-0.15502 -0.79126,-0.34441 z m -7.44592,-25.07559 c -0.65546,-0.32816 -1.11211,-1.09243 -1.11211,-1.86131 0,-0.94414 0.8328,-2.19242 2.26429,-3.39387 1.25003,-1.04913 1.91004,-1.38598 3.20693,-1.63668 2.13429,-0.41252 4.031,0.15119 5.84984,1.73856 2.44445,2.13339 2.8487,4.11775 1.04249,5.11712 -1.03365,0.57188 -2.03199,0.23918 -2.85681,-0.95212 -0.55861,-0.8068 -1.38264,-1.49099 -1.99579,-1.65715 -1.24342,-0.33692 -2.49684,0.17672 -3.32476,1.36245 -0.22648,0.32432 -0.65712,0.80104 -0.95703,1.05937 -0.63923,0.55058 -1.3202,0.62253 -2.11705,0.22363 z m -6.94184,-3.07972 c -0.59451,-0.26492 -1.18741,-1.15751 -1.18741,-1.78761 0,-1.18462 1.22164,-2.87077 3.47882,-4.80152 2.28086,-1.95106 3.93955,-2.84522 6.58924,-3.55229 1.16958,-0.31209 1.52087,-0.34705 3.58482,-0.35659 1.77747,-0.01 2.49248,0.0393 3.20348,0.21219 2.88811,0.70291 4.61351,1.58371 6.95441,3.55019 3.1108,2.61324 4.1994,4.49729 3.39888,5.88235 -0.27025,0.46758 -1.30969,1.04792 -1.87685,1.04792 -0.59148,0 -1.19467,-0.47415 -2.20748,-1.73528 -1.25852,-1.56702 -2.18189,-2.40279 -3.48449,-3.15388 -3.88115,-2.23778 -8.3175,-2.1317 -12.24604,0.29292 -1.09773,0.6775 -1.87383,1.41432 -2.99618,2.8446 -1.31065,1.67028 -2.0991,2.05254 -3.2112,1.557 z m -5.20152,-3.68426 c -0.38031,-0.27417 -0.63778,-0.6167 -0.81969,-1.09046 -0.26009,-0.67746 -0.25863,-0.70623 0.0764,-1.49469 1.02902,-2.42075 4.51599,-6.01233 7.82441,-8.05907 1.48923,-0.92137 4.12509,-2.00027 6.00935,-2.45981 1.16561,-0.28427 1.7469,-0.3439 3.84967,-0.39506 3.02299,-0.073 4.41243,0.0771 6.63068,0.71859 2.89055,0.83596 5.00523,1.98673 7.59636,4.13377 0.88097,0.72997 2.06394,1.86016 2.62881,2.51156 1.18079,1.36167 2.53055,3.47156 2.66128,4.16008 0.19109,1.00641 -0.77042,2.18613 -1.87892,2.30538 -0.93859,0.10082 -1.45457,-0.28917 -2.67799,-2.02472 -2.36626,-3.3569 -4.56708,-5.13148 -8.05539,-6.49532 -2.44804,-0.9571 -3.51071,-1.12612 -6.60815,-1.05122 -2.73593,0.0665 -3.66927,0.24105 -5.67181,1.06247 -3.32751,1.3649 -5.45837,3.09561 -7.87284,6.39444 -0.63844,0.87234 -1.33085,1.69023 -1.53867,1.81764 -0.20781,0.12737 -0.65265,0.26188 -0.98851,0.29884 -0.52971,0.0582 -0.68418,0.0144 -1.16514,-0.33242 z"
         id="path3030"
         inkscape:connector-curvature="0" />
    </g>
    <g
       id="g3838">
      <rect
         y="492.11069"
         x="22.552092"
         height="49.6063"
         width="40.748032"
         id="rect3025"
         style="fill:none;fill-opacity:1;stroke:#ff0000;stroke-opacity:1" />
      <path
         inkscape:connector-curvature="0"
         id="path3027"
         d="m 41.1266,538.41522 c -1.13238,-0.242 -2.40644,-0.85494 -3.41259,-1.64172 -1.44061,-1.12651 -3.24167,-3.71252 -3.24167,-4.65439 0,-0.83999 0.74301,-1.3825 1.29292,-0.94405 0.10537,0.084 0.34288,0.43358 0.52782,0.77678 1.25903,2.33664 3.04101,3.81569 5.13519,4.26218 0.6618,0.14111 1.82381,0.14379 2.46654,0.006 2.11703,-0.45491 4.02432,-2.06185 5.14492,-4.33469 0.43492,-0.88213 0.95913,-1.09632 1.48576,-0.60715 0.25203,0.23411 0.27768,0.29618 0.30551,0.73904 0.0281,0.44574 0.008,0.5293 -0.26973,1.0712 -1.09639,2.14755 -2.99927,4.0465 -4.83813,4.82821 -1.08822,0.46256 -1.52244,0.54971 -2.87689,0.57751 -0.84719,0.0175 -1.38591,-0.008 -1.71965,-0.0788 z m 0.2099,-3.68227 c -1.04652,-0.26085 -2.06121,-0.82929 -2.88422,-1.61585 -0.85612,-0.81813 -1.80866,-2.3301 -1.81065,-2.874 -0.003,-0.66803 0.44288,-1.15629 0.99255,-1.08828 0.37228,0.0459 0.42073,0.0937 0.83973,0.82699 0.42162,0.7378 1.36756,1.73241 1.9798,2.08161 1.3528,0.77167 2.75026,0.80019 4.18695,0.0855 0.82595,-0.41088 1.68465,-1.25771 2.20324,-2.17279 0.39303,-0.69359 0.58276,-0.86354 0.96385,-0.86354 0.52137,0 0.87031,0.45197 0.87031,1.12727 0,0.29696 -0.0643,0.48331 -0.32706,0.95107 -1.56873,2.79015 -4.3653,4.20233 -7.0145,3.54203 z m 0.68977,-3.52882 c -0.79071,-0.21539 -1.54576,-0.87914 -2.01196,-1.76859 -0.40548,-0.77366 -0.39881,-1.33191 0.0212,-1.78341 0.44379,-0.47693 1.0168,-0.33303 1.35318,0.33983 0.35862,0.71731 0.78186,1.05998 1.30924,1.05998 0.44581,0 0.89002,-0.36331 1.19308,-0.97581 0.23685,-0.47871 0.49072,-0.69143 0.82515,-0.69143 0.50841,0 0.89637,0.48656 0.89637,1.12412 0,0.73056 -1.00626,2.11884 -1.80999,2.49716 -0.69245,0.32596 -1.12859,0.3746 -1.77636,0.19815 z m -6.95579,-1.83975 c -0.66111,-0.22008 -1.23077,-0.70813 -1.55887,-1.33553 l -0.19818,-0.37891 0,-5.57008 0,-5.5701 0.19818,-0.37892 c 0.25244,-0.48273 0.67189,-0.90772 1.14765,-1.16288 0.32844,-0.17615 0.46011,-0.20049 1.08412,-0.20049 0.624,0 0.75568,0.0243 1.08411,0.20049 0.47577,0.25516 0.89521,0.68015 1.14765,1.16288 l 0.19817,0.37892 0,5.5701 0,5.57008 -0.1989,0.37891 c -0.25573,0.48721 -0.573,0.80941 -1.09534,1.11231 -0.36045,0.20904 -0.50195,0.24566 -1.02008,0.26406 -0.3309,0.0118 -0.68571,-0.006 -0.78851,-0.0411 z m 14.35525,0 c -0.6611,-0.22008 -1.23075,-0.70813 -1.55885,-1.33553 l -0.19817,-0.37891 0,-5.57008 0,-5.5701 0.19817,-0.37892 c 0.25245,-0.48273 0.67188,-0.90772 1.14765,-1.16288 0.32842,-0.17615 0.46009,-0.20049 1.08412,-0.20049 0.62401,0 0.75567,0.0243 1.08411,0.20049 0.47624,0.25542 0.89565,0.68064 1.14694,1.16288 l 0.19746,0.37892 0.0488,5.03962 c 0.0269,2.77177 0.0195,5.28614 -0.0161,5.58749 -0.10938,0.92628 -0.58741,1.63759 -1.37718,2.04921 -0.29093,0.15167 -0.50648,0.19992 -0.97197,0.2177 -0.32897,0.0126 -0.68225,-0.006 -0.78505,-0.0395 z m -17.6711,-2.61906 c -1.4361,-0.51838 -2.5829,-1.70114 -3.05395,-3.1498 -0.12124,-0.37277 -0.16572,-0.72304 -0.183,-1.43989 l -0.0227,-0.94729 -0.58637,-1.17464 c -1.21759,-2.43922 -1.8101,-4.93446 -1.8101,-7.62312 0,-1.38439 0.0908,-2.31222 0.34811,-3.5537 1.22815,-5.92761 5.54306,-10.80152 11.24203,-12.69846 1.71505,-0.57087 3.3494,-0.83017 5.23244,-0.83017 1.336,0 2.25716,0.0934 3.47543,0.35284 3.19684,0.68049 6.07114,2.26646 8.41707,4.64426 4.36103,4.42032 5.97042,10.72169 4.28286,16.76879 -0.27652,0.99086 -0.72562,2.10959 -1.2713,3.16691 l -0.48888,0.94729 0.0109,0.73062 c 0.0186,1.23921 -0.33958,2.32348 -1.08006,3.26978 -0.63697,0.81403 -1.994,1.63642 -2.75534,1.66976 l -0.31026,0.0137 0,-4.81224 0,-4.81227 0.31026,0.0136 c 0.42925,0.0187 1.32162,0.41296 1.8552,0.81946 0.24523,0.18679 0.47191,0.31321 0.50374,0.28094 0.10282,-0.10422 0.65348,-1.65468 0.84528,-2.37992 0.42167,-1.59472 0.5681,-3.92682 0.34638,-5.51671 -0.67037,-4.80702 -3.57769,-8.90579 -7.84652,-11.06207 -1.28156,-0.64736 -2.94446,-1.16472 -4.42564,-1.37695 -0.81809,-0.1172 -2.92025,-0.1172 -3.73834,0 -4.74256,0.6795 -8.78633,3.62635 -10.91369,7.95322 -1.3829,2.81268 -1.80758,6.1019 -1.19078,9.22227 0.14898,0.75365 0.58556,2.17355 0.87955,2.86071 l 0.15398,0.35985 0.58976,-0.40703 c 0.65669,-0.45324 1.31906,-0.73553 1.7708,-0.75469 l 0.2991,-0.0127 0,4.81228 0,4.81223 -0.18694,0.0191 c -0.1028,0.0104 -0.41734,-0.0643 -0.69899,-0.16583 z"
         style="fill:#000000;fill-opacity:1;stroke:none;stroke-opacity:1" />
    </g>
    <g
       id="g3834">
      <rect
         style="fill:none;stroke:#ff0000;stroke-opacity:1"
         id="rect3031"
         width="28.346457"
         height="35.433071"
         x="143.23117"
         y="498.10742" />
      <path
         style="fill:#000000;fill-opacity:1;stroke:none"
         d="m 156.07802,531.74462 c -0.1962,-0.1046 -0.22518,-0.47194 -0.17938,-2.27475 0.0545,-2.14764 0.0542,-2.1504 -0.34659,-2.55215 -0.61427,-0.61575 -0.72195,-0.99482 -0.72195,-2.54156 l 0,-1.42783 -0.81893,-0.14556 c -1.75332,-0.31163 -2.3063,-0.54079 -3.31057,-1.37185 -1.07157,-0.88679 -1.81283,-1.97993 -2.09053,-3.08299 -0.10045,-0.39869 -0.17553,-1.96563 -0.17553,-3.65961 l 0,-2.96239 -0.4489,-0.3186 c -0.27646,-0.19622 -0.51614,-0.54385 -0.62393,-0.90499 -0.21823,-0.73087 -0.23027,-2.79386 -0.017,-2.90504 0.087,-0.0455 4.56897,-0.11268 9.95997,-0.14963 8.96541,-0.0615 9.82382,-0.0487 10.05919,0.14985 0.1952,0.16463 0.25641,0.46093 0.25359,1.22732 -0.006,1.40132 -0.18852,1.94832 -0.84236,2.51311 l -0.55781,0.48184 -0.002,3.08639 c -0.002,4.06832 -0.24457,4.82839 -2.01354,6.32045 -1.01334,0.85472 -1.73463,1.19934 -3.23816,1.5471 l -1.06401,0.2461 -0.009,1.53293 c -0.009,1.50553 -0.0185,1.54354 -0.50695,2.12813 l -0.4974,0.5952 0,2.14079 c 0,1.48961 -0.057,2.18878 -0.18719,2.29865 -0.22377,0.18876 -2.27844,0.21156 -2.62062,0.029 z m 2.86159,-14.2296 c 1.34311,-1.2034 2.44202,-2.25435 2.44202,-2.33541 0,-0.10126 -0.63238,-0.1474 -2.01864,-0.1474 -1.12464,0 -2.05972,-0.056 -2.11142,-0.12668 -0.0509,-0.0695 0.39891,-0.88063 0.99985,-1.80225 0.60093,-0.92162 1.06855,-1.69595 1.03915,-1.72075 -0.065,-0.055 -5.60906,4.66991 -5.68238,4.84275 -0.0304,0.0714 0.75132,0.12336 1.87187,0.12466 1.05813,8.6e-4 2.02915,0.0582 2.1578,0.12682 0.19692,0.10504 0.0797,0.38602 -0.74094,1.77554 -1.00306,1.69852 -1.18996,2.1637 -0.68714,1.71027 0.15828,-0.14269 1.38669,-1.24409 2.72983,-2.44749 z m -7.89224,-11.04552 c -0.24561,-0.12062 -0.27298,-0.39853 -0.27298,-2.77203 0,-2.16894 0.0454,-2.71849 0.25501,-3.09119 0.62027,-1.1025 2.5054,-1.10502 3.20383,-0.004 0.25269,0.39826 0.18268,5.76755 -0.077,5.90686 -0.27457,0.1473 -2.79383,0.11543 -3.10882,-0.0394 z m 9.35131,-0.073 c -0.06,-0.0505 -0.10892,-1.2691 -0.10892,-2.70793 0,-2.79565 0.0801,-3.14837 0.81374,-3.5818 0.19118,-0.11296 0.65487,-0.20533 1.03044,-0.20533 0.56936,0 0.77149,0.0747 1.21634,0.44999 l 0.53349,0.44999 -0.0423,2.80642 -0.0421,2.8064 -1.64593,0.0371 c -0.90525,0.0204 -1.69496,-0.004 -1.75488,-0.0548 z"
         id="path3033"
         inkscape:connector-curvature="0" />
    </g>
    <g
       id="g3842">
      <rect
         style="fill:none;stroke:#ff0000;stroke-opacity:1"
         id="rect3037"
         width="40.748032"
         height="49.6063"
         x="85.181549"
         y="491.85815" />
      <path
         inkscape:connector-curvature="0"
         id="path3039"
         d="m 107.40685,539.16594 c -0.40526,-0.33332 -0.44205,-0.48346 -1.14407,-4.66529 -1.06051,-6.31741 -1.48279,-8.56437 -1.6347,-8.69822 -0.084,-0.0734 -0.13505,-0.0624 -0.13505,0.0305 0,0.22273 -1.47571,7.21881 -1.73549,8.22759 -0.25426,0.98749 -0.60044,1.31749 -1.38203,1.31749 -0.69382,0 -1.09632,-0.40967 -1.29218,-1.3151 -0.16255,-0.75136 -0.92677,-5.62215 -0.92849,-5.91775 -0.003,-0.44647 -0.30386,-0.0174 -0.8343,1.18982 -1.03333,2.3507 -1.37034,2.78669 -2.15402,2.78669 -0.7835,0 -1.12463,-0.38035 -1.74118,-1.9413 -0.45083,-1.14137 -0.40696,-1.10308 -0.91204,-0.79641 -0.40324,0.24475 -0.64308,0.26692 -3.03615,0.28057 -3.04733,0.0182 -3.14555,-0.0157 -3.14555,-1.04973 0,-0.94593 0.20684,-1.05035 2.17543,-1.09791 2.36658,-0.0575 2.20646,0.0147 2.78674,-1.24773 1.10746,-2.40911 2.48325,-2.40821 3.43938,0.003 0.23775,0.59941 0.48223,1.04778 0.54328,0.99647 0.061,-0.0513 0.53475,-1.07968 1.05265,-2.28513 1.33582,-3.10935 1.52842,-3.38159 2.39242,-3.38159 1.11854,0 1.25497,0.22358 1.66443,2.7274 0.13829,0.84562 0.2765,1.51699 0.30713,1.4918 0.0306,-0.0251 0.43137,-1.86167 0.8905,-4.08123 0.45916,-2.21956 0.90697,-4.25556 0.99516,-4.52444 0.27368,-0.83442 1.23642,-1.13175 2.02191,-0.62449 0.47081,0.30407 0.42997,0.12346 1.72084,7.61033 0.54123,3.13914 1.01865,5.7359 1.06091,5.77061 0.0421,0.0341 0.0769,0.0327 0.0769,-0.003 0,-0.0363 0.0705,-0.36999 0.15656,-0.74105 0.086,-0.37106 0.49781,-2.41481 0.91493,-4.54175 0.41711,-2.12688 0.83945,-4.08923 0.93855,-4.36075 0.20298,-0.55631 0.61747,-0.8523 1.19343,-0.8523 0.99153,0 1.18286,0.33425 2.76012,4.8219 1.03656,2.94918 1.47642,4.07038 1.59693,4.07038 0.0333,0 0.34525,-0.25357 0.69328,-0.5636 l 0.63275,-0.56359 2.19248,0 c 1.9891,0 2.22078,0.023 2.49757,0.25047 0.39923,0.32783 0.41637,1.23719 0.0306,1.62819 -0.24504,0.24847 -0.4549,0.28522 -1.96118,0.34388 l -1.68674,0.0658 -0.74653,1.25285 c -0.9245,1.55147 -1.36631,1.96972 -2.08072,1.96972 -0.91929,0 -1.03386,-0.18982 -2.39857,-3.97395 -0.52737,-1.4624 -1.00918,-2.63341 -1.07067,-2.60222 -0.0614,0.0316 -0.15353,0.29777 -0.20461,0.59236 -0.36766,2.12054 -2.27518,11.51165 -2.40433,11.83708 -0.19346,0.48747 -0.80407,0.90991 -1.31507,0.90991 -0.20489,0 -0.56095,-0.15502 -0.79126,-0.34441 z m -7.44592,-25.07559 c -0.65546,-0.32816 -1.11211,-1.09243 -1.11211,-1.86131 0,-0.94414 0.8328,-2.19242 2.26429,-3.39387 1.25003,-1.04913 1.91004,-1.38598 3.20693,-1.63668 2.13429,-0.41252 4.031,0.15119 5.84984,1.73856 2.44445,2.13339 2.8487,4.11775 1.04249,5.11712 -1.03365,0.57188 -2.03199,0.23918 -2.85681,-0.95212 -0.55861,-0.8068 -1.38264,-1.49099 -1.99579,-1.65715 -1.24342,-0.33692 -2.49684,0.17672 -3.32476,1.36245 -0.22648,0.32432 -0.65712,0.80104 -0.95703,1.05937 -0.63923,0.55058 -1.3202,0.62253 -2.11705,0.22363 z m -6.94184,-3.07972 c -0.59451,-0.26492 -1.18741,-1.15751 -1.18741,-1.78761 0,-1.18462 1.22164,-2.87077 3.47882,-4.80152 2.28086,-1.95106 3.93955,-2.84522 6.58924,-3.55229 1.16958,-0.31209 1.52087,-0.34705 3.58482,-0.35659 1.77747,-0.01 2.49248,0.0393 3.20348,0.21219 2.88811,0.70291 4.61351,1.58371 6.95441,3.55019 3.1108,2.61324 4.1994,4.49729 3.39888,5.88235 -0.27025,0.46758 -1.30969,1.04792 -1.87685,1.04792 -0.59148,0 -1.19467,-0.47415 -2.20748,-1.73528 -1.25852,-1.56702 -2.18189,-2.40279 -3.48449,-3.15388 -3.88115,-2.23778 -8.3175,-2.1317 -12.24604,0.29292 -1.09773,0.6775 -1.87383,1.41432 -2.99618,2.8446 -1.31065,1.67028 -2.0991,2.05254 -3.2112,1.557 z m -5.20152,-3.68426 c -0.38031,-0.27417 -0.63778,-0.6167 -0.81969,-1.09046 -0.26009,-0.67746 -0.25863,-0.70623 0.0764,-1.49469 1.02902,-2.42075 4.51599,-6.01233 7.82441,-8.05907 1.48923,-0.92137 4.12509,-2.00027 6.00935,-2.45981 1.16561,-0.28427 1.7469,-0.3439 3.84967,-0.39506 3.02299,-0.073 4.41243,0.0771 6.63068,0.71859 2.89055,0.83596 5.00523,1.98673 7.59636,4.13377 0.88097,0.72997 2.06394,1.86016 2.62881,2.51156 1.18079,1.36167 2.53055,3.47156 2.66128,4.16008 0.19109,1.00641 -0.77042,2.18613 -1.87892,2.30538 -0.93859,0.10082 -1.45457,-0.28917 -2.67799,-2.02472 -2.36626,-3.3569 -4.56708,-5.13148 -8.05539,-6.49532 -2.44804,-0.9571 -3.51071,-1.12612 -6.60815,-1.05122 -2.73593,0.0665 -3.66927,0.24105 -5.67181,1.06247 -3.32751,1.3649 -5.45837,3.09561 -7.87284,6.39444 -0.63844,0.87234 -1.33085,1.69023 -1.53867,1.81764 -0.20781,0.12737 -0.65265,0.26188 -0.98851,0.29884 -0.52971,0.0582 -0.68418,0.0144 -1.16514,-0.33242 z"
         style="fill:#000000;stroke:none;stroke-opacity:1;fill-opacity:1" />
    </g>
  </g>
</svg>
