<?xml version="1.0" encoding="UTF-8" standalone="no"?>
<!-- Created with Inkscape (http://www.inkscape.org/) -->

<svg
   xmlns:osb="http://www.openswatchbook.org/uri/2009/osb"
   xmlns:dc="http://purl.org/dc/elements/1.1/"
   xmlns:cc="http://creativecommons.org/ns#"
   xmlns:rdf="http://www.w3.org/1999/02/22-rdf-syntax-ns#"
   xmlns:svg="http://www.w3.org/2000/svg"
   xmlns="http://www.w3.org/2000/svg"
   xmlns:sodipodi="http://sodipodi.sourceforge.net/DTD/sodipodi-0.dtd"
   xmlns:inkscape="http://www.inkscape.org/namespaces/inkscape"
   width="744.09448819"
   height="1052.3622047"
   id="svg2"
   version="1.1"
   inkscape:version="0.48.5 r10040"
   sodipodi:docname="Labels.pdf">
  <defs
     id="defs4">
    <linearGradient
       id="linearGradient5312"
       osb:paint="solid">
      <stop
         style="stop-color:#90b8f3;stop-opacity:1;"
         offset="0"
         id="stop5314" />
    </linearGradient>
  </defs>
  <sodipodi:namedview
     id="base"
     pagecolor="#ffffff"
     bordercolor="#666666"
     borderopacity="1.0"
     inkscape:pageopacity="0.0"
     inkscape:pageshadow="2"
     inkscape:zoom="0.7"
     inkscape:cx="229.13614"
     inkscape:cy="711.6733"
     inkscape:document-units="px"
     inkscape:current-layer="layer1"
     showgrid="false"
     inkscape:window-width="1280"
     inkscape:window-height="752"
     inkscape:window-x="0"
     inkscape:window-y="0"
     inkscape:window-maximized="1" />
  <metadata
     id="metadata7">
    <rdf:RDF>
      <cc:Work
         rdf:about="">
        <dc:format>image/svg+xml</dc:format>
        <dc:type
           rdf:resource="http://purl.org/dc/dcmitype/StillImage" />
        <dc:title></dc:title>
      </cc:Work>
    </rdf:RDF>
  </metadata>
  <g
     inkscape:label="Layer 1"
     inkscape:groupmode="layer"
     id="layer1">
    <path
       style="fill:#ff0000;fill-opacity:1;stroke:#000000;stroke-width:6.31417322;stroke-miterlimit:4;stroke-opacity:1;stroke-dasharray:none"
       d="m 98.598069,306.53106 c -1.401872,-0.90367 -1.608901,-4.0758 -1.2817,-19.64503 0.389798,-18.54717 0.387138,-18.57115 -2.476389,-22.04058 -4.389157,-5.31768 -5.158575,-8.5914 -5.158575,-21.94924 l 0,-12.33085 -5.851552,-1.25708 c -12.527764,-2.6913 -16.47914,-4.67037 -23.654746,-11.84751 -7.656727,-7.65842 -12.953242,-17.09902 -14.937531,-26.62503 -0.71706,-3.44316 -1.254134,-16.97545 -1.254134,-31.60482 l 0,-25.58355 -3.207541,-2.75143 c -1.975333,-1.69457 -3.687922,-4.69669 -4.458183,-7.81559 -1.559192,-6.31194 -1.645164,-24.128117 -0.122103,-25.088307 0.621434,-0.39151 32.646404,-0.97301 71.166625,-1.29218 64.06004,-0.53077 70.1937,-0.42037 71.87541,1.29412 1.39479,1.42184 1.83223,3.980607 1.81204,10.599307 -0.0365,12.1019 -1.34699,16.82594 -6.01891,21.70355 l -3.98572,4.16119 -0.0123,26.65444 c -0.0154,35.13446 -1.74759,41.69837 -14.38726,54.58397 -7.24062,7.3815 -12.39446,10.3577 -23.13752,13.36105 l -7.6027,2.1253 -0.0686,13.23854 c -0.0674,13.00199 -0.13262,13.33024 -3.62239,18.37881 l -3.55406,5.14029 0,18.48795 c 0,12.86445 -0.40683,18.90267 -1.33744,19.85139 -1.59904,1.63023 -16.28014,1.82708 -18.72503,0.25058 z m 20.446801,-122.8885 c 9.59694,-10.39269 17.44898,-19.46867 17.44898,-20.16878 0,-0.87416 -4.51862,-1.27296 -14.42376,-1.27296 -8.03581,0 -14.71731,-0.4842 -15.08667,-1.09333 -0.36445,-0.60127 2.85041,-7.60536 7.14419,-15.56453 4.29385,-7.95917 7.63515,-14.64643 7.42506,-14.86056 -0.46496,-0.47406 -40.078232,40.32985 -40.602171,41.82258 -0.217021,0.61654 5.368356,1.06586 13.375001,1.07596 7.56059,0.009 14.49876,0.50216 15.41807,1.09462 1.40702,0.90674 0.56909,3.3337 -5.2942,15.33385 -7.16717,14.66855 -8.502604,18.68575 -4.909805,14.77002 1.130975,-1.2326 9.908245,-10.74414 19.505305,-21.13687 z M 62.652801,88.252283 c -1.755005,-1.04209 -1.95051,-3.44171 -1.95051,-23.9395 0,-18.73125 0.323894,-23.47721 1.82206,-26.69593 4.432024,-9.52127 17.901841,-9.54315 22.89224,-0.0371 1.805607,3.43958 1.305352,49.80926 -0.550426,51.01248 -1.961951,1.27201 -19.962623,0.99655 -22.213364,-0.33997 z m 66.817539,-0.63037 c -0.42822,-0.43647 -0.77857,-10.96023 -0.77857,-23.38603 0,-24.14358 0.57263,-27.18965 5.81454,-30.93271 1.36601,-0.97535 4.67914,-1.77335 7.36268,-1.77335 4.06826,0 5.51254,0.64579 8.69109,3.88611 l 3.81204,3.88621 -0.30141,24.23653 -0.30142,24.23649 -11.7606,0.32025 c -6.46826,0.1755 -12.11087,-0.037 -12.53899,-0.4735 z"
       id="path3150"
       inkscape:connector-curvature="0" />
    <rect
       style="fill:#000080;fill-opacity:1;stroke:none"
       id="rect5383"
       width="129.45717"
       height="157.60004"
       x="229.69495"
       y="489.80328" />
    <path
       style="fill:#ffffff;fill-opacity:1;stroke:none"
       d="m 288.70647,636.91357 c -3.59759,-0.76883 -7.6453,-2.71616 -10.84186,-5.21577 -4.57684,-3.57894 -10.29884,-11.79473 -10.29884,-14.78707 0,-2.66866 2.36056,-4.39223 4.10763,-2.99926 0.33476,0.26687 1.08934,1.37749 1.67689,2.46784 3.99996,7.42354 9.66134,12.12251 16.31459,13.54101 2.10255,0.44831 5.79427,0.45683 7.83623,0.0191 6.72584,-1.44526 12.78533,-6.55053 16.3455,-13.77138 1.38175,-2.80255 3.04717,-3.48303 4.72028,-1.92893 0.80071,0.74377 0.8822,0.94097 0.97061,2.34794 0.0893,1.41613 0.0254,1.6816 -0.85693,3.40322 -3.48325,6.8228 -9.52873,12.8558 -15.37082,15.3393 -3.45729,1.46957 -4.83682,1.74644 -9.13993,1.83476 -2.69154,0.0556 -4.40306,-0.0254 -5.46335,-0.25035 z m 0.66685,-11.69863 c -3.32481,-0.82872 -6.5485,-2.63467 -9.16321,-5.13358 -2.71991,-2.59921 -5.74615,-7.40277 -5.75247,-9.13075 -0.01,-2.12234 1.40704,-3.67355 3.15335,-3.45748 1.18274,0.14583 1.33667,0.29769 2.66784,2.62736 1.33949,2.344 4.34476,5.5039 6.28985,6.61331 4.29787,2.45161 8.73762,2.54222 13.30201,0.27164 2.62406,-1.30538 5.35216,-3.99577 6.99973,-6.90299 1.24866,-2.20355 1.85144,-2.74348 3.06217,-2.74348 1.6564,0 2.76499,1.43591 2.76499,3.58135 0,0.94345 -0.20428,1.53548 -1.03908,3.02157 -4.98388,8.86435 -13.86863,13.35087 -22.28518,11.25308 z m 2.19141,-11.21112 c -2.5121,-0.6843 -4.9109,-2.79304 -6.39203,-5.61884 -1.28822,-2.45793 -1.26702,-4.2315 0.0673,-5.66592 1.40993,-1.51521 3.23039,-1.05804 4.29908,1.07965 1.13934,2.2789 2.48398,3.36757 4.15948,3.36757 1.41634,0 2.8276,-1.15424 3.79043,-3.10017 0.75248,-1.52086 1.55903,-2.19668 2.62152,-2.19668 1.61522,0 2.84778,1.54581 2.84778,3.57135 0,2.321 -3.19691,6.73159 -5.75037,7.93352 -2.19992,1.03558 -3.58555,1.19011 -5.64352,0.62952 z m -22.09866,-5.84491 c -2.10035,-0.6992 -3.91017,-2.24974 -4.95255,-4.243 l -0.62962,-1.20381 0,-17.69623 0,-17.6963 0.62962,-1.20384 c 0.802,-1.53364 2.1346,-2.88384 3.6461,-3.69449 1.04346,-0.55963 1.46178,-0.63696 3.44427,-0.63696 1.98246,0 2.4008,0.0772 3.44423,0.63696 1.51153,0.81065 2.8441,2.16085 3.6461,3.69449 l 0.62959,1.20384 0,17.6963 0,17.69623 -0.6319,1.20381 c -0.81246,1.54787 -1.82043,2.5715 -3.47992,3.53382 -1.14515,0.66413 -1.5947,0.78047 -3.24081,0.83893 -1.05127,0.0375 -2.17851,-0.0191 -2.50511,-0.13058 z m 45.60687,0 c -2.10033,-0.6992 -3.91012,-2.24974 -4.95249,-4.243 l -0.62959,-1.20381 0,-17.69623 0,-17.6963 0.62959,-1.20384 c 0.80203,-1.53364 2.13457,-2.88384 3.6461,-3.69449 1.04339,-0.55963 1.46171,-0.63696 3.44427,-0.63696 1.98249,0 2.40077,0.0772 3.44423,0.63696 1.51302,0.81148 2.8455,2.16241 3.64385,3.69449 l 0.62733,1.20384 0.15504,16.01095 c 0.0855,8.80596 0.0619,16.79416 -0.0512,17.75155 -0.3475,2.94281 -1.86621,5.20265 -4.37532,6.51037 -0.92429,0.48186 -1.6091,0.63515 -3.08797,0.69164 -1.04514,0.04 -2.16752,-0.0191 -2.49412,-0.12549 z m -56.14138,-8.3208 c -4.56251,-1.6469 -8.20591,-5.40455 -9.70245,-10.00697 -0.38518,-1.18429 -0.52649,-2.29711 -0.58139,-4.57455 l -0.0721,-3.00956 -1.86291,-3.73185 c -3.8683,-7.74944 -5.75071,-15.67686 -5.75071,-24.21877 0,-4.39823 0.28847,-7.34597 1.10595,-11.29017 3.90185,-18.83211 17.61039,-34.3166 35.71611,-40.34321 5.44874,-1.81367 10.6411,-2.63747 16.62355,-2.63747 4.24449,0 7.17103,0.29674 11.0415,1.12098 10.15641,2.16193 19.28811,7.20058 26.74117,14.75489 13.85506,14.04343 18.96812,34.06299 13.60671,53.27472 -0.87851,3.14798 -2.3053,6.7022 -4.03894,10.06133 l -1.55318,3.00955 0.0346,2.3212 c 0.0591,3.93699 -1.07885,7.38173 -3.43137,10.38814 -2.02366,2.58619 -6.33497,5.19893 -8.75376,5.30485 l -0.9857,0.0435 0,-15.28857 0,-15.28866 0.9857,0.0432 c 1.36374,0.0594 4.19881,1.31198 5.894,2.60344 0.7791,0.59343 1.49927,0.99507 1.60039,0.89255 0.32667,-0.33111 2.07612,-5.25695 2.68547,-7.56104 1.33966,-5.06646 1.80487,-12.47558 1.10046,-17.52668 -2.12978,-15.27198 -11.36638,-28.29384 -24.92853,-35.14438 -4.07153,-2.05667 -9.35459,-3.70034 -14.06033,-4.37459 -2.59908,-0.37235 -9.27768,-0.37235 -11.87676,0 -15.06719,2.15878 -27.91432,11.52097 -34.67298,25.26751 -4.39349,8.93593 -5.74271,19.38583 -3.78312,29.2993 0.47331,2.39436 1.86033,6.9054 2.79434,9.08852 l 0.4892,1.14325 1.87368,-1.29314 c 2.08631,-1.43995 4.19067,-2.33679 5.62586,-2.39766 l 0.95024,-0.0404 0,15.28869 0,15.28854 -0.59391,0.0607 c -0.3266,0.033 -1.3259,-0.20428 -2.2207,-0.52685 z"
       id="path5346"
       inkscape:connector-curvature="0" />
    <rect
       y="522.11151"
       x="624.00354"
       height="112.57145"
       width="90.057159"
       id="rect5381"
       style="fill:#00ffff;fill-opacity:1;stroke:none" />
    <path
       inkscape:connector-curvature="0"
       id="path5373"
       d="m 664.38491,628.98689 c -0.68732,-0.32446 -0.7889,-1.46378 -0.62845,-7.05527 0.19115,-6.66103 0.18997,-6.66961 -1.21426,-7.91566 -2.15234,-1.90979 -2.52958,-3.08547 -2.52958,-7.88278 l 0,-4.42848 -2.86926,-0.45145 c -6.14314,-0.96655 -8.08071,-1.67733 -11.59938,-4.2549 -3.75442,-2.75043 -6.35154,-6.14085 -7.32446,-9.56204 -0.35202,-1.23658 -0.61511,-6.0965 -0.61511,-11.35049 l 0,-9.18802 -1.57276,-0.98815 c -0.96863,-0.60859 -1.80848,-1.68678 -2.18615,-2.80688 -0.76448,-2.26684 -0.80664,-8.66531 -0.0596,-9.01014 0.30494,-0.14112 16.00824,-0.34949 34.89678,-0.46409 31.41214,-0.19074 34.41977,-0.15104 35.24443,0.46477 0.68394,0.51061 0.8984,1.4296 0.88852,3.80661 -0.0228,4.34626 -0.66052,6.04281 -2.95139,7.79455 l -1.95441,1.49445 -0.01,9.5726 c -0.01,12.61812 -0.8569,14.97551 -7.05483,19.60323 -3.55047,2.65095 -6.07765,3.71984 -11.34557,4.79841 l -3.72801,0.76329 -0.032,4.75448 c -0.032,4.66948 -0.0653,4.78737 -1.77619,6.6005 l -1.7427,1.84607 0,6.63974 c 0,4.62015 -0.19986,6.78862 -0.6559,7.1294 -0.78402,0.58545 -7.98296,0.65614 -9.18194,0.0899 z m 10.02622,-44.13391 c 4.70588,-3.73241 8.55613,-6.99199 8.55613,-7.24339 0,-0.31407 -2.21569,-0.45719 -7.07271,-0.45719 -3.94037,0 -7.21665,-0.17369 -7.39778,-0.39288 -0.17847,-0.21557 1.39767,-2.73133 3.5031,-5.58979 2.10558,-2.85845 3.74396,-5.26008 3.64094,-5.337 -0.22775,-0.17059 -19.65253,14.48399 -19.90934,15.02005 -0.10654,0.22144 2.63229,0.38261 6.55843,0.38665 3.70733,0.003 7.10956,0.18051 7.56027,0.39332 0.68999,0.3258 0.27918,1.19726 -2.59596,5.50695 -3.51444,5.26806 -4.16934,6.71083 -2.40752,5.3045 0.55444,-0.44257 4.85845,-3.85864 9.56444,-7.59105 z m -27.65205,-34.25829 c -0.86055,-0.3741 -0.95657,-1.23607 -0.95657,-8.59759 0,-6.7271 0.15922,-8.43155 0.89357,-9.58749 2.17322,-3.41949 8.7782,-3.42729 11.22525,-0.0122 0.88537,1.23523 0.64011,17.88837 -0.26992,18.32045 -0.96206,0.45686 -9.78877,0.35802 -10.89233,-0.12221 z m 32.76422,-0.22641 c -0.21025,-0.15662 -0.38166,-3.93618 -0.38166,-8.39879 0,-8.67086 0.28064,-9.76484 2.85117,-11.10916 0.66977,-0.35034 2.29446,-0.63684 3.61032,-0.63684 1.9949,0 2.7031,0.23168 4.26172,1.39566 l 1.86922,1.39568 -0.14836,8.70427 -0.14749,8.7042 -5.76687,0.11507 c -3.1717,0.0631 -5.93861,-0.0121 -6.14857,-0.16996 z"
       style="fill:#ffffff;fill-opacity:1;stroke:none" />
    <path
       inkscape:connector-curvature="0"
       id="path5375"
       d="m 363.55905,308.3178 c -1.98642,-2.06295 -2.16681,-2.99179 -5.60772,-28.87181 -5.19829,-39.09588 -7.26814,-53.00146 -8.01282,-53.8297 -0.41118,-0.4586 -0.66204,-0.38848 -0.66204,0.18321 0,1.37822 -7.23333,44.67419 -8.50663,50.91748 -1.24629,6.11086 -2.94311,8.15306 -6.77416,8.15306 -3.40092,0 -5.3738,-2.53506 -6.3339,-8.13842 -0.79672,-4.64996 -4.54269,-34.79334 -4.5511,-36.6228 -0.0114,-2.76277 -1.48947,-0.10292 -4.08947,7.36337 -5.06505,14.5475 -6.71689,17.24564 -10.55817,17.24564 -3.84043,0 -5.51251,-2.35383 -8.53467,-12.01391 -2.20975,-7.06334 -1.99472,-6.82629 -4.47045,-4.9288 -1.97658,1.51472 -3.15217,1.65185 -14.88218,1.73655 -14.93688,0.10688 -15.41831,-0.0944 -15.41831,-6.49628 0,-5.85414 1.01386,-6.50036 10.66315,-6.79457 11.60012,-0.35229 10.81523,0.0894 13.65956,-7.72188 5.42839,-14.90889 12.17207,-14.90329 16.85869,0.0113 1.16536,3.70936 2.36364,6.4844 2.66296,6.16656 0.29971,-0.3178 2.62115,-6.68148 5.15962,-14.14172 6.54786,-19.24248 7.49182,-20.9273 11.72682,-20.9273 5.48265,0 6.15147,1.38371 8.15841,16.87876 0.67785,5.23359 1.35531,9.3881 1.50545,9.23237 0.15071,-0.15607 2.11443,-11.52144 4.36501,-25.25732 2.25053,-13.73599 4.44549,-26.33596 4.87777,-27.99991 1.34155,-5.16398 6.06053,-7.00413 9.9108,-3.86459 2.30762,1.8816 2.10738,0.76373 8.4348,47.09729 2.65295,19.42698 4.9931,35.49724 5.20018,35.71206 0.20815,0.21544 0.37705,0.20639 0.37705,-0.017 0,-0.22675 0.34465,-2.2897 0.76743,-4.5859 0.42199,-2.29643 2.44019,-14.9444 4.48462,-28.10706 2.04453,-13.16244 4.11472,-25.3068 4.60046,-26.98726 0.99491,-3.44275 3.02665,-5.27442 5.84965,-5.27442 4.86019,0 5.79806,2.0686 13.52919,29.84079 5.08069,18.25138 7.23687,25.19009 7.82753,25.19009 0.16266,0 1.69245,-1.56935 3.39826,-3.48788 l 3.10149,-3.48787 10.74676,0 c 9.7499,0 10.8854,0.14476 12.24224,1.55024 1.95684,2.02856 2.04084,7.65617 0.15071,10.07604 -1.20112,1.5378 -2.22971,1.76529 -9.61301,2.12815 l -8.26783,0.406 -3.65912,7.75333 c -4.53154,9.60156 -6.69721,12.18982 -10.19908,12.18982 -4.50595,0 -5.06755,-1.17453 -11.75685,-24.59334 -2.58499,-9.05029 -4.94676,-16.29723 -5.24806,-16.10424 -0.30199,0.1917 -0.75253,1.84281 -1.00288,3.66617 -1.80214,13.12291 -11.15207,71.24085 -11.78517,73.2546 -0.94833,3.01678 -3.94126,5.63134 -6.446,5.63134 -1.00436,0 -2.74958,-0.95903 -3.87848,-2.13136 z M 327.06189,153.13451 c -3.21285,-2.03071 -5.4512,-6.76042 -5.4512,-11.51873 0,-5.843 4.08213,-13.56804 11.09872,-21.0034 6.1273,-6.49278 9.36239,-8.57733 15.71939,-10.12869 10.46125,-2.55299 19.75835,0.9354 28.67366,10.75918 11.98184,13.20264 13.96336,25.48312 5.10992,31.66783 -5.06658,3.53921 -9.96004,1.48011 -14.00311,-5.8922 -2.73814,-4.99298 -6.77711,-9.22722 -9.78266,-10.25546 -6.09476,-2.08512 -12.23867,1.09367 -16.29669,8.43166 -1.11002,2.00718 -3.22098,4.95735 -4.69105,6.55605 -3.13324,3.40729 -6.47109,3.85243 -10.37698,1.38376 z m -34.02642,-19.05904 c -2.91405,-1.63952 -5.82013,-7.16337 -5.82013,-11.06267 0,-7.33149 5.98796,-17.7661 17.05182,-29.714917 11.17995,-12.07419 19.31026,-17.60799 32.29804,-21.98376 5.73284,-1.93147 7.4548,-2.14777 17.57152,-2.20675 8.71257,-0.0509 12.21723,0.24259 15.70221,1.31319 14.15661,4.34988 22.61382,9.80084 34.08807,21.97064 15.24815,16.172147 20.58396,27.831907 16.6601,36.403747 -1.32466,2.89367 -6.41956,6.48514 -9.19956,6.48514 -2.89926,0 -5.85596,-2.93445 -10.8204,-10.739 -6.16875,-9.69786 -10.69483,-14.87016 -17.07969,-19.51803 -19.02391,-13.848857 -40.76936,-13.192177 -60.02565,1.81261 -5.38068,4.19268 -9.18483,8.75273 -14.68614,17.60426 -6.42433,10.3365 -10.2891,12.70226 -15.74019,9.63554 z m -25.49602,-22.80058 c -1.8642,-1.69658 -3.12607,-3.81624 -4.01776,-6.74831 -1.27489,-4.19262 -1.26767,-4.37052 0.37593,-9.249947 5.04388,-14.98121 22.1357,-37.20796 38.35225,-49.87465 7.29976,-5.7018 20.2198,-12.37881 29.45582,-15.22278 5.71332,-1.75923 8.56265,-2.12836 18.86979,-2.44481 14.81757,-0.45633 21.62801,0.47726 32.50113,4.44708 14.16832,5.17343 24.5338,12.29501 37.23455,25.58219 4.3181,4.51748 10.11667,11.51183 12.88552,15.54323 5.78778,8.42691 12.40383,21.48417 13.04454,25.74521 0.93679,6.228187 -3.77633,13.529137 -9.20974,14.266787 -4.60063,0.62535 -7.12982,-1.78926 -13.12648,-12.53007 -11.59864,-20.774557 -22.38622,-31.756767 -39.48474,-40.196907 -11.9993,-5.92313 -17.20817,-6.9693 -32.39069,-6.50567 -13.41056,0.4094 -17.98549,1.49171 -27.80108,6.57511 -16.31034,8.44699 -26.75505,19.15788 -38.58987,39.572967 -3.12953,5.39837 -6.52335,10.46006 -7.54197,11.24844 -1.01869,0.78843 -3.19909,1.62063 -4.84541,1.84954 -2.59642,0.36303 -3.35355,0.0876 -5.711,-2.05741 z"
       style="fill:#90d200;fill-opacity:1;stroke:#000000;stroke-width:2.445;stroke-miterlimit:4;stroke-opacity:1;stroke-dasharray:none" />
    <path
       inkscape:connector-curvature="0"
       id="path5377"
       d="m 611.49525,310.22153 c -7.43493,-1.58907 -15.80001,-5.61369 -22.40605,-10.7799 -9.45866,-7.39691 -21.28387,-24.37676 -21.28387,-30.56142 0,-5.51546 4.87831,-9.07761 8.48886,-6.19872 0.69188,0.55197 2.25131,2.84678 3.46557,5.10045 8.26637,15.34273 19.96636,25.05442 33.71613,27.9862 4.34529,0.9266 11.97468,0.94419 16.1947,0.0354 13.89976,-2.98711 26.42251,-13.53848 33.78017,-28.46237 2.85552,-5.79214 6.29712,-7.19862 9.75502,-3.98648 1.65465,1.53718 1.82319,1.94481 2.00584,4.85245 0.1836,2.92677 0.0473,3.47566 -1.77089,7.03385 -7.19856,14.10114 -19.69232,26.56999 -31.76588,31.70249 -7.14485,3.03746 -9.99588,3.60985 -18.88888,3.79215 -5.56233,0.11334 -9.09939,-0.0473 -11.29072,-0.51595 z m 1.37826,-24.17835 c -6.87116,-1.71269 -13.53341,-5.44539 -18.93705,-10.60983 -5.62101,-5.37211 -11.87503,-15.29981 -11.88814,-18.87122 -0.0177,-4.38626 2.90776,-7.59244 6.51673,-7.14579 2.44417,0.30343 2.76241,0.61584 5.51344,5.43015 2.76821,4.84448 8.97902,11.3752 12.99868,13.66818 8.8822,5.0668 18.05757,5.25417 27.49043,0.562 5.42295,-2.69796 11.0609,-8.25851 14.46579,-14.26696 2.58066,-4.55415 3.82627,-5.67024 6.3284,-5.67024 3.42325,0 5.71434,2.9678 5.71434,7.402 0,1.94976 -0.4209,3.17341 -2.14746,6.24469 -10.29984,18.32068 -28.66137,27.59321 -46.05516,23.25761 z m 4.5287,-23.17083 c -5.19153,-1.41426 -10.149,-5.77237 -13.20984,-11.6128 -2.66229,-5.07997 -2.61855,-8.74548 0.14051,-11.71015 2.91372,-3.13156 6.67605,-2.18661 8.88462,2.23147 2.35455,4.70982 5.13356,6.95983 8.59618,6.95983 2.92706,0 5.84351,-2.38549 7.8333,-6.40733 1.55512,-3.14308 3.22199,-4.53993 5.41775,-4.53993 3.33805,0 5.88536,3.19473 5.88536,7.38128 0,4.79683 -6.60687,13.91252 -11.88401,16.39665 -4.54635,2.14014 -7.4099,2.45958 -11.66304,1.30098 z M 571.73248,250.7923 c -4.34062,-1.44515 -8.08082,-4.64961 -10.23513,-8.76927 l -1.30092,-2.48792 0,-36.57418 0,-36.57406 1.30092,-2.48797 c 1.65755,-3.16964 4.41153,-5.96027 7.53518,-7.63565 2.15637,-1.15665 3.02092,-1.31651 7.11804,-1.31651 4.0971,0 4.96172,0.15998 7.11804,1.31651 3.12364,1.67538 5.87762,4.46601 7.53511,7.63565 l 1.30098,2.48797 0,36.57406 0,36.57418 -1.30576,2.48792 c -1.67904,3.19915 -3.7621,5.31467 -7.19178,7.30364 -2.36648,1.37259 -3.29555,1.61303 -6.69754,1.73387 -2.17244,0.0773 -4.50214,-0.0413 -5.17714,-0.26801 z m 94.25259,0 c -4.34062,-1.44515 -8.08069,-4.64961 -10.23501,-8.76927 l -1.30104,-2.48792 0,-36.57418 0,-36.57406 1.30104,-2.48797 c 1.65743,-3.16964 4.41135,-5.96027 7.53506,-7.63565 2.15637,-1.15665 3.02099,-1.31651 7.11804,-1.31651 4.09705,0 4.96166,0.15998 7.11804,1.31651 3.12689,1.67709 5.88057,4.46914 7.53045,7.63565 l 1.29649,2.48797 0.32056,33.0909 c 0.17592,18.19995 0.12869,34.7096 -0.10449,36.68835 -0.71809,6.08206 -3.85679,10.75274 -9.04218,13.45554 -1.91016,0.99572 -3.32531,1.31273 -6.38166,1.42932 -2.15993,0.0827 -4.47948,-0.0354 -5.15447,-0.25857 z M 549.96153,233.59521 c -9.42897,-3.40377 -16.95848,-11.17006 -20.05137,-20.68209 -0.79583,-2.4476 -1.08811,-4.74749 -1.2014,-9.45453 l -0.14994,-6.22002 -3.84988,-7.71299 c -7.99446,-16.0163 -11.8846,-32.40044 -11.8846,-50.05445 0,-9.09018 0.59695,-15.18239 2.28561,-23.33423 8.0637,-38.921587 36.39401,-70.924377 73.81195,-83.379887 11.26056,-3.7484 21.99134,-5.45105 34.35482,-5.45105 8.77175,0 14.8198,0.61407 22.81856,2.31678 20.98965,4.46826 39.86153,14.88185 55.26424,30.49489 28.63314,29.02437 39.20011,70.400217 28.11997,110.106427 -1.81552,6.5061 -4.76414,13.85183 -8.34701,20.79437 l -3.2099,6.22014 0.072,4.79731 c 0.12162,8.13684 -2.22952,15.25635 -7.09129,21.47 -4.18224,5.34497 -13.09207,10.74483 -18.09081,10.96385 l -2.03713,0.0891 0,-31.598 0,-31.59787 2.03713,0.0891 c 2.81839,0.12279 8.67724,2.71153 12.18071,5.38062 1.60997,1.22654 3.09839,2.05667 3.30742,1.84474 0.67505,-0.68426 4.29063,-10.86491 5.54964,-15.62686 2.76874,-10.47121 3.73028,-25.78412 2.27451,-36.22351 -4.40161,-31.563757 -23.49014,-58.476717 -51.51814,-72.635357 -8.41442,-4.25059 -19.33246,-7.64769 -29.05748,-9.04117 -5.3713,-0.76968 -19.17366,-0.76968 -24.54495,0 -31.13824,4.4617 -57.68845,23.81104 -71.65617,52.22204 -9.07973,18.468447 -11.86818,40.065897 -7.81824,60.554827 0.97819,4.94855 3.84451,14.27185 5.77491,18.7838 l 1.01095,2.36282 3.87202,-2.67257 c 4.31176,-2.97612 8.66071,-4.82966 11.62679,-4.95541 l 1.96352,-0.0832 0,31.59788 0,31.59799 -1.22713,0.12456 c -0.67511,0.0691 -2.74028,-0.42091 -4.58951,-1.0887 z"
       style="fill:#0000ce;fill-opacity:1;stroke:#000000;stroke-width:2.1;stroke-miterlimit:4;stroke-opacity:1;stroke-dasharray:none" />
    <rect
       y="489.00098"
       x="428.66974"
       height="157.60004"
       width="129.45717"
       id="rect3000"
       style="fill:#0071ec;fill-opacity:1;stroke:none" />
    <path
       style="fill:#ffffff;fill-opacity:1;stroke:none"
       d="m 499.27991,639.29862 c -1.28752,-1.05896 -1.4044,-1.53596 -3.63473,-14.8217 -3.36926,-20.07051 -4.71085,-27.20914 -5.19347,-27.63439 -0.26687,-0.23319 -0.42906,-0.19824 -0.42906,0.0969 0,0.70762 -4.68835,22.93428 -5.51368,26.13919 -0.80779,3.13727 -1.90761,4.18569 -4.39073,4.18569 -2.20428,0 -3.48303,-1.30153 -4.10528,-4.1781 -0.51642,-2.38708 -2.94436,-17.86166 -2.94982,-18.80079 -0.01,-1.41844 -0.96537,-0.0553 -2.65059,3.78008 -3.28291,7.46821 -4.35359,8.85336 -6.84336,8.85336 -2.48919,0 -3.57296,-1.20838 -5.53175,-6.16754 -1.4323,-3.62615 -1.29292,-3.5045 -2.89757,-2.53021 -1.2811,0.77758 -2.04308,0.84801 -9.6459,0.89138 -9.68142,0.0578 -9.99346,-0.0499 -9.99346,-3.33501 0,-3.00524 0.65713,-3.33698 6.91137,-3.48808 7.51867,-0.18268 7.00996,0.0467 8.85352,-3.96406 3.51842,-7.65378 7.88933,-7.65092 10.92697,0.01 0.75534,1.90434 1.53205,3.32882 1.72601,3.1658 0.1938,-0.16298 1.69891,-3.43016 3.34429,-7.25989 4.24392,-9.87846 4.85581,-10.74337 7.60075,-10.74337 3.55362,0 3.98706,0.71032 5.28792,8.665 0.43935,2.68654 0.87845,4.8195 0.97576,4.73947 0.0972,-0.0797 1.37047,-5.91456 2.82913,-12.96614 1.45876,-7.05157 2.88146,-13.51998 3.16164,-14.37422 0.86949,-2.65096 3.92813,-3.59558 6.42365,-1.98401 1.49577,0.96603 1.36602,0.39223 5.46713,24.17814 1.7195,9.9731 3.23627,18.22305 3.37053,18.33333 0.13375,0.10833 0.24431,0.10388 0.24431,-0.01 0,-0.11532 0.22398,-1.17546 0.4974,-2.35432 0.27322,-1.17887 1.58155,-7.67189 2.90675,-14.42922 1.32516,-6.75713 2.66694,-12.99155 2.98178,-13.85417 0.64487,-1.76741 1.96172,-2.70777 3.79155,-2.70777 3.15011,0 3.75797,1.06191 8.76895,15.31925 3.29317,9.3696 4.69061,12.93167 5.07347,12.93167 0.10579,0 1.09686,-0.8056 2.20256,-1.79057 l 2.01026,-1.79053 6.96554,0 c 6.31941,0 7.05546,0.0731 7.93482,0.79574 1.26836,1.04152 1.32282,3.93058 0.0972,5.17279 -0.77849,0.78939 -1.44522,0.90615 -6.2307,1.09251 l -5.3588,0.20905 -2.37174,3.98032 c -2.93715,4.92905 -4.34079,6.25784 -6.61048,6.25784 -2.9206,0 -3.28459,-0.60306 -7.6203,-12.62531 -1.67546,-4.64607 -3.20618,-8.36638 -3.40153,-8.26729 -0.19507,0.10039 -0.48777,0.94602 -0.65005,1.88193 -1.16806,6.73699 -7.22829,36.5727 -7.6386,37.6066 -0.61462,1.5487 -2.55454,2.8908 -4.178,2.8908 -0.65094,0 -1.78214,-0.4925 -2.51384,-1.0942 z M 475.6241,559.63306 c -2.08241,-1.04257 -3.5332,-3.47067 -3.5332,-5.91341 0,-2.99955 2.64582,-6.96535 7.19369,-10.78238 3.97137,-3.3331 6.06823,-4.40328 10.18847,-5.19976 6.78067,-1.31058 12.80655,0.48033 18.58504,5.52343 7.76606,6.77782 9.05036,13.08216 3.31201,16.25718 -3.28393,1.81687 -6.45567,0.75988 -9.07614,-3.0249 -1.77471,-2.56322 -4.39267,-4.7369 -6.34065,-5.2648 -3.95037,-1.0704 -7.93251,0.56145 -10.56282,4.32853 -0.71953,1.03037 -2.08768,2.54492 -3.0405,3.36564 -2.03085,1.7492 -4.1943,1.97778 -6.7259,0.71047 z m -22.05434,-9.78432 c -1.88877,-0.84165 -3.77242,-3.67743 -3.77242,-5.67926 0,-3.76356 3.88117,-9.12049 11.05226,-15.25451 7.24633,-6.19855 12.51602,-9.03931 20.93413,-11.28569 3.71577,-0.99151 4.83183,-1.10258 11.38903,-1.13289 5.64705,-0.0318 7.91865,0.12486 10.17751,0.67413 9.17557,2.23316 14.65719,5.03148 22.09427,11.27901 9.88307,8.30231 13.34157,14.28797 10.7983,18.68833 -0.85859,1.48551 -4.16091,3.32926 -5.96278,3.32926 -1.87914,0 -3.79549,-1.50639 -7.0132,-5.51302 -3.99834,-4.97845 -6.9319,-7.6337 -11.07029,-10.01993 -12.33047,-7.10946 -26.42483,-6.77244 -38.90587,0.93062 -3.4875,2.15242 -5.95318,4.49331 -9.51891,9.03734 -4.16395,5.3065 -6.66887,6.52095 -10.20203,4.94661 z m -16.52532,-11.70495 c -1.20825,-0.87105 -2.02624,-1.95927 -2.60417,-3.46441 -0.82631,-2.1523 -0.82167,-2.24371 0.24273,-4.74866 3.26921,-7.69076 14.34737,-19.10127 24.85828,-25.60379 4.73131,-2.92721 13.10548,-6.3549 19.0918,-7.81486 3.70316,-0.90313 5.54993,-1.09258 12.23047,-1.25511 9.60408,-0.23193 14.01836,0.24494 21.06577,2.28297 9.18333,2.65586 15.9017,6.31187 24.13376,13.13305 2.79886,2.31913 6.55718,5.90976 8.35178,7.97927 3.75139,4.32605 8.0396,11.0292 8.45493,13.21664 0.60709,3.19738 -2.44764,6.94537 -5.96936,7.32423 -2.98192,0.32031 -4.6212,-0.91869 -8.50802,-6.43256 -7.51765,-10.66493 -14.50969,-16.3028 -25.59211,-20.63574 -7.77746,-3.04073 -11.15358,-3.5777 -20.9942,-3.33975 -8.69209,0.21128 -11.65733,0.76582 -18.01943,3.37549 -10.57155,4.33631 -17.34133,9.8348 -25.01214,20.31524 -2.02834,2.77144 -4.22814,5.36989 -4.88838,5.77467 -0.66022,0.40466 -2.07348,0.832 -3.14052,0.94942 -1.68289,0.1849 -2.17365,0.0457 -3.70166,-1.0561 z"
       id="path4730"
       inkscape:connector-curvature="0" />
    <g
       id="g3014"
       transform="translate(-297.14286,-95.714286)">
      <rect
         style="fill:#00beff;fill-opacity:1;stroke:none"
         id="rect3016"
         width="40.748032"
         height="49.6063"
         x="325.40924"
         y="439.25354" />
      <path
         style="fill:#ffffff;fill-opacity:1;stroke:none"
         d="m 343.98375,485.55808 c -1.13238,-0.242 -2.40644,-0.85494 -3.41259,-1.64172 -1.44061,-1.12651 -3.24167,-3.71252 -3.24167,-4.65439 0,-0.83999 0.74301,-1.3825 1.29292,-0.94405 0.10537,0.084 0.34288,0.43358 0.52782,0.77678 1.25903,2.33664 3.04101,3.81569 5.13519,4.26218 0.6618,0.14111 1.82381,0.14379 2.46654,0.006 2.11703,-0.45491 4.02432,-2.06185 5.14492,-4.33469 0.43492,-0.88213 0.95913,-1.09632 1.48576,-0.60715 0.25203,0.23411 0.27768,0.29618 0.30551,0.73904 0.0281,0.44574 0.008,0.5293 -0.26973,1.0712 -1.09639,2.14755 -2.99927,4.0465 -4.83813,4.82821 -1.08822,0.46256 -1.52244,0.54971 -2.87689,0.57751 -0.84719,0.0175 -1.38591,-0.008 -1.71965,-0.0788 z m 0.2099,-3.68227 c -1.04652,-0.26085 -2.06121,-0.82929 -2.88422,-1.61585 -0.85612,-0.81813 -1.80866,-2.3301 -1.81065,-2.874 -0.003,-0.66803 0.44288,-1.15629 0.99255,-1.08828 0.37228,0.0459 0.42073,0.0937 0.83973,0.82699 0.42162,0.7378 1.36756,1.73241 1.9798,2.08161 1.3528,0.77167 2.75026,0.80019 4.18695,0.0855 0.82595,-0.41088 1.68465,-1.25771 2.20324,-2.17279 0.39303,-0.69359 0.58276,-0.86354 0.96385,-0.86354 0.52137,0 0.87031,0.45197 0.87031,1.12727 0,0.29696 -0.0643,0.48331 -0.32706,0.95107 -1.56873,2.79015 -4.3653,4.20233 -7.0145,3.54203 z m 0.68977,-3.52882 c -0.79071,-0.21539 -1.54576,-0.87914 -2.01196,-1.76859 -0.40548,-0.77366 -0.39881,-1.33191 0.0212,-1.78341 0.44379,-0.47693 1.0168,-0.33303 1.35318,0.33983 0.35862,0.71731 0.78186,1.05998 1.30924,1.05998 0.44581,0 0.89002,-0.36331 1.19308,-0.97581 0.23685,-0.47871 0.49072,-0.69143 0.82515,-0.69143 0.50841,0 0.89637,0.48656 0.89637,1.12412 0,0.73056 -1.00626,2.11884 -1.80999,2.49716 -0.69245,0.32596 -1.12859,0.3746 -1.77636,0.19815 z m -6.95579,-1.83975 c -0.66111,-0.22008 -1.23077,-0.70813 -1.55887,-1.33553 l -0.19818,-0.37891 0,-5.57008 0,-5.5701 0.19818,-0.37892 c 0.25244,-0.48273 0.67189,-0.90772 1.14765,-1.16288 0.32844,-0.17615 0.46011,-0.20049 1.08412,-0.20049 0.624,0 0.75568,0.0243 1.08411,0.20049 0.47577,0.25516 0.89521,0.68015 1.14765,1.16288 l 0.19817,0.37892 0,5.5701 0,5.57008 -0.1989,0.37891 c -0.25573,0.48721 -0.573,0.80941 -1.09534,1.11231 -0.36045,0.20904 -0.50195,0.24566 -1.02008,0.26406 -0.3309,0.0118 -0.68571,-0.006 -0.78851,-0.0411 z m 14.35525,0 c -0.6611,-0.22008 -1.23075,-0.70813 -1.55885,-1.33553 l -0.19817,-0.37891 0,-5.57008 0,-5.5701 0.19817,-0.37892 c 0.25245,-0.48273 0.67188,-0.90772 1.14765,-1.16288 0.32842,-0.17615 0.46009,-0.20049 1.08412,-0.20049 0.62401,0 0.75567,0.0243 1.08411,0.20049 0.47624,0.25542 0.89565,0.68064 1.14694,1.16288 l 0.19746,0.37892 0.0488,5.03962 c 0.0269,2.77177 0.0195,5.28614 -0.0161,5.58749 -0.10938,0.92628 -0.58741,1.63759 -1.37718,2.04921 -0.29093,0.15167 -0.50648,0.19992 -0.97197,0.2177 -0.32897,0.0126 -0.68225,-0.006 -0.78505,-0.0395 z m -17.6711,-2.61906 c -1.4361,-0.51838 -2.5829,-1.70114 -3.05395,-3.1498 -0.12124,-0.37277 -0.16572,-0.72304 -0.183,-1.43989 l -0.0227,-0.94729 -0.58637,-1.17464 c -1.21759,-2.43922 -1.8101,-4.93446 -1.8101,-7.62312 0,-1.38439 0.0908,-2.31222 0.34811,-3.5537 1.22815,-5.92761 5.54306,-10.80152 11.24203,-12.69846 1.71505,-0.57087 3.3494,-0.83017 5.23244,-0.83017 1.336,0 2.25716,0.0934 3.47543,0.35284 3.19684,0.68049 6.07114,2.26646 8.41707,4.64426 4.36103,4.42032 5.97042,10.72169 4.28286,16.76879 -0.27652,0.99086 -0.72562,2.10959 -1.2713,3.16691 l -0.48888,0.94729 0.0109,0.73062 c 0.0186,1.23921 -0.33958,2.32348 -1.08006,3.26978 -0.63697,0.81403 -1.994,1.63642 -2.75534,1.66976 l -0.31026,0.0137 0,-4.81224 0,-4.81227 0.31026,0.0136 c 0.42925,0.0187 1.32162,0.41296 1.8552,0.81946 0.24523,0.18679 0.47191,0.31321 0.50374,0.28094 0.10282,-0.10422 0.65348,-1.65468 0.84528,-2.37992 0.42167,-1.59472 0.5681,-3.92682 0.34638,-5.51671 -0.67037,-4.80702 -3.57769,-8.90579 -7.84652,-11.06207 -1.28156,-0.64736 -2.94446,-1.16472 -4.42564,-1.37695 -0.81809,-0.1172 -2.92025,-0.1172 -3.73834,0 -4.74256,0.6795 -8.78633,3.62635 -10.91369,7.95322 -1.3829,2.81268 -1.80758,6.1019 -1.19078,9.22227 0.14898,0.75365 0.58556,2.17355 0.87955,2.86071 l 0.15398,0.35985 0.58976,-0.40703 c 0.65669,-0.45324 1.31906,-0.73553 1.7708,-0.75469 l 0.2991,-0.0127 0,4.81228 0,4.81223 -0.18694,0.0191 c -0.1028,0.0104 -0.41734,-0.0643 -0.69899,-0.16583 z"
         id="path3018"
         inkscape:connector-curvature="0" />
    </g>
    <g
       transform="translate(-205.71429,-158.57143)"
       id="g3020">
      <rect
         y="508.46457"
         x="357.87402"
         height="35.433071"
         width="28.346457"
         id="rect3022"
         style="fill:#00beff;fill-opacity:1;stroke:none" />
      <path
         inkscape:connector-curvature="0"
         id="path3024"
         d="m 370.39623,542.10176 c -0.24422,-0.1046 -0.2803,-0.47194 -0.22329,-2.27475 0.0679,-2.14764 0.0675,-2.1504 -0.43142,-2.55215 -0.76463,-0.61575 -0.89867,-0.99482 -0.89867,-2.54156 l 0,-1.42783 -1.0194,-0.14556 c -2.18249,-0.31163 -2.87084,-0.54079 -4.12093,-1.37185 -1.33387,-0.88679 -2.25658,-1.97993 -2.60226,-3.08299 -0.12504,-0.39869 -0.21849,-1.96563 -0.21849,-3.65961 l 0,-2.96239 -0.55879,-0.3186 c -0.34413,-0.19622 -0.64248,-0.54385 -0.77666,-0.90499 -0.27164,-0.73087 -0.28663,-2.79386 -0.0212,-2.90504 0.10834,-0.0455 5.68737,-0.11268 12.39799,-0.14963 11.15998,-0.0615 12.22852,-0.0487 12.5215,0.14985 0.24299,0.16463 0.31918,0.46093 0.31567,1.22732 -0.008,1.40132 -0.23467,1.94832 -1.04856,2.51311 l -0.69435,0.48184 -0.003,3.08639 c -0.003,4.06832 -0.30444,4.82839 -2.50642,6.32045 -1.26139,0.85472 -2.15924,1.19934 -4.03081,1.5471 l -1.32446,0.2461 -0.0117,1.53293 c -0.0117,1.50553 -0.023,1.54354 -0.63104,2.12813 l -0.61915,0.5952 0,2.14079 c 0,1.48961 -0.071,2.18878 -0.23301,2.29865 -0.27855,0.18876 -2.83617,0.21156 -3.26211,0.029 z m 3.56206,-14.2296 c 1.67188,-1.2034 3.03979,-2.25435 3.03979,-2.33541 0,-0.10126 -0.78718,-0.1474 -2.51277,-0.1474 -1.39993,0 -2.56391,-0.056 -2.62826,-0.12668 -0.0634,-0.0695 0.49656,-0.88063 1.24459,-1.80225 0.74803,-0.92162 1.33012,-1.69595 1.29352,-1.72075 -0.0809,-0.055 -6.98206,4.66991 -7.07333,4.84275 -0.0378,0.0714 0.93523,0.12336 2.33007,0.12466 1.31714,8.6e-4 2.52585,0.0582 2.68599,0.12682 0.24513,0.10504 0.0992,0.38602 -0.9223,1.77554 -1.2486,1.69852 -1.48125,2.1637 -0.85534,1.71027 0.19702,-0.14269 1.72613,-1.24409 3.39804,-2.44749 z m -9.82412,-11.04552 c -0.30573,-0.12062 -0.3398,-0.39853 -0.3398,-2.77203 0,-2.16894 0.0565,-2.71849 0.31743,-3.09119 0.7721,-1.1025 3.11868,-1.10502 3.98807,-0.004 0.31455,0.39826 0.2274,5.76755 -0.0959,5.90686 -0.34178,0.1473 -3.4777,0.11543 -3.8698,-0.0394 z m 11.64035,-0.073 c -0.0747,-0.0505 -0.13559,-1.2691 -0.13559,-2.70793 0,-2.79565 0.0997,-3.14837 1.01293,-3.5818 0.23798,-0.11296 0.81517,-0.20533 1.28268,-0.20533 0.70873,0 0.96034,0.0747 1.51408,0.44999 l 0.66408,0.44999 -0.0527,2.80642 -0.0524,2.8064 -2.04883,0.0371 c -1.12684,0.0204 -2.10985,-0.004 -2.18444,-0.0548 z"
         style="fill:#ffffff;fill-opacity:1;stroke:none" />
    </g>
    <g
       id="g3026"
       transform="translate(-297.14286,-95.714286)">
      <rect
         y="439.00101"
         x="388.0387"
         height="49.6063"
         width="40.748032"
         id="rect3028"
         style="fill:#00beff;fill-opacity:1;stroke:none" />
      <path
         style="fill:#ffffff;fill-opacity:1;stroke:none"
         d="m 410.264,486.3088 c -0.40526,-0.33332 -0.44205,-0.48346 -1.14407,-4.66529 -1.06051,-6.31741 -1.48279,-8.56437 -1.6347,-8.69822 -0.084,-0.0734 -0.13505,-0.0624 -0.13505,0.0305 0,0.22273 -1.47571,7.21881 -1.73549,8.22759 -0.25426,0.98749 -0.60044,1.31749 -1.38203,1.31749 -0.69382,0 -1.09632,-0.40967 -1.29218,-1.3151 -0.16255,-0.75136 -0.92677,-5.62215 -0.92849,-5.91775 -0.003,-0.44647 -0.30386,-0.0174 -0.8343,1.18982 -1.03333,2.3507 -1.37034,2.78669 -2.15402,2.78669 -0.7835,0 -1.12463,-0.38035 -1.74118,-1.9413 -0.45083,-1.14137 -0.40696,-1.10308 -0.91204,-0.79641 -0.40324,0.24475 -0.64308,0.26692 -3.03615,0.28057 -3.04733,0.0182 -3.14555,-0.0157 -3.14555,-1.04973 0,-0.94593 0.20684,-1.05035 2.17543,-1.09791 2.36658,-0.0575 2.20646,0.0147 2.78674,-1.24773 1.10746,-2.40911 2.48325,-2.40821 3.43938,0.003 0.23775,0.59941 0.48223,1.04778 0.54328,0.99647 0.061,-0.0513 0.53475,-1.07968 1.05265,-2.28513 1.33582,-3.10935 1.52842,-3.38159 2.39242,-3.38159 1.11854,0 1.25497,0.22358 1.66443,2.7274 0.13829,0.84562 0.2765,1.51699 0.30713,1.4918 0.0306,-0.0251 0.43137,-1.86167 0.8905,-4.08123 0.45916,-2.21956 0.90697,-4.25556 0.99516,-4.52444 0.27368,-0.83442 1.23642,-1.13175 2.02191,-0.62449 0.47081,0.30407 0.42997,0.12346 1.72084,7.61033 0.54123,3.13914 1.01865,5.7359 1.06091,5.77061 0.0421,0.0341 0.0769,0.0327 0.0769,-0.003 0,-0.0363 0.0705,-0.36999 0.15656,-0.74105 0.086,-0.37106 0.49781,-2.41481 0.91493,-4.54175 0.41711,-2.12688 0.83945,-4.08923 0.93855,-4.36075 0.20298,-0.55631 0.61747,-0.8523 1.19343,-0.8523 0.99153,0 1.18286,0.33425 2.76012,4.8219 1.03656,2.94918 1.47642,4.07038 1.59693,4.07038 0.0333,0 0.34525,-0.25357 0.69328,-0.5636 l 0.63275,-0.56359 2.19248,0 c 1.9891,0 2.22078,0.023 2.49757,0.25047 0.39923,0.32783 0.41637,1.23719 0.0306,1.62819 -0.24504,0.24847 -0.4549,0.28522 -1.96118,0.34388 l -1.68674,0.0658 -0.74653,1.25285 c -0.9245,1.55147 -1.36631,1.96972 -2.08072,1.96972 -0.91929,0 -1.03386,-0.18982 -2.39857,-3.97395 -0.52737,-1.4624 -1.00918,-2.63341 -1.07067,-2.60222 -0.0614,0.0316 -0.15353,0.29777 -0.20461,0.59236 -0.36766,2.12054 -2.27518,11.51165 -2.40433,11.83708 -0.19346,0.48747 -0.80407,0.90991 -1.31507,0.90991 -0.20489,0 -0.56095,-0.15502 -0.79126,-0.34441 z m -7.44592,-25.07559 c -0.65546,-0.32816 -1.11211,-1.09243 -1.11211,-1.86131 0,-0.94414 0.8328,-2.19242 2.26429,-3.39387 1.25003,-1.04913 1.91004,-1.38598 3.20693,-1.63668 2.13429,-0.41252 4.031,0.15119 5.84984,1.73856 2.44445,2.13339 2.8487,4.11775 1.04249,5.11712 -1.03365,0.57188 -2.03199,0.23918 -2.85681,-0.95212 -0.55861,-0.8068 -1.38264,-1.49099 -1.99579,-1.65715 -1.24342,-0.33692 -2.49684,0.17672 -3.32476,1.36245 -0.22648,0.32432 -0.65712,0.80104 -0.95703,1.05937 -0.63923,0.55058 -1.3202,0.62253 -2.11705,0.22363 z m -6.94184,-3.07972 c -0.59451,-0.26492 -1.18741,-1.15751 -1.18741,-1.78761 0,-1.18462 1.22164,-2.87077 3.47882,-4.80152 2.28086,-1.95106 3.93955,-2.84522 6.58924,-3.55229 1.16958,-0.31209 1.52087,-0.34705 3.58482,-0.35659 1.77747,-0.01 2.49248,0.0393 3.20348,0.21219 2.88811,0.70291 4.61351,1.58371 6.95441,3.55019 3.1108,2.61324 4.1994,4.49729 3.39888,5.88235 -0.27025,0.46758 -1.30969,1.04792 -1.87685,1.04792 -0.59148,0 -1.19467,-0.47415 -2.20748,-1.73528 -1.25852,-1.56702 -2.18189,-2.40279 -3.48449,-3.15388 -3.88115,-2.23778 -8.3175,-2.1317 -12.24604,0.29292 -1.09773,0.6775 -1.87383,1.41432 -2.99618,2.8446 -1.31065,1.67028 -2.0991,2.05254 -3.2112,1.557 z m -5.20152,-3.68426 c -0.38031,-0.27417 -0.63778,-0.6167 -0.81969,-1.09046 -0.26009,-0.67746 -0.25863,-0.70623 0.0764,-1.49469 1.02902,-2.42075 4.51599,-6.01233 7.82441,-8.05907 1.48923,-0.92137 4.12509,-2.00027 6.00935,-2.45981 1.16561,-0.28427 1.7469,-0.3439 3.84967,-0.39506 3.02299,-0.073 4.41243,0.0771 6.63068,0.71859 2.89055,0.83596 5.00523,1.98673 7.59636,4.13377 0.88097,0.72997 2.06394,1.86016 2.62881,2.51156 1.18079,1.36167 2.53055,3.47156 2.66128,4.16008 0.19109,1.00641 -0.77042,2.18613 -1.87892,2.30538 -0.93859,0.10082 -1.45457,-0.28917 -2.67799,-2.02472 -2.36626,-3.3569 -4.56708,-5.13148 -8.05539,-6.49532 -2.44804,-0.9571 -3.51071,-1.12612 -6.60815,-1.05122 -2.73593,0.0665 -3.66927,0.24105 -5.67181,1.06247 -3.32751,1.3649 -5.45837,3.09561 -7.87284,6.39444 -0.63844,0.87234 -1.33085,1.69023 -1.53867,1.81764 -0.20781,0.12737 -0.65265,0.26188 -0.98851,0.29884 -0.52971,0.0582 -0.68418,0.0144 -1.16514,-0.33242 z"
         id="path3030"
         inkscape:connector-curvature="0" />
    </g>
    <g
       transform="matrix(3.1770164,0,0,3.1770164,-805.56412,-1077.141)"
       id="g3032">
      <rect
         style="fill:#00beff;fill-opacity:1;stroke:none"
         id="rect3034"
         width="40.748032"
         height="49.6063"
         x="325.40924"
         y="439.25354" />
      <path
         style="fill:#ffffff;fill-opacity:1;stroke:none"
         d="m 343.98375,485.55808 c -1.13238,-0.242 -2.40644,-0.85494 -3.41259,-1.64172 -1.44061,-1.12651 -3.24167,-3.71252 -3.24167,-4.65439 0,-0.83999 0.74301,-1.3825 1.29292,-0.94405 0.10537,0.084 0.34288,0.43358 0.52782,0.77678 1.25903,2.33664 3.04101,3.81569 5.13519,4.26218 0.6618,0.14111 1.82381,0.14379 2.46654,0.006 2.11703,-0.45491 4.02432,-2.06185 5.14492,-4.33469 0.43492,-0.88213 0.95913,-1.09632 1.48576,-0.60715 0.25203,0.23411 0.27768,0.29618 0.30551,0.73904 0.0281,0.44574 0.008,0.5293 -0.26973,1.0712 -1.09639,2.14755 -2.99927,4.0465 -4.83813,4.82821 -1.08822,0.46256 -1.52244,0.54971 -2.87689,0.57751 -0.84719,0.0175 -1.38591,-0.008 -1.71965,-0.0788 z m 0.2099,-3.68227 c -1.04652,-0.26085 -2.06121,-0.82929 -2.88422,-1.61585 -0.85612,-0.81813 -1.80866,-2.3301 -1.81065,-2.874 -0.003,-0.66803 0.44288,-1.15629 0.99255,-1.08828 0.37228,0.0459 0.42073,0.0937 0.83973,0.82699 0.42162,0.7378 1.36756,1.73241 1.9798,2.08161 1.3528,0.77167 2.75026,0.80019 4.18695,0.0855 0.82595,-0.41088 1.68465,-1.25771 2.20324,-2.17279 0.39303,-0.69359 0.58276,-0.86354 0.96385,-0.86354 0.52137,0 0.87031,0.45197 0.87031,1.12727 0,0.29696 -0.0643,0.48331 -0.32706,0.95107 -1.56873,2.79015 -4.3653,4.20233 -7.0145,3.54203 z m 0.68977,-3.52882 c -0.79071,-0.21539 -1.54576,-0.87914 -2.01196,-1.76859 -0.40548,-0.77366 -0.39881,-1.33191 0.0212,-1.78341 0.44379,-0.47693 1.0168,-0.33303 1.35318,0.33983 0.35862,0.71731 0.78186,1.05998 1.30924,1.05998 0.44581,0 0.89002,-0.36331 1.19308,-0.97581 0.23685,-0.47871 0.49072,-0.69143 0.82515,-0.69143 0.50841,0 0.89637,0.48656 0.89637,1.12412 0,0.73056 -1.00626,2.11884 -1.80999,2.49716 -0.69245,0.32596 -1.12859,0.3746 -1.77636,0.19815 z m -6.95579,-1.83975 c -0.66111,-0.22008 -1.23077,-0.70813 -1.55887,-1.33553 l -0.19818,-0.37891 0,-5.57008 0,-5.5701 0.19818,-0.37892 c 0.25244,-0.48273 0.67189,-0.90772 1.14765,-1.16288 0.32844,-0.17615 0.46011,-0.20049 1.08412,-0.20049 0.624,0 0.75568,0.0243 1.08411,0.20049 0.47577,0.25516 0.89521,0.68015 1.14765,1.16288 l 0.19817,0.37892 0,5.5701 0,5.57008 -0.1989,0.37891 c -0.25573,0.48721 -0.573,0.80941 -1.09534,1.11231 -0.36045,0.20904 -0.50195,0.24566 -1.02008,0.26406 -0.3309,0.0118 -0.68571,-0.006 -0.78851,-0.0411 z m 14.35525,0 c -0.6611,-0.22008 -1.23075,-0.70813 -1.55885,-1.33553 l -0.19817,-0.37891 0,-5.57008 0,-5.5701 0.19817,-0.37892 c 0.25245,-0.48273 0.67188,-0.90772 1.14765,-1.16288 0.32842,-0.17615 0.46009,-0.20049 1.08412,-0.20049 0.62401,0 0.75567,0.0243 1.08411,0.20049 0.47624,0.25542 0.89565,0.68064 1.14694,1.16288 l 0.19746,0.37892 0.0488,5.03962 c 0.0269,2.77177 0.0195,5.28614 -0.0161,5.58749 -0.10938,0.92628 -0.58741,1.63759 -1.37718,2.04921 -0.29093,0.15167 -0.50648,0.19992 -0.97197,0.2177 -0.32897,0.0126 -0.68225,-0.006 -0.78505,-0.0395 z m -17.6711,-2.61906 c -1.4361,-0.51838 -2.5829,-1.70114 -3.05395,-3.1498 -0.12124,-0.37277 -0.16572,-0.72304 -0.183,-1.43989 l -0.0227,-0.94729 -0.58637,-1.17464 c -1.21759,-2.43922 -1.8101,-4.93446 -1.8101,-7.62312 0,-1.38439 0.0908,-2.31222 0.34811,-3.5537 1.22815,-5.92761 5.54306,-10.80152 11.24203,-12.69846 1.71505,-0.57087 3.3494,-0.83017 5.23244,-0.83017 1.336,0 2.25716,0.0934 3.47543,0.35284 3.19684,0.68049 6.07114,2.26646 8.41707,4.64426 4.36103,4.42032 5.97042,10.72169 4.28286,16.76879 -0.27652,0.99086 -0.72562,2.10959 -1.2713,3.16691 l -0.48888,0.94729 0.0109,0.73062 c 0.0186,1.23921 -0.33958,2.32348 -1.08006,3.26978 -0.63697,0.81403 -1.994,1.63642 -2.75534,1.66976 l -0.31026,0.0137 0,-4.81224 0,-4.81227 0.31026,0.0136 c 0.42925,0.0187 1.32162,0.41296 1.8552,0.81946 0.24523,0.18679 0.47191,0.31321 0.50374,0.28094 0.10282,-0.10422 0.65348,-1.65468 0.84528,-2.37992 0.42167,-1.59472 0.5681,-3.92682 0.34638,-5.51671 -0.67037,-4.80702 -3.57769,-8.90579 -7.84652,-11.06207 -1.28156,-0.64736 -2.94446,-1.16472 -4.42564,-1.37695 -0.81809,-0.1172 -2.92025,-0.1172 -3.73834,0 -4.74256,0.6795 -8.78633,3.62635 -10.91369,7.95322 -1.3829,2.81268 -1.80758,6.1019 -1.19078,9.22227 0.14898,0.75365 0.58556,2.17355 0.87955,2.86071 l 0.15398,0.35985 0.58976,-0.40703 c 0.65669,-0.45324 1.31906,-0.73553 1.7708,-0.75469 l 0.2991,-0.0127 0,4.81228 0,4.81223 -0.18694,0.0191 c -0.1028,0.0104 -0.41734,-0.0643 -0.69899,-0.16583 z"
         id="path3036"
         inkscape:connector-curvature="0" />
    </g>
    <g
       transform="matrix(3.1770164,0,0,3.1770164,-515.09404,-1276.8392)"
       id="g3038">
      <rect
         y="508.46457"
         x="357.87402"
         height="35.433071"
         width="28.346457"
         id="rect3040"
         style="fill:#00beff;fill-opacity:1;stroke:none" />
      <path
         inkscape:connector-curvature="0"
         id="path3042"
         d="m 370.39623,542.10176 c -0.24422,-0.1046 -0.2803,-0.47194 -0.22329,-2.27475 0.0679,-2.14764 0.0675,-2.1504 -0.43142,-2.55215 -0.76463,-0.61575 -0.89867,-0.99482 -0.89867,-2.54156 l 0,-1.42783 -1.0194,-0.14556 c -2.18249,-0.31163 -2.87084,-0.54079 -4.12093,-1.37185 -1.33387,-0.88679 -2.25658,-1.97993 -2.60226,-3.08299 -0.12504,-0.39869 -0.21849,-1.96563 -0.21849,-3.65961 l 0,-2.96239 -0.55879,-0.3186 c -0.34413,-0.19622 -0.64248,-0.54385 -0.77666,-0.90499 -0.27164,-0.73087 -0.28663,-2.79386 -0.0212,-2.90504 0.10834,-0.0455 5.68737,-0.11268 12.39799,-0.14963 11.15998,-0.0615 12.22852,-0.0487 12.5215,0.14985 0.24299,0.16463 0.31918,0.46093 0.31567,1.22732 -0.008,1.40132 -0.23467,1.94832 -1.04856,2.51311 l -0.69435,0.48184 -0.003,3.08639 c -0.003,4.06832 -0.30444,4.82839 -2.50642,6.32045 -1.26139,0.85472 -2.15924,1.19934 -4.03081,1.5471 l -1.32446,0.2461 -0.0117,1.53293 c -0.0117,1.50553 -0.023,1.54354 -0.63104,2.12813 l -0.61915,0.5952 0,2.14079 c 0,1.48961 -0.071,2.18878 -0.23301,2.29865 -0.27855,0.18876 -2.83617,0.21156 -3.26211,0.029 z m 3.56206,-14.2296 c 1.67188,-1.2034 3.03979,-2.25435 3.03979,-2.33541 0,-0.10126 -0.78718,-0.1474 -2.51277,-0.1474 -1.39993,0 -2.56391,-0.056 -2.62826,-0.12668 -0.0634,-0.0695 0.49656,-0.88063 1.24459,-1.80225 0.74803,-0.92162 1.33012,-1.69595 1.29352,-1.72075 -0.0809,-0.055 -6.98206,4.66991 -7.07333,4.84275 -0.0378,0.0714 0.93523,0.12336 2.33007,0.12466 1.31714,8.6e-4 2.52585,0.0582 2.68599,0.12682 0.24513,0.10504 0.0992,0.38602 -0.9223,1.77554 -1.2486,1.69852 -1.48125,2.1637 -0.85534,1.71027 0.19702,-0.14269 1.72613,-1.24409 3.39804,-2.44749 z m -9.82412,-11.04552 c -0.30573,-0.12062 -0.3398,-0.39853 -0.3398,-2.77203 0,-2.16894 0.0565,-2.71849 0.31743,-3.09119 0.7721,-1.1025 3.11868,-1.10502 3.98807,-0.004 0.31455,0.39826 0.2274,5.76755 -0.0959,5.90686 -0.34178,0.1473 -3.4777,0.11543 -3.8698,-0.0394 z m 11.64035,-0.073 c -0.0747,-0.0505 -0.13559,-1.2691 -0.13559,-2.70793 0,-2.79565 0.0997,-3.14837 1.01293,-3.5818 0.23798,-0.11296 0.81517,-0.20533 1.28268,-0.20533 0.70873,0 0.96034,0.0747 1.51408,0.44999 l 0.66408,0.44999 -0.0527,2.80642 -0.0524,2.8064 -2.04883,0.0371 c -1.12684,0.0204 -2.10985,-0.004 -2.18444,-0.0548 z"
         style="fill:#ffffff;fill-opacity:1;stroke:none" />
    </g>
    <g
       transform="matrix(3.1770164,0,0,3.1770164,-805.56412,-1077.141)"
       id="g3044">
      <rect
         y="439.00101"
         x="388.0387"
         height="49.6063"
         width="40.748032"
         id="rect3046"
         style="fill:#00beff;fill-opacity:1;stroke:none" />
      <path
         style="fill:#ffffff;fill-opacity:1;stroke:none"
         d="m 410.264,486.3088 c -0.40526,-0.33332 -0.44205,-0.48346 -1.14407,-4.66529 -1.06051,-6.31741 -1.48279,-8.56437 -1.6347,-8.69822 -0.084,-0.0734 -0.13505,-0.0624 -0.13505,0.0305 0,0.22273 -1.47571,7.21881 -1.73549,8.22759 -0.25426,0.98749 -0.60044,1.31749 -1.38203,1.31749 -0.69382,0 -1.09632,-0.40967 -1.29218,-1.3151 -0.16255,-0.75136 -0.92677,-5.62215 -0.92849,-5.91775 -0.003,-0.44647 -0.30386,-0.0174 -0.8343,1.18982 -1.03333,2.3507 -1.37034,2.78669 -2.15402,2.78669 -0.7835,0 -1.12463,-0.38035 -1.74118,-1.9413 -0.45083,-1.14137 -0.40696,-1.10308 -0.91204,-0.79641 -0.40324,0.24475 -0.64308,0.26692 -3.03615,0.28057 -3.04733,0.0182 -3.14555,-0.0157 -3.14555,-1.04973 0,-0.94593 0.20684,-1.05035 2.17543,-1.09791 2.36658,-0.0575 2.20646,0.0147 2.78674,-1.24773 1.10746,-2.40911 2.48325,-2.40821 3.43938,0.003 0.23775,0.59941 0.48223,1.04778 0.54328,0.99647 0.061,-0.0513 0.53475,-1.07968 1.05265,-2.28513 1.33582,-3.10935 1.52842,-3.38159 2.39242,-3.38159 1.11854,0 1.25497,0.22358 1.66443,2.7274 0.13829,0.84562 0.2765,1.51699 0.30713,1.4918 0.0306,-0.0251 0.43137,-1.86167 0.8905,-4.08123 0.45916,-2.21956 0.90697,-4.25556 0.99516,-4.52444 0.27368,-0.83442 1.23642,-1.13175 2.02191,-0.62449 0.47081,0.30407 0.42997,0.12346 1.72084,7.61033 0.54123,3.13914 1.01865,5.7359 1.06091,5.77061 0.0421,0.0341 0.0769,0.0327 0.0769,-0.003 0,-0.0363 0.0705,-0.36999 0.15656,-0.74105 0.086,-0.37106 0.49781,-2.41481 0.91493,-4.54175 0.41711,-2.12688 0.83945,-4.08923 0.93855,-4.36075 0.20298,-0.55631 0.61747,-0.8523 1.19343,-0.8523 0.99153,0 1.18286,0.33425 2.76012,4.8219 1.03656,2.94918 1.47642,4.07038 1.59693,4.07038 0.0333,0 0.34525,-0.25357 0.69328,-0.5636 l 0.63275,-0.56359 2.19248,0 c 1.9891,0 2.22078,0.023 2.49757,0.25047 0.39923,0.32783 0.41637,1.23719 0.0306,1.62819 -0.24504,0.24847 -0.4549,0.28522 -1.96118,0.34388 l -1.68674,0.0658 -0.74653,1.25285 c -0.9245,1.55147 -1.36631,1.96972 -2.08072,1.96972 -0.91929,0 -1.03386,-0.18982 -2.39857,-3.97395 -0.52737,-1.4624 -1.00918,-2.63341 -1.07067,-2.60222 -0.0614,0.0316 -0.15353,0.29777 -0.20461,0.59236 -0.36766,2.12054 -2.27518,11.51165 -2.40433,11.83708 -0.19346,0.48747 -0.80407,0.90991 -1.31507,0.90991 -0.20489,0 -0.56095,-0.15502 -0.79126,-0.34441 z m -7.44592,-25.07559 c -0.65546,-0.32816 -1.11211,-1.09243 -1.11211,-1.86131 0,-0.94414 0.8328,-2.19242 2.26429,-3.39387 1.25003,-1.04913 1.91004,-1.38598 3.20693,-1.63668 2.13429,-0.41252 4.031,0.15119 5.84984,1.73856 2.44445,2.13339 2.8487,4.11775 1.04249,5.11712 -1.03365,0.57188 -2.03199,0.23918 -2.85681,-0.95212 -0.55861,-0.8068 -1.38264,-1.49099 -1.99579,-1.65715 -1.24342,-0.33692 -2.49684,0.17672 -3.32476,1.36245 -0.22648,0.32432 -0.65712,0.80104 -0.95703,1.05937 -0.63923,0.55058 -1.3202,0.62253 -2.11705,0.22363 z m -6.94184,-3.07972 c -0.59451,-0.26492 -1.18741,-1.15751 -1.18741,-1.78761 0,-1.18462 1.22164,-2.87077 3.47882,-4.80152 2.28086,-1.95106 3.93955,-2.84522 6.58924,-3.55229 1.16958,-0.31209 1.52087,-0.34705 3.58482,-0.35659 1.77747,-0.01 2.49248,0.0393 3.20348,0.21219 2.88811,0.70291 4.61351,1.58371 6.95441,3.55019 3.1108,2.61324 4.1994,4.49729 3.39888,5.88235 -0.27025,0.46758 -1.30969,1.04792 -1.87685,1.04792 -0.59148,0 -1.19467,-0.47415 -2.20748,-1.73528 -1.25852,-1.56702 -2.18189,-2.40279 -3.48449,-3.15388 -3.88115,-2.23778 -8.3175,-2.1317 -12.24604,0.29292 -1.09773,0.6775 -1.87383,1.41432 -2.99618,2.8446 -1.31065,1.67028 -2.0991,2.05254 -3.2112,1.557 z m -5.20152,-3.68426 c -0.38031,-0.27417 -0.63778,-0.6167 -0.81969,-1.09046 -0.26009,-0.67746 -0.25863,-0.70623 0.0764,-1.49469 1.02902,-2.42075 4.51599,-6.01233 7.82441,-8.05907 1.48923,-0.92137 4.12509,-2.00027 6.00935,-2.45981 1.16561,-0.28427 1.7469,-0.3439 3.84967,-0.39506 3.02299,-0.073 4.41243,0.0771 6.63068,0.71859 2.89055,0.83596 5.00523,1.98673 7.59636,4.13377 0.88097,0.72997 2.06394,1.86016 2.62881,2.51156 1.18079,1.36167 2.53055,3.47156 2.66128,4.16008 0.19109,1.00641 -0.77042,2.18613 -1.87892,2.30538 -0.93859,0.10082 -1.45457,-0.28917 -2.67799,-2.02472 -2.36626,-3.3569 -4.56708,-5.13148 -8.05539,-6.49532 -2.44804,-0.9571 -3.51071,-1.12612 -6.60815,-1.05122 -2.73593,0.0665 -3.66927,0.24105 -5.67181,1.06247 -3.32751,1.3649 -5.45837,3.09561 -7.87284,6.39444 -0.63844,0.87234 -1.33085,1.69023 -1.53867,1.81764 -0.20781,0.12737 -0.65265,0.26188 -0.98851,0.29884 -0.52971,0.0582 -0.68418,0.0144 -1.16514,-0.33242 z"
         id="path3048"
         inkscape:connector-curvature="0" />
    </g>
    <rect
       y="674.08899"
       x="231.12352"
       height="157.60004"
       width="129.45717"
       id="rect3824"
       style="fill:#ff0808;fill-opacity:1;stroke:none" />
    <path
       inkscape:connector-curvature="0"
       id="path3826"
       d="m 290.13504,821.19928 c -3.59759,-0.76883 -7.6453,-2.71616 -10.84186,-5.21577 -4.57684,-3.57894 -10.29884,-11.79473 -10.29884,-14.78707 0,-2.66866 2.36056,-4.39223 4.10763,-2.99926 0.33476,0.26687 1.08934,1.37749 1.67689,2.46784 3.99996,7.42354 9.66134,12.12251 16.31459,13.54101 2.10255,0.44831 5.79427,0.45683 7.83623,0.0191 6.72584,-1.44526 12.78533,-6.55053 16.3455,-13.77138 1.38175,-2.80255 3.04717,-3.48303 4.72028,-1.92893 0.80071,0.74377 0.8822,0.94097 0.97061,2.34794 0.0893,1.41613 0.0254,1.6816 -0.85693,3.40322 -3.48325,6.8228 -9.52873,12.8558 -15.37082,15.3393 -3.45729,1.46957 -4.83682,1.74644 -9.13993,1.83476 -2.69154,0.0556 -4.40306,-0.0254 -5.46335,-0.25035 z m 0.66685,-11.69863 c -3.32481,-0.82872 -6.5485,-2.63467 -9.16321,-5.13358 -2.71991,-2.59921 -5.74615,-7.40277 -5.75247,-9.13075 -0.01,-2.12234 1.40704,-3.67355 3.15335,-3.45748 1.18274,0.14583 1.33667,0.29769 2.66784,2.62736 1.33949,2.344 4.34476,5.5039 6.28985,6.61331 4.29787,2.45161 8.73762,2.54222 13.30201,0.27164 2.62406,-1.30538 5.35216,-3.99577 6.99973,-6.90299 1.24866,-2.20355 1.85144,-2.74348 3.06217,-2.74348 1.6564,0 2.76499,1.43591 2.76499,3.58135 0,0.94345 -0.20428,1.53548 -1.03908,3.02157 -4.98388,8.86435 -13.86863,13.35087 -22.28518,11.25308 z m 2.19141,-11.21112 c -2.5121,-0.6843 -4.9109,-2.79304 -6.39203,-5.61884 -1.28822,-2.45793 -1.26702,-4.2315 0.0673,-5.66592 1.40993,-1.51521 3.23039,-1.05804 4.29908,1.07965 1.13934,2.2789 2.48398,3.36757 4.15948,3.36757 1.41634,0 2.8276,-1.15424 3.79043,-3.10017 0.75248,-1.52086 1.55903,-2.19668 2.62152,-2.19668 1.61522,0 2.84778,1.54581 2.84778,3.57135 0,2.321 -3.19691,6.73159 -5.75037,7.93352 -2.19992,1.03558 -3.58555,1.19011 -5.64352,0.62952 z m -22.09866,-5.84491 c -2.10035,-0.6992 -3.91017,-2.24974 -4.95255,-4.243 l -0.62962,-1.20381 0,-17.69623 0,-17.6963 0.62962,-1.20384 c 0.802,-1.53364 2.1346,-2.88384 3.6461,-3.69449 1.04346,-0.55963 1.46178,-0.63696 3.44427,-0.63696 1.98246,0 2.4008,0.0772 3.44423,0.63696 1.51153,0.81065 2.8441,2.16085 3.6461,3.69449 l 0.62959,1.20384 0,17.6963 0,17.69623 -0.6319,1.20381 c -0.81246,1.54787 -1.82043,2.5715 -3.47992,3.53382 -1.14515,0.66413 -1.5947,0.78047 -3.24081,0.83893 -1.05127,0.0375 -2.17851,-0.0191 -2.50511,-0.13058 z m 45.60687,0 c -2.10033,-0.6992 -3.91012,-2.24974 -4.95249,-4.243 l -0.62959,-1.20381 0,-17.69623 0,-17.6963 0.62959,-1.20384 c 0.80203,-1.53364 2.13457,-2.88384 3.6461,-3.69449 1.04339,-0.55963 1.46171,-0.63696 3.44427,-0.63696 1.98249,0 2.40077,0.0772 3.44423,0.63696 1.51302,0.81148 2.8455,2.16241 3.64385,3.69449 l 0.62733,1.20384 0.15504,16.01095 c 0.0855,8.80596 0.0619,16.79416 -0.0512,17.75155 -0.3475,2.94281 -1.86621,5.20265 -4.37532,6.51037 -0.92429,0.48186 -1.6091,0.63515 -3.08797,0.69164 -1.04514,0.04 -2.16752,-0.0191 -2.49412,-0.12549 z m -56.14138,-8.3208 c -4.56251,-1.6469 -8.20591,-5.40455 -9.70245,-10.00697 -0.38518,-1.18429 -0.52649,-2.29711 -0.58139,-4.57455 l -0.0721,-3.00956 -1.86291,-3.73185 c -3.8683,-7.74944 -5.75071,-15.67686 -5.75071,-24.21877 0,-4.39823 0.28847,-7.34597 1.10595,-11.29017 3.90185,-18.83211 17.61039,-34.3166 35.71611,-40.34321 5.44874,-1.81367 10.6411,-2.63747 16.62355,-2.63747 4.24449,0 7.17103,0.29674 11.0415,1.12098 10.15641,2.16193 19.28811,7.20058 26.74117,14.75489 13.85506,14.04343 18.96812,34.06299 13.60671,53.27472 -0.87851,3.14798 -2.3053,6.7022 -4.03894,10.06133 l -1.55318,3.00955 0.0346,2.3212 c 0.0591,3.93699 -1.07885,7.38173 -3.43137,10.38814 -2.02366,2.58619 -6.33497,5.19893 -8.75376,5.30485 l -0.9857,0.0435 0,-15.28857 0,-15.28866 0.9857,0.0432 c 1.36374,0.0594 4.19881,1.31198 5.894,2.60344 0.7791,0.59343 1.49927,0.99507 1.60039,0.89255 0.32667,-0.33111 2.07612,-5.25695 2.68547,-7.56104 1.33966,-5.06646 1.80487,-12.47558 1.10046,-17.52668 -2.12978,-15.27198 -11.36638,-28.29384 -24.92853,-35.14438 -4.07153,-2.05667 -9.35459,-3.70034 -14.06033,-4.37459 -2.59908,-0.37235 -9.27768,-0.37235 -11.87676,0 -15.06719,2.15878 -27.91432,11.52097 -34.67298,25.26751 -4.39349,8.93593 -5.74271,19.38583 -3.78312,29.2993 0.47331,2.39436 1.86033,6.9054 2.79434,9.08852 l 0.4892,1.14325 1.87368,-1.29314 c 2.08631,-1.43995 4.19067,-2.33679 5.62586,-2.39766 l 0.95024,-0.0404 0,15.28869 0,15.28854 -0.59391,0.0607 c -0.3266,0.033 -1.3259,-0.20428 -2.2207,-0.52685 z"
       style="fill:#ffffff;fill-opacity:1;stroke:none" />
    <rect
       style="fill:#00ffff;fill-opacity:1;stroke:none"
       id="rect3828"
       width="90.057159"
       height="112.57145"
       x="624.73474"
       y="694.27539" />
    <path
       style="fill:#ffffff;fill-opacity:1;stroke:none"
       d="m 664.518,801.14129 c -0.77589,-0.33231 -0.89052,-1.49936 -0.7094,-7.22692 0.21572,-6.82308 0.21445,-6.83185 -1.37063,-8.10822 -2.42924,-1.95625 -2.85509,-3.16056 -2.85509,-8.07458 l 0,-4.53624 -3.23865,-0.46244 c -6.9338,-0.99006 -9.1207,-1.7181 -13.09226,-4.35839 -4.23773,-2.81735 -7.16919,-6.29027 -8.26742,-9.79471 -0.39726,-1.26665 -0.69415,-6.24484 -0.69415,-11.62664 l 0,-9.41156 -1.77528,-1.0122 c -1.09331,-0.6234 -2.04117,-1.72782 -2.46746,-2.87517 -0.86301,-2.32199 -0.91063,-8.87614 -0.0674,-9.22936 0.3442,-0.14455 18.06887,-0.35799 39.38862,-0.47538 35.45544,-0.19538 38.85021,-0.15472 39.78101,0.47608 0.77198,0.52303 1.01404,1.46438 1.00289,3.89922 -0.0254,4.45201 -0.74555,6.18984 -3.33129,7.98419 l -2.20596,1.53081 -0.01,9.80551 c -0.01,12.92512 -0.96721,15.33988 -7.96293,20.08018 -4.00746,2.71545 -6.85994,3.81032 -12.80595,4.91516 l -4.20783,0.78186 -0.0372,4.87014 c -0.0372,4.7831 -0.0731,4.90386 -2.00483,6.76111 l -1.96705,1.89096 0,6.80132 c 0,4.73252 -0.22557,6.95379 -0.74027,7.30285 -0.88496,0.5997 -9.01056,0.67213 -10.36378,0.0921 z m 11.31672,-45.20767 c 5.31159,-3.82322 9.65746,-7.16211 9.65746,-7.41964 0,-0.3217 -2.50088,-0.46829 -7.98311,-0.46829 -4.4476,0 -8.14558,-0.17791 -8.35002,-0.40246 -0.20143,-0.22081 1.57758,-2.79778 3.95408,-5.72578 2.3765,-2.928 4.22581,-5.38806 4.10953,-5.46685 -0.25702,-0.17474 -22.18212,14.83638 -22.47208,15.38549 -0.12009,0.22684 2.97124,0.39192 7.40267,0.39605 4.18457,0.003 8.02467,0.1849 8.53343,0.40291 0.77878,0.33371 0.31516,1.22639 -2.93016,5.64092 -3.96682,5.39623 -4.70595,6.87411 -2.71743,5.43356 0.62594,-0.45333 5.48394,-3.9525 10.79563,-7.77572 z m -31.21139,-35.0918 c -0.97131,-0.38321 -1.07955,-1.26614 -1.07955,-8.80678 0,-6.89076 0.1795,-8.63669 1.00848,-9.82076 2.45297,-3.50267 9.9081,-3.51067 12.67016,-0.0127 0.99933,1.26528 0.72246,18.3236 -0.30467,18.76619 -1.08584,0.46797 -11.04871,0.36672 -12.29442,-0.12518 z m 36.98158,-0.23192 c -0.23732,-0.16044 -0.43077,-4.03195 -0.43077,-8.60314 0,-8.88182 0.31675,-10.00242 3.2181,-11.37944 0.75606,-0.35887 2.5898,-0.65233 4.07509,-0.65233 2.25165,0 3.05102,0.23732 4.81026,1.42962 l 2.10979,1.42963 -0.16743,8.91604 -0.16647,8.91598 -6.50917,0.11787 c -3.57999,0.0648 -6.70303,-0.0127 -6.94,-0.1741 z"
       id="path3830"
       inkscape:connector-curvature="0" />
    <rect
       style="fill:#ed1717;fill-opacity:1;stroke:none"
       id="rect3832"
       width="129.45717"
       height="157.60004"
       x="430.0983"
       y="673.28668" />
    <path
       inkscape:connector-curvature="0"
       id="path3834"
       d="m 500.70848,823.58433 c -1.28752,-1.05896 -1.4044,-1.53596 -3.63473,-14.8217 -3.36926,-20.07051 -4.71085,-27.20914 -5.19347,-27.63439 -0.26687,-0.23319 -0.42906,-0.19824 -0.42906,0.0969 0,0.70762 -4.68835,22.93428 -5.51368,26.13919 -0.80779,3.13727 -1.90761,4.18569 -4.39073,4.18569 -2.20428,0 -3.48303,-1.30153 -4.10528,-4.1781 -0.51642,-2.38708 -2.94436,-17.86166 -2.94982,-18.80079 -0.01,-1.41844 -0.96537,-0.0553 -2.65059,3.78008 -3.28291,7.46821 -4.35359,8.85336 -6.84336,8.85336 -2.48919,0 -3.57296,-1.20838 -5.53175,-6.16754 -1.4323,-3.62615 -1.29292,-3.5045 -2.89757,-2.53021 -1.2811,0.77758 -2.04308,0.84801 -9.6459,0.89138 -9.68142,0.0578 -9.99346,-0.0499 -9.99346,-3.33501 0,-3.00524 0.65713,-3.33698 6.91137,-3.48808 7.51867,-0.18268 7.00996,0.0467 8.85352,-3.96406 3.51842,-7.65378 7.88933,-7.65092 10.92697,0.01 0.75534,1.90434 1.53205,3.32882 1.72601,3.1658 0.1938,-0.16298 1.69891,-3.43016 3.34429,-7.25989 4.24392,-9.87846 4.85581,-10.74337 7.60075,-10.74337 3.55362,0 3.98706,0.71032 5.28792,8.665 0.43935,2.68654 0.87845,4.8195 0.97576,4.73947 0.0972,-0.0797 1.37047,-5.91456 2.82913,-12.96614 1.45876,-7.05157 2.88146,-13.51998 3.16164,-14.37422 0.86949,-2.65096 3.92813,-3.59558 6.42365,-1.98401 1.49577,0.96603 1.36602,0.39223 5.46713,24.17814 1.7195,9.9731 3.23627,18.22305 3.37053,18.33333 0.13375,0.10833 0.24431,0.10388 0.24431,-0.01 0,-0.11532 0.22398,-1.17546 0.4974,-2.35432 0.27322,-1.17887 1.58155,-7.67189 2.90675,-14.42922 1.32516,-6.75713 2.66694,-12.99155 2.98178,-13.85417 0.64487,-1.76741 1.96172,-2.70777 3.79155,-2.70777 3.15011,0 3.75797,1.06191 8.76895,15.31925 3.29317,9.3696 4.69061,12.93167 5.07347,12.93167 0.10579,0 1.09686,-0.8056 2.20256,-1.79057 l 2.01026,-1.79053 6.96554,0 c 6.31941,0 7.05546,0.0731 7.93482,0.79574 1.26836,1.04152 1.32282,3.93058 0.0972,5.17279 -0.77849,0.78939 -1.44522,0.90615 -6.2307,1.09251 l -5.3588,0.20905 -2.37174,3.98032 c -2.93715,4.92905 -4.34079,6.25784 -6.61048,6.25784 -2.9206,0 -3.28459,-0.60306 -7.6203,-12.62531 -1.67546,-4.64607 -3.20618,-8.36638 -3.40153,-8.26729 -0.19507,0.10039 -0.48777,0.94602 -0.65005,1.88193 -1.16806,6.73699 -7.22829,36.5727 -7.6386,37.6066 -0.61462,1.5487 -2.55454,2.8908 -4.178,2.8908 -0.65094,0 -1.78214,-0.4925 -2.51384,-1.0942 z m -23.65581,-79.66556 c -2.08241,-1.04257 -3.5332,-3.47067 -3.5332,-5.91341 0,-2.99955 2.64582,-6.96535 7.19369,-10.78238 3.97137,-3.3331 6.06823,-4.40328 10.18847,-5.19976 6.78067,-1.31058 12.80655,0.48033 18.58504,5.52343 7.76606,6.77782 9.05036,13.08216 3.31201,16.25718 -3.28393,1.81687 -6.45567,0.75988 -9.07614,-3.0249 -1.77471,-2.56322 -4.39267,-4.7369 -6.34065,-5.2648 -3.95037,-1.0704 -7.93251,0.56145 -10.56282,4.32853 -0.71953,1.03037 -2.08768,2.54492 -3.0405,3.36564 -2.03085,1.7492 -4.1943,1.97778 -6.7259,0.71047 z m -22.05434,-9.78432 c -1.88877,-0.84165 -3.77242,-3.67743 -3.77242,-5.67926 0,-3.76356 3.88117,-9.12049 11.05226,-15.25451 7.24633,-6.19855 12.51602,-9.03931 20.93413,-11.28569 3.71577,-0.99151 4.83183,-1.10258 11.38903,-1.13289 5.64705,-0.0318 7.91865,0.12486 10.17751,0.67413 9.17557,2.23316 14.65719,5.03148 22.09427,11.27901 9.88307,8.30231 13.34157,14.28797 10.7983,18.68833 -0.85859,1.48551 -4.16091,3.32926 -5.96278,3.32926 -1.87914,0 -3.79549,-1.50639 -7.0132,-5.51302 -3.99834,-4.97845 -6.9319,-7.6337 -11.07029,-10.01993 -12.33047,-7.10946 -26.42483,-6.77244 -38.90587,0.93062 -3.4875,2.15242 -5.95318,4.49331 -9.51891,9.03734 -4.16395,5.3065 -6.66887,6.52095 -10.20203,4.94661 z M 438.47301,722.4295 c -1.20825,-0.87105 -2.02624,-1.95927 -2.60417,-3.46441 -0.82631,-2.1523 -0.82167,-2.24371 0.24273,-4.74866 3.26921,-7.69076 14.34737,-19.10127 24.85828,-25.60379 4.73131,-2.92721 13.10548,-6.3549 19.0918,-7.81486 3.70316,-0.90313 5.54993,-1.09258 12.23047,-1.25511 9.60408,-0.23193 14.01836,0.24494 21.06577,2.28297 9.18333,2.65586 15.9017,6.31187 24.13376,13.13305 2.79886,2.31913 6.55718,5.90976 8.35178,7.97927 3.75139,4.32605 8.0396,11.0292 8.45493,13.21664 0.60709,3.19738 -2.44764,6.94537 -5.96936,7.32423 -2.98192,0.32031 -4.6212,-0.91869 -8.50802,-6.43256 -7.51765,-10.66493 -14.50969,-16.3028 -25.59211,-20.63574 -7.77746,-3.04073 -11.15358,-3.5777 -20.9942,-3.33975 -8.69209,0.21128 -11.65733,0.76582 -18.01943,3.37549 -10.57155,4.33631 -17.34133,9.8348 -25.01214,20.31524 -2.02834,2.77144 -4.22814,5.36989 -4.88838,5.77467 -0.66022,0.40466 -2.07348,0.832 -3.14052,0.94942 -1.68289,0.1849 -2.17365,0.0457 -3.70166,-1.0561 z"
       style="fill:#ffffff;fill-opacity:1;stroke:none" />
    <rect
       style="fill:#4cff00;fill-opacity:1;stroke:none"
       id="rect3838"
       width="40.748032"
       height="49.6063"
       x="31.296841"
       y="481.93015" />
    <path
       style="fill:#ffffff;fill-opacity:1;stroke:none"
       d="m 49.87135,528.23469 c -1.13238,-0.242 -2.40644,-0.85494 -3.41259,-1.64172 -1.44061,-1.12651 -3.24167,-3.71252 -3.24167,-4.65439 0,-0.83999 0.74301,-1.3825 1.29292,-0.94405 0.10537,0.084 0.34288,0.43358 0.52782,0.77678 1.25903,2.33664 3.04101,3.81569 5.13519,4.26218 0.6618,0.14111 1.82381,0.14379 2.46654,0.006 2.11703,-0.45491 4.02432,-2.06185 5.14492,-4.33469 0.43492,-0.88213 0.95913,-1.09632 1.48576,-0.60715 0.25203,0.23411 0.27768,0.29618 0.30551,0.73904 0.0281,0.44574 0.008,0.5293 -0.26973,1.0712 -1.09639,2.14755 -2.99927,4.0465 -4.83813,4.82821 -1.08822,0.46256 -1.52244,0.54971 -2.87689,0.57751 -0.84719,0.0175 -1.38591,-0.008 -1.71965,-0.0788 z m 0.2099,-3.68227 c -1.04652,-0.26085 -2.06121,-0.82929 -2.88422,-1.61585 -0.85612,-0.81813 -1.80866,-2.3301 -1.81065,-2.874 -0.003,-0.66803 0.44288,-1.15629 0.99255,-1.08828 0.37228,0.0459 0.42073,0.0937 0.83973,0.82699 0.42162,0.7378 1.36756,1.73241 1.9798,2.08161 1.3528,0.77167 2.75026,0.80019 4.18695,0.0855 0.82595,-0.41088 1.68465,-1.25771 2.20324,-2.17279 0.39303,-0.69359 0.58276,-0.86354 0.96385,-0.86354 0.52137,0 0.87031,0.45197 0.87031,1.12727 0,0.29696 -0.0643,0.48331 -0.32706,0.95107 -1.56873,2.79015 -4.3653,4.20233 -7.0145,3.54203 z m 0.68977,-3.52882 c -0.79071,-0.21539 -1.54576,-0.87914 -2.01196,-1.76859 -0.40548,-0.77366 -0.39881,-1.33191 0.0212,-1.78341 0.44379,-0.47693 1.0168,-0.33303 1.35318,0.33983 0.35862,0.71731 0.78186,1.05998 1.30924,1.05998 0.44581,0 0.89002,-0.36331 1.19308,-0.97581 0.23685,-0.47871 0.49072,-0.69143 0.82515,-0.69143 0.50841,0 0.89637,0.48656 0.89637,1.12412 0,0.73056 -1.00626,2.11884 -1.80999,2.49716 -0.69245,0.32596 -1.12859,0.3746 -1.77636,0.19815 z m -6.95579,-1.83975 c -0.66111,-0.22008 -1.23077,-0.70813 -1.55887,-1.33553 l -0.19818,-0.37891 0,-5.57008 0,-5.5701 0.19818,-0.37892 c 0.25244,-0.48273 0.67189,-0.90772 1.14765,-1.16288 0.32844,-0.17615 0.46011,-0.20049 1.08412,-0.20049 0.624,0 0.75568,0.0243 1.08411,0.20049 0.47577,0.25516 0.89521,0.68015 1.14765,1.16288 l 0.19817,0.37892 0,5.5701 0,5.57008 -0.1989,0.37891 c -0.25573,0.48721 -0.573,0.80941 -1.09534,1.11231 -0.36045,0.20904 -0.50195,0.24566 -1.02008,0.26406 -0.3309,0.0118 -0.68571,-0.006 -0.78851,-0.0411 z m 14.35525,0 c -0.6611,-0.22008 -1.23075,-0.70813 -1.55885,-1.33553 l -0.19817,-0.37891 0,-5.57008 0,-5.5701 0.19817,-0.37892 c 0.25245,-0.48273 0.67188,-0.90772 1.14765,-1.16288 0.32842,-0.17615 0.46009,-0.20049 1.08412,-0.20049 0.62401,0 0.75567,0.0243 1.08411,0.20049 0.47624,0.25542 0.89565,0.68064 1.14694,1.16288 l 0.19746,0.37892 0.0488,5.03962 c 0.0269,2.77177 0.0195,5.28614 -0.0161,5.58749 -0.10938,0.92628 -0.58741,1.63759 -1.37718,2.04921 -0.29093,0.15167 -0.50648,0.19992 -0.97197,0.2177 -0.32897,0.0126 -0.68225,-0.006 -0.78505,-0.0395 z m -17.6711,-2.61906 c -1.4361,-0.51838 -2.5829,-1.70114 -3.05395,-3.1498 -0.12124,-0.37277 -0.16572,-0.72304 -0.183,-1.43989 l -0.0227,-0.94729 -0.58637,-1.17464 c -1.21759,-2.43922 -1.8101,-4.93446 -1.8101,-7.62312 0,-1.38439 0.0908,-2.31222 0.34811,-3.5537 1.22815,-5.92761 5.54306,-10.80152 11.24203,-12.69846 1.71505,-0.57087 3.3494,-0.83017 5.23244,-0.83017 1.336,0 2.25716,0.0934 3.47543,0.35284 3.19684,0.68049 6.07114,2.26646 8.41707,4.64426 4.36103,4.42032 5.97042,10.72169 4.28286,16.76879 -0.27652,0.99086 -0.72562,2.10959 -1.2713,3.16691 l -0.48888,0.94729 0.0109,0.73062 c 0.0186,1.23921 -0.33958,2.32348 -1.08006,3.26978 -0.63697,0.81403 -1.994,1.63642 -2.75534,1.66976 l -0.31026,0.0137 0,-4.81224 0,-4.81227 0.31026,0.0136 c 0.42925,0.0187 1.32162,0.41296 1.8552,0.81946 0.24523,0.18679 0.47191,0.31321 0.50374,0.28094 0.10282,-0.10422 0.65348,-1.65468 0.84528,-2.37992 0.42167,-1.59472 0.5681,-3.92682 0.34638,-5.51671 -0.67037,-4.80702 -3.57769,-8.90579 -7.84652,-11.06207 -1.28156,-0.64736 -2.94446,-1.16472 -4.42564,-1.37695 -0.81809,-0.1172 -2.92025,-0.1172 -3.73834,0 -4.74256,0.6795 -8.78633,3.62635 -10.91369,7.95322 -1.3829,2.81268 -1.80758,6.1019 -1.19078,9.22227 0.14898,0.75365 0.58556,2.17355 0.87955,2.86071 l 0.15398,0.35985 0.58976,-0.40703 c 0.65669,-0.45324 1.31906,-0.73553 1.7708,-0.75469 l 0.2991,-0.0127 0,4.81228 0,4.81223 -0.18694,0.0191 c -0.1028,0.0104 -0.41734,-0.0643 -0.69899,-0.16583 z"
       id="path3840"
       inkscape:connector-curvature="0" />
    <rect
       y="488.28403"
       x="155.1902"
       height="35.433071"
       width="28.346457"
       id="rect3844"
       style="fill:#2fea0e;fill-opacity:1;stroke:none" />
    <path
       inkscape:connector-curvature="0"
       id="path3846"
       d="m 167.7124,521.92123 c -0.24422,-0.1046 -0.2803,-0.47194 -0.22329,-2.27475 0.0679,-2.14764 0.0675,-2.1504 -0.43142,-2.55215 -0.76463,-0.61575 -0.89867,-0.99482 -0.89867,-2.54156 l 0,-1.42783 -1.0194,-0.14556 c -2.18249,-0.31163 -2.87084,-0.54079 -4.12093,-1.37185 -1.33387,-0.88679 -2.25658,-1.97993 -2.60226,-3.08299 -0.12504,-0.39869 -0.21849,-1.96563 -0.21849,-3.65961 l 0,-2.96239 -0.55879,-0.3186 c -0.34413,-0.19622 -0.64248,-0.54385 -0.77666,-0.90499 -0.27164,-0.73087 -0.28663,-2.79386 -0.0212,-2.90504 0.10834,-0.0455 5.68737,-0.11268 12.39799,-0.14963 11.15998,-0.0615 12.22852,-0.0487 12.5215,0.14985 0.24299,0.16463 0.31918,0.46093 0.31567,1.22732 -0.008,1.40132 -0.23467,1.94832 -1.04856,2.51311 l -0.69435,0.48184 -0.003,3.08639 c -0.003,4.06832 -0.30444,4.82839 -2.50642,6.32045 -1.26139,0.85472 -2.15924,1.19934 -4.03081,1.5471 l -1.32446,0.2461 -0.0117,1.53293 c -0.0117,1.50553 -0.023,1.54354 -0.63104,2.12813 l -0.61915,0.5952 0,2.14079 c 0,1.48961 -0.071,2.18878 -0.23301,2.29865 -0.27855,0.18876 -2.83617,0.21156 -3.26211,0.029 z m 3.56206,-14.2296 c 1.67188,-1.2034 3.03979,-2.25435 3.03979,-2.33541 0,-0.10126 -0.78718,-0.1474 -2.51277,-0.1474 -1.39993,0 -2.56391,-0.056 -2.62826,-0.12668 -0.0634,-0.0695 0.49656,-0.88063 1.24459,-1.80225 0.74803,-0.92162 1.33012,-1.69595 1.29352,-1.72075 -0.0809,-0.055 -6.98206,4.66991 -7.07333,4.84275 -0.0378,0.0714 0.93523,0.12336 2.33007,0.12466 1.31714,8.6e-4 2.52585,0.0582 2.68599,0.12682 0.24513,0.10504 0.0992,0.38602 -0.9223,1.77554 -1.2486,1.69852 -1.48125,2.1637 -0.85534,1.71027 0.19702,-0.14269 1.72613,-1.24409 3.39804,-2.44749 z m -9.82412,-11.04552 c -0.30573,-0.12062 -0.3398,-0.39853 -0.3398,-2.77203 0,-2.16894 0.0565,-2.71849 0.31743,-3.09119 0.7721,-1.1025 3.11868,-1.10502 3.98807,-0.004 0.31455,0.39826 0.2274,5.76755 -0.0959,5.90686 -0.34178,0.1473 -3.4777,0.11543 -3.8698,-0.0394 z m 11.64035,-0.073 c -0.0747,-0.0505 -0.13559,-1.2691 -0.13559,-2.70793 0,-2.79565 0.0997,-3.14837 1.01293,-3.5818 0.23798,-0.11296 0.81517,-0.20533 1.28268,-0.20533 0.70873,0 0.96034,0.0747 1.51408,0.44999 l 0.66408,0.44999 -0.0527,2.80642 -0.0524,2.8064 -2.04883,0.0371 c -1.12684,0.0204 -2.10985,-0.004 -2.18444,-0.0548 z"
       style="fill:#ffffff;fill-opacity:1;stroke:none;stroke-opacity:1" />
    <rect
       y="481.67761"
       x="93.9263"
       height="49.6063"
       width="40.748032"
       id="rect3850"
       style="fill:#43ea0e;fill-opacity:1;stroke:none" />
    <path
       style="fill:#ffffff;fill-opacity:1;stroke:none"
       d="m 116.1516,528.98541 c -0.40526,-0.33332 -0.44205,-0.48346 -1.14407,-4.66529 -1.06051,-6.31741 -1.48279,-8.56437 -1.6347,-8.69822 -0.084,-0.0734 -0.13505,-0.0624 -0.13505,0.0305 0,0.22273 -1.47571,7.21881 -1.73549,8.22759 -0.25426,0.98749 -0.60044,1.31749 -1.38203,1.31749 -0.69382,0 -1.09632,-0.40967 -1.29218,-1.3151 -0.16255,-0.75136 -0.92677,-5.62215 -0.92849,-5.91775 -0.003,-0.44647 -0.30386,-0.0174 -0.8343,1.18982 -1.03333,2.3507 -1.37034,2.78669 -2.15402,2.78669 -0.7835,0 -1.12463,-0.38035 -1.74118,-1.9413 -0.45083,-1.14137 -0.40696,-1.10308 -0.91204,-0.79641 -0.40324,0.24475 -0.64308,0.26692 -3.03615,0.28057 -3.04733,0.0182 -3.14555,-0.0157 -3.14555,-1.04973 0,-0.94593 0.20684,-1.05035 2.17543,-1.09791 2.36658,-0.0575 2.20646,0.0147 2.78674,-1.24773 1.10746,-2.40911 2.48325,-2.40821 3.43938,0.003 0.23775,0.59941 0.48223,1.04778 0.54328,0.99647 0.061,-0.0513 0.53475,-1.07968 1.05265,-2.28513 1.33582,-3.10935 1.52842,-3.38159 2.39242,-3.38159 1.11854,0 1.25497,0.22358 1.66443,2.7274 0.13829,0.84562 0.2765,1.51699 0.30713,1.4918 0.0306,-0.0251 0.43137,-1.86167 0.8905,-4.08123 0.45916,-2.21956 0.90697,-4.25556 0.99516,-4.52444 0.27368,-0.83442 1.23642,-1.13175 2.02191,-0.62449 0.47081,0.30407 0.42997,0.12346 1.72084,7.61033 0.54123,3.13914 1.01865,5.7359 1.06091,5.77061 0.0421,0.0341 0.0769,0.0327 0.0769,-0.003 0,-0.0363 0.0705,-0.36999 0.15656,-0.74105 0.086,-0.37106 0.49781,-2.41481 0.91493,-4.54175 0.41711,-2.12688 0.83945,-4.08923 0.93855,-4.36075 0.20298,-0.55631 0.61747,-0.8523 1.19343,-0.8523 0.99153,0 1.18286,0.33425 2.76012,4.8219 1.03656,2.94918 1.47642,4.07038 1.59693,4.07038 0.0333,0 0.34525,-0.25357 0.69328,-0.5636 l 0.63275,-0.56359 2.19248,0 c 1.9891,0 2.22078,0.023 2.49757,0.25047 0.39923,0.32783 0.41637,1.23719 0.0306,1.62819 -0.24504,0.24847 -0.4549,0.28522 -1.96118,0.34388 l -1.68674,0.0658 -0.74653,1.25285 c -0.9245,1.55147 -1.36631,1.96972 -2.08072,1.96972 -0.91929,0 -1.03386,-0.18982 -2.39857,-3.97395 -0.52737,-1.4624 -1.00918,-2.63341 -1.07067,-2.60222 -0.0614,0.0316 -0.15353,0.29777 -0.20461,0.59236 -0.36766,2.12054 -2.27518,11.51165 -2.40433,11.83708 -0.19346,0.48747 -0.80407,0.90991 -1.31507,0.90991 -0.20489,0 -0.56095,-0.15502 -0.79126,-0.34441 z m -7.44592,-25.07559 c -0.65546,-0.32816 -1.11211,-1.09243 -1.11211,-1.86131 0,-0.94414 0.8328,-2.19242 2.26429,-3.39387 1.25003,-1.04913 1.91004,-1.38598 3.20693,-1.63668 2.13429,-0.41252 4.031,0.15119 5.84984,1.73856 2.44445,2.13339 2.8487,4.11775 1.04249,5.11712 -1.03365,0.57188 -2.03199,0.23918 -2.85681,-0.95212 -0.55861,-0.8068 -1.38264,-1.49099 -1.99579,-1.65715 -1.24342,-0.33692 -2.49684,0.17672 -3.32476,1.36245 -0.22648,0.32432 -0.65712,0.80104 -0.95703,1.05937 -0.63923,0.55058 -1.3202,0.62253 -2.11705,0.22363 z m -6.94184,-3.07972 c -0.59451,-0.26492 -1.18741,-1.15751 -1.18741,-1.78761 0,-1.18462 1.22164,-2.87077 3.47882,-4.80152 2.28086,-1.95106 3.93955,-2.84522 6.58924,-3.55229 1.16958,-0.31209 1.52087,-0.34705 3.58482,-0.35659 1.77747,-0.01 2.49248,0.0393 3.20348,0.21219 2.88811,0.70291 4.61351,1.58371 6.95441,3.55019 3.1108,2.61324 4.1994,4.49729 3.39888,5.88235 -0.27025,0.46758 -1.30969,1.04792 -1.87685,1.04792 -0.59148,0 -1.19467,-0.47415 -2.20748,-1.73528 -1.25852,-1.56702 -2.18189,-2.40279 -3.48449,-3.15388 -3.88115,-2.23778 -8.3175,-2.1317 -12.24604,0.29292 -1.09773,0.6775 -1.87383,1.41432 -2.99618,2.8446 -1.31065,1.67028 -2.0991,2.05254 -3.2112,1.557 z m -5.20152,-3.68426 c -0.38031,-0.27417 -0.63778,-0.6167 -0.81969,-1.09046 -0.26009,-0.67746 -0.25863,-0.70623 0.0764,-1.49469 1.02902,-2.42075 4.51599,-6.01233 7.82441,-8.05907 1.48923,-0.92137 4.12509,-2.00027 6.00935,-2.45981 1.16561,-0.28427 1.7469,-0.3439 3.84967,-0.39506 3.02299,-0.073 4.41243,0.0771 6.63068,0.71859 2.89055,0.83596 5.00523,1.98673 7.59636,4.13377 0.88097,0.72997 2.06394,1.86016 2.62881,2.51156 1.18079,1.36167 2.53055,3.47156 2.66128,4.16008 0.19109,1.00641 -0.77042,2.18613 -1.87892,2.30538 -0.93859,0.10082 -1.45457,-0.28917 -2.67799,-2.02472 -2.36626,-3.3569 -4.56708,-5.13148 -8.05539,-6.49532 -2.44804,-0.9571 -3.51071,-1.12612 -6.60815,-1.05122 -2.73593,0.0665 -3.66927,0.24105 -5.67181,1.06247 -3.32751,1.3649 -5.45837,3.09561 -7.87284,6.39444 -0.63844,0.87234 -1.33085,1.69023 -1.53867,1.81764 -0.20781,0.12737 -0.65265,0.26188 -0.98851,0.29884 -0.52971,0.0582 -0.68418,0.0144 -1.16514,-0.33242 z"
       id="path3852"
       inkscape:connector-curvature="0" />
  </g>
</svg>
