  0
SECTION
  2
HEADER
  9
$ACADVER
  1
AC1014
  9
$HANDSEED
  5
FFFF
  9
$MEASUREMENT
 70
     1
  0
ENDSEC
  0
SECTION
  2
TABLES
  0
TABLE
  2
VPORT
  5
8
330
0
100
AcDbSymbolTable
 70
     4
  0
VPORT
  5
2E
330
8
100
AcDbSymbolTableRecord
100
AcDbViewportTableRecord
  2
*ACTIVE
 70
     0
 10
0.0
 20
0.0
 11
1.0
 21
1.0
 12
210.0
 22
148.5
 13
0.0
 23
0.0
 14
10.0
 24
10.0
 15
10.0
 25
10.0
 16
0.0
 26
0.0
 36
1.0
 17
0.0
 27
0.0
 37
0.0
 40
341.0
 41
1.24
 42
50.0
 43
0.0
 44
0.0
 50
0.0
 51
0.0
 71
     0
 72
   100
 73
     1
 74
     3
 75
     0
 76
     0
 77
     0
 78
     0
  0
ENDTAB
  0
TABLE
  2
LTYPE
  5
5
330
0
100
AcDbSymbolTable
 70
     1
  0
LTYPE
  5
14
330
5
100
AcDbSymbolTableRecord
100
AcDbLinetypeTableRecord
  2
BYBLOCK
 70
     0
  3

 72
    65
 73
     0
 40
0.0
  0
LTYPE
  5
15
330
5
100
AcDbSymbolTableRecord
100
AcDbLinetypeTableRecord
  2
BYLAYER
 70
     0
  3

 72
    65
 73
     0
 40
0.0
  0
LTYPE
  5
16
330
5
100
AcDbSymbolTableRecord
100
AcDbLinetypeTableRecord
  2
CONTINUOUS
 70
     0
  3
Solid line
 72
    65
 73
     0
 40
0.0
  0
ENDTAB
  0
TABLE
  2
LAYER
  5
2
100
AcDbSymbolTable
 70
2
  0
LAYER
  5
50
100
AcDbSymbolTableRecord
100
AcDbLayerTableRecord
  2
0
 70
0
  6
CONTINUOUS
  0
LAYER
  5
51
100
AcDbSymbolTableRecord
100
AcDbLayerTableRecord
  2
Layer_1
 70
0
  6
CONTINUOUS
  0
ENDTAB
  0
TABLE
  2
STYLE
  5
3
330
0
100
AcDbSymbolTable
 70
     1
  0
STYLE
  5
11
330
3
100
AcDbSymbolTableRecord
100
AcDbTextStyleTableRecord
  2
STANDARD
 70
     0
 40
0.0
 41
1.0
 50
0.0
 71
     0
 42
2.5
  3
txt
  4

  0
ENDTAB
  0
TABLE
  2
VIEW
  5
6
330
0
100
AcDbSymbolTable
 70
     0
  0
ENDTAB
  0
TABLE
  2
UCS
  5
7
330
0
100
AcDbSymbolTable
 70
     0
  0
ENDTAB
  0
TABLE
  2
APPID
  5
9
330
0
100
AcDbSymbolTable
 70
     2
  0
APPID
  5
12
330
9
100
AcDbSymbolTableRecord
100
AcDbRegAppTableRecord
  2
ACAD
 70
     0
  0
ENDTAB
  0
TABLE
  2
DIMSTYLE
  5
A
330
0
100
AcDbSymbolTable
 70
     1
  0
DIMSTYLE
105
27
330
A
100
AcDbSymbolTableRecord
100
AcDbDimStyleTableRecord
  2
ISO-25
 70
     0
  3

  4

  5

  6

  7

 40
1.0
 41
2.5
 42
0.625
 43
3.75
 44
1.25
 45
0.0
 46
0.0
 47
0.0
 48
0.0
140
2.5
141
2.5
142
0.0
143
0.03937007874016
144
1.0
145
0.0
146
1.0
147
0.625
 71
     0
 72
     0
 73
     0
 74
     0
 75
     0
 76
     0
 77
     1
 78
     8
170
     0
171
     3
172
     1
173
     0
174
     0
175
     0
176
     0
177
     0
178
     0
270
     2
271
     2
272
     2
273
     2
274
     3
340
11
275
     0
280
     0
281
     0
282
     0
283
     0
284
     8
285
     0
286
     0
287
     3
288
     0
  0
ENDTAB
  0
TABLE
  2
BLOCK_RECORD
  5
1
330
0
100
AcDbSymbolTable
 70
     1
  0
BLOCK_RECORD
  5
1F
330
1
100
AcDbSymbolTableRecord
100
AcDbBlockTableRecord
  2
*MODEL_SPACE
  0
BLOCK_RECORD
  5
1B
330
1
100
AcDbSymbolTableRecord
100
AcDbBlockTableRecord
  2
*PAPER_SPACE
  0
ENDTAB
  0
ENDSEC
  0
SECTION
  2
BLOCKS
  0
BLOCK
  5
20
330
1F
100
AcDbEntity
  8
0
100
AcDbBlockBegin
  2
*MODEL_SPACE
 70
     0
 10
0.0
 20
0.0
 30
0.0
  3
*MODEL_SPACE
  1

  0
ENDBLK
  5
21
330
1F
100
AcDbEntity
  8
0
100
AcDbBlockEnd
  0
BLOCK
  5
1C
330
1B
100
AcDbEntity
 67
     1
  8
0
100
AcDbBlockBegin
  2
*PAPER_SPACE
  1

  0
ENDBLK
  5
1D
330
1B
100
AcDbEntity
 67
     1
  8
0
100
AcDbBlockEnd
  0
ENDSEC
  0
SECTION
  2
ENTITIES
  0
LWPOLYLINE
  5
100
100
AcDbEntity
  8
Layer_1
 62
1
100
AcDbPolyline
 90
781
 70
0
 10
71.522319
 20
165.411182
 30
0.0
 10
70.558175
 20
165.513590
 30
0.0
 10
70.295228
 20
165.548263
 30
0.0
 10
69.602384
 20
165.715508
 30
0.0
 10
69.394832
 20
165.777662
 30
0.0
 10
68.239454
 20
166.164225
 30
0.0
 10
67.924745
 20
166.318397
 30
0.0
 10
67.741478
 20
166.402499
 30
0.0
 10
67.586070
 20
166.475315
 30
0.0
 10
67.243441
 20
166.647965
 30
0.0
 10
66.948620
 20
166.805030
 30
0.0
 10
66.430096
 20
167.097931
 30
0.0
 10
65.836024
 20
167.487613
 30
0.0
 10
65.601731
 20
167.660200
 30
0.0
 10
65.073200
 20
168.070926
 30
0.0
 10
64.734793
 20
168.350360
 30
0.0
 10
64.445817
 20
168.596927
 30
0.0
 10
63.839412
 20
169.114703
 30
0.0
 10
62.980499
 20
169.903051
 30
0.0
 10
62.433911
 20
170.396813
 30
0.0
 10
62.295027
 20
170.522125
 30
0.0
 10
62.031860
 20
170.749322
 30
0.0
 10
61.972533
 20
170.744309
 30
0.0
 10
61.924717
 20
170.675397
 30
0.0
 10
61.821588
 20
170.498695
 30
0.0
 10
61.761827
 20
170.378912
 30
0.0
 10
61.720507
 20
170.296726
 30
0.0
 10
61.474739
 20
169.871634
 30
0.0
 10
61.438068
 20
169.785263
 30
0.0
 10
61.366106
 20
169.656505
 30
0.0
 10
61.096460
 20
169.288326
 30
0.0
 10
60.939412
 20
169.070343
 30
0.0
 10
60.842615
 20
168.941980
 30
0.0
 10
60.773620
 20
168.864679
 30
0.0
 10
60.514286
 20
168.565591
 30
0.0
 10
60.217092
 20
168.240203
 30
0.0
 10
60.073142
 20
168.108708
 30
0.0
 10
59.903148
 20
167.986836
 30
0.0
 10
59.470869
 20
167.751956
 30
0.0
 10
58.868951
 20
167.690796
 30
0.0
 10
58.487810
 20
167.795926
 30
0.0
 10
58.296070
 20
167.942232
 30
0.0
 10
58.149398
 20
168.146174
 30
0.0
 10
58.051337
 20
168.401112
 30
0.0
 10
58.005430
 20
168.700403
 30
0.0
 10
58.023040
 20
169.004492
 30
0.0
 10
58.163663
 20
169.451662
 30
0.0
 10
58.296360
 20
169.702998
 30
0.0
 10
58.540396
 20
170.030652
 30
0.0
 10
58.637890
 20
170.161375
 30
0.0
 10
59.317215
 20
170.861486
 30
0.0
 10
59.556269
 20
171.057955
 30
0.0
 10
59.842730
 20
171.294503
 30
0.0
 10
60.194642
 20
171.565442
 30
0.0
 10
60.402828
 20
171.717915
 30
0.0
 10
60.449695
 20
171.749574
 30
0.0
 10
60.425356
 20
171.792122
 30
0.0
 10
60.003399
 20
172.037721
 30
0.0
 10
59.820610
 20
172.124357
 30
0.0
 10
59.573597
 20
172.239755
 30
0.0
 10
59.291276
 20
172.364751
 30
0.0
 10
59.112627
 20
172.437107
 30
0.0
 10
58.998031
 20
172.467923
 30
0.0
 10
58.933893
 20
172.482373
 30
0.0
 10
58.679342
 20
172.576043
 30
0.0
 10
58.556629
 20
172.573785
 30
0.0
 10
58.499240
 20
172.527119
 30
0.0
 10
58.096105
 20
172.065827
 30
0.0
 10
57.669811
 20
171.610050
 30
0.0
 10
57.347056
 20
171.254438
 30
0.0
 10
57.041119
 20
170.945126
 30
0.0
 10
56.654666
 20
170.563152
 30
0.0
 10
55.735638
 20
169.750984
 30
0.0
 10
55.490485
 20
169.566981
 30
0.0
 10
55.027469
 20
169.221405
 30
0.0
 10
54.913620
 20
169.145284
 30
0.0
 10
54.428799
 20
168.839333
 30
0.0
 10
54.261470
 20
168.743075
 30
0.0
 10
54.135903
 20
168.661939
 30
0.0
 10
54.072161
 20
168.625612
 30
0.0
 10
53.777340
 20
168.481029
 30
0.0
 10
53.386903
 20
168.291842
 30
0.0
 10
52.545665
 20
167.957895
 30
0.0
 10
51.578140
 20
167.756912
 30
0.0
 10
50.974381
 20
167.736346
 30
0.0
 10
50.390891
 20
167.788298
 30
0.0
 10
49.851588
 20
167.929391
 30
0.0
 10
49.490492
 20
168.079639
 30
0.0
 10
49.161957
 20
168.316378
 30
0.0
 10
48.923986
 20
168.595786
 30
0.0
 10
48.751733
 20
168.900883
 30
0.0
 10
48.647024
 20
169.402054
 30
0.0
 10
48.639510
 20
169.926041
 30
0.0
 10
48.712262
 20
170.279124
 30
0.0
 10
48.832527
 20
170.585484
 30
0.0
 10
49.110247
 20
171.106700
 30
0.0
 10
49.369952
 20
171.497863
 30
0.0
 10
49.442441
 20
171.596492
 30
0.0
 10
49.407004
 20
171.638423
 30
0.0
 10
49.291779
 20
171.664346
 30
0.0
 10
48.865297
 20
171.753969
 30
0.0
 10
48.454637
 20
171.929855
 30
0.0
 10
48.087762
 20
172.171278
 30
0.0
 10
47.792138
 20
172.501575
 30
0.0
 10
47.552583
 20
172.905693
 30
0.0
 10
47.421690
 20
173.404715
 30
0.0
 10
47.343202
 20
173.892466
 30
0.0
 10
47.332065
 20
174.366302
 30
0.0
 10
47.354723
 20
174.948347
 30
0.0
 10
47.473370
 20
175.566232
 30
0.0
 10
47.582080
 20
175.919634
 30
0.0
 10
47.713149
 20
176.273038
 30
0.0
 10
48.037513
 20
176.999975
 30
0.0
 10
48.390895
 20
177.491823
 30
0.0
 10
48.669778
 20
177.851100
 30
0.0
 10
49.068485
 20
178.308952
 30
0.0
 10
49.974424
 20
179.173077
 30
0.0
 10
50.143878
 20
179.322110
 30
0.0
 10
50.582124
 20
179.693425
 30
0.0
 10
50.886273
 20
179.931629
 30
0.0
 10
51.200152
 20
180.153534
 30
0.0
 10
51.833120
 20
180.542755
 30
0.0
 10
51.944674
 20
180.607887
 30
0.0
 10
52.056228
 20
180.687772
 30
0.0
 10
52.191683
 20
180.785819
 30
0.0
 10
52.765387
 20
181.083623
 30
0.0
 10
52.903896
 20
181.164192
 30
0.0
 10
52.998858
 20
181.212466
 30
0.0
 10
53.355031
 20
181.354319
 30
0.0
 10
54.056224
 20
181.622998
 30
0.0
 10
54.430724
 20
181.758964
 30
0.0
 10
54.930807
 20
181.900188
 30
0.0
 10
55.462692
 20
181.973665
 30
0.0
 10
55.970907
 20
181.975386
 30
0.0
 10
56.399980
 20
181.901337
 30
0.0
 10
56.497446
 20
181.888351
 30
0.0
 10
56.590698
 20
181.920302
 30
0.0
 10
56.805223
 20
182.020005
 30
0.0
 10
57.323640
 20
182.255774
 30
0.0
 10
58.310170
 20
182.620523
 30
0.0
 10
58.906842
 20
182.808571
 30
0.0
 10
59.052231
 20
182.906155
 30
0.0
 10
59.336954
 20
183.325229
 30
0.0
 10
59.423244
 20
183.442597
 30
0.0
 10
59.595791
 20
183.668796
 30
0.0
 10
59.769361
 20
183.888802
 30
0.0
 10
60.361047
 20
184.549706
 30
0.0
 10
61.082459
 20
185.174482
 30
0.0
 10
61.356311
 20
185.387554
 30
0.0
 10
61.649836
 20
185.610185
 30
0.0
 10
61.780327
 20
185.703787
 30
0.0
 10
62.218999
 20
186.005421
 30
0.0
 10
62.497657
 20
186.176549
 30
0.0
 10
62.999535
 20
186.464043
 30
0.0
 10
63.122237
 20
186.535335
 30
0.0
 10
63.254611
 20
186.609751
 30
0.0
 10
63.426727
 20
186.697686
 30
0.0
 10
63.992856
 20
186.990941
 30
0.0
 10
64.574135
 20
187.211952
 30
0.0
 10
64.993331
 20
187.370137
 30
0.0
 10
65.256280
 20
187.464950
 30
0.0
 10
65.546247
 20
187.537659
 30
0.0
 10
65.880909
 20
187.614378
 30
0.0
 10
66.096047
 20
187.655252
 30
0.0
 10
66.287280
 20
187.688662
 30
0.0
 10
66.478514
 20
187.724549
 30
0.0
 10
67.163772
 20
187.820211
 30
0.0
 10
67.753797
 20
187.877686
 30
0.0
 10
69.191087
 20
187.885701
 30
0.0
 10
69.793251
 20
187.786996
 30
0.0
 10
70.175721
 20
187.713619
 30
0.0
 10
70.506770
 20
187.623532
 30
0.0
 10
70.948629
 20
187.402279
 30
0.0
 10
71.171734
 20
187.265032
 30
0.0
 10
71.267354
 20
187.202031
 30
0.0
 10
71.506570
 20
186.978263
 30
0.0
 10
71.831962
 20
186.504395
 30
0.0
 10
71.953145
 20
186.284600
 30
0.0
 10
72.018728
 20
186.156229
 30
0.0
 10
72.168094
 20
185.748536
 30
0.0
 10
72.309513
 20
185.040980
 30
0.0
 10
72.317697
 20
184.449236
 30
0.0
 10
72.280721
 20
184.031468
 30
0.0
 10
72.233928
 20
183.727379
 30
0.0
 10
72.167883
 20
183.421498
 30
0.0
 10
72.027319
 20
183.012352
 30
0.0
 10
71.769622
 20
182.404172
 30
0.0
 10
71.648207
 20
182.165827
 30
0.0
 10
71.494881
 20
181.879817
 30
0.0
 10
71.450615
 20
181.801385
 30
0.0
 10
71.291862
 20
181.557646
 30
0.0
 10
71.163488
 20
181.387545
 30
0.0
 10
71.059127
 20
181.247828
 30
0.0
 10
70.971599
 20
181.130274
 30
0.0
 10
70.801334
 20
180.910982
 30
0.0
 10
70.669740
 20
180.734139
 30
0.0
 10
69.841607
 20
179.885604
 30
0.0
 10
69.578657
 20
179.671219
 30
0.0
 10
69.383938
 20
179.520538
 30
0.0
 10
69.205519
 20
179.387728
 30
0.0
 10
68.796360
 20
179.169671
 30
0.0
 10
68.365435
 20
178.947311
 30
0.0
 10
68.295534
 20
178.780430
 30
0.0
 10
68.188724
 20
178.561945
 30
0.0
 10
68.151815
 20
178.484320
 30
0.0
 10
68.130169
 20
178.425874
 30
0.0
 10
67.932910
 20
177.909261
 30
0.0
 10
67.877100
 20
177.753102
 30
0.0
 10
67.805629
 20
177.493384
 30
0.0
 10
67.823179
 20
177.261504
 30
0.0
 10
67.880721
 20
177.176174
 30
0.0
 10
67.966790
 20
177.138221
 30
0.0
 10
68.235754
 20
177.202845
 30
0.0
 10
68.492371
 20
177.366900
 30
0.0
 10
68.747543
 20
177.611929
 30
0.0
 10
68.982790
 20
177.917192
 30
0.0
 10
69.179629
 20
178.261951
 30
0.0
 10
69.248665
 20
178.481463
 30
0.0
 10
69.251573
 20
178.655987
 30
0.0
 10
69.195323
 20
178.717113
 30
0.0
 10
69.161841
 20
178.763137
 30
0.0
 10
69.227596
 20
178.809445
 30
0.0
 10
69.777089
 20
179.037564
 30
0.0
 10
70.231480
 20
179.278784
 30
0.0
 10
70.542237
 20
179.536532
 30
0.0
 10
70.813154
 20
179.771036
 30
0.0
 10
71.030140
 20
179.903474
 30
0.0
 10
71.234960
 20
179.946476
 30
0.0
 10
71.387761
 20
179.943712
 30
0.0
 10
71.485433
 20
179.894696
 30
0.0
 10
71.534943
 20
179.792256
 30
0.0
 10
71.543257
 20
179.629219
 30
0.0
 10
71.471248
 20
179.353028
 30
0.0
 10
71.209318
 20
179.006764
 30
0.0
 10
71.029620
 20
178.827253
 30
0.0
 10
70.922684
 20
178.770168
 30
0.0
 10
70.739742
 20
178.765032
 30
0.0
 10
70.627102
 20
178.826476
 30
0.0
 10
70.612277
 20
178.982436
 30
0.0
 10
70.668320
 20
179.171960
 30
0.0
 10
70.961315
 20
179.417504
 30
0.0
 10
71.083149
 20
179.436204
 30
0.0
 10
71.196906
 20
179.409151
 30
0.0
 10
71.242670
 20
179.389815
 30
0.0
 10
71.287016
 20
179.414908
 30
0.0
 10
71.445484
 20
179.690470
 30
0.0
 10
71.436872
 20
179.764737
 30
0.0
 10
71.389088
 20
179.815750
 30
0.0
 10
71.203823
 20
179.831745
 30
0.0
 10
70.981983
 20
179.722261
 30
0.0
 10
70.812400
 20
179.582077
 30
0.0
 10
70.531948
 20
179.266092
 30
0.0
 10
70.156194
 20
178.785818
 30
0.0
 10
70.034808
 20
178.569596
 30
0.0
 10
69.942707
 20
178.368767
 30
0.0
 10
69.865565
 20
178.179740
 30
0.0
 10
69.705051
 20
177.793462
 30
0.0
 10
69.492642
 20
177.277413
 30
0.0
 10
69.384184
 20
176.923953
 30
0.0
 10
69.326657
 20
176.836924
 30
0.0
 10
69.195628
 20
176.789530
 30
0.0
 10
68.757379
 20
176.643762
 30
0.0
 10
68.582083
 20
176.552737
 30
0.0
 10
68.466761
 20
176.493905
 30
0.0
 10
68.417649
 20
176.476682
 30
0.0
 10
68.410913
 20
176.508900
 30
0.0
 10
68.534272
 20
176.759911
 30
0.0
 10
68.661763
 20
176.998360
 30
0.0
 10
68.691187
 20
177.051246
 30
0.0
 10
68.948608
 20
177.600323
 30
0.0
 10
68.919417
 20
177.607038
 30
0.0
 10
68.852923
 20
177.539293
 30
0.0
 10
68.749412
 20
177.448567
 30
0.0
 10
68.574471
 20
177.305988
 30
0.0
 10
68.139138
 20
176.943542
 30
0.0
 10
67.916217
 20
176.797656
 30
0.0
 10
67.723396
 20
176.756104
 30
0.0
 10
67.499436
 20
176.757903
 30
0.0
 10
67.326637
 20
176.815293
 30
0.0
 10
67.200527
 20
176.930864
 30
0.0
 10
67.116630
 20
177.107202
 30
0.0
 10
67.080026
 20
177.168842
 30
0.0
 10
66.949786
 20
177.092174
 30
0.0
 10
66.776631
 20
176.974400
 30
0.0
 10
66.332772
 20
176.757910
 30
0.0
 10
66.242565
 20
176.720925
 30
0.0
 10
65.928502
 20
176.683939
 30
0.0
 10
65.689263
 20
176.683939
 30
0.0
 10
65.568977
 20
176.761240
 30
0.0
 10
65.363620
 20
176.931075
 30
0.0
 10
65.269319
 20
177.100765
 30
0.0
 10
65.253751
 20
177.290297
 30
0.0
 10
65.289470
 20
177.505807
 30
0.0
 10
65.474582
 20
177.974274
 30
0.0
 10
65.552506
 20
178.113993
 30
0.0
 10
65.664958
 20
178.311241
 30
0.0
 10
65.728362
 20
178.429817
 30
0.0
 10
65.670007
 20
178.491460
 30
0.0
 10
65.519752
 20
178.533138
 30
0.0
 10
65.408520
 20
178.507355
 30
0.0
 10
65.355179
 20
178.373773
 30
0.0
 10
65.251844
 20
178.105772
 30
0.0
 10
65.150399
 20
177.859214
 30
0.0
 10
64.988372
 20
177.571557
 30
0.0
 10
64.869195
 20
177.389416
 30
0.0
 10
64.639340
 20
177.136641
 30
0.0
 10
64.423970
 20
176.920524
 30
0.0
 10
64.137946
 20
176.678950
 30
0.0
 10
63.832101
 20
176.499719
 30
0.0
 10
63.577673
 20
176.429234
 30
0.0
 10
63.123908
 20
176.507175
 30
0.0
 10
62.909252
 20
176.645101
 30
0.0
 10
62.758117
 20
176.816152
 30
0.0
 10
62.718880
 20
177.036489
 30
0.0
 10
62.726279
 20
177.317506
 30
0.0
 10
62.818647
 20
177.678324
 30
0.0
 10
62.960803
 20
178.040020
 30
0.0
 10
63.075828
 20
178.265391
 30
0.0
 10
63.284456
 20
178.540790
 30
0.0
 10
63.492061
 20
178.788648
 30
0.0
 10
63.795055
 20
179.062799
 30
0.0
 10
63.960561
 20
179.180999
 30
0.0
 10
64.186591
 20
179.323635
 30
0.0
 10
64.435485
 20
179.427100
 30
0.0
 10
64.770147
 20
179.470060
 30
0.0
 10
65.051894
 20
179.439582
 30
0.0
 10
65.231558
 20
179.287327
 30
0.0
 10
65.355120
 20
179.124160
 30
0.0
 10
65.426694
 20
178.783199
 30
0.0
 10
65.445995
 20
178.681243
 30
0.0
 10
65.564504
 20
178.664643
 30
0.0
 10
65.675824
 20
178.648743
 30
0.0
 10
65.742337
 20
178.596286
 30
0.0
 10
65.809211
 20
178.568491
 30
0.0
 10
65.898852
 20
178.644097
 30
0.0
 10
65.993038
 20
178.755047
 30
0.0
 10
66.255231
 20
179.070608
 30
0.0
 10
66.125956
 20
179.206947
 30
0.0
 10
65.826759
 20
179.509186
 30
0.0
 10
65.638412
 20
179.829097
 30
0.0
 10
65.560513
 20
180.075655
 30
0.0
 10
65.516184
 20
180.546723
 30
0.0
 10
65.533089
 20
180.974090
 30
0.0
 10
65.578203
 20
181.253526
 30
0.0
 10
65.679326
 20
181.658733
 30
0.0
 10
65.849898
 20
182.091834
 30
0.0
 10
65.936712
 20
182.295559
 30
0.0
 10
66.024980
 20
182.469856
 30
0.0
 10
66.080084
 20
182.568363
 30
0.0
 10
66.290839
 20
182.897262
 30
0.0
 10
66.723020
 20
183.456138
 30
0.0
 10
67.040347
 20
183.813082
 30
0.0
 10
67.287081
 20
184.033153
 30
0.0
 10
67.562154
 20
184.262645
 30
0.0
 10
67.785262
 20
184.457460
 30
0.0
 10
67.957071
 20
184.615527
 30
0.0
 10
68.148304
 20
184.774294
 30
0.0
 10
68.350996
 20
184.921865
 30
0.0
 10
68.526296
 20
185.030763
 30
0.0
 10
68.757371
 20
185.176602
 30
0.0
 10
69.304512
 20
185.502585
 30
0.0
 10
69.401196
 20
185.542932
 30
0.0
 10
69.896812
 20
185.739584
 30
0.0
 10
70.530037
 20
185.829901
 30
0.0
 10
70.773894
 20
185.782662
 30
0.0
 10
70.966831
 20
185.657704
 30
0.0
 10
71.096981
 20
185.466635
 30
0.0
 10
71.152478
 20
185.221066
 30
0.0
 10
71.117071
 20
184.907175
 30
0.0
 10
71.037814
 20
184.671534
 30
0.0
 10
70.931552
 20
184.459430
 30
0.0
 10
70.699537
 20
184.026512
 30
0.0
 10
70.653783
 20
183.945986
 30
0.0
 10
70.431965
 20
183.739921
 30
0.0
 10
70.156302
 20
183.577341
 30
0.0
 10
69.869312
 20
183.463106
 30
0.0
 10
69.575621
 20
183.419283
 30
0.0
 10
69.426328
 20
183.418027
 30
0.0
 10
69.338554
 20
183.453852
 30
0.0
 10
69.235043
 20
183.497227
 30
0.0
 10
69.150549
 20
183.555218
 30
0.0
 10
69.075423
 20
183.668419
 30
0.0
 10
69.044621
 20
183.803716
 30
0.0
 10
69.117348
 20
184.117557
 30
0.0
 10
69.350367
 20
184.423412
 30
0.0
 10
69.485633
 20
184.515533
 30
0.0
 10
69.612863
 20
184.549222
 30
0.0
 10
69.657237
 20
184.543254
 30
0.0
 10
69.656957
 20
184.512234
 30
0.0
 10
69.511666
 20
184.365591
 30
0.0
 10
69.375373
 20
184.256219
 30
0.0
 10
69.275043
 20
184.116464
 30
0.0
 10
69.220061
 20
183.963982
 30
0.0
 10
69.219812
 20
183.816429
 30
0.0
 10
69.302355
 20
183.642276
 30
0.0
 10
69.505616
 20
183.628785
 30
0.0
 10
69.747442
 20
183.691582
 30
0.0
 10
69.968689
 20
183.808428
 30
0.0
 10
70.276926
 20
184.096575
 30
0.0
 10
70.519330
 20
184.382567
 30
0.0
 10
70.573242
 20
184.475254
 30
0.0
 10
70.777727
 20
184.853310
 30
0.0
 10
70.900691
 20
185.306768
 30
0.0
 10
70.870928
 20
185.514941
 30
0.0
 10
70.822449
 20
185.589807
 30
0.0
 10
70.745539
 20
185.631087
 30
0.0
 10
70.565471
 20
185.683213
 30
0.0
 10
70.383348
 20
185.689588
 30
0.0
 10
69.863990
 20
185.551658
 30
0.0
 10
68.834031
 20
185.038829
 30
0.0
 10
68.659767
 20
184.927281
 30
0.0
 10
68.375663
 20
184.713593
 30
0.0
 10
68.047935
 20
184.463339
 30
0.0
 10
67.843214
 20
184.307185
 30
0.0
 10
67.675881
 20
184.173999
 30
0.0
 10
67.194295
 20
183.725902
 30
0.0
 10
66.746566
 20
183.236025
 30
0.0
 10
66.213719
 20
182.422894
 30
0.0
 10
66.087665
 20
182.174022
 30
0.0
 10
65.992369
 20
181.984987
 30
0.0
 10
65.814165
 20
181.534981
 30
0.0
 10
65.687202
 20
181.031624
 30
0.0
 10
65.659746
 20
180.599002
 30
0.0
 10
65.686356
 20
180.214587
 30
0.0
 10
65.900286
 20
179.708413
 30
0.0
 10
66.102887
 20
179.456466
 30
0.0
 10
66.332602
 20
179.244245
 30
0.0
 10
66.414080
 20
179.196522
 30
0.0
 10
66.476028
 20
179.206840
 30
0.0
 10
66.637764
 20
179.297918
 30
0.0
 10
66.938641
 20
179.462285
 30
0.0
 10
67.128842
 20
179.544255
 30
0.0
 10
67.289237
 20
179.571891
 30
0.0
 10
67.509461
 20
179.569351
 30
0.0
 10
67.682885
 20
179.486459
 30
0.0
 10
67.818982
 20
179.362855
 30
0.0
 10
67.882587
 20
179.289215
 30
0.0
 10
68.088157
 20
179.718791
 30
0.0
 10
68.372115
 20
180.321349
 30
0.0
 10
68.414736
 20
180.406953
 30
0.0
 10
68.491210
 20
180.563109
 30
0.0
 10
68.757281
 20
181.099543
 30
0.0
 10
68.938719
 20
181.496336
 30
0.0
 10
69.259656
 20
182.244067
 30
0.0
 10
69.346267
 20
182.370796
 30
0.0
 10
69.419193
 20
182.429682
 30
0.0
 10
69.540143
 20
182.521607
 30
0.0
 10
70.087958
 20
183.007176
 30
0.0
 10
70.222206
 20
183.143063
 30
0.0
 10
70.747026
 20
183.737432
 30
0.0
 10
70.900691
 20
183.926467
 30
0.0
 10
71.049543
 20
184.108523
 30
0.0
 10
71.127795
 20
184.186250
 30
0.0
 10
71.163651
 20
184.226275
 30
0.0
 10
71.233346
 20
184.276476
 30
0.0
 10
71.255814
 20
184.234798
 30
0.0
 10
71.199508
 20
184.139229
 30
0.0
 10
71.052820
 20
183.930136
 30
0.0
 10
70.928394
 20
183.751958
 30
0.0
 10
70.724223
 20
183.434184
 30
0.0
 10
70.616036
 20
183.245155
 30
0.0
 10
70.413465
 20
182.897214
 30
0.0
 10
70.322942
 20
182.743155
 30
0.0
 10
70.243584
 20
182.611659
 30
0.0
 10
70.164102
 20
182.480431
 30
0.0
 10
70.075744
 20
182.332499
 30
0.0
 10
69.998158
 20
182.200517
 30
0.0
 10
69.968435
 20
182.148261
 30
0.0
 10
69.903797
 20
182.034830
 30
0.0
 10
69.743975
 20
181.743896
 30
0.0
 10
69.617378
 20
181.512141
 30
0.0
 10
69.585967
 20
181.452194
 30
0.0
 10
69.513501
 20
181.313332
 30
0.0
 10
69.411613
 20
181.116510
 30
0.0
 10
69.304493
 20
180.900074
 30
0.0
 10
69.093421
 20
180.480923
 30
0.0
 10
68.877115
 20
180.028896
 30
0.0
 10
68.773503
 20
179.790551
 30
0.0
 10
68.651467
 20
179.514236
 30
0.0
 10
68.550110
 20
179.286443
 30
0.0
 10
68.677601
 20
179.320299
 30
0.0
 10
68.844930
 20
179.420504
 30
0.0
 10
69.283176
 20
179.698056
 30
0.0
 10
69.805087
 20
180.178054
 30
0.0
 10
70.068389
 20
180.517048
 30
0.0
 10
70.097102
 20
180.554888
 30
0.0
 10
70.189798
 20
180.657623
 30
0.0
 10
70.303401
 20
180.801449
 30
0.0
 10
70.669191
 20
181.326605
 30
0.0
 10
70.892738
 20
181.717655
 30
0.0
 10
71.276811
 20
182.485457
 30
0.0
 10
71.291148
 20
182.526066
 30
0.0
 10
71.369400
 20
182.683038
 30
0.0
 10
71.474691
 20
182.911590
 30
0.0
 10
71.530100
 20
183.059526
 30
0.0
 10
71.705637
 20
183.595799
 30
0.0
 10
71.802388
 20
183.908114
 30
0.0
 10
71.887856
 20
184.317910
 30
0.0
 10
71.919671
 20
184.828605
 30
0.0
 10
71.906114
 20
185.186002
 30
0.0
 10
71.824760
 20
185.584723
 30
0.0
 10
71.642577
 20
186.141641
 30
0.0
 10
71.325998
 20
186.671487
 30
0.0
 10
70.981937
 20
187.020659
 30
0.0
 10
70.814605
 20
187.142849
 30
0.0
 10
70.351188
 20
187.380933
 30
0.0
 10
69.777206
 20
187.565141
 30
0.0
 10
69.118736
 20
187.661793
 30
0.0
 10
68.389935
 20
187.679354
 30
0.0
 10
67.840953
 20
187.664819
 30
0.0
 10
66.717449
 20
187.534012
 30
0.0
 10
66.486374
 20
187.484310
 30
0.0
 10
66.238402
 20
187.441331
 30
0.0
 10
66.071073
 20
187.425498
 30
0.0
 10
65.745340
 20
187.358233
 30
0.0
 10
65.394741
 20
187.267470
 30
0.0
 10
64.891724
 20
187.110966
 30
0.0
 10
64.398497
 20
186.906954
 30
0.0
 10
64.307133
 20
186.866819
 30
0.0
 10
63.744077
 20
186.593970
 30
0.0
 10
63.505035
 20
186.460044
 30
0.0
 10
62.967325
 20
186.157473
 30
0.0
 10
62.862119
 20
186.094261
 30
0.0
 10
62.571224
 20
185.902294
 30
0.0
 10
62.406465
 20
185.790172
 30
0.0
 10
62.048238
 20
185.502718
 30
0.0
 10
62.008701
 20
185.469641
 30
0.0
 10
61.777217
 20
185.291889
 30
0.0
 10
61.666905
 20
185.215224
 30
0.0
 10
61.505157
 20
185.077369
 30
0.0
 10
61.183396
 20
184.770089
 30
0.0
 10
60.941593
 20
184.502051
 30
0.0
 10
60.750554
 20
184.266432
 30
0.0
 10
60.645746
 20
184.137826
 30
0.0
 10
60.560509
 20
184.026044
 30
0.0
 10
60.327015
 20
183.694486
 30
0.0
 10
60.191136
 20
183.456068
 30
0.0
 10
59.976416
 20
183.096181
 30
0.0
 10
59.996341
 20
183.067580
 30
0.0
 10
60.358889
 20
183.103897
 30
0.0
 10
61.026070
 20
183.134185
 30
0.0
 10
61.727596
 20
183.070462
 30
0.0
 10
61.913841
 20
183.004676
 30
0.0
 10
62.023221
 20
182.954725
 30
0.0
 10
62.303110
 20
182.617283
 30
0.0
 10
62.337182
 20
182.550448
 30
0.0
 10
62.398750
 20
182.441755
 30
0.0
 10
62.414664
 20
182.225514
 30
0.0
 10
62.366226
 20
181.916783
 30
0.0
 10
62.169847
 20
181.500671
 30
0.0
 10
62.078018
 20
181.319394
 30
0.0
 10
61.636461
 20
180.771641
 30
0.0
 10
61.076022
 20
180.209118
 30
0.0
 10
60.946318
 20
180.102892
 30
0.0
 10
60.780857
 20
179.978695
 30
0.0
 10
60.631674
 20
179.870784
 30
0.0
 10
60.507380
 20
179.784721
 30
0.0
 10
60.427785
 20
179.708689
 30
0.0
 10
60.558093
 20
179.692925
 30
0.0
 10
61.093736
 20
179.633863
 30
0.0
 10
61.593947
 20
179.478972
 30
0.0
 10
61.715901
 20
179.422161
 30
0.0
 10
61.920952
 20
179.257054
 30
0.0
 10
62.102766
 20
179.030849
 30
0.0
 10
62.143747
 20
178.926762
 30
0.0
 10
62.193802
 20
178.790796
 30
0.0
 10
62.236039
 20
178.663771
 30
0.0
 10
62.233965
 20
178.483450
 30
0.0
 10
62.180952
 20
178.105031
 30
0.0
 10
62.045190
 20
177.587925
 30
0.0
 10
61.967401
 20
177.381361
 30
0.0
 10
61.888723
 20
177.208774
 30
0.0
 10
61.683307
 20
176.787015
 30
0.0
 10
61.552432
 20
176.560318
 30
0.0
 10
61.417640
 20
176.319768
 30
0.0
 10
61.353979
 20
176.211626
 30
0.0
 10
61.116360
 20
175.804476
 30
0.0
 10
60.979612
 20
175.590786
 30
0.0
 10
60.717455
 20
175.184069
 30
0.0
 10
60.621839
 20
175.056028
 30
0.0
 10
60.470443
 20
174.844929
 30
0.0
 10
60.214933
 20
174.470953
 30
0.0
 10
59.959573
 20
174.152708
 30
0.0
 10
59.634817
 20
173.758816
 30
0.0
 10
59.292117
 20
173.370255
 30
0.0
 10
59.023459
 20
173.063418
 30
0.0
 10
58.953499
 20
172.984556
 30
0.0
 10
58.829011
 20
172.832430
 30
0.0
 10
59.009500
 20
172.701507
 30
0.0
 10
59.208882
 20
172.599188
 30
0.0
 10
59.753314
 20
172.381882
 30
0.0
 10
59.919359
 20
172.313328
 30
0.0
 10
60.254021
 20
172.155639
 30
0.0
 10
60.721906
 20
171.941689
 30
0.0
 10
60.811514
 20
171.991876
 30
0.0
 10
61.012276
 20
172.120098
 30
0.0
 10
61.307097
 20
172.291052
 30
0.0
 10
61.836878
 20
172.556915
 30
0.0
 10
62.550122
 20
172.848475
 30
0.0
 10
62.853493
 20
172.980352
 30
0.0
 10
62.942696
 20
173.108746
 30
0.0
 10
63.296910
 20
173.807330
 30
0.0
 10
63.456603
 20
174.103201
 30
0.0
 10
63.586405
 20
174.341546
 30
0.0
 10
63.730852
 20
174.579888
 30
0.0
 10
63.928933
 20
174.887094
 30
0.0
 10
64.166804
 20
175.141680
 30
0.0
 10
64.443574
 20
175.381357
 30
0.0
 10
64.765259
 20
175.578486
 30
0.0
 10
65.334848
 20
175.870478
 30
0.0
 10
65.707060
 20
175.993138
 30
0.0
 10
65.938135
 20
176.040388
 30
0.0
 10
66.613859
 20
176.147957
 30
0.0
 10
66.932584
 20
176.185318
 30
0.0
 10
68.406687
 20
176.203521
 30
0.0
 10
69.719185
 20
176.189837
 30
0.0
 10
70.502300
 20
176.123088
 30
0.0
 10
70.868834
 20
176.083102
 30
0.0
 10
71.100647
 20
176.040576
 30
0.0
 10
71.147720
 20
175.946160
 30
0.0
 10
71.119049
 20
175.854339
 30
0.0
 10
71.002768
 20
175.843089
 30
0.0
 10
70.813058
 20
175.868997
 30
0.0
 10
69.812033
 20
176.008486
 30
0.0
 10
68.629792
 20
176.087172
 30
0.0
 10
67.715370
 20
176.088706
 30
0.0
 10
66.821030
 20
176.041952
 30
0.0
 10
66.252194
 20
175.956699
 30
0.0
 10
65.761272
 20
175.834197
 30
0.0
 10
65.287517
 20
175.631434
 30
0.0
 10
65.014390
 20
175.446926
 30
0.0
 10
65.059653
 20
173.511448
 30
0.0
 10
65.111914
 20
172.499466
 30
0.0
 10
65.187398
 20
171.834837
 30
0.0
 10
65.218660
 20
171.621152
 30
0.0
 10
65.330542
 20
171.219721
 30
0.0
 10
65.570038
 20
170.908569
 30
0.0
 10
65.742863
 20
170.780614
 30
0.0
 10
65.921261
 20
170.715862
 30
0.0
 10
66.055270
 20
170.677449
 30
0.0
 10
66.119802
 20
170.625469
 30
0.0
 10
66.122817
 20
170.544220
 30
0.0
 10
66.072278
 20
170.418002
 30
0.0
 10
65.956591
 20
170.242933
 30
0.0
 10
65.789310
 20
170.127579
 30
0.0
 10
65.661030
 20
170.077557
 30
0.0
 10
65.474421
 20
170.061090
 30
0.0
 10
65.219589
 20
170.073845
 30
0.0
 10
64.984325
 20
170.189634
 30
0.0
 10
64.744925
 20
170.403056
 30
0.0
 10
64.536506
 20
170.733538
 30
0.0
 10
64.460791
 20
171.071021
 30
0.0
 10
64.424348
 20
171.604716
 30
0.0
 10
64.412608
 20
172.311524
 30
0.0
 10
64.370334
 20
173.053080
 30
0.0
 10
63.888753
 20
172.960364
 30
0.0
 10
63.570028
 20
172.882477
 30
0.0
 10
62.932220
 20
172.707180
 30
0.0
 10
62.783689
 20
172.440980
 30
0.0
 10
62.635573
 20
172.138931
 30
0.0
 10
62.556853
 20
171.978663
 30
0.0
 10
62.493446
 20
171.875931
 30
0.0
 10
62.413724
 20
171.740323
 30
0.0
 10
62.192622
 20
171.326538
 30
0.0
 10
62.084785
 20
171.068792
 30
0.0
 10
62.181280
 20
170.931020
 30
0.0
 10
62.343137
 20
170.800173
 30
0.0
 10
62.610269
 20
170.585600
 30
0.0
 10
62.784355
 20
170.437662
 30
0.0
 10
63.195014
 20
170.079776
 30
0.0
 10
63.293334
 20
170.002074
 30
0.0
 10
63.632097
 20
169.691579
 30
0.0
 10
63.728648
 20
169.592959
 30
0.0
 10
63.897389
 20
169.432756
 30
0.0
 10
64.070030
 20
169.288343
 30
0.0
 10
64.196107
 20
169.190587
 30
0.0
 10
64.342936
 20
169.067707
 30
0.0
 10
64.542139
 20
168.900220
 30
0.0
 10
64.741343
 20
168.732845
 30
0.0
 10
64.933460
 20
168.572949
 30
0.0
 10
65.300603
 20
168.267932
 30
0.0
 10
66.040144
 20
167.689893
 30
0.0
 10
66.191539
 20
167.578288
 30
0.0
 10
66.658769
 20
167.262725
 30
0.0
 10
67.244062
 20
166.935417
 30
0.0
 10
67.411391
 20
166.838025
 30
0.0
 10
67.920619
 20
166.588196
 30
0.0
 10
68.167631
 20
166.484914
 30
0.0
 10
68.446515
 20
166.370332
 30
0.0
 10
68.701497
 20
166.267724
 30
0.0
 10
69.490339
 20
166.016157
 30
0.0
 10
70.064043
 20
165.874893
 30
0.0
 10
70.295118
 20
165.835202
 30
0.0
 10
70.872113
 20
165.762126
 30
0.0
 10
71.896709
 20
165.745898
 30
0.0
 10
72.396172
 20
165.800869
 30
0.0
 10
72.596987
 20
165.851045
 30
0.0
 10
72.750911
 20
165.898391
 30
0.0
 10
73.115930
 20
166.043115
 30
0.0
 10
73.415057
 20
166.234416
 30
0.0
 10
73.695662
 20
166.507262
 30
0.0
 10
73.899533
 20
166.763902
 30
0.0
 10
74.036589
 20
166.965970
 30
0.0
 10
74.167622
 20
167.351127
 30
0.0
 10
74.161328
 20
167.700832
 30
0.0
 10
74.107682
 20
167.987395
 30
0.0
 10
74.025438
 20
168.212380
 30
0.0
 10
73.891784
 20
168.421664
 30
0.0
 10
73.683913
 20
168.661126
 30
0.0
 10
73.176172
 20
169.081567
 30
0.0
 10
73.121955
 20
169.112174
 30
0.0
 10
72.924585
 20
169.238087
 30
0.0
 10
72.669606
 20
169.390629
 30
0.0
 10
72.265532
 20
169.607798
 30
0.0
 10
71.888734
 20
169.761020
 30
0.0
 10
71.577976
 20
169.868515
 30
0.0
 10
71.139730
 20
169.984283
 30
0.0
 10
70.836942
 20
170.026089
 30
0.0
 10
70.400944
 20
170.062934
 30
0.0
 10
70.000289
 20
170.044574
 30
0.0
 10
69.684485
 20
169.987509
 30
0.0
 10
69.356357
 20
169.877112
 30
0.0
 10
68.997701
 20
169.717753
 30
0.0
 10
68.787893
 20
169.558895
 30
0.0
 10
68.644650
 20
169.386933
 30
0.0
 10
68.549441
 20
169.185134
 30
0.0
 10
68.509106
 20
168.976863
 30
0.0
 10
68.556942
 20
168.830207
 30
0.0
 10
68.646662
 20
168.700707
 30
0.0
 10
68.762842
 20
168.605217
 30
0.0
 10
68.890063
 20
168.560588
 30
0.0
 10
69.065952
 20
168.582819
 30
0.0
 10
69.315031
 20
168.707707
 30
0.0
 10
69.719041
 20
168.908555
 30
0.0
 10
70.016762
 20
168.982942
 30
0.0
 10
70.331086
 20
168.920053
 30
0.0
 10
70.546936
 20
168.741069
 30
0.0
 10
70.599592
 20
168.613679
 30
0.0
 10
70.581226
 20
168.478944
 30
0.0
 10
70.500733
 20
168.344970
 30
0.0
 10
70.346691
 20
168.238312
 30
0.0
 10
70.056347
 20
168.130354
 30
0.0
 10
69.710224
 20
168.097534
 30
0.0
 10
69.280586
 20
168.126291
 30
0.0
 10
68.966571
 20
168.201429
 30
0.0
 10
68.669920
 20
168.388898
 30
0.0
 10
68.490282
 20
168.604882
 30
0.0
 10
68.432731
 20
168.711723
 30
0.0
 10
68.400772
 20
168.900756
 30
0.0
 10
68.427717
 20
169.130430
 30
0.0
 10
68.513463
 20
169.341703
 30
0.0
 10
68.698476
 20
169.595533
 30
0.0
 10
68.910612
 20
169.804451
 30
0.0
 10
69.193747
 20
169.956811
 30
0.0
 10
69.538139
 20
170.073118
 30
0.0
 10
70.145673
 20
170.166495
 30
0.0
 10
70.709451
 20
170.182087
 30
0.0
 10
70.892718
 20
170.155219
 30
0.0
 10
71.123793
 20
170.132501
 30
0.0
 10
71.404623
 20
170.096146
 30
0.0
 10
71.832955
 20
169.977425
 30
0.0
 10
72.392379
 20
169.785571
 30
0.0
 10
72.852873
 20
169.571448
 30
0.0
 10
73.641718
 20
169.048711
 30
0.0
 10
73.761239
 20
168.954725
 30
0.0
 10
74.125116
 20
168.581977
 30
0.0
 10
74.518624
 20
167.973503
 30
0.0
 10
74.631779
 20
167.636538
 30
0.0
 10
74.651151
 20
167.340030
 30
0.0
 10
74.604657
 20
167.091138
 30
0.0
 10
74.471302
 20
166.770922
 30
0.0
 10
74.245058
 20
166.455647
 30
0.0
 10
73.809053
 20
166.056800
 30
0.0
 10
73.689529
 20
165.973493
 30
0.0
 10
73.252601
 20
165.720715
 30
0.0
 10
72.957948
 20
165.595154
 30
0.0
 10
72.693513
 20
165.532270
 30
0.0
 10
72.358854
 20
165.482650
 30
0.0
 10
71.617820
 20
165.402634
 30
0.0
 10
71.522203
 20
165.410931
 30
0.0
 10
71.522319
 20
165.411182
 30
0.0
  0
LWPOLYLINE
  5
101
100
AcDbEntity
  8
Layer_1
 62
1
100
AcDbPolyline
 90
65
 70
0
 10
51.793264
 20
168.020866
 30
0.0
 10
52.232304
 20
168.094913
 30
0.0
 10
52.516055
 20
168.189533
 30
0.0
 10
52.765373
 20
168.284696
 30
0.0
 10
53.326242
 20
168.532679
 30
0.0
 10
53.586089
 20
168.671761
 30
0.0
 10
53.817164
 20
168.802353
 30
0.0
 10
54.080114
 20
168.954353
 30
0.0
 10
54.382901
 20
169.146498
 30
0.0
 10
54.606009
 20
169.302335
 30
0.0
 10
54.853022
 20
169.461774
 30
0.0
 10
55.073987
 20
169.604319
 30
0.0
 10
55.182022
 20
169.684995
 30
0.0
 10
55.343524
 20
169.799303
 30
0.0
 10
55.586088
 20
169.977182
 30
0.0
 10
55.790567
 20
170.142308
 30
0.0
 10
55.926025
 20
170.253060
 30
0.0
 10
56.075501
 20
170.369178
 30
0.0
 10
56.857525
 20
171.077330
 30
0.0
 10
57.072663
 20
171.292569
 30
0.0
 10
57.299964
 20
171.530912
 30
0.0
 10
57.710589
 20
171.982405
 30
0.0
 10
58.008348
 20
172.306100
 30
0.0
 10
58.256333
 20
172.578453
 30
0.0
 10
58.297973
 20
172.671990
 30
0.0
 10
57.933725
 20
172.815489
 30
0.0
 10
57.123934
 20
173.036361
 30
0.0
 10
56.558197
 20
173.175900
 30
0.0
 10
56.159792
 20
173.265410
 30
0.0
 10
55.944651
 20
173.306177
 30
0.0
 10
55.705609
 20
173.338652
 30
0.0
 10
55.450630
 20
173.371748
 30
0.0
 10
54.514976
 20
173.507305
 30
0.0
 10
54.391634
 20
173.469119
 30
0.0
 10
54.176089
 20
173.299322
 30
0.0
 10
53.562185
 20
172.850969
 30
0.0
 10
53.378918
 20
172.739291
 30
0.0
 10
52.940672
 20
172.484112
 30
0.0
 10
52.701484
 20
172.352415
 30
0.0
 10
52.552270
 20
172.288850
 30
0.0
 10
52.401021
 20
172.223660
 30
0.0
 10
51.823528
 20
171.993090
 30
0.0
 10
51.044261
 20
171.753207
 30
0.0
 10
50.837090
 20
171.704656
 30
0.0
 10
50.008406
 20
171.631834
 30
0.0
 10
49.781437
 20
171.622618
 30
0.0
 10
49.647498
 20
171.583840
 30
0.0
 10
49.531458
 20
171.469471
 30
0.0
 10
49.358192
 20
171.233483
 30
0.0
 10
49.214907
 20
171.040689
 30
0.0
 10
49.116657
 20
170.886172
 30
0.0
 10
49.038008
 20
170.735358
 30
0.0
 10
48.788800
 20
170.081737
 30
0.0
 10
48.777586
 20
169.680693
 30
0.0
 10
48.851131
 20
169.344821
 30
0.0
 10
48.900382
 20
169.221544
 30
0.0
 10
49.024055
 20
168.967704
 30
0.0
 10
49.228161
 20
168.709227
 30
0.0
 10
49.488007
 20
168.472470
 30
0.0
 10
49.778903
 20
168.283790
 30
0.0
 10
50.163978
 20
168.138574
 30
0.0
 10
50.669760
 20
168.038420
 30
0.0
 10
50.948644
 20
167.997281
 30
0.0
 10
51.793264
 20
168.020874
 30
0.0
 10
51.793264
 20
168.020866
 30
0.0
  0
LWPOLYLINE
  5
102
100
AcDbEntity
  8
Layer_1
 62
1
100
AcDbPolyline
 90
41
 70
0
 10
59.688267
 20
168.220699
 30
0.0
 10
59.993909
 20
168.364190
 30
0.0
 10
60.313432
 20
168.632577
 30
0.0
 10
60.693946
 20
169.065390
 30
0.0
 10
60.824683
 20
169.251160
 30
0.0
 10
60.900821
 20
169.360016
 30
0.0
 10
60.976518
 20
169.471872
 30
0.0
 10
61.107992
 20
169.664757
 30
0.0
 10
61.196779
 20
169.802718
 30
0.0
 10
61.291363
 20
169.953007
 30
0.0
 10
61.388549
 20
170.109158
 30
0.0
 10
61.485201
 20
170.277436
 30
0.0
 10
61.666958
 20
170.612857
 30
0.0
 10
61.818884
 20
170.902962
 30
0.0
 10
61.812527
 20
170.953942
 30
0.0
 10
61.735095
 20
171.014913
 30
0.0
 10
61.546238
 20
171.154410
 30
0.0
 10
61.352337
 20
171.286338
 30
0.0
 10
61.113295
 20
171.425194
 30
0.0
 10
60.885039
 20
171.555761
 30
0.0
 10
60.742779
 20
171.641424
 30
0.0
 10
60.635571
 20
171.688678
 30
0.0
 10
60.522846
 20
171.627144
 30
0.0
 10
60.365030
 20
171.509734
 30
0.0
 10
60.261514
 20
171.422002
 30
0.0
 10
60.174564
 20
171.359024
 30
0.0
 10
60.064828
 20
171.282830
 30
0.0
 10
59.629588
 20
170.742005
 30
0.0
 10
59.513992
 20
170.566832
 30
0.0
 10
59.424756
 20
170.418894
 30
0.0
 10
59.338385
 20
170.257102
 30
0.0
 10
59.163797
 20
169.888690
 30
0.0
 10
59.069024
 20
169.548047
 30
0.0
 10
59.020493
 20
169.295517
 30
0.0
 10
58.954955
 20
168.868145
 30
0.0
 10
59.039430
 20
168.439212
 30
0.0
 10
59.143501
 20
168.279315
 30
0.0
 10
59.302845
 20
168.193433
 30
0.0
 10
59.474410
 20
168.165681
 30
0.0
 10
59.688267
 20
168.220696
 30
0.0
 10
59.688267
 20
168.220699
 30
0.0
  0
LWPOLYLINE
  5
103
100
AcDbEntity
  8
Layer_1
 62
1
100
AcDbPolyline
 90
20
 70
0
 10
62.003497
 20
171.240412
 30
0.0
 10
62.669423
 20
172.595310
 30
0.0
 10
62.640504
 20
172.615856
 30
0.0
 10
62.374921
 20
172.526665
 30
0.0
 10
62.207592
 20
172.460204
 30
0.0
 10
62.056995
 20
172.400131
 30
0.0
 10
61.988361
 20
172.385737
 30
0.0
 10
61.160104
 20
172.053006
 30
0.0
 10
60.938672
 20
171.918558
 30
0.0
 10
60.893107
 20
171.869127
 30
0.0
 10
60.899043
 20
171.830293
 30
0.0
 10
60.977052
 20
171.760996
 30
0.0
 10
61.060183
 20
171.712031
 30
0.0
 10
61.139863
 20
171.671114
 30
0.0
 10
61.534935
 20
171.412011
 30
0.0
 10
61.733252
 20
171.284433
 30
0.0
 10
61.773331
 20
171.258694
 30
0.0
 10
61.935560
 20
171.158237
 30
0.0
 10
62.003497
 20
171.240409
 30
0.0
 10
62.003497
 20
171.240412
 30
0.0
  0
LWPOLYLINE
  5
104
100
AcDbEntity
  8
Layer_1
 62
1
100
AcDbPolyline
 90
176
 70
0
 10
49.790838
 20
171.963245
 30
0.0
 10
50.024343
 20
172.163183
 30
0.0
 10
50.191673
 20
172.278860
 30
0.0
 10
50.773344
 20
172.673787
 30
0.0
 10
50.876931
 20
172.740022
 30
0.0
 10
51.036293
 20
172.832859
 30
0.0
 10
51.203623
 20
172.923822
 30
0.0
 10
52.316089
 20
173.439770
 30
0.0
 10
52.977590
 20
173.621940
 30
0.0
 10
53.729517
 20
173.759688
 30
0.0
 10
53.944991
 20
173.796101
 30
0.0
 10
54.275993
 20
174.163026
 30
0.0
 10
54.836032
 20
175.025540
 30
0.0
 10
55.221875
 20
175.714303
 30
0.0
 10
55.464171
 20
176.166330
 30
0.0
 10
55.662093
 20
176.540960
 30
0.0
 10
55.807666
 20
176.795990
 30
0.0
 10
55.886042
 20
176.941318
 30
0.0
 10
55.959906
 20
177.088996
 30
0.0
 10
56.068671
 20
177.284068
 30
0.0
 10
56.296032
 20
177.707986
 30
0.0
 10
56.327122
 20
177.769346
 30
0.0
 10
56.380679
 20
177.870244
 30
0.0
 10
56.446753
 20
177.991261
 30
0.0
 10
56.500355
 20
178.097720
 30
0.0
 10
56.629382
 20
178.326885
 30
0.0
 10
56.708381
 20
178.466602
 30
0.0
 10
56.837682
 20
178.705901
 30
0.0
 10
56.972846
 20
178.952461
 30
0.0
 10
57.043532
 20
179.092178
 30
0.0
 10
57.195762
 20
179.412709
 30
0.0
 10
57.388489
 20
179.815426
 30
0.0
 10
57.505033
 20
180.053766
 30
0.0
 10
57.713205
 20
180.489808
 30
0.0
 10
57.739875
 20
180.553638
 30
0.0
 10
57.805238
 20
180.668251
 30
0.0
 10
57.890497
 20
180.814818
 30
0.0
 10
57.936686
 20
180.894853
 30
0.0
 10
57.992326
 20
180.998680
 30
0.0
 10
58.079736
 20
181.198078
 30
0.0
 10
58.139635
 20
181.346307
 30
0.0
 10
58.241249
 20
181.502461
 30
0.0
 10
58.326663
 20
181.654502
 30
0.0
 10
58.487804
 20
181.944062
 30
0.0
 10
58.562209
 20
182.083785
 30
0.0
 10
58.628500
 20
182.197740
 30
0.0
 10
58.688867
 20
182.287453
 30
0.0
 10
58.775352
 20
182.434223
 30
0.0
 10
58.828182
 20
182.543425
 30
0.0
 10
58.785286
 20
182.576491
 30
0.0
 10
57.857001
 20
182.314002
 30
0.0
 10
56.790810
 20
181.862681
 30
0.0
 10
56.694679
 20
181.765281
 30
0.0
 10
56.784629
 20
181.593426
 30
0.0
 10
56.920728
 20
181.390750
 30
0.0
 10
56.927747
 20
181.204679
 30
0.0
 10
56.904366
 20
180.946213
 30
0.0
 10
56.851846
 20
180.779277
 30
0.0
 10
56.769680
 20
180.571545
 30
0.0
 10
56.539946
 20
180.122761
 30
0.0
 10
56.259939
 20
179.766585
 30
0.0
 10
56.109212
 20
179.596507
 30
0.0
 10
55.713565
 20
179.203049
 30
0.0
 10
55.522331
 20
179.050308
 30
0.0
 10
55.362625
 20
178.931475
 30
0.0
 10
55.212640
 20
178.831524
 30
0.0
 10
55.021748
 20
178.713016
 30
0.0
 10
54.876914
 20
178.639045
 30
0.0
 10
54.494130
 20
178.450499
 30
0.0
 10
54.215561
 20
178.356397
 30
0.0
 10
53.872932
 20
178.287190
 30
0.0
 10
53.625919
 20
178.233585
 30
0.0
 10
53.240048
 20
178.243209
 30
0.0
 10
52.854177
 20
178.252804
 30
0.0
 10
52.804382
 20
178.093078
 30
0.0
 10
52.677907
 20
177.552872
 30
0.0
 10
52.614299
 20
177.078503
 30
0.0
 10
52.677681
 20
176.528014
 30
0.0
 10
52.693655
 20
176.465375
 30
0.0
 10
52.768032
 20
176.363867
 30
0.0
 10
52.905996
 20
176.264642
 30
0.0
 10
53.084092
 20
176.218295
 30
0.0
 10
53.195001
 20
176.211567
 30
0.0
 10
53.302651
 20
176.252185
 30
0.0
 10
53.493526
 20
176.402728
 30
0.0
 10
53.644935
 20
176.569047
 30
0.0
 10
53.768827
 20
176.743315
 30
0.0
 10
53.882634
 20
176.987148
 30
0.0
 10
54.001433
 20
177.180025
 30
0.0
 10
54.159534
 20
177.321474
 30
0.0
 10
54.279312
 20
177.391064
 30
0.0
 10
54.449382
 20
177.427582
 30
0.0
 10
54.661599
 20
177.335179
 30
0.0
 10
54.751717
 20
177.257002
 30
0.0
 10
54.780736
 20
177.176307
 30
0.0
 10
54.652788
 20
176.840260
 30
0.0
 10
54.385081
 20
176.570968
 30
0.0
 10
54.032300
 20
176.343388
 30
0.0
 10
53.554212
 20
176.147819
 30
0.0
 10
53.369014
 20
176.101402
 30
0.0
 10
53.098483
 20
176.088044
 30
0.0
 10
52.749921
 20
176.107517
 30
0.0
 10
52.657733
 20
176.133454
 30
0.0
 10
52.448057
 20
176.256050
 30
0.0
 10
52.243380
 20
176.478470
 30
0.0
 10
52.112452
 20
176.790202
 30
0.0
 10
52.049809
 20
177.140174
 30
0.0
 10
52.056992
 20
177.508439
 30
0.0
 10
52.135540
 20
177.875053
 30
0.0
 10
52.255533
 20
178.159256
 30
0.0
 10
52.390867
 20
178.425778
 30
0.0
 10
52.304222
 20
178.516072
 30
0.0
 10
52.118234
 20
178.731868
 30
0.0
 10
52.056363
 20
178.985710
 30
0.0
 10
52.115966
 20
179.206041
 30
0.0
 10
52.269480
 20
179.386477
 30
0.0
 10
52.420876
 20
179.512625
 30
0.0
 10
52.821146
 20
179.738335
 30
0.0
 10
53.145240
 20
179.858548
 30
0.0
 10
53.482500
 20
179.924703
 30
0.0
 10
53.705605
 20
179.953938
 30
0.0
 10
53.801224
 20
180.051435
 30
0.0
 10
54.414976
 20
180.571545
 30
0.0
 10
54.564664
 20
180.690146
 30
0.0
 10
54.713319
 20
180.796987
 30
0.0
 10
54.990729
 20
180.996086
 30
0.0
 10
55.370942
 20
181.256510
 30
0.0
 10
55.705604
 20
181.468447
 30
0.0
 10
55.909489
 20
181.589591
 30
0.0
 10
56.025689
 20
181.657412
 30
0.0
 10
56.053337
 20
181.714988
 30
0.0
 10
55.924063
 20
181.765757
 30
0.0
 10
55.418750
 20
181.796130
 30
0.0
 10
55.057177
 20
181.789649
 30
0.0
 10
54.845046
 20
181.749363
 30
0.0
 10
54.048234
 20
181.501289
 30
0.0
 10
53.355009
 20
181.179028
 30
0.0
 10
53.179709
 20
181.081176
 30
0.0
 10
52.582101
 20
180.708527
 30
0.0
 10
52.133064
 20
180.382340
 30
0.0
 10
51.793846
 20
180.080882
 30
0.0
 10
51.664046
 20
179.963345
 30
0.0
 10
51.500357
 20
179.815404
 30
0.0
 10
51.250099
 20
179.585302
 30
0.0
 10
50.706886
 20
179.042868
 30
0.0
 10
50.479822
 20
178.804529
 30
0.0
 10
50.308710
 20
178.607275
 30
0.0
 10
50.183697
 20
178.459343
 30
0.0
 10
49.602026
 20
177.772075
 30
0.0
 10
49.489831
 20
177.612820
 30
0.0
 10
49.421889
 20
177.526522
 30
0.0
 10
49.340553
 20
177.416670
 30
0.0
 10
49.280030
 20
177.326263
 30
0.0
 10
49.200740
 20
177.201882
 30
0.0
 10
48.937551
 20
176.813062
 30
0.0
 10
48.730368
 20
176.480031
 30
0.0
 10
48.665759
 20
176.375377
 30
0.0
 10
48.576377
 20
176.217830
 30
0.0
 10
48.327457
 20
175.698851
 30
0.0
 10
48.270039
 20
175.573090
 30
0.0
 10
48.072271
 20
174.994989
 30
0.0
 10
48.017927
 20
174.814181
 30
0.0
 10
47.937095
 20
174.522591
 30
0.0
 10
47.887077
 20
174.284252
 30
0.0
 10
47.814529
 20
173.717163
 30
0.0
 10
47.858954
 20
173.064933
 30
0.0
 10
48.008927
 20
172.718283
 30
0.0
 10
48.071498
 20
172.605323
 30
0.0
 10
48.286063
 20
172.349266
 30
0.0
 10
48.470846
 20
172.177789
 30
0.0
 10
48.657699
 20
172.063392
 30
0.0
 10
48.976466
 20
171.920462
 30
0.0
 10
49.362984
 20
171.836126
 30
0.0
 10
49.610193
 20
171.818105
 30
0.0
 10
49.790830
 20
171.963245
 30
0.0
 10
49.790838
 20
171.963245
 30
0.0
  0
LWPOLYLINE
  5
105
100
AcDbEntity
  8
Layer_1
 62
1
100
AcDbPolyline
 90
25
 70
0
 10
50.749440
 20
171.913134
 30
0.0
 10
51.615708
 20
172.164290
 30
0.0
 10
52.355897
 20
172.503249
 30
0.0
 10
52.893063
 20
172.795187
 30
0.0
 10
53.143737
 20
172.967897
 30
0.0
 10
53.434697
 20
173.215775
 30
0.0
 10
53.697643
 20
173.481310
 30
0.0
 10
53.668586
 20
173.510774
 30
0.0
 10
52.805214
 20
173.382072
 30
0.0
 10
52.613981
 20
173.338294
 30
0.0
 10
52.468543
 20
173.288467
 30
0.0
 10
52.402356
 20
173.266990
 30
0.0
 10
52.143860
 20
173.192151
 30
0.0
 10
51.920755
 20
173.100253
 30
0.0
 10
51.602030
 20
172.960926
 30
0.0
 10
51.102525
 20
172.720896
 30
0.0
 10
50.749440
 20
172.508848
 30
0.0
 10
50.470556
 20
172.326950
 30
0.0
 10
50.065280
 20
172.034942
 30
0.0
 10
49.888885
 20
171.850509
 30
0.0
 10
49.933531
 20
171.818354
 30
0.0
 10
50.151832
 20
171.816027
 30
0.0
 10
50.397641
 20
171.833774
 30
0.0
 10
50.749440
 20
171.913134
 30
0.0
 10
50.749440
 20
171.913134
 30
0.0
  0
LWPOLYLINE
  5
106
100
AcDbEntity
  8
Layer_1
 62
1
100
AcDbPolyline
 90
74
 70
0
 10
58.534040
 20
172.941811
 30
0.0
 10
58.629908
 20
173.075251
 30
0.0
 10
58.868951
 20
173.397575
 30
0.0
 10
59.024785
 20
173.620237
 30
0.0
 10
59.228499
 20
173.922632
 30
0.0
 10
59.419253
 20
174.210281
 30
0.0
 10
59.482468
 20
174.313809
 30
0.0
 10
59.535221
 20
174.412432
 30
0.0
 10
59.735418
 20
174.760936
 30
0.0
 10
59.952819
 20
175.138993
 30
0.0
 10
60.069552
 20
175.344459
 30
0.0
 10
60.154004
 20
175.503048
 30
0.0
 10
60.442080
 20
176.067704
 30
0.0
 10
60.860779
 20
176.971764
 30
0.0
 10
60.924725
 20
177.119696
 30
0.0
 10
60.987996
 20
177.267634
 30
0.0
 10
61.061016
 20
177.456661
 30
0.0
 10
61.148476
 20
177.711440
 30
0.0
 10
61.188989
 20
177.836273
 30
0.0
 10
61.332042
 20
178.294965
 30
0.0
 10
61.359274
 20
178.544986
 30
0.0
 10
61.333736
 20
178.690500
 30
0.0
 10
61.266555
 20
178.910094
 30
0.0
 10
61.196943
 20
179.064633
 30
0.0
 10
61.077460
 20
179.193040
 30
0.0
 10
60.657963
 20
179.396154
 30
0.0
 10
60.477459
 20
179.454478
 30
0.0
 10
59.984561
 20
179.444826
 30
0.0
 10
59.761461
 20
179.397766
 30
0.0
 10
59.586162
 20
179.358221
 30
0.0
 10
59.378991
 20
179.304850
 30
0.0
 10
59.208052
 20
179.254377
 30
0.0
 10
59.040720
 20
179.200622
 30
0.0
 10
58.765446
 20
179.120556
 30
0.0
 10
58.577963
 20
179.067910
 30
0.0
 10
58.121350
 20
178.913227
 30
0.0
 10
57.857082
 20
178.813337
 30
0.0
 10
57.544098
 20
178.703705
 30
0.0
 10
57.398392
 20
178.544972
 30
0.0
 10
57.268070
 20
178.278633
 30
0.0
 10
57.175750
 20
178.090795
 30
0.0
 10
57.083726
 20
177.934542
 30
0.0
 10
56.877435
 20
177.563505
 30
0.0
 10
56.756458
 20
177.349823
 30
0.0
 10
56.652696
 20
177.152575
 30
0.0
 10
56.562972
 20
176.987176
 30
0.0
 10
56.459989
 20
176.798149
 30
0.0
 10
56.390907
 20
176.675890
 30
0.0
 10
56.292095
 20
176.520253
 30
0.0
 10
56.101477
 20
176.175073
 30
0.0
 10
55.633928
 20
175.328028
 30
0.0
 10
55.388439
 20
174.847881
 30
0.0
 10
55.328247
 20
174.733764
 30
0.0
 10
55.249716
 20
174.605731
 30
0.0
 10
55.000694
 20
174.211371
 30
0.0
 10
54.807163
 20
173.949071
 30
0.0
 10
54.691627
 20
173.797543
 30
0.0
 10
54.670542
 20
173.743211
 30
0.0
 10
54.729594
 20
173.708702
 30
0.0
 10
54.861068
 20
173.683697
 30
0.0
 10
54.996529
 20
173.670320
 30
0.0
 10
55.155891
 20
173.655080
 30
0.0
 10
55.562263
 20
173.594679
 30
0.0
 10
55.984575
 20
173.526248
 30
0.0
 10
56.199713
 20
173.484423
 30
0.0
 10
56.845129
 20
173.355986
 30
0.0
 10
57.251504
 20
173.249439
 30
0.0
 10
57.633974
 20
173.149558
 30
0.0
 10
57.896921
 20
173.067431
 30
0.0
 10
58.086072
 20
173.001318
 30
0.0
 10
58.293243
 20
172.934705
 30
0.0
 10
58.470374
 20
172.883479
 30
0.0
 10
58.534119
 20
172.941814
 30
0.0
 10
58.534040
 20
172.941811
 30
0.0
  0
LWPOLYLINE
  5
107
100
AcDbEntity
  8
Layer_1
 62
1
100
AcDbPolyline
 90
21
 70
0
 10
63.417363
 20
173.118234
 30
0.0
 10
63.904800
 20
173.248516
 30
0.0
 10
64.219943
 20
173.330877
 30
0.0
 10
64.366321
 20
173.393739
 30
0.0
 10
64.394860
 20
174.212579
 30
0.0
 10
64.378767
 20
175.018320
 30
0.0
 10
64.298214
 20
174.984335
 30
0.0
 10
64.097346
 20
174.796223
 30
0.0
 10
63.889275
 20
174.551392
 30
0.0
 10
63.716495
 20
174.259597
 30
0.0
 10
63.593359
 20
174.037688
 30
0.0
 10
63.515689
 20
173.907178
 30
0.0
 10
63.429854
 20
173.759240
 30
0.0
 10
63.346736
 20
173.610316
 30
0.0
 10
63.263904
 20
173.478821
 30
0.0
 10
63.172278
 20
173.309202
 30
0.0
 10
63.092183
 20
173.137064
 30
0.0
 10
63.069067
 20
173.072554
 30
0.0
 10
63.094723
 20
173.043233
 30
0.0
 10
63.417433
 20
173.118234
 30
0.0
 10
63.417363
 20
173.118234
 30
0.0
  0
LWPOLYLINE
  5
108
100
AcDbEntity
  8
Layer_1
 62
1
100
AcDbPolyline
 90
30
 70
0
 10
63.852030
 20
176.693668
 30
0.0
 10
64.282721
 20
177.125126
 30
0.0
 10
64.538172
 20
177.563091
 30
0.0
 10
64.685706
 20
178.089686
 30
0.0
 10
64.692620
 20
178.255838
 30
0.0
 10
64.668354
 20
178.276886
 30
0.0
 10
64.601533
 20
178.245735
 30
0.0
 10
64.360046
 20
178.210851
 30
0.0
 10
64.249757
 20
178.245212
 30
0.0
 10
64.181042
 20
178.308907
 30
0.0
 10
64.125534
 20
178.390752
 30
0.0
 10
64.085175
 20
178.563365
 30
0.0
 10
64.135722
 20
178.809169
 30
0.0
 10
64.218405
 20
178.993561
 30
0.0
 10
64.302753
 20
179.172087
 30
0.0
 10
64.068602
 20
179.028007
 30
0.0
 10
63.911285
 20
178.870765
 30
0.0
 10
63.800976
 20
178.695092
 30
0.0
 10
63.625905
 20
178.243505
 30
0.0
 10
63.595100
 20
178.168524
 30
0.0
 10
63.537344
 20
177.974446
 30
0.0
 10
63.489978
 20
177.793358
 30
0.0
 10
63.378526
 20
177.292295
 30
0.0
 10
63.354001
 20
177.065789
 30
0.0
 10
63.364302
 20
176.889440
 30
0.0
 10
63.430740
 20
176.760588
 30
0.0
 10
63.513502
 20
176.696580
 30
0.0
 10
63.667410
 20
176.641941
 30
0.0
 10
63.852019
 20
176.693673
 30
0.0
 10
63.852030
 20
176.693668
 30
0.0
  0
LWPOLYLINE
  5
109
100
AcDbEntity
  8
Layer_1
 62
1
100
AcDbPolyline
 90
24
 70
0
 10
66.352299
 20
176.922928
 30
0.0
 10
66.683312
 20
177.087535
 30
0.0
 10
67.002866
 20
177.296853
 30
0.0
 10
67.110717
 20
177.396130
 30
0.0
 10
67.166072
 20
177.522413
 30
0.0
 10
67.242947
 20
177.719661
 30
0.0
 10
67.372106
 20
178.023750
 30
0.0
 10
67.562112
 20
178.459343
 30
0.0
 10
67.656708
 20
178.671119
 30
0.0
 10
67.655067
 20
178.734668
 30
0.0
 10
67.383149
 20
178.763432
 30
0.0
 10
66.787649
 20
178.810978
 30
0.0
 10
66.684108
 20
178.804040
 30
0.0
 10
66.594104
 20
178.695363
 30
0.0
 10
66.455406
 20
178.483998
 30
0.0
 10
66.222647
 20
178.127468
 30
0.0
 10
66.128688
 20
177.921368
 30
0.0
 10
66.057577
 20
177.660403
 30
0.0
 10
65.987518
 20
177.136640
 30
0.0
 10
66.017923
 20
176.984457
 30
0.0
 10
66.092248
 20
176.898866
 30
0.0
 10
66.190403
 20
176.876687
 30
0.0
 10
66.352299
 20
176.922939
 30
0.0
 10
66.352299
 20
176.922928
 30
0.0
  0
LWPOLYLINE
  5
10a
100
AcDbEntity
  8
Layer_1
 62
1
100
AcDbPolyline
 90
19
 70
0
 10
64.550217
 20
178.377157
 30
0.0
 10
64.621932
 20
178.401315
 30
0.0
 10
64.715164
 20
178.460102
 30
0.0
 10
64.776525
 20
178.518229
 30
0.0
 10
64.765067
 20
178.653165
 30
0.0
 10
64.733328
 20
178.845626
 30
0.0
 10
64.693540
 20
179.001785
 30
0.0
 10
64.659372
 20
179.129172
 30
0.0
 10
64.610867
 20
179.156271
 30
0.0
 10
64.533277
 20
179.142596
 30
0.0
 10
64.389200
 20
179.029381
 30
0.0
 10
64.310119
 20
178.927815
 30
0.0
 10
64.222835
 20
178.751313
 30
0.0
 10
64.202172
 20
178.555651
 30
0.0
 10
64.249371
 20
178.436253
 30
0.0
 10
64.316178
 20
178.376564
 30
0.0
 10
64.438909
 20
178.354596
 30
0.0
 10
64.550205
 20
178.377129
 30
0.0
 10
64.550217
 20
178.377157
 30
0.0
  0
LWPOLYLINE
  5
10b
100
AcDbEntity
  8
Layer_1
 62
1
100
AcDbPolyline
 90
41
 70
0
 10
53.457825
 20
178.501544
 30
0.0
 10
53.984497
 20
178.615291
 30
0.0
 10
54.469363
 20
178.828038
 30
0.0
 10
54.669755
 20
178.945321
 30
0.0
 10
55.195343
 20
179.299534
 30
0.0
 10
55.638065
 20
179.707214
 30
0.0
 10
55.785475
 20
179.877270
 30
0.0
 10
55.849035
 20
179.961920
 30
0.0
 10
55.958715
 20
180.119402
 30
0.0
 10
56.138163
 20
180.409913
 30
0.0
 10
56.279613
 20
180.727696
 30
0.0
 10
56.331830
 20
181.012579
 30
0.0
 10
56.331776
 20
181.311955
 30
0.0
 10
56.270121
 20
181.493353
 30
0.0
 10
56.187486
 20
181.539897
 30
0.0
 10
56.102179
 20
181.510597
 30
0.0
 10
55.904813
 20
181.397313
 30
0.0
 10
55.621484
 20
181.239020
 30
0.0
 10
55.488490
 20
181.163275
 30
0.0
 10
54.674711
 20
180.597159
 30
0.0
 10
54.453925
 20
180.415377
 30
0.0
 10
54.313509
 20
180.290429
 30
0.0
 10
54.244517
 20
180.237154
 30
0.0
 10
54.096341
 20
180.117142
 30
0.0
 10
54.016357
 20
180.006051
 30
0.0
 10
54.196403
 20
179.977625
 30
0.0
 10
54.522362
 20
179.928387
 30
0.0
 10
54.597900
 20
179.885847
 30
0.0
 10
54.621946
 20
179.828982
 30
0.0
 10
54.299237
 20
179.798126
 30
0.0
 10
53.865887
 20
179.784608
 30
0.0
 10
53.758358
 20
179.761013
 30
0.0
 10
53.668741
 20
179.674502
 30
0.0
 10
53.328601
 20
179.254307
 30
0.0
 10
53.278450
 20
179.177314
 30
0.0
 10
53.180688
 20
178.993530
 30
0.0
 10
53.044087
 20
178.722318
 30
0.0
 10
52.973586
 20
178.560182
 30
0.0
 10
52.982396
 20
178.482423
 30
0.0
 10
53.457825
 20
178.501530
 30
0.0
 10
53.457825
 20
178.501544
 30
0.0
  0
LWPOLYLINE
  5
10c
100
AcDbEntity
  8
Layer_1
 62
1
100
AcDbPolyline
 90
15
 70
0
 10
52.545607
 20
178.627827
 30
0.0
 10
52.602991
 20
178.695402
 30
0.0
 10
52.700987
 20
178.826898
 30
0.0
 10
53.271203
 20
179.516985
 30
0.0
 10
53.441182
 20
179.734530
 30
0.0
 10
53.209650
 20
179.707183
 30
0.0
 10
52.990078
 20
179.649017
 30
0.0
 10
52.468125
 20
179.369752
 30
0.0
 10
52.242109
 20
179.147627
 30
0.0
 10
52.151830
 20
178.955165
 30
0.0
 10
52.219746
 20
178.758440
 30
0.0
 10
52.382567
 20
178.613366
 30
0.0
 10
52.485596
 20
178.584752
 30
0.0
 10
52.545607
 20
178.627816
 30
0.0
 10
52.545607
 20
178.627827
 30
0.0
  0
LWPOLYLINE
  5
10d
100
AcDbEntity
  8
Layer_1
 62
1
100
AcDbPolyline
 90
13
 70
0
 10
67.620842
 20
178.930600
 30
0.0
 10
67.670604
 20
179.012603
 30
0.0
 10
67.650873
 20
179.130234
 30
0.0
 10
67.586787
 20
179.216486
 30
0.0
 10
67.446539
 20
179.268309
 30
0.0
 10
67.307186
 20
179.272657
 30
0.0
 10
66.991119
 20
179.131263
 30
0.0
 10
66.829099
 20
178.983946
 30
0.0
 10
66.872922
 20
178.951787
 30
0.0
 10
66.948620
 20
178.933471
 30
0.0
 10
67.305229
 20
178.907337
 30
0.0
 10
67.620842
 20
178.930620
 30
0.0
 10
67.620842
 20
178.930600
 30
0.0
  0
LWPOLYLINE
  5
10e
100
AcDbEntity
  8
Layer_1
 62
1
100
AcDbPolyline
 90
47
 70
0
 10
58.013061
 20
179.090874
 30
0.0
 10
58.226144
 20
179.146684
 30
0.0
 10
58.366959
 20
179.196801
 30
0.0
 10
59.263349
 20
179.429960
 30
0.0
 10
59.681700
 20
179.584746
 30
0.0
 10
59.992708
 20
179.734459
 30
0.0
 10
60.219556
 20
179.886817
 30
0.0
 10
60.650339
 20
180.263339
 30
0.0
 10
60.969517
 20
180.595314
 30
0.0
 10
61.051067
 20
180.703046
 30
0.0
 10
61.132393
 20
180.826324
 30
0.0
 10
61.211612
 20
180.949604
 30
0.0
 10
61.347034
 20
181.178715
 30
0.0
 10
61.399228
 20
181.264765
 30
0.0
 10
61.625302
 20
181.738599
 30
0.0
 10
61.662420
 20
181.869355
 30
0.0
 10
61.688526
 20
182.099479
 30
0.0
 10
61.635403
 20
182.371440
 30
0.0
 10
61.486985
 20
182.600911
 30
0.0
 10
61.251428
 20
182.729645
 30
0.0
 10
60.941693
 20
182.818238
 30
0.0
 10
60.618739
 20
182.858686
 30
0.0
 10
60.270235
 20
182.851601
 30
0.0
 10
59.883850
 20
182.797595
 30
0.0
 10
59.739691
 20
182.770389
 30
0.0
 10
59.662893
 20
182.647744
 30
0.0
 10
59.558628
 20
182.481139
 30
0.0
 10
59.486916
 20
182.356823
 30
0.0
 10
59.426520
 20
182.249983
 30
0.0
 10
59.348336
 20
182.108440
 30
0.0
 10
59.251641
 20
181.944062
 30
0.0
 10
59.065775
 20
181.591177
 30
0.0
 10
58.812272
 20
181.121771
 30
0.0
 10
58.751083
 20
180.988777
 30
0.0
 10
58.703134
 20
180.893476
 30
0.0
 10
58.447257
 20
180.436761
 30
0.0
 10
58.355938
 20
180.256613
 30
0.0
 10
58.294112
 20
180.148141
 30
0.0
 10
58.220534
 20
180.008308
 30
0.0
 10
58.142353
 20
179.865281
 30
0.0
 10
58.062122
 20
179.729603
 30
0.0
 10
57.926371
 20
179.470240
 30
0.0
 10
57.805639
 20
179.240116
 30
0.0
 10
57.729524
 20
179.088069
 30
0.0
 10
57.786887
 20
179.060003
 30
0.0
 10
58.013072
 20
179.090891
 30
0.0
 10
58.013061
 20
179.090874
 30
0.0
  0
LWPOLYLINE
  5
10f
100
AcDbEntity
  8
Layer_1
 62
1
100
AcDbPolyline
 90
504
 70
0
 10
76.390836
 20
167.143400
 30
0.0
 10
76.016266
 20
167.224978
 30
0.0
 10
75.693945
 20
167.367090
 30
0.0
 10
75.273639
 20
167.778127
 30
0.0
 10
75.167462
 20
168.063450
 30
0.0
 10
75.109228
 20
168.377212
 30
0.0
 10
75.114796
 20
168.657415
 30
0.0
 10
75.178114
 20
169.009395
 30
0.0
 10
75.294837
 20
169.328040
 30
0.0
 10
75.530281
 20
169.640790
 30
0.0
 10
75.863261
 20
169.955257
 30
0.0
 10
76.190396
 20
170.158084
 30
0.0
 10
76.438647
 20
170.308458
 30
0.0
 10
76.377137
 20
170.424420
 30
0.0
 10
76.257156
 20
170.650821
 30
0.0
 10
76.177117
 20
170.806975
 30
0.0
 10
76.058268
 20
171.169371
 30
0.0
 10
76.002332
 20
171.797372
 30
0.0
 10
75.983507
 20
172.023446
 30
0.0
 10
75.800557
 20
171.986675
 30
0.0
 10
75.653907
 20
171.931266
 30
0.0
 10
75.599781
 20
171.869189
 30
0.0
 10
75.554191
 20
171.639578
 30
0.0
 10
75.518750
 20
171.358756
 30
0.0
 10
75.434769
 20
171.070745
 30
0.0
 10
75.340914
 20
170.836828
 30
0.0
 10
75.195009
 20
170.593728
 30
0.0
 10
74.828154
 20
170.183126
 30
0.0
 10
74.707854
 20
170.098357
 30
0.0
 10
74.486091
 20
169.961836
 30
0.0
 10
74.255300
 20
169.869314
 30
0.0
 10
73.936651
 20
169.847075
 30
0.0
 10
73.717968
 20
169.855564
 30
0.0
 10
73.558194
 20
169.900172
 30
0.0
 10
73.070294
 20
170.147357
 30
0.0
 10
72.667817
 20
170.532178
 30
0.0
 10
72.581160
 20
170.733888
 30
0.0
 10
72.523771
 20
171.004466
 30
0.0
 10
72.523488
 20
171.314295
 30
0.0
 10
72.540083
 20
171.456938
 30
0.0
 10
72.456056
 20
171.481161
 30
0.0
 10
72.279307
 20
171.455527
 30
0.0
 10
71.963481
 20
171.439025
 30
0.0
 10
71.665761
 20
171.576872
 30
0.0
 10
71.513853
 20
171.732594
 30
0.0
 10
71.475933
 20
171.954197
 30
0.0
 10
71.457701
 20
172.089805
 30
0.0
 10
71.344962
 20
172.014384
 30
0.0
 10
71.062876
 20
171.843518
 30
0.0
 10
70.752250
 20
171.759859
 30
0.0
 10
70.558830
 20
171.762409
 30
0.0
 10
70.422160
 20
171.845539
 30
0.0
 10
70.334127
 20
172.004131
 30
0.0
 10
70.351399
 20
172.289141
 30
0.0
 10
70.377435
 20
172.483294
 30
0.0
 10
70.347532
 20
172.533365
 30
0.0
 10
70.120231
 20
172.334568
 30
0.0
 10
69.865251
 20
172.110480
 30
0.0
 10
69.765635
 20
172.044542
 30
0.0
 10
69.553917
 20
171.934162
 30
0.0
 10
69.311297
 20
171.857810
 30
0.0
 10
69.053636
 20
171.849518
 30
0.0
 10
68.856654
 20
171.893076
 30
0.0
 10
68.700838
 20
172.001135
 30
0.0
 10
68.618797
 20
172.116909
 30
0.0
 10
68.561006
 20
172.204232
 30
0.0
 10
68.442846
 20
172.049867
 30
0.0
 10
68.170744
 20
171.759413
 30
0.0
 10
67.983859
 20
171.650007
 30
0.0
 10
67.779415
 20
171.637151
 30
0.0
 10
67.639350
 20
171.674641
 30
0.0
 10
67.526927
 20
171.779098
 30
0.0
 10
67.463701
 20
171.846120
 30
0.0
 10
67.433342
 20
171.837213
 30
0.0
 10
66.977404
 20
171.433452
 30
0.0
 10
66.766525
 20
171.373174
 30
0.0
 10
66.534290
 20
171.354847
 30
0.0
 10
66.303827
 20
171.407812
 30
0.0
 10
66.173114
 20
171.463003
 30
0.0
 10
66.059236
 20
171.561516
 30
0.0
 10
65.934124
 20
171.707955
 30
0.0
 10
65.869834
 20
171.882831
 30
0.0
 10
65.848075
 20
172.410333
 30
0.0
 10
65.866447
 20
173.064019
 30
0.0
 10
65.848696
 20
173.400987
 30
0.0
 10
65.792237
 20
173.525821
 30
0.0
 10
65.717962
 20
173.569168
 30
0.0
 10
65.552523
 20
173.492822
 30
0.0
 10
65.497095
 20
173.482363
 30
0.0
 10
65.474520
 20
173.559059
 30
0.0
 10
65.532788
 20
173.749299
 30
0.0
 10
65.670681
 20
173.948904
 30
0.0
 10
65.809800
 20
174.055499
 30
0.0
 10
65.991209
 20
174.105758
 30
0.0
 10
66.114446
 20
174.095826
 30
0.0
 10
66.230012
 20
174.035642
 30
0.0
 10
66.328744
 20
173.932203
 30
0.0
 10
66.401476
 20
173.792502
 30
0.0
 10
66.434216
 20
173.606443
 30
0.0
 10
66.415643
 20
173.061691
 30
0.0
 10
66.405596
 20
172.699944
 30
0.0
 10
66.469122
 20
172.399798
 30
0.0
 10
66.602672
 20
171.890645
 30
0.0
 10
66.680997
 20
171.774304
 30
0.0
 10
66.789235
 20
171.701673
 30
0.0
 10
66.918372
 20
171.664692
 30
0.0
 10
67.059316
 20
171.697835
 30
0.0
 10
67.173362
 20
171.773780
 30
0.0
 10
67.313406
 20
171.988893
 30
0.0
 10
67.384620
 20
172.109871
 30
0.0
 10
67.377338
 20
172.350513
 30
0.0
 10
67.353603
 20
172.788412
 30
0.0
 10
67.332606
 20
173.306185
 30
0.0
 10
67.315898
 20
173.655481
 30
0.0
 10
67.268967
 20
173.681937
 30
0.0
 10
67.188653
 20
173.633665
 30
0.0
 10
67.100450
 20
173.593677
 30
0.0
 10
67.070329
 20
173.637480
 30
0.0
 10
67.137176
 20
173.695875
 30
0.0
 10
67.407393
 20
173.879385
 30
0.0
 10
67.580657
 20
174.085130
 30
0.0
 10
67.641120
 20
174.185581
 30
0.0
 10
67.729114
 20
174.325301
 30
0.0
 10
67.874221
 20
174.543333
 30
0.0
 10
67.917658
 20
174.551407
 30
0.0
 10
67.960136
 20
174.506674
 30
0.0
 10
68.001995
 20
174.362333
 30
0.0
 10
68.018271
 20
174.092844
 30
0.0
 10
67.973739
 20
173.210111
 30
0.0
 10
67.964256
 20
172.691858
 30
0.0
 10
68.008619
 20
172.290050
 30
0.0
 10
68.105200
 20
172.174285
 30
0.0
 10
68.241189
 20
172.226059
 30
0.0
 10
68.482461
 20
172.507674
 30
0.0
 10
68.574488
 20
172.640465
 30
0.0
 10
68.645080
 20
172.768247
 30
0.0
 10
68.740762
 20
172.981932
 30
0.0
 10
68.829233
 20
173.174684
 30
0.0
 10
68.875063
 20
173.259342
 30
0.0
 10
68.983087
 20
173.423720
 30
0.0
 10
69.322239
 20
173.799307
 30
0.0
 10
69.396212
 20
173.841282
 30
0.0
 10
69.707027
 20
174.036768
 30
0.0
 10
70.048179
 20
174.186631
 30
0.0
 10
70.346375
 20
174.242813
 30
0.0
 10
70.583101
 20
174.208183
 30
0.0
 10
70.785601
 20
174.114182
 30
0.0
 10
70.876784
 20
174.062301
 30
0.0
 10
71.085072
 20
174.497891
 30
0.0
 10
71.189111
 20
174.752670
 30
0.0
 10
71.242547
 20
175.059217
 30
0.0
 10
71.251352
 20
175.258920
 30
0.0
 10
71.376887
 20
175.346316
 30
0.0
 10
72.040197
 20
175.970654
 30
0.0
 10
72.244907
 20
176.231577
 30
0.0
 10
72.665336
 20
176.725155
 30
0.0
 10
72.653705
 20
176.602322
 30
0.0
 10
72.510004
 20
176.330484
 30
0.0
 10
72.095902
 20
175.500573
 30
0.0
 10
71.911278
 20
175.073201
 30
0.0
 10
71.699148
 20
174.571862
 30
0.0
 10
71.589104
 20
174.284210
 30
0.0
 10
71.363431
 20
173.684239
 30
0.0
 10
71.124716
 20
172.944563
 30
0.0
 10
71.037639
 20
172.676601
 30
0.0
 10
70.981073
 20
172.438259
 30
0.0
 10
71.070481
 20
172.177982
 30
0.0
 10
71.151297
 20
172.153488
 30
0.0
 10
71.267721
 20
172.188650
 30
0.0
 10
71.586164
 20
172.501578
 30
0.0
 10
71.875673
 20
172.869257
 30
0.0
 10
71.928945
 20
172.977428
 30
0.0
 10
71.967798
 20
173.059616
 30
0.0
 10
72.023684
 20
173.173888
 30
0.0
 10
72.031953
 20
173.267823
 30
0.0
 10
72.028151
 20
173.346445
 30
0.0
 10
72.231433
 20
173.420350
 30
0.0
 10
72.956468
 20
173.733995
 30
0.0
 10
73.283654
 20
173.922305
 30
0.0
 10
73.292351
 20
173.878661
 30
0.0
 10
73.217473
 20
173.804948
 30
0.0
 10
73.082331
 20
173.707889
 30
0.0
 10
72.975741
 20
173.601048
 30
0.0
 10
72.670509
 20
173.158236
 30
0.0
 10
72.588608
 20
173.026740
 30
0.0
 10
72.314291
 20
172.550056
 30
0.0
 10
72.064872
 20
172.020717
 30
0.0
 10
72.054691
 20
171.902884
 30
0.0
 10
72.102980
 20
171.782620
 30
0.0
 10
72.182149
 20
171.716067
 30
0.0
 10
72.303363
 20
171.697205
 30
0.0
 10
72.620505
 20
171.800767
 30
0.0
 10
72.797331
 20
171.969386
 30
0.0
 10
73.141642
 20
172.366785
 30
0.0
 10
73.562108
 20
172.685912
 30
0.0
 10
74.235042
 20
172.937578
 30
0.0
 10
74.589556
 20
172.948578
 30
0.0
 10
74.895577
 20
172.902486
 30
0.0
 10
75.187721
 20
172.699666
 30
0.0
 10
75.382250
 20
172.494001
 30
0.0
 10
75.474652
 20
172.237760
 30
0.0
 10
75.571765
 20
172.035347
 30
0.0
 10
76.016959
 20
172.178640
 30
0.0
 10
76.053834
 20
172.355398
 30
0.0
 10
76.207792
 20
172.919911
 30
0.0
 10
76.427920
 20
173.376893
 30
0.0
 10
76.486408
 20
173.478025
 30
0.0
 10
76.729220
 20
173.842622
 30
0.0
 10
76.770622
 20
173.931773
 30
0.0
 10
76.550150
 20
174.047129
 30
0.0
 10
75.251347
 20
174.588273
 30
0.0
 10
74.964499
 20
174.716241
 30
0.0
 10
74.223462
 20
175.040272
 30
0.0
 10
73.866217
 20
175.186454
 30
0.0
 10
73.736756
 20
175.271194
 30
0.0
 10
73.768591
 20
175.376627
 30
0.0
 10
73.866845
 20
175.399625
 30
0.0
 10
74.099702
 20
175.280750
 30
0.0
 10
74.446567
 20
175.098432
 30
0.0
 10
74.718195
 20
174.973540
 30
0.0
 10
74.850650
 20
174.917051
 30
0.0
 10
75.288527
 20
174.708096
 30
0.0
 10
75.572222
 20
174.578655
 30
0.0
 10
75.710342
 20
174.515228
 30
0.0
 10
75.825054
 20
174.472438
 30
0.0
 10
76.008320
 20
174.406251
 30
0.0
 10
76.255332
 20
174.302100
 30
0.0
 10
76.613506
 20
174.153532
 30
0.0
 10
76.850271
 20
174.062307
 30
0.0
 10
77.195931
 20
174.431137
 30
0.0
 10
77.530641
 20
174.793684
 30
0.0
 10
77.935241
 20
175.157594
 30
0.0
 10
78.009219
 20
175.233650
 30
0.0
 10
78.069209
 20
175.289011
 30
0.0
 10
78.169654
 20
175.353837
 30
0.0
 10
79.076045
 20
175.817825
 30
0.0
 10
79.368548
 20
175.910080
 30
0.0
 10
79.639465
 20
175.984463
 30
0.0
 10
79.928630
 20
176.040778
 30
0.0
 10
80.542178
 20
176.133276
 30
0.0
 10
80.932615
 20
176.170580
 30
0.0
 10
81.546158
 20
176.188981
 30
0.0
 10
82.163542
 20
176.152010
 30
0.0
 10
82.388185
 20
176.104657
 30
0.0
 10
82.574045
 20
176.023158
 30
0.0
 10
82.911476
 20
175.771396
 30
0.0
 10
83.023764
 20
175.629687
 30
0.0
 10
83.152911
 20
175.377103
 30
0.0
 10
83.207936
 20
175.035838
 30
0.0
 10
83.196947
 20
174.807705
 30
0.0
 10
83.106901
 20
174.610086
 30
0.0
 10
82.730888
 20
174.229659
 30
0.0
 10
82.582808
 20
174.117337
 30
0.0
 10
82.191578
 20
173.915543
 30
0.0
 10
82.008060
 20
173.831768
 30
0.0
 10
81.458511
 20
173.643709
 30
0.0
 10
80.894218
 20
173.510868
 30
0.0
 10
80.287196
 20
173.437326
 30
0.0
 10
79.999267
 20
173.405457
 30
0.0
 10
79.036204
 20
173.436866
 30
0.0
 10
78.757320
 20
173.469682
 30
0.0
 10
78.478434
 20
173.512927
 30
0.0
 10
78.231424
 20
173.552179
 30
0.0
 10
77.514295
 20
173.725680
 30
0.0
 10
76.950175
 20
173.881504
 30
0.0
 10
76.728910
 20
173.632429
 30
0.0
 10
76.272336
 20
172.678193
 30
0.0
 10
76.182488
 20
172.248792
 30
0.0
 10
76.446566
 20
172.291901
 30
0.0
 10
77.147759
 20
172.452596
 30
0.0
 10
77.582470
 20
172.495624
 30
0.0
 10
78.036987
 20
172.485319
 30
0.0
 10
78.393216
 20
172.411835
 30
0.0
 10
78.675786
 20
172.306331
 30
0.0
 10
78.917563
 20
172.128754
 30
0.0
 10
79.143617
 20
171.875756
 30
0.0
 10
79.344215
 20
171.560309
 30
0.0
 10
79.509620
 20
171.195383
 30
0.0
 10
79.593789
 20
170.925012
 30
0.0
 10
79.627219
 20
170.602245
 30
0.0
 10
79.628472
 20
170.112837
 30
0.0
 10
79.568918
 20
169.678380
 30
0.0
 10
79.546171
 20
169.532866
 30
0.0
 10
79.378977
 20
169.045900
 30
0.0
 10
79.331814
 20
168.883876
 30
0.0
 10
80.034468
 20
168.809107
 30
0.0
 10
80.844706
 20
168.818731
 30
0.0
 10
81.170921
 20
168.861911
 30
0.0
 10
81.825053
 20
168.955733
 30
0.0
 10
82.147402
 20
169.030821
 30
0.0
 10
83.028237
 20
169.291478
 30
0.0
 10
83.769273
 20
169.616627
 30
0.0
 10
84.167678
 20
169.819056
 30
0.0
 10
85.122454
 20
170.304468
 30
0.0
 10
85.609907
 20
170.589630
 30
0.0
 10
85.825045
 20
170.733877
 30
0.0
 10
85.976437
 20
170.831133
 30
0.0
 10
86.231420
 20
171.004056
 30
0.0
 10
86.393779
 20
171.124244
 30
0.0
 10
86.596505
 20
171.266766
 30
0.0
 10
86.736936
 20
171.373217
 30
0.0
 10
86.846565
 20
171.464818
 30
0.0
 10
87.617873
 20
172.163739
 30
0.0
 10
88.202471
 20
172.824045
 30
0.0
 10
88.382811
 20
173.048240
 30
0.0
 10
88.694590
 20
173.454132
 30
0.0
 10
88.783628
 20
173.569194
 30
0.0
 10
88.895558
 20
173.718196
 30
0.0
 10
89.045627
 20
173.931883
 30
0.0
 10
89.155583
 20
174.095186
 30
0.0
 10
89.249738
 20
174.249118
 30
0.0
 10
89.661890
 20
174.948755
 30
0.0
 10
89.767898
 20
175.147180
 30
0.0
 10
89.944369
 20
175.475924
 30
0.0
 10
90.350981
 20
176.626544
 30
0.0
 10
90.450159
 20
176.945201
 30
0.0
 10
90.588775
 20
177.473069
 30
0.0
 10
90.733680
 20
178.179875
 30
0.0
 10
90.781875
 20
178.467525
 30
0.0
 10
90.837044
 20
178.837366
 30
0.0
 10
90.879168
 20
179.198985
 30
0.0
 10
90.898726
 20
179.815393
 30
0.0
 10
90.889342
 20
180.308695
 30
0.0
 10
90.828907
 20
180.720434
 30
0.0
 10
90.607879
 20
181.532382
 30
0.0
 10
90.566519
 20
181.631718
 30
0.0
 10
90.209435
 20
182.338530
 30
0.0
 10
89.815392
 20
182.846707
 30
0.0
 10
89.370860
 20
183.265887
 30
0.0
 10
89.183210
 20
183.424377
 30
0.0
 10
89.085476
 20
183.503820
 30
0.0
 10
89.007693
 20
183.568195
 30
0.0
 10
88.842480
 20
183.669447
 30
0.0
 10
88.645066
 20
183.769698
 30
0.0
 10
87.968472
 20
183.971312
 30
0.0
 10
87.546160
 20
184.041010
 30
0.0
 10
86.892773
 20
184.064180
 30
0.0
 10
86.398752
 20
184.051932
 30
0.0
 10
86.202881
 20
184.053625
 30
0.0
 10
85.986027
 20
184.031951
 30
0.0
 10
85.663967
 20
183.991138
 30
0.0
 10
85.099948
 20
183.917549
 30
0.0
 10
84.860906
 20
183.876254
 30
0.0
 10
84.388766
 20
183.792478
 30
0.0
 10
83.888794
 20
183.650000
 30
0.0
 10
83.609770
 20
183.541413
 30
0.0
 10
83.491095
 20
183.327247
 30
0.0
 10
83.410165
 20
183.179312
 30
0.0
 10
83.107090
 20
182.839946
 30
0.0
 10
82.966935
 20
182.723424
 30
0.0
 10
82.493214
 20
182.423428
 30
0.0
 10
82.049970
 20
182.239718
 30
0.0
 10
81.546167
 20
182.150649
 30
0.0
 10
81.258238
 20
182.117155
 30
0.0
 10
80.756246
 20
182.100504
 30
0.0
 10
80.175038
 20
182.130863
 30
0.0
 10
79.641790
 20
182.215122
 30
0.0
 10
79.366446
 20
182.272707
 30
0.0
 10
79.228456
 20
182.305098
 30
0.0
 10
78.619898
 20
182.437471
 30
0.0
 10
78.341014
 20
182.492276
 30
0.0
 10
78.175654
 20
182.518805
 30
0.0
 10
77.968483
 20
182.552271
 30
0.0
 10
77.567549
 20
182.597688
 30
0.0
 10
76.929587
 20
182.601490
 30
0.0
 10
76.327054
 20
182.576090
 30
0.0
 10
76.111913
 20
182.560963
 30
0.0
 10
75.633828
 20
182.508617
 30
0.0
 10
75.012313
 20
182.356265
 30
0.0
 10
74.494387
 20
182.122082
 30
0.0
 10
74.104596
 20
181.847140
 30
0.0
 10
73.743542
 20
181.511271
 30
0.0
 10
73.459138
 20
181.165102
 30
0.0
 10
73.299295
 20
180.859259
 30
0.0
 10
73.207461
 20
180.696664
 30
0.0
 10
73.033337
 20
180.514163
 30
0.0
 10
72.911837
 20
180.407232
 30
0.0
 10
72.795785
 20
180.407232
 30
0.0
 10
72.635673
 20
180.428094
 30
0.0
 10
72.555789
 20
180.533569
 30
0.0
 10
72.511556
 20
180.740531
 30
0.0
 10
72.531481
 20
180.871208
 30
0.0
 10
72.550164
 20
180.918320
 30
0.0
 10
72.617352
 20
181.079907
 30
0.0
 10
72.763953
 20
181.293537
 30
0.0
 10
72.886488
 20
181.426348
 30
0.0
 10
73.093013
 20
181.596421
 30
0.0
 10
73.698811
 20
181.977497
 30
0.0
 10
73.848965
 20
182.067151
 30
0.0
 10
74.327052
 20
182.322378
 30
0.0
 10
74.916717
 20
182.521231
 30
0.0
 10
75.433628
 20
182.642715
 30
0.0
 10
75.591684
 20
182.666139
 30
0.0
 10
76.502355
 20
182.725316
 30
0.0
 10
77.673660
 20
182.711831
 30
0.0
 10
78.470472
 20
182.623879
 30
0.0
 10
78.884543
 20
182.590718
 30
0.0
 10
79.543926
 20
182.593096
 30
0.0
 10
80.207522
 20
182.681625
 30
0.0
 10
80.980430
 20
182.876203
 30
0.0
 10
81.076046
 20
182.906697
 30
0.0
 10
81.299152
 20
182.971808
 30
0.0
 10
81.777239
 20
183.119741
 30
0.0
 10
81.972624
 20
183.195692
 30
0.0
 10
82.187762
 20
183.275098
 30
0.0
 10
82.438593
 20
183.357710
 30
0.0
 10
82.821063
 20
183.491447
 30
0.0
 10
83.354583
 20
183.677945
 30
0.0
 10
83.452643
 20
183.754427
 30
0.0
 10
83.448154
 20
184.037243
 30
0.0
 10
83.348192
 20
184.323881
 30
0.0
 10
83.177253
 20
184.525114
 30
0.0
 10
82.936134
 20
184.704935
 30
0.0
 10
82.636072
 20
184.810215
 30
0.0
 10
82.334869
 20
184.855827
 30
0.0
 10
82.071512
 20
184.839134
 30
0.0
 10
81.880826
 20
184.815315
 30
0.0
 10
81.531835
 20
184.761312
 30
0.0
 10
81.390439
 20
184.746692
 30
0.0
 10
81.315092
 20
184.771359
 30
0.0
 10
81.351151
 20
184.796025
 30
0.0
 10
81.432866
 20
184.828114
 30
0.0
 10
81.670851
 20
184.926181
 30
0.0
 10
81.928634
 20
184.972981
 30
0.0
 10
82.258802
 20
184.996567
 30
0.0
 10
82.494371
 20
184.961862
 30
0.0
 10
82.700529
 20
184.909667
 30
0.0
 10
82.994121
 20
184.778889
 30
0.0
 10
83.278345
 20
184.603188
 30
0.0
 10
83.514020
 20
184.289635
 30
0.0
 10
83.609815
 20
183.933046
 30
0.0
 10
83.623700
 20
183.796343
 30
0.0
 10
83.758805
 20
183.789632
 30
0.0
 10
84.086446
 20
183.869899
 30
0.0
 10
84.956517
 20
184.064688
 30
0.0
 10
85.410703
 20
184.138800
 30
0.0
 10
85.846483
 20
184.191469
 30
0.0
 10
86.422651
 20
184.205636
 30
0.0
 10
87.633804
 20
184.138933
 30
0.0
 10
87.896754
 20
184.096515
 30
0.0
 10
88.380233
 20
183.989234
 30
0.0
 10
88.826594
 20
183.824458
 30
0.0
 10
89.345263
 20
183.563807
 30
0.0
 10
89.702959
 20
183.301249
 30
0.0
 10
89.951811
 20
183.094741
 30
0.0
 10
90.691301
 20
182.274194
 30
0.0
 10
90.797490
 20
182.092059
 30
0.0
 10
91.074362
 20
181.519724
 30
0.0
 10
91.258788
 20
180.925011
 30
0.0
 10
91.362338
 20
180.144232
 30
0.0
 10
91.369507
 20
179.492875
 30
0.0
 10
91.311865
 20
178.912528
 30
0.0
 10
91.206636
 20
178.385432
 30
0.0
 10
91.140410
 20
178.095832
 30
0.0
 10
91.066041
 20
177.824614
 30
0.0
 10
90.878454
 20
177.234817
 30
0.0
 10
90.502720
 20
176.281454
 30
0.0
 10
90.417557
 20
176.092419
 30
0.0
 10
90.254876
 20
175.730799
 30
0.0
 10
90.070316
 20
175.330831
 30
0.0
 10
89.976734
 20
175.161085
 30
0.0
 10
89.936529
 20
175.076150
 30
0.0
 10
89.901214
 20
174.982901
 30
0.0
 10
89.624425
 20
174.489777
 30
0.0
 10
89.489661
 20
174.251438
 30
0.0
 10
89.310114
 20
173.972004
 30
0.0
 10
89.012288
 20
173.534128
 30
0.0
 10
88.781213
 20
173.231670
 30
0.0
 10
88.498344
 20
172.876025
 30
0.0
 10
88.374838
 20
172.717413
 30
0.0
 10
87.573815
 20
171.888069
 30
0.0
 10
86.976399
 20
171.380270
 30
0.0
 10
86.926338
 20
171.338154
 30
0.0
 10
86.453311
 20
170.955743
 30
0.0
 10
86.266613
 20
170.810187
 30
0.0
 10
85.538191
 20
170.331927
 30
0.0
 10
85.227434
 20
170.158217
 30
0.0
 10
83.968471
 20
169.517420
 30
0.0
 10
83.769268
 20
169.427498
 30
0.0
 10
83.578031
 20
169.344212
 30
0.0
 10
83.458513
 20
169.294806
 30
0.0
 10
83.402734
 20
169.271325
 30
0.0
 10
83.195564
 20
169.197075
 30
0.0
 10
82.638364
 20
169.016139
 30
0.0
 10
81.937375
 20
168.857675
 30
0.0
 10
81.411476
 20
168.768275
 30
0.0
 10
80.916681
 20
168.702588
 30
0.0
 10
80.516242
 20
168.665569
 30
0.0
 10
80.048156
 20
168.671072
 30
0.0
 10
79.530231
 20
168.707109
 30
0.0
 10
79.316371
 20
168.727824
 30
0.0
 10
79.206104
 20
168.728389
 30
0.0
 10
79.074143
 20
168.541405
 30
0.0
 10
78.736902
 20
168.123999
 30
0.0
 10
78.406727
 20
167.833428
 30
0.0
 10
78.271268
 20
167.726167
 30
0.0
 10
77.951990
 20
167.528239
 30
0.0
 10
77.818607
 20
167.465407
 30
0.0
 10
77.641789
 20
167.389103
 30
0.0
 10
77.397494
 20
167.287080
 30
0.0
 10
76.968198
 20
167.182347
 30
0.0
 10
76.635936
 20
167.133156
 30
0.0
 10
76.390794
 20
167.143372
 30
0.0
 10
76.390836
 20
167.143400
 30
0.0
  0
LWPOLYLINE
  5
110
100
AcDbEntity
  8
Layer_1
 62
1
100
AcDbPolyline
 90
30
 70
0
 10
76.586862
 20
167.698881
 30
0.0
 10
76.910084
 20
167.807090
 30
0.0
 10
77.161410
 20
167.954010
 30
0.0
 10
77.329414
 20
168.070926
 30
0.0
 10
77.642157
 20
168.314735
 30
0.0
 10
78.040044
 20
168.692459
 30
0.0
 10
78.210520
 20
168.888680
 30
0.0
 10
78.196796
 20
168.932011
 30
0.0
 10
78.127885
 20
168.973318
 30
0.0
 10
77.888843
 20
169.097278
 30
0.0
 10
77.628863
 20
169.243783
 30
0.0
 10
77.131870
 20
169.580533
 30
0.0
 10
76.627327
 20
170.078077
 30
0.0
 10
76.526621
 20
170.188939
 30
0.0
 10
76.376629
 20
170.151380
 30
0.0
 10
76.127807
 20
170.007315
 30
0.0
 10
75.607390
 20
169.580765
 30
0.0
 10
75.443632
 20
169.339997
 30
0.0
 10
75.345948
 20
169.098263
 30
0.0
 10
75.314116
 20
168.983201
 30
0.0
 10
75.209586
 20
168.532075
 30
0.0
 10
75.246872
 20
168.268918
 30
0.0
 10
75.342479
 20
168.017476
 30
0.0
 10
75.513218
 20
167.825272
 30
0.0
 10
75.690984
 20
167.719470
 30
0.0
 10
75.825099
 20
167.683066
 30
0.0
 10
75.936650
 20
167.667261
 30
0.0
 10
76.244209
 20
167.660187
 30
0.0
 10
76.586862
 20
167.698887
 30
0.0
 10
76.586862
 20
167.698881
 30
0.0
  0
LWPOLYLINE
  5
111
100
AcDbEntity
  8
Layer_1
 62
1
100
AcDbPolyline
 90
53
 70
0
 10
78.401003
 20
169.118806
 30
0.0
 10
78.624069
 20
169.407872
 30
0.0
 10
78.737260
 20
169.604847
 30
0.0
 10
78.804824
 20
169.714662
 30
0.0
 10
78.933675
 20
169.928347
 30
0.0
 10
79.045717
 20
170.133813
 30
0.0
 10
79.093613
 20
170.240662
 30
0.0
 10
79.265272
 20
170.807748
 30
0.0
 10
79.308223
 20
171.206782
 30
0.0
 10
79.310199
 20
171.416787
 30
0.0
 10
79.211613
 20
171.585714
 30
0.0
 10
79.024633
 20
171.846559
 30
0.0
 10
78.807618
 20
172.055072
 30
0.0
 10
78.304094
 20
172.322150
 30
0.0
 10
77.854295
 20
172.404333
 30
0.0
 10
77.466235
 20
172.396521
 30
0.0
 10
77.036176
 20
172.319060
 30
0.0
 10
76.526221
 20
172.212535
 30
0.0
 10
76.253851
 20
172.139913
 30
0.0
 10
76.181963
 20
172.113863
 30
0.0
 10
76.144551
 20
172.059212
 30
0.0
 10
76.129281
 20
171.714161
 30
0.0
 10
76.141468
 20
171.367689
 30
0.0
 10
76.190881
 20
171.169371
 30
0.0
 10
76.272198
 20
170.955683
 30
0.0
 10
76.515169
 20
170.462565
 30
0.0
 10
76.575037
 20
170.372158
 30
0.0
 10
76.661193
 20
170.375996
 30
0.0
 10
76.939572
 20
170.423204
 30
0.0
 10
77.303405
 20
170.476363
 30
0.0
 10
77.891886
 20
170.502785
 30
0.0
 10
78.237628
 20
170.511251
 30
0.0
 10
78.286305
 20
170.469000
 30
0.0
 10
78.332975
 20
170.384137
 30
0.0
 10
78.278297
 20
170.328075
 30
0.0
 10
78.157372
 20
170.314697
 30
0.0
 10
78.005299
 20
170.357883
 30
0.0
 10
77.916636
 20
170.401145
 30
0.0
 10
77.500311
 20
170.381813
 30
0.0
 10
77.073656
 20
170.351185
 30
0.0
 10
76.789170
 20
170.292275
 30
0.0
 10
76.727537
 20
170.266083
 30
0.0
 10
76.712564
 20
170.212110
 30
0.0
 10
76.736468
 20
170.127313
 30
0.0
 10
76.876820
 20
169.997672
 30
0.0
 10
77.052119
 20
169.854229
 30
0.0
 10
77.180985
 20
169.756916
 30
0.0
 10
77.677958
 20
169.427007
 30
0.0
 10
77.740137
 20
169.388046
 30
0.0
 10
78.151716
 20
169.171192
 30
0.0
 10
78.271240
 20
169.119546
 30
0.0
 10
78.400933
 20
169.118699
 30
0.0
 10
78.401003
 20
169.118806
 30
0.0
  0
LWPOLYLINE
  5
112
100
AcDbEntity
  8
Layer_1
 62
1
100
AcDbPolyline
 90
25
 70
0
 10
73.425499
 20
170.372878
 30
0.0
 10
73.662753
 20
170.450563
 30
0.0
 10
73.896697
 20
170.571821
 30
0.0
 10
74.425104
 20
170.988444
 30
0.0
 10
74.740555
 20
171.327767
 30
0.0
 10
74.908766
 20
171.575508
 30
0.0
 10
74.701598
 20
171.645923
 30
0.0
 10
74.431577
 20
171.736656
 30
0.0
 10
74.196696
 20
171.887934
 30
0.0
 10
74.102891
 20
172.018642
 30
0.0
 10
74.064145
 20
172.181434
 30
0.0
 10
74.105437
 20
172.320218
 30
0.0
 10
74.215315
 20
172.480623
 30
0.0
 10
74.268704
 20
172.587629
 30
0.0
 10
74.082298
 20
172.472128
 30
0.0
 10
73.552561
 20
171.973049
 30
0.0
 10
73.064330
 20
171.266447
 30
0.0
 10
72.970265
 20
171.014003
 30
0.0
 10
72.932674
 20
170.755309
 30
0.0
 10
72.988201
 20
170.566118
 30
0.0
 10
73.093023
 20
170.444189
 30
0.0
 10
73.215511
 20
170.370959
 30
0.0
 10
73.302973
 20
170.350166
 30
0.0
 10
73.425499
 20
170.372934
 30
0.0
 10
73.425499
 20
170.372878
 30
0.0
  0
LWPOLYLINE
  5
113
100
AcDbEntity
  8
Layer_1
 62
1
100
AcDbPolyline
 90
18
 70
0
 10
74.988448
 20
171.865068
 30
0.0
 10
75.107972
 20
171.900834
 30
0.0
 10
75.154406
 20
171.996669
 30
0.0
 10
75.200843
 20
172.092511
 30
0.0
 10
75.173778
 20
172.210353
 30
0.0
 10
75.092933
 20
172.421033
 30
0.0
 10
74.988457
 20
172.568389
 30
0.0
 10
74.853785
 20
172.623115
 30
0.0
 10
74.668403
 20
172.619621
 30
0.0
 10
74.455672
 20
172.556623
 30
0.0
 10
74.289934
 20
172.413449
 30
0.0
 10
74.190907
 20
172.267330
 30
0.0
 10
74.181493
 20
172.138107
 30
0.0
 10
74.280305
 20
171.986153
 30
0.0
 10
74.470528
 20
171.884669
 30
0.0
 10
74.845031
 20
171.829977
 30
0.0
 10
74.988457
 20
171.865068
 30
0.0
 10
74.988448
 20
171.865068
 30
0.0
  0
LWPOLYLINE
  5
114
100
AcDbEntity
  8
Layer_1
 62
1
100
AcDbPolyline
 90
20
 70
0
 10
69.578099
 20
172.109137
 30
0.0
 10
69.927129
 20
172.344545
 30
0.0
 10
70.328917
 20
172.769063
 30
0.0
 10
70.558223
 20
173.076487
 30
0.0
 10
70.712378
 20
173.462378
 30
0.0
 10
70.809739
 20
173.785478
 30
0.0
 10
70.803372
 20
173.932022
 30
0.0
 10
70.688782
 20
174.068665
 30
0.0
 10
70.438656
 20
174.115325
 30
0.0
 10
70.143836
 20
174.052093
 30
0.0
 10
69.876295
 20
173.907931
 30
0.0
 10
69.590227
 20
173.581927
 30
0.0
 10
69.379061
 20
173.166511
 30
0.0
 10
69.155852
 20
172.454453
 30
0.0
 10
69.155570
 20
172.265629
 30
0.0
 10
69.224014
 20
172.073176
 30
0.0
 10
69.291335
 20
172.049046
 30
0.0
 10
69.408250
 20
172.037059
 30
0.0
 10
69.578189
 20
172.109129
 30
0.0
 10
69.578099
 20
172.109137
 30
0.0
  0
LWPOLYLINE
  5
115
100
AcDbEntity
  8
Layer_1
 62
1
100
AcDbPolyline
 90
35
 70
0
 10
79.992423
 20
173.503724
 30
0.0
 10
80.505427
 20
173.586339
 30
0.0
 10
80.888044
 20
173.694582
 30
0.0
 10
80.963728
 20
173.717160
 30
0.0
 10
81.625889
 20
173.933529
 30
0.0
 10
81.761344
 20
174.004886
 30
0.0
 10
82.266637
 20
174.350151
 30
0.0
 10
82.625097
 20
174.686481
 30
0.0
 10
82.805264
 20
175.064308
 30
0.0
 10
82.804982
 20
175.322477
 30
0.0
 10
82.741191
 20
175.529976
 30
0.0
 10
82.639470
 20
175.653205
 30
0.0
 10
82.532209
 20
175.738374
 30
0.0
 10
82.321598
 20
175.858641
 30
0.0
 10
81.960418
 20
175.975423
 30
0.0
 10
81.705439
 20
176.043049
 30
0.0
 10
81.275163
 20
176.042485
 30
0.0
 10
80.663973
 20
176.016934
 30
0.0
 10
80.079943
 20
175.892602
 30
0.0
 10
79.171333
 20
175.613871
 30
0.0
 10
78.502256
 20
175.284591
 30
0.0
 10
78.167597
 20
175.067204
 30
0.0
 10
77.635487
 20
174.623545
 30
0.0
 10
77.255102
 20
174.241219
 30
0.0
 10
77.044090
 20
174.007406
 30
0.0
 10
77.094707
 20
173.955071
 30
0.0
 10
77.238679
 20
173.906449
 30
0.0
 10
77.426563
 20
173.851439
 30
0.0
 10
77.641701
 20
173.792742
 30
0.0
 10
77.888713
 20
173.732891
 30
0.0
 10
78.514858
 20
173.585923
 30
0.0
 10
79.035408
 20
173.520022
 30
0.0
 10
79.304995
 20
173.494397
 30
0.0
 10
79.992293
 20
173.503512
 30
0.0
 10
79.992423
 20
173.503724
 30
0.0
  0
LWPOLYLINE
  5
116
100
AcDbEntity
  8
Layer_1
 62
1
100
AcDbPolyline
 90
31
 70
0
 10
81.107960
 20
182.266131
 30
0.0
 10
81.403131
 20
182.306932
 30
0.0
 10
81.586397
 20
182.346294
 30
0.0
 10
82.207560
 20
182.531742
 30
0.0
 10
82.445998
 20
182.626109
 30
0.0
 10
82.886567
 20
182.866816
 30
0.0
 10
82.985585
 20
182.938529
 30
0.0
 10
83.104705
 20
183.036460
 30
0.0
 10
83.271622
 20
183.250814
 30
0.0
 10
83.361987
 20
183.438793
 30
0.0
 10
83.307414
 20
183.467063
 30
0.0
 10
83.208602
 20
183.438296
 30
0.0
 10
83.136636
 20
183.415182
 30
0.0
 10
82.940627
 20
183.356432
 30
0.0
 10
82.597998
 20
183.242581
 30
0.0
 10
82.075026
 20
183.045821
 30
0.0
 10
81.563811
 20
182.872768
 30
0.0
 10
81.513536
 20
182.857754
 30
0.0
 10
81.190061
 20
182.757616
 30
0.0
 10
80.831495
 20
182.651105
 30
0.0
 10
80.590034
 20
182.593038
 30
0.0
 10
80.279277
 20
182.523981
 30
0.0
 10
80.103977
 20
182.492276
 30
0.0
 10
79.904773
 20
182.459010
 30
0.0
 10
79.667007
 20
182.414690
 30
0.0
 10
79.572199
 20
182.388534
 30
0.0
 10
79.589641
 20
182.356414
 30
0.0
 10
80.175690
 20
182.271956
 30
0.0
 10
80.398798
 20
182.241208
 30
0.0
 10
81.107960
 20
182.266128
 30
0.0
 10
81.107960
 20
182.266131
 30
0.0
  0
LWPOLYLINE
  5
117
100
AcDbEntity
  8
Layer_1
 62
1
100
AcDbPolyline
 90
149
 70
0
 10
72.573591
 20
174.067519
 30
0.0
 10
72.434419
 20
174.203774
 30
0.0
 10
72.400561
 20
174.341913
 30
0.0
 10
72.507862
 20
174.706885
 30
0.0
 10
72.644443
 20
174.933529
 30
0.0
 10
72.831949
 20
175.237618
 30
0.0
 10
73.212717
 20
175.804707
 30
0.0
 10
73.417701
 20
176.125238
 30
0.0
 10
73.866242
 20
176.844992
 30
0.0
 10
74.007980
 20
177.078605
 30
0.0
 10
74.122218
 20
177.256568
 30
0.0
 10
74.160390
 20
177.335978
 30
0.0
 10
74.123911
 20
177.357499
 30
0.0
 10
74.032279
 20
177.307794
 30
0.0
 10
73.450662
 20
177.033528
 30
0.0
 10
73.250091
 20
176.986457
 30
0.0
 10
73.063671
 20
176.985696
 30
0.0
 10
72.901949
 20
177.029928
 30
0.0
 10
72.775473
 20
177.117836
 30
0.0
 10
72.639936
 20
177.296762
 30
0.0
 10
72.546755
 20
177.415570
 30
0.0
 10
72.351008
 20
177.195716
 30
0.0
 10
72.271326
 20
177.094595
 30
0.0
 10
72.149516
 20
176.963097
 30
0.0
 10
71.849931
 20
176.736788
 30
0.0
 10
71.600672
 20
176.678487
 30
0.0
 10
71.414457
 20
176.696977
 30
0.0
 10
71.260693
 20
176.807697
 30
0.0
 10
71.198349
 20
176.882273
 30
0.0
 10
71.183037
 20
177.003615
 30
0.0
 10
71.192601
 20
177.198319
 30
0.0
 10
71.262090
 20
177.454355
 30
0.0
 10
71.300622
 20
177.608629
 30
0.0
 10
71.248095
 20
177.587434
 30
0.0
 10
70.696537
 20
177.140456
 30
0.0
 10
70.462249
 20
177.000006
 30
0.0
 10
70.191647
 20
176.955753
 30
0.0
 10
70.053009
 20
176.971628
 30
0.0
 10
69.908341
 20
177.057009
 30
0.0
 10
69.817239
 20
177.148758
 30
0.0
 10
69.770303
 20
177.268167
 30
0.0
 10
69.806710
 20
177.601845
 30
0.0
 10
69.941177
 20
177.921935
 30
0.0
 10
70.163696
 20
178.209178
 30
0.0
 10
70.361387
 20
178.372431
 30
0.0
 10
70.576592
 20
178.428107
 30
0.0
 10
70.771822
 20
178.398651
 30
0.0
 10
70.878307
 20
178.295275
 30
0.0
 10
70.899697
 20
178.100464
 30
0.0
 10
70.898568
 20
177.933346
 30
0.0
 10
70.807278
 20
177.742987
 30
0.0
 10
70.672056
 20
177.501668
 30
0.0
 10
70.541145
 20
177.390350
 30
0.0
 10
70.396471
 20
177.348869
 30
0.0
 10
70.277353
 20
177.376231
 30
0.0
 10
70.201156
 20
177.462321
 30
0.0
 10
70.185249
 20
177.597027
 30
0.0
 10
70.211677
 20
177.687681
 30
0.0
 10
70.300573
 20
177.797066
 30
0.0
 10
70.438012
 20
177.925244
 30
0.0
 10
70.582389
 20
177.972750
 30
0.0
 10
70.713670
 20
178.030419
 30
0.0
 10
70.743693
 20
178.135826
 30
0.0
 10
70.662825
 20
178.261220
 30
0.0
 10
70.529238
 20
178.284216
 30
0.0
 10
70.455358
 20
178.270302
 30
0.0
 10
70.350544
 20
178.206578
 30
0.0
 10
70.224618
 20
178.046765
 30
0.0
 10
70.032967
 20
177.627027
 30
0.0
 10
69.999902
 20
177.427545
 30
0.0
 10
70.022441
 20
177.278655
 30
0.0
 10
70.058245
 20
177.190515
 30
0.0
 10
70.137198
 20
177.141585
 30
0.0
 10
70.307702
 20
177.111729
 30
0.0
 10
70.579617
 20
177.204325
 30
0.0
 10
70.876874
 20
177.423404
 30
0.0
 10
71.316678
 20
177.916898
 30
0.0
 10
71.466479
 20
178.122367
 30
0.0
 10
71.658384
 20
178.439147
 30
0.0
 10
71.896791
 20
179.083686
 30
0.0
 10
71.905467
 20
179.131556
 30
0.0
 10
71.948588
 20
179.150373
 30
0.0
 10
72.276583
 20
179.354171
 30
0.0
 10
72.538942
 20
179.585212
 30
0.0
 10
72.809738
 20
179.905817
 30
0.0
 10
73.089905
 20
180.219473
 30
0.0
 10
73.105283
 20
180.175043
 30
0.0
 10
73.062332
 20
180.089594
 30
0.0
 10
72.898677
 20
179.736517
 30
0.0
 10
72.813960
 20
179.527760
 30
0.0
 10
72.718131
 20
179.322291
 30
0.0
 10
72.498946
 20
178.845606
 30
0.0
 10
72.197349
 20
178.188483
 30
0.0
 10
72.090966
 20
177.958359
 30
0.0
 10
71.931482
 20
177.542945
 30
0.0
 10
71.948075
 20
177.385502
 30
0.0
 10
72.063020
 20
177.316933
 30
0.0
 10
72.156756
 20
177.366947
 30
0.0
 10
72.241605
 20
177.469200
 30
0.0
 10
72.283820
 20
177.499635
 30
0.0
 10
72.349841
 20
177.488907
 30
0.0
 10
72.455876
 20
177.568348
 30
0.0
 10
72.537739
 20
177.663671
 30
0.0
 10
72.588541
 20
177.801836
 30
0.0
 10
72.652492
 20
177.966208
 30
0.0
 10
72.704960
 20
178.056615
 30
0.0
 10
72.964889
 20
178.404981
 30
0.0
 10
73.075552
 20
178.552917
 30
0.0
 10
73.626557
 20
179.153533
 30
0.0
 10
74.117195
 20
179.537446
 30
0.0
 10
74.568349
 20
179.742511
 30
0.0
 10
75.008463
 20
179.841989
 30
0.0
 10
75.360832
 20
179.792318
 30
0.0
 10
75.464061
 20
179.737753
 30
0.0
 10
75.527357
 20
179.626380
 30
0.0
 10
75.625822
 20
179.203984
 30
0.0
 10
75.483158
 20
178.523001
 30
0.0
 10
75.296967
 20
178.034317
 30
0.0
 10
75.084864
 20
177.630104
 30
0.0
 10
74.954706
 20
177.432858
 30
0.0
 10
74.789572
 20
177.185434
 30
0.0
 10
74.689050
 20
177.037496
 30
0.0
 10
73.830668
 20
176.043041
 30
0.0
 10
73.077432
 20
175.226175
 30
0.0
 10
72.679834
 20
174.679194
 30
0.0
 10
72.600958
 20
174.509520
 30
0.0
 10
72.578293
 20
174.319041
 30
0.0
 10
72.597194
 20
174.175643
 30
0.0
 10
72.704949
 20
174.144521
 30
0.0
 10
72.825884
 20
174.179403
 30
0.0
 10
72.937965
 20
174.275757
 30
0.0
 10
72.978494
 20
174.359649
 30
0.0
 10
72.947956
 20
174.432870
 30
0.0
 10
72.905834
 20
174.538095
 30
0.0
 10
72.925519
 20
174.689780
 30
0.0
 10
73.035327
 20
174.869262
 30
0.0
 10
73.117474
 20
174.938030
 30
0.0
 10
73.207513
 20
174.949596
 30
0.0
 10
73.294476
 20
174.940565
 30
0.0
 10
73.361939
 20
174.891397
 30
0.0
 10
73.454514
 20
174.745134
 30
0.0
 10
73.459978
 20
174.543010
 30
0.0
 10
73.397528
 20
174.349061
 30
0.0
 10
73.255199
 20
174.193080
 30
0.0
 10
73.065626
 20
174.060989
 30
0.0
 10
72.813531
 20
173.999233
 30
0.0
 10
72.668680
 20
173.993645
 30
0.0
 10
72.573577
 20
174.067494
 30
0.0
 10
72.573591
 20
174.067519
 30
0.0
  0
LWPOLYLINE
  5
118
100
AcDbEntity
  8
Layer_1
 62
1
100
AcDbPolyline
 90
24
 70
0
 10
73.628614
 20
177.302410
 30
0.0
 10
74.175702
 20
177.598574
 30
0.0
 10
74.319127
 20
177.702564
 30
0.0
 10
74.470821
 20
177.841239
 30
0.0
 10
74.630898
 20
178.097720
 30
0.0
 10
75.143707
 20
179.157928
 30
0.0
 10
75.222955
 20
179.412769
 30
0.0
 10
75.234470
 20
179.564759
 30
0.0
 10
75.116185
 20
179.659132
 30
0.0
 10
74.890902
 20
179.668962
 30
0.0
 10
74.613788
 20
179.600668
 30
0.0
 10
74.340009
 20
179.460670
 30
0.0
 10
74.123412
 20
179.245366
 30
0.0
 10
73.909515
 20
178.963795
 30
0.0
 10
73.649806
 20
178.510058
 30
0.0
 10
73.617348
 20
178.450278
 30
0.0
 10
73.566830
 20
178.349821
 30
0.0
 10
73.502368
 20
178.219392
 30
0.0
 10
73.299594
 20
177.625230
 30
0.0
 10
73.289518
 20
177.460426
 30
0.0
 10
73.364026
 20
177.326916
 30
0.0
 10
73.477236
 20
177.252236
 30
0.0
 10
73.628628
 20
177.302410
 30
0.0
 10
73.628614
 20
177.302410
 30
0.0
  0
LWPOLYLINE
  5
119
100
AcDbEntity
  8
Layer_1
 62
1
100
AcDbPolyline
 90
235
 70
0
 10
87.689625
 20
175.228884
 30
0.0
 10
87.386162
 20
175.311493
 30
0.0
 10
87.272594
 20
175.392516
 30
0.0
 10
87.270054
 20
175.453109
 30
0.0
 10
87.379765
 20
175.699893
 30
0.0
 10
87.418141
 20
175.922350
 30
0.0
 10
87.395005
 20
176.159415
 30
0.0
 10
87.337013
 20
176.356420
 30
0.0
 10
87.190439
 20
176.644742
 30
0.0
 10
87.059854
 20
176.816603
 30
0.0
 10
86.867400
 20
176.985918
 30
0.0
 10
86.389326
 20
177.247371
 30
0.0
 10
85.677904
 20
177.411344
 30
0.0
 10
84.797189
 20
177.497058
 30
0.0
 10
84.374982
 20
177.465675
 30
0.0
 10
84.239419
 20
177.448460
 30
0.0
 10
84.103856
 20
177.431470
 30
0.0
 10
83.936631
 20
177.390596
 30
0.0
 10
83.474478
 20
177.264702
 30
0.0
 10
83.020295
 20
177.095290
 30
0.0
 10
82.754958
 20
176.979652
 30
0.0
 10
82.515916
 20
176.867872
 30
0.0
 10
82.303166
 20
176.766684
 30
0.0
 10
82.158868
 20
176.682599
 30
0.0
 10
82.078743
 20
176.644379
 30
0.0
 10
82.022199
 20
176.667359
 30
0.0
 10
82.089730
 20
176.788606
 30
0.0
 10
82.307653
 20
177.029035
 30
0.0
 10
83.061883
 20
177.731526
 30
0.0
 10
83.317334
 20
177.969496
 30
0.0
 10
83.572288
 20
178.196354
 30
0.0
 10
83.911762
 20
178.467575
 30
0.0
 10
84.453544
 20
178.886726
 30
0.0
 10
84.868901
 20
179.183026
 30
0.0
 10
85.195593
 20
179.425900
 30
0.0
 10
85.146613
 20
179.450493
 30
0.0
 10
85.006169
 20
179.429598
 30
0.0
 10
84.689388
 20
179.371471
 30
0.0
 10
84.264280
 20
179.330377
 30
0.0
 10
83.724761
 20
179.289415
 30
0.0
 10
83.301499
 20
179.222695
 30
0.0
 10
82.884690
 20
179.069073
 30
0.0
 10
82.677265
 20
178.945361
 30
0.0
 10
82.517903
 20
178.829754
 30
0.0
 10
82.239423
 20
178.615480
 30
0.0
 10
82.118048
 20
178.531493
 30
0.0
 10
81.324394
 20
177.875671
 30
0.0
 10
81.147900
 20
177.719520
 30
0.0
 10
80.969341
 20
177.571706
 30
0.0
 10
80.567022
 20
177.254133
 30
0.0
 10
80.234548
 20
177.066752
 30
0.0
 10
79.855941
 20
176.922736
 30
0.0
 10
79.493749
 20
176.862367
 30
0.0
 10
79.171698
 20
176.926490
 30
0.0
 10
78.967228
 20
177.060218
 30
0.0
 10
78.861337
 20
177.206028
 30
0.0
 10
78.812201
 20
177.376132
 30
0.0
 10
78.780792
 20
177.503744
 30
0.0
 10
78.398791
 20
177.168100
 30
0.0
 10
78.013541
 20
176.853966
 30
0.0
 10
77.673389
 20
176.715983
 30
0.0
 10
77.533847
 20
176.695099
 30
0.0
 10
77.418410
 20
176.722051
 30
0.0
 10
77.226026
 20
176.819545
 30
0.0
 10
77.148597
 20
177.008715
 30
0.0
 10
77.111226
 20
177.052752
 30
0.0
 10
77.015811
 20
177.028047
 30
0.0
 10
76.366920
 20
176.846996
 30
0.0
 10
76.146319
 20
176.822984
 30
0.0
 10
75.942539
 20
176.853752
 30
0.0
 10
75.763682
 20
176.936889
 30
0.0
 10
75.617852
 20
177.069986
 30
0.0
 10
75.547822
 20
177.180242
 30
0.0
 10
75.524016
 20
177.341565
 30
0.0
 10
75.527096
 20
177.492937
 30
0.0
 10
75.608945
 20
177.758661
 30
0.0
 10
75.790555
 20
178.202473
 30
0.0
 10
75.952412
 20
178.508057
 30
0.0
 10
76.177953
 20
178.914401
 30
0.0
 10
76.338526
 20
179.202609
 30
0.0
 10
76.408317
 20
179.339391
 30
0.0
 10
76.507782
 20
179.626519
 30
0.0
 10
76.484071
 20
179.706704
 30
0.0
 10
76.411336
 20
179.736664
 30
0.0
 10
76.313221
 20
179.705296
 30
0.0
 10
76.205975
 20
179.586897
 30
0.0
 10
76.078224
 20
179.450459
 30
0.0
 10
76.001330
 20
179.378961
 30
0.0
 10
75.958454
 20
179.338697
 30
0.0
 10
76.033703
 20
179.580457
 30
0.0
 10
76.174397
 20
179.794502
 30
0.0
 10
76.368261
 20
179.937818
 30
0.0
 10
76.629745
 20
180.001589
 30
0.0
 10
76.797202
 20
180.016885
 30
0.0
 10
76.884852
 20
179.955855
 30
0.0
 10
77.008646
 20
179.860176
 30
0.0
 10
77.067722
 20
179.742178
 30
0.0
 10
77.091944
 20
179.569941
 30
0.0
 10
77.041280
 20
179.339011
 30
0.0
 10
76.926892
 20
179.088569
 30
0.0
 10
76.868915
 20
178.988741
 30
0.0
 10
76.763857
 20
178.786594
 30
0.0
 10
76.242949
 20
177.703177
 30
0.0
 10
76.191940
 20
177.438367
 30
0.0
 10
76.212909
 20
177.240019
 30
0.0
 10
76.273087
 20
177.154396
 30
0.0
 10
76.379253
 20
177.117577
 30
0.0
 10
76.632506
 20
177.141763
 30
0.0
 10
76.956635
 20
177.216682
 30
0.0
 10
77.143263
 20
177.259839
 30
0.0
 10
77.260859
 20
177.445798
 30
0.0
 10
77.420775
 20
177.732327
 30
0.0
 10
77.531231
 20
177.921360
 30
0.0
 10
77.607008
 20
178.057732
 30
0.0
 10
77.845025
 20
178.492165
 30
0.0
 10
78.011189
 20
178.804481
 30
0.0
 10
78.089704
 20
178.960632
 30
0.0
 10
78.185442
 20
179.168517
 30
0.0
 10
78.246433
 20
179.343599
 30
0.0
 10
78.106634
 20
179.387781
 30
0.0
 10
78.052061
 20
179.408018
 30
0.0
 10
78.120294
 20
179.441366
 30
0.0
 10
78.207560
 20
179.478402
 30
0.0
 10
78.296008
 20
179.526041
 30
0.0
 10
78.781350
 20
179.742798
 30
0.0
 10
79.106968
 20
179.943208
 30
0.0
 10
79.234459
 20
180.040761
 30
0.0
 10
79.328312
 20
180.105342
 30
0.0
 10
79.418725
 20
180.136652
 30
0.0
 10
79.382866
 20
180.089433
 30
0.0
 10
79.203336
 20
179.823591
 30
0.0
 10
79.085985
 20
179.642509
 30
0.0
 10
78.888212
 20
179.330199
 30
0.0
 10
78.702411
 20
179.026384
 30
0.0
 10
78.407477
 20
178.475729
 30
0.0
 10
78.257888
 20
178.192691
 30
0.0
 10
78.191634
 20
178.066862
 30
0.0
 10
78.078375
 20
177.816890
 30
0.0
 10
77.926663
 20
177.445421
 30
0.0
 10
77.921222
 20
177.356955
 30
0.0
 10
77.954412
 20
177.298580
 30
0.0
 10
78.073909
 20
177.269091
 30
0.0
 10
78.226531
 20
177.326266
 30
0.0
 10
78.335059
 20
177.392537
 30
0.0
 10
78.961082
 20
178.024698
 30
0.0
 10
79.114687
 20
178.260247
 30
0.0
 10
79.238447
 20
178.437524
 30
0.0
 10
79.314407
 20
178.541667
 30
0.0
 10
79.729903
 20
178.967628
 30
0.0
 10
79.865999
 20
179.090911
 30
0.0
 10
80.284811
 20
179.424856
 30
0.0
 10
80.482034
 20
179.566583
 30
0.0
 10
80.721079
 20
179.691816
 30
0.0
 10
80.970453
 20
179.794353
 30
0.0
 10
81.161687
 20
179.852065
 30
0.0
 10
81.353076
 20
179.831829
 30
0.0
 10
81.505686
 20
179.738149
 30
0.0
 10
81.604127
 20
179.609907
 30
0.0
 10
81.633485
 20
179.414467
 30
0.0
 10
81.608501
 20
179.190829
 30
0.0
 10
81.468984
 20
178.895289
 30
0.0
 10
81.200343
 20
178.564843
 30
0.0
 10
80.908334
 20
178.287433
 30
0.0
 10
80.619862
 20
178.107745
 30
0.0
 10
80.016333
 20
177.851163
 30
0.0
 10
79.745020
 20
177.744310
 30
0.0
 10
79.689531
 20
177.636883
 30
0.0
 10
79.683444
 20
177.480919
 30
0.0
 10
79.740317
 20
177.316168
 30
0.0
 10
79.824031
 20
177.201524
 30
0.0
 10
79.968527
 20
177.143849
 30
0.0
 10
80.123787
 20
177.147283
 30
0.0
 10
80.335058
 20
177.245071
 30
0.0
 10
80.676775
 20
177.478006
 30
0.0
 10
80.789244
 20
177.590237
 30
0.0
 10
81.601987
 20
178.458031
 30
0.0
 10
81.945189
 20
178.848482
 30
0.0
 10
82.111181
 20
179.040137
 30
0.0
 10
82.421111
 20
179.346863
 30
0.0
 10
82.803517
 20
179.635236
 30
0.0
 10
83.586052
 20
180.013462
 30
0.0
 10
83.857059
 20
180.104879
 30
0.0
 10
84.468497
 20
180.215709
 30
0.0
 10
85.203575
 20
180.227575
 30
0.0
 10
86.029982
 20
180.224958
 30
0.0
 10
86.322802
 20
180.279567
 30
0.0
 10
86.550187
 20
180.373050
 30
0.0
 10
86.765328
 20
180.481042
 30
0.0
 10
86.964531
 20
180.587629
 30
0.0
 10
87.235817
 20
180.732745
 30
0.0
 10
87.234689
 20
180.663950
 30
0.0
 10
87.013486
 20
180.394309
 30
0.0
 10
86.576591
 20
179.995767
 30
0.0
 10
86.195027
 20
179.730187
 30
0.0
 10
85.879232
 20
179.552373
 30
0.0
 10
85.289238
 20
179.239764
 30
0.0
 10
84.911870
 20
179.015417
 30
0.0
 10
84.661666
 20
178.846532
 30
0.0
 10
84.444355
 20
178.693122
 30
0.0
 10
84.285969
 20
178.566133
 30
0.0
 10
84.096905
 20
178.400215
 30
0.0
 10
83.912662
 20
178.242032
 30
0.0
 10
83.601904
 20
177.975453
 30
0.0
 10
83.111776
 20
177.525595
 30
0.0
 10
83.073487
 20
177.470146
 30
0.0
 10
83.118980
 20
177.471229
 30
0.0
 10
83.370262
 20
177.595238
 30
0.0
 10
83.649716
 20
177.735324
 30
0.0
 10
83.840949
 20
177.817835
 30
0.0
 10
84.809443
 20
178.173218
 30
0.0
 10
85.160039
 20
178.271569
 30
0.0
 10
85.729391
 20
178.425767
 30
0.0
 10
86.087958
 20
178.482471
 30
0.0
 10
86.443789
 20
178.519214
 30
0.0
 10
87.143714
 20
178.499289
 30
0.0
 10
87.590067
 20
178.408664
 30
0.0
 10
87.957829
 20
178.247007
 30
0.0
 10
88.151465
 20
178.126126
 30
0.0
 10
88.323776
 20
177.982300
 30
0.0
 10
88.447282
 20
177.875767
 30
0.0
 10
88.616968
 20
177.683554
 30
0.0
 10
88.729676
 20
177.527756
 30
0.0
 10
88.822553
 20
177.382648
 30
0.0
 10
88.901425
 20
177.251152
 30
0.0
 10
89.094931
 20
176.782683
 30
0.0
 10
89.134632
 20
176.630347
 30
0.0
 10
89.134259
 20
176.355311
 30
0.0
 10
89.083546
 20
175.944382
 30
0.0
 10
88.959448
 20
175.645741
 30
0.0
 10
88.817298
 20
175.467587
 30
0.0
 10
88.677004
 20
175.330124
 30
0.0
 10
88.530444
 20
175.266052
 30
0.0
 10
88.127617
 20
175.182505
 30
0.0
 10
87.689549
 20
175.228838
 30
0.0
 10
87.689625
 20
175.228884
 30
0.0
  0
LWPOLYLINE
  5
11a
100
AcDbEntity
  8
Layer_1
 62
1
100
AcDbPolyline
 90
17
 70
0
 10
79.979523
 20
177.984515
 30
0.0
 10
80.357505
 20
178.205572
 30
0.0
 10
80.665726
 20
178.551553
 30
0.0
 10
80.757364
 20
178.701857
 30
0.0
 10
80.861174
 20
178.906174
 30
0.0
 10
80.982541
 20
179.166149
 30
0.0
 10
80.984236
 20
179.402874
 30
0.0
 10
80.942815
 20
179.487340
 30
0.0
 10
80.879143
 20
179.528415
 30
0.0
 10
80.754977
 20
179.515874
 30
0.0
 10
80.589233
 20
179.419282
 30
0.0
 10
80.341600
 20
179.176976
 30
0.0
 10
80.035702
 20
178.615497
 30
0.0
 10
79.785252
 20
177.999690
 30
0.0
 10
79.824652
 20
177.945018
 30
0.0
 10
79.979523
 20
177.984507
 30
0.0
 10
79.979523
 20
177.984515
 30
0.0
  0
LWPOLYLINE
  5
11b
100
AcDbEntity
  8
Layer_1
 62
1
100
AcDbPolyline
 90
10
 70
0
 10
72.661757
 20
175.610510
 30
0.0
 10
72.432692
 20
175.693303
 30
0.0
 10
72.434227
 20
175.740796
 30
0.0
 10
72.497465
 20
175.759718
 30
0.0
 10
72.716207
 20
175.731750
 30
0.0
 10
72.934446
 20
175.668092
 30
0.0
 10
72.977927
 20
175.610431
 30
0.0
 10
72.940596
 20
175.580270
 30
0.0
 10
72.661757
 20
175.610521
 30
0.0
 10
72.661757
 20
175.610510
 30
0.0
  0
ENDSEC
  0
SECTION
  2
OBJECTS
  0
DICTIONARY
  5
C
330
0
100
AcDbDictionary
  3
ACAD_GROUP
350
D
  3
ACAD_MLINESTYLE
350
17
  0
DICTIONARY
  5
D
330
C
100
AcDbDictionary
  0
DICTIONARY
  5
1A
330
C
100
AcDbDictionary
  0
DICTIONARY
  5
17
330
C
100
AcDbDictionary
  3
STANDARD
350
18
  0
DICTIONARY
  5
19
330
C
100
AcDbDictionary
  0
ENDSEC
  0
EOF
