  0
SECTION
  2
HEADER
  9
$ACADVER
  1
AC1014
  9
$HANDSEED
  5
FFFF
  9
$MEASUREMENT
 70
     1
  0
ENDSEC
  0
SECTION
  2
TABLES
  0
TABLE
  2
VPORT
  5
8
330
0
100
AcDbSymbolTable
 70
     4
  0
VPORT
  5
2E
330
8
100
AcDbSymbolTableRecord
100
AcDbViewportTableRecord
  2
*ACTIVE
 70
     0
 10
0.0
 20
0.0
 11
1.0
 21
1.0
 12
210.0
 22
148.5
 13
0.0
 23
0.0
 14
10.0
 24
10.0
 15
10.0
 25
10.0
 16
0.0
 26
0.0
 36
1.0
 17
0.0
 27
0.0
 37
0.0
 40
341.0
 41
1.24
 42
50.0
 43
0.0
 44
0.0
 50
0.0
 51
0.0
 71
     0
 72
   100
 73
     1
 74
     3
 75
     0
 76
     0
 77
     0
 78
     0
  0
ENDTAB
  0
TABLE
  2
LTYPE
  5
5
330
0
100
AcDbSymbolTable
 70
     1
  0
LTYPE
  5
14
330
5
100
AcDbSymbolTableRecord
100
AcDbLinetypeTableRecord
  2
BYBLOCK
 70
     0
  3

 72
    65
 73
     0
 40
0.0
  0
LTYPE
  5
15
330
5
100
AcDbSymbolTableRecord
100
AcDbLinetypeTableRecord
  2
BYLAYER
 70
     0
  3

 72
    65
 73
     0
 40
0.0
  0
LTYPE
  5
16
330
5
100
AcDbSymbolTableRecord
100
AcDbLinetypeTableRecord
  2
CONTINUOUS
 70
     0
  3
Solid line
 72
    65
 73
     0
 40
0.0
  0
ENDTAB
  0
TABLE
  2
LAYER
  5
2
100
AcDbSymbolTable
 70
2
  0
LAYER
  5
50
100
AcDbSymbolTableRecord
100
AcDbLayerTableRecord
  2
0
 70
0
  6
CONTINUOUS
  0
LAYER
  5
51
100
AcDbSymbolTableRecord
100
AcDbLayerTableRecord
  2
Layer_1
 70
0
  6
CONTINUOUS
  0
ENDTAB
  0
TABLE
  2
STYLE
  5
3
330
0
100
AcDbSymbolTable
 70
     1
  0
STYLE
  5
11
330
3
100
AcDbSymbolTableRecord
100
AcDbTextStyleTableRecord
  2
STANDARD
 70
     0
 40
0.0
 41
1.0
 50
0.0
 71
     0
 42
2.5
  3
txt
  4

  0
ENDTAB
  0
TABLE
  2
VIEW
  5
6
330
0
100
AcDbSymbolTable
 70
     0
  0
ENDTAB
  0
TABLE
  2
UCS
  5
7
330
0
100
AcDbSymbolTable
 70
     0
  0
ENDTAB
  0
TABLE
  2
APPID
  5
9
330
0
100
AcDbSymbolTable
 70
     2
  0
APPID
  5
12
330
9
100
AcDbSymbolTableRecord
100
AcDbRegAppTableRecord
  2
ACAD
 70
     0
  0
ENDTAB
  0
TABLE
  2
DIMSTYLE
  5
A
330
0
100
AcDbSymbolTable
 70
     1
  0
DIMSTYLE
105
27
330
A
100
AcDbSymbolTableRecord
100
AcDbDimStyleTableRecord
  2
ISO-25
 70
     0
  3

  4

  5

  6

  7

 40
1.0
 41
2.5
 42
0.625
 43
3.75
 44
1.25
 45
0.0
 46
0.0
 47
0.0
 48
0.0
140
2.5
141
2.5
142
0.0
143
0.03937007874016
144
1.0
145
0.0
146
1.0
147
0.625
 71
     0
 72
     0
 73
     0
 74
     0
 75
     0
 76
     0
 77
     1
 78
     8
170
     0
171
     3
172
     1
173
     0
174
     0
175
     0
176
     0
177
     0
178
     0
270
     2
271
     2
272
     2
273
     2
274
     3
340
11
275
     0
280
     0
281
     0
282
     0
283
     0
284
     8
285
     0
286
     0
287
     3
288
     0
  0
ENDTAB
  0
TABLE
  2
BLOCK_RECORD
  5
1
330
0
100
AcDbSymbolTable
 70
     1
  0
BLOCK_RECORD
  5
1F
330
1
100
AcDbSymbolTableRecord
100
AcDbBlockTableRecord
  2
*MODEL_SPACE
  0
BLOCK_RECORD
  5
1B
330
1
100
AcDbSymbolTableRecord
100
AcDbBlockTableRecord
  2
*PAPER_SPACE
  0
ENDTAB
  0
ENDSEC
  0
SECTION
  2
BLOCKS
  0
BLOCK
  5
20
330
1F
100
AcDbEntity
  8
0
100
AcDbBlockBegin
  2
*MODEL_SPACE
 70
     0
 10
0.0
 20
0.0
 30
0.0
  3
*MODEL_SPACE
  1

  0
ENDBLK
  5
21
330
1F
100
AcDbEntity
  8
0
100
AcDbBlockEnd
  0
BLOCK
  5
1C
330
1B
100
AcDbEntity
 67
     1
  8
0
100
AcDbBlockBegin
  2
*PAPER_SPACE
  1

  0
ENDBLK
  5
1D
330
1B
100
AcDbEntity
 67
     1
  8
0
100
AcDbBlockEnd
  0
ENDSEC
  0
SECTION
  2
ENTITIES
  0
LWPOLYLINE
  5
100
100
AcDbEntity
  8
Layer_1
 62
7
100
AcDbPolyline
 90
141
 70
0
 10
32.368256
 20
151.664553
 30
0.0
 10
32.026229
 20
151.917103
 30
0.0
 10
31.732344
 20
152.224727
 30
0.0
 10
31.512537
 20
152.555206
 30
0.0
 10
31.392746
 20
152.876322
 30
0.0
 10
31.326333
 20
153.069208
 30
0.0
 10
31.249451
 20
153.118991
 30
0.0
 10
31.206065
 20
153.124344
 30
0.0
 10
31.220187
 20
153.210394
 30
0.0
 10
31.216240
 20
153.479016
 30
0.0
 10
31.129393
 20
153.923307
 30
0.0
 10
31.038987
 20
154.460482
 30
0.0
 10
31.026467
 20
154.952416
 30
0.0
 10
31.030570
 20
155.292977
 30
0.0
 10
31.005341
 20
155.381818
 30
0.0
 10
30.962515
 20
155.412137
 30
0.0
 10
30.917865
 20
155.366270
 30
0.0
 10
30.890466
 20
155.228996
 30
0.0
 10
30.887625
 20
154.682172
 30
0.0
 10
30.892782
 20
154.166702
 30
0.0
 10
30.860221
 20
153.952435
 30
0.0
 10
30.801198
 20
153.808556
 30
0.0
 10
30.742732
 20
153.462351
 30
0.0
 10
30.624627
 20
152.966280
 30
0.0
 10
30.406307
 20
152.470606
 30
0.0
 10
30.123179
 20
152.040683
 30
0.0
 10
29.810648
 20
151.741862
 30
0.0
 10
29.551133
 20
151.606127
 30
0.0
 10
29.276292
 20
151.530351
 30
0.0
 10
28.996523
 20
151.512073
 30
0.0
 10
28.722222
 20
151.548831
 30
0.0
 10
28.463785
 20
151.638165
 30
0.0
 10
28.231611
 20
151.777614
 30
0.0
 10
28.036095
 20
151.964718
 30
0.0
 10
27.887634
 20
152.197016
 30
0.0
 10
27.758719
 20
152.529497
 30
0.0
 10
27.686675
 20
152.870964
 30
0.0
 10
27.671973
 20
153.223857
 30
0.0
 10
27.715084
 20
153.590618
 30
0.0
 10
27.816477
 20
153.973689
 30
0.0
 10
27.976624
 20
154.375511
 30
0.0
 10
28.475059
 20
155.245174
 30
0.0
 10
28.902418
 20
156.029173
 30
0.0
 10
29.203803
 20
156.845045
 30
0.0
 10
29.320201
 20
157.486885
 30
0.0
 10
29.290588
 20
157.678197
 30
0.0
 10
29.192598
 20
157.748787
 30
0.0
 10
29.133310
 20
157.771017
 30
0.0
 10
29.210294
 20
157.838438
 30
0.0
 10
29.276796
 20
157.898945
 30
0.0
 10
29.301321
 20
157.985448
 30
0.0
 10
29.227876
 20
158.332914
 30
0.0
 10
29.123930
 20
158.601902
 30
0.0
 10
29.044968
 20
158.678054
 30
0.0
 10
28.963359
 20
158.700055
 30
0.0
 10
28.853054
 20
158.838853
 30
0.0
 10
28.722317
 20
159.060827
 30
0.0
 10
28.784375
 20
158.833099
 30
0.0
 10
28.845600
 20
158.392036
 30
0.0
 10
28.843170
 20
157.842822
 30
0.0
 10
28.783503
 20
157.298493
 30
0.0
 10
28.673019
 20
156.872086
 30
0.0
 10
28.518194
 20
156.567828
 30
0.0
 10
28.318161
 20
156.301923
 30
0.0
 10
28.076901
 20
156.076533
 30
0.0
 10
27.798394
 20
155.893820
 30
0.0
 10
27.486622
 20
155.755947
 30
0.0
 10
27.145564
 20
155.665075
 30
0.0
 10
26.779203
 20
155.623367
 30
0.0
 10
26.391518
 20
155.632984
 30
0.0
 10
26.053397
 20
155.689754
 30
0.0
 10
25.743255
 20
155.793227
 30
0.0
 10
25.462544
 20
155.938800
 30
0.0
 10
25.212714
 20
156.121872
 30
0.0
 10
24.995215
 20
156.337839
 30
0.0
 10
24.811497
 20
156.582099
 30
0.0
 10
24.551208
 20
157.137088
 30
0.0
 10
24.443449
 20
157.750021
 30
0.0
 10
24.450394
 20
158.066710
 30
0.0
 10
24.499823
 20
158.384077
 30
0.0
 10
24.593186
 20
158.697521
 30
0.0
 10
24.731933
 20
159.002438
 30
0.0
 10
24.917515
 20
159.294225
 30
0.0
 10
25.151383
 20
159.568282
 30
0.0
 10
25.566938
 20
159.916262
 30
0.0
 10
26.061121
 20
160.200940
 30
0.0
 10
26.619146
 20
160.419608
 30
0.0
 10
27.226226
 20
160.569560
 30
0.0
 10
27.867574
 20
160.648091
 30
0.0
 10
28.528404
 20
160.652494
 30
0.0
 10
29.193930
 20
160.580063
 30
0.0
 10
29.849366
 20
160.428092
 30
0.0
 10
31.503437
 20
159.931697
 30
0.0
 10
32.698501
 20
159.633315
 30
0.0
 10
33.953171
 20
159.449483
 30
0.0
 10
34.910778
 20
159.328882
 30
0.0
 10
35.412646
 20
159.222907
 30
0.0
 10
35.753229
 20
158.949299
 30
0.0
 10
35.982170
 20
158.582130
 30
0.0
 10
36.078088
 20
158.172518
 30
0.0
 10
36.069484
 20
157.967771
 30
0.0
 10
36.019607
 20
157.771582
 30
0.0
 10
35.868678
 20
157.503167
 30
0.0
 10
35.644637
 20
157.281740
 30
0.0
 10
35.362568
 20
157.111156
 30
0.0
 10
35.037557
 20
156.995268
 30
0.0
 10
34.684688
 20
156.937932
 30
0.0
 10
34.319047
 20
156.943003
 30
0.0
 10
33.955717
 20
157.014336
 30
0.0
 10
33.609785
 20
157.155784
 30
0.0
 10
33.409296
 20
157.224375
 30
0.0
 10
33.242151
 20
157.220763
 30
0.0
 10
33.156978
 20
157.209419
 30
0.0
 10
33.159319
 20
157.263732
 30
0.0
 10
33.107188
 20
157.372935
 30
0.0
 10
32.896802
 20
157.497874
 30
0.0
 10
32.614367
 20
157.585092
 30
0.0
 10
32.544128
 20
157.558299
 30
0.0
 10
32.488835
 20
157.483425
 30
0.0
 10
32.440354
 20
157.202021
 30
0.0
 10
32.478939
 20
156.749717
 30
0.0
 10
32.592804
 20
156.203693
 30
0.0
 10
32.770160
 20
155.641129
 30
0.0
 10
33.028785
 20
155.030759
 30
0.0
 10
33.306582
 20
154.489989
 30
0.0
 10
33.548438
 20
154.115854
 30
0.0
 10
33.638665
 20
154.021597
 30
0.0
 10
33.699238
 20
154.005386
 30
0.0
 10
33.746962
 20
154.005526
 30
0.0
 10
33.737448
 20
153.929062
 30
0.0
 10
33.745612
 20
153.712745
 30
0.0
 10
33.835862
 20
153.376634
 30
0.0
 10
33.965121
 20
152.863066
 30
0.0
 10
33.981270
 20
152.407362
 30
0.0
 10
33.896191
 20
152.023385
 30
0.0
 10
33.721767
 20
151.724996
 30
0.0
 10
33.469881
 20
151.526057
 30
0.0
 10
33.152413
 20
151.440429
 30
0.0
 10
32.781248
 20
151.481975
 30
0.0
 10
32.368267
 20
151.664556
 30
0.0
 10
32.368256
 20
151.664553
 30
0.0
  0
LWPOLYLINE
  5
101
100
AcDbEntity
  8
Layer_1
 62
7
100
AcDbPolyline
 90
14
 70
0
 10
31.124697
 20
156.392695
 30
0.0
 10
31.141287
 20
156.984637
 30
0.0
 10
31.097141
 20
157.481266
 30
0.0
 10
30.992276
 20
157.882473
 30
0.0
 10
30.826710
 20
158.188148
 30
0.0
 10
30.736747
 20
158.297017
 30
0.0
 10
30.710385
 20
158.190157
 30
0.0
 10
30.866210
 20
156.628368
 30
0.0
 10
30.947781
 20
155.801329
 30
0.0
 10
30.963470
 20
155.584336
 30
0.0
 10
30.987216
 20
155.527212
 30
0.0
 10
31.016403
 20
155.525119
 30
0.0
 10
31.124697
 20
156.392695
 30
0.0
 10
31.124697
 20
156.392695
 30
0.0
  0
LWPOLYLINE
  5
102
100
AcDbEntity
  8
Layer_1
 62
7
100
AcDbPolyline
 90
8
 70
0
 10
30.975969
 20
156.733772
 30
0.0
 10
30.995467
 20
156.834777
 30
0.0
 10
31.034753
 20
156.792559
 30
0.0
 10
31.053574
 20
156.685100
 30
0.0
 10
31.027076
 20
156.606069
 30
0.0
 10
30.987815
 20
156.619337
 30
0.0
 10
30.975972
 20
156.733772
 30
0.0
 10
30.975969
 20
156.733772
 30
0.0
  0
LWPOLYLINE
  5
103
100
AcDbEntity
  8
Layer_1
 62
7
100
AcDbPolyline
 90
61
 70
0
 10
31.916946
 20
163.656079
 30
0.0
 10
31.552078
 20
163.694247
 30
0.0
 10
31.552078
 20
165.774546
 30
0.0
 10
31.526032
 20
167.275247
 30
0.0
 10
31.461120
 20
167.911062
 30
0.0
 10
31.323566
 20
167.854639
 30
0.0
 10
31.120577
 20
167.640046
 30
0.0
 10
30.990708
 20
167.444674
 30
0.0
 10
30.914615
 20
167.243315
 30
0.0
 10
30.868281
 20
166.592268
 30
0.0
 10
30.858076
 20
166.196137
 30
0.0
 10
30.818875
 20
165.927943
 30
0.0
 10
30.732082
 20
165.717133
 30
0.0
 10
30.579102
 20
165.493157
 30
0.0
 10
30.394857
 20
165.194094
 30
0.0
 10
30.354163
 20
165.006665
 30
0.0
 10
30.373723
 20
164.952133
 30
0.0
 10
30.334351
 20
164.972595
 30
0.0
 10
30.214796
 20
164.966426
 30
0.0
 10
30.041596
 20
164.847858
 30
0.0
 10
29.893980
 20
164.741200
 30
0.0
 10
29.675985
 20
164.684987
 30
0.0
 10
28.643174
 20
164.676696
 30
0.0
 10
27.456150
 20
164.704128
 30
0.0
 10
27.463079
 20
168.397099
 30
0.0
 10
27.490754
 20
171.020835
 30
0.0
 10
27.547558
 20
172.143088
 30
0.0
 10
28.034894
 20
172.755570
 30
0.0
 10
28.444678
 20
173.315036
 30
0.0
 10
29.438916
 20
173.313625
 30
0.0
 10
30.173181
 20
173.291564
 30
0.0
 10
30.542371
 20
173.240651
 30
0.0
 10
30.699496
 20
173.041450
 30
0.0
 10
30.923896
 20
172.662902
 30
0.0
 10
31.139578
 20
172.319791
 30
0.0
 10
31.275734
 20
172.205790
 30
0.0
 10
31.318743
 20
172.203295
 30
0.0
 10
31.310467
 20
172.128263
 30
0.0
 10
31.322329
 20
171.981635
 30
0.0
 10
31.413746
 20
171.806990
 30
0.0
 10
31.501827
 20
171.699408
 30
0.0
 10
31.566204
 20
171.668419
 30
0.0
 10
31.743941
 20
171.852919
 30
0.0
 10
31.858384
 20
172.045733
 30
0.0
 10
31.877790
 20
172.171550
 30
0.0
 10
31.869131
 20
172.218857
 30
0.0
 10
31.916127
 20
172.222918
 30
0.0
 10
32.105750
 20
172.361234
 30
0.0
 10
32.440033
 20
172.731324
 30
0.0
 10
32.877334
 20
173.266465
 30
0.0
 10
33.941758
 20
173.266465
 30
0.0
 10
35.006181
 20
173.266465
 30
0.0
 10
35.033190
 20
169.030903
 30
0.0
 10
35.030077
 20
165.402133
 30
0.0
 10
34.981299
 20
164.815110
 30
0.0
 10
34.886369
 20
164.603826
 30
0.0
 10
34.389006
 20
163.998793
 30
0.0
 10
34.065481
 20
163.585275
 30
0.0
 10
33.173647
 20
163.601644
 30
0.0
 10
31.916946
 20
163.656167
 30
0.0
 10
31.916946
 20
163.656079
 30
0.0
  0
LWPOLYLINE
  5
104
100
AcDbEntity
  8
Layer_1
 62
7
100
AcDbPolyline
 90
47
 70
0
 10
34.665624
 20
169.033911
 30
0.0
 10
34.665624
 20
172.925846
 30
0.0
 10
33.846905
 20
172.925846
 30
0.0
 10
33.028190
 20
172.925846
 30
0.0
 10
32.777495
 20
172.477304
 30
0.0
 10
32.618893
 20
172.130668
 30
0.0
 10
32.589614
 20
171.927129
 30
0.0
 10
32.603828
 20
171.873980
 30
0.0
 10
32.549815
 20
171.888913
 30
0.0
 10
32.485332
 20
171.868496
 30
0.0
 10
32.387595
 20
171.761700
 30
0.0
 10
32.134689
 20
171.344481
 30
0.0
 10
31.746565
 20
170.654990
 30
0.0
 10
31.696065
 20
170.662135
 30
0.0
 10
31.614457
 20
170.741944
 30
0.0
 10
31.403011
 20
171.065654
 30
0.0
 10
31.184862
 20
171.395476
 30
0.0
 10
31.096000
 20
171.481904
 30
0.0
 10
31.036641
 20
171.497132
 30
0.0
 10
30.985744
 20
171.484285
 30
0.0
 10
31.001583
 20
171.538828
 30
0.0
 10
30.952490
 20
171.778144
 30
0.0
 10
30.745481
 20
172.209554
 30
0.0
 10
30.501075
 20
172.581140
 30
0.0
 10
30.226400
 20
172.793350
 30
0.0
 10
29.822724
 20
172.891333
 30
0.0
 10
29.191314
 20
172.920238
 30
0.0
 10
28.727868
 20
172.925854
 30
0.0
 10
28.753466
 20
169.593386
 30
0.0
 10
28.779064
 20
166.260917
 30
0.0
 10
29.630424
 20
166.232807
 30
0.0
 10
30.481786
 20
166.204698
 30
0.0
 10
30.493019
 20
168.373376
 30
0.0
 10
30.526846
 20
170.639352
 30
0.0
 10
30.564678
 20
170.833947
 30
0.0
 10
30.735207
 20
170.652149
 30
0.0
 10
31.123814
 20
170.078430
 30
0.0
 10
31.667724
 20
169.225610
 30
0.0
 10
31.836831
 20
169.445989
 30
0.0
 10
32.435772
 20
170.298808
 30
0.0
 10
32.865605
 20
170.931246
 30
0.0
 10
32.891372
 20
168.036620
 30
0.0
 10
32.917138
 20
165.141993
 30
0.0
 10
33.791375
 20
165.141993
 30
0.0
 10
34.665615
 20
165.141993
 30
0.0
 10
34.665615
 20
169.033928
 30
0.0
 10
34.665624
 20
169.033911
 30
0.0
  0
LWPOLYLINE
  5
105
100
AcDbEntity
  8
Layer_1
 62
7
100
AcDbPolyline
 90
34
 70
0
 10
7.485036
 20
164.430359
 30
0.0
 10
7.438333
 20
165.279589
 30
0.0
 10
7.422855
 20
167.163608
 30
0.0
 10
7.438539
 20
169.273922
 30
0.0
 10
7.485318
 20
170.802039
 30
0.0
 10
7.546019
 20
171.743131
 30
0.0
 10
8.015414
 20
172.316291
 30
0.0
 10
8.484805
 20
172.889448
 30
0.0
 10
9.875018
 20
173.006251
 30
0.0
 10
11.235559
 20
173.088360
 30
0.0
 10
12.554433
 20
173.121750
 30
0.0
 10
13.843663
 20
173.120339
 30
0.0
 10
13.843663
 20
171.600733
 30
0.0
 10
13.843663
 20
170.081130
 30
0.0
 10
13.538986
 20
169.734121
 30
0.0
 10
13.234309
 20
169.387115
 30
0.0
 10
13.442989
 20
169.218134
 30
0.0
 10
13.742626
 20
169.017155
 30
0.0
 10
13.812575
 20
168.504532
 30
0.0
 10
13.852376
 20
167.302116
 30
0.0
 10
13.871172
 20
165.619073
 30
0.0
 10
13.603543
 20
165.339729
 30
0.0
 10
13.426093
 20
165.099831
 30
0.0
 10
13.410792
 20
164.930857
 30
0.0
 10
13.439637
 20
164.861212
 30
0.0
 10
13.403844
 20
164.875663
 30
0.0
 10
13.272619
 20
164.859719
 30
0.0
 10
13.072025
 20
164.717000
 30
0.0
 10
12.883418
 20
164.582339
 30
0.0
 10
12.514103
 20
164.506272
 30
0.0
 10
10.187138
 20
164.423472
 30
0.0
 10
8.306471
 20
164.400495
 30
0.0
 10
7.484932
 20
164.430246
 30
0.0
 10
7.485036
 20
164.430359
 30
0.0
  0
LWPOLYLINE
  5
106
100
AcDbEntity
  8
Layer_1
 62
7
100
AcDbPolyline
 90
27
 70
0
 10
13.475783
 20
166.153904
 30
0.0
 10
13.504599
 20
166.236563
 30
0.0
 10
13.475783
 20
166.285036
 30
0.0
 10
13.435149
 20
166.654047
 30
0.0
 10
13.435547
 20
167.507374
 30
0.0
 10
13.465168
 20
168.705588
 30
0.0
 10
12.866870
 20
168.963739
 30
0.0
 10
12.439888
 20
169.186199
 30
0.0
 10
12.333958
 20
169.276813
 30
0.0
 10
12.309715
 20
169.346822
 30
0.0
 10
12.500882
 20
169.558547
 30
0.0
 10
12.902715
 20
169.892149
 30
0.0
 10
13.454577
 20
170.312547
 30
0.0
 10
13.454577
 20
171.523464
 30
0.0
 10
13.454577
 20
172.734383
 30
0.0
 10
11.727530
 20
172.692815
 30
0.0
 10
9.399346
 20
172.580821
 30
0.0
 10
8.798210
 20
172.510389
 30
0.0
 10
8.765690
 20
169.288351
 30
0.0
 10
8.765636
 20
165.991426
 30
0.0
 10
8.979616
 20
165.958877
 30
0.0
 10
9.512096
 20
165.948723
 30
0.0
 10
11.109723
 20
165.981017
 30
0.0
 10
12.712843
 20
166.059135
 30
0.0
 10
13.252190
 20
166.106261
 30
0.0
 10
13.475783
 20
166.153904
 30
0.0
 10
13.475783
 20
166.153904
 30
0.0
  0
LWPOLYLINE
  5
107
100
AcDbEntity
  8
Layer_1
 62
7
100
AcDbPolyline
 90
13
 70
0
 10
10.622018
 20
167.647410
 30
0.0
 10
10.619760
 20
168.716752
 30
0.0
 10
10.640961
 20
168.834394
 30
0.0
 10
10.710885
 20
168.896949
 30
0.0
 10
11.143804
 20
168.911350
 30
0.0
 10
11.654621
 20
168.887954
 30
0.0
 10
11.683207
 20
168.182543
 30
0.0
 10
11.711794
 20
167.477128
 30
0.0
 10
11.172391
 20
167.477128
 30
0.0
 10
10.733846
 20
167.509623
 30
0.0
 10
10.649324
 20
167.561574
 30
0.0
 10
10.622080
 20
167.647401
 30
0.0
 10
10.622018
 20
167.647410
 30
0.0
  0
LWPOLYLINE
  5
108
100
AcDbEntity
  8
Layer_1
 62
7
100
AcDbPolyline
 90
14
 70
0
 10
11.270449
 20
169.693696
 30
0.0
 10
10.905581
 20
169.753126
 30
0.0
 10
10.584273
 20
169.768987
 30
0.0
 10
10.555588
 20
170.476713
 30
0.0
 10
10.526898
 20
171.184439
 30
0.0
 10
11.090727
 20
171.155127
 30
0.0
 10
11.654556
 20
171.125818
 30
0.0
 10
11.684630
 20
170.595878
 30
0.0
 10
11.692627
 20
170.170589
 30
0.0
 10
11.659422
 20
169.876322
 30
0.0
 10
11.583207
 20
169.705395
 30
0.0
 10
11.462176
 20
169.650126
 30
0.0
 10
11.270449
 20
169.693687
 30
0.0
 10
11.270449
 20
169.693696
 30
0.0
  0
LWPOLYLINE
  5
109
100
AcDbEntity
  8
Layer_1
 62
7
100
AcDbPolyline
 90
44
 70
0
 10
48.243544
 20
164.582510
 30
0.0
 10
48.173704
 20
164.991626
 30
0.0
 10
48.126836
 20
165.752003
 30
0.0
 10
48.087274
 20
168.716575
 30
0.0
 10
48.079287
 20
171.756035
 30
0.0
 10
48.548205
 20
172.389587
 30
0.0
 10
49.017126
 20
173.023142
 30
0.0
 10
50.144996
 20
173.023145
 30
0.0
 10
52.601780
 20
172.959410
 30
0.0
 10
53.930697
 20
172.895679
 30
0.0
 10
53.930697
 20
171.752433
 30
0.0
 10
53.930697
 20
170.609188
 30
0.0
 10
53.298257
 20
169.954579
 30
0.0
 10
52.947875
 20
169.581066
 30
0.0
 10
52.758426
 20
169.328687
 30
0.0
 10
52.680783
 20
169.110978
 30
0.0
 10
52.665819
 20
168.841475
 30
0.0
 10
52.622059
 20
168.447714
 30
0.0
 10
52.473516
 20
168.208950
 30
0.0
 10
52.355902
 20
168.054135
 30
0.0
 10
52.343169
 20
167.926302
 30
0.0
 10
52.362787
 20
167.871527
 30
0.0
 10
52.322961
 20
167.892364
 30
0.0
 10
52.170157
 20
167.853258
 30
0.0
 10
51.918167
 20
167.654358
 30
0.0
 10
51.733227
 20
167.459786
 30
0.0
 10
51.637276
 20
167.267242
 30
0.0
 10
51.601116
 20
166.968045
 30
0.0
 10
51.595551
 20
166.453519
 30
0.0
 10
51.595551
 20
165.565372
 30
0.0
 10
51.207464
 20
165.183401
 30
0.0
 10
50.947016
 20
164.876423
 30
0.0
 10
50.865806
 20
164.674755
 30
0.0
 10
50.872322
 20
164.601531
 30
0.0
 10
50.822773
 20
164.603366
 30
0.0
 10
50.741639
 20
164.613364
 30
0.0
 10
50.672198
 20
164.559772
 30
0.0
 10
50.542859
 20
164.510892
 30
0.0
 10
50.259831
 20
164.477762
 30
0.0
 10
49.440518
 20
164.456810
 30
0.0
 10
48.629883
 20
164.493026
 30
0.0
 10
48.357703
 20
164.531355
 30
0.0
 10
48.243552
 20
164.582519
 30
0.0
 10
48.243544
 20
164.582510
 30
0.0
  0
LWPOLYLINE
  5
10a
100
AcDbEntity
  8
Layer_1
 62
7
100
AcDbPolyline
 90
36
 70
0
 10
51.228075
 20
167.355513
 30
0.0
 10
51.254999
 20
168.790666
 30
0.0
 10
51.765815
 20
168.820074
 30
0.0
 10
52.139511
 20
168.873213
 30
0.0
 10
52.244789
 20
168.915887
 30
0.0
 10
52.284077
 20
168.966022
 30
0.0
 10
52.322202
 20
169.239792
 30
0.0
 10
52.321559
 20
169.421329
 30
0.0
 10
52.238107
 20
169.547975
 30
0.0
 10
52.071898
 20
169.619691
 30
0.0
 10
51.822982
 20
169.636436
 30
0.0
 10
51.529551
 20
169.647374
 30
0.0
 10
51.348397
 20
169.693126
 30
0.0
 10
51.226552
 20
169.865605
 30
0.0
 10
51.138967
 20
170.148054
 30
0.0
 10
51.100777
 20
170.467989
 30
0.0
 10
51.127115
 20
170.752924
 30
0.0
 10
51.207749
 20
171.061108
 30
0.0
 10
52.335343
 20
171.005572
 30
0.0
 10
53.226425
 20
170.988930
 30
0.0
 10
53.442228
 20
171.015875
 30
0.0
 10
53.535800
 20
171.067935
 30
0.0
 10
53.569341
 20
171.325914
 30
0.0
 10
53.575764
 20
171.796896
 30
0.0
 10
53.557802
 20
172.259511
 30
0.0
 10
53.518189
 20
172.492389
 30
0.0
 10
51.421307
 20
172.585949
 30
0.0
 10
49.349759
 20
172.656888
 30
0.0
 10
49.367003
 20
169.994037
 30
0.0
 10
49.430621
 20
166.679481
 30
0.0
 10
49.476999
 20
166.027773
 30
0.0
 10
49.879504
 20
165.991067
 30
0.0
 10
50.741574
 20
165.937360
 30
0.0
 10
51.201142
 20
165.920371
 30
0.0
 10
51.228066
 20
167.355521
 30
0.0
 10
51.228075
 20
167.355513
 30
0.0
  0
LWPOLYLINE
  5
10b
100
AcDbEntity
  8
Layer_1
 62
7
100
AcDbPolyline
 90
27
 70
0
 10
14.135666
 20
167.280402
 30
0.0
 10
14.109809
 20
169.424916
 30
0.0
 10
14.072371
 20
169.884841
 30
0.0
 10
14.014043
 20
170.039754
 30
0.0
 10
13.941069
 20
170.080552
 30
0.0
 10
14.014043
 20
170.096512
 30
0.0
 10
14.070185
 20
170.149354
 30
0.0
 10
14.107866
 20
170.309320
 30
0.0
 10
14.135666
 20
171.009300
 30
0.0
 10
14.135666
 20
171.914404
 30
0.0
 10
14.625633
 20
172.552494
 30
0.0
 10
15.115600
 20
173.190581
 30
0.0
 10
16.289488
 20
173.259243
 30
0.0
 10
17.137109
 20
173.289180
 30
0.0
 10
17.526568
 20
173.264747
 30
0.0
 10
17.571196
 20
172.129267
 30
0.0
 10
17.589759
 20
169.488001
 30
0.0
 10
17.589759
 20
165.774431
 30
0.0
 10
17.346513
 20
165.531020
 30
0.0
 10
16.855196
 20
164.987262
 30
0.0
 10
16.692349
 20
164.812921
 30
0.0
 10
16.483013
 20
164.717320
 30
0.0
 10
16.088819
 20
164.667006
 30
0.0
 10
15.371395
 20
164.628527
 30
0.0
 10
14.135666
 20
164.570138
 30
0.0
 10
14.135666
 20
167.280416
 30
0.0
 10
14.135666
 20
167.280402
 30
0.0
  0
LWPOLYLINE
  5
10c
100
AcDbEntity
  8
Layer_1
 62
7
100
AcDbPolyline
 90
15
 70
0
 10
17.249214
 20
169.513847
 30
0.0
 10
17.248281
 20
171.651428
 30
0.0
 10
17.222458
 20
172.265796
 30
0.0
 10
17.157815
 20
172.645708
 30
0.0
 10
17.037914
 20
172.842535
 30
0.0
 10
16.846319
 20
172.907648
 30
0.0
 10
16.182293
 20
172.848206
 30
0.0
 10
15.455917
 20
172.779900
 30
0.0
 10
15.458401
 20
172.050161
 30
0.0
 10
15.479364
 20
168.766342
 30
0.0
 10
15.497844
 20
166.212259
 30
0.0
 10
16.373529
 20
166.212259
 30
0.0
 10
17.249215
 20
166.212259
 30
0.0
 10
17.249215
 20
169.513847
 30
0.0
 10
17.249214
 20
169.513847
 30
0.0
  0
LWPOLYLINE
  5
10d
100
AcDbEntity
  8
Layer_1
 62
7
100
AcDbPolyline
 90
50
 70
0
 10
43.106261
 20
164.632337
 30
0.0
 10
42.060303
 20
164.662066
 30
0.0
 10
42.052542
 20
167.066910
 30
0.0
 10
42.053953
 20
170.716246
 30
0.0
 10
42.063154
 20
171.960739
 30
0.0
 10
42.568509
 20
172.603788
 30
0.0
 10
43.073862
 20
173.246840
 30
0.0
 10
45.266782
 20
173.179468
 30
0.0
 10
47.672659
 20
173.058645
 30
0.0
 10
47.790456
 20
173.004886
 30
0.0
 10
47.858184
 20
172.867409
 30
0.0
 10
47.916205
 20
172.035643
 30
0.0
 10
47.898143
 20
170.937091
 30
0.0
 10
47.701033
 20
170.657199
 30
0.0
 10
47.335934
 20
170.246988
 30
0.0
 10
46.963306
 20
169.876306
 30
0.0
 10
46.743609
 20
169.715001
 30
0.0
 10
46.697702
 20
169.680170
 30
0.0
 10
46.662955
 20
169.580449
 30
0.0
 10
46.633263
 20
169.214973
 30
0.0
 10
46.619982
 20
168.924558
 30
0.0
 10
46.553253
 20
168.698575
 30
0.0
 10
46.392743
 20
168.453402
 30
0.0
 10
46.098121
 20
168.105414
 30
0.0
 10
45.562980
 20
167.495879
 30
0.0
 10
45.562980
 20
166.671386
 30
0.0
 10
45.530834
 20
166.003157
 30
0.0
 10
45.486069
 20
165.825900
 30
0.0
 10
45.418104
 20
165.726656
 30
0.0
 10
45.331447
 20
165.616396
 30
0.0
 10
45.326548
 20
165.520146
 30
0.0
 10
45.332253
 20
165.459213
 30
0.0
 10
45.271086
 20
165.433870
 30
0.0
 10
45.214817
 20
165.398144
 30
0.0
 10
45.232292
 20
165.312247
 30
0.0
 10
45.258336
 20
165.247539
 30
0.0
 10
45.222668
 20
165.262753
 30
0.0
 10
45.122625
 20
165.283973
 30
0.0
 10
45.014584
 20
165.224981
 30
0.0
 10
44.941582
 20
165.123841
 30
0.0
 10
44.946652
 20
165.018620
 30
0.0
 10
44.960345
 20
164.965740
 30
0.0
 10
44.903588
 20
164.982622
 30
0.0
 10
44.791273
 20
164.975208
 30
0.0
 10
44.669634
 20
164.865667
 30
0.0
 10
44.525498
 20
164.721620
 30
0.0
 10
44.283469
 20
164.644653
 30
0.0
 10
43.843664
 20
164.619861
 30
0.0
 10
43.106202
 20
164.632337
 30
0.0
 10
43.106261
 20
164.632337
 30
0.0
  0
LWPOLYLINE
  5
10e
100
AcDbEntity
  8
Layer_1
 62
7
100
AcDbPolyline
 90
27
 70
0
 10
45.173852
 20
167.574435
 30
0.0
 10
45.173852
 20
169.033911
 30
0.0
 10
45.708993
 20
169.033911
 30
0.0
 10
46.244135
 20
169.033911
 30
0.0
 10
46.244135
 20
169.409552
 30
0.0
 10
46.244135
 20
169.785192
 30
0.0
 10
45.744446
 20
169.844374
 30
0.0
 10
45.201470
 20
169.946843
 30
0.0
 10
45.151350
 20
170.606628
 30
0.0
 10
45.144521
 20
171.223126
 30
0.0
 10
46.326766
 20
171.188864
 30
0.0
 10
47.509015
 20
171.154605
 30
0.0
 10
47.509015
 20
171.926711
 30
0.0
 10
47.480644
 20
172.520297
 30
0.0
 10
47.442891
 20
172.659101
 30
0.0
 10
47.387391
 20
172.705614
 30
0.0
 10
45.349764
 20
172.785562
 30
0.0
 10
43.433760
 20
172.858714
 30
0.0
 10
43.376585
 20
172.624709
 30
0.0
 10
43.344201
 20
171.560409
 30
0.0
 10
43.346621
 20
169.330162
 30
0.0
 10
43.373827
 20
166.269618
 30
0.0
 10
43.617072
 20
166.201986
 30
0.0
 10
44.517084
 20
166.124657
 30
0.0
 10
45.173846
 20
166.114949
 30
0.0
 10
45.173846
 20
167.574424
 30
0.0
 10
45.173852
 20
167.574435
 30
0.0
  0
LWPOLYLINE
  5
10f
100
AcDbEntity
  8
Layer_1
 62
7
100
AcDbPolyline
 90
39
 70
0
 10
35.565636
 20
164.724555
 30
0.0
 10
35.506845
 20
164.916184
 30
0.0
 10
35.469458
 20
165.513785
 30
0.0
 10
35.444012
 20
168.373353
 30
0.0
 10
35.444012
 20
171.977709
 30
0.0
 10
35.934540
 20
172.639393
 30
0.0
 10
36.425065
 20
173.301077
 30
0.0
 10
36.931848
 20
173.273391
 30
0.0
 10
38.144041
 20
173.231724
 30
0.0
 10
38.849455
 20
173.217726
 30
0.0
 10
38.850866
 20
172.901504
 30
0.0
 10
38.872455
 20
172.691911
 30
0.0
 10
38.899669
 20
172.678142
 30
0.0
 10
38.939162
 20
172.722409
 30
0.0
 10
38.983966
 20
172.862260
 30
0.0
 10
38.969786
 20
173.005940
 30
0.0
 10
38.957148
 20
173.095657
 30
0.0
 10
39.020716
 20
173.086151
 30
0.0
 10
39.114315
 20
173.068446
 30
0.0
 10
39.188940
 20
173.118841
 30
0.0
 10
39.570158
 20
173.190185
 30
0.0
 10
40.460543
 20
173.217726
 30
0.0
 10
41.671031
 20
173.217726
 30
0.0
 10
41.671031
 20
172.639678
 30
0.0
 10
41.700079
 20
172.213479
 30
0.0
 10
41.769916
 20
172.000515
 30
0.0
 10
41.821655
 20
171.928066
 30
0.0
 10
41.807186
 20
171.839702
 30
0.0
 10
41.768442
 20
170.911214
 30
0.0
 10
41.761816
 20
168.818889
 30
0.0
 10
41.748487
 20
166.342237
 30
0.0
 10
41.700620
 20
165.899288
 30
0.0
 10
41.612168
 20
165.714464
 30
0.0
 10
41.493327
 20
165.531152
 30
0.0
 10
41.116970
 20
165.089263
 30
0.0
 10
40.693563
 20
164.647371
 30
0.0
 10
38.190373
 20
164.663739
 30
0.0
 10
35.565548
 20
164.724544
 30
0.0
 10
35.565636
 20
164.724555
 30
0.0
  0
LWPOLYLINE
  5
110
100
AcDbEntity
  8
Layer_1
 62
7
100
AcDbPolyline
 90
27
 70
0
 10
41.356184
 20
169.496078
 30
0.0
 10
41.330558
 20
172.779900
 30
0.0
 10
40.479198
 20
172.808010
 30
0.0
 10
39.741247
 20
172.801952
 30
0.0
 10
39.636556
 20
172.738796
 30
0.0
 10
39.609048
 20
172.613412
 30
0.0
 10
39.584720
 20
170.104191
 30
0.0
 10
39.579189
 20
167.817677
 30
0.0
 10
39.044047
 20
167.817677
 30
0.0
 10
38.508906
 20
167.817677
 30
0.0
 10
38.482970
 20
170.314201
 30
0.0
 10
38.457034
 20
172.810724
 30
0.0
 10
37.899190
 20
172.844478
 30
0.0
 10
37.025131
 20
172.842785
 30
0.0
 10
36.708910
 20
172.807295
 30
0.0
 10
36.708910
 20
169.552700
 30
0.0
 10
36.733513
 20
167.136252
 30
0.0
 10
36.763954
 20
166.539022
 30
0.0
 10
36.806209
 20
166.358241
 30
0.0
 10
36.874926
 20
166.370445
 30
0.0
 10
36.903508
 20
166.315335
 30
0.0
 10
37.040878
 20
166.269899
 30
0.0
 10
37.456426
 20
166.237738
 30
0.0
 10
39.142664
 20
166.212293
 30
0.0
 10
41.381821
 20
166.212293
 30
0.0
 10
41.356195
 20
169.496115
 30
0.0
 10
41.356184
 20
169.496078
 30
0.0
  0
LWPOLYLINE
  5
111
100
AcDbEntity
  8
Layer_1
 62
7
100
AcDbPolyline
 90
45
 70
0
 10
17.863902
 20
165.527483
 30
0.0
 10
17.881140
 20
166.104024
 30
0.0
 10
17.829675
 20
166.360265
 30
0.0
 10
17.766159
 20
166.463902
 30
0.0
 10
17.745405
 20
166.631520
 30
0.0
 10
17.764309
 20
166.773977
 30
0.0
 10
17.824217
 20
166.601452
 30
0.0
 10
17.837982
 20
166.609982
 30
0.0
 10
17.850592
 20
166.728888
 30
0.0
 10
17.871314
 20
167.255681
 30
0.0
 10
17.887493
 20
169.170193
 30
0.0
 10
17.881653
 20
171.982182
 30
0.0
 10
18.399478
 20
172.648610
 30
0.0
 10
18.917302
 20
173.315041
 30
0.0
 10
21.488702
 20
173.315041
 30
0.0
 10
24.133075
 20
173.315324
 30
0.0
 10
24.192780
 20
173.009966
 30
0.0
 10
24.233852
 20
172.275261
 30
0.0
 10
24.261656
 20
171.234776
 30
0.0
 10
23.917632
 20
170.735271
 30
0.0
 10
23.573608
 20
170.169943
 30
0.0
 10
23.674939
 20
170.123433
 30
0.0
 10
23.918562
 20
170.104089
 30
0.0
 10
24.263515
 20
170.104089
 30
0.0
 10
24.249291
 20
167.869496
 30
0.0
 10
24.217644
 20
166.297501
 30
0.0
 10
24.161528
 20
165.655959
 30
0.0
 10
24.005490
 20
165.552257
 30
0.0
 10
23.741953
 20
165.292595
 30
0.0
 10
23.493139
 20
165.007039
 30
0.0
 10
23.381268
 20
164.825650
 30
0.0
 10
22.992138
 20
164.774114
 30
0.0
 10
22.059740
 20
164.752679
 30
0.0
 10
21.133596
 20
164.777616
 30
0.0
 10
20.873365
 20
164.805231
 30
0.0
 10
20.794303
 20
164.839781
 30
0.0
 10
20.793864
 20
164.938756
 30
0.0
 10
20.672606
 20
164.985033
 30
0.0
 10
20.479654
 20
164.973222
 30
0.0
 10
20.264131
 20
164.897936
 30
0.0
 10
19.794855
 20
164.786517
 30
0.0
 10
18.893695
 20
164.752679
 30
0.0
 10
17.804161
 20
164.752679
 30
0.0
 10
17.863901
 20
165.527379
 30
0.0
 10
17.863902
 20
165.527483
 30
0.0
  0
LWPOLYLINE
  5
112
100
AcDbEntity
  8
Layer_1
 62
7
100
AcDbPolyline
 90
42
 70
0
 10
21.469476
 20
166.536620
 30
0.0
 10
22.077591
 20
166.796047
 30
0.0
 10
22.114133
 20
166.549150
 30
0.0
 10
22.114133
 20
166.302254
 30
0.0
 10
23.014144
 20
166.330222
 30
0.0
 10
23.704451
 20
166.379780
 30
0.0
 10
23.859222
 20
166.422397
 30
0.0
 10
23.904424
 20
166.479820
 30
0.0
 10
23.880099
 20
168.161508
 30
0.0
 10
23.865505
 20
169.721574
 30
0.0
 10
22.819547
 20
169.693972
 30
0.0
 10
21.773590
 20
169.666371
 30
0.0
 10
21.744148
 20
169.314186
 30
0.0
 10
21.759667
 20
169.019162
 30
0.0
 10
21.817895
 20
168.949617
 30
0.0
 10
21.920063
 20
168.908302
 30
0.0
 10
22.026610
 20
168.864323
 30
0.0
 10
22.084633
 20
168.782483
 30
0.0
 10
22.095453
 20
168.384800
 30
0.0
 10
22.065485
 20
167.914999
 30
0.0
 10
21.504841
 20
167.885783
 30
0.0
 10
20.944198
 20
167.856570
 30
0.0
 10
20.969700
 20
169.637155
 30
0.0
 10
20.995204
 20
171.417741
 30
0.0
 10
21.530345
 20
171.417741
 30
0.0
 10
22.065486
 20
171.417741
 30
0.0
 10
22.096159
 20
171.044900
 30
0.0
 10
22.150397
 20
170.770283
 30
0.0
 10
22.196843
 20
170.720346
 30
0.0
 10
22.259127
 20
170.722822
 30
0.0
 10
23.128464
 20
171.080420
 30
0.0
 10
23.865506
 20
171.387252
 30
0.0
 10
23.865506
 20
172.156559
 30
0.0
 10
23.865506
 20
172.925866
 30
0.0
 10
21.530345
 20
172.925866
 30
0.0
 10
19.195184
 20
172.925866
 30
0.0
 10
19.195184
 20
169.573861
 30
0.0
 10
19.195184
 20
166.221857
 30
0.0
 10
20.046545
 20
166.249543
 30
0.0
 10
20.841148
 20
166.324232
 30
0.0
 10
21.469478
 20
166.536648
 30
0.0
 10
21.469476
 20
166.536620
 30
0.0
  0
LWPOLYLINE
  5
113
100
AcDbEntity
  8
Layer_1
 62
7
100
AcDbPolyline
 90
8
 70
0
 10
41.873387
 20
165.977120
 30
0.0
 10
41.892874
 20
166.078125
 30
0.0
 10
41.932171
 20
166.035904
 30
0.0
 10
41.950992
 20
165.928446
 30
0.0
 10
41.924495
 20
165.849417
 30
0.0
 10
41.885235
 20
165.862685
 30
0.0
 10
41.873393
 20
165.977120
 30
0.0
 10
41.873387
 20
165.977120
 30
0.0
  0
ENDSEC
  0
SECTION
  2
OBJECTS
  0
DICTIONARY
  5
C
330
0
100
AcDbDictionary
  3
ACAD_GROUP
350
D
  3
ACAD_MLINESTYLE
350
17
  0
DICTIONARY
  5
D
330
C
100
AcDbDictionary
  0
DICTIONARY
  5
1A
330
C
100
AcDbDictionary
  0
DICTIONARY
  5
17
330
C
100
AcDbDictionary
  3
STANDARD
350
18
  0
DICTIONARY
  5
19
330
C
100
AcDbDictionary
  0
ENDSEC
  0
EOF
