  0
SECTION
  2
HEADER
  9
$ACADVER
  1
AC1014
  9
$HANDSEED
  5
FFFF
  9
$MEASUREMENT
 70
     1
  0
ENDSEC
  0
SECTION
  2
TABLES
  0
TABLE
  2
VPORT
  5
8
330
0
100
AcDbSymbolTable
 70
     4
  0
VPORT
  5
2E
330
8
100
AcDbSymbolTableRecord
100
AcDbViewportTableRecord
  2
*ACTIVE
 70
     0
 10
0.0
 20
0.0
 11
1.0
 21
1.0
 12
210.0
 22
148.5
 13
0.0
 23
0.0
 14
10.0
 24
10.0
 15
10.0
 25
10.0
 16
0.0
 26
0.0
 36
1.0
 17
0.0
 27
0.0
 37
0.0
 40
341.0
 41
1.24
 42
50.0
 43
0.0
 44
0.0
 50
0.0
 51
0.0
 71
     0
 72
   100
 73
     1
 74
     3
 75
     0
 76
     0
 77
     0
 78
     0
  0
ENDTAB
  0
TABLE
  2
LTYPE
  5
5
330
0
100
AcDbSymbolTable
 70
     1
  0
LTYPE
  5
14
330
5
100
AcDbSymbolTableRecord
100
AcDbLinetypeTableRecord
  2
BYBLOCK
 70
     0
  3

 72
    65
 73
     0
 40
0.0
  0
LTYPE
  5
15
330
5
100
AcDbSymbolTableRecord
100
AcDbLinetypeTableRecord
  2
BYLAYER
 70
     0
  3

 72
    65
 73
     0
 40
0.0
  0
LTYPE
  5
16
330
5
100
AcDbSymbolTableRecord
100
AcDbLinetypeTableRecord
  2
CONTINUOUS
 70
     0
  3
Solid line
 72
    65
 73
     0
 40
0.0
  0
ENDTAB
  0
TABLE
  2
LAYER
  5
2
100
AcDbSymbolTable
 70
2
  0
LAYER
  5
50
100
AcDbSymbolTableRecord
100
AcDbLayerTableRecord
  2
0
 70
0
  6
CONTINUOUS
  0
LAYER
  5
51
100
AcDbSymbolTableRecord
100
AcDbLayerTableRecord
  2
Layer_1
 70
0
  6
CONTINUOUS
  0
ENDTAB
  0
TABLE
  2
STYLE
  5
3
330
0
100
AcDbSymbolTable
 70
     1
  0
STYLE
  5
11
330
3
100
AcDbSymbolTableRecord
100
AcDbTextStyleTableRecord
  2
STANDARD
 70
     0
 40
0.0
 41
1.0
 50
0.0
 71
     0
 42
2.5
  3
txt
  4

  0
ENDTAB
  0
TABLE
  2
VIEW
  5
6
330
0
100
AcDbSymbolTable
 70
     0
  0
ENDTAB
  0
TABLE
  2
UCS
  5
7
330
0
100
AcDbSymbolTable
 70
     0
  0
ENDTAB
  0
TABLE
  2
APPID
  5
9
330
0
100
AcDbSymbolTable
 70
     2
  0
APPID
  5
12
330
9
100
AcDbSymbolTableRecord
100
AcDbRegAppTableRecord
  2
ACAD
 70
     0
  0
ENDTAB
  0
TABLE
  2
DIMSTYLE
  5
A
330
0
100
AcDbSymbolTable
 70
     1
  0
DIMSTYLE
105
27
330
A
100
AcDbSymbolTableRecord
100
AcDbDimStyleTableRecord
  2
ISO-25
 70
     0
  3

  4

  5

  6

  7

 40
1.0
 41
2.5
 42
0.625
 43
3.75
 44
1.25
 45
0.0
 46
0.0
 47
0.0
 48
0.0
140
2.5
141
2.5
142
0.0
143
0.03937007874016
144
1.0
145
0.0
146
1.0
147
0.625
 71
     0
 72
     0
 73
     0
 74
     0
 75
     0
 76
     0
 77
     1
 78
     8
170
     0
171
     3
172
     1
173
     0
174
     0
175
     0
176
     0
177
     0
178
     0
270
     2
271
     2
272
     2
273
     2
274
     3
340
11
275
     0
280
     0
281
     0
282
     0
283
     0
284
     8
285
     0
286
     0
287
     3
288
     0
  0
ENDTAB
  0
TABLE
  2
BLOCK_RECORD
  5
1
330
0
100
AcDbSymbolTable
 70
     1
  0
BLOCK_RECORD
  5
1F
330
1
100
AcDbSymbolTableRecord
100
AcDbBlockTableRecord
  2
*MODEL_SPACE
  0
BLOCK_RECORD
  5
1B
330
1
100
AcDbSymbolTableRecord
100
AcDbBlockTableRecord
  2
*PAPER_SPACE
  0
ENDTAB
  0
ENDSEC
  0
SECTION
  2
BLOCKS
  0
BLOCK
  5
20
330
1F
100
AcDbEntity
  8
0
100
AcDbBlockBegin
  2
*MODEL_SPACE
 70
     0
 10
0.0
 20
0.0
 30
0.0
  3
*MODEL_SPACE
  1

  0
ENDBLK
  5
21
330
1F
100
AcDbEntity
  8
0
100
AcDbBlockEnd
  0
BLOCK
  5
1C
330
1B
100
AcDbEntity
 67
     1
  8
0
100
AcDbBlockBegin
  2
*PAPER_SPACE
  1

  0
ENDBLK
  5
1D
330
1B
100
AcDbEntity
 67
     1
  8
0
100
AcDbBlockEnd
  0
ENDSEC
  0
SECTION
  2
ENTITIES
  0
LWPOLYLINE
  5
100
100
AcDbEntity
  8
Layer_1
 62
7
100
AcDbPolyline
 90
141
 70
0
 10
36.406923
 20
154.068522
 30
0.0
 10
36.064895
 20
154.321071
 30
0.0
 10
35.771012
 20
154.628696
 30
0.0
 10
35.551206
 20
154.959175
 30
0.0
 10
35.431414
 20
155.280291
 30
0.0
 10
35.365001
 20
155.473178
 30
0.0
 10
35.288118
 20
155.522959
 30
0.0
 10
35.244732
 20
155.528322
 30
0.0
 10
35.258843
 20
155.614371
 30
0.0
 10
35.254892
 20
155.882993
 30
0.0
 10
35.168047
 20
156.327284
 30
0.0
 10
35.077640
 20
156.864460
 30
0.0
 10
35.065109
 20
157.356394
 30
0.0
 10
35.069201
 20
157.696954
 30
0.0
 10
35.043970
 20
157.785795
 30
0.0
 10
35.001143
 20
157.816114
 30
0.0
 10
34.956493
 20
157.770247
 30
0.0
 10
34.929089
 20
157.632974
 30
0.0
 10
34.926239
 20
157.086149
 30
0.0
 10
34.931403
 20
156.570678
 30
0.0
 10
34.898841
 20
156.356413
 30
0.0
 10
34.839817
 20
156.212533
 30
0.0
 10
34.781351
 20
155.866328
 30
0.0
 10
34.663247
 20
155.370258
 30
0.0
 10
34.444926
 20
154.874582
 30
0.0
 10
34.161797
 20
154.444659
 30
0.0
 10
33.849267
 20
154.145839
 30
0.0
 10
33.589753
 20
154.010104
 30
0.0
 10
33.314911
 20
153.934328
 30
0.0
 10
33.035144
 20
153.916040
 30
0.0
 10
32.760841
 20
153.952796
 30
0.0
 10
32.502404
 20
154.042131
 30
0.0
 10
32.270231
 20
154.181580
 30
0.0
 10
32.074714
 20
154.368685
 30
0.0
 10
31.926253
 20
154.600982
 30
0.0
 10
31.797338
 20
154.933462
 30
0.0
 10
31.725295
 20
155.274931
 30
0.0
 10
31.710594
 20
155.627822
 30
0.0
 10
31.753704
 20
155.994584
 30
0.0
 10
31.855097
 20
156.377655
 30
0.0
 10
32.015244
 20
156.779478
 30
0.0
 10
32.513679
 20
157.649140
 30
0.0
 10
32.941037
 20
158.433139
 30
0.0
 10
33.242422
 20
159.249010
 30
0.0
 10
33.358822
 20
159.890851
 30
0.0
 10
33.329208
 20
160.082164
 30
0.0
 10
33.231218
 20
160.152753
 30
0.0
 10
33.171928
 20
160.174992
 30
0.0
 10
33.248913
 20
160.242412
 30
0.0
 10
33.315416
 20
160.302918
 30
0.0
 10
33.339941
 20
160.389422
 30
0.0
 10
33.266495
 20
160.736888
 30
0.0
 10
33.162550
 20
161.005877
 30
0.0
 10
33.083587
 20
161.082029
 30
0.0
 10
33.001977
 20
161.104042
 30
0.0
 10
32.891673
 20
161.242839
 30
0.0
 10
32.760937
 20
161.464813
 30
0.0
 10
32.822994
 20
161.237085
 30
0.0
 10
32.884220
 20
160.796022
 30
0.0
 10
32.881680
 20
160.246809
 30
0.0
 10
32.822012
 20
159.702479
 30
0.0
 10
32.711528
 20
159.276072
 30
0.0
 10
32.556704
 20
158.971814
 30
0.0
 10
32.356670
 20
158.705910
 30
0.0
 10
32.115411
 20
158.480519
 30
0.0
 10
31.836904
 20
158.297805
 30
0.0
 10
31.525132
 20
158.159934
 30
0.0
 10
31.184074
 20
158.069061
 30
0.0
 10
30.817713
 20
158.027352
 30
0.0
 10
30.430028
 20
158.036975
 30
0.0
 10
30.091907
 20
158.093744
 30
0.0
 10
29.781765
 20
158.197218
 30
0.0
 10
29.501054
 20
158.342791
 30
0.0
 10
29.251224
 20
158.525863
 30
0.0
 10
29.033725
 20
158.741831
 30
0.0
 10
28.850007
 20
158.986089
 30
0.0
 10
28.589718
 20
159.541079
 30
0.0
 10
28.481959
 20
160.154012
 30
0.0
 10
28.488904
 20
160.470702
 30
0.0
 10
28.538333
 20
160.788069
 30
0.0
 10
28.631696
 20
161.101511
 30
0.0
 10
28.770444
 20
161.406429
 30
0.0
 10
28.956026
 20
161.698216
 30
0.0
 10
29.189893
 20
161.972273
 30
0.0
 10
29.605448
 20
162.320253
 30
0.0
 10
30.099632
 20
162.604931
 30
0.0
 10
30.657656
 20
162.823600
 30
0.0
 10
31.264736
 20
162.973553
 30
0.0
 10
31.906084
 20
163.052081
 30
0.0
 10
32.566915
 20
163.056484
 30
0.0
 10
33.232440
 20
162.984051
 30
0.0
 10
33.887875
 20
162.832080
 30
0.0
 10
35.541946
 20
162.335685
 30
0.0
 10
36.737010
 20
162.037303
 30
0.0
 10
37.991680
 20
161.853472
 30
0.0
 10
38.949288
 20
161.732870
 30
0.0
 10
39.451156
 20
161.626896
 30
0.0
 10
39.791738
 20
161.353287
 30
0.0
 10
40.020680
 20
160.986118
 30
0.0
 10
40.116599
 20
160.576507
 30
0.0
 10
40.107991
 20
160.371760
 30
0.0
 10
40.058114
 20
160.175571
 30
0.0
 10
39.907184
 20
159.907155
 30
0.0
 10
39.683142
 20
159.685729
 30
0.0
 10
39.401075
 20
159.515145
 30
0.0
 10
39.076062
 20
159.399256
 30
0.0
 10
38.723194
 20
159.341920
 30
0.0
 10
38.357553
 20
159.347000
 30
0.0
 10
37.994223
 20
159.418332
 30
0.0
 10
37.648292
 20
159.559781
 30
0.0
 10
37.447804
 20
159.628373
 30
0.0
 10
37.280658
 20
159.624760
 30
0.0
 10
37.195486
 20
159.613415
 30
0.0
 10
37.197744
 20
159.667729
 30
0.0
 10
37.145612
 20
159.776932
 30
0.0
 10
36.935226
 20
159.901872
 30
0.0
 10
36.652792
 20
159.989089
 30
0.0
 10
36.582553
 20
159.962307
 30
0.0
 10
36.527260
 20
159.887433
 30
0.0
 10
36.478777
 20
159.606029
 30
0.0
 10
36.517362
 20
159.153726
 30
0.0
 10
36.631228
 20
158.607702
 30
0.0
 10
36.808585
 20
158.045137
 30
0.0
 10
37.067210
 20
157.434767
 30
0.0
 10
37.345007
 20
156.893998
 30
0.0
 10
37.586863
 20
156.519862
 30
0.0
 10
37.677090
 20
156.425605
 30
0.0
 10
37.737663
 20
156.409405
 30
0.0
 10
37.785387
 20
156.409546
 30
0.0
 10
37.775876
 20
156.333081
 30
0.0
 10
37.784032
 20
156.116766
 30
0.0
 10
37.874281
 20
155.780654
 30
0.0
 10
38.003539
 20
155.267086
 30
0.0
 10
38.019682
 20
154.811381
 30
0.0
 10
37.934603
 20
154.427404
 30
0.0
 10
37.760179
 20
154.129016
 30
0.0
 10
37.508290
 20
153.930078
 30
0.0
 10
37.190824
 20
153.844448
 30
0.0
 10
36.819659
 20
153.885994
 30
0.0
 10
36.406678
 20
154.068575
 30
0.0
 10
36.406666
 20
154.068572
 30
0.0
  0
LWPOLYLINE
  5
101
100
AcDbEntity
  8
Layer_1
 62
7
100
AcDbPolyline
 90
14
 70
0
 10
35.163108
 20
158.796715
 30
0.0
 10
35.179702
 20
159.388656
 30
0.0
 10
35.135557
 20
159.885285
 30
0.0
 10
35.030692
 20
160.286492
 30
0.0
 10
34.865126
 20
160.592167
 30
0.0
 10
34.775162
 20
160.701037
 30
0.0
 10
34.748803
 20
160.594177
 30
0.0
 10
34.904629
 20
159.032387
 30
0.0
 10
34.986200
 20
158.205349
 30
0.0
 10
35.001891
 20
157.988357
 30
0.0
 10
35.025626
 20
157.931232
 30
0.0
 10
35.054813
 20
157.929257
 30
0.0
 10
35.163108
 20
158.796833
 30
0.0
 10
35.163108
 20
158.796833
 30
0.0
  0
LWPOLYLINE
  5
102
100
AcDbEntity
  8
Layer_1
 62
7
100
AcDbPolyline
 90
8
 70
0
 10
35.014379
 20
159.137910
 30
0.0
 10
35.033881
 20
159.238915
 30
0.0
 10
35.073166
 20
159.196697
 30
0.0
 10
35.091991
 20
159.089238
 30
0.0
 10
35.065490
 20
159.010207
 30
0.0
 10
35.026230
 20
159.023472
 30
0.0
 10
35.014377
 20
159.137907
 30
0.0
 10
35.014374
 20
159.137907
 30
0.0
  0
LWPOLYLINE
  5
103
100
AcDbEntity
  8
Layer_1
 62
7
100
AcDbPolyline
 90
61
 70
0
 10
35.955351
 20
166.060214
 30
0.0
 10
35.590483
 20
166.098382
 30
0.0
 10
35.590483
 20
168.178682
 30
0.0
 10
35.564433
 20
169.679384
 30
0.0
 10
35.499522
 20
170.315197
 30
0.0
 10
35.361967
 20
170.258775
 30
0.0
 10
35.158979
 20
170.044182
 30
0.0
 10
35.029111
 20
169.848811
 30
0.0
 10
34.953016
 20
169.647451
 30
0.0
 10
34.906683
 20
168.996404
 30
0.0
 10
34.896467
 20
168.600274
 30
0.0
 10
34.857266
 20
168.332078
 30
0.0
 10
34.770472
 20
168.121269
 30
0.0
 10
34.617493
 20
167.897292
 30
0.0
 10
34.433247
 20
167.598230
 30
0.0
 10
34.392554
 20
167.410800
 30
0.0
 10
34.412112
 20
167.356269
 30
0.0
 10
34.372739
 20
167.376730
 30
0.0
 10
34.253184
 20
167.370550
 30
0.0
 10
34.079984
 20
167.251982
 30
0.0
 10
33.932368
 20
167.145322
 30
0.0
 10
33.714374
 20
167.089112
 30
0.0
 10
32.681562
 20
167.080815
 30
0.0
 10
31.494539
 20
167.108247
 30
0.0
 10
31.501468
 20
170.801218
 30
0.0
 10
31.529142
 20
173.424953
 30
0.0
 10
31.585947
 20
174.547207
 30
0.0
 10
32.073282
 20
175.159688
 30
0.0
 10
32.483066
 20
175.719154
 30
0.0
 10
33.477304
 20
175.717743
 30
0.0
 10
34.211570
 20
175.695673
 30
0.0
 10
34.580759
 20
175.644760
 30
0.0
 10
34.737884
 20
175.445560
 30
0.0
 10
34.962284
 20
175.067012
 30
0.0
 10
35.177967
 20
174.723900
 30
0.0
 10
35.314122
 20
174.609900
 30
0.0
 10
35.357130
 20
174.607360
 30
0.0
 10
35.348861
 20
174.532328
 30
0.0
 10
35.360714
 20
174.385699
 30
0.0
 10
35.452132
 20
174.211055
 30
0.0
 10
35.540213
 20
174.103474
 30
0.0
 10
35.604588
 20
174.072484
 30
0.0
 10
35.782326
 20
174.256983
 30
0.0
 10
35.896770
 20
174.449798
 30
0.0
 10
35.916187
 20
174.575615
 30
0.0
 10
35.907523
 20
174.622921
 30
0.0
 10
35.954518
 20
174.626985
 30
0.0
 10
36.144140
 20
174.765302
 30
0.0
 10
36.478424
 20
175.135392
 30
0.0
 10
36.915725
 20
175.670533
 30
0.0
 10
37.980148
 20
175.670533
 30
0.0
 10
39.044572
 20
175.670533
 30
0.0
 10
39.071581
 20
171.434970
 30
0.0
 10
39.068476
 20
167.806199
 30
0.0
 10
39.019697
 20
167.219177
 30
0.0
 10
38.924769
 20
167.007894
 30
0.0
 10
38.427406
 20
166.402860
 30
0.0
 10
38.103880
 20
165.989343
 30
0.0
 10
37.212047
 20
166.005712
 30
0.0
 10
35.955345
 20
166.060234
 30
0.0
 10
35.955345
 20
166.060147
 30
0.0
  0
LWPOLYLINE
  5
104
100
AcDbEntity
  8
Layer_1
 62
7
100
AcDbPolyline
 90
47
 70
0
 10
38.704023
 20
171.437979
 30
0.0
 10
38.704023
 20
175.329913
 30
0.0
 10
37.885305
 20
175.329913
 30
0.0
 10
37.066589
 20
175.329913
 30
0.0
 10
36.815894
 20
174.881372
 30
0.0
 10
36.657294
 20
174.534735
 30
0.0
 10
36.628013
 20
174.331197
 30
0.0
 10
36.642237
 20
174.278049
 30
0.0
 10
36.588226
 20
174.292978
 30
0.0
 10
36.523743
 20
174.272573
 30
0.0
 10
36.426007
 20
174.165775
 30
0.0
 10
36.173099
 20
173.748557
 30
0.0
 10
35.784976
 20
173.059066
 30
0.0
 10
35.734475
 20
173.066206
 30
0.0
 10
35.652868
 20
173.146016
 30
0.0
 10
35.441421
 20
173.469725
 30
0.0
 10
35.223272
 20
173.799546
 30
0.0
 10
35.134411
 20
173.885974
 30
0.0
 10
35.075052
 20
173.901214
 30
0.0
 10
35.024156
 20
173.888373
 30
0.0
 10
35.039988
 20
173.942915
 30
0.0
 10
34.990896
 20
174.182231
 30
0.0
 10
34.783886
 20
174.613642
 30
0.0
 10
34.539479
 20
174.985227
 30
0.0
 10
34.264806
 20
175.197438
 30
0.0
 10
33.861129
 20
175.295420
 30
0.0
 10
33.229719
 20
175.324325
 30
0.0
 10
32.766273
 20
175.329942
 30
0.0
 10
32.791871
 20
171.997473
 30
0.0
 10
32.817469
 20
168.665004
 30
0.0
 10
33.668829
 20
168.636895
 30
0.0
 10
34.520191
 20
168.608785
 30
0.0
 10
34.531424
 20
170.777463
 30
0.0
 10
34.565251
 20
173.043439
 30
0.0
 10
34.603083
 20
173.238034
 30
0.0
 10
34.773613
 20
173.056238
 30
0.0
 10
35.162219
 20
172.482517
 30
0.0
 10
35.706129
 20
171.629698
 30
0.0
 10
35.875236
 20
171.850077
 30
0.0
 10
36.474177
 20
172.702896
 30
0.0
 10
36.904010
 20
173.335333
 30
0.0
 10
36.929777
 20
170.440707
 30
0.0
 10
36.955543
 20
167.546081
 30
0.0
 10
37.829780
 20
167.546081
 30
0.0
 10
38.704020
 20
167.546081
 30
0.0
 10
38.704020
 20
171.438015
 30
0.0
 10
38.704029
 20
171.437998
 30
0.0
  0
LWPOLYLINE
  5
105
100
AcDbEntity
  8
Layer_1
 62
7
100
AcDbPolyline
 90
34
 70
0
 10
11.523442
 20
166.834446
 30
0.0
 10
11.476739
 20
167.683675
 30
0.0
 10
11.461261
 20
169.567695
 30
0.0
 10
11.476945
 20
171.678009
 30
0.0
 10
11.523724
 20
173.206126
 30
0.0
 10
11.584425
 20
174.147219
 30
0.0
 10
12.053819
 20
174.720378
 30
0.0
 10
12.523211
 20
175.293535
 30
0.0
 10
13.913424
 20
175.410338
 30
0.0
 10
15.273965
 20
175.492448
 30
0.0
 10
16.592839
 20
175.525838
 30
0.0
 10
17.882069
 20
175.524427
 30
0.0
 10
17.882069
 20
174.004821
 30
0.0
 10
17.882069
 20
172.485218
 30
0.0
 10
17.577392
 20
172.138209
 30
0.0
 10
17.272715
 20
171.791202
 30
0.0
 10
17.481395
 20
171.622222
 30
0.0
 10
17.781032
 20
171.421243
 30
0.0
 10
17.850981
 20
170.908620
 30
0.0
 10
17.890782
 20
169.706204
 30
0.0
 10
17.909578
 20
168.023160
 30
0.0
 10
17.641949
 20
167.743817
 30
0.0
 10
17.464499
 20
167.503919
 30
0.0
 10
17.449197
 20
167.334944
 30
0.0
 10
17.478042
 20
167.265300
 30
0.0
 10
17.442249
 20
167.279750
 30
0.0
 10
17.311023
 20
167.263805
 30
0.0
 10
17.110430
 20
167.121085
 30
0.0
 10
16.921823
 20
166.986423
 30
0.0
 10
16.552508
 20
166.910355
 30
0.0
 10
14.225543
 20
166.827557
 30
0.0
 10
12.344876
 20
166.804584
 30
0.0
 10
11.523336
 20
166.834336
 30
0.0
 10
11.523441
 20
166.834449
 30
0.0
  0
LWPOLYLINE
  5
106
100
AcDbEntity
  8
Layer_1
 62
7
100
AcDbPolyline
 90
27
 70
0
 10
17.514188
 20
168.557994
 30
0.0
 10
17.543003
 20
168.640654
 30
0.0
 10
17.514188
 20
168.689126
 30
0.0
 10
17.473553
 20
169.058137
 30
0.0
 10
17.473948
 20
169.911464
 30
0.0
 10
17.503569
 20
171.109678
 30
0.0
 10
16.905271
 20
171.367829
 30
0.0
 10
16.478289
 20
171.590288
 30
0.0
 10
16.372359
 20
171.680904
 30
0.0
 10
16.348116
 20
171.750912
 30
0.0
 10
16.539283
 20
171.962635
 30
0.0
 10
16.941115
 20
172.296239
 30
0.0
 10
17.492977
 20
172.716637
 30
0.0
 10
17.492977
 20
173.927554
 30
0.0
 10
17.492977
 20
175.138474
 30
0.0
 10
15.765931
 20
175.096905
 30
0.0
 10
13.437747
 20
174.984911
 30
0.0
 10
12.836611
 20
174.914479
 30
0.0
 10
12.804090
 20
171.692441
 30
0.0
 10
12.804037
 20
168.395516
 30
0.0
 10
13.018016
 20
168.362967
 30
0.0
 10
13.550496
 20
168.352807
 30
0.0
 10
15.148123
 20
168.385102
 30
0.0
 10
16.751244
 20
168.463218
 30
0.0
 10
17.290591
 20
168.510346
 30
0.0
 10
17.514183
 20
168.557988
 30
0.0
 10
17.514183
 20
168.557988
 30
0.0
  0
LWPOLYLINE
  5
107
100
AcDbEntity
  8
Layer_1
 62
7
100
AcDbPolyline
 90
13
 70
0
 10
14.660418
 20
170.051494
 30
0.0
 10
14.658161
 20
171.120837
 30
0.0
 10
14.679361
 20
171.238479
 30
0.0
 10
14.749285
 20
171.301033
 30
0.0
 10
15.182205
 20
171.315426
 30
0.0
 10
15.693021
 20
171.292030
 30
0.0
 10
15.721608
 20
170.586619
 30
0.0
 10
15.750194
 20
169.881204
 30
0.0
 10
15.210791
 20
169.881204
 30
0.0
 10
14.772246
 20
169.913699
 30
0.0
 10
14.687724
 20
169.965651
 30
0.0
 10
14.660481
 20
170.051477
 30
0.0
 10
14.660419
 20
170.051486
 30
0.0
  0
LWPOLYLINE
  5
108
100
AcDbEntity
  8
Layer_1
 62
7
100
AcDbPolyline
 90
14
 70
0
 10
15.308850
 20
172.097772
 30
0.0
 10
14.943982
 20
172.157202
 30
0.0
 10
14.622675
 20
172.173063
 30
0.0
 10
14.593990
 20
172.880789
 30
0.0
 10
14.565299
 20
173.588515
 30
0.0
 10
15.129128
 20
173.559203
 30
0.0
 10
15.692957
 20
173.529894
 30
0.0
 10
15.723031
 20
172.999954
 30
0.0
 10
15.731029
 20
172.574665
 30
0.0
 10
15.697824
 20
172.280398
 30
0.0
 10
15.621609
 20
172.109470
 30
0.0
 10
15.500578
 20
172.054202
 30
0.0
 10
15.308850
 20
172.097763
 30
0.0
 10
15.308850
 20
172.097772
 30
0.0
  0
LWPOLYLINE
  5
109
100
AcDbEntity
  8
Layer_1
 62
7
100
AcDbPolyline
 90
44
 70
0
 10
52.281946
 20
166.986586
 30
0.0
 10
52.212107
 20
167.395701
 30
0.0
 10
52.165238
 20
168.156078
 30
0.0
 10
52.125677
 20
171.120651
 30
0.0
 10
52.117690
 20
174.160111
 30
0.0
 10
52.586607
 20
174.793663
 30
0.0
 10
53.055528
 20
175.427218
 30
0.0
 10
54.183398
 20
175.427221
 30
0.0
 10
56.640182
 20
175.363487
 30
0.0
 10
57.969099
 20
175.299755
 30
0.0
 10
57.969099
 20
174.156510
 30
0.0
 10
57.969099
 20
173.013264
 30
0.0
 10
57.336659
 20
172.358655
 30
0.0
 10
56.986277
 20
171.985143
 30
0.0
 10
56.796827
 20
171.732763
 30
0.0
 10
56.719185
 20
171.515053
 30
0.0
 10
56.704227
 20
171.245551
 30
0.0
 10
56.660466
 20
170.851789
 30
0.0
 10
56.511923
 20
170.613026
 30
0.0
 10
56.394310
 20
170.458210
 30
0.0
 10
56.381582
 20
170.330378
 30
0.0
 10
56.401196
 20
170.275604
 30
0.0
 10
56.361372
 20
170.296432
 30
0.0
 10
56.208568
 20
170.257325
 30
0.0
 10
55.956578
 20
170.058426
 30
0.0
 10
55.771638
 20
169.863853
 30
0.0
 10
55.675685
 20
169.671310
 30
0.0
 10
55.639527
 20
169.372112
 30
0.0
 10
55.633967
 20
168.857587
 30
0.0
 10
55.633967
 20
167.969439
 30
0.0
 10
55.245880
 20
167.587468
 30
0.0
 10
54.985431
 20
167.280492
 30
0.0
 10
54.904222
 20
167.078822
 30
0.0
 10
54.910741
 20
167.005600
 30
0.0
 10
54.861192
 20
167.007293
 30
0.0
 10
54.780058
 20
167.017284
 30
0.0
 10
54.710618
 20
166.963690
 30
0.0
 10
54.581278
 20
166.914809
 30
0.0
 10
54.298249
 20
166.881681
 30
0.0
 10
53.478938
 20
166.860741
 30
0.0
 10
52.668302
 20
166.896955
 30
0.0
 10
52.396122
 20
166.935284
 30
0.0
 10
52.281971
 20
166.986448
 30
0.0
 10
52.281963
 20
166.986440
 30
0.0
  0
LWPOLYLINE
  5
10a
100
AcDbEntity
  8
Layer_1
 62
7
100
AcDbPolyline
 90
36
 70
0
 10
55.266494
 20
169.759442
 30
0.0
 10
55.293418
 20
171.194596
 30
0.0
 10
55.804234
 20
171.224003
 30
0.0
 10
56.177930
 20
171.277143
 30
0.0
 10
56.283208
 20
171.319815
 30
0.0
 10
56.322496
 20
171.369952
 30
0.0
 10
56.360621
 20
171.643721
 30
0.0
 10
56.360057
 20
171.825258
 30
0.0
 10
56.276604
 20
171.951905
 30
0.0
 10
56.110395
 20
172.023621
 30
0.0
 10
55.861480
 20
172.040357
 30
0.0
 10
55.568048
 20
172.051307
 30
0.0
 10
55.386895
 20
172.097058
 30
0.0
 10
55.265052
 20
172.269538
 30
0.0
 10
55.177464
 20
172.551986
 30
0.0
 10
55.139274
 20
172.871921
 30
0.0
 10
55.165605
 20
173.156856
 30
0.0
 10
55.246239
 20
173.465040
 30
0.0
 10
56.373832
 20
173.409504
 30
0.0
 10
57.264915
 20
173.392853
 30
0.0
 10
57.480719
 20
173.419805
 30
0.0
 10
57.574290
 20
173.471864
 30
0.0
 10
57.607832
 20
173.729843
 30
0.0
 10
57.614238
 20
174.200827
 30
0.0
 10
57.596289
 20
174.663440
 30
0.0
 10
57.556676
 20
174.896318
 30
0.0
 10
55.459793
 20
174.989878
 30
0.0
 10
53.388246
 20
175.060817
 30
0.0
 10
53.405489
 20
172.397966
 30
0.0
 10
53.469108
 20
169.083410
 30
0.0
 10
53.515485
 20
168.431702
 30
0.0
 10
53.917991
 20
168.394997
 30
0.0
 10
54.780061
 20
168.341290
 30
0.0
 10
55.239629
 20
168.324300
 30
0.0
 10
55.266553
 20
169.759451
 30
0.0
 10
55.266561
 20
169.759442
 30
0.0
  0
LWPOLYLINE
  5
10b
100
AcDbEntity
  8
Layer_1
 62
7
100
AcDbPolyline
 90
27
 70
0
 10
18.174152
 20
169.684332
 30
0.0
 10
18.148295
 20
171.828845
 30
0.0
 10
18.110856
 20
172.288771
 30
0.0
 10
18.052528
 20
172.443683
 30
0.0
 10
17.979555
 20
172.484481
 30
0.0
 10
18.052528
 20
172.500455
 30
0.0
 10
18.108671
 20
172.553298
 30
0.0
 10
18.146352
 20
172.713265
 30
0.0
 10
18.174151
 20
173.413243
 30
0.0
 10
18.174151
 20
174.318347
 30
0.0
 10
18.664118
 20
174.956437
 30
0.0
 10
19.154085
 20
175.594525
 30
0.0
 10
20.327973
 20
175.663187
 30
0.0
 10
21.175594
 20
175.693125
 30
0.0
 10
21.565053
 20
175.668684
 30
0.0
 10
21.609682
 20
174.533206
 30
0.0
 10
21.628243
 20
171.891939
 30
0.0
 10
21.628243
 20
168.178368
 30
0.0
 10
21.384997
 20
167.934957
 30
0.0
 10
20.893680
 20
167.391200
 30
0.0
 10
20.730834
 20
167.216860
 30
0.0
 10
20.521498
 20
167.121257
 30
0.0
 10
20.127304
 20
167.070945
 30
0.0
 10
19.409880
 20
167.032464
 30
0.0
 10
18.174151
 20
166.974075
 30
0.0
 10
18.174151
 20
169.684354
 30
0.0
 10
18.174151
 20
169.684340
 30
0.0
  0
LWPOLYLINE
  5
10c
100
AcDbEntity
  8
Layer_1
 62
7
100
AcDbPolyline
 90
15
 70
0
 10
21.287699
 20
171.917785
 30
0.0
 10
21.286768
 20
174.055367
 30
0.0
 10
21.260944
 20
174.669733
 30
0.0
 10
21.196301
 20
175.049647
 30
0.0
 10
21.076400
 20
175.246474
 30
0.0
 10
20.884805
 20
175.311586
 30
0.0
 10
20.220780
 20
175.252144
 30
0.0
 10
19.494403
 20
175.183838
 30
0.0
 10
19.496887
 20
174.454099
 30
0.0
 10
19.517851
 20
171.170280
 30
0.0
 10
19.536330
 20
168.616197
 30
0.0
 10
20.412016
 20
168.616197
 30
0.0
 10
21.287701
 20
168.616197
 30
0.0
 10
21.287701
 20
171.917785
 30
0.0
 10
21.287700
 20
171.917785
 30
0.0
  0
LWPOLYLINE
  5
10d
100
AcDbEntity
  8
Layer_1
 62
7
100
AcDbPolyline
 90
50
 70
0
 10
47.144748
 20
167.036274
 30
0.0
 10
46.098790
 20
167.066004
 30
0.0
 10
46.091029
 20
169.470847
 30
0.0
 10
46.092440
 20
173.120184
 30
0.0
 10
46.101640
 20
174.364677
 30
0.0
 10
46.606996
 20
175.007726
 30
0.0
 10
47.112349
 20
175.650777
 30
0.0
 10
49.305269
 20
175.583405
 30
0.0
 10
51.711146
 20
175.462583
 30
0.0
 10
51.828942
 20
175.408823
 30
0.0
 10
51.896670
 20
175.271347
 30
0.0
 10
51.954692
 20
174.439581
 30
0.0
 10
51.936630
 20
173.341028
 30
0.0
 10
51.739520
 20
173.061137
 30
0.0
 10
51.374421
 20
172.650927
 30
0.0
 10
51.001791
 20
172.280243
 30
0.0
 10
50.782096
 20
172.118938
 30
0.0
 10
50.736189
 20
172.084107
 30
0.0
 10
50.701442
 20
171.984386
 30
0.0
 10
50.671749
 20
171.618911
 30
0.0
 10
50.658457
 20
171.328496
 30
0.0
 10
50.591728
 20
171.102512
 30
0.0
 10
50.431220
 20
170.857340
 30
0.0
 10
50.136597
 20
170.509352
 30
0.0
 10
49.601456
 20
169.899817
 30
0.0
 10
49.601456
 20
169.075324
 30
0.0
 10
49.569310
 20
168.407095
 30
0.0
 10
49.524544
 20
168.229837
 30
0.0
 10
49.456580
 20
168.130594
 30
0.0
 10
49.369923
 20
168.020332
 30
0.0
 10
49.365013
 20
167.924083
 30
0.0
 10
49.370713
 20
167.863152
 30
0.0
 10
49.309547
 20
167.837808
 30
0.0
 10
49.253278
 20
167.802081
 30
0.0
 10
49.270748
 20
167.716184
 30
0.0
 10
49.296797
 20
167.651476
 30
0.0
 10
49.261129
 20
167.666688
 30
0.0
 10
49.161087
 20
167.687911
 30
0.0
 10
49.053047
 20
167.628918
 30
0.0
 10
48.980042
 20
167.527778
 30
0.0
 10
48.985122
 20
167.422558
 30
0.0
 10
48.998810
 20
167.369678
 30
0.0
 10
48.942052
 20
167.386554
 30
0.0
 10
48.829736
 20
167.379132
 30
0.0
 10
48.708098
 20
167.269590
 30
0.0
 10
48.563962
 20
167.125544
 30
0.0
 10
48.321933
 20
167.048576
 30
0.0
 10
47.882130
 20
167.023769
 30
0.0
 10
47.144666
 20
167.036243
 30
0.0
 10
47.144725
 20
167.036243
 30
0.0
  0
LWPOLYLINE
  5
10e
100
AcDbEntity
  8
Layer_1
 62
7
100
AcDbPolyline
 90
27
 70
0
 10
49.212316
 20
169.978342
 30
0.0
 10
49.212316
 20
171.437818
 30
0.0
 10
49.747458
 20
171.437818
 30
0.0
 10
50.282599
 20
171.437818
 30
0.0
 10
50.282599
 20
171.813458
 30
0.0
 10
50.282599
 20
172.189099
 30
0.0
 10
49.782910
 20
172.248281
 30
0.0
 10
49.239935
 20
172.350750
 30
0.0
 10
49.189815
 20
173.010535
 30
0.0
 10
49.182985
 20
173.627032
 30
0.0
 10
50.365231
 20
173.592771
 30
0.0
 10
51.547479
 20
173.558512
 30
0.0
 10
51.547479
 20
174.330618
 30
0.0
 10
51.519108
 20
174.924205
 30
0.0
 10
51.481355
 20
175.063007
 30
0.0
 10
51.425856
 20
175.109520
 30
0.0
 10
49.388228
 20
175.189468
 30
0.0
 10
47.472224
 20
175.262620
 30
0.0
 10
47.415049
 20
175.028616
 30
0.0
 10
47.382664
 20
173.964316
 30
0.0
 10
47.385204
 20
171.734069
 30
0.0
 10
47.412410
 20
168.673524
 30
0.0
 10
47.655655
 20
168.605893
 30
0.0
 10
48.555667
 20
168.528564
 30
0.0
 10
49.212429
 20
168.518855
 30
0.0
 10
49.212429
 20
169.978331
 30
0.0
 10
49.212435
 20
169.978342
 30
0.0
  0
LWPOLYLINE
  5
10f
100
AcDbEntity
  8
Layer_1
 62
7
100
AcDbPolyline
 90
39
 70
0
 10
39.604219
 20
167.128462
 30
0.0
 10
39.545429
 20
167.320091
 30
0.0
 10
39.508040
 20
167.917691
 30
0.0
 10
39.482584
 20
170.777260
 30
0.0
 10
39.482584
 20
174.381616
 30
0.0
 10
39.973111
 20
175.043300
 30
0.0
 10
40.463636
 20
175.704984
 30
0.0
 10
40.970420
 20
175.677298
 30
0.0
 10
42.182612
 20
175.635631
 30
0.0
 10
42.888027
 20
175.621632
 30
0.0
 10
42.889438
 20
175.305411
 30
0.0
 10
42.911028
 20
175.095818
 30
0.0
 10
42.938234
 20
175.082046
 30
0.0
 10
42.977728
 20
175.126313
 30
0.0
 10
43.022531
 20
175.266165
 30
0.0
 10
43.008363
 20
175.409844
 30
0.0
 10
42.995720
 20
175.499560
 30
0.0
 10
43.059288
 20
175.490049
 30
0.0
 10
43.152887
 20
175.472354
 30
0.0
 10
43.227512
 20
175.522747
 30
0.0
 10
43.608729
 20
175.594093
 30
0.0
 10
44.499115
 20
175.621638
 30
0.0
 10
45.709603
 20
175.621638
 30
0.0
 10
45.709603
 20
175.043590
 30
0.0
 10
45.738649
 20
174.617393
 30
0.0
 10
45.808488
 20
174.404428
 30
0.0
 10
45.860227
 20
174.331978
 30
0.0
 10
45.845749
 20
174.243615
 30
0.0
 10
45.807006
 20
173.315126
 30
0.0
 10
45.800374
 20
171.222801
 30
0.0
 10
45.787053
 20
168.746149
 30
0.0
 10
45.739185
 20
168.303201
 30
0.0
 10
45.650734
 20
168.118376
 30
0.0
 10
45.531893
 20
167.935065
 30
0.0
 10
45.155536
 20
167.493175
 30
0.0
 10
44.732129
 20
167.051283
 30
0.0
 10
42.228939
 20
167.067652
 30
0.0
 10
39.604114
 20
167.128457
 30
0.0
 10
39.604202
 20
167.128468
 30
0.0
  0
LWPOLYLINE
  5
110
100
AcDbEntity
  8
Layer_1
 62
7
100
AcDbPolyline
 90
27
 70
0
 10
45.394750
 20
171.899990
 30
0.0
 10
45.369124
 20
175.183813
 30
0.0
 10
44.517764
 20
175.211922
 30
0.0
 10
43.779812
 20
175.205854
 30
0.0
 10
43.675122
 20
175.142698
 30
0.0
 10
43.647605
 20
175.017313
 30
0.0
 10
43.623278
 20
172.508092
 30
0.0
 10
43.617746
 20
170.221578
 30
0.0
 10
43.082605
 20
170.221578
 30
0.0
 10
42.547464
 20
170.221578
 30
0.0
 10
42.521527
 20
172.718102
 30
0.0
 10
42.495591
 20
175.214626
 30
0.0
 10
41.937748
 20
175.248379
 30
0.0
 10
41.063689
 20
175.246686
 30
0.0
 10
40.747467
 20
175.211197
 30
0.0
 10
40.747467
 20
171.956601
 30
0.0
 10
40.772077
 20
169.540153
 30
0.0
 10
40.802517
 20
168.942922
 30
0.0
 10
40.844772
 20
168.762142
 30
0.0
 10
40.913490
 20
168.774334
 30
0.0
 10
40.942071
 20
168.719225
 30
0.0
 10
41.079442
 20
168.673790
 30
0.0
 10
41.494989
 20
168.641628
 30
0.0
 10
43.181227
 20
168.616171
 30
0.0
 10
45.420384
 20
168.616171
 30
0.0
 10
45.394758
 20
171.899993
 30
0.0
 10
45.394747
 20
171.899957
 30
0.0
  0
LWPOLYLINE
  5
111
100
AcDbEntity
  8
Layer_1
 62
7
100
AcDbPolyline
 90
45
 70
0
 10
21.902465
 20
167.931362
 30
0.0
 10
21.919703
 20
168.507902
 30
0.0
 10
21.868238
 20
168.764143
 30
0.0
 10
21.804721
 20
168.867781
 30
0.0
 10
21.783967
 20
169.035398
 30
0.0
 10
21.802873
 20
169.177856
 30
0.0
 10
21.862781
 20
169.005330
 30
0.0
 10
21.876545
 20
169.013853
 30
0.0
 10
21.889155
 20
169.132756
 30
0.0
 10
21.909875
 20
169.659552
 30
0.0
 10
21.926052
 20
171.574063
 30
0.0
 10
21.920213
 20
174.386052
 30
0.0
 10
22.438038
 20
175.052480
 30
0.0
 10
22.955862
 20
175.718912
 30
0.0
 10
25.527262
 20
175.718912
 30
0.0
 10
28.171635
 20
175.719194
 30
0.0
 10
28.231340
 20
175.413835
 30
0.0
 10
28.272411
 20
174.679131
 30
0.0
 10
28.300216
 20
173.638646
 30
0.0
 10
27.956192
 20
173.139141
 30
0.0
 10
27.612168
 20
172.573813
 30
0.0
 10
27.713499
 20
172.527303
 30
0.0
 10
27.957122
 20
172.507971
 30
0.0
 10
28.302075
 20
172.507971
 30
0.0
 10
28.287851
 20
170.273377
 30
0.0
 10
28.256204
 20
168.701383
 30
0.0
 10
28.200088
 20
168.059841
 30
0.0
 10
28.044049
 20
167.956138
 30
0.0
 10
27.780513
 20
167.696477
 30
0.0
 10
27.531699
 20
167.410919
 30
0.0
 10
27.419828
 20
167.229532
 30
0.0
 10
27.030698
 20
167.177995
 30
0.0
 10
26.098300
 20
167.156574
 30
0.0
 10
25.172156
 20
167.181523
 30
0.0
 10
24.911925
 20
167.209124
 30
0.0
 10
24.832863
 20
167.243674
 30
0.0
 10
24.832411
 20
167.342649
 30
0.0
 10
24.711154
 20
167.388925
 30
0.0
 10
24.518201
 20
167.377100
 30
0.0
 10
24.302678
 20
167.301814
 30
0.0
 10
23.833403
 20
167.190396
 30
0.0
 10
22.932243
 20
167.156557
 30
0.0
 10
21.842708
 20
167.156557
 30
0.0
 10
21.902449
 20
167.931257
 30
0.0
 10
21.902450
 20
167.931362
 30
0.0
  0
LWPOLYLINE
  5
112
100
AcDbEntity
  8
Layer_1
 62
7
100
AcDbPolyline
 90
42
 70
0
 10
25.508024
 20
168.940498
 30
0.0
 10
26.116139
 20
169.199925
 30
0.0
 10
26.152681
 20
168.953029
 30
0.0
 10
26.152681
 20
168.706132
 30
0.0
 10
27.052691
 20
168.734101
 30
0.0
 10
27.742998
 20
168.783659
 30
0.0
 10
27.897769
 20
168.826274
 30
0.0
 10
27.942971
 20
168.883698
 30
0.0
 10
27.918647
 20
170.565387
 30
0.0
 10
27.904053
 20
172.125452
 30
0.0
 10
26.858095
 20
172.097851
 30
0.0
 10
25.812137
 20
172.070250
 30
0.0
 10
25.782696
 20
171.718064
 30
0.0
 10
25.798215
 20
171.423041
 30
0.0
 10
25.856443
 20
171.353495
 30
0.0
 10
25.958611
 20
171.312181
 30
0.0
 10
26.065159
 20
171.268202
 30
0.0
 10
26.123182
 20
171.186363
 30
0.0
 10
26.134002
 20
170.788678
 30
0.0
 10
26.104034
 20
170.318877
 30
0.0
 10
25.543390
 20
170.289662
 30
0.0
 10
24.982747
 20
170.260449
 30
0.0
 10
25.008249
 20
172.041034
 30
0.0
 10
25.033753
 20
173.821619
 30
0.0
 10
25.568894
 20
173.821619
 30
0.0
 10
26.104035
 20
173.821619
 30
0.0
 10
26.134709
 20
173.448778
 30
0.0
 10
26.188946
 20
173.174162
 30
0.0
 10
26.235392
 20
173.124225
 30
0.0
 10
26.297677
 20
173.126765
 30
0.0
 10
27.167013
 20
173.484363
 30
0.0
 10
27.904056
 20
173.791195
 30
0.0
 10
27.904056
 20
174.560502
 30
0.0
 10
27.904056
 20
175.329809
 30
0.0
 10
25.568894
 20
175.329809
 30
0.0
 10
23.233733
 20
175.329809
 30
0.0
 10
23.233733
 20
171.977805
 30
0.0
 10
23.233733
 20
168.625801
 30
0.0
 10
24.085094
 20
168.653487
 30
0.0
 10
24.879697
 20
168.728174
 30
0.0
 10
25.508027
 20
168.940591
 30
0.0
 10
25.508025
 20
168.940563
 30
0.0
  0
LWPOLYLINE
  5
113
100
AcDbEntity
  8
Layer_1
 62
7
100
AcDbPolyline
 90
8
 70
0
 10
45.911936
 20
168.381063
 30
0.0
 10
45.931438
 20
168.482068
 30
0.0
 10
45.970734
 20
168.439847
 30
0.0
 10
45.989559
 20
168.332388
 30
0.0
 10
45.963058
 20
168.253360
 30
0.0
 10
45.923798
 20
168.266625
 30
0.0
 10
45.911945
 20
168.381060
 30
0.0
 10
45.911939
 20
168.381060
 30
0.0
  0
SPLINE
  5
114
100
AcDbEntity
  8
Layer_1
 62
7
100
AcDbSpline
 70
8
 71
3
 72
8
 73
4
 74
0
 40
0
 40
0
 40
0
 40
0
 40
1
 40
1
 40
1
 40
1
 10
48.489771
 20
163.903128
 30
0.0
 10
48.715399
 20
163.903125
 30
0.0
 10
48.889581
 20
163.886957
 30
0.0
 10
49.012322
 20
163.854620
 30
0.0
  0
SPLINE
  5
115
100
AcDbEntity
  8
Layer_1
 62
7
100
AcDbSpline
 70
8
 71
3
 72
8
 73
4
 74
0
 40
0
 40
0
 40
0
 40
0
 40
1
 40
1
 40
1
 40
1
 10
49.012322
 20
163.854620
 30
0.0
 10
49.135055
 20
163.823016
 30
0.0
 10
49.249341
 20
163.764588
 30
0.0
 10
49.355177
 20
163.679334
 30
0.0
  0
SPLINE
  5
116
100
AcDbEntity
  8
Layer_1
 62
7
100
AcDbSpline
 70
8
 71
3
 72
8
 73
4
 74
0
 40
0
 40
0
 40
0
 40
0
 40
1
 40
1
 40
1
 40
1
 10
49.355177
 20
163.679334
 30
0.0
 10
49.560226
 20
163.512498
 30
0.0
 10
49.642541
 20
163.328391
 30
0.0
 10
49.602122
 20
163.127017
 30
0.0
  0
SPLINE
  5
117
100
AcDbEntity
  8
Layer_1
 62
7
100
AcDbSpline
 70
8
 71
3
 72
8
 73
4
 74
0
 40
0
 40
0
 40
0
 40
0
 40
1
 40
1
 40
1
 40
1
 10
49.602122
 20
163.127017
 30
0.0
 10
49.559492
 20
162.911673
 30
0.0
 10
49.402212
 20
162.736387
 30
0.0
 10
49.130283
 20
162.601158
 30
0.0
  0
SPLINE
  5
118
100
AcDbEntity
  8
Layer_1
 62
7
100
AcDbSpline
 70
8
 71
3
 72
8
 73
4
 74
0
 40
0
 40
0
 40
0
 40
0
 40
1
 40
1
 40
1
 40
1
 10
49.130283
 20
162.601158
 30
0.0
 10
48.858348
 20
162.465925
 30
0.0
 10
48.527250
 20
162.398311
 30
0.0
 10
48.136993
 20
162.398311
 30
0.0
  0
LWPOLYLINE
  5
119
100
AcDbEntity
  8
Layer_1
 62
7
100
AcDbPolyline
 90
2
 70
0
 10
46.512008
 20
163.903128
 30
0.0
 10
48.489771
 20
163.903128
 30
0.0
  0
LWPOLYLINE
  5
11a
100
AcDbEntity
  8
Layer_1
 62
7
100
AcDbPolyline
 90
5
 70
0
 10
48.136993
 20
162.398311
 30
0.0
 10
46.211047
 20
162.398311
 30
0.0
 10
46.832816
 20
162.746677
 30
0.0
 10
46.993770
 20
163.552554
 30
0.0
 10
46.512008
 20
163.903128
 30
0.0
  0
SPLINE
  5
11b
100
AcDbEntity
  8
Layer_1
 62
7
100
AcDbSpline
 70
8
 71
3
 72
8
 73
4
 74
0
 40
0
 40
0
 40
0
 40
0
 40
1
 40
1
 40
1
 40
1
 10
47.969424
 20
162.695965
 30
0.0
 10
48.229593
 20
162.695965
 30
0.0
 10
48.408189
 20
162.724260
 30
0.0
 10
48.505203
 20
162.780851
 30
0.0
  0
SPLINE
  5
11c
100
AcDbEntity
  8
Layer_1
 62
7
100
AcDbSpline
 70
8
 71
3
 72
8
 73
4
 74
0
 40
0
 40
0
 40
0
 40
0
 40
1
 40
1
 40
1
 40
1
 10
48.505203
 20
162.780851
 30
0.0
 10
48.602217
 20
162.838179
 30
0.0
 10
48.667994
 20
162.952832
 30
0.0
 10
48.702538
 20
163.124810
 30
0.0
  0
SPLINE
  5
11d
100
AcDbEntity
  8
Layer_1
 62
7
100
AcDbSpline
 70
8
 71
3
 72
8
 73
4
 74
0
 40
0
 40
0
 40
0
 40
0
 40
1
 40
1
 40
1
 40
1
 10
48.702538
 20
163.124810
 30
0.0
 10
48.770887
 20
163.465827
 30
0.0
 10
48.591927
 20
163.636338
 30
0.0
 10
48.165656
 20
163.636338
 30
0.0
  0
LWPOLYLINE
  5
11e
100
AcDbEntity
  8
Layer_1
 62
7
100
AcDbPolyline
 90
2
 70
0
 10
47.600108
 20
162.695965
 30
0.0
 10
47.969424
 20
162.695965
 30
0.0
  0
SPLINE
  5
11f
100
AcDbEntity
  8
Layer_1
 62
7
100
AcDbSpline
 70
8
 71
3
 72
8
 73
4
 74
0
 40
0
 40
0
 40
0
 40
0
 40
1
 40
1
 40
1
 40
1
 10
50.549110
 20
163.972580
 30
0.0
 10
50.635834
 20
163.972577
 30
0.0
 10
50.708227
 20
163.950905
 30
0.0
 10
50.766288
 20
163.907536
 30
0.0
  0
SPLINE
  5
120
100
AcDbEntity
  8
Layer_1
 62
7
100
AcDbSpline
 70
8
 71
3
 72
8
 73
4
 74
0
 40
0
 40
0
 40
0
 40
0
 40
1
 40
1
 40
1
 40
1
 10
50.766288
 20
163.907536
 30
0.0
 10
50.825084
 20
163.864173
 30
0.0
 10
50.848971
 20
163.814564
 30
0.0
 10
50.837947
 20
163.758709
 30
0.0
  0
SPLINE
  5
121
100
AcDbEntity
  8
Layer_1
 62
7
100
AcDbSpline
 70
8
 71
3
 72
8
 73
4
 74
0
 40
0
 40
0
 40
0
 40
0
 40
1
 40
1
 40
1
 40
1
 10
50.837947
 20
163.758709
 30
0.0
 10
50.826912
 20
163.703585
 30
0.0
 10
50.783191
 20
163.654343
 30
0.0
 10
50.706756
 20
163.610983
 30
0.0
  0
SPLINE
  5
122
100
AcDbEntity
  8
Layer_1
 62
7
100
AcDbSpline
 70
8
 71
3
 72
8
 73
4
 74
0
 40
0
 40
0
 40
0
 40
0
 40
1
 40
1
 40
1
 40
1
 10
50.706756
 20
163.610983
 30
0.0
 10
50.631056
 20
163.567619
 30
0.0
 10
50.549844
 20
163.545939
 30
0.0
 10
50.463120
 20
163.545939
 30
0.0
  0
SPLINE
  5
123
100
AcDbEntity
  8
Layer_1
 62
7
100
AcDbSpline
 70
8
 71
3
 72
8
 73
4
 74
0
 40
0
 40
0
 40
0
 40
0
 40
1
 40
1
 40
1
 40
1
 10
50.463120
 20
163.545939
 30
0.0
 10
50.376395
 20
163.545939
 30
0.0
 10
50.304003
 20
163.567247
 30
0.0
 10
50.245941
 20
163.609879
 30
0.0
  0
SPLINE
  5
124
100
AcDbEntity
  8
Layer_1
 62
7
100
AcDbSpline
 70
8
 71
3
 72
8
 73
4
 74
0
 40
0
 40
0
 40
0
 40
0
 40
1
 40
1
 40
1
 40
1
 10
50.245941
 20
163.609879
 30
0.0
 10
50.187879
 20
163.653243
 30
0.0
 10
50.164362
 20
163.702852
 30
0.0
 10
50.175385
 20
163.758709
 30
0.0
  0
SPLINE
  5
125
100
AcDbEntity
  8
Layer_1
 62
7
100
AcDbSpline
 70
8
 71
3
 72
8
 73
4
 74
0
 40
0
 40
0
 40
0
 40
0
 40
1
 40
1
 40
1
 40
1
 10
50.175385
 20
163.758709
 30
0.0
 10
50.186420
 20
163.815297
 30
0.0
 10
50.229773
 20
163.864907
 30
0.0
 10
50.305473
 20
163.907536
 30
0.0
  0
SPLINE
  5
126
100
AcDbEntity
  8
Layer_1
 62
7
100
AcDbSpline
 70
8
 71
3
 72
8
 73
4
 74
0
 40
0
 40
0
 40
0
 40
0
 40
1
 40
1
 40
1
 40
1
 10
50.305473
 20
163.907536
 30
0.0
 10
50.381173
 20
163.950897
 30
0.0
 10
50.462386
 20
163.972577
 30
0.0
 10
50.549110
 20
163.972580
 30
0.0
  0
LWPOLYLINE
  5
127
100
AcDbEntity
  8
Layer_1
 62
7
100
AcDbPolyline
 90
3
 70
0
 10
48.165656
 20
163.636338
 30
0.0
 10
47.788624
 20
163.636338
 30
0.0
 10
47.600108
 20
162.695965
 30
0.0
  0
LWPOLYLINE
  5
128
100
AcDbEntity
  8
Layer_1
 62
7
100
AcDbPolyline
 90
8
 70
0
 10
50.781723
 20
163.477588
 30
0.0
 10
50.620769
 20
162.673917
 30
0.0
 10
50.984570
 20
162.398311
 30
0.0
 10
49.511723
 20
162.398311
 30
0.0
 10
49.993485
 20
162.673917
 30
0.0
 10
50.093806
 20
163.175522
 30
0.0
 10
49.722286
 20
163.452233
 30
0.0
 10
50.781723
 20
163.477576
 30
0.0
  0
SPLINE
  5
129
100
AcDbEntity
  8
Layer_1
 62
7
100
AcDbSpline
 70
8
 71
3
 72
8
 73
4
 74
0
 40
0
 40
0
 40
0
 40
0
 40
1
 40
1
 40
1
 40
1
 10
52.838858
 20
163.076304
 30
0.0
 10
52.563985
 20
163.223294
 30
0.0
 10
52.269268
 20
163.296790
 30
0.0
 10
51.954709
 20
163.296790
 30
0.0
  0
SPLINE
  5
12a
100
AcDbEntity
  8
Layer_1
 62
7
100
AcDbSpline
 70
8
 71
3
 72
8
 73
4
 74
0
 40
0
 40
0
 40
0
 40
0
 40
1
 40
1
 40
1
 40
1
 10
51.954709
 20
163.296790
 30
0.0
 10
51.757007
 20
163.296790
 30
0.0
 10
51.653011
 20
163.271814
 30
0.0
 10
51.642721
 20
163.221824
 30
0.0
  0
SPLINE
  5
12b
100
AcDbEntity
  8
Layer_1
 62
7
100
AcDbSpline
 70
8
 71
3
 72
8
 73
4
 74
0
 40
0
 40
0
 40
0
 40
0
 40
1
 40
1
 40
1
 40
1
 10
51.642721
 20
163.221824
 30
0.0
 10
51.634649
 20
163.181401
 30
0.0
 10
51.671383
 20
163.161191
 30
0.0
 10
51.752965
 20
163.161191
 30
0.0
  0
LWPOLYLINE
  5
12c
100
AcDbEntity
  8
Layer_1
 62
7
100
AcDbPolyline
 90
2
 70
0
 10
52.919336
 20
163.477588
 30
0.0
 10
52.838858
 20
163.076304
 30
0.0
  0
SPLINE
  5
12d
100
AcDbEntity
  8
Layer_1
 62
7
100
AcDbSpline
 70
8
 71
3
 72
8
 73
4
 74
0
 40
0
 40
0
 40
0
 40
0
 40
1
 40
1
 40
1
 40
1
 10
52.063850
 20
163.149055
 30
0.0
 10
52.343865
 20
163.149055
 30
0.0
 10
52.560310
 20
163.109736
 30
0.0
 10
52.713181
 20
163.031095
 30
0.0
  0
SPLINE
  5
12e
100
AcDbEntity
  8
Layer_1
 62
7
100
AcDbSpline
 70
8
 71
3
 72
8
 73
4
 74
0
 40
0
 40
0
 40
0
 40
0
 40
1
 40
1
 40
1
 40
1
 10
52.713181
 20
163.031095
 30
0.0
 10
52.866784
 20
162.953190
 30
0.0
 10
52.930357
 20
162.849194
 30
0.0
 10
52.903901
 20
162.719107
 30
0.0
  0
SPLINE
  5
12f
100
AcDbEntity
  8
Layer_1
 62
7
100
AcDbSpline
 70
8
 71
3
 72
8
 73
4
 74
0
 40
0
 40
0
 40
0
 40
0
 40
1
 40
1
 40
1
 40
1
 10
52.903901
 20
162.719107
 30
0.0
 10
52.854659
 20
162.472162
 30
0.0
 10
52.605878
 20
162.348690
 30
0.0
 10
52.157556
 20
162.348690
 30
0.0
  0
SPLINE
  5
130
100
AcDbEntity
  8
Layer_1
 62
7
100
AcDbSpline
 70
8
 71
3
 72
8
 73
4
 74
0
 40
0
 40
0
 40
0
 40
0
 40
1
 40
1
 40
1
 40
1
 10
52.157556
 20
162.348690
 30
0.0
 10
51.912816
 20
162.348690
 30
0.0
 10
51.655949
 20
162.389113
 30
0.0
 10
51.386957
 20
162.469958
 30
0.0
  0
LWPOLYLINE
  5
131
100
AcDbEntity
  8
Layer_1
 62
7
100
AcDbPolyline
 90
2
 70
0
 10
51.752965
 20
163.161191
 30
0.0
 10
52.063850
 20
163.149055
 30
0.0
  0
SPLINE
  5
132
100
AcDbEntity
  8
Layer_1
 62
7
100
AcDbSpline
 70
8
 71
3
 72
8
 73
4
 74
0
 40
0
 40
0
 40
0
 40
0
 40
1
 40
1
 40
1
 40
1
 10
51.157651
 20
162.843683
 30
0.0
 10
51.281857
 20
162.756222
 30
0.0
 10
51.439507
 20
162.682728
 30
0.0
 10
51.630594
 20
162.623196
 30
0.0
  0
SPLINE
  5
133
100
AcDbEntity
  8
Layer_1
 62
7
100
AcDbSpline
 70
8
 71
3
 72
8
 73
4
 74
0
 40
0
 40
0
 40
0
 40
0
 40
1
 40
1
 40
1
 40
1
 10
51.630594
 20
162.623196
 30
0.0
 10
51.821681
 20
162.563665
 30
0.0
 10
51.997703
 20
162.533899
 30
0.0
 10
52.158660
 20
162.533899
 30
0.0
  0
LWPOLYLINE
  5
134
100
AcDbEntity
  8
Layer_1
 62
7
100
AcDbPolyline
 90
3
 70
0
 10
51.386957
 20
162.469958
 30
0.0
 10
51.057330
 20
162.343178
 30
0.0
 10
51.157651
 20
162.843683
 30
0.0
  0
SPLINE
  5
135
100
AcDbEntity
  8
Layer_1
 62
7
100
AcDbSpline
 70
8
 71
3
 72
8
 73
4
 74
0
 40
0
 40
0
 40
0
 40
0
 40
1
 40
1
 40
1
 40
1
 10
52.433163
 20
162.572456
 30
0.0
 10
52.442731
 20
162.578326
 30
0.0
 10
52.448601
 20
162.586059
 30
0.0
 10
52.450802
 20
162.595598
 30
0.0
  0
SPLINE
  5
136
100
AcDbEntity
  8
Layer_1
 62
7
100
AcDbSpline
 70
8
 71
3
 72
8
 73
4
 74
0
 40
0
 40
0
 40
0
 40
0
 40
1
 40
1
 40
1
 40
1
 10
52.450802
 20
162.595598
 30
0.0
 10
52.461103
 20
162.648515
 30
0.0
 10
52.400090
 20
162.674973
 30
0.0
 10
52.267798
 20
162.674973
 30
0.0
  0
SPLINE
  5
137
100
AcDbEntity
  8
Layer_1
 62
7
100
AcDbSpline
 70
8
 71
3
 72
8
 73
4
 74
0
 40
0
 40
0
 40
0
 40
0
 40
1
 40
1
 40
1
 40
1
 10
52.267798
 20
162.674973
 30
0.0
 10
51.474785
 20
162.674973
 30
0.0
 10
51.107676
 20
162.821596
 30
0.0
 10
51.166471
 20
163.114845
 30
0.0
  0
SPLINE
  5
138
100
AcDbEntity
  8
Layer_1
 62
7
100
AcDbSpline
 70
8
 71
3
 72
8
 73
4
 74
0
 40
0
 40
0
 40
0
 40
0
 40
1
 40
1
 40
1
 40
1
 10
51.166471
 20
163.114845
 30
0.0
 10
51.218654
 20
163.374280
 30
0.0
 10
51.482501
 20
163.504001
 30
0.0
 10
51.958017
 20
163.504001
 30
0.0
  0
SPLINE
  5
139
100
AcDbEntity
  8
Layer_1
 62
7
100
AcDbSpline
 70
8
 71
3
 72
8
 73
4
 74
0
 40
0
 40
0
 40
0
 40
0
 40
1
 40
1
 40
1
 40
1
 10
51.958017
 20
163.504001
 30
0.0
 10
52.182911
 20
163.504001
 30
0.0
 10
52.394211
 20
163.466886
 30
0.0
 10
52.591913
 20
163.392656
 30
0.0
  0
LWPOLYLINE
  5
13a
100
AcDbEntity
  8
Layer_1
 62
7
100
AcDbPolyline
 90
3
 70
0
 10
52.158660
 20
162.533899
 30
0.0
 10
52.251263
 20
162.532770
 30
0.0
 10
52.433163
 20
162.572456
 30
0.0
  0
LWPOLYLINE
  5
13b
100
AcDbEntity
  8
Layer_1
 62
7
100
AcDbPolyline
 90
2
 70
0
 10
52.591913
 20
163.392656
 30
0.0
 10
52.919336
 20
163.477542
 30
0.0
  0
SPLINE
  5
13c
100
AcDbEntity
  8
Layer_1
 62
7
100
AcDbSpline
 70
8
 71
3
 72
8
 73
4
 74
0
 40
0
 40
0
 40
0
 40
0
 40
1
 40
1
 40
1
 40
1
 10
53.897191
 20
162.802901
 30
0.0
 10
53.871481
 20
162.672080
 30
0.0
 10
53.901227
 20
162.606670
 30
0.0
 10
53.986489
 20
162.606670
 30
0.0
  0
SPLINE
  5
13d
100
AcDbEntity
  8
Layer_1
 62
7
100
AcDbSpline
 70
8
 71
3
 72
8
 73
4
 74
0
 40
0
 40
0
 40
0
 40
0
 40
1
 40
1
 40
1
 40
1
 10
53.986489
 20
162.606670
 30
0.0
 10
54.117310
 20
162.606670
 30
0.0
 10
54.195949
 20
162.672814
 30
0.0
 10
54.222410
 20
162.805106
 30
0.0
  0
SPLINE
  5
13e
100
AcDbEntity
  8
Layer_1
 62
7
100
AcDbSpline
 70
8
 71
3
 72
8
 73
4
 74
0
 40
0
 40
0
 40
0
 40
0
 40
1
 40
1
 40
1
 40
1
 10
54.222410
 20
162.805106
 30
0.0
 10
54.229748
 20
162.841854
 30
0.0
 10
54.230848
 20
162.882276
 30
0.0
 10
54.225712
 20
162.926374
 30
0.0
  0
SPLINE
  5
13f
100
AcDbEntity
  8
Layer_1
 62
7
100
AcDbSpline
 70
8
 71
3
 72
8
 73
4
 74
0
 40
0
 40
0
 40
0
 40
0
 40
1
 40
1
 40
1
 40
1
 10
54.225712
 20
162.926374
 30
0.0
 10
54.355799
 20
162.904332
 30
0.0
 10
54.407613
 20
162.828256
 30
0.0
 10
54.381157
 20
162.698172
 30
0.0
  0
SPLINE
  5
140
100
AcDbEntity
  8
Layer_1
 62
7
100
AcDbSpline
 70
8
 71
3
 72
8
 73
4
 74
0
 40
0
 40
0
 40
0
 40
0
 40
1
 40
1
 40
1
 40
1
 10
54.381157
 20
162.698172
 30
0.0
 10
54.334853
 20
162.463721
 30
0.0
 10
54.122819
 20
162.346495
 30
0.0
 10
53.745054
 20
162.346495
 30
0.0
  0
SPLINE
  5
141
100
AcDbEntity
  8
Layer_1
 62
7
100
AcDbSpline
 70
8
 71
3
 72
8
 73
4
 74
0
 40
0
 40
0
 40
0
 40
0
 40
1
 40
1
 40
1
 40
1
 10
53.745054
 20
162.346495
 30
0.0
 10
53.589241
 20
162.346495
 30
0.0
 10
53.462095
 20
162.378465
 30
0.0
 10
53.363613
 20
162.442408
 30
0.0
  0
SPLINE
  5
142
100
AcDbEntity
  8
Layer_1
 62
7
100
AcDbSpline
 70
8
 71
3
 72
8
 73
4
 74
0
 40
0
 40
0
 40
0
 40
0
 40
1
 40
1
 40
1
 40
1
 10
53.363613
 20
162.442408
 30
0.0
 10
53.265863
 20
162.506348
 30
0.0
 10
53.226177
 20
162.583149
 30
0.0
 10
53.244549
 20
162.672814
 30
0.0
  0
LWPOLYLINE
  5
143
100
AcDbEntity
  8
Layer_1
 62
7
100
AcDbPolyline
 90
6
 70
0
 10
54.123189
 20
163.928483
 30
0.0
 10
54.032790
 20
163.477588
 30
0.0
 10
54.472659
 20
163.477588
 30
0.0
 10
54.274223
 20
163.259308
 30
0.0
 10
53.988693
 20
163.259308
 30
0.0
 10
53.897191
 20
162.802901
 30
0.0
  0
SPLINE
  5
144
100
AcDbEntity
  8
Layer_1
 62
7
100
AcDbSpline
 70
8
 71
3
 72
8
 73
4
 74
0
 40
0
 40
0
 40
0
 40
0
 40
1
 40
1
 40
1
 40
1
 10
53.041699
 20
163.357423
 30
0.0
 10
53.224703
 20
163.389760
 30
0.0
 10
53.416894
 20
163.461786
 30
0.0
 10
53.618271
 20
163.573501
 30
0.0
  0
SPLINE
  5
145
100
AcDbEntity
  8
Layer_1
 62
7
100
AcDbSpline
 70
8
 71
3
 72
8
 73
4
 74
0
 40
0
 40
0
 40
0
 40
0
 40
1
 40
1
 40
1
 40
1
 10
53.618271
 20
163.573501
 30
0.0
 10
53.820381
 20
163.685213
 30
0.0
 10
53.971782
 20
163.803540
 30
0.0
 10
54.072474
 20
163.928483
 30
0.0
  0
LWPOLYLINE
  5
146
100
AcDbEntity
  8
Layer_1
 62
7
100
AcDbPolyline
 90
4
 70
0
 10
53.244549
 20
162.672814
 30
0.0
 10
53.361406
 20
163.259308
 30
0.0
 10
53.021859
 20
163.259308
 30
0.0
 10
53.041699
 20
163.357423
 30
0.0
  0
SPLINE
  5
147
100
AcDbEntity
  8
Layer_1
 62
7
100
AcDbSpline
 70
8
 71
3
 72
8
 73
4
 74
0
 40
0
 40
0
 40
0
 40
0
 40
1
 40
1
 40
1
 40
1
 10
55.713997
 20
163.510661
 30
0.0
 10
55.982254
 20
163.510661
 30
0.0
 10
56.206782
 20
163.448925
 30
0.0
 10
56.387582
 20
163.325453
 30
0.0
  0
SPLINE
  5
148
100
AcDbEntity
  8
Layer_1
 62
7
100
AcDbSpline
 70
8
 71
3
 72
8
 73
4
 74
0
 40
0
 40
0
 40
0
 40
0
 40
1
 40
1
 40
1
 40
1
 10
56.387582
 20
163.325453
 30
0.0
 10
56.569113
 20
163.202714
 30
0.0
 10
56.643713
 20
163.060870
 30
0.0
 10
56.611376
 20
162.899915
 30
0.0
  0
SPLINE
  5
149
100
AcDbEntity
  8
Layer_1
 62
7
100
AcDbSpline
 70
8
 71
3
 72
8
 73
4
 74
0
 40
0
 40
0
 40
0
 40
0
 40
1
 40
1
 40
1
 40
1
 10
56.611376
 20
162.899915
 30
0.0
 10
56.580506
 20
162.746310
 30
0.0
 10
56.451889
 20
162.614752
 30
0.0
 10
56.225524
 20
162.505245
 30
0.0
  0
SPLINE
  5
14a
100
AcDbEntity
  8
Layer_1
 62
7
100
AcDbSpline
 70
8
 71
3
 72
8
 73
4
 74
0
 40
0
 40
0
 40
0
 40
0
 40
1
 40
1
 40
1
 40
1
 10
56.225524
 20
162.505245
 30
0.0
 10
55.999893
 20
162.395737
 30
0.0
 10
55.743393
 20
162.340983
 30
0.0
 10
55.456029
 20
162.340983
 30
0.0
  0
SPLINE
  5
14b
100
AcDbEntity
  8
Layer_1
 62
7
100
AcDbSpline
 70
8
 71
3
 72
8
 73
4
 74
0
 40
0
 40
0
 40
0
 40
0
 40
1
 40
1
 40
1
 40
1
 10
55.456029
 20
162.340983
 30
0.0
 10
55.167191
 20
162.340983
 30
0.0
 10
54.931640
 20
162.397941
 30
0.0
 10
54.749370
 20
162.511860
 30
0.0
  0
SPLINE
  5
14c
100
AcDbEntity
  8
Layer_1
 62
7
100
AcDbSpline
 70
8
 71
3
 72
8
 73
4
 74
0
 40
0
 40
0
 40
0
 40
0
 40
1
 40
1
 40
1
 40
1
 10
54.749370
 20
162.511860
 30
0.0
 10
54.567102
 20
162.626513
 30
0.0
 10
54.492135
 20
162.764683
 30
0.0
 10
54.524475
 20
162.926374
 30
0.0
  0
SPLINE
  5
14d
100
AcDbEntity
  8
Layer_1
 62
7
100
AcDbSpline
 70
8
 71
3
 72
8
 73
4
 74
0
 40
0
 40
0
 40
0
 40
0
 40
1
 40
1
 40
1
 40
1
 10
54.524475
 20
162.926374
 30
0.0
 10
54.556812
 20
163.087328
 30
0.0
 10
54.689104
 20
163.224764
 30
0.0
 10
54.921350
 20
163.338683
 30
0.0
  0
SPLINE
  5
14e
100
AcDbEntity
  8
Layer_1
 62
7
100
AcDbSpline
 70
8
 71
3
 72
8
 73
4
 74
0
 40
0
 40
0
 40
0
 40
0
 40
1
 40
1
 40
1
 40
1
 10
54.921350
 20
163.338683
 30
0.0
 10
55.154330
 20
163.453333
 30
0.0
 10
55.418544
 20
163.510661
 30
0.0
 10
55.713997
 20
163.510661
 30
0.0
  0
SPLINE
  5
14f
100
AcDbEntity
  8
Layer_1
 62
7
100
AcDbSpline
 70
8
 71
3
 72
8
 73
4
 74
0
 40
0
 40
0
 40
0
 40
0
 40
1
 40
1
 40
1
 40
1
 10
55.636826
 20
163.289074
 30
0.0
 10
55.398701
 20
163.289072
 30
0.0
 10
55.254652
 20
163.164866
 30
0.0
 10
55.204673
 20
162.916451
 30
0.0
  0
SPLINE
  5
150
100
AcDbEntity
  8
Layer_1
 62
7
100
AcDbSpline
 70
8
 71
3
 72
8
 73
4
 74
0
 40
0
 40
0
 40
0
 40
0
 40
1
 40
1
 40
1
 40
1
 10
55.204673
 20
162.916451
 30
0.0
 10
55.157638
 20
162.680530
 30
0.0
 10
55.256119
 20
162.562572
 30
0.0
 10
55.500126
 20
162.562572
 30
0.0
  0
SPLINE
  5
151
100
AcDbEntity
  8
Layer_1
 62
7
100
AcDbSpline
 70
8
 71
3
 72
8
 73
4
 74
0
 40
0
 40
0
 40
0
 40
0
 40
1
 40
1
 40
1
 40
1
 10
55.500126
 20
162.562572
 30
0.0
 10
55.736780
 20
162.562572
 30
0.0
 10
55.878625
 20
162.680163
 30
0.0
 10
55.925663
 20
162.915350
 30
0.0
  0
SPLINE
  5
152
100
AcDbEntity
  8
Layer_1
 62
7
100
AcDbSpline
 70
8
 71
3
 72
8
 73
4
 74
0
 40
0
 40
0
 40
0
 40
0
 40
1
 40
1
 40
1
 40
1
 10
55.925663
 20
162.915350
 30
0.0
 10
55.975639
 20
163.164499
 30
0.0
 10
55.879359
 20
163.289072
 30
0.0
 10
55.636826
 20
163.289074
 30
0.0
  0
LWPOLYLINE
  5
153
100
AcDbEntity
  8
Layer_1
 62
7
100
AcDbPolyline
 90
2
 70
0
 10
54.072474
 20
163.928483
 30
0.0
 10
54.123183
 20
163.928483
 30
0.0
  0
SPLINE
  5
154
100
AcDbEntity
  8
Layer_1
 62
7
100
AcDbSpline
 70
8
 71
3
 72
8
 73
4
 74
0
 40
0
 40
0
 40
0
 40
0
 40
1
 40
1
 40
1
 40
1
 10
57.717114
 20
163.151257
 30
0.0
 10
57.892032
 20
163.368068
 30
0.0
 10
58.090835
 20
163.476473
 30
0.0
 10
58.313529
 20
163.476476
 30
0.0
  0
SPLINE
  5
155
100
AcDbEntity
  8
Layer_1
 62
7
100
AcDbSpline
 70
8
 71
3
 72
8
 73
4
 74
0
 40
0
 40
0
 40
0
 40
0
 40
1
 40
1
 40
1
 40
1
 10
58.313529
 20
163.476476
 30
0.0
 10
58.463456
 20
163.476473
 30
0.0
 10
58.579946
 20
163.447077
 30
0.0
 10
58.662999
 20
163.388281
 30
0.0
  0
SPLINE
  5
156
100
AcDbEntity
  8
Layer_1
 62
7
100
AcDbSpline
 70
8
 71
3
 72
8
 73
4
 74
0
 40
0
 40
0
 40
0
 40
0
 40
1
 40
1
 40
1
 40
1
 10
58.662999
 20
163.388281
 30
0.0
 10
58.746782
 20
163.330220
 30
0.0
 10
58.779486
 20
163.255253
 30
0.0
 10
58.761116
 20
163.163384
 30
0.0
  0
SPLINE
  5
157
100
AcDbEntity
  8
Layer_1
 62
7
100
AcDbSpline
 70
8
 71
3
 72
8
 73
4
 74
0
 40
0
 40
0
 40
0
 40
0
 40
1
 40
1
 40
1
 40
1
 10
58.761116
 20
163.163384
 30
0.0
 10
58.728040
 20
162.998019
 30
0.0
 10
58.592440
 20
162.915336
 30
0.0
 10
58.354318
 20
162.915339
 30
0.0
  0
SPLINE
  5
158
100
AcDbEntity
  8
Layer_1
 62
7
100
AcDbSpline
 70
8
 71
3
 72
8
 73
4
 74
0
 40
0
 40
0
 40
0
 40
0
 40
1
 40
1
 40
1
 40
1
 10
58.354318
 20
162.915339
 30
0.0
 10
58.291845
 20
162.915336
 30
0.0
 10
58.212837
 20
162.923777
 30
0.0
 10
58.117297
 20
162.940682
 30
0.0
  0
SPLINE
  5
159
100
AcDbEntity
  8
Layer_1
 62
7
100
AcDbSpline
 70
8
 71
3
 72
8
 73
4
 74
0
 40
0
 40
0
 40
0
 40
0
 40
1
 40
1
 40
1
 40
1
 10
58.117297
 20
162.940682
 30
0.0
 10
58.170210
 20
163.000948
 30
0.0
 10
58.200343
 20
163.050557
 30
0.0
 10
58.207695
 20
163.089509
 30
0.0
  0
SPLINE
  5
15a
100
AcDbEntity
  8
Layer_1
 62
7
100
AcDbSpline
 70
8
 71
3
 72
8
 73
4
 74
0
 40
0
 40
0
 40
0
 40
0
 40
1
 40
1
 40
1
 40
1
 10
58.207695
 20
163.089509
 30
0.0
 10
58.226802
 20
163.182115
 30
0.0
 10
58.184553
 20
163.228416
 30
0.0
 10
58.080915
 20
163.228416
 30
0.0
  0
SPLINE
  5
15b
100
AcDbEntity
  8
Layer_1
 62
7
100
AcDbSpline
 70
8
 71
3
 72
8
 73
4
 74
0
 40
0
 40
0
 40
0
 40
0
 40
1
 40
1
 40
1
 40
1
 10
58.080915
 20
163.228416
 30
0.0
 10
57.989780
 20
163.228416
 30
0.0
 10
57.905627
 20
163.191301
 30
0.0
 10
57.828459
 20
163.117071
 30
0.0
  0
SPLINE
  5
15c
100
AcDbEntity
  8
Layer_1
 62
7
100
AcDbSpline
 70
8
 71
3
 72
8
 73
4
 74
0
 40
0
 40
0
 40
0
 40
0
 40
1
 40
1
 40
1
 40
1
 10
57.828459
 20
163.117071
 30
0.0
 10
57.751288
 20
163.043575
 30
0.0
 10
57.702046
 20
162.952809
 30
0.0
 10
57.680733
 20
162.844772
 30
0.0
  0
LWPOLYLINE
  5
15d
100
AcDbEntity
  8
Layer_1
 62
7
100
AcDbPolyline
 90
3
 70
0
 10
56.748076
 20
163.452233
 30
0.0
 10
57.782158
 20
163.476476
 30
0.0
 10
57.717114
 20
163.151257
 30
0.0
  0
LWPOLYLINE
  5
15e
100
AcDbEntity
  8
Layer_1
 62
7
100
AcDbPolyline
 90
7
 70
0
 10
57.680733
 20
162.844772
 30
0.0
 10
57.646558
 20
162.673895
 30
0.0
 10
58.093042
 20
162.398288
 30
0.0
 10
56.535308
 20
162.398288
 30
0.0
 10
57.019274
 20
162.673895
 30
0.0
 10
57.119596
 20
163.175500
 30
0.0
 10
56.748076
 20
163.452210
 30
0.0
  0
SPLINE
  5
15f
100
AcDbEntity
  8
Layer_1
 62
7
100
AcDbSpline
 70
8
 71
3
 72
8
 73
4
 74
0
 40
0
 40
0
 40
0
 40
0
 40
1
 40
1
 40
1
 40
1
 10
59.568094
 20
162.802901
 30
0.0
 10
59.542383
 20
162.672080
 30
0.0
 10
59.572130
 20
162.606670
 30
0.0
 10
59.657392
 20
162.606670
 30
0.0
  0
SPLINE
  5
160
100
AcDbEntity
  8
Layer_1
 62
7
100
AcDbSpline
 70
8
 71
3
 72
8
 73
4
 74
0
 40
0
 40
0
 40
0
 40
0
 40
1
 40
1
 40
1
 40
1
 10
59.657392
 20
162.606670
 30
0.0
 10
59.788213
 20
162.606670
 30
0.0
 10
59.866851
 20
162.672814
 30
0.0
 10
59.893313
 20
162.805106
 30
0.0
  0
SPLINE
  5
161
100
AcDbEntity
  8
Layer_1
 62
7
100
AcDbSpline
 70
8
 71
3
 72
8
 73
4
 74
0
 40
0
 40
0
 40
0
 40
0
 40
1
 40
1
 40
1
 40
1
 10
59.893313
 20
162.805106
 30
0.0
 10
59.900650
 20
162.841854
 30
0.0
 10
59.901751
 20
162.882276
 30
0.0
 10
59.896615
 20
162.926374
 30
0.0
  0
SPLINE
  5
162
100
AcDbEntity
  8
Layer_1
 62
7
100
AcDbSpline
 70
8
 71
3
 72
8
 73
4
 74
0
 40
0
 40
0
 40
0
 40
0
 40
1
 40
1
 40
1
 40
1
 10
59.896615
 20
162.926374
 30
0.0
 10
60.026702
 20
162.904332
 30
0.0
 10
60.078515
 20
162.828256
 30
0.0
 10
60.052060
 20
162.698172
 30
0.0
  0
SPLINE
  5
163
100
AcDbEntity
  8
Layer_1
 62
7
100
AcDbSpline
 70
8
 71
3
 72
8
 73
4
 74
0
 40
0
 40
0
 40
0
 40
0
 40
1
 40
1
 40
1
 40
1
 10
60.052060
 20
162.698172
 30
0.0
 10
60.005756
 20
162.463721
 30
0.0
 10
59.793722
 20
162.346495
 30
0.0
 10
59.415956
 20
162.346495
 30
0.0
  0
SPLINE
  5
164
100
AcDbEntity
  8
Layer_1
 62
7
100
AcDbSpline
 70
8
 71
3
 72
8
 73
4
 74
0
 40
0
 40
0
 40
0
 40
0
 40
1
 40
1
 40
1
 40
1
 10
59.415956
 20
162.346495
 30
0.0
 10
59.260144
 20
162.346495
 30
0.0
 10
59.132997
 20
162.378465
 30
0.0
 10
59.034516
 20
162.442408
 30
0.0
  0
SPLINE
  5
165
100
AcDbEntity
  8
Layer_1
 62
7
100
AcDbSpline
 70
8
 71
3
 72
8
 73
4
 74
0
 40
0
 40
0
 40
0
 40
0
 40
1
 40
1
 40
1
 40
1
 10
59.034516
 20
162.442408
 30
0.0
 10
58.936766
 20
162.506348
 30
0.0
 10
58.897079
 20
162.583149
 30
0.0
 10
58.915452
 20
162.672814
 30
0.0
  0
LWPOLYLINE
  5
166
100
AcDbEntity
  8
Layer_1
 62
7
100
AcDbPolyline
 90
6
 70
0
 10
59.794092
 20
163.928483
 30
0.0
 10
59.703693
 20
163.477588
 30
0.0
 10
60.143562
 20
163.477588
 30
0.0
 10
59.945126
 20
163.259308
 30
0.0
 10
59.659596
 20
163.259308
 30
0.0
 10
59.568094
 20
162.802901
 30
0.0
  0
SPLINE
  5
167
100
AcDbEntity
  8
Layer_1
 62
7
100
AcDbSpline
 70
8
 71
3
 72
8
 73
4
 74
0
 40
0
 40
0
 40
0
 40
0
 40
1
 40
1
 40
1
 40
1
 10
58.712602
 20
163.357423
 30
0.0
 10
58.895606
 20
163.389760
 30
0.0
 10
59.087797
 20
163.461786
 30
0.0
 10
59.289174
 20
163.573501
 30
0.0
  0
SPLINE
  5
168
100
AcDbEntity
  8
Layer_1
 62
7
100
AcDbSpline
 70
8
 71
3
 72
8
 73
4
 74
0
 40
0
 40
0
 40
0
 40
0
 40
1
 40
1
 40
1
 40
1
 10
59.289174
 20
163.573501
 30
0.0
 10
59.491284
 20
163.685213
 30
0.0
 10
59.642685
 20
163.803540
 30
0.0
 10
59.743376
 20
163.928483
 30
0.0
  0
LWPOLYLINE
  5
169
100
AcDbEntity
  8
Layer_1
 62
7
100
AcDbPolyline
 90
4
 70
0
 10
58.915452
 20
162.672814
 30
0.0
 10
59.032309
 20
163.259308
 30
0.0
 10
58.692762
 20
163.259308
 30
0.0
 10
58.712602
 20
163.357423
 30
0.0
  0
SPLINE
  5
16a
100
AcDbEntity
  8
Layer_1
 62
7
100
AcDbSpline
 70
8
 71
3
 72
8
 73
4
 74
0
 40
0
 40
0
 40
0
 40
0
 40
1
 40
1
 40
1
 40
1
 10
61.044249
 20
163.972580
 30
0.0
 10
61.130973
 20
163.972577
 30
0.0
 10
61.203366
 20
163.950905
 30
0.0
 10
61.261427
 20
163.907536
 30
0.0
  0
SPLINE
  5
16b
100
AcDbEntity
  8
Layer_1
 62
7
100
AcDbSpline
 70
8
 71
3
 72
8
 73
4
 74
0
 40
0
 40
0
 40
0
 40
0
 40
1
 40
1
 40
1
 40
1
 10
61.261427
 20
163.907536
 30
0.0
 10
61.320223
 20
163.864173
 30
0.0
 10
61.344110
 20
163.814564
 30
0.0
 10
61.333086
 20
163.758709
 30
0.0
  0
SPLINE
  5
16c
100
AcDbEntity
  8
Layer_1
 62
7
100
AcDbSpline
 70
8
 71
3
 72
8
 73
4
 74
0
 40
0
 40
0
 40
0
 40
0
 40
1
 40
1
 40
1
 40
1
 10
61.333086
 20
163.758709
 30
0.0
 10
61.322051
 20
163.703585
 30
0.0
 10
61.278329
 20
163.654343
 30
0.0
 10
61.201895
 20
163.610983
 30
0.0
  0
SPLINE
  5
16d
100
AcDbEntity
  8
Layer_1
 62
7
100
AcDbSpline
 70
8
 71
3
 72
8
 73
4
 74
0
 40
0
 40
0
 40
0
 40
0
 40
1
 40
1
 40
1
 40
1
 10
61.201895
 20
163.610983
 30
0.0
 10
61.126195
 20
163.567619
 30
0.0
 10
61.044982
 20
163.545939
 30
0.0
 10
60.958258
 20
163.545939
 30
0.0
  0
SPLINE
  5
16e
100
AcDbEntity
  8
Layer_1
 62
7
100
AcDbSpline
 70
8
 71
3
 72
8
 73
4
 74
0
 40
0
 40
0
 40
0
 40
0
 40
1
 40
1
 40
1
 40
1
 10
60.958258
 20
163.545939
 30
0.0
 10
60.871534
 20
163.545939
 30
0.0
 10
60.799142
 20
163.567247
 30
0.0
 10
60.741080
 20
163.609879
 30
0.0
  0
SPLINE
  5
16f
100
AcDbEntity
  8
Layer_1
 62
7
100
AcDbSpline
 70
8
 71
3
 72
8
 73
4
 74
0
 40
0
 40
0
 40
0
 40
0
 40
1
 40
1
 40
1
 40
1
 10
60.741080
 20
163.609879
 30
0.0
 10
60.683018
 20
163.653243
 30
0.0
 10
60.659501
 20
163.702852
 30
0.0
 10
60.670524
 20
163.758709
 30
0.0
  0
SPLINE
  5
170
100
AcDbEntity
  8
Layer_1
 62
7
100
AcDbSpline
 70
8
 71
3
 72
8
 73
4
 74
0
 40
0
 40
0
 40
0
 40
0
 40
1
 40
1
 40
1
 40
1
 10
60.670524
 20
163.758709
 30
0.0
 10
60.681559
 20
163.815297
 30
0.0
 10
60.724911
 20
163.864907
 30
0.0
 10
60.800612
 20
163.907536
 30
0.0
  0
SPLINE
  5
171
100
AcDbEntity
  8
Layer_1
 62
7
100
AcDbSpline
 70
8
 71
3
 72
8
 73
4
 74
0
 40
0
 40
0
 40
0
 40
0
 40
1
 40
1
 40
1
 40
1
 10
60.800612
 20
163.907536
 30
0.0
 10
60.876312
 20
163.950897
 30
0.0
 10
60.957525
 20
163.972577
 30
0.0
 10
61.044249
 20
163.972580
 30
0.0
  0
LWPOLYLINE
  5
172
100
AcDbEntity
  8
Layer_1
 62
7
100
AcDbPolyline
 90
2
 70
0
 10
59.743376
 20
163.928483
 30
0.0
 10
59.794086
 20
163.928483
 30
0.0
  0
SPLINE
  5
173
100
AcDbEntity
  8
Layer_1
 62
7
100
AcDbSpline
 70
8
 71
3
 72
8
 73
4
 74
0
 40
0
 40
0
 40
0
 40
0
 40
1
 40
1
 40
1
 40
1
 10
62.769552
 20
163.510661
 30
0.0
 10
63.037810
 20
163.510661
 30
0.0
 10
63.262338
 20
163.448925
 30
0.0
 10
63.443138
 20
163.325453
 30
0.0
  0
SPLINE
  5
174
100
AcDbEntity
  8
Layer_1
 62
7
100
AcDbSpline
 70
8
 71
3
 72
8
 73
4
 74
0
 40
0
 40
0
 40
0
 40
0
 40
1
 40
1
 40
1
 40
1
 10
63.443138
 20
163.325453
 30
0.0
 10
63.624669
 20
163.202714
 30
0.0
 10
63.699268
 20
163.060870
 30
0.0
 10
63.666931
 20
162.899915
 30
0.0
  0
SPLINE
  5
175
100
AcDbEntity
  8
Layer_1
 62
7
100
AcDbSpline
 70
8
 71
3
 72
8
 73
4
 74
0
 40
0
 40
0
 40
0
 40
0
 40
1
 40
1
 40
1
 40
1
 10
63.666931
 20
162.899915
 30
0.0
 10
63.636062
 20
162.746310
 30
0.0
 10
63.507445
 20
162.614752
 30
0.0
 10
63.281080
 20
162.505245
 30
0.0
  0
SPLINE
  5
176
100
AcDbEntity
  8
Layer_1
 62
7
100
AcDbSpline
 70
8
 71
3
 72
8
 73
4
 74
0
 40
0
 40
0
 40
0
 40
0
 40
1
 40
1
 40
1
 40
1
 10
63.281080
 20
162.505245
 30
0.0
 10
63.055449
 20
162.395737
 30
0.0
 10
62.798948
 20
162.340983
 30
0.0
 10
62.511584
 20
162.340983
 30
0.0
  0
SPLINE
  5
177
100
AcDbEntity
  8
Layer_1
 62
7
100
AcDbSpline
 70
8
 71
3
 72
8
 73
4
 74
0
 40
0
 40
0
 40
0
 40
0
 40
1
 40
1
 40
1
 40
1
 10
62.511584
 20
162.340983
 30
0.0
 10
62.222747
 20
162.340983
 30
0.0
 10
61.987195
 20
162.397941
 30
0.0
 10
61.804925
 20
162.511860
 30
0.0
  0
SPLINE
  5
178
100
AcDbEntity
  8
Layer_1
 62
7
100
AcDbSpline
 70
8
 71
3
 72
8
 73
4
 74
0
 40
0
 40
0
 40
0
 40
0
 40
1
 40
1
 40
1
 40
1
 10
61.804925
 20
162.511860
 30
0.0
 10
61.622657
 20
162.626513
 30
0.0
 10
61.547691
 20
162.764683
 30
0.0
 10
61.580031
 20
162.926374
 30
0.0
  0
SPLINE
  5
179
100
AcDbEntity
  8
Layer_1
 62
7
100
AcDbSpline
 70
8
 71
3
 72
8
 73
4
 74
0
 40
0
 40
0
 40
0
 40
0
 40
1
 40
1
 40
1
 40
1
 10
61.580031
 20
162.926374
 30
0.0
 10
61.612368
 20
163.087328
 30
0.0
 10
61.744659
 20
163.224764
 30
0.0
 10
61.976906
 20
163.338683
 30
0.0
  0
SPLINE
  5
17a
100
AcDbEntity
  8
Layer_1
 62
7
100
AcDbSpline
 70
8
 71
3
 72
8
 73
4
 74
0
 40
0
 40
0
 40
0
 40
0
 40
1
 40
1
 40
1
 40
1
 10
61.976906
 20
163.338683
 30
0.0
 10
62.209886
 20
163.453333
 30
0.0
 10
62.474099
 20
163.510661
 30
0.0
 10
62.769552
 20
163.510661
 30
0.0
  0
SPLINE
  5
17b
100
AcDbEntity
  8
Layer_1
 62
7
100
AcDbSpline
 70
8
 71
3
 72
8
 73
4
 74
0
 40
0
 40
0
 40
0
 40
0
 40
1
 40
1
 40
1
 40
1
 10
62.692381
 20
163.289074
 30
0.0
 10
62.454256
 20
163.289072
 30
0.0
 10
62.310207
 20
163.164866
 30
0.0
 10
62.260229
 20
162.916451
 30
0.0
  0
SPLINE
  5
17c
100
AcDbEntity
  8
Layer_1
 62
7
100
AcDbSpline
 70
8
 71
3
 72
8
 73
4
 74
0
 40
0
 40
0
 40
0
 40
0
 40
1
 40
1
 40
1
 40
1
 10
62.260229
 20
162.916451
 30
0.0
 10
62.213193
 20
162.680530
 30
0.0
 10
62.311675
 20
162.562572
 30
0.0
 10
62.555681
 20
162.562572
 30
0.0
  0
SPLINE
  5
17d
100
AcDbEntity
  8
Layer_1
 62
7
100
AcDbSpline
 70
8
 71
3
 72
8
 73
4
 74
0
 40
0
 40
0
 40
0
 40
0
 40
1
 40
1
 40
1
 40
1
 10
62.555681
 20
162.562572
 30
0.0
 10
62.792336
 20
162.562572
 30
0.0
 10
62.934181
 20
162.680163
 30
0.0
 10
62.981219
 20
162.915350
 30
0.0
  0
SPLINE
  5
17e
100
AcDbEntity
  8
Layer_1
 62
7
100
AcDbSpline
 70
8
 71
3
 72
8
 73
4
 74
0
 40
0
 40
0
 40
0
 40
0
 40
1
 40
1
 40
1
 40
1
 10
62.981219
 20
162.915350
 30
0.0
 10
63.031195
 20
163.164499
 30
0.0
 10
62.934915
 20
163.289072
 30
0.0
 10
62.692381
 20
163.289074
 30
0.0
  0
LWPOLYLINE
  5
17f
100
AcDbEntity
  8
Layer_1
 62
7
100
AcDbPolyline
 90
8
 70
0
 10
61.276862
 20
163.477588
 30
0.0
 10
61.115908
 20
162.673917
 30
0.0
 10
61.479709
 20
162.398311
 30
0.0
 10
60.006862
 20
162.398311
 30
0.0
 10
60.488624
 20
162.673917
 30
0.0
 10
60.588945
 20
163.175522
 30
0.0
 10
60.217425
 20
163.452233
 30
0.0
 10
61.276862
 20
163.477576
 30
0.0
  0
SPLINE
  5
180
100
AcDbEntity
  8
Layer_1
 62
7
100
AcDbSpline
 70
8
 71
3
 72
8
 73
4
 74
0
 40
0
 40
0
 40
0
 40
0
 40
1
 40
1
 40
1
 40
1
 10
64.806844
 20
163.187638
 30
0.0
 10
64.911941
 20
163.308170
 30
0.0
 10
65.012262
 20
163.390485
 30
0.0
 10
65.107808
 20
163.434583
 30
0.0
  0
SPLINE
  5
181
100
AcDbEntity
  8
Layer_1
 62
7
100
AcDbSpline
 70
8
 71
3
 72
8
 73
4
 74
0
 40
0
 40
0
 40
0
 40
0
 40
1
 40
1
 40
1
 40
1
 10
65.107808
 20
163.434583
 30
0.0
 10
65.204086
 20
163.479414
 30
0.0
 10
65.327925
 20
163.501830
 30
0.0
 10
65.479326
 20
163.501830
 30
0.0
  0
SPLINE
  5
182
100
AcDbEntity
  8
Layer_1
 62
7
100
AcDbSpline
 70
8
 71
3
 72
8
 73
4
 74
0
 40
0
 40
0
 40
0
 40
0
 40
1
 40
1
 40
1
 40
1
 10
65.479326
 20
163.501830
 30
0.0
 10
65.882813
 20
163.501830
 30
0.0
 10
66.058101
 20
163.369172
 30
0.0
 10
66.005188
 20
163.103855
 30
0.0
  0
LWPOLYLINE
  5
183
100
AcDbEntity
  8
Layer_1
 62
7
100
AcDbPolyline
 90
3
 70
0
 10
63.831193
 20
163.452233
 30
0.0
 10
64.865272
 20
163.477576
 30
0.0
 10
64.806844
 20
163.187638
 30
0.0
  0
SPLINE
  5
184
100
AcDbEntity
  8
Layer_1
 62
7
100
AcDbSpline
 70
8
 71
3
 72
8
 73
4
 74
0
 40
0
 40
0
 40
0
 40
0
 40
1
 40
1
 40
1
 40
1
 10
65.355854
 20
162.986995
 30
0.0
 10
65.385253
 20
163.134721
 30
0.0
 10
65.318372
 20
163.208585
 30
0.0
 10
65.155213
 20
163.208585
 30
0.0
  0
SPLINE
  5
185
100
AcDbEntity
  8
Layer_1
 62
7
100
AcDbSpline
 70
8
 71
3
 72
8
 73
4
 74
0
 40
0
 40
0
 40
0
 40
0
 40
1
 40
1
 40
1
 40
1
 10
65.155213
 20
163.208585
 30
0.0
 10
65.060401
 20
163.208585
 30
0.0
 10
64.977721
 20
163.179186
 30
0.0
 10
64.907165
 20
163.120390
 30
0.0
  0
SPLINE
  5
186
100
AcDbEntity
  8
Layer_1
 62
7
100
AcDbSpline
 70
8
 71
3
 72
8
 73
4
 74
0
 40
0
 40
0
 40
0
 40
0
 40
1
 40
1
 40
1
 40
1
 10
64.907165
 20
163.120390
 30
0.0
 10
64.836610
 20
163.061592
 30
0.0
 10
64.791776
 20
162.984791
 30
0.0
 10
64.772670
 20
162.889981
 30
0.0
  0
LWPOLYLINE
  5
187
100
AcDbEntity
  8
Layer_1
 62
7
100
AcDbPolyline
 90
6
 70
0
 10
66.005188
 20
163.103855
 30
0.0
 10
65.919197
 20
162.673906
 30
0.0
 10
66.290715
 20
162.398299
 30
0.0
 10
64.973313
 20
162.398299
 30
0.0
 10
65.283094
 20
162.624297
 30
0.0
 10
65.355854
 20
162.986995
 30
0.0
  0
LWPOLYLINE
  5
188
100
AcDbEntity
  8
Layer_1
 62
7
100
AcDbPolyline
 90
7
 70
0
 10
64.772670
 20
162.889981
 30
0.0
 10
64.719753
 20
162.624297
 30
0.0
 10
64.938035
 20
162.398299
 30
0.0
 10
63.620630
 20
162.398299
 30
0.0
 10
64.102392
 20
162.673906
 30
0.0
 10
64.202713
 20
163.175511
 30
0.0
 10
63.831193
 20
163.452221
 30
0.0
  0
SPLINE
  5
189
100
AcDbEntity
  8
Layer_1
 62
7
100
AcDbSpline
 70
8
 71
3
 72
8
 73
4
 74
0
 40
0
 40
0
 40
0
 40
0
 40
1
 40
1
 40
1
 40
1
 10
69.192312
 20
163.903128
 30
0.0
 10
69.508341
 20
163.903125
 30
0.0
 10
69.757123
 20
163.852413
 30
0.0
 10
69.938660
 20
163.750990
 30
0.0
  0
SPLINE
  5
18a
100
AcDbEntity
  8
Layer_1
 62
7
100
AcDbSpline
 70
8
 71
3
 72
8
 73
4
 74
0
 40
0
 40
0
 40
0
 40
0
 40
1
 40
1
 40
1
 40
1
 10
69.938660
 20
163.750990
 30
0.0
 10
70.120925
 20
163.649565
 30
0.0
 10
70.196255
 20
163.519481
 30
0.0
 10
70.164658
 20
163.360731
 30
0.0
  0
SPLINE
  5
18b
100
AcDbEntity
  8
Layer_1
 62
7
100
AcDbSpline
 70
8
 71
3
 72
8
 73
4
 74
0
 40
0
 40
0
 40
0
 40
0
 40
1
 40
1
 40
1
 40
1
 10
70.164658
 20
163.360731
 30
0.0
 10
70.135256
 20
163.215208
 30
0.0
 10
70.026482
 20
163.100925
 30
0.0
 10
69.838338
 20
163.017876
 30
0.0
  0
SPLINE
  5
18c
100
AcDbEntity
  8
Layer_1
 62
7
100
AcDbSpline
 70
8
 71
3
 72
8
 73
4
 74
0
 40
0
 40
0
 40
0
 40
0
 40
1
 40
1
 40
1
 40
1
 10
69.838338
 20
163.017876
 30
0.0
 10
69.650186
 20
162.934823
 30
0.0
 10
69.404712
 20
162.893300
 30
0.0
 10
69.101913
 20
162.893300
 30
0.0
  0
LWPOLYLINE
  5
18d
100
AcDbEntity
  8
Layer_1
 62
7
100
AcDbPolyline
 90
2
 70
0
 10
67.202425
 20
163.903128
 30
0.0
 10
69.192312
 20
163.903128
 30
0.0
  0
LWPOLYLINE
  5
18e
100
AcDbEntity
  8
Layer_1
 62
7
100
AcDbPolyline
 90
8
 70
0
 10
69.101913
 20
162.893300
 30
0.0
 10
68.331314
 20
162.893300
 30
0.0
 10
68.302651
 20
162.749985
 30
0.0
 10
68.783313
 20
162.398311
 30
0.0
 10
66.901463
 20
162.398311
 30
0.0
 10
67.524336
 20
162.749985
 30
0.0
 10
67.685290
 20
163.555862
 30
0.0
 10
67.202425
 20
163.903128
 30
0.0
  0
SPLINE
  5
18f
100
AcDbEntity
  8
Layer_1
 62
7
100
AcDbSpline
 70
8
 71
3
 72
8
 73
4
 74
0
 40
0
 40
0
 40
0
 40
0
 40
1
 40
1
 40
1
 40
1
 10
68.960802
 20
163.175522
 30
0.0
 10
69.087949
 20
163.175522
 30
0.0
 10
69.179081
 20
163.191327
 30
0.0
 10
69.234205
 20
163.222927
 30
0.0
  0
SPLINE
  5
190
100
AcDbEntity
  8
Layer_1
 62
7
100
AcDbSpline
 70
8
 71
3
 72
8
 73
4
 74
0
 40
0
 40
0
 40
0
 40
0
 40
1
 40
1
 40
1
 40
1
 10
69.234205
 20
163.222927
 30
0.0
 10
69.290060
 20
163.254530
 30
0.0
 10
69.326071
 20
163.311122
 30
0.0
 10
69.342242
 20
163.392701
 30
0.0
  0
SPLINE
  5
191
100
AcDbEntity
  8
Layer_1
 62
7
100
AcDbSpline
 70
8
 71
3
 72
8
 73
4
 74
0
 40
0
 40
0
 40
0
 40
0
 40
1
 40
1
 40
1
 40
1
 10
69.342242
 20
163.392701
 30
0.0
 10
69.373109
 20
163.544835
 30
0.0
 10
69.277932
 20
163.620903
 30
0.0
 10
69.056715
 20
163.620906
 30
0.0
  0
LWPOLYLINE
  5
192
100
AcDbEntity
  8
Layer_1
 62
7
100
AcDbPolyline
 90
2
 70
0
 10
68.387538
 20
163.175522
 30
0.0
 10
68.960802
 20
163.175522
 30
0.0
  0
LWPOLYLINE
  5
193
100
AcDbEntity
  8
Layer_1
 62
7
100
AcDbPolyline
 90
3
 70
0
 10
69.056715
 20
163.620906
 30
0.0
 10
68.476836
 20
163.620906
 30
0.0
 10
68.387538
 20
163.175522
 30
0.0
  0
SPLINE
  5
194
100
AcDbEntity
  8
Layer_1
 62
7
100
AcDbSpline
 70
8
 71
3
 72
8
 73
4
 74
0
 40
0
 40
0
 40
0
 40
0
 40
1
 40
1
 40
1
 40
1
 10
70.817297
 20
162.867945
 30
0.0
 10
70.778341
 20
162.673917
 30
0.0
 10
70.934887
 20
162.576904
 30
0.0
 10
71.286931
 20
162.576904
 30
0.0
  0
SPLINE
  5
195
100
AcDbEntity
  8
Layer_1
 62
7
100
AcDbSpline
 70
8
 71
3
 72
8
 73
4
 74
0
 40
0
 40
0
 40
0
 40
0
 40
1
 40
1
 40
1
 40
1
 10
71.286931
 20
162.576904
 30
0.0
 10
71.620600
 20
162.576904
 30
0.0
 10
71.852843
 20
162.640107
 30
0.0
 10
71.983667
 20
162.766520
 30
0.0
  0
SPLINE
  5
196
100
AcDbEntity
  8
Layer_1
 62
7
100
AcDbSpline
 70
8
 71
3
 72
8
 73
4
 74
0
 40
0
 40
0
 40
0
 40
0
 40
1
 40
1
 40
1
 40
1
 10
71.983667
 20
162.766520
 30
0.0
 10
71.991005
 20
162.736387
 30
0.0
 10
71.992473
 20
162.711766
 30
0.0
 10
71.988070
 20
162.692657
 30
0.0
  0
SPLINE
  5
197
100
AcDbEntity
  8
Layer_1
 62
7
100
AcDbSpline
 70
8
 71
3
 72
8
 73
4
 74
0
 40
0
 40
0
 40
0
 40
0
 40
1
 40
1
 40
1
 40
1
 10
71.988070
 20
162.692657
 30
0.0
 10
71.966762
 20
162.586090
 30
0.0
 10
71.873784
 20
162.500466
 30
0.0
 10
71.709156
 20
162.435792
 30
0.0
  0
SPLINE
  5
198
100
AcDbEntity
  8
Layer_1
 62
7
100
AcDbSpline
 70
8
 71
3
 72
8
 73
4
 74
0
 40
0
 40
0
 40
0
 40
0
 40
1
 40
1
 40
1
 40
1
 10
71.709156
 20
162.435792
 30
0.0
 10
71.544524
 20
162.371852
 30
0.0
 10
71.336902
 20
162.339879
 30
0.0
 10
71.086283
 20
162.339879
 30
0.0
  0
SPLINE
  5
199
100
AcDbEntity
  8
Layer_1
 62
7
100
AcDbSpline
 70
8
 71
3
 72
8
 73
4
 74
0
 40
0
 40
0
 40
0
 40
0
 40
1
 40
1
 40
1
 40
1
 10
71.086283
 20
162.339879
 30
0.0
 10
70.773191
 20
162.339879
 30
0.0
 10
70.530658
 20
162.392796
 30
0.0
 10
70.358680
 20
162.498629
 30
0.0
  0
SPLINE
  5
19a
100
AcDbEntity
  8
Layer_1
 62
7
100
AcDbSpline
 70
8
 71
3
 72
8
 73
4
 74
0
 40
0
 40
0
 40
0
 40
0
 40
1
 40
1
 40
1
 40
1
 10
70.358680
 20
162.498629
 30
0.0
 10
70.187436
 20
162.604463
 30
0.0
 10
70.119084
 20
162.743370
 30
0.0
 10
70.153626
 20
162.915350
 30
0.0
  0
SPLINE
  5
19b
100
AcDbEntity
  8
Layer_1
 62
7
100
AcDbSpline
 70
8
 71
3
 72
8
 73
4
 74
0
 40
0
 40
0
 40
0
 40
0
 40
1
 40
1
 40
1
 40
1
 10
70.153626
 20
162.915350
 30
0.0
 10
70.186699
 20
163.082183
 30
0.0
 10
70.308701
 20
163.223661
 30
0.0
 10
70.519634
 20
163.339784
 30
0.0
  0
SPLINE
  5
19c
100
AcDbEntity
  8
Layer_1
 62
7
100
AcDbSpline
 70
8
 71
3
 72
8
 73
4
 74
0
 40
0
 40
0
 40
0
 40
0
 40
1
 40
1
 40
1
 40
1
 10
70.519634
 20
163.339784
 30
0.0
 10
70.731301
 20
163.455907
 30
0.0
 10
70.972364
 20
163.513969
 30
0.0
 10
71.242828
 20
163.513969
 30
0.0
  0
SPLINE
  5
19d
100
AcDbEntity
  8
Layer_1
 62
7
100
AcDbSpline
 70
8
 71
3
 72
8
 73
4
 74
0
 40
0
 40
0
 40
0
 40
0
 40
1
 40
1
 40
1
 40
1
 10
71.242828
 20
163.513969
 30
0.0
 10
71.487566
 20
163.513969
 30
0.0
 10
71.677919
 20
163.456641
 30
0.0
 10
71.813888
 20
163.341991
 30
0.0
  0
SPLINE
  5
19e
100
AcDbEntity
  8
Layer_1
 62
7
100
AcDbSpline
 70
8
 71
3
 72
8
 73
4
 74
0
 40
0
 40
0
 40
0
 40
0
 40
1
 40
1
 40
1
 40
1
 10
71.813888
 20
163.341991
 30
0.0
 10
71.950588
 20
163.228072
 30
0.0
 10
72.017099
 20
163.070056
 30
0.0
 10
72.013428
 20
162.867945
 30
0.0
  0
SPLINE
  5
19f
100
AcDbEntity
  8
Layer_1
 62
7
100
AcDbSpline
 70
8
 71
3
 72
8
 73
4
 74
0
 40
0
 40
0
 40
0
 40
0
 40
1
 40
1
 40
1
 40
1
 10
71.508515
 20
163.056461
 30
0.0
 10
71.542320
 20
163.223294
 30
0.0
 10
71.453392
 20
163.306710
 30
0.0
 10
71.241725
 20
163.306713
 30
0.0
  0
SPLINE
  5
1a0
100
AcDbEntity
  8
Layer_1
 62
7
100
AcDbSpline
 70
8
 71
3
 72
8
 73
4
 74
0
 40
0
 40
0
 40
0
 40
0
 40
1
 40
1
 40
1
 40
1
 10
71.241725
 20
163.306713
 30
0.0
 10
71.148386
 20
163.306710
 30
0.0
 10
71.065336
 20
163.282837
 30
0.0
 10
70.992576
 20
163.235054
 30
0.0
  0
SPLINE
  5
1a1
100
AcDbEntity
  8
Layer_1
 62
7
100
AcDbSpline
 70
8
 71
3
 72
8
 73
4
 74
0
 40
0
 40
0
 40
0
 40
0
 40
1
 40
1
 40
1
 40
1
 10
70.992576
 20
163.235054
 30
0.0
 10
70.920550
 20
163.187282
 30
0.0
 10
70.877187
 20
163.127751
 30
0.0
 10
70.862489
 20
163.056461
 30
0.0
  0
LWPOLYLINE
  5
1a2
100
AcDbEntity
  8
Layer_1
 62
7
100
AcDbPolyline
 90
2
 70
0
 10
72.013433
 20
162.867945
 30
0.0
 10
70.817297
 20
162.867945
 30
0.0
  0
LWPOLYLINE
  5
1a3
100
AcDbEntity
  8
Layer_1
 62
7
100
AcDbPolyline
 90
2
 70
0
 10
70.862489
 20
163.056461
 30
0.0
 10
71.508515
 20
163.056461
 30
0.0
  0
SPLINE
  5
1a4
100
AcDbEntity
  8
Layer_1
 62
7
100
AcDbSpline
 70
8
 71
3
 72
8
 73
4
 74
0
 40
0
 40
0
 40
0
 40
0
 40
1
 40
1
 40
1
 40
1
 10
73.368320
 20
162.598951
 30
0.0
 10
73.292620
 20
162.504141
 30
0.0
 10
73.212875
 20
162.438363
 30
0.0
 10
73.129092
 20
162.401615
 30
0.0
  0
SPLINE
  5
1a5
100
AcDbEntity
  8
Layer_1
 62
7
100
AcDbSpline
 70
8
 71
3
 72
8
 73
4
 74
0
 40
0
 40
0
 40
0
 40
0
 40
1
 40
1
 40
1
 40
1
 10
73.129092
 20
162.401615
 30
0.0
 10
73.045306
 20
162.365604
 30
0.0
 10
72.932860
 20
162.347598
 30
0.0
 10
72.791749
 20
162.347598
 30
0.0
  0
SPLINE
  5
1a6
100
AcDbEntity
  8
Layer_1
 62
7
100
AcDbSpline
 70
8
 71
3
 72
8
 73
4
 74
0
 40
0
 40
0
 40
0
 40
0
 40
1
 40
1
 40
1
 40
1
 10
72.791749
 20
162.347598
 30
0.0
 10
72.570529
 20
162.347598
 30
0.0
 10
72.400019
 20
162.399778
 30
0.0
 10
72.280221
 20
162.504144
 30
0.0
  0
SPLINE
  5
1a7
100
AcDbEntity
  8
Layer_1
 62
7
100
AcDbSpline
 70
8
 71
3
 72
8
 73
4
 74
0
 40
0
 40
0
 40
0
 40
0
 40
1
 40
1
 40
1
 40
1
 10
72.280221
 20
162.504144
 30
0.0
 10
72.161160
 20
162.608507
 30
0.0
 10
72.117796
 20
162.742636
 30
0.0
 10
72.150133
 20
162.906531
 30
0.0
  0
SPLINE
  5
1a8
100
AcDbEntity
  8
Layer_1
 62
7
100
AcDbSpline
 70
8
 71
3
 72
8
 73
4
 74
0
 40
0
 40
0
 40
0
 40
0
 40
1
 40
1
 40
1
 40
1
 10
72.150133
 20
162.906531
 30
0.0
 10
72.181737
 20
163.063074
 30
0.0
 10
72.287570
 20
163.201614
 30
0.0
 10
72.467633
 20
163.322145
 30
0.0
  0
SPLINE
  5
1a9
100
AcDbEntity
  8
Layer_1
 62
7
100
AcDbSpline
 70
8
 71
3
 72
8
 73
4
 74
0
 40
0
 40
0
 40
0
 40
0
 40
1
 40
1
 40
1
 40
1
 10
72.467633
 20
163.322145
 30
0.0
 10
72.647697
 20
163.443413
 30
0.0
 10
72.838417
 20
163.504046
 30
0.0
 10
73.039797
 20
163.504046
 30
0.0
  0
SPLINE
  5
1aa
100
AcDbEntity
  8
Layer_1
 62
7
100
AcDbSpline
 70
8
 71
3
 72
8
 73
4
 74
0
 40
0
 40
0
 40
0
 40
0
 40
1
 40
1
 40
1
 40
1
 10
73.039797
 20
163.504046
 30
0.0
 10
73.252931
 20
163.504046
 30
0.0
 10
73.405802
 20
163.418792
 30
0.0
 10
73.498408
 20
163.248282
 30
0.0
  0
LWPOLYLINE
  5
1ab
100
AcDbEntity
  8
Layer_1
 62
7
100
AcDbPolyline
 90
5
 70
0
 10
74.272312
 20
163.979195
 30
0.0
 10
74.011036
 20
162.673917
 30
0.0
 10
74.457520
 20
162.398311
 30
0.0
 10
73.328631
 20
162.398311
 30
0.0
 10
73.368320
 20
162.598951
 30
0.0
  0
SPLINE
  5
1ac
100
AcDbEntity
  8
Layer_1
 62
7
100
AcDbSpline
 70
8
 71
3
 72
8
 73
4
 74
0
 40
0
 40
0
 40
0
 40
0
 40
1
 40
1
 40
1
 40
1
 10
73.177600
 20
163.282473
 30
0.0
 10
72.974753
 20
163.282470
 30
0.0
 10
72.849074
 20
163.161205
 30
0.0
 10
72.800568
 20
162.918672
 30
0.0
  0
SPLINE
  5
1ad
100
AcDbEntity
  8
Layer_1
 62
7
100
AcDbSpline
 70
8
 71
3
 72
8
 73
4
 74
0
 40
0
 40
0
 40
0
 40
0
 40
1
 40
1
 40
1
 40
1
 10
72.800568
 20
162.918672
 30
0.0
 10
72.754267
 20
162.685689
 30
0.0
 10
72.826645
 20
162.569199
 30
0.0
 10
73.017747
 20
162.569199
 30
0.0
  0
SPLINE
  5
1ae
100
AcDbEntity
  8
Layer_1
 62
7
100
AcDbSpline
 70
8
 71
3
 72
8
 73
4
 74
0
 40
0
 40
0
 40
0
 40
0
 40
1
 40
1
 40
1
 40
1
 10
73.017747
 20
162.569199
 30
0.0
 10
73.231617
 20
162.569199
 30
0.0
 10
73.360968
 20
162.681281
 30
0.0
 10
73.405802
 20
162.905441
 30
0.0
  0
SPLINE
  5
1af
100
AcDbEntity
  8
Layer_1
 62
7
100
AcDbSpline
 70
8
 71
3
 72
8
 73
4
 74
0
 40
0
 40
0
 40
0
 40
0
 40
1
 40
1
 40
1
 40
1
 10
73.405802
 20
162.905441
 30
0.0
 10
73.455778
 20
163.156794
 30
0.0
 10
73.379697
 20
163.282470
 30
0.0
 10
73.177600
 20
163.282473
 30
0.0
  0
SPLINE
  5
1b0
100
AcDbEntity
  8
Layer_1
 62
7
100
AcDbSpline
 70
8
 71
3
 72
8
 73
4
 74
0
 40
0
 40
0
 40
0
 40
0
 40
1
 40
1
 40
1
 40
1
 10
76.474969
 20
162.790774
 30
0.0
 10
76.574921
 20
162.776804
 30
0.0
 10
76.614976
 20
162.720219
 30
0.0
 10
76.595133
 20
162.621001
 30
0.0
  0
SPLINE
  5
1b1
100
AcDbEntity
  8
Layer_1
 62
7
100
AcDbSpline
 70
8
 71
3
 72
8
 73
4
 74
0
 40
0
 40
0
 40
0
 40
0
 40
1
 40
1
 40
1
 40
1
 10
76.595133
 20
162.621001
 30
0.0
 10
76.559119
 20
162.439467
 30
0.0
 10
76.387508
 20
162.348699
 30
0.0
 10
76.080298
 20
162.348699
 30
0.0
  0
SPLINE
  5
1b2
100
AcDbEntity
  8
Layer_1
 62
7
100
AcDbSpline
 70
8
 71
3
 72
8
 73
4
 74
0
 40
0
 40
0
 40
0
 40
0
 40
1
 40
1
 40
1
 40
1
 10
76.080298
 20
162.348699
 30
0.0
 10
75.824534
 20
162.348699
 30
0.0
 10
75.692609
 20
162.425870
 30
0.0
 10
75.684526
 20
162.580211
 30
0.0
  0
SPLINE
  5
1b3
100
AcDbEntity
  8
Layer_1
 62
7
100
AcDbSpline
 70
8
 71
3
 72
8
 73
4
 74
0
 40
0
 40
0
 40
0
 40
0
 40
1
 40
1
 40
1
 40
1
 10
75.684526
 20
162.580211
 30
0.0
 10
75.587513
 20
162.492751
 30
0.0
 10
75.487558
 20
162.432118
 30
0.0
 10
75.384665
 20
162.398311
 30
0.0
  0
SPLINE
  5
1b4
100
AcDbEntity
  8
Layer_1
 62
7
100
AcDbSpline
 70
8
 71
3
 72
8
 73
4
 74
0
 40
0
 40
0
 40
0
 40
0
 40
1
 40
1
 40
1
 40
1
 10
75.384665
 20
162.398311
 30
0.0
 10
75.282507
 20
162.365237
 30
0.0
 10
75.145070
 20
162.348699
 30
0.0
 10
74.972356
 20
162.348699
 30
0.0
  0
SPLINE
  5
1b5
100
AcDbEntity
  8
Layer_1
 62
7
100
AcDbSpline
 70
8
 71
3
 72
8
 73
4
 74
0
 40
0
 40
0
 40
0
 40
0
 40
1
 40
1
 40
1
 40
1
 10
74.972356
 20
162.348699
 30
0.0
 10
74.598264
 20
162.348699
 30
0.0
 10
74.428858
 20
162.437630
 30
0.0
 10
74.464135
 20
162.615489
 30
0.0
  0
SPLINE
  5
1b6
100
AcDbEntity
  8
Layer_1
 62
7
100
AcDbSpline
 70
8
 71
3
 72
8
 73
4
 74
0
 40
0
 40
0
 40
0
 40
0
 40
1
 40
1
 40
1
 40
1
 10
74.464135
 20
162.615489
 30
0.0
 10
74.501617
 20
162.802901
 30
0.0
 10
74.698219
 20
162.921229
 30
0.0
 10
75.053938
 20
162.970471
 30
0.0
  0
LWPOLYLINE
  5
1b7
100
AcDbEntity
  8
Layer_1
 62
7
100
AcDbPolyline
 90
4
 70
0
 10
73.498408
 20
163.248282
 30
0.0
 10
73.584395
 20
163.678231
 30
0.0
 10
73.137911
 20
163.953838
 30
0.0
 10
74.272312
 20
163.979209
 30
0.0
  0
SPLINE
  5
1b8
100
AcDbEntity
  8
Layer_1
 62
7
100
AcDbSpline
 70
8
 71
3
 72
8
 73
4
 74
0
 40
0
 40
0
 40
0
 40
0
 40
1
 40
1
 40
1
 40
1
 10
75.753981
 20
163.149061
 30
0.0
 10
75.771620
 20
163.237256
 30
0.0
 10
75.695920
 20
163.281353
 30
0.0
 10
75.526883
 20
163.281353
 30
0.0
  0
SPLINE
  5
1b9
100
AcDbEntity
  8
Layer_1
 62
7
100
AcDbSpline
 70
8
 71
3
 72
8
 73
4
 74
0
 40
0
 40
0
 40
0
 40
0
 40
1
 40
1
 40
1
 40
1
 10
75.526883
 20
163.281353
 30
0.0
 10
75.318888
 20
163.281353
 30
0.0
 10
75.205339
 20
163.233581
 30
0.0
 10
75.186232
 20
163.138038
 30
0.0
  0
SPLINE
  5
1ba
100
AcDbEntity
  8
Layer_1
 62
7
100
AcDbSpline
 70
8
 71
3
 72
8
 73
4
 74
0
 40
0
 40
0
 40
0
 40
0
 40
1
 40
1
 40
1
 40
1
 10
75.186232
 20
163.138038
 30
0.0
 10
75.181829
 20
163.115262
 30
0.0
 10
75.188772
 20
163.090266
 30
0.0
 10
75.207173
 20
163.063071
 30
0.0
  0
SPLINE
  5
1bb
100
AcDbEntity
  8
Layer_1
 62
7
100
AcDbSpline
 70
8
 71
3
 72
8
 73
4
 74
0
 40
0
 40
0
 40
0
 40
0
 40
1
 40
1
 40
1
 40
1
 10
75.207173
 20
163.063071
 30
0.0
 10
75.096195
 20
163.035131
 30
0.0
 10
74.968314
 20
163.021178
 30
0.0
 10
74.823529
 20
163.021181
 30
0.0
  0
SPLINE
  5
1bc
100
AcDbEntity
  8
Layer_1
 62
7
100
AcDbSpline
 70
8
 71
3
 72
8
 73
4
 74
0
 40
0
 40
0
 40
0
 40
0
 40
1
 40
1
 40
1
 40
1
 10
74.823529
 20
163.021181
 30
0.0
 10
74.663308
 20
163.021178
 30
0.0
 10
74.592753
 20
163.069686
 30
0.0
 10
74.611862
 20
163.166700
 30
0.0
  0
SPLINE
  5
1bd
100
AcDbEntity
  8
Layer_1
 62
7
100
AcDbSpline
 70
8
 71
3
 72
8
 73
4
 74
0
 40
0
 40
0
 40
0
 40
0
 40
1
 40
1
 40
1
 40
1
 10
74.611862
 20
163.166700
 30
0.0
 10
74.631702
 20
163.265918
 30
0.0
 10
74.735701
 20
163.346763
 30
0.0
 10
74.923850
 20
163.409236
 30
0.0
  0
SPLINE
  5
1be
100
AcDbEntity
  8
Layer_1
 62
7
100
AcDbSpline
 70
8
 71
3
 72
8
 73
4
 74
0
 40
0
 40
0
 40
0
 40
0
 40
1
 40
1
 40
1
 40
1
 10
74.923850
 20
163.409236
 30
0.0
 10
75.111996
 20
163.471706
 30
0.0
 10
75.345713
 20
163.502940
 30
0.0
 10
75.624995
 20
163.502942
 30
0.0
  0
SPLINE
  5
1bf
100
AcDbEntity
  8
Layer_1
 62
7
100
AcDbSpline
 70
8
 71
3
 72
8
 73
4
 74
0
 40
0
 40
0
 40
0
 40
0
 40
1
 40
1
 40
1
 40
1
 10
75.624995
 20
163.502942
 30
0.0
 10
75.919711
 20
163.502940
 30
0.0
 10
76.125496
 20
163.474644
 30
0.0
 10
76.242356
 20
163.418056
 30
0.0
  0
SPLINE
  5
1c0
100
AcDbEntity
  8
Layer_1
 62
7
100
AcDbSpline
 70
8
 71
3
 72
8
 73
4
 74
0
 40
0
 40
0
 40
0
 40
0
 40
1
 40
1
 40
1
 40
1
 10
76.242356
 20
163.418056
 30
0.0
 10
76.359946
 20
163.361462
 30
0.0
 10
76.405514
 20
163.268122
 30
0.0
 10
76.379058
 20
163.138038
 30
0.0
  0
LWPOLYLINE
  5
1c1
100
AcDbEntity
  8
Layer_1
 62
7
100
AcDbPolyline
 90
4
 70
0
 10
75.053938
 20
162.970471
 30
0.0
 10
75.191741
 20
162.989210
 30
0.0
 10
75.737443
 20
163.063071
 30
0.0
 10
75.753981
 20
163.149061
 30
0.0
  0
SPLINE
  5
1c2
100
AcDbEntity
  8
Layer_1
 62
7
100
AcDbSpline
 70
8
 71
3
 72
8
 73
4
 74
0
 40
0
 40
0
 40
0
 40
0
 40
1
 40
1
 40
1
 40
1
 10
76.297479
 20
162.729035
 30
0.0
 10
76.276171
 20
162.623202
 30
0.0
 10
76.294177
 20
162.570285
 30
0.0
 10
76.351497
 20
162.570285
 30
0.0
  0
SPLINE
  5
1c3
100
AcDbEntity
  8
Layer_1
 62
7
100
AcDbSpline
 70
8
 71
3
 72
8
 73
4
 74
0
 40
0
 40
0
 40
0
 40
0
 40
1
 40
1
 40
1
 40
1
 10
76.351497
 20
162.570285
 30
0.0
 10
76.411762
 20
162.570285
 30
0.0
 10
76.450715
 20
162.613649
 30
0.0
 10
76.468354
 20
162.700373
 30
0.0
  0
SPLINE
  5
1c4
100
AcDbEntity
  8
Layer_1
 62
7
100
AcDbSpline
 70
8
 71
3
 72
8
 73
4
 74
0
 40
0
 40
0
 40
0
 40
0
 40
1
 40
1
 40
1
 40
1
 10
76.468354
 20
162.700373
 30
0.0
 10
76.472022
 20
162.718746
 30
0.0
 10
76.474224
 20
162.748878
 30
0.0
 10
76.474958
 20
162.790772
 30
0.0
  0
LWPOLYLINE
  5
1c5
100
AcDbEntity
  8
Layer_1
 62
7
100
AcDbPolyline
 90
2
 70
0
 10
76.379058
 20
163.138038
 30
0.0
 10
76.297479
 20
162.729035
 30
0.0
  0
SPLINE
  5
1c6
100
AcDbEntity
  8
Layer_1
 62
7
100
AcDbSpline
 70
8
 71
3
 72
8
 73
4
 74
0
 40
0
 40
0
 40
0
 40
0
 40
1
 40
1
 40
1
 40
1
 10
75.354888
 20
162.838191
 30
0.0
 10
75.209366
 20
162.819818
 30
0.0
 10
75.128523
 20
162.769839
 30
0.0
 10
75.112355
 20
162.688260
 30
0.0
  0
SPLINE
  5
1c7
100
AcDbEntity
  8
Layer_1
 62
7
100
AcDbSpline
 70
8
 71
3
 72
8
 73
4
 74
0
 40
0
 40
0
 40
0
 40
0
 40
1
 40
1
 40
1
 40
1
 10
75.112355
 20
162.688260
 30
0.0
 10
75.096183
 20
162.609619
 30
0.0
 10
75.151674
 20
162.570300
 30
0.0
 10
75.278821
 20
162.570300
 30
0.0
  0
SPLINE
  5
1c8
100
AcDbEntity
  8
Layer_1
 62
7
100
AcDbSpline
 70
8
 71
3
 72
8
 73
4
 74
0
 40
0
 40
0
 40
0
 40
0
 40
1
 40
1
 40
1
 40
1
 10
75.278821
 20
162.570300
 30
0.0
 10
75.381713
 20
162.570300
 30
0.0
 10
75.471745
 20
162.591974
 30
0.0
 10
75.548916
 20
162.635343
 30
0.0
  0
SPLINE
  5
1c9
100
AcDbEntity
  8
Layer_1
 62
7
100
AcDbSpline
 70
8
 71
3
 72
8
 73
4
 74
0
 40
0
 40
0
 40
0
 40
0
 40
1
 40
1
 40
1
 40
1
 10
75.548916
 20
162.635343
 30
0.0
 10
75.626087
 20
162.678704
 30
0.0
 10
75.670918
 20
162.732724
 30
0.0
 10
75.683412
 20
162.797401
 30
0.0
  0
LWPOLYLINE
  5
1ca
100
AcDbEntity
  8
Layer_1
 62
7
100
AcDbPolyline
 90
3
 70
0
 10
75.701051
 20
162.884478
 30
0.0
 10
75.432059
 20
162.846996
 30
0.0
 10
75.354888
 20
162.838191
 30
0.0
  0
LWPOLYLINE
  5
1cb
100
AcDbEntity
  8
Layer_1
 62
7
100
AcDbPolyline
 90
2
 70
0
 10
75.683412
 20
162.797401
 30
0.0
 10
75.701051
 20
162.884492
 30
0.0
  0
LWPOLYLINE
  5
1cc
100
AcDbEntity
  8
Layer_1
 62
7
100
AcDbPolyline
 90
8
 70
0
 10
77.830959
 20
163.979195
 30
0.0
 10
77.569683
 20
162.673917
 30
0.0
 10
77.941201
 20
162.398311
 30
0.0
 10
76.460638
 20
162.398311
 30
0.0
 10
76.942399
 20
162.673917
 30
0.0
 10
77.143042
 20
163.678231
 30
0.0
 10
76.771522
 20
163.953838
 30
0.0
 10
77.830959
 20
163.979209
 30
0.0
  0
SPLINE
  5
1cd
100
AcDbEntity
  8
Layer_1
 62
7
100
AcDbSpline
 70
8
 71
3
 72
8
 73
4
 74
0
 40
0
 40
0
 40
0
 40
0
 40
1
 40
1
 40
1
 40
1
 10
51.127885
 20
160.318022
 30
0.0
 10
51.119080
 20
160.295981
 30
0.0
 10
51.112081
 20
160.279070
 30
0.0
 10
51.106945
 20
160.267310
 30
0.0
  0
SPLINE
  5
1ce
100
AcDbEntity
  8
Layer_1
 62
7
100
AcDbSpline
 70
8
 71
3
 72
8
 73
4
 74
0
 40
0
 40
0
 40
0
 40
0
 40
1
 40
1
 40
1
 40
1
 10
51.106945
 20
160.267310
 30
0.0
 10
51.073137
 20
160.182790
 30
0.0
 10
51.052924
 20
160.122891
 30
0.0
 10
51.046312
 20
160.087616
 30
0.0
  0
SPLINE
  5
1cf
100
AcDbEntity
  8
Layer_1
 62
7
100
AcDbSpline
 70
8
 71
3
 72
8
 73
4
 74
0
 40
0
 40
0
 40
0
 40
0
 40
1
 40
1
 40
1
 40
1
 10
51.046312
 20
160.087616
 30
0.0
 10
51.008093
 20
159.898730
 30
0.0
 10
51.076812
 20
159.804290
 30
0.0
 10
51.252467
 20
159.804290
 30
0.0
  0
SPLINE
  5
1d0
100
AcDbEntity
  8
Layer_1
 62
7
100
AcDbSpline
 70
8
 71
3
 72
8
 73
4
 74
0
 40
0
 40
0
 40
0
 40
0
 40
1
 40
1
 40
1
 40
1
 10
51.252467
 20
159.804290
 30
0.0
 10
51.345070
 20
159.804290
 30
0.0
 10
51.411951
 20
159.828166
 30
0.0
 10
51.453110
 20
159.875949
 30
0.0
  0
SPLINE
  5
1d1
100
AcDbEntity
  8
Layer_1
 62
7
100
AcDbSpline
 70
8
 71
3
 72
8
 73
4
 74
0
 40
0
 40
0
 40
0
 40
0
 40
1
 40
1
 40
1
 40
1
 10
51.453110
 20
159.875949
 30
0.0
 10
51.494266
 20
159.924455
 30
0.0
 10
51.528808
 20
160.019632
 30
0.0
 10
51.556736
 20
160.161476
 30
0.0
  0
LWPOLYLINE
  5
1d2
100
AcDbEntity
  8
Layer_1
 62
7
100
AcDbPolyline
 90
2
 70
0
 10
50.546906
 20
160.244159
 30
0.0
 10
51.127885
 20
160.318022
 30
0.0
  0
SPLINE
  5
1d3
100
AcDbEntity
  8
Layer_1
 62
7
100
AcDbSpline
 70
8
 71
3
 72
8
 73
4
 74
0
 40
0
 40
0
 40
0
 40
0
 40
1
 40
1
 40
1
 40
1
 10
52.319620
 20
160.090921
 30
0.0
 10
52.289484
 20
159.938052
 30
0.0
 10
52.231422
 20
159.828545
 30
0.0
 10
52.145435
 20
159.762397
 30
0.0
  0
SPLINE
  5
1d4
100
AcDbEntity
  8
Layer_1
 62
7
100
AcDbSpline
 70
8
 71
3
 72
8
 73
4
 74
0
 40
0
 40
0
 40
0
 40
0
 40
1
 40
1
 40
1
 40
1
 10
52.145435
 20
159.762397
 30
0.0
 10
51.916863
 20
159.587479
 30
0.0
 10
51.605978
 20
159.500018
 30
0.0
 10
51.212778
 20
159.500018
 30
0.0
  0
SPLINE
  5
1d5
100
AcDbEntity
  8
Layer_1
 62
7
100
AcDbSpline
 70
8
 71
3
 72
8
 73
4
 74
0
 40
0
 40
0
 40
0
 40
0
 40
1
 40
1
 40
1
 40
1
 10
51.212778
 20
159.500018
 30
0.0
 10
50.936434
 20
159.500018
 30
0.0
 10
50.728445
 20
159.545953
 30
0.0
 10
50.588804
 20
159.637824
 30
0.0
  0
SPLINE
  5
1d6
100
AcDbEntity
  8
Layer_1
 62
7
100
AcDbSpline
 70
8
 71
3
 72
8
 73
4
 74
0
 40
0
 40
0
 40
0
 40
0
 40
1
 40
1
 40
1
 40
1
 10
50.588804
 20
159.637824
 30
0.0
 10
50.449161
 20
159.730427
 30
0.0
 10
50.395510
 20
159.857574
 30
0.0
 10
50.427847
 20
160.019265
 30
0.0
  0
SPLINE
  5
1d7
100
AcDbEntity
  8
Layer_1
 62
7
100
AcDbSpline
 70
8
 71
3
 72
8
 73
4
 74
0
 40
0
 40
0
 40
0
 40
0
 40
1
 40
1
 40
1
 40
1
 10
50.427847
 20
160.019265
 30
0.0
 10
50.441817
 20
160.088350
 30
0.0
 10
50.481501
 20
160.163314
 30
0.0
 10
50.546911
 20
160.244159
 30
0.0
  0
SPLINE
  5
1d8
100
AcDbEntity
  8
Layer_1
 62
7
100
AcDbSpline
 70
8
 71
3
 72
8
 73
4
 74
0
 40
0
 40
0
 40
0
 40
0
 40
1
 40
1
 40
1
 40
1
 10
53.265499
 20
159.980679
 30
0.0
 10
53.351489
 20
159.980679
 30
0.0
 10
53.423882
 20
159.959005
 30
0.0
 10
53.482677
 20
159.915635
 30
0.0
  0
SPLINE
  5
1d9
100
AcDbEntity
  8
Layer_1
 62
7
100
AcDbSpline
 70
8
 71
3
 72
8
 73
4
 74
0
 40
0
 40
0
 40
0
 40
0
 40
1
 40
1
 40
1
 40
1
 10
53.482677
 20
159.915635
 30
0.0
 10
53.541473
 20
159.872272
 30
0.0
 10
53.565360
 20
159.823030
 30
0.0
 10
53.554336
 20
159.767909
 30
0.0
  0
SPLINE
  5
1da
100
AcDbEntity
  8
Layer_1
 62
7
100
AcDbSpline
 70
8
 71
3
 72
8
 73
4
 74
0
 40
0
 40
0
 40
0
 40
0
 40
1
 40
1
 40
1
 40
1
 10
53.554336
 20
159.767909
 30
0.0
 10
53.543301
 20
159.712054
 30
0.0
 10
53.499582
 20
159.662443
 30
0.0
 10
53.423145
 20
159.619082
 30
0.0
  0
SPLINE
  5
1db
100
AcDbEntity
  8
Layer_1
 62
7
100
AcDbSpline
 70
8
 71
3
 72
8
 73
4
 74
0
 40
0
 40
0
 40
0
 40
0
 40
1
 40
1
 40
1
 40
1
 10
53.423145
 20
159.619082
 30
0.0
 10
53.347445
 20
159.575719
 30
0.0
 10
53.266602
 20
159.554038
 30
0.0
 10
53.180612
 20
159.554038
 30
0.0
  0
SPLINE
  5
1dc
100
AcDbEntity
  8
Layer_1
 62
7
100
AcDbSpline
 70
8
 71
3
 72
8
 73
4
 74
0
 40
0
 40
0
 40
0
 40
0
 40
1
 40
1
 40
1
 40
1
 10
53.180612
 20
159.554038
 30
0.0
 10
53.093888
 20
159.554038
 30
0.0
 10
53.021125
 20
159.575346
 30
0.0
 10
52.962330
 20
159.617979
 30
0.0
  0
SPLINE
  5
1dd
100
AcDbEntity
  8
Layer_1
 62
7
100
AcDbSpline
 70
8
 71
3
 72
8
 73
4
 74
0
 40
0
 40
0
 40
0
 40
0
 40
1
 40
1
 40
1
 40
1
 10
52.962330
 20
159.617979
 30
0.0
 10
52.904268
 20
159.661342
 30
0.0
 10
52.881118
 20
159.711318
 30
0.0
 10
52.892878
 20
159.767909
 30
0.0
  0
SPLINE
  5
1de
100
AcDbEntity
  8
Layer_1
 62
7
100
AcDbSpline
 70
8
 71
3
 72
8
 73
4
 74
0
 40
0
 40
0
 40
0
 40
0
 40
1
 40
1
 40
1
 40
1
 10
52.892878
 20
159.767909
 30
0.0
 10
52.903913
 20
159.823767
 30
0.0
 10
52.946895
 20
159.873009
 30
0.0
 10
53.021862
 20
159.915635
 30
0.0
  0
SPLINE
  5
1df
100
AcDbEntity
  8
Layer_1
 62
7
100
AcDbSpline
 70
8
 71
3
 72
8
 73
4
 74
0
 40
0
 40
0
 40
0
 40
0
 40
1
 40
1
 40
1
 40
1
 10
53.021862
 20
159.915635
 30
0.0
 10
53.097562
 20
159.958996
 30
0.0
 10
53.178775
 20
159.980679
 30
0.0
 10
53.265499
 20
159.980679
 30
0.0
  0
LWPOLYLINE
  5
1e0
100
AcDbEntity
  8
Layer_1
 62
7
100
AcDbPolyline
 90
6
 70
0
 10
51.556736
 20
160.161476
 30
0.0
 10
51.670288
 20
160.730332
 30
0.0
 10
51.188527
 20
161.080906
 30
0.0
 10
53.070373
 20
161.080906
 30
0.0
 10
52.447500
 20
160.730332
 30
0.0
 10
52.319620
 20
160.090921
 30
0.0
  0
SPLINE
  5
1e1
100
AcDbEntity
  8
Layer_1
 62
7
100
AcDbSpline
 70
8
 71
3
 72
8
 73
4
 74
0
 40
0
 40
0
 40
0
 40
0
 40
1
 40
1
 40
1
 40
1
 10
56.466957
 20
161.058892
 30
0.0
 10
56.639669
 20
161.036851
 30
0.0
 10
56.773431
 20
160.987967
 30
0.0
 10
56.868243
 20
160.912269
 30
0.0
  0
SPLINE
  5
1e2
100
AcDbEntity
  8
Layer_1
 62
7
100
AcDbSpline
 70
8
 71
3
 72
8
 73
4
 74
0
 40
0
 40
0
 40
0
 40
0
 40
1
 40
1
 40
1
 40
1
 10
56.868243
 20
160.912269
 30
0.0
 10
56.963784
 20
160.837303
 30
0.0
 10
57.001633
 20
160.750212
 30
0.0
 10
56.981792
 20
160.650994
 30
0.0
  0
SPLINE
  5
1e3
100
AcDbEntity
  8
Layer_1
 62
7
100
AcDbSpline
 70
8
 71
3
 72
8
 73
4
 74
0
 40
0
 40
0
 40
0
 40
0
 40
1
 40
1
 40
1
 40
1
 10
56.981792
 20
160.650994
 30
0.0
 10
56.943571
 20
160.459904
 30
0.0
 10
56.701405
 20
160.339006
 30
0.0
 10
56.255290
 20
160.288293
 30
0.0
  0
SPLINE
  5
1e4
100
AcDbEntity
  8
Layer_1
 62
7
100
AcDbSpline
 70
8
 71
3
 72
8
 73
4
 74
0
 40
0
 40
0
 40
0
 40
0
 40
1
 40
1
 40
1
 40
1
 10
56.255290
 20
160.288293
 30
0.0
 10
56.395665
 20
160.251545
 30
0.0
 10
56.498557
 20
160.198628
 30
0.0
 10
56.563971
 20
160.129543
 30
0.0
  0
SPLINE
  5
1e5
100
AcDbEntity
  8
Layer_1
 62
7
100
AcDbSpline
 70
8
 71
3
 72
8
 73
4
 74
0
 40
0
 40
0
 40
0
 40
0
 40
1
 40
1
 40
1
 40
1
 10
56.563971
 20
160.129543
 30
0.0
 10
56.629379
 20
160.061192
 30
0.0
 10
56.682295
 20
159.949480
 30
0.0
 10
56.722721
 20
159.794404
 30
0.0
  0
LWPOLYLINE
  5
1e6
100
AcDbEntity
  8
Layer_1
 62
7
100
AcDbPolyline
 90
4
 70
0
 10
54.019563
 20
161.080906
 30
0.0
 10
55.842981
 20
161.080906
 30
0.0
 10
56.118590
 20
161.082035
 30
0.0
 10
56.466957
 20
161.058892
 30
0.0
  0
SPLINE
  5
1e7
100
AcDbEntity
  8
Layer_1
 62
7
100
AcDbSpline
 70
8
 71
3
 72
8
 73
4
 74
0
 40
0
 40
0
 40
0
 40
0
 40
1
 40
1
 40
1
 40
1
 10
55.976376
 20
159.576125
 30
0.0
 10
55.928601
 20
159.794404
 30
0.0
 10
55.878625
 20
159.954624
 30
0.0
 10
55.826445
 20
160.056783
 30
0.0
  0
SPLINE
  5
1e8
100
AcDbEntity
  8
Layer_1
 62
7
100
AcDbSpline
 70
8
 71
3
 72
8
 73
4
 74
0
 40
0
 40
0
 40
0
 40
0
 40
1
 40
1
 40
1
 40
1
 10
55.826445
 20
160.056783
 30
0.0
 10
55.794105
 20
160.121457
 30
0.0
 10
55.695254
 20
160.153797
 30
0.0
 10
55.529892
 20
160.153797
 30
0.0
  0
LWPOLYLINE
  5
1e9
100
AcDbEntity
  8
Layer_1
 62
7
100
AcDbPolyline
 90
3
 70
0
 10
56.722721
 20
159.794404
 30
0.0
 10
57.043529
 20
159.576125
 30
0.0
 10
55.976376
 20
159.576125
 30
0.0
  0
LWPOLYLINE
  5
1ea
100
AcDbEntity
  8
Layer_1
 62
7
100
AcDbPolyline
 90
8
 70
0
 10
55.529892
 20
160.153797
 30
0.0
 10
55.163883
 20
160.153797
 30
0.0
 10
55.117582
 20
159.925595
 30
0.0
 10
55.600447
 20
159.576125
 30
0.0
 10
53.718598
 20
159.576125
 30
0.0
 10
54.340367
 20
159.925595
 30
0.0
 10
54.501324
 20
160.729265
 30
0.0
 10
54.019563
 20
161.080942
 30
0.0
  0
SPLINE
  5
1eb
100
AcDbEntity
  8
Layer_1
 62
7
100
AcDbSpline
 70
8
 71
3
 72
8
 73
4
 74
0
 40
0
 40
0
 40
0
 40
0
 40
1
 40
1
 40
1
 40
1
 10
55.869439
 20
160.453712
 30
0.0
 10
56.035538
 20
160.453712
 30
0.0
 10
56.129611
 20
160.508466
 30
0.0
 10
56.151661
 20
160.617974
 30
0.0
  0
SPLINE
  5
1ec
100
AcDbEntity
  8
Layer_1
 62
7
100
AcDbSpline
 70
8
 71
3
 72
8
 73
4
 74
0
 40
0
 40
0
 40
0
 40
0
 40
1
 40
1
 40
1
 40
1
 10
56.151661
 20
160.617974
 30
0.0
 10
56.165631
 20
160.689263
 30
0.0
 10
56.147992
 20
160.737035
 30
0.0
 10
56.098745
 20
160.761289
 30
0.0
  0
SPLINE
  5
1ed
100
AcDbEntity
  8
Layer_1
 62
7
100
AcDbSpline
 70
8
 71
3
 72
8
 73
4
 74
0
 40
0
 40
0
 40
0
 40
0
 40
1
 40
1
 40
1
 40
1
 10
56.098745
 20
160.761289
 30
0.0
 10
56.049502
 20
160.786266
 30
0.0
 10
55.945873
 20
160.798771
 30
0.0
 10
55.787860
 20
160.798774
 30
0.0
  0
LWPOLYLINE
  5
1ee
100
AcDbEntity
  8
Layer_1
 62
7
100
AcDbPolyline
 90
3
 70
0
 10
55.223415
 20
160.451454
 30
0.0
 10
55.716201
 20
160.451454
 30
0.0
 10
55.869439
 20
160.453712
 30
0.0
  0
SPLINE
  5
1ef
100
AcDbEntity
  8
Layer_1
 62
7
100
AcDbSpline
 70
8
 71
3
 72
8
 73
4
 74
0
 40
0
 40
0
 40
0
 40
0
 40
1
 40
1
 40
1
 40
1
 10
58.406131
 20
160.688439
 30
0.0
 10
58.674389
 20
160.688439
 30
0.0
 10
58.898917
 20
160.626703
 30
0.0
 10
59.079717
 20
160.503231
 30
0.0
  0
SPLINE
  5
1f0
100
AcDbEntity
  8
Layer_1
 62
7
100
AcDbSpline
 70
8
 71
3
 72
8
 73
4
 74
0
 40
0
 40
0
 40
0
 40
0
 40
1
 40
1
 40
1
 40
1
 10
59.079717
 20
160.503231
 30
0.0
 10
59.261251
 20
160.380492
 30
0.0
 10
59.335848
 20
160.238647
 30
0.0
 10
59.303510
 20
160.077693
 30
0.0
  0
SPLINE
  5
1f1
100
AcDbEntity
  8
Layer_1
 62
7
100
AcDbSpline
 70
8
 71
3
 72
8
 73
4
 74
0
 40
0
 40
0
 40
0
 40
0
 40
1
 40
1
 40
1
 40
1
 10
59.303510
 20
160.077693
 30
0.0
 10
59.272641
 20
159.924088
 30
0.0
 10
59.144024
 20
159.792530
 30
0.0
 10
58.917659
 20
159.683022
 30
0.0
  0
SPLINE
  5
1f2
100
AcDbEntity
  8
Layer_1
 62
7
100
AcDbSpline
 70
8
 71
3
 72
8
 73
4
 74
0
 40
0
 40
0
 40
0
 40
0
 40
1
 40
1
 40
1
 40
1
 10
58.917659
 20
159.683022
 30
0.0
 10
58.692028
 20
159.573514
 30
0.0
 10
58.435530
 20
159.518760
 30
0.0
 10
58.148163
 20
159.518760
 30
0.0
  0
SPLINE
  5
1f3
100
AcDbEntity
  8
Layer_1
 62
7
100
AcDbSpline
 70
8
 71
3
 72
8
 73
4
 74
0
 40
0
 40
0
 40
0
 40
0
 40
1
 40
1
 40
1
 40
1
 10
58.148163
 20
159.518760
 30
0.0
 10
57.859326
 20
159.518760
 30
0.0
 10
57.623775
 20
159.575719
 30
0.0
 10
57.441507
 20
159.689638
 30
0.0
  0
SPLINE
  5
1f4
100
AcDbEntity
  8
Layer_1
 62
7
100
AcDbSpline
 70
8
 71
3
 72
8
 73
4
 74
0
 40
0
 40
0
 40
0
 40
0
 40
1
 40
1
 40
1
 40
1
 10
57.441507
 20
159.689638
 30
0.0
 10
57.259237
 20
159.804290
 30
0.0
 10
57.184273
 20
159.942461
 30
0.0
 10
57.216610
 20
160.104151
 30
0.0
  0
SPLINE
  5
1f5
100
AcDbEntity
  8
Layer_1
 62
7
100
AcDbSpline
 70
8
 71
3
 72
8
 73
4
 74
0
 40
0
 40
0
 40
0
 40
0
 40
1
 40
1
 40
1
 40
1
 10
57.216610
 20
160.104151
 30
0.0
 10
57.248947
 20
160.265106
 30
0.0
 10
57.381238
 20
160.402542
 30
0.0
 10
57.613485
 20
160.516461
 30
0.0
  0
SPLINE
  5
1f6
100
AcDbEntity
  8
Layer_1
 62
7
100
AcDbSpline
 70
8
 71
3
 72
8
 73
4
 74
0
 40
0
 40
0
 40
0
 40
0
 40
1
 40
1
 40
1
 40
1
 10
57.613485
 20
160.516461
 30
0.0
 10
57.846465
 20
160.631111
 30
0.0
 10
58.110681
 20
160.688439
 30
0.0
 10
58.406131
 20
160.688439
 30
0.0
  0
SPLINE
  5
1f7
100
AcDbEntity
  8
Layer_1
 62
7
100
AcDbSpline
 70
8
 71
3
 72
8
 73
4
 74
0
 40
0
 40
0
 40
0
 40
0
 40
1
 40
1
 40
1
 40
1
 10
58.328963
 20
160.466852
 30
0.0
 10
58.090835
 20
160.466849
 30
0.0
 10
57.946786
 20
160.342643
 30
0.0
 10
57.896811
 20
160.094229
 30
0.0
  0
SPLINE
  5
1f8
100
AcDbEntity
  8
Layer_1
 62
7
100
AcDbSpline
 70
8
 71
3
 72
8
 73
4
 74
0
 40
0
 40
0
 40
0
 40
0
 40
1
 40
1
 40
1
 40
1
 10
57.896811
 20
160.094229
 30
0.0
 10
57.849773
 20
159.858308
 30
0.0
 10
57.948257
 20
159.740350
 30
0.0
 10
58.192260
 20
159.740350
 30
0.0
  0
SPLINE
  5
1f9
100
AcDbEntity
  8
Layer_1
 62
7
100
AcDbSpline
 70
8
 71
3
 72
8
 73
4
 74
0
 40
0
 40
0
 40
0
 40
0
 40
1
 40
1
 40
1
 40
1
 10
58.192260
 20
159.740350
 30
0.0
 10
58.428915
 20
159.740350
 30
0.0
 10
58.570760
 20
159.857941
 30
0.0
 10
58.617798
 20
160.093128
 30
0.0
  0
SPLINE
  5
1fa
100
AcDbEntity
  8
Layer_1
 62
7
100
AcDbSpline
 70
8
 71
3
 72
8
 73
4
 74
0
 40
0
 40
0
 40
0
 40
0
 40
1
 40
1
 40
1
 40
1
 10
58.617798
 20
160.093128
 30
0.0
 10
58.667774
 20
160.342276
 30
0.0
 10
58.571497
 20
160.466849
 30
0.0
 10
58.328963
 20
160.466852
 30
0.0
  0
LWPOLYLINE
  5
1fb
100
AcDbEntity
  8
Layer_1
 62
7
100
AcDbPolyline
 90
3
 70
0
 10
55.787860
 20
160.798774
 30
0.0
 10
55.292867
 20
160.798774
 30
0.0
 10
55.223415
 20
160.451508
 30
0.0
  0
SPLINE
  5
1fc
100
AcDbEntity
  8
Layer_1
 62
7
100
AcDbSpline
 70
8
 71
3
 72
8
 73
4
 74
0
 40
0
 40
0
 40
0
 40
0
 40
1
 40
1
 40
1
 40
1
 10
60.652885
 20
159.776729
 30
0.0
 10
60.577185
 20
159.681919
 30
0.0
 10
60.497443
 20
159.616141
 30
0.0
 10
60.413660
 20
159.579393
 30
0.0
  0
SPLINE
  5
1fd
100
AcDbEntity
  8
Layer_1
 62
7
100
AcDbSpline
 70
8
 71
3
 72
8
 73
4
 74
0
 40
0
 40
0
 40
0
 40
0
 40
1
 40
1
 40
1
 40
1
 10
60.413660
 20
159.579393
 30
0.0
 10
60.329874
 20
159.543382
 30
0.0
 10
60.217425
 20
159.525376
 30
0.0
 10
60.076314
 20
159.525376
 30
0.0
  0
SPLINE
  5
1fe
100
AcDbEntity
  8
Layer_1
 62
7
100
AcDbSpline
 70
8
 71
3
 72
8
 73
4
 74
0
 40
0
 40
0
 40
0
 40
0
 40
1
 40
1
 40
1
 40
1
 10
60.076314
 20
159.525376
 30
0.0
 10
59.855094
 20
159.525376
 30
0.0
 10
59.684584
 20
159.577556
 30
0.0
 10
59.564786
 20
159.681922
 30
0.0
  0
SPLINE
  5
1ff
100
AcDbEntity
  8
Layer_1
 62
7
100
AcDbSpline
 70
8
 71
3
 72
8
 73
4
 74
0
 40
0
 40
0
 40
0
 40
0
 40
1
 40
1
 40
1
 40
1
 10
59.564786
 20
159.681922
 30
0.0
 10
59.445725
 20
159.786285
 30
0.0
 10
59.402362
 20
159.920414
 30
0.0
 10
59.434701
 20
160.084308
 30
0.0
  0
SPLINE
  5
200
100
AcDbEntity
  8
Layer_1
 62
7
100
AcDbSpline
 70
8
 71
3
 72
8
 73
4
 74
0
 40
0
 40
0
 40
0
 40
0
 40
1
 40
1
 40
1
 40
1
 10
59.434701
 20
160.084308
 30
0.0
 10
59.466302
 20
160.240851
 30
0.0
 10
59.572135
 20
160.379392
 30
0.0
 10
59.752201
 20
160.499923
 30
0.0
  0
SPLINE
  5
201
100
AcDbEntity
  8
Layer_1
 62
7
100
AcDbSpline
 70
8
 71
3
 72
8
 73
4
 74
0
 40
0
 40
0
 40
0
 40
0
 40
1
 40
1
 40
1
 40
1
 10
59.752201
 20
160.499923
 30
0.0
 10
59.932262
 20
160.621191
 30
0.0
 10
60.122985
 20
160.681824
 30
0.0
 10
60.324362
 20
160.681824
 30
0.0
  0
SPLINE
  5
202
100
AcDbEntity
  8
Layer_1
 62
7
100
AcDbSpline
 70
8
 71
3
 72
8
 73
4
 74
0
 40
0
 40
0
 40
0
 40
0
 40
1
 40
1
 40
1
 40
1
 10
60.324362
 20
160.681824
 30
0.0
 10
60.537496
 20
160.681824
 30
0.0
 10
60.690367
 20
160.596570
 30
0.0
 10
60.782973
 20
160.426060
 30
0.0
  0
LWPOLYLINE
  5
203
100
AcDbEntity
  8
Layer_1
 62
7
100
AcDbPolyline
 90
5
 70
0
 10
61.556880
 20
161.156973
 30
0.0
 10
61.295604
 20
159.851695
 30
0.0
 10
61.742088
 20
159.576088
 30
0.0
 10
60.613199
 20
159.576088
 30
0.0
 10
60.652885
 20
159.776729
 30
0.0
  0
SPLINE
  5
204
100
AcDbEntity
  8
Layer_1
 62
7
100
AcDbSpline
 70
8
 71
3
 72
8
 73
4
 74
0
 40
0
 40
0
 40
0
 40
0
 40
1
 40
1
 40
1
 40
1
 10
60.462165
 20
160.460251
 30
0.0
 10
60.259318
 20
160.460248
 30
0.0
 10
60.133642
 20
160.338983
 30
0.0
 10
60.085133
 20
160.096450
 30
0.0
  0
SPLINE
  5
205
100
AcDbEntity
  8
Layer_1
 62
7
100
AcDbSpline
 70
8
 71
3
 72
8
 73
4
 74
0
 40
0
 40
0
 40
0
 40
0
 40
1
 40
1
 40
1
 40
1
 10
60.085133
 20
160.096450
 30
0.0
 10
60.038832
 20
159.863467
 30
0.0
 10
60.111211
 20
159.746977
 30
0.0
 10
60.302312
 20
159.746977
 30
0.0
  0
SPLINE
  5
206
100
AcDbEntity
  8
Layer_1
 62
7
100
AcDbSpline
 70
8
 71
3
 72
8
 73
4
 74
0
 40
0
 40
0
 40
0
 40
0
 40
1
 40
1
 40
1
 40
1
 10
60.302312
 20
159.746977
 30
0.0
 10
60.516183
 20
159.746977
 30
0.0
 10
60.645536
 20
159.859058
 30
0.0
 10
60.690367
 20
160.083219
 30
0.0
  0
SPLINE
  5
207
100
AcDbEntity
  8
Layer_1
 62
7
100
AcDbSpline
 70
8
 71
3
 72
8
 73
4
 74
0
 40
0
 40
0
 40
0
 40
0
 40
1
 40
1
 40
1
 40
1
 10
60.690367
 20
160.083219
 30
0.0
 10
60.740343
 20
160.334572
 30
0.0
 10
60.664262
 20
160.460248
 30
0.0
 10
60.462165
 20
160.460251
 30
0.0
  0
LWPOLYLINE
  5
208
100
AcDbEntity
  8
Layer_1
 62
7
100
AcDbPolyline
 90
4
 70
0
 10
60.782973
 20
160.426060
 30
0.0
 10
60.868963
 20
160.856008
 30
0.0
 10
60.422479
 20
161.131615
 30
0.0
 10
61.556880
 20
161.156987
 30
0.0
  0
SPLINE
  5
209
100
AcDbEntity
  8
Layer_1
 62
7
100
AcDbSpline
 70
8
 71
3
 72
8
 73
4
 74
0
 40
0
 40
0
 40
0
 40
0
 40
1
 40
1
 40
1
 40
1
 10
62.759632
 20
160.329035
 30
0.0
 10
62.934548
 20
160.545846
 30
0.0
 10
63.133354
 20
160.654251
 30
0.0
 10
63.356047
 20
160.654253
 30
0.0
  0
SPLINE
  5
20a
100
AcDbEntity
  8
Layer_1
 62
7
100
AcDbSpline
 70
8
 71
3
 72
8
 73
4
 74
0
 40
0
 40
0
 40
0
 40
0
 40
1
 40
1
 40
1
 40
1
 10
63.356047
 20
160.654253
 30
0.0
 10
63.505974
 20
160.654251
 30
0.0
 10
63.622464
 20
160.624854
 30
0.0
 10
63.705517
 20
160.566059
 30
0.0
  0
SPLINE
  5
20b
100
AcDbEntity
  8
Layer_1
 62
7
100
AcDbSpline
 70
8
 71
3
 72
8
 73
4
 74
0
 40
0
 40
0
 40
0
 40
0
 40
1
 40
1
 40
1
 40
1
 10
63.705517
 20
160.566059
 30
0.0
 10
63.789300
 20
160.507997
 30
0.0
 10
63.822004
 20
160.433031
 30
0.0
 10
63.803631
 20
160.341162
 30
0.0
  0
SPLINE
  5
20c
100
AcDbEntity
  8
Layer_1
 62
7
100
AcDbSpline
 70
8
 71
3
 72
8
 73
4
 74
0
 40
0
 40
0
 40
0
 40
0
 40
1
 40
1
 40
1
 40
1
 10
63.803631
 20
160.341162
 30
0.0
 10
63.770558
 20
160.175796
 30
0.0
 10
63.634958
 20
160.093114
 30
0.0
 10
63.396836
 20
160.093117
 30
0.0
  0
SPLINE
  5
20d
100
AcDbEntity
  8
Layer_1
 62
7
100
AcDbSpline
 70
8
 71
3
 72
8
 73
4
 74
0
 40
0
 40
0
 40
0
 40
0
 40
1
 40
1
 40
1
 40
1
 10
63.396836
 20
160.093117
 30
0.0
 10
63.334363
 20
160.093114
 30
0.0
 10
63.255355
 20
160.101555
 30
0.0
 10
63.159812
 20
160.118460
 30
0.0
  0
SPLINE
  5
20e
100
AcDbEntity
  8
Layer_1
 62
7
100
AcDbSpline
 70
8
 71
3
 72
8
 73
4
 74
0
 40
0
 40
0
 40
0
 40
0
 40
1
 40
1
 40
1
 40
1
 10
63.159812
 20
160.118460
 30
0.0
 10
63.212729
 20
160.178726
 30
0.0
 10
63.242861
 20
160.228335
 30
0.0
 10
63.250213
 20
160.267287
 30
0.0
  0
SPLINE
  5
20f
100
AcDbEntity
  8
Layer_1
 62
7
100
AcDbSpline
 70
8
 71
3
 72
8
 73
4
 74
0
 40
0
 40
0
 40
0
 40
0
 40
1
 40
1
 40
1
 40
1
 10
63.250213
 20
160.267287
 30
0.0
 10
63.269320
 20
160.359893
 30
0.0
 10
63.227071
 20
160.406194
 30
0.0
 10
63.123433
 20
160.406194
 30
0.0
  0
SPLINE
  5
210
100
AcDbEntity
  8
Layer_1
 62
7
100
AcDbSpline
 70
8
 71
3
 72
8
 73
4
 74
0
 40
0
 40
0
 40
0
 40
0
 40
1
 40
1
 40
1
 40
1
 10
63.123433
 20
160.406194
 30
0.0
 10
63.032298
 20
160.406194
 30
0.0
 10
62.948145
 20
160.369079
 30
0.0
 10
62.870977
 20
160.294849
 30
0.0
  0
SPLINE
  5
211
100
AcDbEntity
  8
Layer_1
 62
7
100
AcDbSpline
 70
8
 71
3
 72
8
 73
4
 74
0
 40
0
 40
0
 40
0
 40
0
 40
1
 40
1
 40
1
 40
1
 10
62.870977
 20
160.294849
 30
0.0
 10
62.793806
 20
160.221353
 30
0.0
 10
62.744564
 20
160.130587
 30
0.0
 10
62.723251
 20
160.022550
 30
0.0
  0
LWPOLYLINE
  5
212
100
AcDbEntity
  8
Layer_1
 62
7
100
AcDbPolyline
 90
3
 70
0
 10
61.790594
 20
160.630010
 30
0.0
 10
62.824673
 20
160.654253
 30
0.0
 10
62.759632
 20
160.329035
 30
0.0
  0
SPLINE
  5
213
100
AcDbEntity
  8
Layer_1
 62
7
100
AcDbSpline
 70
8
 71
3
 72
8
 73
4
 74
0
 40
0
 40
0
 40
0
 40
0
 40
1
 40
1
 40
1
 40
1
 10
64.653606
 20
161.150358
 30
0.0
 10
64.740330
 20
161.150355
 30
0.0
 10
64.812723
 20
161.128683
 30
0.0
 10
64.870784
 20
161.085314
 30
0.0
  0
SPLINE
  5
214
100
AcDbEntity
  8
Layer_1
 62
7
100
AcDbSpline
 70
8
 71
3
 72
8
 73
4
 74
0
 40
0
 40
0
 40
0
 40
0
 40
1
 40
1
 40
1
 40
1
 10
64.870784
 20
161.085314
 30
0.0
 10
64.929579
 20
161.041951
 30
0.0
 10
64.953467
 20
160.992341
 30
0.0
 10
64.942443
 20
160.936487
 30
0.0
  0
SPLINE
  5
215
100
AcDbEntity
  8
Layer_1
 62
7
100
AcDbSpline
 70
8
 71
3
 72
8
 73
4
 74
0
 40
0
 40
0
 40
0
 40
0
 40
1
 40
1
 40
1
 40
1
 10
64.942443
 20
160.936487
 30
0.0
 10
64.931408
 20
160.881363
 30
0.0
 10
64.887689
 20
160.832121
 30
0.0
 10
64.811255
 20
160.788760
 30
0.0
  0
SPLINE
  5
216
100
AcDbEntity
  8
Layer_1
 62
7
100
AcDbSpline
 70
8
 71
3
 72
8
 73
4
 74
0
 40
0
 40
0
 40
0
 40
0
 40
1
 40
1
 40
1
 40
1
 10
64.811255
 20
160.788760
 30
0.0
 10
64.735552
 20
160.745397
 30
0.0
 10
64.654339
 20
160.723717
 30
0.0
 10
64.567618
 20
160.723717
 30
0.0
  0
SPLINE
  5
217
100
AcDbEntity
  8
Layer_1
 62
7
100
AcDbSpline
 70
8
 71
3
 72
8
 73
4
 74
0
 40
0
 40
0
 40
0
 40
0
 40
1
 40
1
 40
1
 40
1
 10
64.567618
 20
160.723717
 30
0.0
 10
64.480891
 20
160.723717
 30
0.0
 10
64.408498
 20
160.745025
 30
0.0
 10
64.350437
 20
160.787657
 30
0.0
  0
SPLINE
  5
218
100
AcDbEntity
  8
Layer_1
 62
7
100
AcDbSpline
 70
8
 71
3
 72
8
 73
4
 74
0
 40
0
 40
0
 40
0
 40
0
 40
1
 40
1
 40
1
 40
1
 10
64.350437
 20
160.787657
 30
0.0
 10
64.292375
 20
160.831020
 30
0.0
 10
64.268858
 20
160.880629
 30
0.0
 10
64.279881
 20
160.936487
 30
0.0
  0
SPLINE
  5
219
100
AcDbEntity
  8
Layer_1
 62
7
100
AcDbSpline
 70
8
 71
3
 72
8
 73
4
 74
0
 40
0
 40
0
 40
0
 40
0
 40
1
 40
1
 40
1
 40
1
 10
64.279881
 20
160.936487
 30
0.0
 10
64.290916
 20
160.993075
 30
0.0
 10
64.334268
 20
161.042684
 30
0.0
 10
64.409969
 20
161.085314
 30
0.0
  0
SPLINE
  5
21a
100
AcDbEntity
  8
Layer_1
 62
7
100
AcDbSpline
 70
8
 71
3
 72
8
 73
4
 74
0
 40
0
 40
0
 40
0
 40
0
 40
1
 40
1
 40
1
 40
1
 10
64.409969
 20
161.085314
 30
0.0
 10
64.485669
 20
161.128675
 30
0.0
 10
64.566882
 20
161.150355
 30
0.0
 10
64.653606
 20
161.150358
 30
0.0
  0
LWPOLYLINE
  5
21b
100
AcDbEntity
  8
Layer_1
 62
7
100
AcDbPolyline
 90
7
 70
0
 10
62.723251
 20
160.022550
 30
0.0
 10
62.689076
 20
159.851673
 30
0.0
 10
63.135561
 20
159.576066
 30
0.0
 10
61.577826
 20
159.576066
 30
0.0
 10
62.061792
 20
159.851673
 30
0.0
 10
62.162114
 20
160.353277
 30
0.0
 10
61.790594
 20
160.629988
 30
0.0
  0
SPLINE
  5
21c
100
AcDbEntity
  8
Layer_1
 62
7
100
AcDbSpline
 70
8
 71
3
 72
8
 73
4
 74
0
 40
0
 40
0
 40
0
 40
0
 40
1
 40
1
 40
1
 40
1
 10
66.847443
 20
160.538508
 30
0.0
 10
66.848854
 20
160.555414
 30
0.0
 10
66.851112
 20
160.570845
 30
0.0
 10
66.854047
 20
160.584810
 30
0.0
  0
SPLINE
  5
21d
100
AcDbEntity
  8
Layer_1
 62
7
100
AcDbSpline
 70
8
 71
3
 72
8
 73
4
 74
0
 40
0
 40
0
 40
0
 40
0
 40
1
 40
1
 40
1
 40
1
 10
66.854047
 20
160.584810
 30
0.0
 10
66.876822
 20
160.698729
 30
0.0
 10
66.962082
 20
160.755687
 30
0.0
 10
67.109811
 20
160.755687
 30
0.0
  0
SPLINE
  5
21e
100
AcDbEntity
  8
Layer_1
 62
7
100
AcDbSpline
 70
8
 71
3
 72
8
 73
4
 74
0
 40
0
 40
0
 40
0
 40
0
 40
1
 40
1
 40
1
 40
1
 10
67.109811
 20
160.755687
 30
0.0
 10
67.250186
 20
160.755687
 30
0.0
 10
67.310451
 20
160.706445
 30
0.0
 10
67.290608
 20
160.607963
 30
0.0
  0
SPLINE
  5
21f
100
AcDbEntity
  8
Layer_1
 62
7
100
AcDbSpline
 70
8
 71
3
 72
8
 73
4
 74
0
 40
0
 40
0
 40
0
 40
0
 40
1
 40
1
 40
1
 40
1
 10
67.290608
 20
160.607963
 30
0.0
 10
67.276638
 20
160.535935
 30
0.0
 10
67.218215
 20
160.499923
 30
0.0
 10
67.115323
 20
160.499923
 30
0.0
  0
LWPOLYLINE
  5
220
100
AcDbEntity
  8
Layer_1
 62
7
100
AcDbPolyline
 90
8
 70
0
 10
64.886219
 20
160.655365
 30
0.0
 10
64.725265
 20
159.851695
 30
0.0
 10
65.089066
 20
159.576088
 30
0.0
 10
63.616219
 20
159.576088
 30
0.0
 10
64.097981
 20
159.851695
 30
0.0
 10
64.198302
 20
160.353300
 30
0.0
 10
63.826785
 20
160.630010
 30
0.0
 10
64.886219
 20
160.655354
 30
0.0
  0
SPLINE
  5
221
100
AcDbEntity
  8
Layer_1
 62
7
100
AcDbSpline
 70
8
 71
3
 72
8
 73
4
 74
0
 40
0
 40
0
 40
0
 40
0
 40
1
 40
1
 40
1
 40
1
 10
67.094382
 20
160.499923
 30
0.0
 10
67.100252
 20
160.519029
 30
0.0
 10
67.104288
 20
160.534834
 30
0.0
 10
67.106517
 20
160.547328
 30
0.0
  0
SPLINE
  5
222
100
AcDbEntity
  8
Layer_1
 62
7
100
AcDbSpline
 70
8
 71
3
 72
8
 73
4
 74
0
 40
0
 40
0
 40
0
 40
0
 40
1
 40
1
 40
1
 40
1
 10
67.106517
 20
160.547328
 30
0.0
 10
67.117552
 20
160.600978
 30
0.0
 10
67.101381
 20
160.627804
 30
0.0
 10
67.058009
 20
160.627806
 30
0.0
  0
SPLINE
  5
223
100
AcDbEntity
  8
Layer_1
 62
7
100
AcDbSpline
 70
8
 71
3
 72
8
 73
4
 74
0
 40
0
 40
0
 40
0
 40
0
 40
1
 40
1
 40
1
 40
1
 10
67.058009
 20
160.627806
 30
0.0
 10
67.013175
 20
160.627804
 30
0.0
 10
66.985249
 20
160.599866
 30
0.0
 10
66.974226
 20
160.544020
 30
0.0
  0
SPLINE
  5
224
100
AcDbEntity
  8
Layer_1
 62
7
100
AcDbSpline
 70
8
 71
3
 72
8
 73
4
 74
0
 40
0
 40
0
 40
0
 40
0
 40
1
 40
1
 40
1
 40
1
 10
66.974226
 20
160.544020
 30
0.0
 10
66.968356
 20
160.515358
 30
0.0
 10
66.967989
 20
160.496615
 30
0.0
 10
66.973097
 20
160.487796
 30
0.0
  0
LWPOLYLINE
  5
225
100
AcDbEntity
  8
Layer_1
 62
7
100
AcDbPolyline
 90
2
 70
0
 10
67.115323
 20
160.499923
 30
0.0
 10
67.094382
 20
160.499923
 30
0.0
  0
SPLINE
  5
226
100
AcDbEntity
  8
Layer_1
 62
7
100
AcDbSpline
 70
8
 71
3
 72
8
 73
4
 74
0
 40
0
 40
0
 40
0
 40
0
 40
1
 40
1
 40
1
 40
1
 10
67.018298
 20
160.415036
 30
0.0
 10
67.038872
 20
160.381229
 30
0.0
 10
67.045843
 20
160.347421
 30
0.0
 10
67.039239
 20
160.313614
 30
0.0
  0
SPLINE
  5
227
100
AcDbEntity
  8
Layer_1
 62
7
100
AcDbSpline
 70
8
 71
3
 72
8
 73
4
 74
0
 40
0
 40
0
 40
0
 40
0
 40
1
 40
1
 40
1
 40
1
 10
67.039239
 20
160.313614
 30
0.0
 10
67.020866
 20
160.221742
 30
0.0
 10
66.927157
 20
160.144574
 30
0.0
 10
66.758117
 20
160.082101
 30
0.0
  0
SPLINE
  5
228
100
AcDbEntity
  8
Layer_1
 62
7
100
AcDbSpline
 70
8
 71
3
 72
8
 73
4
 74
0
 40
0
 40
0
 40
0
 40
0
 40
1
 40
1
 40
1
 40
1
 10
66.758117
 20
160.082101
 30
0.0
 10
66.589077
 20
160.019632
 30
0.0
 10
66.390271
 20
159.988395
 30
0.0
 10
66.161702
 20
159.988395
 30
0.0
  0
SPLINE
  5
229
100
AcDbEntity
  8
Layer_1
 62
7
100
AcDbSpline
 70
8
 71
3
 72
8
 73
4
 74
0
 40
0
 40
0
 40
0
 40
0
 40
1
 40
1
 40
1
 40
1
 10
66.161702
 20
159.988395
 30
0.0
 10
66.042641
 20
159.988395
 30
0.0
 10
65.948565
 20
159.996834
 30
0.0
 10
65.879480
 20
160.013767
 30
0.0
  0
LWPOLYLINE
  5
22a
100
AcDbEntity
  8
Layer_1
 62
7
100
AcDbPolyline
 90
2
 70
0
 10
66.973097
 20
160.487796
 30
0.0
 10
67.018298
 20
160.415036
 30
0.0
  0
SPLINE
  5
22b
100
AcDbEntity
  8
Layer_1
 62
7
100
AcDbSpline
 70
8
 71
3
 72
8
 73
4
 74
0
 40
0
 40
0
 40
0
 40
0
 40
1
 40
1
 40
1
 40
1
 10
65.760419
 20
160.043533
 30
0.0
 10
65.734709
 20
160.050137
 30
0.0
 10
65.705295
 20
160.053439
 30
0.0
 10
65.672225
 20
160.053439
 30
0.0
  0
SPLINE
  5
22c
100
AcDbEntity
  8
Layer_1
 62
7
100
AcDbSpline
 70
8
 71
3
 72
8
 73
4
 74
0
 40
0
 40
0
 40
0
 40
0
 40
1
 40
1
 40
1
 40
1
 10
65.672225
 20
160.053439
 30
0.0
 10
65.553897
 20
160.053439
 30
0.0
 10
65.488117
 20
160.020732
 30
0.0
 10
65.474889
 20
159.955324
 30
0.0
  0
SPLINE
  5
22d
100
AcDbEntity
  8
Layer_1
 62
7
100
AcDbSpline
 70
8
 71
3
 72
8
 73
4
 74
0
 40
0
 40
0
 40
0
 40
0
 40
1
 40
1
 40
1
 40
1
 10
65.474889
 20
159.955324
 30
0.0
 10
65.466084
 20
159.911224
 30
0.0
 10
65.499866
 20
159.889177
 30
0.0
 10
65.576311
 20
159.889177
 30
0.0
  0
LWPOLYLINE
  5
22e
100
AcDbEntity
  8
Layer_1
 62
7
100
AcDbPolyline
 90
2
 70
0
 10
65.879480
 20
160.013767
 30
0.0
 10
65.760419
 20
160.043533
 30
0.0
  0
SPLINE
  5
22f
100
AcDbEntity
  8
Layer_1
 62
7
100
AcDbSpline
 70
8
 71
3
 72
8
 73
4
 74
0
 40
0
 40
0
 40
0
 40
0
 40
1
 40
1
 40
1
 40
1
 10
66.448336
 20
159.914521
 30
0.0
 10
66.667349
 20
159.914521
 30
0.0
 10
66.833451
 20
159.875935
 30
0.0
 10
66.946633
 20
159.798767
 30
0.0
  0
SPLINE
  5
230
100
AcDbEntity
  8
Layer_1
 62
7
100
AcDbSpline
 70
8
 71
3
 72
8
 73
4
 74
0
 40
0
 40
0
 40
0
 40
0
 40
1
 40
1
 40
1
 40
1
 10
66.946633
 20
159.798767
 30
0.0
 10
67.059815
 20
159.721596
 30
0.0
 10
67.103176
 20
159.616867
 30
0.0
 10
67.076720
 20
159.484575
 30
0.0
  0
SPLINE
  5
231
100
AcDbEntity
  8
Layer_1
 62
7
100
AcDbSpline
 70
8
 71
3
 72
8
 73
4
 74
0
 40
0
 40
0
 40
0
 40
0
 40
1
 40
1
 40
1
 40
1
 10
67.076720
 20
159.484575
 30
0.0
 10
67.022333
 20
159.211172
 30
0.0
 10
66.669186
 20
159.074469
 30
0.0
 10
66.017284
 20
159.074469
 30
0.0
  0
SPLINE
  5
232
100
AcDbEntity
  8
Layer_1
 62
7
100
AcDbSpline
 70
8
 71
3
 72
8
 73
4
 74
0
 40
0
 40
0
 40
0
 40
0
 40
1
 40
1
 40
1
 40
1
 10
66.017284
 20
159.074469
 30
0.0
 10
65.700520
 20
159.074469
 30
0.0
 10
65.444756
 20
159.098712
 30
0.0
 10
65.249992
 20
159.147229
 30
0.0
  0
SPLINE
  5
233
100
AcDbEntity
  8
Layer_1
 62
7
100
AcDbSpline
 70
8
 71
3
 72
8
 73
4
 74
0
 40
0
 40
0
 40
0
 40
0
 40
1
 40
1
 40
1
 40
1
 10
65.249992
 20
159.147229
 30
0.0
 10
65.055230
 20
159.195004
 30
0.0
 10
64.965199
 20
159.256003
 30
0.0
 10
64.979897
 20
159.330233
 30
0.0
  0
SPLINE
  5
234
100
AcDbEntity
  8
Layer_1
 62
7
100
AcDbSpline
 70
8
 71
3
 72
8
 73
4
 74
0
 40
0
 40
0
 40
0
 40
0
 40
1
 40
1
 40
1
 40
1
 10
64.979897
 20
159.330233
 30
0.0
 10
64.996802
 20
159.412549
 30
0.0
 10
65.113292
 20
159.479063
 30
0.0
 10
65.329367
 20
159.529773
 30
0.0
  0
SPLINE
  5
235
100
AcDbEntity
  8
Layer_1
 62
7
100
AcDbSpline
 70
8
 71
3
 72
8
 73
4
 74
0
 40
0
 40
0
 40
0
 40
0
 40
1
 40
1
 40
1
 40
1
 10
65.329367
 20
159.529773
 30
0.0
 10
65.201486
 20
159.595183
 30
0.0
 10
65.149304
 20
159.685215
 30
0.0
 10
65.172824
 20
159.799868
 30
0.0
  0
SPLINE
  5
236
100
AcDbEntity
  8
Layer_1
 62
7
100
AcDbSpline
 70
8
 71
3
 72
8
 73
4
 74
0
 40
0
 40
0
 40
0
 40
0
 40
1
 40
1
 40
1
 40
1
 10
65.172824
 20
159.799868
 30
0.0
 10
65.188262
 20
159.877773
 30
0.0
 10
65.219125
 20
159.938041
 30
0.0
 10
65.265427
 20
159.980668
 30
0.0
  0
SPLINE
  5
237
100
AcDbEntity
  8
Layer_1
 62
7
100
AcDbSpline
 70
8
 71
3
 72
8
 73
4
 74
0
 40
0
 40
0
 40
0
 40
0
 40
1
 40
1
 40
1
 40
1
 10
65.265427
 20
159.980668
 30
0.0
 10
65.311728
 20
160.023295
 30
0.0
 10
65.396248
 20
160.069596
 30
0.0
 10
65.518986
 20
160.119575
 30
0.0
  0
SPLINE
  5
238
100
AcDbEntity
  8
Layer_1
 62
7
100
AcDbSpline
 70
8
 71
3
 72
8
 73
4
 74
0
 40
0
 40
0
 40
0
 40
0
 40
1
 40
1
 40
1
 40
1
 10
65.518986
 20
160.119575
 30
0.0
 10
65.396248
 20
160.174696
 30
0.0
 10
65.342598
 20
160.241207
 30
0.0
 10
65.358032
 20
160.319114
 30
0.0
  0
SPLINE
  5
239
100
AcDbEntity
  8
Layer_1
 62
7
100
AcDbSpline
 70
8
 71
3
 72
8
 73
4
 74
0
 40
0
 40
0
 40
0
 40
0
 40
1
 40
1
 40
1
 40
1
 10
65.358032
 20
160.319114
 30
0.0
 10
65.376405
 20
160.410983
 30
0.0
 10
65.475990
 20
160.489989
 30
0.0
 10
65.656790
 20
160.556136
 30
0.0
  0
SPLINE
  5
23a
100
AcDbEntity
  8
Layer_1
 62
7
100
AcDbSpline
 70
8
 71
3
 72
8
 73
4
 74
0
 40
0
 40
0
 40
0
 40
0
 40
1
 40
1
 40
1
 40
1
 10
65.656790
 20
160.556136
 30
0.0
 10
65.837587
 20
160.622280
 30
0.0
 10
66.044845
 20
160.655354
 30
0.0
 10
66.278562
 20
160.655354
 30
0.0
  0
SPLINE
  5
23b
100
AcDbEntity
  8
Layer_1
 62
7
100
AcDbSpline
 70
8
 71
3
 72
8
 73
4
 74
0
 40
0
 40
0
 40
0
 40
0
 40
1
 40
1
 40
1
 40
1
 10
66.278562
 20
160.655354
 30
0.0
 10
66.504924
 20
160.655354
 30
0.0
 10
66.694544
 20
160.616402
 30
0.0
 10
66.847415
 20
160.538497
 30
0.0
  0
SPLINE
  5
23c
100
AcDbEntity
  8
Layer_1
 62
7
100
AcDbSpline
 70
8
 71
3
 72
8
 73
4
 74
0
 40
0
 40
0
 40
0
 40
0
 40
1
 40
1
 40
1
 40
1
 10
66.228950
 20
160.493299
 30
0.0
 10
66.073141
 20
160.493296
 30
0.0
 10
65.983843
 20
160.436338
 30
0.0
 10
65.961062
 20
160.322422
 30
0.0
  0
SPLINE
  5
23d
100
AcDbEntity
  8
Layer_1
 62
7
100
AcDbSpline
 70
8
 71
3
 72
8
 73
4
 74
0
 40
0
 40
0
 40
0
 40
0
 40
1
 40
1
 40
1
 40
1
 10
65.961062
 20
160.322422
 30
0.0
 10
65.938287
 20
160.207767
 30
0.0
 10
66.003686
 20
160.150442
 30
0.0
 10
66.157294
 20
160.150442
 30
0.0
  0
SPLINE
  5
23e
100
AcDbEntity
  8
Layer_1
 62
7
100
AcDbSpline
 70
8
 71
3
 72
8
 73
4
 74
0
 40
0
 40
0
 40
0
 40
0
 40
1
 40
1
 40
1
 40
1
 10
66.157294
 20
160.150442
 30
0.0
 10
66.313103
 20
160.150442
 30
0.0
 10
66.402398
 20
160.207767
 30
0.0
 10
66.425185
 20
160.322422
 30
0.0
  0
SPLINE
  5
23f
100
AcDbEntity
  8
Layer_1
 62
7
100
AcDbSpline
 70
8
 71
3
 72
8
 73
4
 74
0
 40
0
 40
0
 40
0
 40
0
 40
1
 40
1
 40
1
 40
1
 10
66.425185
 20
160.322422
 30
0.0
 10
66.447960
 20
160.436338
 30
0.0
 10
66.382555
 20
160.493296
 30
0.0
 10
66.228950
 20
160.493299
 30
0.0
  0
SPLINE
  5
240
100
AcDbEntity
  8
Layer_1
 62
7
100
AcDbSpline
 70
8
 71
3
 72
8
 73
4
 74
0
 40
0
 40
0
 40
0
 40
0
 40
1
 40
1
 40
1
 40
1
 10
65.548752
 20
159.488983
 30
0.0
 10
65.487750
 20
159.455176
 30
0.0
 10
65.453943
 20
159.422102
 30
0.0
 10
65.447327
 20
159.389765
 30
0.0
  0
SPLINE
  5
241
100
AcDbEntity
  8
Layer_1
 62
7
100
AcDbSpline
 70
8
 71
3
 72
8
 73
4
 74
0
 40
0
 40
0
 40
0
 40
0
 40
1
 40
1
 40
1
 40
1
 10
65.447327
 20
159.389765
 30
0.0
 10
65.429689
 20
159.302305
 30
0.0
 10
65.618571
 20
159.258577
 30
0.0
 10
66.013979
 20
159.258577
 30
0.0
  0
SPLINE
  5
242
100
AcDbEntity
  8
Layer_1
 62
7
100
AcDbSpline
 70
8
 71
3
 72
8
 73
4
 74
0
 40
0
 40
0
 40
0
 40
0
 40
1
 40
1
 40
1
 40
1
 10
66.013979
 20
159.258577
 30
0.0
 10
66.443925
 20
159.258577
 30
0.0
 10
66.666982
 20
159.297529
 30
0.0
 10
66.683153
 20
159.375434
 30
0.0
  0
SPLINE
  5
243
100
AcDbEntity
  8
Layer_1
 62
7
100
AcDbSpline
 70
8
 71
3
 72
8
 73
4
 74
0
 40
0
 40
0
 40
0
 40
0
 40
1
 40
1
 40
1
 40
1
 10
66.683153
 20
159.375434
 30
0.0
 10
66.697857
 20
159.448927
 30
0.0
 10
66.601571
 20
159.485676
 30
0.0
 10
66.394316
 20
159.485676
 30
0.0
  0
LWPOLYLINE
  5
244
100
AcDbEntity
  8
Layer_1
 62
7
100
AcDbPolyline
 90
4
 70
0
 10
65.576311
 20
159.889177
 30
0.0
 10
65.741677
 20
159.893580
 30
0.0
 10
66.064689
 20
159.903486
 30
0.0
 10
66.448336
 20
159.914521
 30
0.0
  0
LWPOLYLINE
  5
245
100
AcDbEntity
  8
Layer_1
 62
7
100
AcDbPolyline
 90
2
 70
0
 10
66.394316
 20
159.485676
 30
0.0
 10
65.548752
 20
159.488978
 30
0.0
  0
SPLINE
  5
246
100
AcDbEntity
  8
Layer_1
 62
7
100
AcDbSpline
 70
8
 71
3
 72
8
 73
4
 74
0
 40
0
 40
0
 40
0
 40
0
 40
1
 40
1
 40
1
 40
1
 10
68.669760
 20
159.802086
 30
0.0
 10
68.494842
 20
159.618345
 30
0.0
 10
68.270681
 20
159.526476
 30
0.0
 10
67.997279
 20
159.526476
 30
0.0
  0
SPLINE
  5
247
100
AcDbEntity
  8
Layer_1
 62
7
100
AcDbSpline
 70
8
 71
3
 72
8
 73
4
 74
0
 40
0
 40
0
 40
0
 40
0
 40
1
 40
1
 40
1
 40
1
 10
67.997279
 20
159.526476
 30
0.0
 10
67.833384
 20
159.526476
 30
0.0
 10
67.699622
 20
159.559550
 30
0.0
 10
67.595992
 20
159.625697
 30
0.0
  0
SPLINE
  5
248
100
AcDbEntity
  8
Layer_1
 62
7
100
AcDbSpline
 70
8
 71
3
 72
8
 73
4
 74
0
 40
0
 40
0
 40
0
 40
0
 40
1
 40
1
 40
1
 40
1
 10
67.595992
 20
159.625697
 30
0.0
 10
67.492366
 20
159.691842
 30
0.0
 10
67.449736
 20
159.771584
 30
0.0
 10
67.468112
 20
159.864923
 30
0.0
  0
LWPOLYLINE
  5
249
100
AcDbEntity
  8
Layer_1
 62
7
100
AcDbPolyline
 90
5
 70
0
 10
69.467922
 20
160.655365
 30
0.0
 10
69.306965
 20
159.851695
 30
0.0
 10
69.678485
 20
159.576088
 30
0.0
 10
68.624563
 20
159.576088
 30
0.0
 10
68.669760
 20
159.802086
 30
0.0
  0
SPLINE
  5
24a
100
AcDbEntity
  8
Layer_1
 62
7
100
AcDbSpline
 70
8
 71
3
 72
8
 73
4
 74
0
 40
0
 40
0
 40
0
 40
0
 40
1
 40
1
 40
1
 40
1
 10
68.132878
 20
160.052327
 30
0.0
 10
68.115239
 20
159.961192
 30
0.0
 10
68.120742
 20
159.897249
 30
0.0
 10
68.149416
 20
159.860503
 30
0.0
  0
SPLINE
  5
24b
100
AcDbEntity
  8
Layer_1
 62
7
100
AcDbSpline
 70
8
 71
3
 72
8
 73
4
 74
0
 40
0
 40
0
 40
0
 40
0
 40
1
 40
1
 40
1
 40
1
 10
68.149416
 20
159.860503
 30
0.0
 10
68.178815
 20
159.823755
 30
0.0
 10
68.238344
 20
159.805380
 30
0.0
 10
68.328009
 20
159.805383
 30
0.0
  0
SPLINE
  5
24c
100
AcDbEntity
  8
Layer_1
 62
7
100
AcDbSpline
 70
8
 71
3
 72
8
 73
4
 74
0
 40
0
 40
0
 40
0
 40
0
 40
1
 40
1
 40
1
 40
1
 10
68.328009
 20
159.805383
 30
0.0
 10
68.428698
 20
159.805380
 30
0.0
 10
68.516525
 20
159.834412
 30
0.0
 10
68.591492
 20
159.892474
 30
0.0
  0
SPLINE
  5
24d
100
AcDbEntity
  8
Layer_1
 62
7
100
AcDbSpline
 70
8
 71
3
 72
8
 73
4
 74
0
 40
0
 40
0
 40
0
 40
0
 40
1
 40
1
 40
1
 40
1
 10
68.591492
 20
159.892474
 30
0.0
 10
68.667189
 20
159.950535
 30
0.0
 10
68.714227
 20
160.025499
 30
0.0
 10
68.732603
 20
160.117368
 30
0.0
  0
LWPOLYLINE
  5
24e
100
AcDbEntity
  8
Layer_1
 62
7
100
AcDbPolyline
 90
5
 70
0
 10
67.468112
 20
159.864923
 30
0.0
 10
67.566229
 20
160.353300
 30
0.0
 10
67.194709
 20
160.630010
 30
0.0
 10
68.254146
 20
160.655354
 30
0.0
 10
68.132878
 20
160.052327
 30
0.0
  0
LWPOLYLINE
  5
24f
100
AcDbEntity
  8
Layer_1
 62
7
100
AcDbPolyline
 90
4
 70
0
 10
68.732603
 20
160.117368
 30
0.0
 10
68.780008
 20
160.353289
 30
0.0
 10
68.329113
 20
160.629999
 30
0.0
 10
69.467924
 20
160.655343
 30
0.0
  0
SPLINE
  5
250
100
AcDbEntity
  8
Layer_1
 62
7
100
AcDbSpline
 70
8
 71
3
 72
8
 73
4
 74
0
 40
0
 40
0
 40
0
 40
0
 40
1
 40
1
 40
1
 40
1
 10
70.440265
 20
160.045723
 30
0.0
 10
70.401312
 20
159.851695
 30
0.0
 10
70.557855
 20
159.754681
 30
0.0
 10
70.909899
 20
159.754681
 30
0.0
  0
SPLINE
  5
251
100
AcDbEntity
  8
Layer_1
 62
7
100
AcDbSpline
 70
8
 71
3
 72
8
 73
4
 74
0
 40
0
 40
0
 40
0
 40
0
 40
1
 40
1
 40
1
 40
1
 10
70.909899
 20
159.754681
 30
0.0
 10
71.243568
 20
159.754681
 30
0.0
 10
71.475811
 20
159.817885
 30
0.0
 10
71.606635
 20
159.944298
 30
0.0
  0
SPLINE
  5
252
100
AcDbEntity
  8
Layer_1
 62
7
100
AcDbSpline
 70
8
 71
3
 72
8
 73
4
 74
0
 40
0
 40
0
 40
0
 40
0
 40
1
 40
1
 40
1
 40
1
 10
71.606635
 20
159.944298
 30
0.0
 10
71.613973
 20
159.914165
 30
0.0
 10
71.615441
 20
159.889544
 30
0.0
 10
71.611038
 20
159.870435
 30
0.0
  0
SPLINE
  5
253
100
AcDbEntity
  8
Layer_1
 62
7
100
AcDbSpline
 70
8
 71
3
 72
8
 73
4
 74
0
 40
0
 40
0
 40
0
 40
0
 40
1
 40
1
 40
1
 40
1
 10
71.611038
 20
159.870435
 30
0.0
 10
71.589730
 20
159.763868
 30
0.0
 10
71.496749
 20
159.678244
 30
0.0
 10
71.332124
 20
159.613570
 30
0.0
  0
SPLINE
  5
254
100
AcDbEntity
  8
Layer_1
 62
7
100
AcDbSpline
 70
8
 71
3
 72
8
 73
4
 74
0
 40
0
 40
0
 40
0
 40
0
 40
1
 40
1
 40
1
 40
1
 10
71.332124
 20
159.613570
 30
0.0
 10
71.167492
 20
159.549630
 30
0.0
 10
70.959867
 20
159.517657
 30
0.0
 10
70.709248
 20
159.517657
 30
0.0
  0
SPLINE
  5
255
100
AcDbEntity
  8
Layer_1
 62
7
100
AcDbSpline
 70
8
 71
3
 72
8
 73
4
 74
0
 40
0
 40
0
 40
0
 40
0
 40
1
 40
1
 40
1
 40
1
 10
70.709248
 20
159.517657
 30
0.0
 10
70.396159
 20
159.517657
 30
0.0
 10
70.153623
 20
159.570574
 30
0.0
 10
69.981645
 20
159.676407
 30
0.0
  0
SPLINE
  5
256
100
AcDbEntity
  8
Layer_1
 62
7
100
AcDbSpline
 70
8
 71
3
 72
8
 73
4
 74
0
 40
0
 40
0
 40
0
 40
0
 40
1
 40
1
 40
1
 40
1
 10
69.981645
 20
159.676407
 30
0.0
 10
69.810401
 20
159.782240
 30
0.0
 10
69.742050
 20
159.921147
 30
0.0
 10
69.776594
 20
160.093128
 30
0.0
  0
SPLINE
  5
257
100
AcDbEntity
  8
Layer_1
 62
7
100
AcDbSpline
 70
8
 71
3
 72
8
 73
4
 74
0
 40
0
 40
0
 40
0
 40
0
 40
1
 40
1
 40
1
 40
1
 10
69.776594
 20
160.093128
 30
0.0
 10
69.809665
 20
160.259961
 30
0.0
 10
69.931669
 20
160.401439
 30
0.0
 10
70.142599
 20
160.517562
 30
0.0
  0
SPLINE
  5
258
100
AcDbEntity
  8
Layer_1
 62
7
100
AcDbSpline
 70
8
 71
3
 72
8
 73
4
 74
0
 40
0
 40
0
 40
0
 40
0
 40
1
 40
1
 40
1
 40
1
 10
70.142599
 20
160.517562
 30
0.0
 10
70.354266
 20
160.633685
 30
0.0
 10
70.595332
 20
160.691747
 30
0.0
 10
70.865794
 20
160.691747
 30
0.0
  0
SPLINE
  5
259
100
AcDbEntity
  8
Layer_1
 62
7
100
AcDbSpline
 70
8
 71
3
 72
8
 73
4
 74
0
 40
0
 40
0
 40
0
 40
0
 40
1
 40
1
 40
1
 40
1
 10
70.865794
 20
160.691747
 30
0.0
 10
71.110531
 20
160.691747
 30
0.0
 10
71.300884
 20
160.634419
 30
0.0
 10
71.436853
 20
160.519769
 30
0.0
  0
SPLINE
  5
25a
100
AcDbEntity
  8
Layer_1
 62
7
100
AcDbSpline
 70
8
 71
3
 72
8
 73
4
 74
0
 40
0
 40
0
 40
0
 40
0
 40
1
 40
1
 40
1
 40
1
 10
71.436853
 20
160.519769
 30
0.0
 10
71.573553
 20
160.405850
 30
0.0
 10
71.640065
 20
160.247834
 30
0.0
 10
71.636393
 20
160.045723
 30
0.0
  0
SPLINE
  5
25b
100
AcDbEntity
  8
Layer_1
 62
7
100
AcDbSpline
 70
8
 71
3
 72
8
 73
4
 74
0
 40
0
 40
0
 40
0
 40
0
 40
1
 40
1
 40
1
 40
1
 10
71.131481
 20
160.234239
 30
0.0
 10
71.165285
 20
160.401072
 30
0.0
 10
71.076357
 20
160.484488
 30
0.0
 10
70.864693
 20
160.484491
 30
0.0
  0
SPLINE
  5
25c
100
AcDbEntity
  8
Layer_1
 62
7
100
AcDbSpline
 70
8
 71
3
 72
8
 73
4
 74
0
 40
0
 40
0
 40
0
 40
0
 40
1
 40
1
 40
1
 40
1
 10
70.864693
 20
160.484491
 30
0.0
 10
70.771351
 20
160.484488
 30
0.0
 10
70.688301
 20
160.460615
 30
0.0
 10
70.615542
 20
160.412832
 30
0.0
  0
SPLINE
  5
25d
100
AcDbEntity
  8
Layer_1
 62
7
100
AcDbSpline
 70
8
 71
3
 72
8
 73
4
 74
0
 40
0
 40
0
 40
0
 40
0
 40
1
 40
1
 40
1
 40
1
 10
70.615542
 20
160.412832
 30
0.0
 10
70.543516
 20
160.365060
 30
0.0
 10
70.500155
 20
160.305528
 30
0.0
 10
70.485457
 20
160.234239
 30
0.0
  0
LWPOLYLINE
  5
25e
100
AcDbEntity
  8
Layer_1
 62
7
100
AcDbPolyline
 90
2
 70
0
 10
71.636401
 20
160.045723
 30
0.0
 10
70.440265
 20
160.045723
 30
0.0
  0
LWPOLYLINE
  5
25f
100
AcDbEntity
  8
Layer_1
 62
7
100
AcDbPolyline
 90
2
 70
0
 10
70.485457
 20
160.234239
 30
0.0
 10
71.131481
 20
160.234239
 30
0.0
  0
SPLINE
  5
260
100
AcDbEntity
  8
Layer_1
 62
7
100
AcDbSpline
 70
8
 71
3
 72
8
 73
4
 74
0
 40
0
 40
0
 40
0
 40
0
 40
1
 40
1
 40
1
 40
1
 10
45.622348
 20
158.309393
 30
0.0
 10
45.957484
 20
158.309393
 30
0.0
 10
46.238606
 20
158.227077
 30
0.0
 10
46.465707
 20
158.062449
 30
0.0
  0
SPLINE
  5
261
100
AcDbEntity
  8
Layer_1
 62
7
100
AcDbSpline
 70
8
 71
3
 72
8
 73
4
 74
0
 40
0
 40
0
 40
0
 40
0
 40
1
 40
1
 40
1
 40
1
 10
46.465707
 20
158.062449
 30
0.0
 10
46.692806
 20
157.897820
 30
0.0
 10
46.785041
 20
157.709304
 30
0.0
 10
46.742417
 20
157.496904
 30
0.0
  0
SPLINE
  5
262
100
AcDbEntity
  8
Layer_1
 62
7
100
AcDbSpline
 70
8
 71
3
 72
8
 73
4
 74
0
 40
0
 40
0
 40
0
 40
0
 40
1
 40
1
 40
1
 40
1
 10
46.742417
 20
157.496904
 30
0.0
 10
46.700522
 20
157.289645
 30
0.0
 10
46.529278
 20
157.105540
 30
0.0
 10
46.228686
 20
156.944586
 30
0.0
  0
SPLINE
  5
263
100
AcDbEntity
  8
Layer_1
 62
7
100
AcDbSpline
 70
8
 71
3
 72
8
 73
4
 74
0
 40
0
 40
0
 40
0
 40
0
 40
1
 40
1
 40
1
 40
1
 10
46.228686
 20
156.944586
 30
0.0
 10
45.928088
 20
156.784366
 30
0.0
 10
45.605076
 20
156.704254
 30
0.0
 10
45.259647
 20
156.704254
 30
0.0
  0
SPLINE
  5
264
100
AcDbEntity
  8
Layer_1
 62
7
100
AcDbSpline
 70
8
 71
3
 72
8
 73
4
 74
0
 40
0
 40
0
 40
0
 40
0
 40
1
 40
1
 40
1
 40
1
 10
45.259647
 20
156.704254
 30
0.0
 10
44.911281
 20
156.704254
 30
0.0
 10
44.622076
 20
156.781425
 30
0.0
 10
44.392034
 20
156.935767
 30
0.0
  0
SPLINE
  5
265
100
AcDbEntity
  8
Layer_1
 62
7
100
AcDbSpline
 70
8
 71
3
 72
8
 73
4
 74
0
 40
0
 40
0
 40
0
 40
0
 40
1
 40
1
 40
1
 40
1
 10
44.392034
 20
156.935767
 30
0.0
 10
44.161995
 20
157.090106
 30
0.0
 10
44.067552
 20
157.270169
 30
0.0
 10
44.108711
 20
157.475957
 30
0.0
  0
SPLINE
  5
266
100
AcDbEntity
  8
Layer_1
 62
7
100
AcDbSpline
 70
8
 71
3
 72
8
 73
4
 74
0
 40
0
 40
0
 40
0
 40
0
 40
1
 40
1
 40
1
 40
1
 10
44.108711
 20
157.475957
 30
0.0
 10
44.152072
 20
157.693502
 30
0.0
 10
44.326990
 20
157.886794
 30
0.0
 10
44.633467
 20
158.055836
 30
0.0
  0
SPLINE
  5
267
100
AcDbEntity
  8
Layer_1
 62
7
100
AcDbSpline
 70
8
 71
3
 72
8
 73
4
 74
0
 40
0
 40
0
 40
0
 40
0
 40
1
 40
1
 40
1
 40
1
 10
44.633467
 20
158.055836
 30
0.0
 10
44.940677
 20
158.224873
 30
0.0
 10
45.270304
 20
158.309393
 30
0.0
 10
45.622348
 20
158.309393
 30
0.0
  0
SPLINE
  5
268
100
AcDbEntity
  8
Layer_1
 62
7
100
AcDbSpline
 70
8
 71
3
 72
8
 73
4
 74
0
 40
0
 40
0
 40
0
 40
0
 40
1
 40
1
 40
1
 40
1
 10
45.551792
 20
158.030479
 30
0.0
 10
45.248254
 20
158.030479
 30
0.0
 10
45.059741
 20
157.847107
 30
0.0
 10
44.986245
 20
157.480365
 30
0.0
  0
SPLINE
  5
269
100
AcDbEntity
  8
Layer_1
 62
7
100
AcDbSpline
 70
8
 71
3
 72
8
 73
4
 74
0
 40
0
 40
0
 40
0
 40
0
 40
1
 40
1
 40
1
 40
1
 10
44.986245
 20
157.480365
 30
0.0
 10
44.920100
 20
157.148901
 30
0.0
 10
45.035120
 20
156.983169
 30
0.0
 10
45.331306
 20
156.983172
 30
0.0
  0
SPLINE
  5
26a
100
AcDbEntity
  8
Layer_1
 62
7
100
AcDbSpline
 70
8
 71
3
 72
8
 73
4
 74
0
 40
0
 40
0
 40
0
 40
0
 40
1
 40
1
 40
1
 40
1
 10
45.331306
 20
156.983172
 30
0.0
 10
45.620878
 20
156.983169
 30
0.0
 10
45.799104
 20
157.151842
 30
0.0
 10
45.865985
 20
157.489185
 30
0.0
  0
SPLINE
  5
26b
100
AcDbEntity
  8
Layer_1
 62
7
100
AcDbSpline
 70
8
 71
3
 72
8
 73
4
 74
0
 40
0
 40
0
 40
0
 40
0
 40
1
 40
1
 40
1
 40
1
 10
45.865985
 20
157.489185
 30
0.0
 10
45.938745
 20
157.850048
 30
0.0
 10
45.834012
 20
158.030479
 30
0.0
 10
45.551792
 20
158.030479
 30
0.0
  0
LWPOLYLINE
  5
26c
100
AcDbEntity
  8
Layer_1
 62
7
100
AcDbPolyline
 90
11
 70
0
 10
72.011229
 20
160.655365
 30
0.0
 10
73.885360
 20
160.655365
 30
0.0
 10
72.761983
 20
159.794367
 30
0.0
 10
73.270203
 20
159.794367
 30
0.0
 10
73.716687
 20
160.150453
 30
0.0
 10
73.602034
 20
159.576088
 30
0.0
 10
71.634197
 20
159.576088
 30
0.0
 10
72.777417
 20
160.466852
 30
0.0
 10
72.349673
 20
160.466852
 30
0.0
 10
71.902088
 20
160.109663
 30
0.0
 10
72.011229
 20
160.655365
 30
0.0
  0
SPLINE
  5
26d
100
AcDbEntity
  8
Layer_1
 62
7
100
AcDbSpline
 70
8
 71
3
 72
8
 73
4
 74
0
 40
0
 40
0
 40
0
 40
0
 40
1
 40
1
 40
1
 40
1
 10
49.136909
 20
158.097726
 30
0.0
 10
48.651103
 20
157.725839
 30
0.0
 10
48.372925
 20
157.363508
 30
0.0
 10
48.302370
 20
157.010731
 30
0.0
  0
SPLINE
  5
26e
100
AcDbEntity
  8
Layer_1
 62
7
100
AcDbSpline
 70
8
 71
3
 72
8
 73
4
 74
0
 40
0
 40
0
 40
0
 40
0
 40
1
 40
1
 40
1
 40
1
 10
48.302370
 20
157.010731
 30
0.0
 10
48.289867
 20
156.951199
 30
0.0
 10
48.285832
 20
156.865578
 30
0.0
 10
48.290234
 20
156.753866
 30
0.0
  0
LWPOLYLINE
  5
26f
100
AcDbEntity
  8
Layer_1
 62
7
100
AcDbPolyline
 90
4
 70
0
 10
47.086376
 20
158.258683
 30
0.0
 10
49.204146
 20
158.258683
 30
0.0
 10
49.178802
 20
158.129699
 30
0.0
 10
49.136909
 20
158.097726
 30
0.0
  0
SPLINE
  5
270
100
AcDbEntity
  8
Layer_1
 62
7
100
AcDbSpline
 70
8
 71
3
 72
8
 73
4
 74
0
 40
0
 40
0
 40
0
 40
0
 40
1
 40
1
 40
1
 40
1
 10
47.421520
 20
156.753866
 30
0.0
 10
47.512653
 20
157.113256
 30
0.0
 10
47.890788
 20
157.510865
 30
0.0
 10
48.555921
 20
157.946695
 30
0.0
  0
LWPOLYLINE
  5
271
100
AcDbEntity
  8
Layer_1
 62
7
100
AcDbPolyline
 90
2
 70
0
 10
48.290234
 20
156.753866
 30
0.0
 10
47.421520
 20
156.753866
 30
0.0
  0
LWPOLYLINE
  5
272
100
AcDbEntity
  8
Layer_1
 62
7
100
AcDbPolyline
 90
4
 70
0
 10
48.555921
 20
157.946695
 30
0.0
 10
47.599013
 20
157.946695
 30
0.0
 10
46.935347
 20
157.503519
 30
0.0
 10
47.086381
 20
158.258683
 30
0.0
  0
SPLINE
  5
273
100
AcDbEntity
  8
Layer_1
 62
7
100
AcDbSpline
 70
8
 71
3
 72
8
 73
4
 74
0
 40
0
 40
0
 40
0
 40
0
 40
1
 40
1
 40
1
 40
1
 10
52.258979
 20
158.309393
 30
0.0
 10
52.594117
 20
158.309393
 30
0.0
 10
52.875236
 20
158.227077
 30
0.0
 10
53.102340
 20
158.062449
 30
0.0
  0
SPLINE
  5
274
100
AcDbEntity
  8
Layer_1
 62
7
100
AcDbSpline
 70
8
 71
3
 72
8
 73
4
 74
0
 40
0
 40
0
 40
0
 40
0
 40
1
 40
1
 40
1
 40
1
 10
53.102340
 20
158.062449
 30
0.0
 10
53.329436
 20
157.897820
 30
0.0
 10
53.421675
 20
157.709304
 30
0.0
 10
53.379048
 20
157.496904
 30
0.0
  0
SPLINE
  5
275
100
AcDbEntity
  8
Layer_1
 62
7
100
AcDbSpline
 70
8
 71
3
 72
8
 73
4
 74
0
 40
0
 40
0
 40
0
 40
0
 40
1
 40
1
 40
1
 40
1
 10
53.379048
 20
157.496904
 30
0.0
 10
53.337155
 20
157.289645
 30
0.0
 10
53.165911
 20
157.105540
 30
0.0
 10
52.865316
 20
156.944586
 30
0.0
  0
SPLINE
  5
276
100
AcDbEntity
  8
Layer_1
 62
7
100
AcDbSpline
 70
8
 71
3
 72
8
 73
4
 74
0
 40
0
 40
0
 40
0
 40
0
 40
1
 40
1
 40
1
 40
1
 10
52.865316
 20
156.944586
 30
0.0
 10
52.564718
 20
156.784366
 30
0.0
 10
52.241707
 20
156.704254
 30
0.0
 10
51.896281
 20
156.704254
 30
0.0
  0
SPLINE
  5
277
100
AcDbEntity
  8
Layer_1
 62
7
100
AcDbSpline
 70
8
 71
3
 72
8
 73
4
 74
0
 40
0
 40
0
 40
0
 40
0
 40
1
 40
1
 40
1
 40
1
 10
51.896281
 20
156.704254
 30
0.0
 10
51.547911
 20
156.704254
 30
0.0
 10
51.258707
 20
156.781425
 30
0.0
 10
51.028667
 20
156.935767
 30
0.0
  0
SPLINE
  5
278
100
AcDbEntity
  8
Layer_1
 62
7
100
AcDbSpline
 70
8
 71
3
 72
8
 73
4
 74
0
 40
0
 40
0
 40
0
 40
0
 40
1
 40
1
 40
1
 40
1
 10
51.028667
 20
156.935767
 30
0.0
 10
50.798625
 20
157.090106
 30
0.0
 10
50.704185
 20
157.270169
 30
0.0
 10
50.745342
 20
157.475957
 30
0.0
  0
SPLINE
  5
279
100
AcDbEntity
  8
Layer_1
 62
7
100
AcDbSpline
 70
8
 71
3
 72
8
 73
4
 74
0
 40
0
 40
0
 40
0
 40
0
 40
1
 40
1
 40
1
 40
1
 10
50.745342
 20
157.475957
 30
0.0
 10
50.788705
 20
157.693502
 30
0.0
 10
50.963624
 20
157.886794
 30
0.0
 10
51.270100
 20
158.055836
 30
0.0
  0
SPLINE
  5
27a
100
AcDbEntity
  8
Layer_1
 62
7
100
AcDbSpline
 70
8
 71
3
 72
8
 73
4
 74
0
 40
0
 40
0
 40
0
 40
0
 40
1
 40
1
 40
1
 40
1
 10
51.270100
 20
158.055836
 30
0.0
 10
51.577310
 20
158.224873
 30
0.0
 10
51.906935
 20
158.309393
 30
0.0
 10
52.258979
 20
158.309393
 30
0.0
  0
SPLINE
  5
27b
100
AcDbEntity
  8
Layer_1
 62
7
100
AcDbSpline
 70
8
 71
3
 72
8
 73
4
 74
0
 40
0
 40
0
 40
0
 40
0
 40
1
 40
1
 40
1
 40
1
 10
52.188423
 20
158.030479
 30
0.0
 10
51.884887
 20
158.030479
 30
0.0
 10
51.696371
 20
157.847107
 30
0.0
 10
51.622878
 20
157.480365
 30
0.0
  0
SPLINE
  5
27c
100
AcDbEntity
  8
Layer_1
 62
7
100
AcDbSpline
 70
8
 71
3
 72
8
 73
4
 74
0
 40
0
 40
0
 40
0
 40
0
 40
1
 40
1
 40
1
 40
1
 10
51.622878
 20
157.480365
 30
0.0
 10
51.556731
 20
157.148901
 30
0.0
 10
51.671750
 20
156.983169
 30
0.0
 10
51.967937
 20
156.983172
 30
0.0
  0
SPLINE
  5
27d
100
AcDbEntity
  8
Layer_1
 62
7
100
AcDbSpline
 70
8
 71
3
 72
8
 73
4
 74
0
 40
0
 40
0
 40
0
 40
0
 40
1
 40
1
 40
1
 40
1
 10
51.967937
 20
156.983172
 30
0.0
 10
52.257508
 20
156.983169
 30
0.0
 10
52.435734
 20
157.151842
 30
0.0
 10
52.502618
 20
157.489185
 30
0.0
  0
SPLINE
  5
27e
100
AcDbEntity
  8
Layer_1
 62
7
100
AcDbSpline
 70
8
 71
3
 72
8
 73
4
 74
0
 40
0
 40
0
 40
0
 40
0
 40
1
 40
1
 40
1
 40
1
 10
52.502618
 20
157.489185
 30
0.0
 10
52.575375
 20
157.850048
 30
0.0
 10
52.470645
 20
158.030479
 30
0.0
 10
52.188423
 20
158.030479
 30
0.0
  0
LWPOLYLINE
  5
27f
100
AcDbEntity
  8
Layer_1
 62
7
100
AcDbPolyline
 90
5
 70
0
 10
50.493989
 20
158.334751
 30
0.0
 10
50.776211
 20
158.334751
 30
0.0
 10
49.142410
 20
156.527865
 30
0.0
 10
48.876723
 20
156.527865
 30
0.0
 10
50.493989
 20
158.334751
 30
0.0
  0
LWPOLYLINE
  5
280
100
AcDbEntity
  8
Layer_1
 62
7
100
AcDbPolyline
 90
8
 70
0
 10
55.075689
 20
158.258683
 30
0.0
 10
54.845283
 20
157.105540
 30
0.0
 10
55.376654
 20
156.753866
 30
0.0
 10
53.344874
 20
156.753866
 30
0.0
 10
54.092322
 20
157.105540
 30
0.0
 10
54.257688
 20
157.932364
 30
0.0
 10
53.645838
 20
158.258683
 30
0.0
 10
55.075689
 20
158.258683
 30
0.0
  0
LWPOLYLINE
  5
281
100
AcDbEntity
  8
Layer_1
 62
7
100
AcDbPolyline
 90
5
 70
0
 10
56.980689
 20
158.334751
 30
0.0
 10
57.262911
 20
158.334751
 30
0.0
 10
55.629110
 20
156.527865
 30
0.0
 10
55.363423
 20
156.527865
 30
0.0
 10
56.980689
 20
158.334751
 30
0.0
  0
SPLINE
  5
282
100
AcDbEntity
  8
Layer_1
 62
7
100
AcDbSpline
 70
8
 71
3
 72
8
 73
4
 74
0
 40
0
 40
0
 40
0
 40
0
 40
1
 40
1
 40
1
 40
1
 10
57.076602
 20
156.753866
 30
0.0
 10
57.294881
 20
157.013302
 30
0.0
 10
57.625612
 20
157.224601
 30
0.0
 10
58.068788
 20
157.387763
 30
0.0
  0
LWPOLYLINE
  5
283
100
AcDbEntity
  8
Layer_1
 62
7
100
AcDbPolyline
 90
3
 70
0
 10
59.618806
 20
157.478161
 30
0.0
 10
59.474388
 20
156.753866
 30
0.0
 10
57.076602
 20
156.753866
 30
0.0
  0
SPLINE
  5
284
100
AcDbEntity
  8
Layer_1
 62
7
100
AcDbSpline
 70
8
 71
3
 72
8
 73
4
 74
0
 40
0
 40
0
 40
0
 40
0
 40
1
 40
1
 40
1
 40
1
 10
58.341090
 20
157.488084
 30
0.0
 10
58.660792
 20
157.605675
 30
0.0
 10
58.833506
 20
157.728413
 30
0.0
 10
58.859231
 20
157.856297
 30
0.0
  0
SPLINE
  5
285
100
AcDbEntity
  8
Layer_1
 62
7
100
AcDbSpline
 70
8
 71
3
 72
8
 73
4
 74
0
 40
0
 40
0
 40
0
 40
0
 40
1
 40
1
 40
1
 40
1
 10
58.859231
 20
157.856297
 30
0.0
 10
58.887893
 20
157.998139
 30
0.0
 10
58.766625
 20
158.069064
 30
0.0
 10
58.495429
 20
158.069064
 30
0.0
  0
SPLINE
  5
286
100
AcDbEntity
  8
Layer_1
 62
7
100
AcDbSpline
 70
8
 71
3
 72
8
 73
4
 74
0
 40
0
 40
0
 40
0
 40
0
 40
1
 40
1
 40
1
 40
1
 10
58.495429
 20
158.069064
 30
0.0
 10
58.208062
 20
158.069064
 30
0.0
 10
58.044534
 20
157.970580
 30
0.0
 10
58.004848
 20
157.773614
 30
0.0
  0
SPLINE
  5
287
100
AcDbEntity
  8
Layer_1
 62
7
100
AcDbSpline
 70
8
 71
3
 72
8
 73
4
 74
0
 40
0
 40
0
 40
0
 40
0
 40
1
 40
1
 40
1
 40
1
 10
58.004848
 20
157.773614
 30
0.0
 10
57.990144
 20
157.698647
 30
0.0
 10
58.015149
 20
157.625518
 30
0.0
 10
58.079812
 20
157.554229
 30
0.0
  0
SPLINE
  5
288
100
AcDbEntity
  8
Layer_1
 62
7
100
AcDbSpline
 70
8
 71
3
 72
8
 73
4
 74
0
 40
0
 40
0
 40
0
 40
0
 40
1
 40
1
 40
1
 40
1
 10
58.079812
 20
157.554229
 30
0.0
 10
58.009256
 20
157.536590
 30
0.0
 10
57.941642
 20
157.527784
 30
0.0
 10
57.876965
 20
157.527784
 30
0.0
  0
SPLINE
  5
289
100
AcDbEntity
  8
Layer_1
 62
7
100
AcDbSpline
 70
8
 71
3
 72
8
 73
4
 74
0
 40
0
 40
0
 40
0
 40
0
 40
1
 40
1
 40
1
 40
1
 10
57.876965
 20
157.527784
 30
0.0
 10
57.697638
 20
157.527784
 30
0.0
 10
57.559098
 20
157.555724
 30
0.0
 10
57.461350
 20
157.611570
 30
0.0
  0
SPLINE
  5
28a
100
AcDbEntity
  8
Layer_1
 62
7
100
AcDbSpline
 70
8
 71
3
 72
8
 73
4
 74
0
 40
0
 40
0
 40
0
 40
0
 40
1
 40
1
 40
1
 40
1
 10
57.461350
 20
157.611570
 30
0.0
 10
57.363600
 20
157.668162
 30
0.0
 10
57.323914
 20
157.742759
 30
0.0
 10
57.342286
 20
157.835364
 30
0.0
  0
SPLINE
  5
28b
100
AcDbEntity
  8
Layer_1
 62
7
100
AcDbSpline
 70
8
 71
3
 72
8
 73
4
 74
0
 40
0
 40
0
 40
0
 40
0
 40
1
 40
1
 40
1
 40
1
 10
57.342286
 20
157.835364
 30
0.0
 10
57.368730
 20
157.968390
 30
0.0
 10
57.505814
 20
158.080102
 30
0.0
 10
57.753492
 20
158.170503
 30
0.0
  0
SPLINE
  5
28c
100
AcDbEntity
  8
Layer_1
 62
7
100
AcDbSpline
 70
8
 71
3
 72
8
 73
4
 74
0
 40
0
 40
0
 40
0
 40
0
 40
1
 40
1
 40
1
 40
1
 10
57.753492
 20
158.170503
 30
0.0
 10
58.001907
 20
158.260899
 30
0.0
 10
58.295153
 20
158.306100
 30
0.0
 10
58.633233
 20
158.306102
 30
0.0
  0
SPLINE
  5
28d
100
AcDbEntity
  8
Layer_1
 62
7
100
AcDbSpline
 70
8
 71
3
 72
8
 73
4
 74
0
 40
0
 40
0
 40
0
 40
0
 40
1
 40
1
 40
1
 40
1
 10
58.633233
 20
158.306102
 30
0.0
 10
58.969839
 20
158.306100
 30
0.0
 10
59.242875
 20
158.260899
 30
0.0
 10
59.452340
 20
158.170503
 30
0.0
  0
SPLINE
  5
28e
100
AcDbEntity
  8
Layer_1
 62
7
100
AcDbSpline
 70
8
 71
3
 72
8
 73
4
 74
0
 40
0
 40
0
 40
0
 40
0
 40
1
 40
1
 40
1
 40
1
 10
59.452340
 20
158.170503
 30
0.0
 10
59.662534
 20
158.080102
 30
0.0
 10
59.754403
 20
157.968020
 30
0.0
 10
59.727947
 20
157.834261
 30
0.0
  0
SPLINE
  5
28f
100
AcDbEntity
  8
Layer_1
 62
7
100
AcDbSpline
 70
8
 71
3
 72
8
 73
4
 74
0
 40
0
 40
0
 40
0
 40
0
 40
1
 40
1
 40
1
 40
1
 10
59.727947
 20
157.834261
 30
0.0
 10
59.711776
 20
157.753415
 30
0.0
 10
59.653348
 20
157.685431
 30
0.0
 10
59.552659
 20
157.630310
 30
0.0
  0
SPLINE
  5
290
100
AcDbEntity
  8
Layer_1
 62
7
100
AcDbSpline
 70
8
 71
3
 72
8
 73
4
 74
0
 40
0
 40
0
 40
0
 40
0
 40
1
 40
1
 40
1
 40
1
 10
59.552659
 20
157.630310
 30
0.0
 10
59.451971
 20
157.575189
 30
0.0
 10
59.259044
 20
157.505367
 30
0.0
 10
58.973883
 20
157.420850
 30
0.0
  0
LWPOLYLINE
  5
291
100
AcDbEntity
  8
Layer_1
 62
7
100
AcDbPolyline
 90
2
 70
0
 10
58.068788
 20
157.387763
 30
0.0
 10
58.341090
 20
157.488084
 30
0.0
  0
SPLINE
  5
292
100
AcDbEntity
  8
Layer_1
 62
7
100
AcDbSpline
 70
8
 71
3
 72
8
 73
4
 74
0
 40
0
 40
0
 40
0
 40
0
 40
1
 40
1
 40
1
 40
1
 10
58.645360
 20
157.323836
 30
0.0
 10
58.312425
 20
157.224616
 30
0.0
 10
58.038289
 20
157.133850
 30
0.0
 10
57.822947
 20
157.051534
 30
0.0
  0
LWPOLYLINE
  5
293
100
AcDbEntity
  8
Layer_1
 62
7
100
AcDbPolyline
 90
2
 70
0
 10
58.973883
 20
157.420850
 30
0.0
 10
58.645360
 20
157.323836
 30
0.0
  0
SPLINE
  5
294
100
AcDbEntity
  8
Layer_1
 62
7
100
AcDbSpline
 70
8
 71
3
 72
8
 73
4
 74
0
 40
0
 40
0
 40
0
 40
0
 40
1
 40
1
 40
1
 40
1
 10
61.347417
 20
158.309393
 30
0.0
 10
61.682554
 20
158.309393
 30
0.0
 10
61.963675
 20
158.227077
 30
0.0
 10
62.190776
 20
158.062449
 30
0.0
  0
SPLINE
  5
295
100
AcDbEntity
  8
Layer_1
 62
7
100
AcDbSpline
 70
8
 71
3
 72
8
 73
4
 74
0
 40
0
 40
0
 40
0
 40
0
 40
1
 40
1
 40
1
 40
1
 10
62.190776
 20
158.062449
 30
0.0
 10
62.417875
 20
157.897820
 30
0.0
 10
62.510111
 20
157.709304
 30
0.0
 10
62.467487
 20
157.496904
 30
0.0
  0
SPLINE
  5
296
100
AcDbEntity
  8
Layer_1
 62
7
100
AcDbSpline
 70
8
 71
3
 72
8
 73
4
 74
0
 40
0
 40
0
 40
0
 40
0
 40
1
 40
1
 40
1
 40
1
 10
62.467487
 20
157.496904
 30
0.0
 10
62.425591
 20
157.289645
 30
0.0
 10
62.254347
 20
157.105540
 30
0.0
 10
61.953755
 20
156.944586
 30
0.0
  0
SPLINE
  5
297
100
AcDbEntity
  8
Layer_1
 62
7
100
AcDbSpline
 70
8
 71
3
 72
8
 73
4
 74
0
 40
0
 40
0
 40
0
 40
0
 40
1
 40
1
 40
1
 40
1
 10
61.953755
 20
156.944586
 30
0.0
 10
61.653157
 20
156.784366
 30
0.0
 10
61.330145
 20
156.704254
 30
0.0
 10
60.984717
 20
156.704254
 30
0.0
  0
SPLINE
  5
298
100
AcDbEntity
  8
Layer_1
 62
7
100
AcDbSpline
 70
8
 71
3
 72
8
 73
4
 74
0
 40
0
 40
0
 40
0
 40
0
 40
1
 40
1
 40
1
 40
1
 10
60.984717
 20
156.704254
 30
0.0
 10
60.636350
 20
156.704254
 30
0.0
 10
60.347146
 20
156.781425
 30
0.0
 10
60.117104
 20
156.935767
 30
0.0
  0
SPLINE
  5
299
100
AcDbEntity
  8
Layer_1
 62
7
100
AcDbSpline
 70
8
 71
3
 72
8
 73
4
 74
0
 40
0
 40
0
 40
0
 40
0
 40
1
 40
1
 40
1
 40
1
 10
60.117104
 20
156.935767
 30
0.0
 10
59.887064
 20
157.090106
 30
0.0
 10
59.792621
 20
157.270169
 30
0.0
 10
59.833781
 20
157.475957
 30
0.0
  0
SPLINE
  5
29a
100
AcDbEntity
  8
Layer_1
 62
7
100
AcDbSpline
 70
8
 71
3
 72
8
 73
4
 74
0
 40
0
 40
0
 40
0
 40
0
 40
1
 40
1
 40
1
 40
1
 10
59.833781
 20
157.475957
 30
0.0
 10
59.877141
 20
157.693502
 30
0.0
 10
60.052060
 20
157.886794
 30
0.0
 10
60.358536
 20
158.055836
 30
0.0
  0
SPLINE
  5
29b
100
AcDbEntity
  8
Layer_1
 62
7
100
AcDbSpline
 70
8
 71
3
 72
8
 73
4
 74
0
 40
0
 40
0
 40
0
 40
0
 40
1
 40
1
 40
1
 40
1
 10
60.358536
 20
158.055836
 30
0.0
 10
60.665746
 20
158.224873
 30
0.0
 10
60.995373
 20
158.309393
 30
0.0
 10
61.347417
 20
158.309393
 30
0.0
  0
SPLINE
  5
29c
100
AcDbEntity
  8
Layer_1
 62
7
100
AcDbSpline
 70
8
 71
3
 72
8
 73
4
 74
0
 40
0
 40
0
 40
0
 40
0
 40
1
 40
1
 40
1
 40
1
 10
61.276862
 20
158.030479
 30
0.0
 10
60.973323
 20
158.030479
 30
0.0
 10
60.784810
 20
157.847107
 30
0.0
 10
60.711314
 20
157.480365
 30
0.0
  0
SPLINE
  5
29d
100
AcDbEntity
  8
Layer_1
 62
7
100
AcDbSpline
 70
8
 71
3
 72
8
 73
4
 74
0
 40
0
 40
0
 40
0
 40
0
 40
1
 40
1
 40
1
 40
1
 10
60.711314
 20
157.480365
 30
0.0
 10
60.645170
 20
157.148901
 30
0.0
 10
60.760189
 20
156.983169
 30
0.0
 10
61.056376
 20
156.983172
 30
0.0
  0
SPLINE
  5
29e
100
AcDbEntity
  8
Layer_1
 62
7
100
AcDbSpline
 70
8
 71
3
 72
8
 73
4
 74
0
 40
0
 40
0
 40
0
 40
0
 40
1
 40
1
 40
1
 40
1
 10
61.056376
 20
156.983172
 30
0.0
 10
61.345947
 20
156.983169
 30
0.0
 10
61.524173
 20
157.151842
 30
0.0
 10
61.591054
 20
157.489185
 30
0.0
  0
SPLINE
  5
29f
100
AcDbEntity
  8
Layer_1
 62
7
100
AcDbSpline
 70
8
 71
3
 72
8
 73
4
 74
0
 40
0
 40
0
 40
0
 40
0
 40
1
 40
1
 40
1
 40
1
 10
61.591054
 20
157.489185
 30
0.0
 10
61.663814
 20
157.850048
 30
0.0
 10
61.559081
 20
158.030479
 30
0.0
 10
61.276862
 20
158.030479
 30
0.0
  0
LWPOLYLINE
  5
2a0
100
AcDbEntity
  8
Layer_1
 62
7
100
AcDbPolyline
 90
3
 70
0
 10
57.822947
 20
157.051534
 30
0.0
 10
59.043338
 20
157.051534
 30
0.0
 10
59.618806
 20
157.478175
 30
0.0
  0
LWPOLYLINE
  5
2a1
100
AcDbEntity
  8
Layer_1
 62
7
100
AcDbPolyline
 90
8
 70
0
 10
64.164128
 20
158.258683
 30
0.0
 10
63.933719
 20
157.105540
 30
0.0
 10
64.465090
 20
156.753866
 30
0.0
 10
62.433313
 20
156.753866
 30
0.0
 10
63.180758
 20
157.105540
 30
0.0
 10
63.346124
 20
157.932364
 30
0.0
 10
62.734274
 20
158.258683
 30
0.0
 10
64.164128
 20
158.258683
 30
0.0
  0
SPLINE
  5
2a2
100
AcDbEntity
  8
Layer_1
 62
7
100
AcDbSpline
 70
8
 71
3
 72
8
 73
4
 74
0
 40
0
 40
0
 40
0
 40
0
 40
1
 40
1
 40
1
 40
1
 10
65.293017
 20
157.703058
 30
0.0
 10
65.526731
 20
157.793457
 30
0.0
 10
65.766326
 20
157.838655
 30
0.0
 10
66.011800
 20
157.838658
 30
0.0
  0
SPLINE
  5
2a3
100
AcDbEntity
  8
Layer_1
 62
7
100
AcDbSpline
 70
8
 71
3
 72
8
 73
4
 74
0
 40
0
 40
0
 40
0
 40
0
 40
1
 40
1
 40
1
 40
1
 10
66.011800
 20
157.838658
 30
0.0
 10
66.335913
 20
157.838655
 30
0.0
 10
66.593147
 20
157.783901
 30
0.0
 10
66.783503
 20
157.674393
 30
0.0
  0
SPLINE
  5
2a4
100
AcDbEntity
  8
Layer_1
 62
7
100
AcDbSpline
 70
8
 71
3
 72
8
 73
4
 74
0
 40
0
 40
0
 40
0
 40
0
 40
1
 40
1
 40
1
 40
1
 10
66.783503
 20
157.674393
 30
0.0
 10
66.973853
 20
157.564885
 30
0.0
 10
67.052492
 20
157.426348
 30
0.0
 10
67.019424
 20
157.258779
 30
0.0
  0
SPLINE
  5
2a5
100
AcDbEntity
  8
Layer_1
 62
7
100
AcDbSpline
 70
8
 71
3
 72
8
 73
4
 74
0
 40
0
 40
0
 40
0
 40
0
 40
1
 40
1
 40
1
 40
1
 10
67.019424
 20
157.258779
 30
0.0
 10
66.988551
 20
157.105907
 30
0.0
 10
66.838254
 20
156.975086
 30
0.0
 10
66.568529
 20
156.866312
 30
0.0
  0
SPLINE
  5
2a6
100
AcDbEntity
  8
Layer_1
 62
7
100
AcDbSpline
 70
8
 71
3
 72
8
 73
4
 74
0
 40
0
 40
0
 40
0
 40
0
 40
1
 40
1
 40
1
 40
1
 10
66.568529
 20
156.866312
 30
0.0
 10
66.298797
 20
156.758274
 30
0.0
 10
65.988649
 20
156.704254
 30
0.0
 10
65.638076
 20
156.704254
 30
0.0
  0
SPLINE
  5
2a7
100
AcDbEntity
  8
Layer_1
 62
7
100
AcDbSpline
 70
8
 71
3
 72
8
 73
4
 74
0
 40
0
 40
0
 40
0
 40
0
 40
1
 40
1
 40
1
 40
1
 10
65.638076
 20
156.704254
 30
0.0
 10
65.316167
 20
156.704254
 30
0.0
 10
65.053421
 20
156.746147
 30
0.0
 10
64.849840
 20
156.829933
 30
0.0
  0
SPLINE
  5
2a8
100
AcDbEntity
  8
Layer_1
 62
7
100
AcDbSpline
 70
8
 71
3
 72
8
 73
4
 74
0
 40
0
 40
0
 40
0
 40
0
 40
1
 40
1
 40
1
 40
1
 10
64.849840
 20
156.829933
 30
0.0
 10
64.646257
 20
156.914451
 30
0.0
 10
64.556592
 20
157.017713
 30
0.0
 10
64.580846
 20
157.139715
 30
0.0
  0
SPLINE
  5
2a9
100
AcDbEntity
  8
Layer_1
 62
7
100
AcDbSpline
 70
8
 71
3
 72
8
 73
4
 74
0
 40
0
 40
0
 40
0
 40
0
 40
1
 40
1
 40
1
 40
1
 10
64.580846
 20
157.139715
 30
0.0
 10
64.594816
 20
157.210270
 30
0.0
 10
64.649197
 20
157.269802
 30
0.0
 10
64.744007
 20
157.318311
 30
0.0
  0
SPLINE
  5
2aa
100
AcDbEntity
  8
Layer_1
 62
7
100
AcDbSpline
 70
8
 71
3
 72
8
 73
4
 74
0
 40
0
 40
0
 40
0
 40
0
 40
1
 40
1
 40
1
 40
1
 10
64.744007
 20
157.318311
 30
0.0
 10
64.839551
 20
157.367550
 30
0.0
 10
64.948689
 20
157.392171
 30
0.0
 10
65.071427
 20
157.392171
 30
0.0
  0
SPLINE
  5
2ab
100
AcDbEntity
  8
Layer_1
 62
7
100
AcDbSpline
 70
8
 71
3
 72
8
 73
4
 74
0
 40
0
 40
0
 40
0
 40
0
 40
1
 40
1
 40
1
 40
1
 10
65.071427
 20
157.392171
 30
0.0
 10
65.125078
 20
157.392171
 30
0.0
 10
65.200044
 20
157.383732
 30
0.0
 10
65.296324
 20
157.366827
 30
0.0
  0
SPLINE
  5
2ac
100
AcDbEntity
  8
Layer_1
 62
7
100
AcDbSpline
 70
8
 71
3
 72
8
 73
4
 74
0
 40
0
 40
0
 40
0
 40
0
 40
1
 40
1
 40
1
 40
1
 10
65.296324
 20
157.366827
 30
0.0
 10
65.263251
 20
157.313911
 30
0.0
 10
65.243038
 20
157.270180
 30
0.0
 10
65.235689
 20
157.235639
 30
0.0
  0
SPLINE
  5
2ad
100
AcDbEntity
  8
Layer_1
 62
7
100
AcDbSpline
 70
8
 71
3
 72
8
 73
4
 74
0
 40
0
 40
0
 40
0
 40
0
 40
1
 40
1
 40
1
 40
1
 10
65.235689
 20
157.235639
 30
0.0
 10
65.202615
 20
157.067333
 30
0.0
 10
65.346300
 20
156.983180
 30
0.0
 10
65.666741
 20
156.983183
 30
0.0
  0
SPLINE
  5
2ae
100
AcDbEntity
  8
Layer_1
 62
7
100
AcDbSpline
 70
8
 71
3
 72
8
 73
4
 74
0
 40
0
 40
0
 40
0
 40
0
 40
1
 40
1
 40
1
 40
1
 10
65.666741
 20
156.983183
 30
0.0
 10
65.971744
 20
156.983180
 30
0.0
 10
66.144092
 20
157.083869
 30
0.0
 10
66.183781
 20
157.285248
 30
0.0
  0
SPLINE
  5
2af
100
AcDbEntity
  8
Layer_1
 62
7
100
AcDbSpline
 70
8
 71
3
 72
8
 73
4
 74
0
 40
0
 40
0
 40
0
 40
0
 40
1
 40
1
 40
1
 40
1
 10
66.183781
 20
157.285248
 30
0.0
 10
66.223467
 20
157.480744
 30
0.0
 10
66.094483
 20
157.578494
 30
0.0
 10
65.796826
 20
157.578494
 30
0.0
  0
SPLINE
  5
2b0
100
AcDbEntity
  8
Layer_1
 62
7
100
AcDbSpline
 70
8
 71
3
 72
8
 73
4
 74
0
 40
0
 40
0
 40
0
 40
0
 40
1
 40
1
 40
1
 40
1
 10
65.796826
 20
157.578494
 30
0.0
 10
65.597653
 20
157.578494
 30
0.0
 10
65.412078
 20
157.531823
 30
0.0
 10
65.240100
 20
157.438486
 30
0.0
  0
LWPOLYLINE
  5
2b1
100
AcDbEntity
  8
Layer_1
 62
7
100
AcDbPolyline
 90
5
 70
0
 10
65.124344
 20
158.258683
 30
0.0
 10
67.070133
 20
158.258683
 30
0.0
 10
66.760352
 20
157.946695
 30
0.0
 10
65.412078
 20
157.946695
 30
0.0
 10
65.293017
 20
157.703058
 30
0.0
  0
LWPOLYLINE
  5
2b2
100
AcDbEntity
  8
Layer_1
 62
7
100
AcDbPolyline
 90
3
 70
0
 10
65.240100
 20
157.438486
 30
0.0
 10
64.853145
 20
157.593929
 30
0.0
 10
65.124344
 20
158.258695
 30
0.0
  0
SPLINE
  5
2b3
100
AcDbEntity
  8
Layer_1
 62
7
100
AcDbSpline
 70
8
 71
3
 72
8
 73
4
 74
0
 40
0
 40
0
 40
0
 40
0
 40
1
 40
1
 40
1
 40
1
 10
67.088887
 20
156.429751
 30
0.0
 10
67.318193
 20
156.516475
 30
0.0
 10
67.471798
 20
156.627820
 30
0.0
 10
67.549702
 20
156.763786
 30
0.0
  0
SPLINE
  5
2b4
100
AcDbEntity
  8
Layer_1
 62
7
100
AcDbSpline
 70
8
 71
3
 72
8
 73
4
 74
0
 40
0
 40
0
 40
0
 40
0
 40
1
 40
1
 40
1
 40
1
 10
67.549702
 20
156.763786
 30
0.0
 10
67.490170
 20
156.739543
 30
0.0
 10
67.438357
 20
156.727408
 30
0.0
 10
67.394260
 20
156.727408
 30
0.0
  0
SPLINE
  5
2b5
100
AcDbEntity
  8
Layer_1
 62
7
100
AcDbSpline
 70
8
 71
3
 72
8
 73
4
 74
0
 40
0
 40
0
 40
0
 40
0
 40
1
 40
1
 40
1
 40
1
 10
67.394260
 20
156.727408
 30
0.0
 10
67.321500
 20
156.727408
 30
0.0
 10
67.264172
 20
156.748716
 30
0.0
 10
67.222282
 20
156.791348
 30
0.0
  0
SPLINE
  5
2b6
100
AcDbEntity
  8
Layer_1
 62
7
100
AcDbSpline
 70
8
 71
3
 72
8
 73
4
 74
0
 40
0
 40
0
 40
0
 40
0
 40
1
 40
1
 40
1
 40
1
 10
67.222282
 20
156.791348
 30
0.0
 10
67.180389
 20
156.834709
 30
0.0
 10
67.165321
 20
156.887258
 30
0.0
 10
67.177082
 20
156.948995
 30
0.0
  0
SPLINE
  5
2b7
100
AcDbEntity
  8
Layer_1
 62
7
100
AcDbSpline
 70
8
 71
3
 72
8
 73
4
 74
0
 40
0
 40
0
 40
0
 40
0
 40
1
 40
1
 40
1
 40
1
 10
67.177082
 20
156.948995
 30
0.0
 10
67.191052
 20
157.017346
 30
0.0
 10
67.235510
 20
157.074671
 30
0.0
 10
67.310477
 20
157.120975
 30
0.0
  0
SPLINE
  5
2b8
100
AcDbEntity
  8
Layer_1
 62
7
100
AcDbSpline
 70
8
 71
3
 72
8
 73
4
 74
0
 40
0
 40
0
 40
0
 40
0
 40
1
 40
1
 40
1
 40
1
 10
67.310477
 20
157.120975
 30
0.0
 10
67.386174
 20
157.167276
 30
0.0
 10
67.472901
 20
157.190427
 30
0.0
 10
67.570649
 20
157.190427
 30
0.0
  0
SPLINE
  5
2b9
100
AcDbEntity
  8
Layer_1
 62
7
100
AcDbSpline
 70
8
 71
3
 72
8
 73
4
 74
0
 40
0
 40
0
 40
0
 40
0
 40
1
 40
1
 40
1
 40
1
 10
67.570649
 20
157.190427
 30
0.0
 10
67.667663
 20
157.190427
 30
0.0
 10
67.742627
 20
157.160661
 30
0.0
 10
67.795546
 20
157.101129
 30
0.0
  0
SPLINE
  5
2ba
100
AcDbEntity
  8
Layer_1
 62
7
100
AcDbSpline
 70
8
 71
3
 72
8
 73
4
 74
0
 40
0
 40
0
 40
0
 40
0
 40
1
 40
1
 40
1
 40
1
 10
67.795546
 20
157.101129
 30
0.0
 10
67.849197
 20
157.042334
 30
0.0
 10
67.867202
 20
156.968471
 30
0.0
 10
67.849563
 20
156.879542
 30
0.0
  0
SPLINE
  5
2bb
100
AcDbEntity
  8
Layer_1
 62
7
100
AcDbSpline
 70
8
 71
3
 72
8
 73
4
 74
0
 40
0
 40
0
 40
0
 40
0
 40
1
 40
1
 40
1
 40
1
 10
67.849563
 20
156.879542
 30
0.0
 10
67.824587
 20
156.756070
 30
0.0
 10
67.736014
 20
156.644725
 30
0.0
 10
67.583879
 20
156.545504
 30
0.0
  0
SPLINE
  5
2bc
100
AcDbEntity
  8
Layer_1
 62
7
100
AcDbSpline
 70
8
 71
3
 72
8
 73
4
 74
0
 40
0
 40
0
 40
0
 40
0
 40
1
 40
1
 40
1
 40
1
 10
67.583879
 20
156.545504
 30
0.0
 10
67.431742
 20
156.446286
 30
0.0
 10
67.263439
 20
156.390432
 30
0.0
 10
67.078964
 20
156.377935
 30
0.0
  0
LWPOLYLINE
  5
2bd
100
AcDbEntity
  8
Layer_1
 62
7
100
AcDbPolyline
 90
2
 70
0
 10
67.078953
 20
156.377935
 30
0.0
 10
67.088887
 20
156.429751
 30
0.0
  0
SPLINE
  5
2be
100
AcDbEntity
  8
Layer_1
 62
7
100
AcDbSpline
 70
8
 71
3
 72
8
 73
4
 74
0
 40
0
 40
0
 40
0
 40
0
 40
1
 40
1
 40
1
 40
1
 10
71.442374
 20
158.236670
 30
0.0
 10
71.615085
 20
158.214629
 30
0.0
 10
71.748847
 20
158.165745
 30
0.0
 10
71.843660
 20
158.090047
 30
0.0
  0
SPLINE
  5
2bf
100
AcDbEntity
  8
Layer_1
 62
7
100
AcDbSpline
 70
8
 71
3
 72
8
 73
4
 74
0
 40
0
 40
0
 40
0
 40
0
 40
1
 40
1
 40
1
 40
1
 10
71.843660
 20
158.090047
 30
0.0
 10
71.939201
 20
158.015080
 30
0.0
 10
71.977049
 20
157.927990
 30
0.0
 10
71.957209
 20
157.828771
 30
0.0
  0
SPLINE
  5
2c0
100
AcDbEntity
  8
Layer_1
 62
7
100
AcDbSpline
 70
8
 71
3
 72
8
 73
4
 74
0
 40
0
 40
0
 40
0
 40
0
 40
1
 40
1
 40
1
 40
1
 10
71.957209
 20
157.828771
 30
0.0
 10
71.918988
 20
157.637682
 30
0.0
 10
71.676821
 20
157.516783
 30
0.0
 10
71.230707
 20
157.466071
 30
0.0
  0
SPLINE
  5
2c1
100
AcDbEntity
  8
Layer_1
 62
7
100
AcDbSpline
 70
8
 71
3
 72
8
 73
4
 74
0
 40
0
 40
0
 40
0
 40
0
 40
1
 40
1
 40
1
 40
1
 10
71.230707
 20
157.466071
 30
0.0
 10
71.371082
 20
157.429323
 30
0.0
 10
71.473974
 20
157.376406
 30
0.0
 10
71.539388
 20
157.307321
 30
0.0
  0
SPLINE
  5
2c2
100
AcDbEntity
  8
Layer_1
 62
7
100
AcDbSpline
 70
8
 71
3
 72
8
 73
4
 74
0
 40
0
 40
0
 40
0
 40
0
 40
1
 40
1
 40
1
 40
1
 10
71.539388
 20
157.307321
 30
0.0
 10
71.604795
 20
157.238969
 30
0.0
 10
71.657712
 20
157.127257
 30
0.0
 10
71.698138
 20
156.972182
 30
0.0
  0
LWPOLYLINE
  5
2c3
100
AcDbEntity
  8
Layer_1
 62
7
100
AcDbPolyline
 90
4
 70
0
 10
68.994979
 20
158.258683
 30
0.0
 10
70.818397
 20
158.258683
 30
0.0
 10
71.094007
 20
158.259812
 30
0.0
 10
71.442374
 20
158.236670
 30
0.0
  0
SPLINE
  5
2c4
100
AcDbEntity
  8
Layer_1
 62
7
100
AcDbSpline
 70
8
 71
3
 72
8
 73
4
 74
0
 40
0
 40
0
 40
0
 40
0
 40
1
 40
1
 40
1
 40
1
 10
70.951792
 20
156.753903
 30
0.0
 10
70.904018
 20
156.972182
 30
0.0
 10
70.854042
 20
157.132402
 30
0.0
 10
70.801862
 20
157.234561
 30
0.0
  0
SPLINE
  5
2c5
100
AcDbEntity
  8
Layer_1
 62
7
100
AcDbSpline
 70
8
 71
3
 72
8
 73
4
 74
0
 40
0
 40
0
 40
0
 40
0
 40
1
 40
1
 40
1
 40
1
 10
70.801862
 20
157.234561
 30
0.0
 10
70.769522
 20
157.299235
 30
0.0
 10
70.670671
 20
157.331575
 30
0.0
 10
70.505308
 20
157.331575
 30
0.0
  0
LWPOLYLINE
  5
2c6
100
AcDbEntity
  8
Layer_1
 62
7
100
AcDbPolyline
 90
3
 70
0
 10
71.698138
 20
156.972182
 30
0.0
 10
72.018945
 20
156.753903
 30
0.0
 10
70.951792
 20
156.753903
 30
0.0
  0
LWPOLYLINE
  5
2c7
100
AcDbEntity
  8
Layer_1
 62
7
100
AcDbPolyline
 90
8
 70
0
 10
70.505308
 20
157.331575
 30
0.0
 10
70.139300
 20
157.331575
 30
0.0
 10
70.092999
 20
157.103373
 30
0.0
 10
70.575864
 20
156.753903
 30
0.0
 10
68.694015
 20
156.753903
 30
0.0
 10
69.315784
 20
157.103373
 30
0.0
 10
69.476741
 20
157.907043
 30
0.0
 10
68.994979
 20
158.258720
 30
0.0
  0
SPLINE
  5
2c8
100
AcDbEntity
  8
Layer_1
 62
7
100
AcDbSpline
 70
8
 71
3
 72
8
 73
4
 74
0
 40
0
 40
0
 40
0
 40
0
 40
1
 40
1
 40
1
 40
1
 10
70.844856
 20
157.631490
 30
0.0
 10
71.010955
 20
157.631490
 30
0.0
 10
71.105028
 20
157.686244
 30
0.0
 10
71.127078
 20
157.795751
 30
0.0
  0
SPLINE
  5
2c9
100
AcDbEntity
  8
Layer_1
 62
7
100
AcDbSpline
 70
8
 71
3
 72
8
 73
4
 74
0
 40
0
 40
0
 40
0
 40
0
 40
1
 40
1
 40
1
 40
1
 10
71.127078
 20
157.795751
 30
0.0
 10
71.141048
 20
157.867041
 30
0.0
 10
71.123409
 20
157.914813
 30
0.0
 10
71.074161
 20
157.939067
 30
0.0
  0
SPLINE
  5
2ca
100
AcDbEntity
  8
Layer_1
 62
7
100
AcDbSpline
 70
8
 71
3
 72
8
 73
4
 74
0
 40
0
 40
0
 40
0
 40
0
 40
1
 40
1
 40
1
 40
1
 10
71.074161
 20
157.939067
 30
0.0
 10
71.024919
 20
157.964043
 30
0.0
 10
70.921290
 20
157.976549
 30
0.0
 10
70.763276
 20
157.976552
 30
0.0
  0
LWPOLYLINE
  5
2cb
100
AcDbEntity
  8
Layer_1
 62
7
100
AcDbPolyline
 90
3
 70
0
 10
70.198832
 20
157.629232
 30
0.0
 10
70.691617
 20
157.629232
 30
0.0
 10
70.844856
 20
157.631490
 30
0.0
  0
LWPOLYLINE
  5
2cc
100
AcDbEntity
  8
Layer_1
 62
7
100
AcDbPolyline
 90
3
 70
0
 10
70.763276
 20
157.976552
 30
0.0
 10
70.268284
 20
157.976552
 30
0.0
 10
70.198832
 20
157.629286
 30
0.0
  0
SPLINE
  5
2cd
100
AcDbEntity
  8
Layer_1
 62
7
100
AcDbSpline
 70
8
 71
3
 72
8
 73
4
 74
0
 40
0
 40
0
 40
0
 40
0
 40
1
 40
1
 40
1
 40
1
 10
72.852381
 20
157.223501
 30
0.0
 10
72.813429
 20
157.029473
 30
0.0
 10
72.969975
 20
156.932459
 30
0.0
 10
73.322019
 20
156.932459
 30
0.0
  0
SPLINE
  5
2ce
100
AcDbEntity
  8
Layer_1
 62
7
100
AcDbSpline
 70
8
 71
3
 72
8
 73
4
 74
0
 40
0
 40
0
 40
0
 40
0
 40
1
 40
1
 40
1
 40
1
 10
73.322019
 20
156.932459
 30
0.0
 10
73.655685
 20
156.932459
 30
0.0
 10
73.887931
 20
156.995663
 30
0.0
 10
74.018755
 20
157.122076
 30
0.0
  0
SPLINE
  5
2cf
100
AcDbEntity
  8
Layer_1
 62
7
100
AcDbSpline
 70
8
 71
3
 72
8
 73
4
 74
0
 40
0
 40
0
 40
0
 40
0
 40
1
 40
1
 40
1
 40
1
 10
74.018755
 20
157.122076
 30
0.0
 10
74.026093
 20
157.091943
 30
0.0
 10
74.027560
 20
157.067322
 30
0.0
 10
74.023158
 20
157.048213
 30
0.0
  0
SPLINE
  5
2d0
100
AcDbEntity
  8
Layer_1
 62
7
100
AcDbSpline
 70
8
 71
3
 72
8
 73
4
 74
0
 40
0
 40
0
 40
0
 40
0
 40
1
 40
1
 40
1
 40
1
 10
74.023158
 20
157.048213
 30
0.0
 10
74.001850
 20
156.941645
 30
0.0
 10
73.908872
 20
156.856022
 30
0.0
 10
73.744243
 20
156.791348
 30
0.0
  0
SPLINE
  5
2d1
100
AcDbEntity
  8
Layer_1
 62
7
100
AcDbSpline
 70
8
 71
3
 72
8
 73
4
 74
0
 40
0
 40
0
 40
0
 40
0
 40
1
 40
1
 40
1
 40
1
 10
73.744243
 20
156.791348
 30
0.0
 10
73.579612
 20
156.727408
 30
0.0
 10
73.371989
 20
156.695435
 30
0.0
 10
73.121370
 20
156.695435
 30
0.0
  0
SPLINE
  5
2d2
100
AcDbEntity
  8
Layer_1
 62
7
100
AcDbSpline
 70
8
 71
3
 72
8
 73
4
 74
0
 40
0
 40
0
 40
0
 40
0
 40
1
 40
1
 40
1
 40
1
 10
73.121370
 20
156.695435
 30
0.0
 10
72.808278
 20
156.695435
 30
0.0
 10
72.565745
 20
156.748351
 30
0.0
 10
72.393765
 20
156.854185
 30
0.0
  0
SPLINE
  5
2d3
100
AcDbEntity
  8
Layer_1
 62
7
100
AcDbSpline
 70
8
 71
3
 72
8
 73
4
 74
0
 40
0
 40
0
 40
0
 40
0
 40
1
 40
1
 40
1
 40
1
 10
72.393765
 20
156.854185
 30
0.0
 10
72.222521
 20
156.960018
 30
0.0
 10
72.154172
 20
157.098925
 30
0.0
 10
72.188713
 20
157.270906
 30
0.0
  0
SPLINE
  5
2d4
100
AcDbEntity
  8
Layer_1
 62
7
100
AcDbSpline
 70
8
 71
3
 72
8
 73
4
 74
0
 40
0
 40
0
 40
0
 40
0
 40
1
 40
1
 40
1
 40
1
 10
72.188713
 20
157.270906
 30
0.0
 10
72.221787
 20
157.437738
 30
0.0
 10
72.343789
 20
157.579216
 30
0.0
 10
72.554722
 20
157.695340
 30
0.0
  0
SPLINE
  5
2d5
100
AcDbEntity
  8
Layer_1
 62
7
100
AcDbSpline
 70
8
 71
3
 72
8
 73
4
 74
0
 40
0
 40
0
 40
0
 40
0
 40
1
 40
1
 40
1
 40
1
 10
72.554722
 20
157.695340
 30
0.0
 10
72.766385
 20
157.811463
 30
0.0
 10
73.007451
 20
157.869524
 30
0.0
 10
73.277916
 20
157.869524
 30
0.0
  0
SPLINE
  5
2d6
100
AcDbEntity
  8
Layer_1
 62
7
100
AcDbSpline
 70
8
 71
3
 72
8
 73
4
 74
0
 40
0
 40
0
 40
0
 40
0
 40
1
 40
1
 40
1
 40
1
 10
73.277916
 20
157.869524
 30
0.0
 10
73.522653
 20
157.869524
 30
0.0
 10
73.713007
 20
157.812197
 30
0.0
 10
73.848973
 20
157.697547
 30
0.0
  0
SPLINE
  5
2d7
100
AcDbEntity
  8
Layer_1
 62
7
100
AcDbSpline
 70
8
 71
3
 72
8
 73
4
 74
0
 40
0
 40
0
 40
0
 40
0
 40
1
 40
1
 40
1
 40
1
 10
73.848973
 20
157.697547
 30
0.0
 10
73.985673
 20
157.583628
 30
0.0
 10
74.052187
 20
157.425611
 30
0.0
 10
74.048515
 20
157.223501
 30
0.0
  0
SPLINE
  5
2d8
100
AcDbEntity
  8
Layer_1
 62
7
100
AcDbSpline
 70
8
 71
3
 72
8
 73
4
 74
0
 40
0
 40
0
 40
0
 40
0
 40
1
 40
1
 40
1
 40
1
 10
73.543600
 20
157.412017
 30
0.0
 10
73.577407
 20
157.578850
 30
0.0
 10
73.488479
 20
157.662266
 30
0.0
 10
73.276812
 20
157.662269
 30
0.0
  0
SPLINE
  5
2d9
100
AcDbEntity
  8
Layer_1
 62
7
100
AcDbSpline
 70
8
 71
3
 72
8
 73
4
 74
0
 40
0
 40
0
 40
0
 40
0
 40
1
 40
1
 40
1
 40
1
 10
73.276812
 20
157.662269
 30
0.0
 10
73.183473
 20
157.662266
 30
0.0
 10
73.100424
 20
157.638393
 30
0.0
 10
73.027664
 20
157.590610
 30
0.0
  0
SPLINE
  5
2da
100
AcDbEntity
  8
Layer_1
 62
7
100
AcDbSpline
 70
8
 71
3
 72
8
 73
4
 74
0
 40
0
 40
0
 40
0
 40
0
 40
1
 40
1
 40
1
 40
1
 10
73.027664
 20
157.590610
 30
0.0
 10
72.955638
 20
157.542838
 30
0.0
 10
72.912275
 20
157.483306
 30
0.0
 10
72.897576
 20
157.412017
 30
0.0
  0
LWPOLYLINE
  5
2db
100
AcDbEntity
  8
Layer_1
 62
7
100
AcDbPolyline
 90
2
 70
0
 10
74.048521
 20
157.223501
 30
0.0
 10
72.852381
 20
157.223501
 30
0.0
  0
LWPOLYLINE
  5
2dc
100
AcDbEntity
  8
Layer_1
 62
7
100
AcDbPolyline
 90
2
 70
0
 10
72.897576
 20
157.412017
 30
0.0
 10
73.543600
 20
157.412017
 30
0.0
  0
LWPOLYLINE
  5
2dd
100
AcDbEntity
  8
Layer_1
 62
7
100
AcDbPolyline
 90
14
 70
0
 10
76.793572
 20
157.833143
 30
0.0
 10
76.311811
 20
157.557536
 30
0.0
 10
75.742955
 20
156.979864
 30
0.0
 10
75.998719
 20
156.753866
 30
0.0
 10
74.515951
 20
156.753866
 30
0.0
 10
74.862114
 20
156.979864
 30
0.0
 10
74.453112
 20
157.557536
 30
0.0
 10
74.081592
 20
157.833143
 30
0.0
 10
75.563258
 20
157.833143
 30
0.0
 10
75.193945
 20
157.581790
 30
0.0
 10
75.468451
 20
157.155149
 30
0.0
 10
75.863120
 20
157.581790
 30
0.0
 10
75.595229
 20
157.833143
 30
0.0
 10
76.793572
 20
157.833143
 30
0.0
  0
LWPOLYLINE
  5
2de
100
AcDbEntity
  8
Layer_1
 62
7
100
AcDbPolyline
 90
15
 70
0
 10
79.760213
 20
158.258683
 30
0.0
 10
79.344596
 20
157.984177
 30
0.0
 10
79.798799
 20
157.105540
 30
0.0
 10
80.297096
 20
156.753866
 30
0.0
 10
78.400915
 20
156.753866
 30
0.0
 10
78.985203
 20
157.062547
 30
0.0
 10
78.937798
 20
157.166173
 30
0.0
 10
78.071288
 20
157.166173
 30
0.0
 10
77.983094
 20
157.062547
 30
0.0
 10
78.375561
 20
156.753866
 30
0.0
 10
76.969961
 20
156.753866
 30
0.0
 10
77.483693
 20
157.105540
 30
0.0
 10
78.278547
 20
157.984177
 30
0.0
 10
77.980890
 20
158.258683
 30
0.0
 10
79.760213
 20
158.258683
 30
0.0
  0
LWPOLYLINE
  5
2df
100
AcDbEntity
  8
Layer_1
 62
7
100
AcDbPolyline
 90
4
 70
0
 10
78.614786
 20
157.822120
 30
0.0
 10
78.267520
 20
157.414221
 30
0.0
 10
78.816533
 20
157.414221
 30
0.0
 10
78.614786
 20
157.822120
 30
0.0
  0
ENDSEC
  0
SECTION
  2
OBJECTS
  0
DICTIONARY
  5
C
330
0
100
AcDbDictionary
  3
ACAD_GROUP
350
D
  3
ACAD_MLINESTYLE
350
17
  0
DICTIONARY
  5
D
330
C
100
AcDbDictionary
  0
DICTIONARY
  5
1A
330
C
100
AcDbDictionary
  0
DICTIONARY
  5
17
330
C
100
AcDbDictionary
  3
STANDARD
350
18
  0
DICTIONARY
  5
19
330
C
100
AcDbDictionary
  0
ENDSEC
  0
EOF
