  0
SECTION
  2
HEADER
  9
$ACADVER
  1
AC1014
  9
$HANDSEED
  5
FFFF
  9
$MEASUREMENT
 70
     1
  0
ENDSEC
  0
SECTION
  2
TABLES
  0
TABLE
  2
VPORT
  5
8
330
0
100
AcDbSymbolTable
 70
     4
  0
VPORT
  5
2E
330
8
100
AcDbSymbolTableRecord
100
AcDbViewportTableRecord
  2
*ACTIVE
 70
     0
 10
0.0
 20
0.0
 11
1.0
 21
1.0
 12
210.0
 22
148.5
 13
0.0
 23
0.0
 14
10.0
 24
10.0
 15
10.0
 25
10.0
 16
0.0
 26
0.0
 36
1.0
 17
0.0
 27
0.0
 37
0.0
 40
341.0
 41
1.24
 42
50.0
 43
0.0
 44
0.0
 50
0.0
 51
0.0
 71
     0
 72
   100
 73
     1
 74
     3
 75
     0
 76
     0
 77
     0
 78
     0
  0
ENDTAB
  0
TABLE
  2
LTYPE
  5
5
330
0
100
AcDbSymbolTable
 70
     1
  0
LTYPE
  5
14
330
5
100
AcDbSymbolTableRecord
100
AcDbLinetypeTableRecord
  2
BYBLOCK
 70
     0
  3

 72
    65
 73
     0
 40
0.0
  0
LTYPE
  5
15
330
5
100
AcDbSymbolTableRecord
100
AcDbLinetypeTableRecord
  2
BYLAYER
 70
     0
  3

 72
    65
 73
     0
 40
0.0
  0
LTYPE
  5
16
330
5
100
AcDbSymbolTableRecord
100
AcDbLinetypeTableRecord
  2
CONTINUOUS
 70
     0
  3
Solid line
 72
    65
 73
     0
 40
0.0
  0
ENDTAB
  0
TABLE
  2
LAYER
  5
2
100
AcDbSymbolTable
 70
2
  0
LAYER
  5
50
100
AcDbSymbolTableRecord
100
AcDbLayerTableRecord
  2
0
 70
0
  6
CONTINUOUS
  0
LAYER
  5
51
100
AcDbSymbolTableRecord
100
AcDbLayerTableRecord
  2
Layer_1
 70
0
  6
CONTINUOUS
  0
ENDTAB
  0
TABLE
  2
STYLE
  5
3
330
0
100
AcDbSymbolTable
 70
     1
  0
STYLE
  5
11
330
3
100
AcDbSymbolTableRecord
100
AcDbTextStyleTableRecord
  2
STANDARD
 70
     0
 40
0.0
 41
1.0
 50
0.0
 71
     0
 42
2.5
  3
txt
  4

  0
ENDTAB
  0
TABLE
  2
VIEW
  5
6
330
0
100
AcDbSymbolTable
 70
     0
  0
ENDTAB
  0
TABLE
  2
UCS
  5
7
330
0
100
AcDbSymbolTable
 70
     0
  0
ENDTAB
  0
TABLE
  2
APPID
  5
9
330
0
100
AcDbSymbolTable
 70
     2
  0
APPID
  5
12
330
9
100
AcDbSymbolTableRecord
100
AcDbRegAppTableRecord
  2
ACAD
 70
     0
  0
ENDTAB
  0
TABLE
  2
DIMSTYLE
  5
A
330
0
100
AcDbSymbolTable
 70
     1
  0
DIMSTYLE
105
27
330
A
100
AcDbSymbolTableRecord
100
AcDbDimStyleTableRecord
  2
ISO-25
 70
     0
  3

  4

  5

  6

  7

 40
1.0
 41
2.5
 42
0.625
 43
3.75
 44
1.25
 45
0.0
 46
0.0
 47
0.0
 48
0.0
140
2.5
141
2.5
142
0.0
143
0.03937007874016
144
1.0
145
0.0
146
1.0
147
0.625
 71
     0
 72
     0
 73
     0
 74
     0
 75
     0
 76
     0
 77
     1
 78
     8
170
     0
171
     3
172
     1
173
     0
174
     0
175
     0
176
     0
177
     0
178
     0
270
     2
271
     2
272
     2
273
     2
274
     3
340
11
275
     0
280
     0
281
     0
282
     0
283
     0
284
     8
285
     0
286
     0
287
     3
288
     0
  0
ENDTAB
  0
TABLE
  2
BLOCK_RECORD
  5
1
330
0
100
AcDbSymbolTable
 70
     1
  0
BLOCK_RECORD
  5
1F
330
1
100
AcDbSymbolTableRecord
100
AcDbBlockTableRecord
  2
*MODEL_SPACE
  0
BLOCK_RECORD
  5
1B
330
1
100
AcDbSymbolTableRecord
100
AcDbBlockTableRecord
  2
*PAPER_SPACE
  0
ENDTAB
  0
ENDSEC
  0
SECTION
  2
BLOCKS
  0
BLOCK
  5
20
330
1F
100
AcDbEntity
  8
0
100
AcDbBlockBegin
  2
*MODEL_SPACE
 70
     0
 10
0.0
 20
0.0
 30
0.0
  3
*MODEL_SPACE
  1

  0
ENDBLK
  5
21
330
1F
100
AcDbEntity
  8
0
100
AcDbBlockEnd
  0
BLOCK
  5
1C
330
1B
100
AcDbEntity
 67
     1
  8
0
100
AcDbBlockBegin
  2
*PAPER_SPACE
  1

  0
ENDBLK
  5
1D
330
1B
100
AcDbEntity
 67
     1
  8
0
100
AcDbBlockEnd
  0
ENDSEC
  0
SECTION
  2
ENTITIES
  0
LWPOLYLINE
  5
100
100
AcDbEntity
  8
Layer_1
 62
7
100
AcDbPolyline
 90
126
 70
0
 10
39.197949
 20
166.445157
 30
0.0
 10
39.014663
 20
166.599430
 30
0.0
 10
38.835663
 20
166.663308
 30
0.0
 10
38.613855
 20
166.641766
 30
0.0
 10
38.302142
 20
166.539778
 30
0.0
 10
37.866171
 20
166.409908
 30
0.0
 10
37.634768
 20
166.405962
 30
0.0
 10
37.445855
 20
167.227507
 30
0.0
 10
37.112044
 20
169.082326
 30
0.0
 10
36.847697
 20
170.565412
 30
0.0
 10
36.610495
 20
171.501819
 30
0.0
 10
36.290281
 20
172.218168
 30
0.0
 10
35.776896
 20
173.041083
 30
0.0
 10
35.178352
 20
174.042079
 30
0.0
 10
34.665310
 20
175.089300
 30
0.0
 10
34.239080
 20
176.177661
 30
0.0
 10
33.900968
 20
177.302079
 30
0.0
 10
33.652285
 20
178.457468
 30
0.0
 10
33.494339
 20
179.638743
 30
0.0
 10
33.428439
 20
180.840821
 30
0.0
 10
33.455892
 20
182.058616
 30
0.0
 10
33.568051
 20
183.400695
 30
0.0
 10
33.681749
 20
184.067392
 30
0.0
 10
33.788948
 20
184.083808
 30
0.0
 10
33.995680
 20
183.985730
 30
0.0
 10
34.603789
 20
183.509038
 30
0.0
 10
35.308865
 20
182.922032
 30
0.0
 10
35.870467
 20
182.555615
 30
0.0
 10
36.111068
 20
182.423943
 30
0.0
 10
36.231799
 20
182.272512
 30
0.0
 10
36.253332
 20
182.046479
 30
0.0
 10
36.196335
 20
181.691005
 30
0.0
 10
36.089090
 20
180.750112
 30
0.0
 10
36.092333
 20
179.662893
 30
0.0
 10
36.197509
 20
178.599040
 30
0.0
 10
36.396066
 20
177.728246
 30
0.0
 10
36.700179
 20
176.998195
 30
0.0
 10
37.110520
 20
176.296766
 30
0.0
 10
37.628862
 20
175.622309
 30
0.0
 10
38.256977
 20
174.973170
 30
0.0
 10
38.996638
 20
174.347700
 30
0.0
 10
39.849618
 20
173.744244
 30
0.0
 10
40.817689
 20
173.161153
 30
0.0
 10
41.902623
 20
172.596775
 30
0.0
 10
42.673736
 20
172.245041
 30
0.0
 10
43.424620
 20
171.951568
 30
0.0
 10
44.171162
 20
171.713002
 30
0.0
 10
44.929252
 20
171.525990
 30
0.0
 10
45.714779
 20
171.387178
 30
0.0
 10
46.543632
 20
171.293211
 30
0.0
 10
48.394868
 20
171.226402
 30
0.0
 10
50.142287
 20
171.310534
 30
0.0
 10
50.948193
 20
171.413632
 30
0.0
 10
51.720625
 20
171.560026
 30
0.0
 10
52.468381
 20
171.751673
 30
0.0
 10
53.200258
 20
171.990529
 30
0.0
 10
53.925052
 20
172.278549
 30
0.0
 10
54.651560
 20
172.617690
 30
0.0
 10
55.680649
 20
173.171344
 30
0.0
 10
56.613819
 20
173.753697
 30
0.0
 10
57.447817
 20
174.361681
 30
0.0
 10
58.179396
 20
174.992232
 30
0.0
 10
58.805304
 20
175.642283
 30
0.0
 10
59.322293
 20
176.308769
 30
0.0
 10
59.727111
 20
176.988624
 30
0.0
 10
60.016509
 20
177.678781
 30
0.0
 10
60.221433
 20
178.575180
 30
0.0
 10
60.330632
 20
179.651041
 30
0.0
 10
60.335553
 20
180.743829
 30
0.0
 10
60.227642
 20
181.691005
 30
0.0
 10
60.170645
 20
182.046479
 30
0.0
 10
60.192177
 20
182.272512
 30
0.0
 10
60.312909
 20
182.423943
 30
0.0
 10
60.553510
 20
182.555615
 30
0.0
 10
61.115109
 20
182.922032
 30
0.0
 10
61.820185
 20
183.509038
 30
0.0
 10
62.428294
 20
183.985730
 30
0.0
 10
62.635026
 20
184.083808
 30
0.0
 10
62.742225
 20
184.067392
 30
0.0
 10
62.829707
 20
183.778615
 30
0.0
 10
62.898627
 20
183.264168
 30
0.0
 10
62.975757
 20
181.798864
 30
0.0
 10
62.963569
 20
180.152690
 30
0.0
 10
62.852021
 20
178.806852
 30
0.0
 10
62.709943
 20
178.066315
 30
0.0
 10
62.517286
 20
177.300531
 30
0.0
 10
62.002112
 20
175.750065
 30
0.0
 10
61.350263
 20
174.269135
 30
0.0
 10
60.986762
 20
173.590271
 30
0.0
 10
60.605503
 20
172.971422
 30
0.0
 10
60.118994
 20
172.196326
 30
0.0
 10
59.810642
 20
171.498841
 30
0.0
 10
59.576610
 20
170.567044
 30
0.0
 10
59.313058
 20
169.089009
 30
0.0
 10
58.978453
 20
167.229471
 30
0.0
 10
58.789209
 20
166.405962
 30
0.0
 10
58.560303
 20
166.408967
 30
0.0
 10
58.130341
 20
166.536569
 30
0.0
 10
57.818006
 20
166.637189
 30
0.0
 10
57.589283
 20
166.653035
 30
0.0
 10
57.390253
 20
166.576448
 30
0.0
 10
57.166995
 20
166.399770
 30
0.0
 10
56.928719
 20
166.210472
 30
0.0
 10
56.829151
 20
166.182783
 30
0.0
 10
56.723848
 20
166.208954
 30
0.0
 10
56.439691
 20
166.450541
 30
0.0
 10
55.963555
 20
166.990554
 30
0.0
 10
55.150323
 20
167.934469
 30
0.0
 10
54.179357
 20
167.489949
 30
0.0
 10
53.509965
 20
167.209858
 30
0.0
 10
52.809918
 20
166.967130
 30
0.0
 10
51.335359
 20
166.593761
 30
0.0
 10
49.790686
 20
166.369834
 30
0.0
 10
48.210903
 20
166.295345
 30
0.0
 10
46.631014
 20
166.370287
 30
0.0
 10
45.086024
 20
166.594655
 30
0.0
 10
43.610937
 20
166.968442
 30
0.0
 10
42.910547
 20
167.211366
 30
0.0
 10
42.240759
 20
167.491643
 30
0.0
 10
41.265938
 20
167.937929
 30
0.0
 10
40.504090
 20
167.034423
 30
0.0
 10
39.932237
 20
166.396322
 30
0.0
 10
39.627181
 20
166.130917
 30
0.0
 10
39.453630
 20
166.223204
 30
0.0
 10
39.197949
 20
166.445084
 30
0.0
 10
39.197949
 20
166.445157
 30
0.0
  0
LWPOLYLINE
  5
101
100
AcDbEntity
  8
Layer_1
 62
7
100
AcDbPolyline
 90
123
 70
0
 10
45.560226
 20
172.244392
 30
0.0
 10
44.540375
 20
172.473265
 30
0.0
 10
43.640744
 20
172.742027
 30
0.0
 10
42.760336
 20
173.085411
 30
0.0
 10
41.798153
 20
173.538149
 30
0.0
 10
40.889516
 20
174.053724
 30
0.0
 10
39.915425
 20
174.703017
 30
0.0
 10
39.021574
 20
175.382397
 30
0.0
 10
38.353659
 20
175.988231
 30
0.0
 10
38.118884
 20
176.274136
 30
0.0
 10
37.886719
 20
176.627691
 30
0.0
 10
37.457685
 20
177.474126
 30
0.0
 10
37.121491
 20
178.400286
 30
0.0
 10
36.933070
 20
179.278922
 30
0.0
 10
36.919298
 20
180.038897
 30
0.0
 10
37.001385
 20
180.995225
 30
0.0
 10
37.153810
 20
181.940909
 30
0.0
 10
37.351050
 20
182.668950
 30
0.0
 10
37.333299
 20
182.778056
 30
0.0
 10
37.207829
 20
182.894537
 30
0.0
 10
36.675207
 20
183.121835
 30
0.0
 10
36.297949
 20
183.277527
 30
0.0
 10
35.894183
 20
183.520340
 30
0.0
 10
35.477467
 20
183.836987
 30
0.0
 10
35.061356
 20
184.214185
 30
0.0
 10
34.659407
 20
184.638648
 30
0.0
 10
34.285177
 20
185.097092
 30
0.0
 10
33.952223
 20
185.576232
 30
0.0
 10
33.674101
 20
186.062782
 30
0.0
 10
33.298376
 20
186.975730
 30
0.0
 10
32.978953
 20
188.064930
 30
0.0
 10
32.756164
 20
189.167358
 30
0.0
 10
32.670344
 20
190.119986
 30
0.0
 10
32.639431
 20
190.452985
 30
0.0
 10
32.548735
 20
190.769074
 30
0.0
 10
32.396243
 20
191.073321
 30
0.0
 10
32.179940
 20
191.370795
 30
0.0
 10
31.877612
 20
191.767441
 30
0.0
 10
31.840120
 20
191.913956
 30
0.0
 10
31.898615
 20
192.051051
 30
0.0
 10
32.068250
 20
192.197564
 30
0.0
 10
32.364177
 20
192.372334
 30
0.0
 10
33.395525
 20
192.881999
 30
0.0
 10
34.060372
 20
193.175060
 30
0.0
 10
34.664557
 20
193.361164
 30
0.0
 10
35.337654
 20
193.470257
 30
0.0
 10
36.209238
 20
193.532287
 30
0.0
 10
37.574782
 20
193.533203
 30
0.0
 10
38.193021
 20
193.477852
 30
0.0
 10
38.784137
 20
193.382101
 30
0.0
 10
39.360054
 20
193.243559
 30
0.0
 10
39.932695
 20
193.059831
 30
0.0
 10
41.115846
 20
192.547241
 30
0.0
 10
42.340756
 20
191.936764
 30
0.0
 10
43.401849
 20
192.462490
 30
0.0
 10
44.461844
 20
192.884334
 30
0.0
 10
45.732716
 20
193.234876
 30
0.0
 10
47.040689
 20
193.474359
 30
0.0
 10
48.211988
 20
193.563021
 30
0.0
 10
49.383287
 20
193.474359
 30
0.0
 10
50.691261
 20
193.234876
 30
0.0
 10
51.962133
 20
192.884334
 30
0.0
 10
53.022127
 20
192.462490
 30
0.0
 10
54.083221
 20
191.936764
 30
0.0
 10
55.308130
 20
192.547241
 30
0.0
 10
56.491282
 20
193.059831
 30
0.0
 10
57.063923
 20
193.243559
 30
0.0
 10
57.639839
 20
193.382101
 30
0.0
 10
58.230955
 20
193.477852
 30
0.0
 10
58.849195
 20
193.533203
 30
0.0
 10
60.214739
 20
193.532287
 30
0.0
 10
61.086321
 20
193.470257
 30
0.0
 10
61.759418
 20
193.361164
 30
0.0
 10
62.363602
 20
193.175060
 30
0.0
 10
63.028446
 20
192.881999
 30
0.0
 10
64.059795
 20
192.372334
 30
0.0
 10
64.355723
 20
192.197564
 30
0.0
 10
64.525357
 20
192.051051
 30
0.0
 10
64.583852
 20
191.913956
 30
0.0
 10
64.546361
 20
191.767441
 30
0.0
 10
64.244034
 20
191.370795
 30
0.0
 10
64.027717
 20
191.073321
 30
0.0
 10
63.875203
 20
190.769074
 30
0.0
 10
63.784503
 20
190.452985
 30
0.0
 10
63.753630
 20
190.119986
 30
0.0
 10
63.667808
 20
189.167358
 30
0.0
 10
63.445020
 20
188.064930
 30
0.0
 10
63.125598
 20
186.975730
 30
0.0
 10
62.749873
 20
186.062782
 30
0.0
 10
62.471751
 20
185.576232
 30
0.0
 10
62.138797
 20
185.097092
 30
0.0
 10
61.764567
 20
184.638648
 30
0.0
 10
61.362619
 20
184.214185
 30
0.0
 10
60.946509
 20
183.836987
 30
0.0
 10
60.529793
 20
183.520340
 30
0.0
 10
60.126028
 20
183.277527
 30
0.0
 10
59.748770
 20
183.121835
 30
0.0
 10
59.216148
 20
182.894537
 30
0.0
 10
59.090678
 20
182.778056
 30
0.0
 10
59.072927
 20
182.668950
 30
0.0
 10
59.270166
 20
181.940909
 30
0.0
 10
59.422590
 20
180.995225
 30
0.0
 10
59.504678
 20
180.038897
 30
0.0
 10
59.490906
 20
179.278922
 30
0.0
 10
59.310977
 20
178.445843
 30
0.0
 10
58.988511
 20
177.537943
 30
0.0
 10
58.583989
 20
176.700426
 30
0.0
 10
58.157889
 20
176.078494
 30
0.0
 10
57.622534
 20
175.553428
 30
0.0
 10
56.953716
 20
175.015024
 30
0.0
 10
56.180721
 20
174.479985
 30
0.0
 10
55.332837
 20
173.965013
 30
0.0
 10
54.439351
 20
173.486814
 30
0.0
 10
53.529550
 20
173.062090
 30
0.0
 10
52.632721
 20
172.707545
 30
0.0
 10
51.778151
 20
172.439882
 30
0.0
 10
51.132546
 20
172.301111
 30
0.0
 10
50.376995
 20
172.192732
 30
0.0
 10
48.680726
 20
172.071703
 30
0.0
 10
46.978689
 20
172.085891
 30
0.0
 10
46.215926
 20
172.146533
 30
0.0
 10
45.560226
 20
172.244392
 30
0.0
 10
45.560226
 20
172.244392
 30
0.0
  0
LWPOLYLINE
  5
102
100
AcDbEntity
  8
Layer_1
 62
7
100
AcDbPolyline
 90
53
 70
0
 10
51.740582
 20
174.631467
 30
0.0
 10
52.132551
 20
174.803410
 30
0.0
 10
52.551610
 20
175.036708
 30
0.0
 10
52.947568
 20
175.300735
 30
0.0
 10
53.270232
 20
175.564863
 30
0.0
 10
53.642614
 20
175.939201
 30
0.0
 10
53.828881
 20
176.263239
 30
0.0
 10
53.881355
 20
176.704761
 30
0.0
 10
53.852360
 20
177.431549
 30
0.0
 10
53.783369
 20
178.059545
 30
0.0
 10
53.650977
 20
178.674740
 30
0.0
 10
53.459768
 20
179.272654
 30
0.0
 10
53.214326
 20
179.848808
 30
0.0
 10
52.919235
 20
180.398723
 30
0.0
 10
52.579081
 20
180.917921
 30
0.0
 10
52.198447
 20
181.401922
 30
0.0
 10
51.781917
 20
181.846247
 30
0.0
 10
51.334077
 20
182.246418
 30
0.0
 10
50.859510
 20
182.597956
 30
0.0
 10
50.362801
 20
182.896381
 30
0.0
 10
49.848535
 20
183.137214
 30
0.0
 10
49.321294
 20
183.315978
 30
0.0
 10
48.785665
 20
183.428192
 30
0.0
 10
48.246230
 20
183.469378
 30
0.0
 10
47.707575
 20
183.435056
 30
0.0
 10
47.235917
 20
183.342924
 30
0.0
 10
46.770977
 20
183.198692
 30
0.0
 10
46.315651
 20
183.005678
 30
0.0
 10
45.872832
 20
182.767203
 30
0.0
 10
45.445418
 20
182.486583
 30
0.0
 10
45.036302
 20
182.167139
 30
0.0
 10
44.284550
 20
181.425050
 30
0.0
 10
43.640737
 20
180.567485
 30
0.0
 10
43.128026
 20
179.620994
 30
0.0
 10
42.928073
 20
179.122698
 30
0.0
 10
42.769580
 20
178.612126
 30
0.0
 10
42.655445
 20
178.092597
 30
0.0
 10
42.588561
 20
177.567430
 30
0.0
 10
42.557794
 20
176.982318
 30
0.0
 10
42.576674
 20
176.543691
 30
0.0
 10
42.650127
 20
176.210380
 30
0.0
 10
42.783083
 20
175.941215
 30
0.0
 10
43.175129
 20
175.502811
 30
0.0
 10
43.743203
 20
175.098969
 30
0.0
 10
44.460643
 20
174.745399
 30
0.0
 10
45.300787
 20
174.457810
 30
0.0
 10
45.914806
 20
174.338558
 30
0.0
 10
46.703471
 20
174.262818
 30
0.0
 10
48.564566
 20
174.235399
 30
0.0
 10
50.403721
 20
174.362599
 30
0.0
 10
51.164960
 20
174.480134
 30
0.0
 10
51.740582
 20
174.631467
 30
0.0
 10
51.740582
 20
174.631467
 30
0.0
  0
LWPOLYLINE
  5
103
100
AcDbEntity
  8
Layer_1
 62
7
100
AcDbPolyline
 90
31
 70
0
 10
44.627125
 20
176.832354
 30
0.0
 10
44.514247
 20
177.060347
 30
0.0
 10
44.445021
 20
177.328692
 30
0.0
 10
44.418828
 20
177.631645
 30
0.0
 10
44.435046
 20
177.963463
 30
0.0
 10
44.592235
 20
178.690728
 30
0.0
 10
44.911622
 20
179.464542
 30
0.0
 10
45.278335
 20
180.057488
 30
0.0
 10
45.644273
 20
180.425137
 30
0.0
 10
45.821705
 20
180.527294
 30
0.0
 10
45.992646
 20
180.576511
 30
0.0
 10
46.154999
 20
180.573914
 30
0.0
 10
46.306664
 20
180.520633
 30
0.0
 10
46.445543
 20
180.417794
 30
0.0
 10
46.569535
 20
180.266525
 30
0.0
 10
46.764469
 20
179.823209
 30
0.0
 10
46.874675
 20
179.199709
 30
0.0
 10
46.883362
 20
178.405046
 30
0.0
 10
46.832734
 20
177.783076
 30
0.0
 10
46.742151
 20
177.367488
 30
0.0
 10
46.580591
 20
177.070628
 30
0.0
 10
46.317033
 20
176.804843
 30
0.0
 10
46.070463
 20
176.618859
 30
0.0
 10
45.828192
 20
176.487090
 30
0.0
 10
45.593117
 20
176.409489
 30
0.0
 10
45.368137
 20
176.386010
 30
0.0
 10
45.156150
 20
176.416605
 30
0.0
 10
44.960053
 20
176.501226
 30
0.0
 10
44.782746
 20
176.639827
 30
0.0
 10
44.627125
 20
176.832360
 30
0.0
 10
44.627125
 20
176.832354
 30
0.0
  0
LWPOLYLINE
  5
104
100
AcDbEntity
  8
Layer_1
 62
7
100
AcDbPolyline
 90
31
 70
0
 10
50.035240
 20
176.835374
 30
0.0
 10
49.820354
 20
177.113251
 30
0.0
 10
49.676983
 20
177.437066
 30
0.0
 10
49.588597
 20
177.860086
 30
0.0
 10
49.538667
 20
178.435577
 30
0.0
 10
49.548363
 20
179.219780
 30
0.0
 10
49.659794
 20
179.834408
 30
0.0
 10
49.855953
 20
180.270593
 30
0.0
 10
49.980490
 20
180.418999
 30
0.0
 10
50.119830
 20
180.519469
 30
0.0
 10
50.271848
 20
180.570894
 30
0.0
 10
50.434418
 20
180.572167
 30
0.0
 10
50.605413
 20
180.522178
 30
0.0
 10
50.782707
 20
180.419820
 30
0.0
 10
51.147688
 20
180.053562
 30
0.0
 10
51.512354
 20
179.464525
 30
0.0
 10
51.831741
 20
178.690711
 30
0.0
 10
51.988930
 20
177.963446
 30
0.0
 10
52.005148
 20
177.631628
 30
0.0
 10
51.978954
 20
177.328675
 30
0.0
 10
51.909728
 20
177.060330
 30
0.0
 10
51.796848
 20
176.832338
 30
0.0
 10
51.629366
 20
176.630915
 30
0.0
 10
51.433207
 20
176.487174
 30
0.0
 10
51.215179
 20
176.401103
 30
0.0
 10
50.982089
 20
176.372690
 30
0.0
 10
50.740744
 20
176.401923
 30
0.0
 10
50.497949
 20
176.488791
 30
0.0
 10
50.260512
 20
176.633282
 30
0.0
 10
50.035240
 20
176.835386
 30
0.0
 10
50.035240
 20
176.835374
 30
0.0
  0
LWPOLYLINE
  5
105
100
AcDbEntity
  8
Layer_1
 62
7
100
AcDbPolyline
 90
18
 70
0
 10
42.984945
 20
183.981374
 30
0.0
 10
43.105382
 20
184.051838
 30
0.0
 10
43.192176
 20
184.152788
 30
0.0
 10
43.264368
 20
184.415356
 30
0.0
 10
43.200588
 20
184.707502
 30
0.0
 10
42.999903
 20
184.967650
 30
0.0
 10
42.852624
 20
185.069820
 30
0.0
 10
42.725581
 20
185.103876
 30
0.0
 10
42.598539
 20
185.069820
 30
0.0
 10
42.451260
 20
184.967650
 30
0.0
 10
42.259396
 20
184.716322
 30
0.0
 10
42.185648
 20
184.423442
 30
0.0
 10
42.233276
 20
184.158625
 30
0.0
 10
42.303624
 20
184.058495
 30
0.0
 10
42.405540
 20
183.991486
 30
0.0
 10
42.664905
 20
183.884806
 30
0.0
 10
42.984945
 20
183.981374
 30
0.0
 10
42.984945
 20
183.981374
 30
0.0
  0
LWPOLYLINE
  5
106
100
AcDbEntity
  8
Layer_1
 62
7
100
AcDbPolyline
 90
18
 70
0
 10
53.957756
 20
183.981374
 30
0.0
 10
54.078193
 20
184.051838
 30
0.0
 10
54.164987
 20
184.152788
 30
0.0
 10
54.237179
 20
184.415356
 30
0.0
 10
54.173399
 20
184.707502
 30
0.0
 10
53.972714
 20
184.967650
 30
0.0
 10
53.825435
 20
185.069820
 30
0.0
 10
53.698393
 20
185.103876
 30
0.0
 10
53.571352
 20
185.069820
 30
0.0
 10
53.424074
 20
184.967650
 30
0.0
 10
53.232209
 20
184.716322
 30
0.0
 10
53.158460
 20
184.423442
 30
0.0
 10
53.206088
 20
184.158625
 30
0.0
 10
53.276437
 20
184.058495
 30
0.0
 10
53.378354
 20
183.991486
 30
0.0
 10
53.637716
 20
183.884806
 30
0.0
 10
53.957756
 20
183.981374
 30
0.0
 10
53.957756
 20
183.981374
 30
0.0
  0
LWPOLYLINE
  5
107
100
AcDbEntity
  8
Layer_1
 62
7
100
AcDbPolyline
 90
71
 70
0
 10
41.394112
 20
193.369482
 30
0.0
 10
40.519838
 20
193.865854
 30
0.0
 10
41.942752
 20
194.530507
 30
0.0
 10
43.138710
 20
195.037652
 30
0.0
 10
44.305381
 20
195.423425
 30
0.0
 10
45.480877
 20
195.698581
 30
0.0
 10
46.703310
 20
195.873877
 30
0.0
 10
47.321429
 20
195.951749
 30
0.0
 10
47.700331
 20
196.050238
 30
0.0
 10
47.915847
 20
196.201158
 30
0.0
 10
48.043809
 20
196.436328
 30
0.0
 10
48.165391
 20
196.766661
 30
0.0
 10
48.170682
 20
196.948480
 30
0.0
 10
48.015872
 20
197.070938
 30
0.0
 10
47.657151
 20
197.223189
 30
0.0
 10
47.255862
 20
197.434299
 30
0.0
 10
46.926151
 20
197.697735
 30
0.0
 10
46.673336
 20
197.999583
 30
0.0
 10
46.502739
 20
198.325932
 30
0.0
 10
46.419681
 20
198.662867
 30
0.0
 10
46.429483
 20
198.996477
 30
0.0
 10
46.537464
 20
199.312848
 30
0.0
 10
46.748946
 20
199.598067
 30
0.0
 10
47.089295
 20
199.833201
 30
0.0
 10
47.470419
 20
199.926022
 30
0.0
 10
47.865765
 20
199.890985
 30
0.0
 10
48.248777
 20
199.742545
 30
0.0
 10
48.592900
 20
199.495158
 30
0.0
 10
48.871579
 20
199.163281
 30
0.0
 10
49.058260
 20
198.761368
 30
0.0
 10
49.126388
 20
198.303875
 30
0.0
 10
49.144042
 20
198.015373
 30
0.0
 10
49.225176
 20
197.854375
 30
0.0
 10
49.412044
 20
197.784474
 30
0.0
 10
49.746905
 20
197.769264
 30
0.0
 10
50.019341
 20
197.750088
 30
0.0
 10
50.235527
 20
197.693894
 30
0.0
 10
50.390430
 20
197.602679
 30
0.0
 10
50.479017
 20
197.478442
 30
0.0
 10
50.535128
 20
197.193954
 30
0.0
 10
50.507915
 20
197.086290
 30
0.0
 10
50.442392
 20
197.000383
 30
0.0
 10
50.192024
 20
196.889947
 30
0.0
 10
49.775243
 20
196.854864
 30
0.0
 10
49.409642
 20
196.810025
 30
0.0
 10
49.149915
 20
196.674844
 30
0.0
 10
48.994919
 20
196.448320
 30
0.0
 10
48.943508
 20
196.129457
 30
0.0
 10
49.024710
 20
196.062293
 30
0.0
 10
49.245805
 20
195.987975
 30
0.0
 10
49.972603
 20
195.854031
 30
0.0
 10
51.132243
 20
195.665008
 30
0.0
 10
52.243509
 20
195.389309
 30
0.0
 10
53.346009
 20
195.015311
 30
0.0
 10
54.479354
 20
194.531388
 30
0.0
 10
55.900396
 20
193.867612
 30
0.0
 10
54.997099
 20
193.373642
 30
0.0
 10
54.093804
 20
192.879671
 30
0.0
 10
53.037356
 20
193.390270
 30
0.0
 10
51.968429
 20
193.815823
 30
0.0
 10
50.794755
 20
194.120750
 30
0.0
 10
49.550340
 20
194.304971
 30
0.0
 10
48.269191
 20
194.368406
 30
0.0
 10
46.985315
 20
194.310977
 30
0.0
 10
45.732719
 20
194.132604
 30
0.0
 10
44.545410
 20
193.833207
 30
0.0
 10
43.457393
 20
193.412707
 30
0.0
 10
42.359823
 20
192.907269
 30
0.0
 10
42.038426
 20
193.028969
 30
0.0
 10
41.394112
 20
193.369496
 30
0.0
 10
41.394112
 20
193.369482
 30
0.0
  0
LWPOLYLINE
  5
108
100
AcDbEntity
  8
Layer_1
 62
7
100
AcDbPolyline
 90
16
 70
0
 10
48.021816
 20
198.783890
 30
0.0
 10
47.792173
 20
198.971426
 30
0.0
 10
47.549517
 20
199.049427
 30
0.0
 10
47.424848
 20
199.027452
 30
0.0
 10
47.344576
 20
198.966784
 30
0.0
 10
47.307160
 20
198.875310
 30
0.0
 10
47.311061
 20
198.760914
 30
0.0
 10
47.436663
 20
198.494903
 30
0.0
 10
47.709068
 20
198.231838
 30
0.0
 10
47.932892
 20
198.083663
 30
0.0
 10
48.064754
 20
198.034068
 30
0.0
 10
48.136848
 20
198.082934
 30
0.0
 10
48.181370
 20
198.230144
 30
0.0
 10
48.159590
 20
198.511619
 30
0.0
 10
48.021816
 20
198.783782
 30
0.0
 10
48.021816
 20
198.783890
 30
0.0
  0
ENDSEC
  0
SECTION
  2
OBJECTS
  0
DICTIONARY
  5
C
330
0
100
AcDbDictionary
  3
ACAD_GROUP
350
D
  3
ACAD_MLINESTYLE
350
17
  0
DICTIONARY
  5
D
330
C
100
AcDbDictionary
  0
DICTIONARY
  5
1A
330
C
100
AcDbDictionary
  0
DICTIONARY
  5
17
330
C
100
AcDbDictionary
  3
STANDARD
350
18
  0
DICTIONARY
  5
19
330
C
100
AcDbDictionary
  0
ENDSEC
  0
EOF
