<?xml version="1.0" encoding="UTF-8" standalone="no"?>
<!-- Created with Inkscape (http://www.inkscape.org/) -->

<svg
   xmlns:dc="http://purl.org/dc/elements/1.1/"
   xmlns:cc="http://creativecommons.org/ns#"
   xmlns:rdf="http://www.w3.org/1999/02/22-rdf-syntax-ns#"
   xmlns:svg="http://www.w3.org/2000/svg"
   xmlns="http://www.w3.org/2000/svg"
   xmlns:sodipodi="http://sodipodi.sourceforge.net/DTD/sodipodi-0.dtd"
   xmlns:inkscape="http://www.inkscape.org/namespaces/inkscape"
   width="1800"
   height="1350"
   id="svg2"
   version="1.1"
   inkscape:version="0.48.5 r10040"
   sodipodi:docname="New document 1">
  <defs
     id="defs4" />
  <sodipodi:namedview
     id="base"
     pagecolor="#ffffff"
     bordercolor="#666666"
     borderopacity="1.0"
     inkscape:pageopacity="0.0"
     inkscape:pageshadow="2"
     inkscape:zoom="0.35"
     inkscape:cx="1369.9602"
     inkscape:cy="645.64213"
     inkscape:document-units="px"
     inkscape:current-layer="layer1"
     showgrid="false"
     units="in"
     inkscape:window-width="1280"
     inkscape:window-height="752"
     inkscape:window-x="0"
     inkscape:window-y="0"
     inkscape:window-maximized="1" />
  <metadata
     id="metadata7">
    <rdf:RDF>
      <cc:Work
         rdf:about="">
        <dc:format>image/svg+xml</dc:format>
        <dc:type
           rdf:resource="http://purl.org/dc/dcmitype/StillImage" />
        <dc:title></dc:title>
      </cc:Work>
    </rdf:RDF>
  </metadata>
  <g
     inkscape:label="Layer 1"
     inkscape:groupmode="layer"
     id="layer1"
     transform="translate(0,297.64025)">
    <path
       sodipodi:type="star"
       style="fill:none;stroke:#ff0000;stroke-width:0.76128113;stroke-linecap:round;stroke-linejoin:round;stroke-miterlimit:4;stroke-opacity:1;stroke-dasharray:none;stroke-dashoffset:0"
       id="path2987"
       sodipodi:sides="3"
       sodipodi:cx="179.80714"
       sodipodi:cy="225.04726"
       sodipodi:r1="172.73608"
       sodipodi:r2="86.368042"
       sodipodi:arg1="1.5707963"
       sodipodi:arg2="2.6179939"
       inkscape:flatsided="true"
       inkscape:rounded="0"
       inkscape:randomized="0"
       d="M 179.80715,397.78334 30.213305,138.67922 l 299.187675,-10e-6 z"
       inkscape:transform-center-y="78.497648"
       transform="matrix(2.175845,0,0,1.8177479,680.21935,-52.021258)" />
    <rect
       style="fill:none;stroke:#ff0000;stroke-width:1.51400006;stroke-linecap:round;stroke-linejoin:round;stroke-miterlimit:4;stroke-opacity:1;stroke-dasharray:none;stroke-dashoffset:0"
       id="rect2989"
       width="574.48602"
       height="268.48599"
       x="571.26147"
       y="-473.29205"
       transform="matrix(0.56790908,0.8230913,-0.8230913,0.56790908,0,0)" />
    <path
       style="fill:none;stroke:#ff0000;stroke-width:1.51400006;stroke-linecap:round;stroke-linejoin:round;stroke-miterlimit:4;stroke-opacity:1;stroke-dasharray:none;stroke-dashoffset:0"
       d="m 748.17857,-105.89918 0,268.5 646.50003,0 0,-268.5 -54,0 0,57.062501 c 0,34.03143 -27.4061,61.4375 -61.4375,61.4375 l -415.62503,0 c -34.03143,0 -61.4375,-27.40607 -61.4375,-61.4375 l 0,-57.062501 -54,0 z"
       id="rect2995"
       inkscape:connector-curvature="0" />
    <rect
       transform="matrix(-0.56790908,0.8230913,0.8230913,0.56790908,0,0)"
       y="1304.0577"
       x="-657.5354"
       height="268.48599"
       width="574.48602"
       id="rect2999"
       style="fill:none;stroke:#ff0000;stroke-width:1.51400006;stroke-linecap:round;stroke-linejoin:round;stroke-miterlimit:4;stroke-opacity:1;stroke-dasharray:none;stroke-dashoffset:0" />
    <path
       style="fill:none;stroke:#ff0000;stroke-width:1.5140003;stroke-linecap:round;stroke-linejoin:round;stroke-miterlimit:4;stroke-opacity:1;stroke-dasharray:none;stroke-dashoffset:0"
       d="m 1546.212,-110.89695 -130.2187,0 -3.2812,0 -6.4375,0 0,268.46875 9.7187,0 0,-154.3749965 c -0.3493,-1.75454 -0.5312,-3.56446202 -0.5312,-5.406252 0,-1.83756 0.1835,-3.62427 0.5312,-5.375 l 0,-0.40625 c 0.05,-0.138 0.1054,-0.26906 0.1563,-0.40625 1.561,-6.8014905 5.6562,-12.7859105 11.375,-17.2187505 4.555,-4.04215 9.8991,-6.64196 15.6562,-7.25 l 0,-0.15625 1.9063,0 c 2.0264,-0.31047 4.0904,-0.5 6.2187,-0.5 2.1283,0 4.2236,0.18953 6.25,0.5 l 88.6562,0 0,-77.875001 z"
       id="rect3787"
       inkscape:connector-curvature="0" />
    <path
       id="path3813"
       d="m 579.1317,-105.18266 130.21874,0 3.28125,0 6.4375,0 0,268.46875 -9.71875,0 0,-154.3749984 c 0.34931,-1.75454 0.53125,-3.56446 0.53125,-5.40625 0,-1.83756 -0.18351,-3.62426999 -0.53125,-5.375 l 0,-0.40625 c -0.0499,-0.138 -0.10535,-0.26906 -0.15625,-0.40625 -1.561,-6.80149 -5.65625,-12.7859096 -11.375,-17.2187496 -4.55505,-4.04215 -9.8991,-6.64196 -15.65625,-7.25 l 0,-0.15625 -1.90625,0 c -2.0264,-0.31047 -4.09048,-0.5 -6.21875,-0.5 -2.12827,0 -4.2236,0.18953 -6.25,0.5 l -88.65624,0 0,-77.875002 z"
       style="fill:none;stroke:#ff0000;stroke-width:1.5140003;stroke-linecap:round;stroke-linejoin:round;stroke-miterlimit:4;stroke-opacity:1;stroke-dasharray:none;stroke-dashoffset:0"
       inkscape:connector-curvature="0" />
  </g>
</svg>
