<?xml version="1.0" encoding="UTF-8" standalone="no"?>
<!-- Created with Inkscape (http://www.inkscape.org/) -->

<svg
   xmlns:dc="http://purl.org/dc/elements/1.1/"
   xmlns:cc="http://creativecommons.org/ns#"
   xmlns:rdf="http://www.w3.org/1999/02/22-rdf-syntax-ns#"
   xmlns:svg="http://www.w3.org/2000/svg"
   xmlns="http://www.w3.org/2000/svg"
   xmlns:sodipodi="http://sodipodi.sourceforge.net/DTD/sodipodi-0.dtd"
   xmlns:inkscape="http://www.inkscape.org/namespaces/inkscape"
   width="1530"
   height="900"
   id="svg2"
   version="1.1"
   inkscape:version="0.48.5 r10040"
   sodipodi:docname="New document 1">
  <defs
     id="defs4" />
  <sodipodi:namedview
     id="base"
     pagecolor="#ffffff"
     bordercolor="#666666"
     borderopacity="1.0"
     inkscape:pageopacity="0.0"
     inkscape:pageshadow="2"
     inkscape:zoom="0.35"
     inkscape:cx="621.93309"
     inkscape:cy="439.1878"
     inkscape:document-units="px"
     inkscape:current-layer="layer1"
     showgrid="false"
     units="in"
     inkscape:window-width="1280"
     inkscape:window-height="752"
     inkscape:window-x="0"
     inkscape:window-y="0"
     inkscape:window-maximized="1" />
  <metadata
     id="metadata7">
    <rdf:RDF>
      <cc:Work
         rdf:about="">
        <dc:format>image/svg+xml</dc:format>
        <dc:type
           rdf:resource="http://purl.org/dc/dcmitype/StillImage" />
        <dc:title></dc:title>
      </cc:Work>
    </rdf:RDF>
  </metadata>
  <g
     inkscape:label="Layer 1"
     inkscape:groupmode="layer"
     id="layer1"
     transform="translate(0,-152.359)">
    <path
       style="fill:none;stroke:#000000;stroke-width:3.54330754;stroke-miterlimit:4;stroke-opacity:1;stroke-dasharray:none"
       d="m 740.21662,323.18489 c -5.47732,0 -10.85044,0.0308 -16.19062,0.0625 -45.96665,0.27289 -86.91029,1.70612 -123.14761,4.34375 -14.14786,1.02979 -53.94243,4.6883 -60.20724,5.53125 -2.18489,0.29398 -10.57013,1.31305 -18.63743,2.28125 -8.06724,0.96821 -17.14797,2.14309 -20.1732,2.59375 -3.02522,0.45067 -9.49453,1.37271 -14.36852,2.0625 -14.21762,2.01217 -27.79728,4.07756 -34.51569,5.25 -1.68065,0.2933 -5.39433,0.9399 -8.25149,1.4375 -2.85714,0.49761 -6.57079,1.17979 -8.25149,1.5 -1.68066,0.32022 -4.43636,0.81743 -6.11703,1.125 -1.68071,0.30758 -4.43633,0.85425 -6.11704,1.1875 -1.68063,0.33325 -5.25006,0.96876 -7.93912,1.4375 -2.68911,0.46875 -6.25844,1.15193 -7.93913,1.5 -1.6807,0.34807 -4.29207,0.86504 -5.80468,1.15625 -1.51261,0.29121 -4.12399,0.83139 -5.80467,1.1875 -1.68071,0.35611 -4.17383,0.79632 -5.51835,0.96875 -1.34459,0.17243 -2.70018,0.52469 -3.01947,0.8125 -0.31938,0.28781 -1.60578,0.53125 -2.86329,0.53125 -1.25746,0 -2.44731,0.2731 -2.65506,0.59375 -0.20772,0.32065 -1.45425,0.5625 -2.75917,0.5625 -1.30485,0 -2.55142,0.2731 -2.75917,0.59375 -0.20774,0.32065 -1.42833,0.59375 -2.73315,0.59375 -1.30491,0 -2.5213,0.21322 -2.70711,0.5 -0.18578,0.28678 -1.36641,0.67667 -2.62902,0.84375 -3.80911,0.50403 -8.23604,1.51457 -8.9543,2.0625 -0.37195,0.28374 -1.66079,0.66322 -2.83726,0.84375 -2.37018,0.3637 -6.20088,1.16598 -10.38595,2.15625 -1.5126,0.35791 -3.57285,0.8012 -4.58126,0.96875 -1.00843,0.16754 -2.68911,0.67097 -3.74831,1.125 -1.05922,0.45403 -2.63425,0.8125 -3.48802,0.8125 -0.85373,0 -1.71849,0.2731 -1.92621,0.59375 -0.20777,0.32065 -1.31003,0.5625 -2.44681,0.5625 -1.13682,0 -2.2391,0.2731 -2.44682,0.59375 -0.20775,0.32065 -1.31164,0.59375 -2.47284,0.59375 -1.1612,0 -2.59199,0.22454 -3.17565,0.5 -2.07833,0.98083 -7.36487,2.40625 -8.90224,2.40625 -0.8594,0 -1.71539,0.24603 -1.90019,0.53125 -0.18476,0.28522 -1.24715,0.62495 -2.34269,0.78125 -1.09555,0.15629 -3.63164,0.75447 -5.64849,1.3125 -2.01679,0.55803 -4.62818,1.23826 -5.80468,1.5 -1.17646,0.26173 -3.23672,0.76171 -4.58127,1.125 -1.34453,0.36329 -3.47693,0.91942 -4.73745,1.21875 -10.67477,2.53492 -11.56854,2.74387 -15.12339,3.78125 -1.84876,0.53949 -4.41192,1.09788 -5.67452,1.25 -1.26261,0.15213 -2.44325,0.52572 -2.62903,0.8125 -0.18583,0.28677 -1.25794,0.5 -2.39475,0.5 -1.13679,0 -2.23906,0.2731 -2.44681,0.59375 -0.20773,0.32065 -1.27634,0.59375 -2.36873,0.59375 -1.0924,0 -2.52318,0.37297 -3.17565,0.84375 -0.65252,0.47077 -2.05102,0.8648 -3.12359,0.875 -1.07263,0.0102 -2.13495,0.2731 -2.34269,0.59375 -0.20776,0.32065 -1.25027,0.59375 -2.3427,0.59375 -1.09234,0 -2.52314,0.37297 -3.17565,0.84375 -0.65248,0.47077 -2.07701,0.8648 -3.14962,0.875 -1.07259,0.0102 -2.10894,0.30435 -2.31667,0.625 -0.20774,0.32065 -1.27931,0.5625 -2.36872,0.5625 -1.08941,0 -2.27872,0.29726 -2.65505,0.65625 -0.62226,0.5936 -2.72639,1.16328 -7.80898,2.09375 -1.00841,0.18462 -2.3825,0.68804 -3.0455,1.125 -0.66305,0.43696 -2.09383,0.8125 -3.17566,0.8125 -1.08184,0 -2.13494,0.24185 -2.34269,0.5625 -0.20774,0.32065 -1.13204,0.59375 -2.05637,0.59375 -0.92429,0 -2.21078,0.37297 -2.86329,0.84375 -0.6525,0.47078 -1.93272,0.8648 -2.83726,0.875 -0.90455,0.0102 -1.82258,0.30434 -2.03034,0.625 -0.2077,0.32065 -1.24406,0.58355 -2.31666,0.59375 -1.07257,0.0102 -2.49712,0.40423 -3.14963,0.875 -0.6525,0.47078 -1.93896,0.84375 -2.86329,0.84375 -0.92431,0 -1.84864,0.2731 -2.05636,0.59375 -0.20774,0.32065 -1.27931,0.5625 -2.39476,0.5625 -1.11551,0 -2.36671,0.39402 -2.7852,0.875 -0.41842,0.48097 -1.66501,0.875 -2.75917,0.875 -1.09413,0 -2.34071,0.39403 -2.75918,0.875 -0.41845,0.48098 -1.48548,0.89605 -2.36872,0.90625 -0.88324,0.0102 -2.13273,0.40422 -2.7852,0.875 -0.65247,0.47078 -1.93892,0.84375 -2.86329,0.84375 -0.92433,0 -1.84859,0.2731 -2.05637,0.59375 -0.20775,0.32065 -1.30525,0.59375 -2.42078,0.59375 -1.11546,0 -2.3668,0.39402 -2.78521,0.875 -0.41852,0.48097 -1.48549,0.8648 -2.36872,0.875 -0.88323,0.0102 -2.13272,0.40423 -2.7852,0.875 -0.65247,0.47078 -1.89904,0.8648 -2.75918,0.875 -0.86007,0.0102 -2.08065,0.40422 -2.73314,0.875 -0.65251,0.47078 -1.8207,0.875 -2.57696,0.875 -0.75625,0 -1.53626,0.24185 -1.74401,0.5625 -0.20771,0.32065 -1.03796,0.59375 -1.84812,0.59375 -1.30262,0 -5.00135,1.44496 -7.62677,2.96875 -0.5042,0.29264 -2.46475,1.29273 -4.37303,2.25 -1.90831,0.95728 -3.65329,2.00514 -3.85243,2.3125 -0.19913,0.30737 -2.26406,1.13827 -4.6073,1.84375 -2.34324,0.70546 -4.56526,1.62524 -4.94569,2.0625 -0.38043,0.43728 -1.21082,0.8125 -1.82209,0.8125 -0.61128,0 -1.27541,0.24101 -1.48371,0.5625 -0.20829,0.3215 -1.5332,1.12965 -2.94138,1.78125 -1.4082,0.6516 -3.39065,1.68612 -4.39906,2.3125 -1.00841,0.6264 -2.28038,1.3495 -2.83726,1.59375 -2.08088,0.91268 -13.57844,11.66228 -16.0865,15.03125 -3.38303,4.54429 -4.978393,7.55384 -7.288381,13.96875 l -1.874156,5.25 -0.312359,42.875 c -0.30382,41.76941 -0.286071,43.03692 0.989138,50.46875 1.899568,11.07044 5.033129,17.71661 11.687438,24.75 5.41878,5.72748 8.47161,7.49705 14.96721,8.71875 3.11265,0.58543 9.91328,1.22706 15.12339,1.4375 0.22666,0.009 0.45035,0.0215 0.67678,0.0312 l 101.41262,0 c 41.37128,2.1301 78.28964,18.04029 110.67928,47.71875 24.01686,22.00651 38.76609,41.15066 51.87765,67.3125 6.26441,12.49954 9.84847,21.75669 15.25355,39.4375 2.70564,8.85055 4.03753,14.67887 6.45542,28 0.7904,4.35461 1.59483,6.85803 3.14962,9.90625 5.75226,11.27759 11.47663,16.53593 22.02132,20.1875 l 4.58127,1.5625 105.42123,0.0625 105.3952,0.0625 3.54007,-1.40625 c 9.43263,-3.7294 13.35375,-6.75146 21.83911,-16.75 19.96104,-23.52068 23.01544,-26.53796 31.57431,-31.4375 5.61403,-3.21374 6.56762,-3.55921 11.94774,-4.40625 4.3994,-0.69265 8.34037,-0.85027 15.80017,-0.625 11.4321,0.3452 13.05106,0.7697 21.1363,5.5625 7.57516,4.49039 11.28578,8.22655 30.53312,30.90625 8.48536,9.99854 12.40647,13.0206 21.83911,16.75 l 3.54007,1.40625 105.05681,0 105.05687,0 4.6072,-1.5 c 10.7663,-3.46671 16.8613,-8.9316 22.6981,-20.375 1.5548,-3.04828 2.3592,-5.55164 3.1496,-9.90625 2.4179,-13.32113 3.7498,-19.14945 6.4554,-28 5.4052,-17.68081 8.9892,-26.93796 15.2537,-39.4375 13.1115,-26.16184 27.8607,-45.30599 51.8776,-67.3125 32.3896,-29.67846 69.308,-45.58865 110.6793,-47.71875 l 101.4126,0 c 0.2264,-0.01 0.4501,-0.0221 0.6768,-0.0312 5.2103,-0.21044 12.0109,-0.85207 15.1234,-1.4375 6.4954,-1.2217 9.5486,-2.99127 14.9672,-8.71875 6.6544,-7.03339 9.7876,-13.67956 11.6874,-24.75 1.2752,-7.43183 1.293,-8.69934 0.9891,-50.46875 l -0.3124,-42.875 -1.8741,-5.25 c -2.3098,-6.41491 -3.9053,-9.42446 -7.2884,-13.96875 -2.508,-3.36897 -14.0056,-14.11857 -16.0864,-15.03125 -0.5572,-0.24425 -1.8289,-0.96735 -2.8373,-1.59375 -1.0086,-0.62638 -2.9504,-1.65439 -4.295,-2.3125 -1.3445,-0.65811 -2.9258,-1.46626 -3.514,-1.78125 -0.5886,-0.31499 -1.5461,-0.84039 -2.1345,-1.15625 -2.5341,-1.36081 -5.3879,-2.37726 -7.6267,-2.71875 -1.3221,-0.2017 -2.5513,-0.73614 -2.7332,-1.1875 -0.1814,-0.45135 -1.8839,-1.58254 -3.7743,-2.53125 -1.8903,-0.94869 -3.8431,-1.95736 -4.347,-2.25 -2.6256,-1.52379 -6.3238,-2.96875 -7.6268,-2.96875 -0.8101,0 -1.6405,-0.2731 -1.8481,-0.59375 -0.2079,-0.32065 -0.9872,-0.5625 -1.744,-0.5625 -0.7558,0 -1.9247,-0.40422 -2.577,-0.875 -0.6523,-0.47078 -1.8732,-0.8648 -2.7331,-0.875 -0.8602,-0.0102 -2.1067,-0.40422 -2.7592,-0.875 -0.6525,-0.47077 -1.9018,-0.8648 -2.7852,-0.875 -0.8833,-0.0102 -1.9501,-0.39403 -2.3687,-0.875 -0.4187,-0.48098 -1.6699,-0.875 -2.7852,-0.875 -1.1153,0 -2.2134,-0.2731 -2.4208,-0.59375 -0.2081,-0.32065 -1.1319,-0.59375 -2.0564,-0.59375 -0.924,0 -2.2105,-0.37297 -2.8633,-0.84375 -0.6522,-0.47078 -1.9023,-0.8648 -2.7851,-0.875 -0.8833,-0.0102 -1.9502,-0.42527 -2.3688,-0.90625 -0.4182,-0.48097 -1.6645,-0.875 -2.7592,-0.875 -1.0937,0 -2.3405,-0.39403 -2.7591,-0.875 -0.4184,-0.48098 -1.6694,-0.875 -2.7853,-0.875 -1.1152,0 -2.1871,-0.24185 -2.3947,-0.5625 -0.2076,-0.32065 -1.1321,-0.59375 -2.0563,-0.59375 -0.9241,0 -2.2106,-0.37297 -2.8633,-0.84375 -0.6523,-0.47077 -2.0768,-0.8648 -3.1496,-0.875 -1.0729,-0.0102 -2.1088,-0.2731 -2.3167,-0.59375 -0.2076,-0.32066 -1.1262,-0.6148 -2.0304,-0.625 -0.9047,-0.0102 -2.1851,-0.40422 -2.8372,-0.875 -0.6529,-0.47078 -1.939,-0.84375 -2.8634,-0.84375 -0.924,0 -1.8481,-0.2731 -2.0563,-0.59375 -0.2075,-0.32065 -1.2608,-0.5625 -2.3427,-0.5625 -1.0821,0 -2.5126,-0.37554 -3.1756,-0.8125 -0.663,-0.43696 -2.0374,-0.94038 -3.0456,-1.125 -5.0824,-0.93047 -7.1865,-1.50015 -7.809,-2.09375 -0.3763,-0.35899 -1.5655,-0.65625 -2.6549,-0.65625 -1.0894,0 -2.1614,-0.24185 -2.3688,-0.5625 -0.2075,-0.32065 -1.2443,-0.6148 -2.3166,-0.625 -1.0727,-0.0102 -2.4973,-0.40423 -3.1497,-0.875 -0.6525,-0.47078 -2.0835,-0.84375 -3.1756,-0.84375 -1.0926,0 -2.1346,-0.2731 -2.3427,-0.59375 -0.2076,-0.32065 -1.2699,-0.58355 -2.3427,-0.59375 -1.0724,-0.0102 -2.4708,-0.40423 -3.1236,-0.875 -0.6523,-0.47078 -2.083,-0.84375 -3.1757,-0.84375 -1.0921,0 -2.1608,-0.2731 -2.3686,-0.59375 -0.2079,-0.32065 -1.3099,-0.59375 -2.4469,-0.59375 -1.1365,0 -2.2086,-0.21323 -2.3948,-0.5 -0.1857,-0.28678 -1.367,-0.66037 -2.629,-0.8125 -1.2627,-0.15212 -3.8256,-0.71051 -5.6745,-1.25 -1.8489,-0.5395 -4.4602,-1.24363 -5.8046,-1.5625 -1.3447,-0.31887 -3.4043,-0.80242 -4.5813,-1.09375 -1.1762,-0.29133 -3.2368,-0.81101 -4.5813,-1.125 -1.3444,-0.31399 -3.5491,-0.85546 -4.8936,-1.21875 -1.3447,-0.36329 -3.4043,-0.86327 -4.5813,-1.125 -1.1763,-0.26174 -3.7883,-0.94197 -5.8047,-1.5 -2.0173,-0.55803 -4.5531,-1.15621 -5.6484,-1.3125 -1.0956,-0.1563 -2.1581,-0.49603 -2.3428,-0.78125 -0.1845,-0.28522 -1.0406,-0.53125 -1.9002,-0.53125 -1.5373,0 -6.8239,-1.42542 -8.9022,-2.40625 -0.584,-0.27546 -2.0141,-0.5 -3.1756,-0.5 -1.1612,0 -2.2649,-0.2731 -2.4729,-0.59375 -0.2075,-0.32065 -1.3098,-0.59375 -2.4468,-0.59375 -1.1368,0 -2.2386,-0.24185 -2.4469,-0.5625 -0.2073,-0.32065 -1.0723,-0.59375 -1.9261,-0.59375 -0.8538,0 -2.4287,-0.35847 -3.4881,-0.8125 -1.0593,-0.45403 -2.7399,-0.95746 -3.7483,-1.125 -1.0082,-0.16755 -3.0684,-0.61084 -4.5813,-0.96875 -4.1847,-0.99027 -8.0158,-1.79255 -10.3859,-2.15625 -1.1767,-0.18053 -2.465,-0.56001 -2.8373,-0.84375 -0.718,-0.54793 -5.1453,-1.55847 -8.9543,-2.0625 -1.2622,-0.16708 -2.443,-0.55697 -2.6289,-0.84375 -0.1861,-0.28678 -1.4022,-0.5 -2.7072,-0.5 -1.305,0 -2.5252,-0.2731 -2.7331,-0.59375 -0.2076,-0.32065 -1.4542,-0.59375 -2.7592,-0.59375 -1.3045,0 -2.5516,-0.24185 -2.7591,-0.5625 -0.2079,-0.32065 -1.3975,-0.59375 -2.6552,-0.59375 -1.2572,0 -2.5438,-0.24344 -2.8632,-0.53125 -0.3193,-0.28781 -1.7009,-0.64007 -3.0455,-0.8125 -1.3447,-0.17243 -3.8122,-0.61264 -5.4923,-0.96875 -1.6809,-0.35611 -4.2919,-0.89629 -5.8047,-1.1875 -1.5123,-0.29121 -4.1244,-0.80818 -5.8047,-1.15625 -1.6806,-0.34807 -5.2501,-1.03125 -7.9391,-1.5 -2.689,-0.46874 -6.2583,-1.10425 -7.9391,-1.4375 -1.6804,-0.33325 -4.436,-0.87992 -6.1171,-1.1875 -1.6805,-0.30757 -4.4364,-0.80478 -6.117,-1.125 -1.6807,-0.32021 -5.3941,-1.00239 -8.2515,-1.5 -2.8569,-0.4976 -6.5707,-1.1442 -8.2514,-1.4375 -6.7188,-1.17244 -20.2982,-3.23783 -34.5158,-5.25 -4.87397,-0.68979 -11.34306,-1.61183 -14.36853,-2.0625 -3.02522,-0.45066 -12.10587,-1.62554 -20.17315,-2.59375 -8.06728,-0.9682 -16.4525,-1.98727 -18.63744,-2.28125 -6.26476,-0.84295 -46.05938,-4.50146 -60.20723,-5.53125 -36.23732,-2.63763 -77.18098,-4.07086 -123.14761,-4.34375 -5.31474,-0.0458 -10.71139,-0.0625 -16.19062,-0.0625 z"
       id="path3050"
       inkscape:connector-curvature="0" />
    <path
       inkscape:connector-curvature="0"
       id="path3822"
       d="m -810.69197,455.81047 c -12.6593,-3.6515 -19.5293,-8.8936 -26.4351,-20.1712 -1.8666,-3.0482 -2.8205,-5.5564 -3.7694,-9.911 -2.9028,-13.3211 -4.5153,-19.1335 -7.7636,-27.9841 -6.489,-17.6808 -10.7956,-26.9583 -18.3163,-39.4579 -15.7409,-26.1618 -33.4463,-45.2949 -62.2796,-67.3014 -39.0571,-29.8097 -83.60213,-45.7406 -133.53723,-47.7575 -5.2101,-0.2105 -12.0196,-0.8616 -15.1323,-1.4471 -6.4956,-1.2217 -9.5359,-2.995 -14.9546,-8.7225 -6.6543,-7.0333 -9.7917,-13.6735 -11.6913,-24.744 -1.2752,-7.4318 -1.3004,-8.7054 -0.9965,-50.4748 l 0.3117,-42.8506 1.8894,-5.247 c 2.31,-6.4149 3.8854,-9.4478 7.2685,-13.992099 2.508,-3.3689 14.0161,-14.10644 16.097,-15.01912 0.5568,-0.24425 1.8375,-0.95659 2.8459,-1.58299 1.0084,-0.62638 2.9857,-1.67202 4.3939,-2.32362 1.4081,-0.6516 2.7307,-1.44778 2.939,-1.76928 0.2083,-0.32149 0.8788,-0.58453 1.4901,-0.58453 0.6113,0 1.4227,-0.35777 1.8031,-0.79505 0.3804,-0.43726 2.6089,-1.37224 4.9521,-2.0777 2.3433,-0.70548 4.4234,-1.53415 4.6225,-1.84152 0.1991,-0.30736 1.9234,-1.34206 3.8317,-2.29934 1.9083,-0.95727 3.8821,-1.97993 4.3863,-2.27257 2.6254,-1.52379 6.3196,-2.95686 7.6222,-2.95686 0.8102,0 1.643,-0.26235 1.8507,-0.583 0.2078,-0.32065 0.9965,-0.583 1.7527,-0.583 0.7563,0 1.9089,-0.38518 2.5614,-0.85596 0.6525,-0.47078 1.8901,-0.8643 2.7502,-0.87451 0.8601,-0.0102 2.0977,-0.40372 2.7502,-0.8745 0.6525,-0.47077 1.9089,-0.8643 2.7922,-0.8745 0.8832,-0.0102 1.9482,-0.41207 2.3666,-0.89304 0.4185,-0.48098 1.6735,-0.87451 2.789,-0.87451 1.1154,0 2.1981,-0.26235 2.4058,-0.583 0.2078,-0.32065 1.134,-0.583 2.0583,-0.583 0.9243,0 2.2145,-0.38518 2.8669,-0.85596 0.6525,-0.47078 1.909,-0.8643 2.7922,-0.8745 0.8832,-0.0102 1.9482,-0.41207 2.3667,-0.89305 0.4184,-0.48097 1.656,-0.8745 2.7502,-0.8745 1.0941,0 2.3317,-0.39353 2.7502,-0.8745 0.4184,-0.48098 1.6734,-0.8745 2.7889,-0.8745 1.11553,0 2.19813,-0.26236 2.40593,-0.58301 0.2077,-0.32065 1.134,-0.583 2.0583,-0.583 0.9243,0 2.2144,-0.38518 2.8669,-0.85596 0.6525,-0.47077 2.0639,-0.8643 3.1365,-0.8745 1.0726,-0.0102 2.1202,-0.28089 2.3279,-0.60154 0.2077,-0.32066 1.1178,-0.59135 2.0223,-0.60155 0.9046,-0.0102 2.1785,-0.40372 2.831,-0.8745 0.6524,-0.47078 1.9426,-0.85596 2.8669,-0.85596 0.9243,0 1.8505,-0.26235 2.0583,-0.583 0.2077,-0.32065 1.2628,-0.58301 2.3447,-0.58301 1.0818,0 2.5094,-0.35751 3.1725,-0.79447 0.663,-0.43696 2.0305,-0.94552 3.0389,-1.13014 5.0826,-0.93047 7.1886,-1.49309 7.8109,-2.08669 0.3763,-0.35899 1.5755,-0.65271 2.6649,-0.65271 1.0894,0 2.1507,-0.26235 2.3585,-0.583 0.2077,-0.32065 1.2553,-0.59135 2.3279,-0.60154 1.0726,-0.0102 2.484,-0.40373 3.1365,-0.8745 0.6525,-0.47078 2.0801,-0.85597 3.1725,-0.85597 1.0924,0 2.1561,-0.26235 2.3639,-0.583 0.2077,-0.32065 1.2553,-0.59134 2.3279,-0.60154 1.0726,-0.0102 2.484,-0.40373 3.1365,-0.8745 0.6525,-0.47078 2.0801,-0.85597 3.1725,-0.85597 1.0924,0 2.1561,-0.26235 2.3639,-0.583 0.2077,-0.32065 1.3078,-0.58301 2.4446,-0.58301 1.1368,0 2.2189,-0.23464 2.4047,-0.52141 0.1858,-0.28678 1.3708,-0.64588 2.6335,-0.79801 1.2626,-0.15212 3.8082,-0.71799 5.657,-1.25748 3.5548,-1.03738 4.4513,-1.26243 15.126,-3.79735 1.2606,-0.29933 3.392,-0.84148 4.7365,-1.20477 1.3445,-0.36329 3.4072,-0.87468 4.5837,-1.13641 1.1764,-0.26174 3.7891,-0.93245 5.8059,-1.49048 2.0168,-0.55803 4.5633,-1.14248 5.6589,-1.29877 1.0955,-0.1563 2.1431,-0.51755 2.3279,-0.80277 0.1848,-0.28522 1.0391,-0.51858 1.8985,-0.51858 1.5374,0 6.8211,-1.43335 8.8994,-2.41418 0.5837,-0.27546 2.0113,-0.50083 3.1725,-0.50083 1.1612,0 2.2813,-0.26235 2.489,-0.583 0.2077,-0.32065 1.3078,-0.58301 2.4446,-0.58301 1.1368,0 2.2369,-0.26235 2.4446,-0.583 0.2078,-0.32065 1.0763,-0.583 1.93,-0.583 0.8537,0 2.4189,-0.37148 3.4781,-0.82551 1.0592,-0.45403 2.7509,-0.96259 3.7593,-1.13013 1.0084,-0.16755 3.071,-0.59746 4.5836,-0.9553696 4.1851,-0.99027 8.0195,-1.78224 10.3896,-2.14594 1.1765,-0.18053 2.4434,-0.56039 2.8154,-0.84413 0.7182,-0.54793 5.1441,-1.5763 8.9532,-2.08033 1.2626,-0.16708 2.4477,-0.53841 2.6335,-0.82519 0.1858,-0.28678 1.4054,-0.52142 2.7103,-0.52142 1.3048,0 2.5424,-0.26235 2.7502,-0.583 0.2077,-0.32065 1.4453,-0.583 2.7502,-0.583 1.3048,0 2.5424,-0.26235 2.7502,-0.583 0.2077,-0.32065 1.4065,-0.583 2.664,-0.583 1.2575,0 2.5476,-0.23547997 2.8669,-0.52328997 0.3193,-0.28781 1.6807,-0.66437 3.0252,-0.8368 1.3446,-0.17243 3.8197,-0.60487 5.5004,-0.96098003 1.6807,-0.35611 4.2934,-0.88573 5.806,-1.17694 1.51258,-0.29121 4.12527,-0.81425 5.80594,-1.16232 1.68068,-0.34807 5.25593,-1.01636 7.94501,-1.48511 2.68908,-0.46874 6.26434,-1.12491 7.94501,-1.45816 1.68068,-0.33325 4.43087,-0.85755 6.11155,-1.16513 1.68067,-0.30757 4.43087,-0.82121 6.11154,-1.14143 1.68068,-0.32021 5.39344,-0.98933 8.25059,-1.4869404 2.85715,-0.4976 6.56991,-1.1447 8.25058,-1.438 6.71839,-1.17244 20.31265,-3.24028 34.53024,-5.25245 4.87395,-0.68979 11.33691,-1.62289 14.36213,-2.07356 3.02521,-0.45066 12.10086,-1.61155 20.1681,-2.57976 8.06724,-0.9682 16.45533,-2.00089 18.64021,-2.29487 6.26478,-0.84295 46.05091,-4.49308 60.19872,-5.52287 40.44707,-2.94406 86.71892,-4.40774 139.34324,-4.40774 52.62432,0 98.89617,1.46368 139.34323,4.40774 14.14783,1.02979 53.93399,4.67992 60.19875,5.52287 2.18488,0.29398 10.57297,1.32667 18.64021,2.29487 8.06724,0.96821 17.14292,2.1291 20.16812,2.57976 3.0252,0.45067 9.4882,1.38377 14.3621,2.07356 14.2176,2.01217 27.8119,4.08001 34.5303,5.25245 1.6806,0.2933 5.3934,0.9404 8.2505,1.438 2.8572,0.4976104 6.5699,1.1667304 8.2506,1.4869404 1.6807,0.32022 4.4309,0.83386 6.1116,1.14143 1.6806,0.30758 4.4308,0.83188 6.1115,1.16513 1.6807,0.33325 5.2559,0.98942 7.945,1.45816 2.6891,0.46875 6.2643,1.13704 7.945,1.48511 1.6807,0.34807 4.2934,0.87111 5.806,1.16232 1.5126,0.29121 4.1253,0.82083 5.806,1.17694 1.6806,0.35611003 4.1558,0.78855003 5.5004,0.96098003 1.3445,0.17243 2.7058,0.54899 3.0252,0.8368 0.3193,0.28781 1.6094,0.52328997 2.8669,0.52328997 1.257403,0 2.456303,0.26235 2.664003,0.583 0.2077,0.32065 1.44534,0.583 2.75024,0.583 1.3049,0 2.5425,0.26235 2.7502,0.583 0.2078,0.32065 1.4453,0.583 2.7502,0.583 1.3049,0 2.5245,0.23464 2.7103,0.52142 0.1858,0.28678 1.3709,0.65811 2.6335,0.82519 3.8091,0.50403 8.235,1.5324 8.9532,2.08033 0.372,0.28374 1.6389,0.6636 2.8154,0.84413 2.3701,0.3637 6.2045,1.15567 10.3896,2.14594 1.5126,0.3579096 3.5752,0.7878196 4.5836,0.9553696 1.0084,0.16754 2.7001,0.6761 3.7593,1.13013 1.0593,0.45403 2.6244,0.82551 3.4781,0.82551 0.8537,0 1.7222,0.26235 1.93,0.583 0.2077,0.32065 1.3078,0.583 2.4446,0.583 1.1368,0 2.2369,0.26236 2.4446,0.58301 0.2077,0.32065 1.3278,0.583 2.489,0.583 1.1612,0 2.5888,0.22537 3.1725,0.50083 2.0783,0.98083 7.362,2.41418 8.8994,2.41418 0.8594,0 1.7138,0.23336 1.8985,0.51858 0.1848,0.28522 1.2324,0.64647 2.3279,0.80277 1.0956,0.15629 3.6421,0.74074 5.6589,1.29877 2.0168,0.55803 4.6295,1.22874 5.8059,1.49048 1.1765,0.26173 3.2391999,0.77312 4.5836999,1.13641 1.3445,0.36329 3.5447,0.91743 4.8892,1.23142 1.3446,0.31399 3.40719996,0.80926 4.5837,1.10059 1.1765,0.29133 3.2391,0.79058 4.5837,1.10945 1.3445,0.31887 3.9572,1.02116 5.8059001,1.56066 1.8488,0.53949 4.3944,1.10536 5.6571,1.25748 1.2625,0.15213 2.4476,0.51123 2.6334,0.79801 0.1858,0.28677 1.2679,0.52141 2.4047,0.52141 1.1368,0 2.2369,0.26236 2.4446,0.58301 0.2078,0.32065 1.2716,0.583 2.3639,0.583 1.0924,0 2.52,0.38519 3.1725,0.85597 0.6525,0.47077 2.0639,0.8643 3.1365,0.8745 1.0726,0.0102 2.1202,0.28089 2.3279,0.60154 0.2078,0.32065 1.2715,0.583 2.3639,0.583 1.0924,0 2.52,0.38519 3.1725,0.85597 0.6525,0.47077 2.0639,0.8643 3.1365,0.8745 1.0726,0.0102 2.1202,0.28089 2.3279,0.60154 0.2077,0.32065 1.2691,0.583 2.3585,0.583 1.0894,0 2.2886,0.29372 2.665,0.65271 0.6222,0.5936 2.7282,1.15622 7.8108,2.08669 1.0084,0.18462 2.3759,0.69318 3.0389,1.13014 0.6631,0.43696 2.0907,0.79447 3.1725,0.79447 1.0819,0 2.137,0.26236 2.3447,0.58301 0.2078,0.32065 1.134,0.583 2.0583,0.583 0.9243,0 2.2144,0.38518 2.867,0.85596 0.6524,0.47078 1.9263,0.8643 2.8309,0.8745 0.9045,0.0102 1.8146,0.28089 2.0223,0.60155 0.2077,0.32065 1.2553,0.59134 2.3279,0.60154 1.0726,0.0102 2.484,0.40373 3.1365,0.8745 0.6525,0.47078 1.9426,0.85596 2.8669,0.85596 0.9243,0 1.8506,0.26235 2.0583,0.583 0.2078,0.32065 1.2904,0.58301 2.4059,0.58301 1.1155,0 2.3705,0.39352 2.7889,0.8745 0.4185,0.48097 1.6561,0.8745 2.7502,0.8745 1.0942,0 2.3318,0.39353 2.7502,0.8745 0.4185,0.48098 1.483497,0.88285 2.366697,0.89305 0.8832,0.0102 2.1397,0.40372 2.7921,0.8745 0.6526,0.47078 1.9427,0.85596 2.867,0.85596 0.9243,0 1.8505,0.26235 2.0583,0.583 0.2077,0.32065 1.2904,0.583 2.4058,0.583 1.1155,0 2.3705,0.39353 2.789,0.87451 0.4184,0.48097 1.4834,0.88284 2.3666,0.89304 0.8833,0.0102 2.1397,0.40373 2.7922,0.8745 0.6525,0.47078 1.8901,0.86431 2.7502,0.8745 0.8601,0.0102 2.0977,0.40373 2.7502,0.87451 0.6525,0.47078 1.8051,0.85596 2.5613,0.85596 0.7563,0 1.545,0.26235 1.7528,0.583 0.2077,0.32065 1.0405,0.583 1.8507,0.583 1.3026,0 4.9968,1.43307 7.6222,2.95686 0.5042,0.29264 2.4635,1.30828 4.354,2.25697 1.8904,0.94871 3.5857,2.0942 3.7673,2.54555 0.1816,0.45136 1.4119,0.98567 2.7342,1.18737 2.2387,0.34149 5.0977,1.36118 7.6319,2.72199 0.5882,0.31586 1.5508,0.83202 2.139,1.14701 0.5883,0.31499 2.1696,1.11116 3.5142,1.76927 1.3445,0.65811 3.2697,1.70907 4.2781,2.33545 1.0084,0.6264 2.289,1.33874 2.8459,1.58299 2.0809,0.91268 13.589,11.65022 16.097,15.01912 3.3831,4.544299 4.9585,7.577199 7.2685,13.992099 l 1.8894,5.247 0.3117,42.8506 c 0.3038,41.7694 0.2787,43.043 -0.9965,50.4748 -1.8995,11.0705 -5.037,17.7107 -11.6912,24.744 -5.4188,5.7275 -8.4591,7.5008 -14.9547,8.7225 -3.1127,0.5855 -9.9222,1.2366 -15.1323,1.4471 -49.9351,2.0169 -94.480097,17.9478 -133.537197,47.7575 -28.8333001,22.0065 -46.5387,41.1396 -62.2796,67.3014 -7.5207,12.4996 -11.8273,21.7771 -18.3163,39.4579 -3.2483,8.8506 -4.8608,14.663 -7.7636,27.9841 -0.9489,4.3546 -1.9028,6.8627 -3.7694,9.911 -7.0074,11.4434 -14.3125,16.9078 -27.237843,20.3745 l -5.5483,1.4881 -126.12944,0 -126.12949,0 -4.2323,-1.3938 c -11.32427,-3.7294 -16.0469,-6.7434 -26.23393,-16.7419 -23.10721,-22.6797 -27.56063,-26.4374 -36.65491,-30.9277 -9.70667,-4.7928 -11.65258,-5.2195 -25.37728,-5.5647 -8.9558,-0.2253 -13.66413,-0.071 -18.94579,0.6219 -6.45905,0.847 -7.62226,1.205 -14.36213,4.4187 -10.27528,4.8995 -13.92754,7.9311 -37.89158,31.4518 -10.18703,9.9985 -14.90967,13.0125 -26.23393,16.7419 l -4.23231,1.3938 -126.55474,-0.053 -126.55474,-0.053 -5.5004,-1.5866 z"
       style="fill:none;stroke:#000000;stroke-width:3.54330754;stroke-miterlimit:4;stroke-opacity:1;stroke-dasharray:none" />
  </g>
</svg>
