G75*
%MOIN*%
%OFA0B0*%
%FSLAX24Y24*%
%IPPOS*%
%LPD*%
%AMOC8*
5,1,8,0,0,1.08239X$1,22.5*
%
%ADD10C,0.0160*%
%ADD11C,0.0000*%
%ADD12C,0.0100*%
D10*
X012250Y005250D02*
X033500Y005250D01*
X033500Y021250D01*
X012250Y021250D01*
X012250Y005250D01*
D11*
X022870Y008000D02*
X022872Y008050D01*
X022878Y008100D01*
X022888Y008149D01*
X022902Y008197D01*
X022919Y008244D01*
X022940Y008289D01*
X022965Y008333D01*
X022993Y008374D01*
X023025Y008413D01*
X023059Y008450D01*
X023096Y008484D01*
X023136Y008514D01*
X023178Y008541D01*
X023222Y008565D01*
X023268Y008586D01*
X023315Y008602D01*
X023363Y008615D01*
X023413Y008624D01*
X023462Y008629D01*
X023513Y008630D01*
X023563Y008627D01*
X023612Y008620D01*
X023661Y008609D01*
X023709Y008594D01*
X023755Y008576D01*
X023800Y008554D01*
X023843Y008528D01*
X023884Y008499D01*
X023923Y008467D01*
X023959Y008432D01*
X023991Y008394D01*
X024021Y008354D01*
X024048Y008311D01*
X024071Y008267D01*
X024090Y008221D01*
X024106Y008173D01*
X024118Y008124D01*
X024126Y008075D01*
X024130Y008025D01*
X024130Y007975D01*
X024126Y007925D01*
X024118Y007876D01*
X024106Y007827D01*
X024090Y007779D01*
X024071Y007733D01*
X024048Y007689D01*
X024021Y007646D01*
X023991Y007606D01*
X023959Y007568D01*
X023923Y007533D01*
X023884Y007501D01*
X023843Y007472D01*
X023800Y007446D01*
X023755Y007424D01*
X023709Y007406D01*
X023661Y007391D01*
X023612Y007380D01*
X023563Y007373D01*
X023513Y007370D01*
X023462Y007371D01*
X023413Y007376D01*
X023363Y007385D01*
X023315Y007398D01*
X023268Y007414D01*
X023222Y007435D01*
X023178Y007459D01*
X023136Y007486D01*
X023096Y007516D01*
X023059Y007550D01*
X023025Y007587D01*
X022993Y007626D01*
X022965Y007667D01*
X022940Y007711D01*
X022919Y007756D01*
X022902Y007803D01*
X022888Y007851D01*
X022878Y007900D01*
X022872Y007950D01*
X022870Y008000D01*
X022870Y019024D02*
X022872Y019074D01*
X022878Y019124D01*
X022888Y019173D01*
X022902Y019221D01*
X022919Y019268D01*
X022940Y019313D01*
X022965Y019357D01*
X022993Y019398D01*
X023025Y019437D01*
X023059Y019474D01*
X023096Y019508D01*
X023136Y019538D01*
X023178Y019565D01*
X023222Y019589D01*
X023268Y019610D01*
X023315Y019626D01*
X023363Y019639D01*
X023413Y019648D01*
X023462Y019653D01*
X023513Y019654D01*
X023563Y019651D01*
X023612Y019644D01*
X023661Y019633D01*
X023709Y019618D01*
X023755Y019600D01*
X023800Y019578D01*
X023843Y019552D01*
X023884Y019523D01*
X023923Y019491D01*
X023959Y019456D01*
X023991Y019418D01*
X024021Y019378D01*
X024048Y019335D01*
X024071Y019291D01*
X024090Y019245D01*
X024106Y019197D01*
X024118Y019148D01*
X024126Y019099D01*
X024130Y019049D01*
X024130Y018999D01*
X024126Y018949D01*
X024118Y018900D01*
X024106Y018851D01*
X024090Y018803D01*
X024071Y018757D01*
X024048Y018713D01*
X024021Y018670D01*
X023991Y018630D01*
X023959Y018592D01*
X023923Y018557D01*
X023884Y018525D01*
X023843Y018496D01*
X023800Y018470D01*
X023755Y018448D01*
X023709Y018430D01*
X023661Y018415D01*
X023612Y018404D01*
X023563Y018397D01*
X023513Y018394D01*
X023462Y018395D01*
X023413Y018400D01*
X023363Y018409D01*
X023315Y018422D01*
X023268Y018438D01*
X023222Y018459D01*
X023178Y018483D01*
X023136Y018510D01*
X023096Y018540D01*
X023059Y018574D01*
X023025Y018611D01*
X022993Y018650D01*
X022965Y018691D01*
X022940Y018735D01*
X022919Y018780D01*
X022902Y018827D01*
X022888Y018875D01*
X022878Y018924D01*
X022872Y018974D01*
X022870Y019024D01*
D12*
X001540Y021470D02*
X001540Y004970D01*
X011540Y004970D01*
X011540Y021470D01*
X001540Y021470D01*
M02*
