G75*
%MOIN*%
%OFA0B0*%
%FSLAX24Y24*%
%IPPOS*%
%LPD*%
%AMOC8*
5,1,8,0,0,1.08239X$1,22.5*
%
%ADD10C,0.0030*%
%ADD11R,0.0591X0.0512*%
%ADD12R,0.0512X0.0591*%
%ADD13R,0.0516X0.1575*%
%ADD14R,0.3346X0.3937*%
%ADD15R,0.0787X0.0315*%
%ADD16OC8,0.0850*%
%ADD17R,0.0197X0.0866*%
%ADD18C,0.0560*%
%ADD19R,0.0560X0.0560*%
%ADD20R,0.0472X0.0118*%
%ADD21R,0.0118X0.0472*%
%ADD22C,0.0780*%
%ADD23C,0.0240*%
%ADD24C,0.0160*%
%ADD25C,0.0500*%
%ADD26C,0.0100*%
D10*
X014612Y007265D02*
X014612Y007555D01*
X014708Y007555D02*
X014515Y007555D01*
X014810Y007555D02*
X015003Y007265D01*
X015104Y007265D02*
X015298Y007265D01*
X015201Y007265D02*
X015201Y007555D01*
X015104Y007458D01*
X015003Y007555D02*
X014810Y007265D01*
X018515Y007555D02*
X018708Y007555D01*
X018612Y007555D02*
X018612Y007265D01*
X018810Y007265D02*
X019003Y007555D01*
X019104Y007507D02*
X019153Y007555D01*
X019249Y007555D01*
X019298Y007507D01*
X019104Y007313D01*
X019153Y007265D01*
X019249Y007265D01*
X019298Y007313D01*
X019298Y007507D01*
X019104Y007507D02*
X019104Y007313D01*
X019003Y007265D02*
X018810Y007555D01*
X024765Y006910D02*
X024958Y006910D01*
X024862Y007007D02*
X024862Y006813D01*
X028862Y015563D02*
X028862Y015757D01*
X028958Y015660D02*
X028765Y015660D01*
X031362Y018563D02*
X031362Y018757D01*
X031458Y018660D02*
X031265Y018660D01*
X028958Y019910D02*
X028765Y019910D01*
X028862Y020007D02*
X028862Y019813D01*
X022298Y020063D02*
X022249Y020015D01*
X022153Y020015D01*
X022104Y020063D01*
X022298Y020257D01*
X022298Y020063D01*
X022104Y020063D02*
X022104Y020257D01*
X022153Y020305D01*
X022249Y020305D01*
X022298Y020257D01*
X022003Y020015D02*
X021810Y020015D01*
X021810Y020305D01*
X021708Y020257D02*
X021660Y020305D01*
X021563Y020305D01*
X021515Y020257D01*
X021515Y020063D01*
X021563Y020015D01*
X021660Y020015D01*
X021708Y020063D01*
X019798Y018757D02*
X019749Y018805D01*
X019653Y018805D01*
X019604Y018757D01*
X019604Y018563D01*
X019798Y018757D01*
X019798Y018563D01*
X019749Y018515D01*
X019653Y018515D01*
X019604Y018563D01*
X019503Y018515D02*
X019503Y018805D01*
X019503Y018660D02*
X019310Y018660D01*
X019208Y018563D02*
X019160Y018515D01*
X019063Y018515D01*
X019015Y018563D01*
X019015Y018757D01*
X019063Y018805D01*
X019160Y018805D01*
X019208Y018757D01*
X019310Y018805D02*
X019310Y018515D01*
X017798Y018515D02*
X017604Y018515D01*
X017701Y018515D02*
X017701Y018805D01*
X017604Y018708D01*
X017503Y018515D02*
X017310Y018515D01*
X017310Y018805D01*
X017208Y018757D02*
X017160Y018805D01*
X017063Y018805D01*
X017015Y018757D01*
X017015Y018563D01*
X017063Y018515D01*
X017160Y018515D01*
X017208Y018563D01*
X014798Y018515D02*
X014604Y018515D01*
X014701Y018515D02*
X014701Y018805D01*
X014604Y018708D01*
X014503Y018660D02*
X014310Y018660D01*
X014208Y018563D02*
X014160Y018515D01*
X014063Y018515D01*
X014015Y018563D01*
X014015Y018757D01*
X014063Y018805D01*
X014160Y018805D01*
X014208Y018757D01*
X014310Y018805D02*
X014310Y018515D01*
X014503Y018515D02*
X014503Y018805D01*
D11*
X016500Y014585D03*
X016500Y013915D03*
X018500Y013915D03*
X018500Y014585D03*
X023250Y014585D03*
X023250Y013915D03*
X024750Y013915D03*
X024750Y014585D03*
D12*
X026665Y014500D03*
X027335Y014500D03*
X027335Y016500D03*
X026665Y016500D03*
X021585Y016250D03*
X020915Y016250D03*
X015085Y016250D03*
X014415Y016250D03*
D13*
X028220Y012591D03*
X028890Y012591D03*
X029559Y012591D03*
X030228Y012591D03*
X030898Y012591D03*
D14*
X029547Y008650D03*
D15*
X029291Y015000D03*
X030709Y015000D03*
X030709Y018000D03*
X029291Y018000D03*
D16*
X028000Y019500D03*
X026000Y019500D03*
D17*
X021750Y013742D03*
X021250Y013742D03*
X020750Y013742D03*
X020250Y013742D03*
X020250Y011258D03*
X020746Y011258D03*
X021246Y011258D03*
X021746Y011258D03*
X015246Y011258D03*
X014746Y011258D03*
X014246Y011258D03*
X013750Y011258D03*
X013750Y013742D03*
X014250Y013742D03*
X014750Y013742D03*
X015250Y013742D03*
D18*
X016500Y019500D03*
X021000Y019500D03*
X020000Y007000D03*
X016000Y007000D03*
X026500Y007000D03*
D19*
X025500Y007000D03*
X021000Y007000D03*
X017000Y007000D03*
X015500Y019500D03*
X020000Y019500D03*
D20*
X010792Y019521D03*
X010792Y019324D03*
X010792Y019127D03*
X010792Y018931D03*
X010792Y018734D03*
X010792Y018537D03*
X010792Y018340D03*
X010792Y018143D03*
X010792Y017946D03*
X010792Y017750D03*
X010792Y017553D03*
X010792Y017356D03*
X010792Y017159D03*
X010792Y016962D03*
X010792Y016765D03*
X010792Y016568D03*
X010792Y016372D03*
X010792Y016175D03*
X010792Y015978D03*
X010792Y015781D03*
X010792Y015584D03*
X010792Y015387D03*
X010792Y015190D03*
X010792Y014994D03*
X010792Y014797D03*
X010792Y014600D03*
X010792Y014403D03*
X010792Y014206D03*
X010792Y014009D03*
X010792Y013813D03*
X010792Y013616D03*
X010792Y013419D03*
X010792Y013222D03*
X010792Y013025D03*
X002288Y013025D03*
X002288Y013222D03*
X002288Y013419D03*
X002288Y013616D03*
X002288Y013813D03*
X002288Y014009D03*
X002288Y014206D03*
X002288Y014403D03*
X002288Y014600D03*
X002288Y014797D03*
X002288Y014994D03*
X002288Y015190D03*
X002288Y015387D03*
X002288Y015584D03*
X002288Y015781D03*
X002288Y015978D03*
X002288Y016175D03*
X002288Y016372D03*
X002288Y016568D03*
X002288Y016765D03*
X002288Y016962D03*
X002288Y017159D03*
X002288Y017356D03*
X002288Y017553D03*
X002288Y017750D03*
X002288Y017946D03*
X002288Y018143D03*
X002288Y018340D03*
X002288Y018537D03*
X002288Y018734D03*
X002288Y018931D03*
X002288Y019127D03*
X002288Y019324D03*
X002288Y019521D03*
X002288Y019718D03*
X002288Y019915D03*
X010792Y019915D03*
X010792Y019718D03*
D21*
X009985Y020722D03*
X009788Y020722D03*
X009591Y020722D03*
X009394Y020722D03*
X009197Y020722D03*
X009001Y020722D03*
X008804Y020722D03*
X008607Y020722D03*
X008410Y020722D03*
X008213Y020722D03*
X008016Y020722D03*
X007820Y020722D03*
X007623Y020722D03*
X007426Y020722D03*
X007229Y020722D03*
X007032Y020722D03*
X006835Y020722D03*
X006638Y020722D03*
X006442Y020722D03*
X006245Y020722D03*
X006048Y020722D03*
X005851Y020722D03*
X005654Y020722D03*
X005457Y020722D03*
X005260Y020722D03*
X005064Y020722D03*
X004867Y020722D03*
X004670Y020722D03*
X004473Y020722D03*
X004276Y020722D03*
X004079Y020722D03*
X003883Y020722D03*
X003686Y020722D03*
X003489Y020722D03*
X003292Y020722D03*
X003095Y020722D03*
X003095Y012218D03*
X003292Y012218D03*
X003489Y012218D03*
X003686Y012218D03*
X003883Y012218D03*
X004079Y012218D03*
X004276Y012218D03*
X004473Y012218D03*
X004670Y012218D03*
X004867Y012218D03*
X005064Y012218D03*
X005260Y012218D03*
X005457Y012218D03*
X005654Y012218D03*
X005851Y012218D03*
X006048Y012218D03*
X006245Y012218D03*
X006442Y012218D03*
X006638Y012218D03*
X006835Y012218D03*
X007032Y012218D03*
X007229Y012218D03*
X007426Y012218D03*
X007623Y012218D03*
X007820Y012218D03*
X008016Y012218D03*
X008213Y012218D03*
X008410Y012218D03*
X008607Y012218D03*
X008804Y012218D03*
X009001Y012218D03*
X009197Y012218D03*
X009394Y012218D03*
X009591Y012218D03*
X009788Y012218D03*
X009985Y012218D03*
D22*
X010040Y007360D02*
X010040Y006580D01*
X008540Y006580D02*
X008540Y007360D01*
X006540Y007360D02*
X006540Y006580D01*
X005040Y006580D02*
X005040Y007360D01*
X003540Y007360D02*
X003540Y006580D01*
D23*
X023250Y013915D02*
X024333Y012833D01*
X025333Y011833D01*
X026165Y011000D01*
X028500Y011000D01*
X028890Y011390D01*
X028890Y012591D01*
X029000Y012701D01*
X029000Y015000D01*
X029291Y015000D01*
X029500Y015000D01*
X029000Y015000D02*
X027835Y015000D01*
X027335Y014500D01*
X026750Y014415D02*
X026750Y013500D01*
X027659Y012591D01*
X028220Y012591D01*
X029547Y012579D02*
X029547Y008650D01*
X027898Y007000D01*
X026500Y007000D01*
X029547Y012579D02*
X029559Y012591D01*
X029559Y013850D01*
X030709Y015000D01*
X030709Y015041D01*
X029250Y016500D01*
X029250Y017959D01*
X029291Y018000D01*
X026000Y018000D01*
X026000Y019500D01*
X026000Y018000D02*
X026000Y017750D01*
X025708Y017458D01*
X025708Y017000D01*
X026165Y017000D01*
X026665Y016500D01*
X027335Y016500D02*
X027500Y016335D01*
X027500Y016000D01*
X026665Y015165D01*
X026665Y014500D01*
X026750Y014415D01*
X025708Y014208D02*
X025708Y017000D01*
X024750Y014585D02*
X023250Y014585D01*
X024835Y014000D02*
X025500Y014000D01*
X025708Y014208D01*
D24*
X025445Y014249D02*
X025445Y014920D01*
X025384Y015067D01*
X025272Y015180D01*
X025125Y015241D01*
X024375Y015241D01*
X024228Y015180D01*
X024153Y015105D01*
X023847Y015105D01*
X023772Y015180D01*
X023625Y015241D01*
X022875Y015241D01*
X022728Y015180D01*
X022616Y015067D01*
X022580Y014980D01*
X022065Y014980D01*
X022065Y015615D01*
X022067Y015616D01*
X022180Y015728D01*
X022241Y015875D01*
X022241Y016625D01*
X022180Y016772D01*
X022067Y016884D01*
X022065Y016885D01*
X022065Y019011D01*
X021992Y019187D01*
X021857Y019322D01*
X021685Y019493D01*
X022468Y019493D01*
X022491Y019495D01*
X022466Y019452D01*
X022390Y019170D01*
X022390Y018877D01*
X022466Y018595D01*
X022612Y018342D01*
X022818Y018135D01*
X023072Y017989D01*
X023354Y017914D01*
X023646Y017914D01*
X023928Y017989D01*
X024182Y018135D01*
X024388Y018342D01*
X024534Y018595D01*
X024610Y018877D01*
X024610Y019170D01*
X024534Y019452D01*
X024388Y019705D01*
X024182Y019912D01*
X023928Y020058D01*
X023646Y020134D01*
X023354Y020134D01*
X023072Y020058D01*
X022850Y019930D01*
X022850Y020444D01*
X022847Y020479D01*
X022841Y020513D01*
X022832Y020547D01*
X022820Y020580D01*
X022805Y020612D01*
X022788Y020642D01*
X022768Y020670D01*
X022751Y020690D01*
X032940Y020690D01*
X032940Y005810D01*
X012810Y005810D01*
X012810Y020690D01*
X021092Y020690D01*
X021076Y020670D01*
X021056Y020642D01*
X021038Y020612D01*
X021023Y020580D01*
X021011Y020547D01*
X021002Y020513D01*
X020996Y020479D01*
X020993Y020444D01*
X020993Y020180D01*
X020865Y020180D01*
X020615Y020076D01*
X020582Y020044D01*
X020507Y020119D01*
X020360Y020180D01*
X019640Y020180D01*
X019493Y020119D01*
X019381Y020007D01*
X019320Y019860D01*
X019320Y019327D01*
X018876Y019327D01*
X018841Y019324D01*
X018807Y019318D01*
X018773Y019309D01*
X018740Y019297D01*
X018708Y019282D01*
X018678Y019264D01*
X018650Y019244D01*
X018623Y019222D01*
X018598Y019197D01*
X018576Y019170D01*
X018556Y019142D01*
X018538Y019112D01*
X018523Y019080D01*
X018511Y019047D01*
X018502Y019013D01*
X018496Y018979D01*
X018493Y018944D01*
X018493Y018376D01*
X018496Y018341D01*
X018502Y018307D01*
X018511Y018273D01*
X018523Y018240D01*
X018538Y018208D01*
X018556Y018178D01*
X018576Y018150D01*
X018598Y018123D01*
X018623Y018098D01*
X018650Y018076D01*
X018678Y018056D01*
X018708Y018038D01*
X018740Y018023D01*
X018773Y018011D01*
X018807Y018002D01*
X018841Y017996D01*
X018876Y017993D01*
X020020Y017993D01*
X020020Y017405D01*
X020093Y017228D01*
X020435Y016886D01*
X020435Y016885D01*
X020433Y016884D01*
X020320Y016772D01*
X020259Y016625D01*
X020259Y015875D01*
X020320Y015728D01*
X020433Y015616D01*
X020435Y015615D01*
X020435Y015114D01*
X020343Y015022D01*
X020270Y014845D01*
X020270Y014355D01*
X020250Y014355D01*
X020128Y014355D01*
X020082Y014343D01*
X020041Y014319D01*
X020008Y014285D01*
X019984Y014244D01*
X019972Y014199D01*
X019972Y013742D01*
X020250Y013742D01*
X020250Y014355D01*
X020250Y013742D01*
X020250Y013742D01*
X020250Y013742D01*
X020250Y014500D01*
X020270Y014424D02*
X019195Y014424D01*
X019195Y014582D02*
X020270Y014582D01*
X020270Y014741D02*
X019195Y014741D01*
X019195Y014899D02*
X020292Y014899D01*
X020379Y015058D02*
X019138Y015058D01*
X019134Y015067D02*
X019022Y015180D01*
X018875Y015241D01*
X018125Y015241D01*
X017978Y015180D01*
X017866Y015067D01*
X017865Y015065D01*
X017135Y015065D01*
X017134Y015067D01*
X017022Y015180D01*
X016875Y015241D01*
X016125Y015241D01*
X015978Y015180D01*
X015866Y015067D01*
X015865Y015065D01*
X015565Y015065D01*
X015565Y015615D01*
X015567Y015616D01*
X015680Y015728D01*
X015741Y015875D01*
X015741Y016227D01*
X016772Y017258D01*
X016907Y017393D01*
X016980Y017570D01*
X016980Y017993D01*
X017968Y017993D01*
X018002Y017996D01*
X018037Y018002D01*
X018070Y018011D01*
X018103Y018023D01*
X018135Y018038D01*
X018165Y018056D01*
X018194Y018076D01*
X018221Y018098D01*
X018245Y018123D01*
X018268Y018150D01*
X018288Y018178D01*
X018305Y018208D01*
X018320Y018240D01*
X018332Y018273D01*
X018341Y018307D01*
X018347Y018341D01*
X018350Y018376D01*
X018350Y018944D01*
X018347Y018979D01*
X018341Y019013D01*
X018332Y019047D01*
X018320Y019080D01*
X018305Y019112D01*
X018288Y019142D01*
X018268Y019170D01*
X018245Y019197D01*
X018221Y019222D01*
X018194Y019244D01*
X018165Y019264D01*
X018135Y019282D01*
X018103Y019297D01*
X018070Y019309D01*
X018037Y019318D01*
X018002Y019324D01*
X017968Y019327D01*
X017164Y019327D01*
X017180Y019365D01*
X017180Y019635D01*
X017076Y019885D01*
X016885Y020076D01*
X016635Y020180D01*
X016365Y020180D01*
X016115Y020076D01*
X016082Y020044D01*
X016007Y020119D01*
X015860Y020180D01*
X015140Y020180D01*
X014993Y020119D01*
X014881Y020007D01*
X014820Y019860D01*
X014820Y019327D01*
X013876Y019327D01*
X013841Y019324D01*
X013807Y019318D01*
X013773Y019309D01*
X013740Y019297D01*
X013708Y019282D01*
X013678Y019264D01*
X013650Y019244D01*
X013623Y019222D01*
X013598Y019197D01*
X013576Y019170D01*
X013556Y019142D01*
X013538Y019112D01*
X013523Y019080D01*
X013511Y019047D01*
X013502Y019013D01*
X013496Y018979D01*
X013493Y018944D01*
X013493Y018376D01*
X013496Y018341D01*
X013502Y018307D01*
X013511Y018273D01*
X013523Y018240D01*
X013538Y018208D01*
X013556Y018178D01*
X013576Y018150D01*
X013598Y018123D01*
X013623Y018098D01*
X013650Y018076D01*
X013678Y018056D01*
X013708Y018038D01*
X013740Y018023D01*
X013773Y018011D01*
X013807Y018002D01*
X013841Y017996D01*
X013876Y017993D01*
X014315Y017993D01*
X014093Y017772D01*
X014020Y017595D01*
X014020Y016920D01*
X013933Y016884D01*
X013820Y016772D01*
X013759Y016625D01*
X013759Y015875D01*
X013820Y015728D01*
X013933Y015616D01*
X013935Y015615D01*
X013935Y015364D01*
X013843Y015272D01*
X013770Y015095D01*
X013770Y014355D01*
X013750Y014355D01*
X013628Y014355D01*
X013582Y014343D01*
X013541Y014319D01*
X013508Y014285D01*
X013484Y014244D01*
X013472Y014199D01*
X013472Y013742D01*
X013750Y013742D01*
X013750Y014355D01*
X013750Y013742D01*
X013750Y013742D01*
X013750Y013742D01*
X013750Y013000D01*
X016000Y013000D01*
X016500Y013500D01*
X016500Y013915D01*
X016548Y013929D02*
X016548Y013867D01*
X016548Y013479D01*
X016819Y013479D01*
X016865Y013492D01*
X016906Y013515D01*
X016939Y013549D01*
X016963Y013590D01*
X016975Y013636D01*
X016975Y013867D01*
X016548Y013867D01*
X016452Y013867D01*
X016452Y013479D01*
X016181Y013479D01*
X016135Y013492D01*
X016094Y013515D01*
X016061Y013549D01*
X016037Y013590D01*
X016025Y013636D01*
X016025Y013867D01*
X016452Y013867D01*
X016452Y013929D01*
X016125Y013929D01*
X016042Y013963D01*
X016025Y013963D01*
X016025Y013970D01*
X015978Y013990D01*
X015866Y014102D01*
X015865Y014105D01*
X015783Y014105D01*
X015748Y014070D01*
X015748Y013229D01*
X015688Y013082D01*
X015585Y012980D01*
X017551Y012980D01*
X017676Y013105D01*
X017811Y013240D01*
X017987Y013313D01*
X017997Y013313D01*
X017978Y013320D01*
X017866Y013433D01*
X017805Y013580D01*
X017805Y014105D01*
X017135Y014105D01*
X017134Y014102D01*
X017022Y013990D01*
X016975Y013970D01*
X016975Y013963D01*
X016958Y013963D01*
X016875Y013929D01*
X016548Y013929D01*
X016548Y013790D02*
X016452Y013790D01*
X016452Y013631D02*
X016548Y013631D01*
X016026Y013631D02*
X015748Y013631D01*
X015748Y013473D02*
X017849Y013473D01*
X017805Y013631D02*
X016974Y013631D01*
X016975Y013790D02*
X017805Y013790D01*
X017805Y013948D02*
X016921Y013948D01*
X016500Y014585D02*
X015585Y014585D01*
X015250Y014250D01*
X015250Y013742D01*
X014750Y013742D02*
X014750Y014750D01*
X015085Y015085D01*
X015085Y016250D01*
X016500Y017665D01*
X016500Y019500D01*
X017180Y019496D02*
X019320Y019496D01*
X019320Y019654D02*
X017172Y019654D01*
X017107Y019813D02*
X019320Y019813D01*
X019366Y019971D02*
X016991Y019971D01*
X016757Y020130D02*
X019519Y020130D01*
X020481Y020130D02*
X020743Y020130D01*
X020993Y020288D02*
X012810Y020288D01*
X012810Y020130D02*
X015019Y020130D01*
X014866Y019971D02*
X012810Y019971D01*
X012810Y019813D02*
X014820Y019813D01*
X014820Y019654D02*
X012810Y019654D01*
X012810Y019496D02*
X014820Y019496D01*
X014820Y019337D02*
X012810Y019337D01*
X012810Y019179D02*
X013583Y019179D01*
X013504Y019020D02*
X012810Y019020D01*
X012810Y018862D02*
X013493Y018862D01*
X013493Y018703D02*
X012810Y018703D01*
X012810Y018545D02*
X013493Y018545D01*
X013493Y018386D02*
X012810Y018386D01*
X012810Y018228D02*
X013529Y018228D01*
X013659Y018069D02*
X012810Y018069D01*
X012810Y017911D02*
X014232Y017911D01*
X014085Y017752D02*
X012810Y017752D01*
X012810Y017594D02*
X014020Y017594D01*
X014020Y017435D02*
X012810Y017435D01*
X012810Y017277D02*
X014020Y017277D01*
X014020Y017118D02*
X012810Y017118D01*
X012810Y016960D02*
X014020Y016960D01*
X013850Y016801D02*
X012810Y016801D01*
X012810Y016643D02*
X013767Y016643D01*
X013759Y016484D02*
X012810Y016484D01*
X012810Y016326D02*
X013759Y016326D01*
X013759Y016167D02*
X012810Y016167D01*
X012810Y016009D02*
X013759Y016009D01*
X013770Y015850D02*
X012810Y015850D01*
X012810Y015692D02*
X013857Y015692D01*
X013935Y015533D02*
X012810Y015533D01*
X012810Y015375D02*
X013935Y015375D01*
X013820Y015216D02*
X012810Y015216D01*
X012810Y015058D02*
X013770Y015058D01*
X013770Y014899D02*
X012810Y014899D01*
X012810Y014741D02*
X013770Y014741D01*
X013770Y014582D02*
X012810Y014582D01*
X012810Y014424D02*
X013770Y014424D01*
X013750Y014265D02*
X013750Y014265D01*
X013750Y014107D02*
X013750Y014107D01*
X013750Y013948D02*
X013750Y013948D01*
X013750Y013790D02*
X013750Y013790D01*
X013750Y013742D02*
X013472Y013742D01*
X013472Y013285D01*
X013484Y013239D01*
X013508Y013198D01*
X013541Y013165D01*
X013582Y013141D01*
X013628Y013129D01*
X013750Y013129D01*
X013793Y013129D01*
X013812Y013082D01*
X013925Y012970D01*
X014072Y012909D01*
X014428Y012909D01*
X014500Y012938D01*
X014572Y012909D01*
X014928Y012909D01*
X015000Y012938D01*
X015027Y012927D01*
X014978Y012907D01*
X014843Y012772D01*
X014343Y012272D01*
X014270Y012095D01*
X014270Y011871D01*
X014246Y011871D01*
X014207Y011871D01*
X014188Y011918D01*
X014075Y012030D01*
X013928Y012091D01*
X013572Y012091D01*
X013425Y012030D01*
X013312Y011918D01*
X013252Y011771D01*
X013252Y010746D01*
X013270Y010701D01*
X013270Y010405D01*
X013343Y010228D01*
X015497Y008074D01*
X015468Y008077D01*
X014376Y008077D01*
X014341Y008074D01*
X014307Y008068D01*
X014273Y008059D01*
X014240Y008047D01*
X014208Y008032D01*
X014178Y008014D01*
X014150Y007994D01*
X014123Y007972D01*
X014098Y007947D01*
X014076Y007920D01*
X014056Y007892D01*
X014038Y007862D01*
X014023Y007830D01*
X014011Y007797D01*
X014002Y007763D01*
X013996Y007729D01*
X013993Y007694D01*
X013993Y007126D01*
X013996Y007091D01*
X014002Y007057D01*
X014011Y007023D01*
X014023Y006990D01*
X014038Y006958D01*
X014056Y006928D01*
X014076Y006900D01*
X014098Y006873D01*
X014123Y006848D01*
X014150Y006826D01*
X014178Y006806D01*
X014208Y006788D01*
X014240Y006773D01*
X014273Y006761D01*
X014307Y006752D01*
X014341Y006746D01*
X014376Y006743D01*
X015370Y006743D01*
X015424Y006615D01*
X015615Y006424D01*
X015865Y006320D01*
X016135Y006320D01*
X016385Y006424D01*
X016418Y006456D01*
X016493Y006381D01*
X016640Y006320D01*
X017360Y006320D01*
X017507Y006381D01*
X017619Y006493D01*
X017680Y006640D01*
X017680Y007360D01*
X017619Y007507D01*
X017507Y007619D01*
X017480Y007630D01*
X017480Y008845D01*
X017407Y009022D01*
X017272Y009157D01*
X015730Y010699D01*
X015730Y010711D01*
X015744Y010746D01*
X015744Y011771D01*
X015684Y011918D01*
X015582Y012020D01*
X017845Y012020D01*
X018022Y012093D01*
X018281Y012353D01*
X020924Y012353D01*
X020843Y012272D01*
X020770Y012095D01*
X020770Y011871D01*
X020746Y011871D01*
X020707Y011871D01*
X020688Y011918D01*
X020575Y012030D01*
X020428Y012091D01*
X020072Y012091D01*
X019925Y012030D01*
X019812Y011918D01*
X019752Y011771D01*
X019752Y010746D01*
X019770Y010701D01*
X019770Y010699D01*
X019728Y010657D01*
X019593Y010522D01*
X019520Y010345D01*
X019520Y008071D01*
X019502Y008074D01*
X019468Y008077D01*
X018376Y008077D01*
X018341Y008074D01*
X018307Y008068D01*
X018273Y008059D01*
X018240Y008047D01*
X018208Y008032D01*
X018178Y008014D01*
X018150Y007994D01*
X018123Y007972D01*
X018098Y007947D01*
X018076Y007920D01*
X018056Y007892D01*
X018038Y007862D01*
X018023Y007830D01*
X018011Y007797D01*
X018002Y007763D01*
X017996Y007729D01*
X017993Y007694D01*
X017993Y007126D01*
X017996Y007091D01*
X018002Y007057D01*
X018011Y007023D01*
X018023Y006990D01*
X018038Y006958D01*
X018056Y006928D01*
X018076Y006900D01*
X018098Y006873D01*
X018123Y006848D01*
X018150Y006826D01*
X018178Y006806D01*
X018208Y006788D01*
X018240Y006773D01*
X018273Y006761D01*
X018307Y006752D01*
X018341Y006746D01*
X018376Y006743D01*
X019370Y006743D01*
X019424Y006615D01*
X019615Y006424D01*
X019865Y006320D01*
X020135Y006320D01*
X020385Y006424D01*
X020418Y006456D01*
X020493Y006381D01*
X020640Y006320D01*
X021360Y006320D01*
X021507Y006381D01*
X021619Y006493D01*
X021680Y006640D01*
X021680Y007360D01*
X021619Y007507D01*
X021507Y007619D01*
X021480Y007630D01*
X021480Y009551D01*
X022157Y010228D01*
X022230Y010405D01*
X022230Y010711D01*
X022244Y010746D01*
X022244Y011771D01*
X022184Y011918D01*
X022071Y012030D01*
X021992Y012063D01*
X022281Y012353D01*
X024077Y012353D01*
X024853Y011577D01*
X024853Y011072D01*
X024926Y010895D01*
X025020Y010801D01*
X025020Y007630D01*
X024993Y007619D01*
X024951Y007577D01*
X024626Y007577D01*
X024591Y007574D01*
X024557Y007568D01*
X024527Y007560D01*
X024534Y007572D01*
X024610Y007854D01*
X024610Y008146D01*
X024534Y008428D01*
X024388Y008682D01*
X024182Y008888D01*
X023928Y009034D01*
X023646Y009110D01*
X023354Y009110D01*
X023072Y009034D01*
X022818Y008888D01*
X022612Y008682D01*
X022466Y008428D01*
X022390Y008146D01*
X022390Y007854D01*
X022466Y007572D01*
X022612Y007318D01*
X022818Y007112D01*
X023072Y006966D01*
X023354Y006890D01*
X023646Y006890D01*
X023928Y006966D01*
X024182Y007112D01*
X024243Y007174D01*
X024243Y006626D01*
X024246Y006591D01*
X024252Y006557D01*
X024261Y006523D01*
X024273Y006490D01*
X024288Y006458D01*
X024306Y006428D01*
X024326Y006400D01*
X024348Y006373D01*
X024373Y006348D01*
X024400Y006326D01*
X024428Y006306D01*
X024458Y006288D01*
X024490Y006273D01*
X024523Y006261D01*
X024557Y006252D01*
X024591Y006246D01*
X024626Y006243D01*
X025145Y006243D01*
X025180Y006246D01*
X025214Y006252D01*
X025248Y006261D01*
X025280Y006273D01*
X025312Y006288D01*
X025342Y006306D01*
X025363Y006320D01*
X025860Y006320D01*
X026007Y006381D01*
X026119Y006493D01*
X026180Y006640D01*
X026180Y006669D01*
X026200Y006649D01*
X026259Y006607D01*
X026323Y006574D01*
X026392Y006551D01*
X026464Y006540D01*
X026500Y006540D01*
X026536Y006540D01*
X026608Y006551D01*
X026677Y006574D01*
X026741Y006607D01*
X026800Y006649D01*
X026851Y006700D01*
X026893Y006759D01*
X026926Y006823D01*
X026949Y006892D01*
X026960Y006964D01*
X026960Y007000D01*
X026960Y007036D01*
X026949Y007108D01*
X026926Y007177D01*
X026893Y007241D01*
X026851Y007300D01*
X026800Y007351D01*
X026741Y007393D01*
X026677Y007426D01*
X026608Y007449D01*
X026536Y007460D01*
X026500Y007460D01*
X026500Y007000D01*
X026500Y007000D01*
X026960Y007000D01*
X026500Y007000D01*
X026500Y007000D01*
X026500Y007460D01*
X026464Y007460D01*
X026392Y007449D01*
X026323Y007426D01*
X026259Y007393D01*
X026200Y007351D01*
X026180Y007331D01*
X026180Y007360D01*
X026119Y007507D01*
X026007Y007619D01*
X025980Y007630D01*
X025980Y010514D01*
X026062Y010480D01*
X027694Y010480D01*
X027694Y008730D01*
X029467Y008730D01*
X029467Y010798D01*
X029033Y010798D01*
X029184Y010949D01*
X029184Y010949D01*
X029331Y011095D01*
X029410Y011286D01*
X029410Y011500D01*
X029487Y011577D01*
X029506Y011623D01*
X029510Y011623D01*
X029510Y011633D01*
X029548Y011724D01*
X029548Y012542D01*
X029570Y012542D01*
X029570Y011724D01*
X029608Y011633D01*
X029608Y011623D01*
X029612Y011623D01*
X029631Y011577D01*
X029744Y011464D01*
X029891Y011403D01*
X031235Y011403D01*
X031382Y011464D01*
X031495Y011577D01*
X031556Y011724D01*
X031556Y011941D01*
X031720Y011941D01*
X031959Y012040D01*
X032142Y012222D01*
X032142Y012222D01*
X032551Y012632D01*
X032650Y012871D01*
X032650Y015629D01*
X032551Y015868D01*
X031650Y016769D01*
X031650Y017838D01*
X031586Y017993D01*
X031645Y017993D01*
X031680Y017996D01*
X031714Y018002D01*
X031748Y018011D01*
X031780Y018023D01*
X031812Y018038D01*
X031842Y018056D01*
X031871Y018076D01*
X031898Y018098D01*
X031922Y018123D01*
X031945Y018150D01*
X031965Y018178D01*
X031982Y018208D01*
X031997Y018240D01*
X032009Y018273D01*
X032018Y018307D01*
X032024Y018341D01*
X032027Y018376D01*
X032027Y018944D01*
X032024Y018979D01*
X032018Y019013D01*
X032009Y019047D01*
X031997Y019080D01*
X031982Y019112D01*
X031965Y019142D01*
X031945Y019170D01*
X031922Y019197D01*
X031898Y019222D01*
X031871Y019244D01*
X031842Y019264D01*
X031812Y019282D01*
X031780Y019297D01*
X031748Y019309D01*
X031714Y019318D01*
X031680Y019324D01*
X031645Y019327D01*
X031126Y019327D01*
X031091Y019324D01*
X031057Y019318D01*
X031023Y019309D01*
X030990Y019297D01*
X030958Y019282D01*
X030928Y019264D01*
X030900Y019244D01*
X030873Y019222D01*
X030848Y019197D01*
X030826Y019170D01*
X030806Y019142D01*
X030795Y019124D01*
X030368Y019551D01*
X030129Y019650D01*
X029527Y019650D01*
X029527Y020194D01*
X029524Y020229D01*
X029518Y020263D01*
X029509Y020297D01*
X029497Y020330D01*
X029482Y020362D01*
X029465Y020392D01*
X029445Y020420D01*
X029422Y020447D01*
X029398Y020472D01*
X029371Y020494D01*
X029342Y020514D01*
X029312Y020532D01*
X029280Y020547D01*
X029248Y020559D01*
X029214Y020568D01*
X029180Y020574D01*
X029145Y020577D01*
X028626Y020577D01*
X028591Y020574D01*
X028557Y020568D01*
X028523Y020559D01*
X028490Y020547D01*
X028458Y020532D01*
X028428Y020514D01*
X028400Y020494D01*
X028373Y020472D01*
X028348Y020447D01*
X028326Y020420D01*
X028306Y020392D01*
X028288Y020362D01*
X028273Y020330D01*
X028272Y020325D01*
X027658Y020325D01*
X027175Y019842D01*
X027175Y019158D01*
X027658Y018675D01*
X027906Y018675D01*
X027949Y018632D01*
X028132Y018449D01*
X028371Y018350D01*
X029731Y018350D01*
X029757Y018324D01*
X029755Y018325D01*
X029709Y018337D01*
X029291Y018337D01*
X028874Y018337D01*
X028828Y018325D01*
X028787Y018302D01*
X028754Y018268D01*
X028730Y018227D01*
X028718Y018181D01*
X028718Y018000D01*
X029291Y018000D01*
X028718Y018000D01*
X028718Y017819D01*
X028730Y017773D01*
X028754Y017732D01*
X028787Y017698D01*
X028828Y017675D01*
X028874Y017663D01*
X029291Y017663D01*
X029291Y018000D01*
X029291Y018000D01*
X029291Y018000D01*
X029291Y018337D01*
X029291Y018000D01*
X029291Y018000D01*
X029291Y017663D01*
X029709Y017663D01*
X029755Y017675D01*
X029796Y017698D01*
X029829Y017732D01*
X029853Y017773D01*
X029865Y017819D01*
X029865Y018000D01*
X029291Y018000D01*
X029865Y018000D01*
X029865Y018181D01*
X029853Y018227D01*
X029851Y018229D01*
X029915Y018166D01*
X029915Y017763D01*
X029976Y017616D01*
X030088Y017503D01*
X030235Y017443D01*
X030347Y017443D01*
X030350Y017439D01*
X030350Y016371D01*
X030449Y016132D01*
X031350Y015231D01*
X031350Y013730D01*
X031235Y013778D01*
X029891Y013778D01*
X029744Y013717D01*
X029631Y013605D01*
X029612Y013558D01*
X029608Y013558D01*
X029608Y013548D01*
X029570Y013458D01*
X029570Y012639D01*
X029548Y012639D01*
X029548Y013458D01*
X029520Y013524D01*
X029520Y014443D01*
X029765Y014443D01*
X029912Y014503D01*
X030024Y014616D01*
X030085Y014763D01*
X030085Y015237D01*
X030024Y015384D01*
X029912Y015497D01*
X029765Y015557D01*
X029527Y015557D01*
X029527Y015944D01*
X029524Y015979D01*
X029518Y016013D01*
X029509Y016047D01*
X029497Y016080D01*
X029482Y016112D01*
X029465Y016142D01*
X029445Y016170D01*
X029422Y016197D01*
X029398Y016222D01*
X029371Y016244D01*
X029342Y016264D01*
X029312Y016282D01*
X029280Y016297D01*
X029248Y016309D01*
X029214Y016318D01*
X029180Y016324D01*
X029145Y016327D01*
X028626Y016327D01*
X028591Y016324D01*
X028557Y016318D01*
X028523Y016309D01*
X028490Y016297D01*
X028458Y016282D01*
X028428Y016264D01*
X028400Y016244D01*
X028373Y016222D01*
X028348Y016197D01*
X028326Y016170D01*
X028306Y016142D01*
X028288Y016112D01*
X028273Y016080D01*
X028261Y016047D01*
X028252Y016013D01*
X028246Y015979D01*
X028243Y015944D01*
X028243Y015520D01*
X027755Y015520D01*
X027941Y015705D01*
X028020Y015897D01*
X028020Y016438D01*
X027991Y016509D01*
X027991Y016875D01*
X027930Y017022D01*
X027817Y017134D01*
X027670Y017195D01*
X026999Y017195D01*
X026852Y017134D01*
X026740Y017022D01*
X026720Y016975D01*
X026713Y016975D01*
X026713Y016958D01*
X026679Y016875D01*
X026679Y016548D01*
X026617Y016548D01*
X026617Y016452D01*
X026229Y016452D01*
X026229Y016181D01*
X026242Y016135D01*
X026265Y016094D01*
X026299Y016061D01*
X026340Y016037D01*
X026386Y016025D01*
X026617Y016025D01*
X026617Y016452D01*
X026679Y016452D01*
X026679Y016125D01*
X026713Y016042D01*
X026713Y016025D01*
X026720Y016025D01*
X026740Y015978D01*
X026741Y015977D01*
X026371Y015606D01*
X026225Y015460D01*
X026145Y015269D01*
X026145Y015097D01*
X026070Y015022D01*
X026009Y014875D01*
X026009Y014125D01*
X026070Y013978D01*
X026183Y013866D01*
X026230Y013846D01*
X026230Y013397D01*
X026309Y013205D01*
X027219Y012296D01*
X027365Y012150D01*
X027556Y012071D01*
X027563Y012071D01*
X027563Y011724D01*
X027623Y011577D01*
X027680Y011520D01*
X026381Y011520D01*
X025627Y012274D01*
X024627Y013274D01*
X024418Y013483D01*
X024431Y013479D01*
X024702Y013479D01*
X024702Y013867D01*
X024798Y013867D01*
X024798Y013479D01*
X025069Y013479D01*
X025115Y013492D01*
X025156Y013515D01*
X025189Y013549D01*
X025213Y013590D01*
X025225Y013636D01*
X025225Y013867D01*
X024798Y013867D01*
X024798Y013929D01*
X025125Y013929D01*
X025208Y013963D01*
X025225Y013963D01*
X025225Y013970D01*
X025272Y013990D01*
X025384Y014102D01*
X025445Y014249D01*
X025445Y014265D02*
X026009Y014265D01*
X026009Y014424D02*
X025445Y014424D01*
X025445Y014582D02*
X026009Y014582D01*
X026009Y014741D02*
X025445Y014741D01*
X025445Y014899D02*
X026019Y014899D01*
X026106Y015058D02*
X025388Y015058D01*
X025184Y015216D02*
X026145Y015216D01*
X026189Y015375D02*
X022065Y015375D01*
X022065Y015533D02*
X026298Y015533D01*
X026456Y015692D02*
X022143Y015692D01*
X022230Y015850D02*
X026615Y015850D01*
X026727Y016009D02*
X022241Y016009D01*
X022241Y016167D02*
X026233Y016167D01*
X026229Y016326D02*
X022241Y016326D01*
X022241Y016484D02*
X026617Y016484D01*
X026617Y016548D02*
X026229Y016548D01*
X026229Y016819D01*
X026242Y016865D01*
X026265Y016906D01*
X026299Y016939D01*
X026340Y016963D01*
X026386Y016975D01*
X026617Y016975D01*
X026617Y016548D01*
X026617Y016643D02*
X026679Y016643D01*
X026679Y016801D02*
X026617Y016801D01*
X026617Y016960D02*
X026713Y016960D01*
X026836Y017118D02*
X022065Y017118D01*
X022065Y016960D02*
X026334Y016960D01*
X026229Y016801D02*
X022150Y016801D01*
X022233Y016643D02*
X026229Y016643D01*
X026617Y016326D02*
X026679Y016326D01*
X026679Y016167D02*
X026617Y016167D01*
X027768Y015533D02*
X028243Y015533D01*
X028243Y015692D02*
X027927Y015692D01*
X028001Y015850D02*
X028243Y015850D01*
X028252Y016009D02*
X028020Y016009D01*
X028020Y016167D02*
X028323Y016167D01*
X028613Y016326D02*
X028020Y016326D01*
X028001Y016484D02*
X030350Y016484D01*
X030350Y016643D02*
X027991Y016643D01*
X027991Y016801D02*
X030350Y016801D01*
X030350Y016960D02*
X027955Y016960D01*
X027833Y017118D02*
X030350Y017118D01*
X030350Y017277D02*
X022065Y017277D01*
X022065Y017435D02*
X030350Y017435D01*
X029998Y017594D02*
X022065Y017594D01*
X022065Y017752D02*
X028742Y017752D01*
X028718Y017911D02*
X022065Y017911D01*
X022065Y018069D02*
X022934Y018069D01*
X022726Y018228D02*
X022065Y018228D01*
X022065Y018386D02*
X022586Y018386D01*
X022495Y018545D02*
X022065Y018545D01*
X022065Y018703D02*
X022437Y018703D01*
X022394Y018862D02*
X022065Y018862D01*
X022061Y019020D02*
X022390Y019020D01*
X022392Y019179D02*
X021995Y019179D01*
X021842Y019337D02*
X022435Y019337D01*
X021585Y018915D02*
X021585Y016500D01*
X021585Y016250D01*
X021585Y014835D01*
X021250Y014500D01*
X021250Y013742D01*
X020750Y013742D02*
X020750Y014750D01*
X020915Y014915D01*
X020915Y016250D01*
X020915Y017085D01*
X020500Y017500D01*
X020500Y019000D01*
X020000Y019500D01*
X019320Y019337D02*
X017169Y019337D01*
X018261Y019179D02*
X018583Y019179D01*
X018504Y019020D02*
X018339Y019020D01*
X018350Y018862D02*
X018493Y018862D01*
X018493Y018703D02*
X018350Y018703D01*
X018350Y018545D02*
X018493Y018545D01*
X018493Y018386D02*
X018350Y018386D01*
X018314Y018228D02*
X018529Y018228D01*
X018659Y018069D02*
X018184Y018069D01*
X016980Y017911D02*
X020020Y017911D01*
X020020Y017752D02*
X016980Y017752D01*
X016980Y017594D02*
X020020Y017594D01*
X020020Y017435D02*
X016924Y017435D01*
X016790Y017277D02*
X020073Y017277D01*
X020203Y017118D02*
X016631Y017118D01*
X016473Y016960D02*
X020362Y016960D01*
X020350Y016801D02*
X016314Y016801D01*
X016156Y016643D02*
X020267Y016643D01*
X020259Y016484D02*
X015997Y016484D01*
X015839Y016326D02*
X020259Y016326D01*
X020259Y016167D02*
X015741Y016167D01*
X015741Y016009D02*
X020259Y016009D01*
X020270Y015850D02*
X015730Y015850D01*
X015643Y015692D02*
X020357Y015692D01*
X020435Y015533D02*
X015565Y015533D01*
X015565Y015375D02*
X020435Y015375D01*
X020435Y015216D02*
X018934Y015216D01*
X019134Y015067D02*
X019195Y014920D01*
X019195Y013899D01*
X019781Y013313D01*
X019972Y013313D01*
X019972Y013742D01*
X020250Y013742D01*
X020250Y013790D02*
X020250Y013790D01*
X020250Y013948D02*
X020250Y013948D01*
X020250Y014107D02*
X020250Y014107D01*
X020250Y014265D02*
X020250Y014265D01*
X019996Y014265D02*
X019195Y014265D01*
X019195Y014107D02*
X019972Y014107D01*
X019972Y013948D02*
X019195Y013948D01*
X019305Y013790D02*
X019972Y013790D01*
X019972Y013631D02*
X019463Y013631D01*
X019622Y013473D02*
X019972Y013473D01*
X019972Y013314D02*
X019780Y013314D01*
X019583Y012833D02*
X018083Y012833D01*
X017750Y012500D01*
X015250Y012500D01*
X014750Y012000D01*
X014750Y011262D01*
X014746Y011258D01*
X015246Y011258D02*
X015250Y011254D01*
X015250Y010500D01*
X017000Y008750D01*
X017000Y007000D01*
X017680Y006974D02*
X018031Y006974D01*
X017993Y007133D02*
X017680Y007133D01*
X017680Y007291D02*
X017993Y007291D01*
X017993Y007450D02*
X017643Y007450D01*
X017518Y007608D02*
X017993Y007608D01*
X018003Y007767D02*
X017480Y007767D01*
X017480Y007925D02*
X018080Y007925D01*
X017480Y008084D02*
X019520Y008084D01*
X019520Y008242D02*
X017480Y008242D01*
X017480Y008401D02*
X019520Y008401D01*
X019520Y008559D02*
X017480Y008559D01*
X017480Y008718D02*
X019520Y008718D01*
X019520Y008876D02*
X017467Y008876D01*
X017394Y009035D02*
X019520Y009035D01*
X019520Y009193D02*
X017236Y009193D01*
X017077Y009352D02*
X019520Y009352D01*
X019520Y009510D02*
X016919Y009510D01*
X016760Y009669D02*
X019520Y009669D01*
X019520Y009827D02*
X016602Y009827D01*
X016443Y009986D02*
X019520Y009986D01*
X019520Y010144D02*
X016285Y010144D01*
X016126Y010303D02*
X019520Y010303D01*
X019568Y010461D02*
X015968Y010461D01*
X015809Y010620D02*
X019691Y010620D01*
X019728Y010657D02*
X019728Y010657D01*
X019752Y010778D02*
X015744Y010778D01*
X015744Y010937D02*
X019752Y010937D01*
X019752Y011095D02*
X015744Y011095D01*
X015744Y011254D02*
X019752Y011254D01*
X019752Y011412D02*
X015744Y011412D01*
X015744Y011571D02*
X019752Y011571D01*
X019752Y011729D02*
X015744Y011729D01*
X015696Y011888D02*
X019800Y011888D01*
X019963Y012046D02*
X017908Y012046D01*
X018133Y012205D02*
X020815Y012205D01*
X020770Y012046D02*
X020537Y012046D01*
X020500Y012000D02*
X019500Y012000D01*
X019000Y011500D01*
X020250Y011258D02*
X020250Y010500D01*
X020000Y010250D01*
X020000Y007000D01*
X019406Y006657D02*
X017680Y006657D01*
X017680Y006816D02*
X018164Y006816D01*
X017621Y006499D02*
X019540Y006499D01*
X019816Y006340D02*
X017408Y006340D01*
X016592Y006340D02*
X016184Y006340D01*
X015816Y006340D02*
X012810Y006340D01*
X012810Y006182D02*
X032940Y006182D01*
X032940Y006340D02*
X025908Y006340D01*
X026121Y006499D02*
X032940Y006499D01*
X032940Y006657D02*
X031400Y006657D01*
X031400Y008570D01*
X029627Y008570D01*
X029627Y008730D01*
X029467Y008730D01*
X029467Y008570D01*
X027694Y008570D01*
X027694Y006657D01*
X026808Y006657D01*
X026922Y006816D02*
X027694Y006816D01*
X027694Y006974D02*
X026960Y006974D01*
X026941Y007133D02*
X027694Y007133D01*
X027694Y007291D02*
X026857Y007291D01*
X026602Y007450D02*
X027694Y007450D01*
X027694Y007608D02*
X026018Y007608D01*
X025980Y007767D02*
X027694Y007767D01*
X027694Y007925D02*
X025980Y007925D01*
X025980Y008084D02*
X027694Y008084D01*
X027694Y008242D02*
X025980Y008242D01*
X025980Y008401D02*
X027694Y008401D01*
X027694Y008559D02*
X025980Y008559D01*
X025980Y008718D02*
X029467Y008718D01*
X029467Y008570D02*
X029627Y008570D01*
X029627Y006501D01*
X031244Y006501D01*
X031290Y006513D01*
X031331Y006537D01*
X031365Y006571D01*
X031388Y006612D01*
X031400Y006657D01*
X031400Y006816D02*
X032940Y006816D01*
X032940Y006974D02*
X031400Y006974D01*
X031400Y007133D02*
X032940Y007133D01*
X032940Y007291D02*
X031400Y007291D01*
X031400Y007450D02*
X032940Y007450D01*
X032940Y007608D02*
X031400Y007608D01*
X031400Y007767D02*
X032940Y007767D01*
X032940Y007925D02*
X031400Y007925D01*
X031400Y008084D02*
X032940Y008084D01*
X032940Y008242D02*
X031400Y008242D01*
X031400Y008401D02*
X032940Y008401D01*
X032940Y008559D02*
X031400Y008559D01*
X031400Y008730D02*
X031400Y010642D01*
X031388Y010688D01*
X031365Y010729D01*
X031331Y010762D01*
X031290Y010786D01*
X031244Y010798D01*
X029627Y010798D01*
X029627Y008730D01*
X031400Y008730D01*
X031400Y008876D02*
X032940Y008876D01*
X032940Y008718D02*
X029627Y008718D01*
X029627Y008876D02*
X029467Y008876D01*
X029467Y009035D02*
X029627Y009035D01*
X029627Y009193D02*
X029467Y009193D01*
X029467Y009352D02*
X029627Y009352D01*
X029627Y009510D02*
X029467Y009510D01*
X029467Y009669D02*
X029627Y009669D01*
X029627Y009827D02*
X029467Y009827D01*
X029467Y009986D02*
X029627Y009986D01*
X029627Y010144D02*
X029467Y010144D01*
X029467Y010303D02*
X029627Y010303D01*
X029627Y010461D02*
X029467Y010461D01*
X029467Y010620D02*
X029627Y010620D01*
X029627Y010778D02*
X029467Y010778D01*
X029172Y010937D02*
X032940Y010937D01*
X032940Y011095D02*
X029330Y011095D01*
X029396Y011254D02*
X032940Y011254D01*
X032940Y011412D02*
X031256Y011412D01*
X031489Y011571D02*
X032940Y011571D01*
X032940Y011729D02*
X031556Y011729D01*
X031556Y011888D02*
X032940Y011888D01*
X032940Y012046D02*
X031965Y012046D01*
X032124Y012205D02*
X032940Y012205D01*
X032940Y012363D02*
X032282Y012363D01*
X032441Y012522D02*
X032940Y012522D01*
X032940Y012680D02*
X032571Y012680D01*
X032637Y012839D02*
X032940Y012839D01*
X032940Y012997D02*
X032650Y012997D01*
X032650Y013156D02*
X032940Y013156D01*
X032940Y013314D02*
X032650Y013314D01*
X032650Y013473D02*
X032940Y013473D01*
X032940Y013631D02*
X032650Y013631D01*
X032650Y013790D02*
X032940Y013790D01*
X032940Y013948D02*
X032650Y013948D01*
X032650Y014107D02*
X032940Y014107D01*
X032940Y014265D02*
X032650Y014265D01*
X032650Y014424D02*
X032940Y014424D01*
X032940Y014582D02*
X032650Y014582D01*
X032650Y014741D02*
X032940Y014741D01*
X032940Y014899D02*
X032650Y014899D01*
X032650Y015058D02*
X032940Y015058D01*
X032940Y015216D02*
X032650Y015216D01*
X032650Y015375D02*
X032940Y015375D01*
X032940Y015533D02*
X032650Y015533D01*
X032624Y015692D02*
X032940Y015692D01*
X032940Y015850D02*
X032559Y015850D01*
X032411Y016009D02*
X032940Y016009D01*
X032940Y016167D02*
X032252Y016167D01*
X032094Y016326D02*
X032940Y016326D01*
X032940Y016484D02*
X031935Y016484D01*
X031777Y016643D02*
X032940Y016643D01*
X032940Y016801D02*
X031650Y016801D01*
X031650Y016960D02*
X032940Y016960D01*
X032940Y017118D02*
X031650Y017118D01*
X031650Y017277D02*
X032940Y017277D01*
X032940Y017435D02*
X031650Y017435D01*
X031650Y017594D02*
X032940Y017594D01*
X032940Y017752D02*
X031650Y017752D01*
X031620Y017911D02*
X032940Y017911D01*
X032940Y018069D02*
X031861Y018069D01*
X031991Y018228D02*
X032940Y018228D01*
X032940Y018386D02*
X032027Y018386D01*
X032027Y018545D02*
X032940Y018545D01*
X032940Y018703D02*
X032027Y018703D01*
X032027Y018862D02*
X032940Y018862D01*
X032940Y019020D02*
X032016Y019020D01*
X031938Y019179D02*
X032940Y019179D01*
X032940Y019337D02*
X030582Y019337D01*
X030424Y019496D02*
X032940Y019496D01*
X032940Y019654D02*
X029527Y019654D01*
X029527Y019813D02*
X032940Y019813D01*
X032940Y019971D02*
X029527Y019971D01*
X029527Y020130D02*
X032940Y020130D01*
X032940Y020288D02*
X029512Y020288D01*
X029423Y020447D02*
X032940Y020447D01*
X032940Y020605D02*
X022808Y020605D01*
X022850Y020447D02*
X028348Y020447D01*
X027621Y020288D02*
X022850Y020288D01*
X022850Y020130D02*
X023339Y020130D01*
X023661Y020130D02*
X027463Y020130D01*
X027304Y019971D02*
X026385Y019971D01*
X026251Y020105D02*
X026050Y020105D01*
X026050Y019550D01*
X026605Y019550D01*
X026605Y019751D01*
X026251Y020105D01*
X026050Y019971D02*
X025950Y019971D01*
X025950Y020105D02*
X025749Y020105D01*
X025395Y019751D01*
X025395Y019550D01*
X025950Y019550D01*
X025950Y020105D01*
X025950Y019813D02*
X026050Y019813D01*
X026050Y019654D02*
X025950Y019654D01*
X025950Y019550D02*
X026050Y019550D01*
X026050Y019450D01*
X026605Y019450D01*
X026605Y019249D01*
X026251Y018895D01*
X026050Y018895D01*
X026050Y019450D01*
X025950Y019450D01*
X025950Y018895D01*
X025749Y018895D01*
X025395Y019249D01*
X025395Y019450D01*
X025950Y019450D01*
X025950Y019550D01*
X025950Y019496D02*
X024509Y019496D01*
X024565Y019337D02*
X025395Y019337D01*
X025466Y019179D02*
X024608Y019179D01*
X024610Y019020D02*
X025624Y019020D01*
X025950Y019020D02*
X026050Y019020D01*
X026050Y019179D02*
X025950Y019179D01*
X025950Y019337D02*
X026050Y019337D01*
X026050Y019496D02*
X027175Y019496D01*
X027175Y019654D02*
X026605Y019654D01*
X026543Y019813D02*
X027175Y019813D01*
X027175Y019337D02*
X026605Y019337D01*
X026534Y019179D02*
X027175Y019179D01*
X027313Y019020D02*
X026376Y019020D01*
X027472Y018862D02*
X024606Y018862D01*
X024563Y018703D02*
X027630Y018703D01*
X028036Y018545D02*
X024505Y018545D01*
X024414Y018386D02*
X028284Y018386D01*
X028730Y018228D02*
X024274Y018228D01*
X024066Y018069D02*
X028718Y018069D01*
X029291Y018069D02*
X029291Y018069D01*
X029291Y018000D02*
X029291Y018000D01*
X029291Y017911D02*
X029291Y017911D01*
X029291Y017752D02*
X029291Y017752D01*
X029291Y018228D02*
X029291Y018228D01*
X029852Y018228D02*
X029853Y018228D01*
X029865Y018069D02*
X029915Y018069D01*
X029915Y017911D02*
X029865Y017911D01*
X029841Y017752D02*
X029919Y017752D01*
X030741Y019179D02*
X030833Y019179D01*
X025615Y019971D02*
X024079Y019971D01*
X024281Y019813D02*
X025457Y019813D01*
X025395Y019654D02*
X024418Y019654D01*
X022921Y019971D02*
X022850Y019971D01*
X021585Y018915D02*
X021000Y019500D01*
X020994Y020447D02*
X012810Y020447D01*
X012810Y020605D02*
X021035Y020605D01*
X016243Y020130D02*
X015981Y020130D01*
X015500Y019500D02*
X015500Y018500D01*
X014500Y017500D01*
X014500Y016335D01*
X014415Y016250D01*
X014415Y015165D01*
X014250Y015000D01*
X014250Y013742D01*
X013750Y013742D02*
X013750Y013129D01*
X013750Y013742D01*
X013750Y013742D01*
X013750Y013631D02*
X013750Y013631D01*
X013750Y013473D02*
X013750Y013473D01*
X013750Y013314D02*
X013750Y013314D01*
X013750Y013156D02*
X013750Y013156D01*
X013750Y013000D02*
X013750Y012500D01*
X014250Y012000D01*
X014250Y011262D01*
X014246Y011258D01*
X013750Y011258D02*
X013750Y010500D01*
X016000Y008250D01*
X016000Y007000D01*
X015406Y006657D02*
X012810Y006657D01*
X012810Y006499D02*
X015540Y006499D01*
X014164Y006816D02*
X012810Y006816D01*
X012810Y006974D02*
X014031Y006974D01*
X013993Y007133D02*
X012810Y007133D01*
X012810Y007291D02*
X013993Y007291D01*
X013993Y007450D02*
X012810Y007450D01*
X012810Y007608D02*
X013993Y007608D01*
X014003Y007767D02*
X012810Y007767D01*
X012810Y007925D02*
X014080Y007925D01*
X015012Y008559D02*
X012810Y008559D01*
X012810Y008401D02*
X015171Y008401D01*
X015329Y008242D02*
X012810Y008242D01*
X012810Y008084D02*
X015488Y008084D01*
X014854Y008718D02*
X012810Y008718D01*
X012810Y008876D02*
X014695Y008876D01*
X014537Y009035D02*
X012810Y009035D01*
X012810Y009193D02*
X014378Y009193D01*
X014220Y009352D02*
X012810Y009352D01*
X012810Y009510D02*
X014061Y009510D01*
X013903Y009669D02*
X012810Y009669D01*
X012810Y009827D02*
X013744Y009827D01*
X013586Y009986D02*
X012810Y009986D01*
X012810Y010144D02*
X013427Y010144D01*
X013312Y010303D02*
X012810Y010303D01*
X012810Y010461D02*
X013270Y010461D01*
X013270Y010620D02*
X012810Y010620D01*
X012810Y010778D02*
X013252Y010778D01*
X013252Y010937D02*
X012810Y010937D01*
X012810Y011095D02*
X013252Y011095D01*
X013252Y011254D02*
X012810Y011254D01*
X012810Y011412D02*
X013252Y011412D01*
X013252Y011571D02*
X012810Y011571D01*
X012810Y011729D02*
X013252Y011729D01*
X013300Y011888D02*
X012810Y011888D01*
X012810Y012046D02*
X013463Y012046D01*
X014037Y012046D02*
X014270Y012046D01*
X014270Y011888D02*
X014200Y011888D01*
X014246Y011871D02*
X014246Y011777D01*
X014246Y011777D01*
X014246Y011871D01*
X014315Y012205D02*
X012810Y012205D01*
X012810Y012363D02*
X014434Y012363D01*
X014593Y012522D02*
X012810Y012522D01*
X012810Y012680D02*
X014751Y012680D01*
X014910Y012839D02*
X012810Y012839D01*
X012810Y012997D02*
X013898Y012997D01*
X013557Y013156D02*
X012810Y013156D01*
X012810Y013314D02*
X013472Y013314D01*
X013472Y013473D02*
X012810Y013473D01*
X012810Y013631D02*
X013472Y013631D01*
X013472Y013790D02*
X012810Y013790D01*
X012810Y013948D02*
X013472Y013948D01*
X013472Y014107D02*
X012810Y014107D01*
X012810Y014265D02*
X013496Y014265D01*
X015565Y015216D02*
X016066Y015216D01*
X016934Y015216D02*
X018066Y015216D01*
X018500Y014585D02*
X016500Y014585D01*
X016079Y013948D02*
X015748Y013948D01*
X015748Y013790D02*
X016025Y013790D01*
X015748Y013314D02*
X017993Y013314D01*
X017727Y013156D02*
X015718Y013156D01*
X015602Y012997D02*
X017568Y012997D01*
X018500Y013915D02*
X019583Y012833D01*
X022083Y012833D01*
X024333Y012833D01*
X024904Y012997D02*
X026518Y012997D01*
X026676Y012839D02*
X025062Y012839D01*
X025221Y012680D02*
X026835Y012680D01*
X026993Y012522D02*
X025379Y012522D01*
X025538Y012363D02*
X027152Y012363D01*
X027310Y012205D02*
X025696Y012205D01*
X025855Y012046D02*
X027563Y012046D01*
X027563Y011888D02*
X026013Y011888D01*
X026172Y011729D02*
X027563Y011729D01*
X027630Y011571D02*
X026330Y011571D01*
X025500Y011000D02*
X025333Y011167D01*
X025333Y011833D01*
X024853Y011571D02*
X022244Y011571D01*
X022244Y011729D02*
X024701Y011729D01*
X024542Y011888D02*
X022196Y011888D01*
X022033Y012046D02*
X024384Y012046D01*
X024225Y012205D02*
X022133Y012205D01*
X022083Y012833D02*
X021250Y012000D01*
X021250Y011262D01*
X021246Y011258D01*
X020750Y011262D02*
X020750Y011750D01*
X020500Y012000D01*
X020700Y011888D02*
X020770Y011888D01*
X020746Y011871D02*
X020746Y011777D01*
X020746Y011871D01*
X020746Y011777D02*
X020746Y011777D01*
X020750Y011262D02*
X020746Y011258D01*
X021746Y011258D02*
X021750Y011254D01*
X021750Y010500D01*
X021000Y009750D01*
X021000Y007000D01*
X021680Y006974D02*
X023057Y006974D01*
X022798Y007133D02*
X021680Y007133D01*
X021680Y007291D02*
X022639Y007291D01*
X022536Y007450D02*
X021643Y007450D01*
X021518Y007608D02*
X022456Y007608D01*
X022413Y007767D02*
X021480Y007767D01*
X021480Y007925D02*
X022390Y007925D01*
X022390Y008084D02*
X021480Y008084D01*
X021480Y008242D02*
X022416Y008242D01*
X022458Y008401D02*
X021480Y008401D01*
X021480Y008559D02*
X022541Y008559D01*
X022648Y008718D02*
X021480Y008718D01*
X021480Y008876D02*
X022806Y008876D01*
X023072Y009035D02*
X021480Y009035D01*
X021480Y009193D02*
X025020Y009193D01*
X025020Y009035D02*
X023928Y009035D01*
X024194Y008876D02*
X025020Y008876D01*
X025020Y008718D02*
X024352Y008718D01*
X024459Y008559D02*
X025020Y008559D01*
X025020Y008401D02*
X024542Y008401D01*
X024584Y008242D02*
X025020Y008242D01*
X025020Y008084D02*
X024610Y008084D01*
X024610Y007925D02*
X025020Y007925D01*
X025020Y007767D02*
X024587Y007767D01*
X024544Y007608D02*
X024982Y007608D01*
X024243Y007133D02*
X024202Y007133D01*
X024243Y006974D02*
X023943Y006974D01*
X024243Y006816D02*
X021680Y006816D01*
X021680Y006657D02*
X024243Y006657D01*
X024270Y006499D02*
X021621Y006499D01*
X021408Y006340D02*
X024383Y006340D01*
X025500Y007000D02*
X025500Y011000D01*
X025020Y010778D02*
X022244Y010778D01*
X022244Y010937D02*
X024909Y010937D01*
X024853Y011095D02*
X022244Y011095D01*
X022244Y011254D02*
X024853Y011254D01*
X024853Y011412D02*
X022244Y011412D01*
X022230Y010620D02*
X025020Y010620D01*
X025020Y010461D02*
X022230Y010461D01*
X022188Y010303D02*
X025020Y010303D01*
X025020Y010144D02*
X022073Y010144D01*
X021914Y009986D02*
X025020Y009986D01*
X025020Y009827D02*
X021756Y009827D01*
X021597Y009669D02*
X025020Y009669D01*
X025020Y009510D02*
X021480Y009510D01*
X021480Y009352D02*
X025020Y009352D01*
X025980Y009352D02*
X027694Y009352D01*
X027694Y009510D02*
X025980Y009510D01*
X025980Y009669D02*
X027694Y009669D01*
X027694Y009827D02*
X025980Y009827D01*
X025980Y009986D02*
X027694Y009986D01*
X027694Y010144D02*
X025980Y010144D01*
X025980Y010303D02*
X027694Y010303D01*
X027694Y010461D02*
X025980Y010461D01*
X025980Y009193D02*
X027694Y009193D01*
X027694Y009035D02*
X025980Y009035D01*
X025980Y008876D02*
X027694Y008876D01*
X029467Y008570D02*
X029467Y006501D01*
X027850Y006501D01*
X027805Y006513D01*
X027763Y006537D01*
X027730Y006571D01*
X027706Y006612D01*
X027694Y006657D01*
X026500Y006657D02*
X026500Y006657D01*
X026500Y006540D02*
X026500Y007000D01*
X026500Y007000D01*
X026500Y006540D01*
X026500Y006816D02*
X026500Y006816D01*
X026500Y006974D02*
X026500Y006974D01*
X026500Y007133D02*
X026500Y007133D01*
X026500Y007291D02*
X026500Y007291D01*
X026500Y007450D02*
X026500Y007450D01*
X026398Y007450D02*
X026143Y007450D01*
X026180Y006657D02*
X026192Y006657D01*
X029467Y006657D02*
X029627Y006657D01*
X029627Y006816D02*
X029467Y006816D01*
X029467Y006974D02*
X029627Y006974D01*
X029627Y007133D02*
X029467Y007133D01*
X029467Y007291D02*
X029627Y007291D01*
X029627Y007450D02*
X029467Y007450D01*
X029467Y007608D02*
X029627Y007608D01*
X029627Y007767D02*
X029467Y007767D01*
X029467Y007925D02*
X029627Y007925D01*
X029627Y008084D02*
X029467Y008084D01*
X029467Y008242D02*
X029627Y008242D01*
X029627Y008401D02*
X029467Y008401D01*
X029467Y008559D02*
X029627Y008559D01*
X031400Y009035D02*
X032940Y009035D01*
X032940Y009193D02*
X031400Y009193D01*
X031400Y009352D02*
X032940Y009352D01*
X032940Y009510D02*
X031400Y009510D01*
X031400Y009669D02*
X032940Y009669D01*
X032940Y009827D02*
X031400Y009827D01*
X031400Y009986D02*
X032940Y009986D01*
X032940Y010144D02*
X031400Y010144D01*
X031400Y010303D02*
X032940Y010303D01*
X032940Y010461D02*
X031400Y010461D01*
X031400Y010620D02*
X032940Y010620D01*
X032940Y010778D02*
X031304Y010778D01*
X029869Y011412D02*
X029410Y011412D01*
X029481Y011571D02*
X029637Y011571D01*
X029570Y011729D02*
X029548Y011729D01*
X029548Y011888D02*
X029570Y011888D01*
X029570Y012046D02*
X029548Y012046D01*
X029548Y012205D02*
X029570Y012205D01*
X029570Y012363D02*
X029548Y012363D01*
X029548Y012522D02*
X029570Y012522D01*
X029570Y012680D02*
X029548Y012680D01*
X029548Y012839D02*
X029570Y012839D01*
X029570Y012997D02*
X029548Y012997D01*
X029548Y013156D02*
X029570Y013156D01*
X029570Y013314D02*
X029548Y013314D01*
X029541Y013473D02*
X029577Y013473D01*
X029520Y013631D02*
X029658Y013631D01*
X029520Y013790D02*
X031350Y013790D01*
X031350Y013948D02*
X029520Y013948D01*
X029520Y014107D02*
X031350Y014107D01*
X031350Y014265D02*
X029520Y014265D01*
X029520Y014424D02*
X031350Y014424D01*
X031350Y014582D02*
X029990Y014582D01*
X030076Y014741D02*
X030166Y014741D01*
X030171Y014732D02*
X030204Y014698D01*
X030245Y014675D01*
X030291Y014663D01*
X030709Y014663D01*
X031126Y014663D01*
X031172Y014675D01*
X031213Y014698D01*
X031246Y014732D01*
X031270Y014773D01*
X031282Y014819D01*
X031282Y015000D01*
X030709Y015000D01*
X031282Y015000D01*
X031282Y015181D01*
X031270Y015227D01*
X031246Y015268D01*
X031213Y015302D01*
X031172Y015325D01*
X031126Y015337D01*
X030709Y015337D01*
X030709Y015000D01*
X030709Y015000D01*
X030709Y015000D01*
X030709Y014663D01*
X030709Y015000D01*
X030709Y015000D01*
X030709Y015337D01*
X030291Y015337D01*
X030245Y015325D01*
X030204Y015302D01*
X030171Y015268D01*
X030147Y015227D01*
X030135Y015181D01*
X030135Y015000D01*
X030709Y015000D01*
X030135Y015000D01*
X030135Y014819D01*
X030147Y014773D01*
X030171Y014732D01*
X030135Y014899D02*
X030085Y014899D01*
X030085Y015058D02*
X030135Y015058D01*
X030144Y015216D02*
X030085Y015216D01*
X030028Y015375D02*
X031206Y015375D01*
X031273Y015216D02*
X031350Y015216D01*
X031350Y015058D02*
X031282Y015058D01*
X031282Y014899D02*
X031350Y014899D01*
X031350Y014741D02*
X031251Y014741D01*
X030709Y014741D02*
X030709Y014741D01*
X030709Y014899D02*
X030709Y014899D01*
X030709Y015000D02*
X030709Y015000D01*
X030709Y015058D02*
X030709Y015058D01*
X030709Y015216D02*
X030709Y015216D01*
X031048Y015533D02*
X029824Y015533D01*
X029527Y015692D02*
X030889Y015692D01*
X030731Y015850D02*
X029527Y015850D01*
X029519Y016009D02*
X030572Y016009D01*
X030434Y016167D02*
X029447Y016167D01*
X029158Y016326D02*
X030369Y016326D01*
X026017Y014107D02*
X025386Y014107D01*
X025171Y013948D02*
X026100Y013948D01*
X026230Y013790D02*
X025225Y013790D01*
X025224Y013631D02*
X026230Y013631D01*
X026230Y013473D02*
X024428Y013473D01*
X024278Y013622D02*
X023945Y013955D01*
X023945Y014065D01*
X024153Y014065D01*
X024228Y013990D01*
X024275Y013970D01*
X024275Y013963D01*
X024292Y013963D01*
X024375Y013929D01*
X024702Y013929D01*
X024702Y013867D01*
X024275Y013867D01*
X024275Y013636D01*
X024278Y013622D01*
X024276Y013631D02*
X024270Y013631D01*
X024275Y013790D02*
X024111Y013790D01*
X023953Y013948D02*
X024329Y013948D01*
X024702Y013790D02*
X024798Y013790D01*
X024750Y013915D02*
X024835Y014000D01*
X024798Y013631D02*
X024702Y013631D01*
X024587Y013314D02*
X026264Y013314D01*
X026359Y013156D02*
X024745Y013156D01*
X023250Y014585D02*
X023165Y014500D01*
X022000Y014500D01*
X021750Y014250D01*
X021750Y013742D01*
X022065Y015058D02*
X022612Y015058D01*
X022816Y015216D02*
X022065Y015216D01*
X023684Y015216D02*
X024316Y015216D01*
X020592Y006340D02*
X020184Y006340D01*
X012810Y006023D02*
X032940Y006023D01*
X032940Y005865D02*
X012810Y005865D01*
D25*
X030228Y012591D02*
X030898Y012591D01*
X031591Y012591D01*
X032000Y013000D01*
X032000Y015500D01*
X031000Y016500D01*
X031000Y017709D01*
X030709Y018000D01*
X030709Y018291D01*
X030000Y019000D01*
X028500Y019000D01*
X028000Y019500D01*
D26*
X002040Y012796D02*
X002040Y005470D01*
X011040Y005470D01*
X011040Y012796D01*
X010485Y012796D01*
X010386Y012896D01*
X010386Y020044D01*
X010485Y020144D01*
X011040Y020144D01*
X011040Y020970D01*
X010214Y020970D01*
X010214Y020415D01*
X010114Y020316D01*
X002966Y020316D01*
X002866Y020415D01*
X002866Y020970D01*
X002040Y020970D01*
X002040Y020144D01*
X002595Y020144D01*
X002694Y020044D01*
X002694Y012896D01*
X002595Y012796D01*
X002040Y012796D01*
X002040Y012707D02*
X011040Y012707D01*
X011040Y012608D02*
X010131Y012608D01*
X010114Y012624D02*
X002966Y012624D01*
X002866Y012525D01*
X002866Y011911D01*
X002966Y011812D01*
X004070Y011812D01*
X004070Y010311D01*
X003449Y009690D01*
X003320Y009561D01*
X003320Y007875D01*
X003223Y007835D01*
X003065Y007677D01*
X002980Y007471D01*
X002980Y006469D01*
X003065Y006263D01*
X003223Y006105D01*
X003429Y006020D01*
X003651Y006020D01*
X003857Y006105D01*
X004015Y006263D01*
X004100Y006469D01*
X004100Y007471D01*
X004015Y007677D01*
X003857Y007835D01*
X003760Y007875D01*
X003760Y009379D01*
X004510Y010129D01*
X004510Y011812D01*
X004640Y011812D01*
X004640Y010379D01*
X004820Y010199D01*
X004820Y007875D01*
X004723Y007835D01*
X004565Y007677D01*
X004480Y007471D01*
X004480Y006469D01*
X004565Y006263D01*
X004723Y006105D01*
X004929Y006020D01*
X005151Y006020D01*
X005357Y006105D01*
X005515Y006263D01*
X005600Y006469D01*
X005600Y007471D01*
X005515Y007677D01*
X005357Y007835D01*
X005260Y007875D01*
X005260Y010381D01*
X005131Y010510D01*
X005080Y010561D01*
X005080Y011089D01*
X006320Y009849D01*
X006320Y007875D01*
X006223Y007835D01*
X006065Y007677D01*
X005980Y007471D01*
X005980Y006469D01*
X006065Y006263D01*
X006223Y006105D01*
X006429Y006020D01*
X006651Y006020D01*
X006857Y006105D01*
X007015Y006263D01*
X007100Y006469D01*
X007100Y007471D01*
X007015Y007677D01*
X006857Y007835D01*
X006760Y007875D01*
X006760Y009859D01*
X008320Y008299D01*
X008320Y007875D01*
X008223Y007835D01*
X008065Y007677D01*
X007980Y007471D01*
X007980Y006469D01*
X008065Y006263D01*
X008223Y006105D01*
X008429Y006020D01*
X008651Y006020D01*
X008857Y006105D01*
X009015Y006263D01*
X009100Y006469D01*
X009100Y007471D01*
X009015Y007677D01*
X008857Y007835D01*
X008760Y007875D01*
X008760Y008239D01*
X009494Y007505D01*
X009480Y007471D01*
X009480Y006469D01*
X009565Y006263D01*
X009723Y006105D01*
X009929Y006020D01*
X010151Y006020D01*
X010357Y006105D01*
X010515Y006263D01*
X010600Y006469D01*
X010600Y007471D01*
X010515Y007677D01*
X010357Y007835D01*
X010151Y007920D01*
X009929Y007920D01*
X009768Y007853D01*
X005809Y011812D01*
X010114Y011812D01*
X010214Y011911D01*
X010214Y012525D01*
X010114Y012624D01*
X010214Y012510D02*
X011040Y012510D01*
X011040Y012411D02*
X010214Y012411D01*
X010214Y012313D02*
X011040Y012313D01*
X011040Y012214D02*
X010214Y012214D01*
X010214Y012116D02*
X011040Y012116D01*
X011040Y012017D02*
X010214Y012017D01*
X010214Y011919D02*
X011040Y011919D01*
X011040Y011820D02*
X010123Y011820D01*
X011040Y011722D02*
X005900Y011722D01*
X005998Y011623D02*
X011040Y011623D01*
X011040Y011525D02*
X006097Y011525D01*
X006195Y011426D02*
X011040Y011426D01*
X011040Y011328D02*
X006294Y011328D01*
X006392Y011229D02*
X011040Y011229D01*
X011040Y011131D02*
X006491Y011131D01*
X006589Y011032D02*
X011040Y011032D01*
X011040Y010934D02*
X006688Y010934D01*
X006786Y010835D02*
X011040Y010835D01*
X011040Y010737D02*
X006885Y010737D01*
X006983Y010638D02*
X011040Y010638D01*
X011040Y010540D02*
X007082Y010540D01*
X007180Y010441D02*
X011040Y010441D01*
X011040Y010343D02*
X007279Y010343D01*
X007377Y010244D02*
X011040Y010244D01*
X011040Y010146D02*
X007476Y010146D01*
X007574Y010047D02*
X011040Y010047D01*
X011040Y009949D02*
X007673Y009949D01*
X007771Y009850D02*
X011040Y009850D01*
X011040Y009752D02*
X007870Y009752D01*
X007968Y009653D02*
X011040Y009653D01*
X011040Y009555D02*
X008067Y009555D01*
X008165Y009456D02*
X011040Y009456D01*
X011040Y009358D02*
X008264Y009358D01*
X008362Y009259D02*
X011040Y009259D01*
X011040Y009161D02*
X008461Y009161D01*
X008559Y009062D02*
X011040Y009062D01*
X011040Y008964D02*
X008658Y008964D01*
X008756Y008865D02*
X011040Y008865D01*
X011040Y008767D02*
X008855Y008767D01*
X008953Y008668D02*
X011040Y008668D01*
X011040Y008570D02*
X009052Y008570D01*
X009150Y008471D02*
X011040Y008471D01*
X011040Y008373D02*
X009249Y008373D01*
X009347Y008274D02*
X011040Y008274D01*
X011040Y008176D02*
X009446Y008176D01*
X009544Y008077D02*
X011040Y008077D01*
X011040Y007979D02*
X009643Y007979D01*
X009741Y007880D02*
X009832Y007880D01*
X010248Y007880D02*
X011040Y007880D01*
X011040Y007782D02*
X010410Y007782D01*
X010509Y007683D02*
X011040Y007683D01*
X011040Y007585D02*
X010553Y007585D01*
X010594Y007486D02*
X011040Y007486D01*
X011040Y007388D02*
X010600Y007388D01*
X010600Y007289D02*
X011040Y007289D01*
X011040Y007191D02*
X010600Y007191D01*
X010600Y007092D02*
X011040Y007092D01*
X011040Y006994D02*
X010600Y006994D01*
X010600Y006895D02*
X011040Y006895D01*
X011040Y006797D02*
X010600Y006797D01*
X010600Y006698D02*
X011040Y006698D01*
X011040Y006600D02*
X010600Y006600D01*
X010600Y006501D02*
X011040Y006501D01*
X011040Y006403D02*
X010573Y006403D01*
X010532Y006304D02*
X011040Y006304D01*
X011040Y006206D02*
X010457Y006206D01*
X010359Y006107D02*
X011040Y006107D01*
X011040Y006009D02*
X002040Y006009D01*
X002040Y006107D02*
X003221Y006107D01*
X003123Y006206D02*
X002040Y006206D01*
X002040Y006304D02*
X003048Y006304D01*
X003007Y006403D02*
X002040Y006403D01*
X002040Y006501D02*
X002980Y006501D01*
X002980Y006600D02*
X002040Y006600D01*
X002040Y006698D02*
X002980Y006698D01*
X002980Y006797D02*
X002040Y006797D01*
X002040Y006895D02*
X002980Y006895D01*
X002980Y006994D02*
X002040Y006994D01*
X002040Y007092D02*
X002980Y007092D01*
X002980Y007191D02*
X002040Y007191D01*
X002040Y007289D02*
X002980Y007289D01*
X002980Y007388D02*
X002040Y007388D01*
X002040Y007486D02*
X002986Y007486D01*
X003027Y007585D02*
X002040Y007585D01*
X002040Y007683D02*
X003071Y007683D01*
X003170Y007782D02*
X002040Y007782D01*
X002040Y007880D02*
X003320Y007880D01*
X003320Y007979D02*
X002040Y007979D01*
X002040Y008077D02*
X003320Y008077D01*
X003320Y008176D02*
X002040Y008176D01*
X002040Y008274D02*
X003320Y008274D01*
X003320Y008373D02*
X002040Y008373D01*
X002040Y008471D02*
X003320Y008471D01*
X003320Y008570D02*
X002040Y008570D01*
X002040Y008668D02*
X003320Y008668D01*
X003320Y008767D02*
X002040Y008767D01*
X002040Y008865D02*
X003320Y008865D01*
X003320Y008964D02*
X002040Y008964D01*
X002040Y009062D02*
X003320Y009062D01*
X003320Y009161D02*
X002040Y009161D01*
X002040Y009259D02*
X003320Y009259D01*
X003320Y009358D02*
X002040Y009358D01*
X002040Y009456D02*
X003320Y009456D01*
X003320Y009555D02*
X002040Y009555D01*
X002040Y009653D02*
X003412Y009653D01*
X003510Y009752D02*
X002040Y009752D01*
X002040Y009850D02*
X003609Y009850D01*
X003707Y009949D02*
X002040Y009949D01*
X002040Y010047D02*
X003806Y010047D01*
X003904Y010146D02*
X002040Y010146D01*
X002040Y010244D02*
X004003Y010244D01*
X004070Y010343D02*
X002040Y010343D01*
X002040Y010441D02*
X004070Y010441D01*
X004070Y010540D02*
X002040Y010540D01*
X002040Y010638D02*
X004070Y010638D01*
X004070Y010737D02*
X002040Y010737D01*
X002040Y010835D02*
X004070Y010835D01*
X004070Y010934D02*
X002040Y010934D01*
X002040Y011032D02*
X004070Y011032D01*
X004070Y011131D02*
X002040Y011131D01*
X002040Y011229D02*
X004070Y011229D01*
X004070Y011328D02*
X002040Y011328D01*
X002040Y011426D02*
X004070Y011426D01*
X004070Y011525D02*
X002040Y011525D01*
X002040Y011623D02*
X004070Y011623D01*
X004070Y011722D02*
X002040Y011722D01*
X002040Y011820D02*
X002957Y011820D01*
X002866Y011919D02*
X002040Y011919D01*
X002040Y012017D02*
X002866Y012017D01*
X002866Y012116D02*
X002040Y012116D01*
X002040Y012214D02*
X002866Y012214D01*
X002866Y012313D02*
X002040Y012313D01*
X002040Y012411D02*
X002866Y012411D01*
X002866Y012510D02*
X002040Y012510D01*
X002040Y012608D02*
X002949Y012608D01*
X002604Y012805D02*
X010476Y012805D01*
X010386Y012904D02*
X002694Y012904D01*
X002694Y013002D02*
X010386Y013002D01*
X010386Y013101D02*
X002694Y013101D01*
X002694Y013199D02*
X010386Y013199D01*
X010386Y013298D02*
X002694Y013298D01*
X002694Y013396D02*
X010386Y013396D01*
X010386Y013495D02*
X002694Y013495D01*
X002694Y013593D02*
X010386Y013593D01*
X010386Y013692D02*
X002694Y013692D01*
X002694Y013790D02*
X010386Y013790D01*
X010386Y013889D02*
X002694Y013889D01*
X002694Y013987D02*
X010386Y013987D01*
X010386Y014086D02*
X002694Y014086D01*
X002694Y014184D02*
X010386Y014184D01*
X010386Y014283D02*
X002694Y014283D01*
X002694Y014381D02*
X010386Y014381D01*
X010386Y014480D02*
X002694Y014480D01*
X002694Y014578D02*
X010386Y014578D01*
X010386Y014677D02*
X002694Y014677D01*
X002694Y014775D02*
X010386Y014775D01*
X010386Y014874D02*
X002694Y014874D01*
X002694Y014972D02*
X010386Y014972D01*
X010386Y015071D02*
X002694Y015071D01*
X002694Y015169D02*
X010386Y015169D01*
X010386Y015268D02*
X002694Y015268D01*
X002694Y015366D02*
X010386Y015366D01*
X010386Y015465D02*
X002694Y015465D01*
X002694Y015563D02*
X010386Y015563D01*
X010386Y015662D02*
X002694Y015662D01*
X002694Y015760D02*
X010386Y015760D01*
X010386Y015859D02*
X002694Y015859D01*
X002694Y015957D02*
X010386Y015957D01*
X010386Y016056D02*
X002694Y016056D01*
X002694Y016154D02*
X010386Y016154D01*
X010386Y016253D02*
X002694Y016253D01*
X002694Y016351D02*
X010386Y016351D01*
X010386Y016450D02*
X002694Y016450D01*
X002694Y016548D02*
X010386Y016548D01*
X010386Y016647D02*
X002694Y016647D01*
X002694Y016745D02*
X010386Y016745D01*
X010386Y016844D02*
X002694Y016844D01*
X002694Y016942D02*
X010386Y016942D01*
X010386Y017041D02*
X002694Y017041D01*
X002694Y017139D02*
X010386Y017139D01*
X010386Y017238D02*
X002694Y017238D01*
X002694Y017336D02*
X010386Y017336D01*
X010386Y017435D02*
X002694Y017435D01*
X002694Y017533D02*
X010386Y017533D01*
X010386Y017632D02*
X002694Y017632D01*
X002694Y017730D02*
X010386Y017730D01*
X010386Y017829D02*
X002694Y017829D01*
X002694Y017927D02*
X010386Y017927D01*
X010386Y018026D02*
X002694Y018026D01*
X002694Y018124D02*
X010386Y018124D01*
X010386Y018223D02*
X002694Y018223D01*
X002694Y018321D02*
X010386Y018321D01*
X010386Y018420D02*
X002694Y018420D01*
X002694Y018518D02*
X010386Y018518D01*
X010386Y018617D02*
X002694Y018617D01*
X002694Y018715D02*
X010386Y018715D01*
X010386Y018814D02*
X002694Y018814D01*
X002694Y018912D02*
X010386Y018912D01*
X010386Y019011D02*
X002694Y019011D01*
X002694Y019109D02*
X010386Y019109D01*
X010386Y019208D02*
X002694Y019208D01*
X002694Y019306D02*
X010386Y019306D01*
X010386Y019405D02*
X002694Y019405D01*
X002694Y019503D02*
X010386Y019503D01*
X010386Y019602D02*
X002694Y019602D01*
X002694Y019700D02*
X010386Y019700D01*
X010386Y019799D02*
X002694Y019799D01*
X002694Y019897D02*
X010386Y019897D01*
X010386Y019996D02*
X002694Y019996D01*
X002645Y020094D02*
X010435Y020094D01*
X011040Y020193D02*
X002040Y020193D01*
X002040Y020291D02*
X011040Y020291D01*
X011040Y020390D02*
X010188Y020390D01*
X010214Y020488D02*
X011040Y020488D01*
X011040Y020587D02*
X010214Y020587D01*
X010214Y020685D02*
X011040Y020685D01*
X011040Y020784D02*
X010214Y020784D01*
X010214Y020882D02*
X011040Y020882D01*
X002892Y020390D02*
X002040Y020390D01*
X002040Y020488D02*
X002866Y020488D01*
X002866Y020587D02*
X002040Y020587D01*
X002040Y020685D02*
X002866Y020685D01*
X002866Y020784D02*
X002040Y020784D01*
X002040Y020882D02*
X002866Y020882D01*
X004276Y012218D02*
X004290Y012204D01*
X004290Y010220D01*
X003540Y009470D01*
X003540Y006970D01*
X004100Y006994D02*
X004480Y006994D01*
X004480Y007092D02*
X004100Y007092D01*
X004100Y007191D02*
X004480Y007191D01*
X004480Y007289D02*
X004100Y007289D01*
X004100Y007388D02*
X004480Y007388D01*
X004486Y007486D02*
X004094Y007486D01*
X004053Y007585D02*
X004527Y007585D01*
X004571Y007683D02*
X004009Y007683D01*
X003910Y007782D02*
X004670Y007782D01*
X004820Y007880D02*
X003760Y007880D01*
X003760Y007979D02*
X004820Y007979D01*
X004820Y008077D02*
X003760Y008077D01*
X003760Y008176D02*
X004820Y008176D01*
X004820Y008274D02*
X003760Y008274D01*
X003760Y008373D02*
X004820Y008373D01*
X004820Y008471D02*
X003760Y008471D01*
X003760Y008570D02*
X004820Y008570D01*
X004820Y008668D02*
X003760Y008668D01*
X003760Y008767D02*
X004820Y008767D01*
X004820Y008865D02*
X003760Y008865D01*
X003760Y008964D02*
X004820Y008964D01*
X004820Y009062D02*
X003760Y009062D01*
X003760Y009161D02*
X004820Y009161D01*
X004820Y009259D02*
X003760Y009259D01*
X003760Y009358D02*
X004820Y009358D01*
X004820Y009456D02*
X003837Y009456D01*
X003936Y009555D02*
X004820Y009555D01*
X004820Y009653D02*
X004034Y009653D01*
X004133Y009752D02*
X004820Y009752D01*
X004820Y009850D02*
X004231Y009850D01*
X004330Y009949D02*
X004820Y009949D01*
X004820Y010047D02*
X004428Y010047D01*
X004510Y010146D02*
X004820Y010146D01*
X004775Y010244D02*
X004510Y010244D01*
X004510Y010343D02*
X004676Y010343D01*
X004640Y010441D02*
X004510Y010441D01*
X004510Y010540D02*
X004640Y010540D01*
X004640Y010638D02*
X004510Y010638D01*
X004510Y010737D02*
X004640Y010737D01*
X004640Y010835D02*
X004510Y010835D01*
X004510Y010934D02*
X004640Y010934D01*
X004640Y011032D02*
X004510Y011032D01*
X004510Y011131D02*
X004640Y011131D01*
X004640Y011229D02*
X004510Y011229D01*
X004510Y011328D02*
X004640Y011328D01*
X004640Y011426D02*
X004510Y011426D01*
X004510Y011525D02*
X004640Y011525D01*
X004640Y011623D02*
X004510Y011623D01*
X004510Y011722D02*
X004640Y011722D01*
X005070Y011410D02*
X006540Y009940D01*
X006540Y006970D01*
X005980Y006994D02*
X005600Y006994D01*
X005600Y007092D02*
X005980Y007092D01*
X005980Y007191D02*
X005600Y007191D01*
X005600Y007289D02*
X005980Y007289D01*
X005980Y007388D02*
X005600Y007388D01*
X005594Y007486D02*
X005986Y007486D01*
X006027Y007585D02*
X005553Y007585D01*
X005509Y007683D02*
X006071Y007683D01*
X006170Y007782D02*
X005410Y007782D01*
X005260Y007880D02*
X006320Y007880D01*
X006320Y007979D02*
X005260Y007979D01*
X005260Y008077D02*
X006320Y008077D01*
X006320Y008176D02*
X005260Y008176D01*
X005260Y008274D02*
X006320Y008274D01*
X006320Y008373D02*
X005260Y008373D01*
X005260Y008471D02*
X006320Y008471D01*
X006320Y008570D02*
X005260Y008570D01*
X005260Y008668D02*
X006320Y008668D01*
X006320Y008767D02*
X005260Y008767D01*
X005260Y008865D02*
X006320Y008865D01*
X006320Y008964D02*
X005260Y008964D01*
X005260Y009062D02*
X006320Y009062D01*
X006320Y009161D02*
X005260Y009161D01*
X005260Y009259D02*
X006320Y009259D01*
X006320Y009358D02*
X005260Y009358D01*
X005260Y009456D02*
X006320Y009456D01*
X006320Y009555D02*
X005260Y009555D01*
X005260Y009653D02*
X006320Y009653D01*
X006320Y009752D02*
X005260Y009752D01*
X005260Y009850D02*
X006319Y009850D01*
X006220Y009949D02*
X005260Y009949D01*
X005260Y010047D02*
X006122Y010047D01*
X006023Y010146D02*
X005260Y010146D01*
X005260Y010244D02*
X005925Y010244D01*
X005826Y010343D02*
X005260Y010343D01*
X005200Y010441D02*
X005728Y010441D01*
X005629Y010540D02*
X005102Y010540D01*
X005080Y010638D02*
X005531Y010638D01*
X005432Y010737D02*
X005080Y010737D01*
X005080Y010835D02*
X005334Y010835D01*
X005235Y010934D02*
X005080Y010934D01*
X005080Y011032D02*
X005137Y011032D01*
X005070Y011410D02*
X005070Y012212D01*
X005064Y012218D01*
X005260Y012218D02*
X005270Y012209D01*
X005270Y011660D01*
X008540Y008390D01*
X008540Y006970D01*
X009100Y006994D02*
X009480Y006994D01*
X009480Y007092D02*
X009100Y007092D01*
X009100Y007191D02*
X009480Y007191D01*
X009480Y007289D02*
X009100Y007289D01*
X009100Y007388D02*
X009480Y007388D01*
X009486Y007486D02*
X009094Y007486D01*
X009053Y007585D02*
X009414Y007585D01*
X009316Y007683D02*
X009009Y007683D01*
X008910Y007782D02*
X009217Y007782D01*
X009119Y007880D02*
X008760Y007880D01*
X008760Y007979D02*
X009020Y007979D01*
X008922Y008077D02*
X008760Y008077D01*
X008760Y008176D02*
X008823Y008176D01*
X008320Y008176D02*
X006760Y008176D01*
X006760Y008274D02*
X008320Y008274D01*
X008246Y008373D02*
X006760Y008373D01*
X006760Y008471D02*
X008148Y008471D01*
X008049Y008570D02*
X006760Y008570D01*
X006760Y008668D02*
X007951Y008668D01*
X007852Y008767D02*
X006760Y008767D01*
X006760Y008865D02*
X007754Y008865D01*
X007655Y008964D02*
X006760Y008964D01*
X006760Y009062D02*
X007557Y009062D01*
X007458Y009161D02*
X006760Y009161D01*
X006760Y009259D02*
X007360Y009259D01*
X007261Y009358D02*
X006760Y009358D01*
X006760Y009456D02*
X007163Y009456D01*
X007064Y009555D02*
X006760Y009555D01*
X006760Y009653D02*
X006966Y009653D01*
X006867Y009752D02*
X006760Y009752D01*
X006760Y009850D02*
X006769Y009850D01*
X005040Y010290D02*
X005040Y006970D01*
X005600Y006895D02*
X005980Y006895D01*
X005980Y006797D02*
X005600Y006797D01*
X005600Y006698D02*
X005980Y006698D01*
X005980Y006600D02*
X005600Y006600D01*
X005600Y006501D02*
X005980Y006501D01*
X006007Y006403D02*
X005573Y006403D01*
X005532Y006304D02*
X006048Y006304D01*
X006123Y006206D02*
X005457Y006206D01*
X005359Y006107D02*
X006221Y006107D01*
X006859Y006107D02*
X008221Y006107D01*
X008123Y006206D02*
X006957Y006206D01*
X007032Y006304D02*
X008048Y006304D01*
X008007Y006403D02*
X007073Y006403D01*
X007100Y006501D02*
X007980Y006501D01*
X007980Y006600D02*
X007100Y006600D01*
X007100Y006698D02*
X007980Y006698D01*
X007980Y006797D02*
X007100Y006797D01*
X007100Y006895D02*
X007980Y006895D01*
X007980Y006994D02*
X007100Y006994D01*
X007100Y007092D02*
X007980Y007092D01*
X007980Y007191D02*
X007100Y007191D01*
X007100Y007289D02*
X007980Y007289D01*
X007980Y007388D02*
X007100Y007388D01*
X007094Y007486D02*
X007986Y007486D01*
X008027Y007585D02*
X007053Y007585D01*
X007009Y007683D02*
X008071Y007683D01*
X008170Y007782D02*
X006910Y007782D01*
X006760Y007880D02*
X008320Y007880D01*
X008320Y007979D02*
X006760Y007979D01*
X006760Y008077D02*
X008320Y008077D01*
X010040Y007270D02*
X010040Y006970D01*
X009480Y006895D02*
X009100Y006895D01*
X009100Y006797D02*
X009480Y006797D01*
X009480Y006698D02*
X009100Y006698D01*
X009100Y006600D02*
X009480Y006600D01*
X009480Y006501D02*
X009100Y006501D01*
X009073Y006403D02*
X009507Y006403D01*
X009548Y006304D02*
X009032Y006304D01*
X008957Y006206D02*
X009623Y006206D01*
X009721Y006107D02*
X008859Y006107D01*
X011040Y005910D02*
X002040Y005910D01*
X002040Y005812D02*
X011040Y005812D01*
X011040Y005713D02*
X002040Y005713D01*
X002040Y005615D02*
X011040Y005615D01*
X011040Y005516D02*
X002040Y005516D01*
X003859Y006107D02*
X004721Y006107D01*
X004623Y006206D02*
X003957Y006206D01*
X004032Y006304D02*
X004548Y006304D01*
X004507Y006403D02*
X004073Y006403D01*
X004100Y006501D02*
X004480Y006501D01*
X004480Y006600D02*
X004100Y006600D01*
X004100Y006698D02*
X004480Y006698D01*
X004480Y006797D02*
X004100Y006797D01*
X004100Y006895D02*
X004480Y006895D01*
X005470Y011840D02*
X010040Y007270D01*
X005040Y010290D02*
X004860Y010470D01*
X004860Y012211D01*
X004867Y012218D01*
X005457Y012218D02*
X005470Y012205D01*
X005470Y011840D01*
M02*
