<?xml version="1.0" encoding="UTF-8" standalone="no"?>
<!-- Created with Inkscape (http://www.inkscape.org/) -->

<svg
   xmlns:dc="http://purl.org/dc/elements/1.1/"
   xmlns:cc="http://creativecommons.org/ns#"
   xmlns:rdf="http://www.w3.org/1999/02/22-rdf-syntax-ns#"
   xmlns:svg="http://www.w3.org/2000/svg"
   xmlns="http://www.w3.org/2000/svg"
   xmlns:sodipodi="http://sodipodi.sourceforge.net/DTD/sodipodi-0.dtd"
   xmlns:inkscape="http://www.inkscape.org/namespaces/inkscape"
   width="1350"
   height="2250"
   id="svg2"
   version="1.1"
   inkscape:version="0.48.5 r10040"
   sodipodi:docname="New document 1">
  <defs
     id="defs4" />
  <sodipodi:namedview
     id="base"
     pagecolor="#ffffff"
     bordercolor="#666666"
     borderopacity="1.0"
     inkscape:pageopacity="0.0"
     inkscape:pageshadow="2"
     inkscape:zoom="0.24266667"
     inkscape:cx="675"
     inkscape:cy="1125"
     inkscape:document-units="px"
     inkscape:current-layer="layer1"
     showgrid="false"
     units="in"
     inkscape:window-width="1280"
     inkscape:window-height="752"
     inkscape:window-x="0"
     inkscape:window-y="0"
     inkscape:window-maximized="1" />
  <metadata
     id="metadata7">
    <rdf:RDF>
      <cc:Work
         rdf:about="">
        <dc:format>image/svg+xml</dc:format>
        <dc:type
           rdf:resource="http://purl.org/dc/dcmitype/StillImage" />
        <dc:title></dc:title>
      </cc:Work>
    </rdf:RDF>
  </metadata>
  <g
     inkscape:label="Layer 1"
     inkscape:groupmode="layer"
     id="layer1"
     transform="translate(0,1197.6403)">
    <g
       id="g3905">
      <path
         inkscape:connector-curvature="0"
         id="path3066"
         d="m 127.81109,-270.68478 0,1.37247 c 0.93737,-0.4554 1.86918,-0.91941 2.81323,-1.37247 l -2.81323,0 z m 1078.42521,0 c 0.1949,0.0939 0.3883,0.18042 0.5831,0.2745 l 0,-0.2745 -0.5831,0 z m -979.31054,7.17108 c -15.53597,0.0812 -31.61863,4.42364 -45.14882,12.35212 -23.673,13.87203 -38.45925,33.49498 -44.15387,58.53523 -2.23291,9.81837 -2.32519,30.38536 -0.17153,40.62468 6.10707,29.03491 22.53664,57.499299 55.02938,95.316999 18.66768,21.727003 26.85781,34.927522 30.6024,49.3054576 2.12866,8.17357296 2.12932,12.005591 -0.0341,18.3565884 -2.01776,5.922451 -9.26045,13.151052 -16.29609,16.263597 -11.38191,5.035307 -26.80062,3.332075 -36.46901,-4.048736 -2.65788,-2.029074 -5.49018,-3.705636 -6.31258,-3.705636 -1.72636,0 -20.44733,42.033109 -20.44733,45.908632 0,1.933546 1.17865,2.998991 5.21474,4.734974 7.66044,3.294855 22.77488,7.394145 31.56301,8.577837 11.61024,1.563817 28.17886,0.513382 40.34572,-2.573357 35.56242,-9.022124 53.5422,-32.34409 53.79433,-69.8236564 0.16694,-24.8190986 -4.24938,-38.9506786 -22.71165,-72.9803056 -15.1786,-27.977255 -20.86274,-40.682484 -24.32407,-54.246294 -3.05248,-11.96174 -3.2533,-17.06214 -0.99491,-25.73354 3.77449,-14.49293 11.35608,-23.50686 22.43715,-26.72859 7.67836,-2.23238 20.78922,-1.46817 31.21992,1.81853 5.5956,1.76316 7.86436,2.04974 8.78276,1.13229 0.85971,-0.85889 1.3514,-13.11908 1.57813,-40.11002 l 0.30873,-38.87481 -4.35709,-2.23025 c -10.06996,-5.13789 -32.73127,-10.14543 -52.83368,-11.66587 -2.18809,-0.1655 -4.40197,-0.21746 -6.62137,-0.20587 z m 959.17184,44.74207 c -6.7097,-0.008 -53.9896,7.89846 -55.4068,9.26408 -1.4957,1.44136 -63.8808,248.328906 -63.8808,252.806254 0,2.108059 0.5813,2.539045 3.2937,2.539045 4.2519,0 28.6838,-5.162688 29.7101,-6.27899 0.4313,-0.469066 2.8769,-7.527917 5.4207,-15.680301 2.5436,-8.15238 4.7523,-14.9673434 4.906,-15.1313154 0.3239,-0.345262 17.3444,-2.358698 28.338,-3.499767 l 0,-35.4436536 c -1.0825,0.204461 -2.3588,0.384901 -3.8766,0.686225 -4.9816,0.988928 -9.388,1.784657 -9.8121,1.784196 -0.4239,-4.8e-4 -0.1594,-2.099859 0.6178,-4.666355 10.4299,-34.450537 13.6782,-44.755869 14.615,-44.947909 0.2623,-0.0538 0.3356,0.69703 0.343,1.92143 0.01,1.17757 0.7504,10.032657 1.6468,19.694739 1.5297,16.494888 2.4091,21.805179 0.3772,23.949347 l 0,36.6102516 c 3.043,-0.291996 5.1907,-0.470025 5.2834,-0.377431 0.2075,0.207571 0.9714,6.9103894 1.681,14.8911424 0.7097,7.980741 1.832,15.275058 2.5044,16.194969 1.0945,1.496843 3.6289,1.469462 24.2213,-0.171549 16.9548,-1.351129 23.3394,-2.236923 24.2556,-3.396832 0.7507,-0.950742 1.0678,-4.281926 0.789,-8.40629 -0.2541,-3.755935 -2.6369,-55.742269 -5.3176,-115.526427 -2.6811,-59.784139 -5.1886,-112.774629 -5.558,-117.756649 l -0.686,-9.05821 -3.4651,0 z m -348.18779,21.41029 0.30877,43.91858 c 0.18446,25.53268 0.77108,44.3123 1.37229,44.91359 1.09585,1.09598 17.87818,1.05981 32.07761,-0.0686 7.69677,-0.61166 8.50829,-0.47484 8.50829,1.30383 0,1.08143 -12.59547,47.708107 -27.99501,103.6203806 C 836.78225,52.238702 824.18457,99.080465 824.18678,100.42719 c 0.004,2.44581 0.0264,2.46021 23.32915,2.7792 66.6273,0.91208 79.43836,0.82654 81.27472,-0.54898 2.42448,-1.81605 12.49776,-49.947573 10.80689,-51.638634 -0.77283,-0.77288 -8.3498,-0.800188 -23.9467,-0.06861 -12.55757,0.588999 -23.26727,0.739741 -23.77518,0.308802 -0.50791,-0.430927 5.8468,-20.713254 14.10043,-45.0851574 66.65735,-196.8302606 66.02855,-195.0052206 64.46395,-196.5699806 -1.277,-1.27711 -72.06314,-5.18357 -118.8072,-6.55348 l -13.72303,-0.41173 z m -284.27277,6.0388 c -4.40991,0 -59.30209,13.19521 -60.65586,14.58234 -0.91295,0.93545 -1.81183,19.38796 -3.12198,62.82414 -1.02,33.817309 -2.26831,61.895945 -2.74461,62.412408 -1.11123,1.204978 -18.75561,5.363228 -19.52103,4.59773 -0.31755,-0.317603 0.68766,-28.129969 2.23,-61.794798 2.28021,-49.77061 2.5491,-61.47366 1.40662,-62.68691 -1.17735,-1.25025 -6.72128,-0.15786 -34.10176,6.79368 -17.97158,4.56272 -33.07987,8.92311 -33.58714,9.71011 -0.50725,0.78699 -0.65605,3.4174 -0.34308,5.83294 0.31297,2.41551 5.0209,54.756629 10.46381,116.315576 5.64834,63.882101 10.39961,112.543252 11.08135,113.364829 0.65698,0.79168 1.50802,1.450941 1.88694,1.44105 2.82362,-0.07159 32.69905,-9.063163 33.75867,-10.156158 0.93418,-0.963617 1.7286,-11.061138 2.57306,-33.213424 0.66761,-17.512524 1.47058,-34.3322414 1.78401,-37.3994024 l 0.54892,-5.592757 7.92506,-1.85281 c 4.34709,-1.025517 9.07856,-2.192548 10.53243,-2.573355 l 2.64168,-0.686235 -0.72045,24.0522814 c -0.40575,13.229745 -1.0607,31.513468 -1.44093,40.624684 -0.60672,14.538763 -0.46817,16.636477 1.06353,17.224314 0.95991,0.368394 8.79932,-1.240829 17.42827,-3.602698 14.95181,-4.092525 18.45749,-5.908931 18.45749,-9.435633 0,-0.726039 3.44773,-24.722181 7.65059,-53.3198814 4.20285,-28.5977126 12.391,-84.2147916 18.18302,-123.6239206 5.79205,-39.40912 10.2158,-72.14218 9.8463,-72.74012 -0.36951,-0.59796 -1.82697,-1.09798 -3.22491,-1.09798 z m 194.21531,1.95576 c -7.85954,-0.32681 -61.30617,6.58652 -63.6406,8.4063 -0.81533,0.63556 -7.45024,23.86258 -14.75226,51.6043 -7.30201,27.74172 -13.44469,50.605399 -13.65443,50.815149 -0.20973,0.20976 -5.93412,-19.27469 -12.69381,-43.300949 -6.75967,-24.02629 -12.64518,-44.9136 -13.1055,-46.42332 -0.58546,-1.92007 -1.77722,-2.83715 -3.91107,-3.088 -4.13023,-0.48555 -55.54038,6.30987 -58.11707,7.68576 -1.76944,0.9448 -1.93038,1.95435 -1.33799,7.30832 0.65354,5.90669 8.34004,92.074027 16.60488,185.7275 2.10502,23.853273 4.08295,43.987199 4.35705,44.742049 0.65513,1.804344 3.31382,1.686222 16.39902,-0.75485 11.59708,-2.163469 13.81045,-3.568404 13.79167,-8.783718 -0.0221,-6.187683 3.48993,-63.3845734 4.0483,-65.9464804 0.41403,-1.899648 3.27753,6.55297 9.29736,27.4491024 4.78411,16.606711 9.13706,31.30571 9.70905,32.664443 0.99903,2.373146 1.57307,2.470423 14.64934,2.470423 9.57945,0 13.95478,-0.406599 14.71797,-1.372462 0.59645,-0.75485 5.69768,-17.376612 11.35581,-36.953355 8.40792,-29.0908964 10.45638,-35.008697 11.11566,-32.3899434 0.44366,1.762266 1.98885,20.8449374 3.46507,42.4088684 1.47622,21.563928 3.00796,39.721506 3.39646,40.350187 0.41665,0.67423 5.43832,1.132276 12.21349,1.132276 10.89379,0 11.53872,-0.127402 12.45366,-2.470423 0.5306,-1.358733 1.91936,-13.093222 3.122,-26.076648 1.20266,-12.98343 6.81901,-70.894766 12.45366,-128.70201 7.55284,-77.486219 9.92808,-105.425709 9.0229,-106.330949 -0.09,-0.0898 -0.43665,-0.14978 -0.96062,-0.17157 z m 230.68429,32.83598 c -1.5904,-0.005 -2.8393,0.0111 -3.7395,0.0342 -0.9602,0.0252 -1.5168,0.076 -1.5782,0.13728 -1.1586,1.1588 0.3704,75.306489 1.5782,76.514369 0.6135,0.61361 32.90706,0.75459 38.76736,0.17155 1.3647,-0.13573 2.1429,0.41771 2.0587,1.44109 -0.072,0.90582 -12.5693,40.61322 -27.78906,88.248876 -15.2201,47.63564 -27.7551,87.9035 -27.8579,89.4841 l -0.2058,2.882125 18.6633,0.61761 c 35.20926,1.15319 86.16586,0.63277 87.10686,-0.89207 0.4694,-0.76033 3.0189,-10.793682 5.6609,-22.268103 3.4974,-15.189954 4.4825,-21.181647 3.6023,-22.062213 -0.8645,-0.864634 -7.8332,-0.950883 -24.4613,-0.274501 -12.7921,0.520355 -23.3999,0.713687 -23.5693,0.411741 -0.1693,-0.301936 6.559,-18.088959 14.958,-39.526707 49.5637,-126.504827 64.6013,-165.546107 64.6013,-167.714047 0,-1.64196 -0.8001,-2.5875 -2.4701,-2.91647 -5.3781,-1.05916 -101.47,-4.21033 -125.32576,-4.28892 z m -189.13778,16.77827 c -4.60619,0.0279 -9.04492,0.86136 -12.59089,2.50473 -7.66284,3.55131 -15.5213,10.64813 -18.38887,16.57241 -2.68034,5.53744 -3.08265,15.41632 -0.82339,20.792689 2.9204,6.94961 14.9515,15.90075 24.59855,18.32227 6.81561,1.71081 19.97171,0.71654 24.97594,-1.88712 13.22516,-6.88093 21.1184,-23.945729 16.57058,-35.855389 -2.21889,-5.81071 -9.19416,-12.53066 -17.29105,-16.67535 -4.91793,-2.51737 -11.12863,-3.80988 -17.05087,-3.77424 z m -415.32781,3.94582 c -11.70818,0.0501 -19.04186,1.76449 -30.19068,7.10244 -10.48092,5.01818 -20.35886,13.14407 -28.44101,23.40037 -6.78363,8.608489 -16.85973,27.574199 -20.24148,38.051324 -11.05852,34.260605 -9.2984,79.941761 4.15122,107.051523 9.02429,18.189819 22.33791,30.242424 39.59098,35.821084 11.80022,3.81551 27.23728,2.224857 39.62525,-4.048754 4.848,-2.455142 5.09254,-2.782869 5.7637,-8.371967 1.33944,-11.154286 0.8638,-27.247642 -0.82338,-27.89516 -0.84749,-0.325242 -4.83903,0.431239 -8.88568,1.681263 -13.68471,4.227241 -24.7212,2.655391 -33.03823,-4.666355 -11.71073,-10.30933 -16.43256,-30.6559044 -11.97334,-51.707252 3.62806,-17.127582 11.2034,-27.285272 25.73069,-34.482945 7.65779,-3.79412 8.89652,-4.059248 20.31012,-4.426168 6.68519,-0.214898 12.6164,-0.842533 13.20841,-1.406766 1.42082,-1.354147 4.93317,-70.119357 3.70522,-72.568567 -1.24354,-2.4803 -7.10478,-3.5827 -18.49179,-3.53407 z m 439.82344,65.809226 c -11.17325,-0.0215 -53.68691,2.383346 -56.98494,3.396822 -1.82342,0.560352 -1.89469,2.557816 -1.23506,32.081151 0.64717,28.9647006 0.48734,34.07566456 -2.26429,63.716232 -2.06272,22.219478 -2.67103,32.566484 -1.88693,33.350674 0.6306,0.630666 12.31644,1.756725 26.21101,2.504727 35.1843,1.894099 39.84051,1.916 40.00266,0.27449 0.63205,-6.397764 -0.47265,-134.449449 -1.16646,-135.152543 -0.11174,-0.113235 -1.07983,-0.168481 -2.67599,-0.171553 z"
         style="fill:none;stroke:#ff0000;stroke-width:1;stroke-opacity:1" />
      <path
         inkscape:connector-curvature="0"
         id="path3863"
         d="m 848.07853,119.98475 c -3.6558,0.0103 -7.04819,0.82324 -22.5625,4.75 -10.834,2.74221 -21.02418,5.1979 -22.625,5.4375 -1.60091,0.23962 -2.90625,0.48497 -2.90625,0.5625 5e-5,0.0777 0.55772,2.26388 1.21875,4.84375 0.66105,2.57988 1.38195,6.69456 1.625,9.15625 l 0.46875,4.46875 2.40625,-0.40625 c 3.04485,-0.51346 5.12866,0.74564 6.03125,3.59375 2.47474,7.80855 6.13697,82.9139 4.5,92.28125 -1.07638,6.15895 -3.74584,11.48125 -7.5625,14.90625 l -3.1875,2.84375 0.96875,2.96875 c 2.07022,6.29907 4.2943,16.82179 4.375,20.84375 0.0648,3.22174 0.27008,4.14793 0.90625,3.90625 0.45685,-0.17357 1.30276,-0.34824 1.875,-0.375 0.64417,-0.0305 0.73098,-0.14995 0.25,-0.34375 -0.42729,-0.17225 0.89065,-1.15094 2.90625,-2.15625 6.94113,-3.46191 11.55718,-10.08104 14.5,-20.78125 1.20122,-4.36794 1.38545,-6.83946 1.5625,-20.1875 0.11127,-8.3702 0.44958,-15.48136 0.75,-15.78125 0.37894,-0.37817 1.76034,-0.20968 3.5,0.28125 l 0,-15.46875 c -2.14132,0.57035 -3.95348,1.03125 -4.125,1.03125 -1.28054,0 -1.83267,-3.61022 -3.59375,-22.71875 -1.07284,-11.641 -2.68195,-27.60499 -3.5625,-35.46875 l -1.59375,-14.28125 1.46875,-1.21875 c 2.11917,-1.74813 9.80819,-5.19151 14,-6.28125 2.17843,-0.56632 4.2432,-0.89025 6.1875,-0.90625 8.42503,-0.069 14.78444,5.11341 20.15625,16.15625 4.16379,8.55981 6.32591,16.168 6.75,23.625 0.41401,7.2818 -0.41328,12.04584 -3.125,17.75 -2.48907,5.23522 -6.11929,9.00366 -13.125,13.65625 -4.93619,3.27821 -8.7366,5.23971 -13.375,6.84375 l 0,19.84375 c 8.30368,4.8624 15.16345,18.33153 17.28125,34.0625 0.34552,2.56785 0.80882,6.84632 1.03125,9.53125 0.3833,4.61299 0.47913,4.87153 1.75,4.53125 0.73965,-0.19801 7.03765,-0.36879 14.03125,-0.375 l 12.75,0 -0.40625,-3.4375 c -0.37906,-3.21904 0.3926,-13.40026 1.1875,-15.46875 0.30898,-0.80354 -0.30313,-0.86037 -4.25,-0.5625 -4.54564,0.34314 -4.6383,0.29229 -6.96875,-1.75 -1.77792,-1.55799 -3.56898,-4.59046 -7.25,-12.25 -5.64684,-11.74984 -9.43797,-17.3769 -13.75,-20.46875 -3.55847,-2.55191 -3.87492,-4.10018 -1.09375,-5.25 1.07545,-0.44474 4.17255,-2.12859 6.875,-3.75 20.94875,-12.56665 28.54577,-28.83546 25.40625,-54.40625 -2.00388,-16.32349 -9.43206,-29.84987 -20.5625,-37.40625 -6.10918,-4.14728 -11.21872,-5.88121 -18.34375,-6.28125 -1.0201,-0.0571 -1.90628,-0.0958 -2.75,-0.0937 z m -394.375,9.6875 c -0.662,0.0864 -0.89293,1.61156 -1.1875,7.625 -0.2096,4.27979 -0.59116,8.54211 -0.84375,9.46875 -0.39924,1.46459 -0.2461,1.74244 1.15625,2.09375 2.21872,0.55583 5.19649,4.09325 6.03125,7.1875 2.76857,10.26237 3.16909,81.66086 0.53125,93.9375 -0.71593,3.3321 -2.88368,6.31211 -5.78125,7.90625 -1.06318,0.58494 -1.08765,0.92833 -0.40625,4 0.40982,1.84764 0.89924,6.78857 1.09375,11 0.29855,6.46307 0.49089,7.61524 1.28125,7.3125 2.7331,-1.04681 14.37094,-2.61621 22.875,-3.21875 l 0,-19.78125 c -0.82775,-0.14349 -1.45286,-0.35961 -1.71875,-0.625 -0.70139,-0.70005 -0.95918,-4.80996 -1.3125,-20.0625 -0.44199,-19.08151 -0.67126,-20.68194 2.90625,-20.78125 0.0365,-0.001 0.0879,7.3e-4 0.125,0 l 0,-17.3125 c -0.97752,-0.24576 -1.81344,-0.51467 -2.3125,-0.78125 -1.29361,-0.69101 -1.27959,-0.91782 -0.875,-16.0625 0.51852,-19.40977 1.39643,-30.62025 2.4375,-31.34375 0.10551,-0.0733 0.37421,-0.13653 0.75,-0.1875 l 0,-18.6875 c -10.23618,-0.31054 -18.28478,-0.83891 -24.625,-1.6875 -0.0484,-0.0103 -0.0809,-0.009 -0.125,0 z m 534.0625,0 c -0.49354,0.1277 -0.76357,1.84423 -0.9375,6.0625 -0.14151,3.42385 -0.44518,7.6863 -0.6875,9.4375 l -0.4375,3.1875 2.40625,1.15625 c 3.58685,1.74832 5.13845,5.31085 5.90625,13.6875 0.9869,10.76804 1.4568,65.03723 0.6563,76.40625 -0.7981,11.33142 -1.6981,14.08145 -5.5313,17.15625 l -2.46875,1.96875 0.8125,4.1875 c 0.44568,2.29875 0.83159,7.01635 0.84375,10.46875 0.0131,3.45236 0.18741,6.4373 0.4062,6.65625 0.2197,0.21892 0.5906,0.28134 0.8438,0.125 1.2647,-0.77993 14.77497,-2.51663 24.31247,-3.1875 l 0,-19.625 c -1.684,-0.0524 -2.5546,-0.22584 -2.875,-0.625 -0.8666,-1.079 -1.392,-9.80286 -1.5937,-26.53125 -0.1355,-11.16404 -0.035,-13.37276 0.75,-13.90625 0.3331,-0.22719 1.1224,-0.35875 2.1874,-0.40625 0.3551,-0.0158 0.7441,-0.003 1.1563,0 0.1183,9.6e-4 0.2527,-0.002 0.375,0 l 0,-17.21875 c -0.9441,-0.16311 -1.6897,-0.2992 -1.9687,-0.3125 -0.5761,-0.0273 -1.5086,-0.50984 -2.0938,-1.09375 -0.9593,-0.95758 -1.0271,-2.27584 -0.6562,-13.25 0.6132,-18.10802 1.6794,-32.58886 2.4687,-33.5625 0.3131,-0.38579 0.9419,-0.58014 2.25,-0.625 l 0,-18.40625 c -0.094,-0.003 -0.1877,0.003 -0.2813,0 -10.7172,-0.3013 -21.16907,-1.00972 -25.74992,-1.75 -0.0363,-0.009 -0.0611,-0.0103 -0.0937,0 z m -504.25,1.875 0,18.4375 c 0.29473,0.0134 0.57089,0.0136 0.875,0.0312 20.67482,1.19757 29.76136,10.40063 28.5,28.875 -0.70319,10.29779 -3.55219,15.77192 -9.9375,19.03125 -3.00488,1.53389 -4.41595,1.82901 -9.34375,2 -2.95111,0.10248 -6.74844,-0.12423 -10.09375,-0.5625 l 0,16.5625 c 10.83104,1.01014 20.93151,6.60909 23.96875,13.65625 4.21333,9.77567 -4.19649,23.19286 -16.8125,26.875 -1.9184,0.55991 -4.62155,0.88333 -7.15625,0.96875 l 0,19.34375 c 0.17379,-0.003 0.39738,-0.0305 0.5625,-0.0312 12.39698,-0.0538 22.36973,-4.84939 30.5,-14.6875 9.08627,-10.9949 12.48212,-23.63703 9.5,-35.53125 -1.87513,-7.4788 -5.80617,-12.1748 -12.65625,-15.15625 -4.10275,-1.78574 -4.0719,-2.71689 0.0625,-4.65625 1.34568,-0.63137 4.17668,-2.78709 6.3125,-4.78125 4.47232,-4.17579 8.2704,-10.83708 9.875,-17.34375 1.43343,-5.81168 1.32395,-15.35122 -0.25,-21.5 -4.06565,-15.88291 -15.27464,-27.43358 -29.46875,-30.375 -2.31714,-0.48017 -7.8785,-0.90272 -14.4375,-1.15625 z m 535.40627,0.0625 0,18.4375 c 14.0736,1.06206 22.0937,5.25446 25.9374,13.5625 1.7181,3.71126 1.8126,4.29625 1.8126,12.59375 0,6.795 -0.2785,9.4279 -1.1563,11.9375 -1.5269,4.36803 -5.2083,8.40031 -9.2813,10.15625 -3.8026,1.6396 -11.2225,2.15275 -17.3124,1.25 l 0,16.75 c 2.5989,0.31388 5.252,0.77994 7.1874,1.375 5.4176,1.66545 8.593,3.4922 11.9376,6.90625 5.0842,5.18988 6.0387,11.65047 2.6874,18.34375 -2.3566,4.70811 -8.1305,10.28221 -12.9374,12.5 -2.7411,1.2643 -4.5565,1.63441 -8.875,1.84375 l 0,19.40625 c 6.6795,-0.41182 9.485,-0.84871 12.1562,-1.84375 15.4155,-5.74278 28.3918,-23.67149 28.3438,-39.125 -0.038,-11.59211 -4.9024,-20.28127 -13.4688,-24.0625 -1.8441,-0.81386 -3.3438,-1.8898 -3.3438,-2.375 0,-0.4852 1.6034,-1.77137 3.5626,-2.875 7.8342,-4.41293 13.9349,-13.45292 16.0312,-23.75 1.183,-5.81307 1.2132,-9.92525 0.094,-16.09375 -3.3205,-18.29995 -15.6948,-31.66959 -31.5938,-34.15625 -1.6613,-0.25982 -6.4396,-0.56073 -11.7812,-0.78125 z m -78.15627,0.15625 0.40625,4.75 c 0.2203,2.60049 0.40625,6.90635 0.40625,9.59375 7e-5,4.82606 0.0201,4.875 1.59375,4.875 5.57913,0 10.46774,3.34368 11.15625,7.625 1.24055,7.7164 2.52455,32.91881 2.53125,49.65625 0.0103,20.17187 -0.70929,27.37669 -3.5625,36.6875 -3.49104,11.39212 -10.41169,18.64892 -17.78125,18.6875 -6.72186,0.0355 -11.13349,-9.24221 -13.625,-28.59375 -1.3579,-10.5443 -1.86758,-41.40786 -0.96875,-59.125 0.5909,-11.65166 0.91849,-14.42995 1.9375,-16.53125 1.36188,-2.80825 3.49742,-4.31335 7,-4.96875 l 2.34375,-0.4375 0,-5.90625 0,-5.90625 -1.71875,0.375 c -4.37504,0.90211 -20.80707,2.21875 -27.5625,2.21875 l -7.5,0 -0.125,6.21875 c -0.065,3.42385 -0.13523,6.98646 -0.15625,7.90625 -0.0338,1.3686 0.32076,1.76943 1.9375,2.1875 2.64989,0.68539 4.95004,3.55057 6.28125,7.84375 0.98173,3.16724 1.09842,6.11022 0.9375,27.84375 -0.19302,26.01406 0.41765,39.12466 2.375,49.25 3.84474,19.88437 12.3027,30.11927 26.46875,32.15625 5.84344,0.84022 10.25064,0.0493 15.59375,-2.78125 9.90655,-5.24824 9.43158,-5.03774 11.34375,-4.125 1.60929,0.76809 2.51424,2.54634 3.6875,7.1875 0.12988,0.51201 1.34015,0.15515 3.71875,-1.09375 1.9397,-1.01829 5.51949,-2.4559 7.96875,-3.1875 2.44862,-0.73149 4.5468,-1.41034 4.65625,-1.5 0.10999,-0.0896 -0.34997,-1.95378 -1.03125,-4.15625 -2.39705,-7.74524 -4.81888,-25.68018 -6.34375,-46.875 -1.11329,-15.47981 -1.53917,-54.59646 -0.65625,-60.6875 0.97379,-6.71625 2.589,-10.44936 4.875,-11.3125 1.71035,-0.64577 1.71993,-0.73959 1.78125,-6.4375 l 0.0625,-5.75 -4.125,-0.40625 c -6.75012,-0.65549 -26.29826,-3.52325 -30.25,-4.4375 l -3.65625,-0.84375 z m -533.6875,0.125 0,2.53125 c 0.002,1.40932 0.18636,5.68999 0.40625,9.5 l 0.375,6.90625 3.09375,0.375 c 3.82102,0.45171 6.63841,2.05308 8.125,4.59375 1.71739,2.93496 3.70764,30.63628 3.78125,52.46875 0.0758,22.52272 -1.62685,34.08253 -6.46875,43.65625 -4.68016,9.25385 -13.30554,14.05983 -19,10.59375 -2.15188,-1.30979 -5.31718,-6.79396 -6.8125,-11.875 -3.30948,-11.24526 -4.86263,-36.93693 -4.03125,-66.15625 0.58735,-20.64422 0.82668,-23.24241 2.46875,-25.9375 1.27745,-2.09661 5.41101,-4.38204 7.9375,-4.40625 1.39576,-0.0132 1.42544,-0.14797 1.25,-5.78125 -0.16594,-5.32676 -0.28358,-5.75804 -1.4375,-5.65625 -0.68604,0.0602 -5.5157,0.55508 -10.75,1.09375 -5.23441,0.53864 -12.9573,0.96837 -17.15625,0.96875 l -7.625,0 0,7.8125 0,7.8125 2.59375,1.15625 c 2.58954,1.15817 3.93467,2.9561 5.375,7.15625 0.39897,1.16329 0.83383,14.62478 1.09375,34.59375 0.38164,29.32491 0.54696,33.42021 1.71875,39.84375 0.71832,3.9374 1.88713,9.10333 2.625,11.5 4.08167,13.25722 11.95426,21.31482 22.78125,23.3125 7.63492,1.40875 12.57292,0.41975 19.875,-3.96875 6.14918,-3.69561 7.48513,-3.91696 9.6875,-1.71875 1.1035,1.10144 1.90776,2.7224 2.1875,4.375 0.24623,1.45493 0.65086,2.5584 0.875,2.4375 3.83466,-2.06781 10.48204,-4.83645 13.0625,-5.4375 2.65537,-0.61851 3.25292,-0.96553 2.9375,-1.78125 -4.91238,-12.70305 -8.51574,-50.04553 -8.65625,-89.75 -0.0585,-16.5959 0.0821,-20.2986 1,-24.25 1.15268,-4.96154 2.5166,-7.40714 4.71875,-8.40625 1.20758,-0.54793 1.38532,-1.1288 1.46875,-5.4375 0.0513,-2.65788 0.12195,-5.19745 0.15625,-5.625 0.0403,-0.50516 -1.36546,-0.94685 -4,-1.25 -8.23241,-0.94726 -26.61723,-3.64683 -30.09375,-4.4375 l -3.5625,-0.8125 z m 345.875,0.4375 c -3.21045,-0.002 -6.56968,0.78742 -9.96875,2.375 -28.51121,13.31683 -45.81614,56.5116 -36.28125,90.5625 4.299,15.35254 12.16156,28.81352 23.875,40.9375 6.68772,6.92219 9.91562,9.1223 16,10.875 8.16489,2.3521 15.96314,0.18085 22.40625,-6.25 1.87294,-1.86948 3.86762,-3.40625 4.40625,-3.40625 1.09825,0 1.84437,2.27356 2.90625,9 0.37834,2.3967 0.83574,5.02631 1,5.8125 l 0.28125,1.40625 1.8125,-1.28125 c 0.9967,-0.7084 3.6599,-2.15496 5.9375,-3.21875 3.86839,-1.80679 4.11586,-2.03878 3.71875,-3.5625 -3.59833,-13.80658 -3.70302,-27.21515 -0.28125,-33.71875 0.44206,-0.84018 1.7551,-2.59011 2.90625,-3.875 1.75019,-1.95371 2.09375,-2.81006 2.09375,-5.28125 0.003,-1.62536 0.26012,-4.62302 0.59375,-6.65625 0.33356,-2.03323 0.54703,-3.76689 0.46875,-3.84375 -0.078,-0.0772 -2.94472,-0.6082 -6.375,-1.1875 -8.13658,-1.37413 -18.90782,-4.48206 -30.1875,-8.71875 -4.99332,-1.87544 -9.26655,-3.40625 -9.5,-3.40625 -0.23348,0 -0.16598,1.05978 0.125,2.34375 0.29085,1.28394 0.85272,6.80309 1.25,12.28125 0.39718,5.47808 0.87478,10.17546 1.09375,10.40625 0.21897,0.23085 3.22593,0.85953 6.65625,1.4375 8.26674,1.39267 13.84114,3.16314 14.625,4.625 0.45977,0.8575 0.30387,2.32979 -0.65625,5.4375 -4.71528,15.26302 -13.51574,21.01035 -24.0625,15.75 -8.14192,-4.06085 -14.81209,-13.14521 -19.15625,-26.125 -6.55264,-19.5781 -5.17374,-42.80231 3.65625,-61.4375 5.58617,-11.78932 13.32805,-20.22564 21.0625,-22.96875 3.70434,-1.31378 6.28224,-0.6691 9.625,2.40625 6.0732,5.58756 8.34043,13.25122 8.78125,29.84375 0.27207,10.23716 0.42106,11.67256 1.3125,11.6875 0.55905,0.0103 2.9837,0.85714 5.375,1.875 2.39132,1.01784 4.52236,1.84375 4.75,1.84375 0.22766,0 0.63944,-1.59379 0.875,-3.5625 1.07756,-9.00793 5.43419,-27.3259 10.1875,-42.65625 l 2.46875,-7.96875 -1.71875,-0.875 c -0.94857,-0.48958 -3.06451,-1.91969 -4.6875,-3.15625 -1.62303,-1.23654 -2.99656,-2.14029 -3.09375,-2.03125 -0.0971,0.10898 -1.11264,2.02451 -2.21875,4.25 -3.29305,6.62628 -6.09071,8.7377 -8.78125,6.65625 -0.53918,-0.41708 -2.47582,-2.81642 -4.3125,-5.34375 -5.43008,-7.47207 -11.90586,-11.2781 -18.96875,-11.28125 z m -439.15625,0.34375 c -5.35719,0.0479 -7.49631,0.41809 -14.875,2.28125 -9.21807,2.32758 -26.52538,7.20195 -27.3125,7.6875 -0.2268,0.13988 -0.0271,1.71199 0.4375,3.46875 0.4643,1.75676 1.05123,4.6939 1.28125,6.53125 l 0.40625,3.34375 2.71875,0 c 3.44338,0 5.71783,1.86798 6.46875,5.28125 0.98895,4.49587 2.03457,45.59566 1.75,69.09375 -0.23588,19.47368 -0.44537,23.54529 -1.34375,26.3125 -1.23315,3.79853 -4.40968,7.32847 -7.1875,7.9375 l -1.9375,0.40625 0,5.09375 c -0.006,2.79746 -0.18466,6.1609 -0.40625,7.5 l -0.40625,2.46875 9.625,-0.3125 c 5.28509,-0.16722 13.25936,-0.12802 17.71875,0.0937 4.4594,0.22178 9.01016,0.4384 10.125,0.5 l 2.03125,0.125 0,-6.53125 0,-6.5 -2.375,-0.625 c -3.35224,-0.90097 -7.27006,-4.50265 -9.0625,-8.3125 -2.22755,-4.73485 -3.09995,-9.78646 -3.09375,-17.8125 0.005,-5.85872 0.18651,-7.22717 1.03125,-7.84375 0.17664,-0.1289 0.66875,-0.2672 1.3125,-0.40625 l 0,-13.875 c -0.35716,-0.0467 -0.62478,-0.14301 -0.84375,-0.28125 -0.71938,-0.45428 -0.72514,-4.32664 -0.125,-24.4375 0.77841,-26.08638 1.7335,-42.60051 2.59375,-44.21875 0.85873,-1.61547 5.15155,-2.82843 9.75,-2.90625 0.65693,-0.0111 1.33953,-0.007 2,0.0312 6.08898,0.35182 11.1584,2.88631 15.84375,7.9375 7.86769,8.482 10.64569,19.98403 8.21875,33.875 -2.95099,16.89008 -11.39865,25.47891 -28.15625,28.65625 -1.73861,0.32965 -3.05182,0.57757 -4.21875,0.78125 l 0,13.78125 c 0.34807,-0.0287 0.67694,-0.0707 1.03125,-0.0937 28.94333,-1.88355 43.52495,-14.57961 48.875,-42.5625 1.50186,-7.85489 1.37127,-20.22236 -0.28125,-26.4375 -3.75844,-14.13551 -12.44835,-23.60856 -25.96875,-28.28125 -4.42464,-1.52914 -5.90365,-1.71965 -13.09375,-1.75 -0.9221,-0.006 -1.76595,-0.0103 -2.53125,0 z m 293.90625,2.15625 c -0.33158,0.0112 -0.66348,0.0546 -1,0.0937 l 0,12.25 c 1.459,2.72764 1.23994,11.66022 -0.53125,17.28125 -2.62627,8.33467 -4.25247,7.42186 -5.28125,-2.96875 -0.6762,-6.82977 -0.46198,-10.86351 0.75,-13.34375 l 0,-11.59375 c -5.36531,2.81883 -9.30884,9.1051 -10.5625,17 -0.82239,5.17891 -0.0274,14.11596 2.25,25.25 l 1.6875,8.21875 -3.75,5.15625 c -11.20805,15.48393 -16.67629,29.00598 -17.46875,43.1875 -0.41597,7.4443 0.63518,12.71478 3.84375,19.28125 6.51651,13.33601 17.39873,21.60547 28,21.96875 l 0,-12.28125 c -0.18881,-0.0854 -0.35852,-0.15459 -0.5625,-0.25 -3.64666,-1.70575 -8.20685,-6.3969 -10.125,-10.375 -2.72511,-5.65187 -3.56323,-10.315 -3.5,-19.59375 0.0491,-7.22797 0.31461,-9.72029 1.625,-14.625 2.56682,-9.60715 4.958,-15.08618 6.59375,-15.21875 0.16918,-0.0135 0.31632,0.0226 0.46875,0.125 0.38007,0.2548 2.32454,4.36292 4.3125,9.15625 4.27473,10.30717 13.47308,30.63207 15.625,34.5 0.83357,1.4983 1.53125,3.25102 1.53125,3.90625 4e-5,3.0572 -5.74842,10.81469 -9.4375,12.71875 -0.53925,0.27832 -1.01307,0.48938 -1.46875,0.625 l 0,10.875 c 0.43155,-0.0934 0.85359,-0.18999 1.28125,-0.3125 4.69565,-1.3452 8.08525,-3.31442 13.25,-7.6875 l 4.09375,-3.5 1.59375,2.125 c 5.30456,6.95415 9.99284,10.6903 14.71875,11.84375 2.66011,0.64918 4.56969,0.61428 7.78125,-0.21875 l 2.8125,-0.75 -0.1875,-8.09375 c -0.0934,-4.45097 0.0954,-9.7582 0.40625,-11.8125 0.31066,-2.05431 0.50002,-3.83261 0.40625,-3.9375 -0.0936,-0.10496 -1.64221,0.26788 -3.40625,0.84375 -1.97406,0.64455 -4.0693,0.91414 -5.46875,0.6875 -3.10562,-0.50303 -7.66705,-3.42759 -9.0625,-5.8125 -1.07549,-1.83803 -1.10318,-2.18686 -0.21875,-5.59375 0.52079,-2.00579 1.8029,-9.11559 2.84375,-15.78125 1.04089,-6.66568 2.33193,-13.6315 2.875,-15.5 2.32239,-7.99121 5.72259,-12.00745 11.375,-13.4375 l 2.9375,-0.75 0.15625,-6.21875 0.1875,-6.21875 -9.53125,-0.375 c -11.12705,-0.45047 -19.47252,-1.75549 -26.1875,-4.125 l -4.8125,-1.6875 -0.3125,3.125 c -0.86389,8.12075 -0.93332,7.87404 1.78125,8.8125 5.81339,2.0097 8.08895,5.65436 9.09375,14.59375 0.59592,5.30174 0.37665,18.01345 -0.375,21.65625 -0.87399,4.23557 -4.9861,-1.26727 -12.09375,-16.1875 -4.08026,-8.56514 -9.375,-21.58253 -9.375,-23.03125 8e-5,-0.52422 1.28403,-3.28994 2.875,-6.15625 8.37546,-15.08873 11.2383,-27.13572 8.9375,-37.84375 -1.39944,-6.51299 -5.90526,-10.18437 -11.375,-10 z"
         style="fill:none;stroke:#ff0000;stroke-width:0.99999994;stroke-opacity:1" />
    </g>
    <path
       inkscape:connector-curvature="0"
       id="path3868"
       d="m 110.93831,-779.78809 0,1.32667 c 0.90609,-0.44021 1.8068,-0.88873 2.71935,-1.32667 l -2.71935,0 z m 1042.43639,0 c 0.1884,0.0908 0.3753,0.1744 0.5636,0.26534 l 0,-0.26534 -0.5636,0 z m -946.62934,6.93177 c -15.01751,0.0785 -30.56347,4.27601 -43.64213,11.93991 -22.88299,13.40909 -37.1758,32.37719 -42.68038,56.58181 -2.1584,9.49071 -2.2476,29.37135 -0.16581,39.26896 5.90327,28.06596 21.78456,55.58046 53.19296,92.13611 18.04471,21.00194 25.96152,33.76194 29.58114,47.66006 2.05763,7.9008 2.05827,11.60494 -0.033,17.74399 -1.95042,5.72481 -8.95141,12.71218 -15.75226,15.72086 -11.00207,4.86727 -25.90624,3.22088 -35.25198,-3.91362 -2.56918,-1.96136 -5.30696,-3.58198 -6.10191,-3.58198 -1.66875,0 -19.76497,40.6304 -19.76497,44.37659 0,1.86902 1.13931,2.89891 5.04071,4.57696 7.4048,3.1849 22.01485,7.14739 30.5097,8.29158 11.22279,1.51163 27.23849,0.49625 38.99932,-2.48748 34.37564,-8.72104 51.7554,-31.26472 51.99912,-67.49353 0.16137,-23.99084 -4.10757,-37.65083 -21.95372,-70.54483 -14.67207,-27.04361 -20.16652,-39.32485 -23.51234,-52.43601 -2.95061,-11.56255 -3.14473,-16.49274 -0.96171,-24.87476 3.64853,-14.00928 10.97711,-22.7224 21.68839,-25.83661 7.42212,-2.15788 20.09545,-1.41918 30.17806,1.75784 5.40886,1.70432 7.60191,1.98134 8.48966,1.0945 0.83102,-0.83022 1.3063,-12.68127 1.52547,-38.77148 l 0.29842,-37.57749 -4.21168,-2.15582 c -9.73391,-4.96643 -31.63898,-9.80686 -51.07053,-11.27656 -2.11507,-0.15998 -4.25507,-0.21021 -6.40041,-0.199 z m 927.16274,43.24895 c -6.4858,-0.008 -52.1879,7.63487 -53.5578,8.95492 -1.4458,1.39326 -61.749,240.04175 -61.749,244.36969 0,2.03771 0.5619,2.45431 3.1838,2.45431 4.11,0 27.7266,-4.9904 28.7186,-6.06945 0.4169,-0.45341 2.7809,-7.2767 5.2398,-15.15702 2.4587,-7.88033 4.5937,-14.46786 4.7423,-14.62636 0.3131,-0.33374 16.7656,-2.27999 27.3923,-3.38298 l 0,-34.26083 c -1.0464,0.19763 -2.2801,0.37205 -3.7472,0.66332 -4.8154,0.95593 -9.0747,1.7251 -9.4847,1.72465 -0.4097,-4.6e-4 -0.1541,-2.02978 0.5972,-4.51063 10.0818,-33.30086 13.2217,-43.26228 14.1273,-43.44792 0.2535,-0.052 0.3244,0.67377 0.3315,1.85731 0.01,1.13827 0.7254,9.69785 1.5919,19.03749 1.4786,15.94443 2.3287,21.07751 0.3646,23.15012 l 0,35.38851 c 2.9414,-0.28226 5.0175,-0.45434 5.1071,-0.36484 0.2005,0.20064 0.9389,6.67978 1.6249,14.3942 0.686,7.71441 1.7708,14.7653 2.4208,15.65452 1.058,1.44689 3.5078,1.42042 23.413,-0.16583 16.389,-1.30604 22.5605,-2.16227 23.4461,-3.28347 0.7257,-0.91902 1.0322,-4.13903 0.7627,-8.12576 -0.2456,-3.63059 -2.5489,-53.88206 -5.1401,-111.67112 -2.5917,-57.78904 -5.0155,-109.01115 -5.3726,-113.82691 l -0.6631,-8.75592 -3.3494,0 z m -336.56826,20.69579 0.29847,42.45295 c 0.1783,24.6806 0.74534,42.83352 1.32649,43.41474 1.05928,1.05941 17.28156,1.02444 31.00713,-0.0663 7.43991,-0.59125 8.22435,-0.459 8.22435,1.26032 0,1.04533 -12.17514,46.11601 -27.06077,100.1624 -14.8856,54.04638 -27.06288,99.32496 -27.06074,100.62675 0.004,2.36419 0.0255,2.37811 22.55062,2.68645 64.40383,0.88164 76.78737,0.79896 78.56244,-0.53066 2.34357,-1.75544 12.08069,-48.28075 10.44625,-49.91537 -0.74704,-0.74709 -8.07115,-0.77349 -23.14756,-0.0663 -12.1385,0.56934 -22.4908,0.71505 -22.98176,0.29849 -0.49096,-0.41654 5.65168,-20.02201 13.62987,-43.58059 64.43286,-190.2617 63.82507,-188.49757 62.3127,-190.01011 -1.23435,-1.23449 -69.65829,-5.01058 -114.84242,-6.33478 l -13.26507,-0.39799 z m -274.78611,5.83728 c -4.26274,0 -57.32308,12.75486 -58.63167,14.0957 -0.88248,0.90423 -1.75137,18.74095 -3.0178,60.72759 -0.98596,32.68877 -2.19261,59.83038 -2.65301,60.3296 -1.07415,1.16477 -18.12971,5.18425 -18.86958,4.4443 -0.30696,-0.307 0.66471,-27.19122 2.15558,-59.73261 2.20411,-48.10967 2.46403,-59.42217 1.35968,-60.59493 -1.13806,-1.20853 -6.49698,-0.1526 -32.96373,6.56696 -17.37184,4.41045 -31.97594,8.62533 -32.46628,9.38607 -0.49032,0.76072 -0.63416,3.30335 -0.33163,5.63828 0.30252,2.3349 4.85334,52.92931 10.11461,112.43393 5.45985,61.75025 10.05256,108.7875 10.71155,109.58166 0.63506,0.76526 1.45769,1.40252 1.82397,1.39296 2.72939,-0.0692 31.60783,-8.76071 32.63209,-9.81723 0.903,-0.93146 1.67091,-10.69201 2.48719,-32.10504 0.64533,-16.9281 1.4215,-33.18652 1.72447,-36.15132 l 0.5306,-5.40612 7.66059,-1.79098 c 4.20202,-0.99129 8.7756,-2.11938 10.18095,-2.48748 l 2.55352,-0.66333 -0.69641,23.24962 c -0.39221,12.78824 -1.0253,30.46181 -1.39284,39.26897 -0.58647,14.05358 -0.45255,16.08129 1.02804,16.64951 0.92787,0.3561 8.50567,-1.19942 16.84666,-3.48247 14.45284,-3.95595 17.84153,-5.71174 17.84153,-9.12075 0,-0.70181 3.33267,-23.89716 7.39528,-51.54051 4.06259,-27.64336 11.97749,-81.4044 17.57622,-119.49839 5.59876,-38.09397 9.87488,-69.73467 9.51771,-70.31265 -0.35718,-0.57801 -1.766,-1.06134 -3.11729,-1.06134 z m 187.73402,1.89049 c -7.59725,-0.3159 -59.26028,6.36672 -61.51681,8.12577 -0.78812,0.61435 -7.20161,23.06624 -14.25995,49.88217 -7.05833,26.81594 -12.99602,48.91661 -13.19876,49.11937 -0.20273,0.20276 -5.73609,-18.63147 -12.27019,-41.85593 -6.53409,-23.22449 -12.22319,-43.41475 -12.66815,-44.87409 -0.56592,-1.856 -1.71791,-2.74247 -3.78055,-2.98495 -3.9924,-0.46935 -53.68691,6.0993 -56.17761,7.42927 -1.71039,0.91327 -1.86596,1.88913 -1.29334,7.06443 0.63173,5.70958 8.06172,89.00136 16.05075,179.52946 2.03477,23.05725 3.9467,42.51928 4.21165,43.24894 0.63327,1.74413 3.20323,1.62995 15.85176,-0.72966 11.21006,-2.09127 13.34957,-3.44932 13.33141,-8.49059 -0.0214,-5.98119 3.37347,-61.26933 3.91321,-63.74574 0.40021,-1.83625 3.16815,6.33429 8.98709,26.53308 4.62445,16.05252 8.83214,30.26099 9.38504,31.57438 0.96569,2.29395 1.52057,2.38798 14.16047,2.38798 9.25976,0 13.48908,-0.39303 14.2268,-1.32666 0.57655,-0.72966 5.50754,-16.79673 10.97685,-35.72016 8.12733,-28.12009 10.10743,-33.8404 10.74471,-31.30904 0.42886,1.70346 1.92248,20.14931 3.34944,40.99361 1.42695,20.84431 2.90758,38.39594 3.28311,39.00364 0.40275,0.65173 5.25684,1.09449 11.80591,1.09449 10.53024,0 11.15365,-0.12315 12.03806,-2.38798 0.51289,-1.31339 1.8553,-12.65628 3.01781,-25.20643 1.16253,-12.55015 6.59145,-68.52889 12.03806,-124.40701 7.30079,-74.90037 9.59676,-101.90747 8.72179,-102.78251 -0.087,-0.0868 -0.42208,-0.14478 -0.92856,-0.16584 z m 222.98601,31.74019 c -1.53735,-0.005 -2.7446,0.0107 -3.61475,0.0331 -0.92817,0.0244 -1.46622,0.0735 -1.5255,0.13269 -1.12001,1.12013 0.35805,72.79339 1.5255,73.96096 0.59304,0.59313 31.80897,0.72941 37.47367,0.16583 1.3191,-0.1312 2.0714,0.40377 1.99,1.39299 -0.07,0.8756 -12.1499,39.25789 -26.86178,85.30387 -14.71211,46.04596 -26.82886,84.97001 -26.92818,86.49787 l -0.19897,2.78594 18.04054,0.597 c 34.03429,1.11471 83.29041,0.61166 84.20001,-0.8623 0.4537,-0.73495 2.9181,-10.43348 5.4719,-21.52498 3.3807,-14.68304 4.333,-20.47478 3.4821,-21.32596 -0.8356,-0.83578 -7.5718,-0.91915 -23.645,-0.26534 -12.36522,0.50299 -22.61902,0.68987 -22.78272,0.398 -0.1637,-0.29186 6.3401,-17.4853 14.4588,-38.20764 47.90972,-122.28315 62.44552,-160.02155 62.44552,-162.11715 0,-1.58716 -0.7734,-2.50115 -2.3877,-2.81914 -5.1986,-1.02381 -98.08382,-4.06982 -121.14344,-4.14579 z m -182.82598,16.21835 c -4.45247,0.027 -8.74307,0.83261 -12.17071,2.42114 -7.40712,3.4328 -15.00333,10.29278 -17.7752,16.01936 -2.59089,5.35264 -2.97978,14.90186 -0.79591,20.09881 2.82294,6.71768 14.45254,15.37011 23.77765,17.71082 6.58816,1.65372 19.30522,0.69262 24.14245,-1.82414 12.78382,-6.6513 20.41365,-23.14663 16.01759,-34.65884 -2.14484,-5.6168 -8.88733,-12.11249 -16.71401,-16.11886 -4.75381,-2.43337 -10.75725,-3.68274 -16.48186,-3.64829 z m -401.46762,3.81414 c -11.31746,0.0484 -18.4064,1.70561 -29.18317,6.86542 -10.13115,4.85071 -19.67945,12.70542 -27.49188,22.61946 -6.55725,8.32121 -16.29709,26.65401 -19.56599,36.78149 -10.68948,33.11727 -8.9881,77.27397 4.01269,103.47903 8.72313,17.5828 21.59245,29.23319 38.26976,34.62568 11.40643,3.68818 26.32833,2.15061 38.30289,-3.91364 4.68621,-2.37321 4.92259,-2.69 5.57135,-8.09258 1.29474,-10.78205 0.83498,-26.33835 -0.7959,-26.96426 -0.81921,-0.31438 -4.67754,0.41685 -8.58915,1.62516 -13.22803,4.08617 -23.89621,2.56678 -31.93569,-4.51063 -11.31992,-9.96529 -15.88417,-29.63287 -11.57377,-49.98169 3.50699,-16.55601 10.82953,-26.37472 24.87202,-33.3322 7.40223,-3.6675 8.59963,-3.92378 19.63233,-4.27846 6.4621,-0.20772 12.19537,-0.81441 12.76763,-1.35982 1.3734,-1.30895 4.76854,-67.77936 3.58157,-70.14683 -1.20204,-2.39753 -6.86768,-3.46314 -17.87469,-3.41613 z m 425.14579,63.61306 c -10.80038,-0.0208 -51.89529,2.30381 -55.08325,3.28347 -1.76257,0.54165 -1.83147,2.47245 -1.19385,31.01055 0.62557,27.9981 0.47108,32.9385 -2.18873,61.58991 -1.99388,21.47798 -2.58189,31.47969 -1.82396,32.23771 0.60956,0.60962 11.90542,1.6981 25.33631,2.42114 34.01014,1.83089 38.51096,1.85206 38.6677,0.26533 0.61096,-6.18426 -0.45687,-129.96265 -1.12753,-130.64228 -0.10801,-0.10946 -1.04379,-0.16286 -2.58669,-0.16583 z"
       style="fill:none;stroke:#ff0000;stroke-width:1;stroke-opacity:1" />
    <path
       style="fill:none;stroke:#ff0000;stroke-width:1;stroke-opacity:1"
       d="m 184.1932,420.07036 -5.54135,12.4095 c 2.12159,-0.5099 4.4161,-0.8155 6.93519,-0.8839 8.10143,-0.2207 18.55741,1.8303 33.24809,6.1198 27.24804,7.9538 39.9747,10.3593 54.83556,10.3696 13.61581,0.011 17.53742,-0.9756 38.61946,-9.7236 8.74174,-3.6284 10.77544,-4.0466 19.03776,-4.0119 11.00859,0.047 22.3852,3.5007 48.68228,14.8235 19.93421,8.5835 28.62017,11.3821 38.21151,12.2736 8.60597,0.8006 14.45791,-0.2659 36.03577,-7.3098 l 2.41372,-6.0857 c -16.84953,6.2402 -23.74752,7.5939 -31.82026,6.8677 -10.29068,-0.9253 -18.4083,-3.8943 -43.4809,-15.8775 -26.91042,-12.8614 -33.96539,-15.4149 -44.60276,-16.0815 -9.57552,-0.5991 -16.34653,1.3398 -31.68427,9.0438 -24.17074,12.1401 -42.06662,11.1034 -91.24528,-5.3038 -18.69634,-6.2381 -20.70304,-6.6892 -29.64452,-6.6298 z m -7.98906,0.4759 c -6.87321,0.9608 -11.56549,3.4763 -17.23598,8.7038 -11.23444,10.356 -11.88524,26.2374 -2.68568,42.0226 l 2.48171,-8.0578 c -0.11366,-0.8683 -0.18669,-1.7783 -0.23797,-2.6859 -0.54462,-9.6399 1.65838,-15.5808 7.95506,-21.3853 0.79717,-0.7344 1.61994,-1.4125 2.44771,-2.04 l 7.41113,-16.5574 c -0.0436,0.011 -0.0925,-0.011 -0.13598,0 z m 341.59187,8.9077 c -9.0098,-0.1136 -20.76198,3.0876 -43.4129,11.7977 l 2.92366,1.1559 -1.93778,4.8958 c 23.90592,-7.2751 36.3059,-8.5354 43.61688,-4.7938 3.39079,1.7362 8.15904,6.5514 8.15904,8.2278 0,1.168 -0.80753,1.3085 -3.53558,0.6119 -10.26354,-2.6191 -28.04185,0.017 -52.96578,7.8538 l -16.55606,41.7846 c 17.75717,3.3636 30.25913,6.9614 32.02424,9.8597 0.74258,1.2184 -6.16558,19.7111 -25.46301,67.9637 -14.57641,36.4489 -27.06484,66.4333 -27.74074,66.6379 -0.67591,0.206 -2.50007,-1.7826 -4.04553,-4.4198 -9.31562,-15.8981 -29.38573,-25.493 -47.28844,-22.6093 -7.20696,1.1606 -13.77589,3.7937 -19.41172,7.5478 1.16928,1.548 1.3875,4.3368 0.74791,7.8197 5.50436,-3.3432 12.01122,-5.269 19.00377,-5.2019 3.57423,0.035 7.2948,0.58 11.0487,1.734 7.68235,2.3622 17.77991,9.6358 17.77991,12.7836 0,1.9219 0.64123,2.0212 -7.07117,-1.156 -7.81907,-3.2215 -19.20953,-3.6829 -26.92483,-1.0539 -6.78996,2.3129 -14.69436,9.5179 -17.81391,16.2174 -3.62968,7.7962 -3.57197,18.5479 0.16998,26.5872 1.50746,3.2382 2.58101,6.3998 2.37972,7.0037 -0.69762,2.0938 -9.41423,-7.127 -12.03459,-12.7155 -2.8938,-6.1717 -3.83303,-12.3964 -3.22962,-18.2575 -1.8219,0.9635 -3.4428,1.2197 -4.69145,0.6121 -0.29105,2.9832 -0.32399,6.0398 -0.034,9.1456 0.76599,8.2042 6.01083,20.2781 11.49065,26.5192 4.55852,5.1932 13.45201,10.9827 20.22762,13.1576 10.7243,3.4422 16.02079,3.4607 31.27633,0.068 2.37535,-0.5273 2.99165,-0.2837 2.99165,1.2239 0,1.3979 -62.40682,159.2978 -73.63535,186.314 -0.80827,1.9456 -2.07822,3.5363 -2.85567,3.5358 -0.49563,0 -6.03411,-13.982 -12.85049,-31.7889 l -12.85049,32.401 c 1.05906,3.2805 5.30979,16.4712 6.05129,18.7674 5.08551,15.744 9.72127,28.4802 10.30079,28.2871 1.00771,-0.3361 12.64033,-26.4094 95.59677,-214.1251 41.03217,-92.8476 72.81244,-164.6381 93.31904,-210.8951 10.02398,-22.6123 14.92294,-32.3919 18.39184,-36.6508 2.60273,-3.1945 6.74513,-9.8868 9.17892,-14.8575 4.07887,-8.332 4.3758,-9.5905 3.90954,-15.9115 -0.34823,-4.7214 -1.55571,-9.0219 -3.90954,-13.8036 -4.3653,-8.8672 -8.43634,-11.5534 -18.42583,-12.2056 -0.62217,-0.04 -1.25841,-0.06 -1.90378,-0.067 z m -321.70421,11.2877 c -10.26446,-0.043 -17.26765,2.7431 -22.9813,8.4657 -4.66563,4.6731 -6.48993,9.1744 -7.75109,18.9033 -0.4072,3.1418 -1.15834,5.7122 -1.6658,5.7118 -0.69044,0 -1.38842,-0.5505 -2.03976,-1.4959 l -1.46183,4.7939 c 1.70452,2.296 3.59016,4.5889 5.71133,6.8338 8.35754,8.8446 5.69559,2.1224 27.67275,70.3776 10.99867,34.1598 30.88113,95.8412 50.24609,155.9191 l 8.19304,-20.6714 c -12.65938,-33.924 -25.3411,-69.0037 -24.74909,-69.5958 0.35215,-0.3513 3.342,1.1609 6.66322,3.366 14.24382,9.4546 27.51656,13.1423 44.09281,12.2396 18.49928,-1.0088 32.94755,-7.6248 45.35068,-20.7394 18.96514,-20.052 21.70717,-48.2389 6.93518,-71.2617 -8.10104,-12.6247 -24.18078,-23.8894 -39.74133,-27.8451 -8.52298,-2.1674 -26.11892,-2.1329 -34.67593,0.067 -1.51204,0.3892 -3.01473,0.8344 -4.48747,1.326 1.59811,0.1624 2.84394,0.7308 3.60358,1.7339 1.97976,2.6143 0.19181,7.5747 -4.11352,12.9196 6.25638,-2.7221 12.98861,-4.1967 19.78568,-4.3859 0.68805,-0.02 1.38446,-0.041 2.07375,-0.034 10.33953,0.1088 20.76901,3.1938 30.01848,9.2817 5.94848,3.9162 10.94163,9.2161 9.21291,9.7917 -0.54863,0.1833 -4.85718,-1.2302 -9.58687,-3.1619 -7.74056,-3.1601 -9.68748,-3.5268 -19.47971,-3.5019 -8.56716,0.022 -12.18395,0.5348 -16.998,2.414 -12.93213,5.0485 -23.40666,15.5172 -27.67275,27.6071 -0.90352,2.5612 -1.65601,8.368 -1.6658,12.8856 -0.0214,9.6251 2.53871,17.5039 8.29502,25.6011 2.08659,2.9358 3.77356,5.7031 3.77356,6.1537 0,3.4394 -11.58594,-5.2026 -17.64393,-13.1575 -12.62621,-16.5804 -12.37162,-38.1759 -0.16998,-54.0243 -6.7006,3.0505 -12.34246,3.586 -14.41431,0.8501 -0.54489,-0.7196 -0.81387,-1.618 -0.8159,-2.652 -2.13598,3.5905 -3.83581,7.3916 -5.0994,11.3216 -1.29932,4.0415 -2.84577,7.3438 -3.3996,7.3438 -1.2939,0 -2.01468,-1.7918 -13.90437,-34.1688 -5.46882,-14.8915 -9.71443,-27.6348 -9.45089,-28.3211 0.70292,-1.832 35.65995,-8.0966 55.14152,-9.8937 10.03705,-0.9253 36.14108,-1.4702 63.40255,-1.564 27.26147,-0.095 55.67259,0.2468 70.37174,1.088 21.57258,1.2333 44.5486,3.7497 64.18446,6.7657 l 12.95248,-32.6725 c -22.51869,5.7013 -33.3329,3.4163 -61.3628,-7.6497 -28.57087,-11.2798 -36.61385,-13.5645 -48.41031,-13.5996 -9.6914,-0.029 -11.15702,0.2783 -23.59323,4.9978 -16.64018,6.3139 -24.88507,7.8265 -38.48348,6.9358 -12.57532,-0.8249 -25.4913,-3.3981 -51.062,-10.1317 -12.86135,-3.3866 -22.8169,-5.1345 -30.80038,-5.1678 z m 211.42116,61.572 c -12.61476,-0.1478 -25.21853,5.0729 -34.60793,15.2994 4.03567,0.4784 7.2026,4.3157 7.44512,9.0778 7.05547,-8.1394 16.84687,-12.7033 26.99283,-12.5796 3.82487,0.046 7.69649,0.7435 11.49065,2.1759 6.53281,2.4646 16.00062,9.9732 14.4823,11.4916 -0.45268,0.4534 -2.65919,-0.064 -4.89542,-1.1559 -2.35834,-1.1521 -7.53417,-2.1837 -12.30656,-2.482 -7.27606,-0.4536 -8.94411,-0.1921 -14.38031,2.38 -6.51451,3.0816 -13.43114,9.979 -16.48806,16.4215 -5.00518,10.5477 -4.4228,23.4025 1.59781,34.8489 2.79361,5.3107 2.89621,5.9157 1.12187,5.9157 -2.88751,0 -10.6884,-8.9789 -14.00636,-16.1154 -2.39289,-5.1472 -2.88966,-7.7268 -2.88966,-15.4356 0,-7.6512 0.47576,-10.1609 2.88966,-15.4354 -0.6174,0.1698 -1.24177,0.272 -1.90377,0.272 -3.59351,0 -6.65144,-2.6728 -7.81908,-6.3918 -7.25428,15.9805 -6.19077,36.4692 3.19562,51.2022 6.88552,10.8078 19.47283,19.3851 31.34432,21.3513 15.30108,2.5359 29.6729,-2.4459 40.8292,-14.1435 18.95815,-19.877 19.30241,-51.4727 0.78191,-71.7036 -9.10536,-9.9454 -20.97887,-14.8545 -32.87414,-14.9935 z m 238.61797,23.8332 c -3.48939,0.017 -7.67817,0.088 -12.91848,0.204 -26.5703,0.5863 -40.1513,2.31 -62.00871,7.8197 -16.42111,4.1401 -22.30139,6.3884 -22.30139,8.5338 0,1.7611 51.42427,152.8657 53.84968,158.2308 0.87922,1.9456 1.88055,3.5363 2.20974,3.5358 1.68881,0 39.23552,-10.1069 39.91131,-10.7436 0.43493,-0.409 0.0937,-12.957 -0.78191,-27.8791 -0.87552,-14.9208 -1.2232,-27.5059 -0.74791,-27.981 0.20531,-0.2057 1.65769,-0.6898 3.67157,-1.292 l 0,-24.9211 c -6.28622,1.5758 -8.59352,1.7441 -9.28091,0.6118 -0.99976,-1.6455 -4.24325,-31.6855 -3.60358,-33.3528 0.49836,-1.298 2.20251,-1.7338 7.00318,-1.734 8.48867,0 16.81606,2.6017 21.51947,6.7319 7.91329,6.9476 8.67964,13.0978 2.34573,19.1072 -3.06732,2.9112 -5.97038,4.7192 -10.19881,6.2899 l 0,25.1592 c 0.92225,-0.2347 1.78745,-0.4775 2.75368,-0.7141 35.17733,-8.5903 59.99398,-22.6891 67.51607,-38.3847 6.37591,-13.3028 0.50537,-31.3359 -15.12822,-46.4765 -10.86643,-10.5229 -24.34664,-17.1722 -42.39302,-20.9093 -6.82381,-1.414 -10.94931,-1.8862 -21.41749,-1.8359 z m 535.81107,37.0247 c -8.1847,0.036 -48.7775,2.7678 -55.2095,3.774 -3.615,0.5665 -3.7438,0.84 -34.506,63.1699 -16.9949,34.4341 -30.6153,63.0994 -30.2564,63.68 0.3589,0.5804 2.9337,0.7986 5.7113,0.4759 2.7776,-0.3217 9.8064,-0.9134 15.6382,-1.2919 l 10.6067,-0.68 6.0513,-8.6017 c 4.948,-7.0227 6.594,-8.6229 8.975,-8.6697 1.6041,-0.032 9.5324,-0.4581 17.6099,-0.952 1.5958,-0.098 2.9574,-0.1447 4.3515,-0.2041 l 0,-15.8094 c -0.9784,0.09 -1.9542,0.1659 -2.9917,0.2381 -8.4942,0.5881 -11.1507,0.437 -11.1507,-0.5781 0,-1.9091 9.8093,-19.6359 12.1706,-21.9972 1.1939,-1.1949 3.1808,-1.8271 4.9974,-1.9039 1.8167,-0.077 3.444,0.405 3.8756,1.5298 1.4163,3.6921 3.1757,20.3165 2.2437,21.2154 -0.2545,0.2463 -1.6601,0.5538 -3.6376,0.8499 l 0,16.3194 c 3.4245,-0.011 5.6912,0.1405 6.1533,0.5101 0.7185,0.5755 1.6348,3.3267 2.0398,6.1198 1.4029,9.6782 -0.2941,9.1466 25.8029,8.2957 12.6706,-0.4129 23.4576,-1.1294 23.9332,-1.5639 0.7028,-0.6426 -3.4784,-71.8975 -6.6632,-113.7264 l -0.7479,-9.7917 -3.8076,-0.3739 c -0.2378,-0.024 -0.6442,-0.037 -1.1898,-0.034 z m -367.05489,14.5516 0.23797,19.4814 c 0.11956,10.7089 0.47154,20.1334 0.78191,20.9433 0.4469,1.1639 4.85501,1.4622 21.2475,1.4619 16.11324,0 20.70357,0.3083 20.70357,1.394 0,0.7667 -13.43762,24.3779 -29.84849,52.4603 -16.41077,28.0831 -29.59905,51.4398 -29.30456,51.9163 0.29449,0.4779 26.09512,0.7331 57.31727,0.5779 l 56.77333,-0.2719 3.05964,-10.7437 c 1.68424,-5.9039 2.79904,-11.4119 2.4817,-12.2396 -0.46778,-1.2184 -5.31588,-1.4952 -25.63298,-1.4959 -22.16246,0 -25.05506,-0.2058 -25.05506,-1.7339 0,-1.6364 8.19249,-13.4799 60.68287,-87.8872 12.18994,-17.2793 21.73966,-31.8065 21.2475,-32.2649 -0.49215,-0.4577 -30.99075,-1.0102 -67.78803,-1.224 l -66.90414,-0.374 z m -51.50395,13.8376 c -4.13915,0.089 -8.21979,0.4496 -12.13658,1.054 l 0,6.3237 c 4.22888,-0.6021 8.73871,-0.919 13.02047,-0.8499 1.32745,0.023 2.61339,0.074 3.87555,0.1699 9.2319,0.7036 19.00377,3.3822 19.00377,5.2359 0,0.6052 -0.75243,0.8266 -1.66581,0.4759 -3.89404,-1.4935 -19.02014,-1.9382 -26.44889,-0.7819 -8.60387,1.3384 -16.19581,4.5783 -17.26997,7.3778 -0.36792,0.9588 -0.13332,3.1575 0.50994,4.8618 1.55881,4.1293 0.4389,4.5259 -4.99741,1.8359 -7.88425,-3.9004 -7.26422,-11.325 1.25785,-15.0955 2.10865,-0.9325 4.79495,-1.7051 7.78508,-2.3458 l 0,-6.2899 c -14.49695,3.1379 -25.531,9.7881 -25.531,18.5295 0,5.019 4.31872,10.46 10.87872,13.9735 l 67.04013,0 c 15.74103,-8.6851 14.8625,-20.2314 -2.51571,-28.4231 -9.44893,-4.4551 -21.30857,-6.2994 -32.80614,-6.0518 z m 191.29553,6.2897 0,2.9919 c 0.0149,4.5077 3.24517,30.8847 3.90954,31.959 0.31863,0.5165 10.09137,0.9523 21.72344,0.9519 12.62987,0 21.14553,0.4029 21.14553,1.0201 0,0.5676 -12.85817,20.5182 -28.59065,44.3346 -15.73248,23.8148 -28.97939,43.921 -29.44054,44.6744 -0.67068,1.0989 10.2062,1.3136 54.39361,1.088 l 55.24348,-0.272 3.5016,-8.1597 c 1.9213,-4.4879 3.5272,-8.7714 3.5696,-9.5197 0.057,-1.0111 -3.0665,-1.3594 -12.1706,-1.36 -19.6067,-0.011 -36.7157,-1.2402 -36.7157,-2.6518 0,-0.6844 6.5172,-9.2951 14.4823,-19.1414 7.9651,-9.8459 26.5389,-32.8111 41.2712,-51.0323 14.7322,-18.2224 26.5402,-33.5216 26.2449,-33.9989 -0.2954,-0.4787 -31.5972,-0.8841 -69.5558,-0.8841 l -69.01191,0 z m -215.97663,31.4831 c 1.02708,0.5637 1.6658,1.0164 1.6658,1.224 0,1.1786 -3.02956,2.1078 -6.96918,2.1078 l -3.56958,0 -0.71392,17.1354 c -0.39087,9.4254 -0.71391,23.8921 -0.71391,32.129 l 0,14.9595 31.27632,-0.2719 31.27633,-0.3061 0,-33.1829 0,-33.1829 1.22386,-0.6119 -53.47572,0 z m -469.11089,40.8326 c -0.0448,0 -0.0821,0.012 -0.10199,0.034 -0.54359,0.544 3.4981,11.2102 9.17892,24.2073 1.37308,3.1417 3.13651,5.7121 3.90954,5.7118 2.85551,0 29.18837,-11.3983 28.82861,-12.4776 -0.31182,-0.9364 -15.37646,-7.1447 -17.06599,-7.0377 -0.29917,0.018 0.87231,0.7728 2.58369,1.6998 4.40982,2.3899 2.18304,3.6914 -4.2155,2.482 -6.48193,-1.2262 -7.85757,-0.7998 -8.32902,2.4139 -0.68352,4.6605 -2.84394,3.1684 -5.67734,-3.9098 -1.56957,-3.9213 -2.85566,-7.4245 -2.85566,-7.7858 0,-0.7092 4.64722,-0.064 8.15904,1.122 1.19666,0.4032 -1.45053,-1.0069 -5.88131,-3.1279 -3.87692,-1.8572 -7.34509,-3.2341 -8.36301,-3.3319 -0.0727,-0.011 -0.12515,0 -0.16998,0 z m 17.50794,7.1398 c -0.34171,0.098 -0.0714,0.5464 0.71391,1.0539 0.8975,0.5809 2.12136,1.054 2.71968,1.054 0.59833,0 0.35356,-0.4738 -0.54393,-1.054 -0.8975,-0.5795 -2.12135,-1.0539 -2.71968,-1.0539 -0.0748,-10e-5 -0.12117,-0.014 -0.16998,0 z m -26.10893,36.1068 -8.90696,22.4393 c 17.28441,53.6185 34.26318,106.3199 44.97672,139.5314 l 12.10258,-30.565 c -9.78164,-26.1268 -19.17375,-52.0431 -19.17375,-53.8202 0,-2.1826 0.69021,-2.1032 4.2155,0.408 5.23523,3.728 13.68138,5.8318 21.62146,5.3718 13.15806,-0.7613 23.85877,-8.0304 29.88249,-20.2633 3.29004,-6.6803 3.56958,-8.0929 3.56958,-17.6115 0,-9.1206 -0.37019,-11.1651 -3.12763,-17.1354 -3.4657,-7.5049 -11.36009,-15.7486 -17.60993,-18.3594 -6.75523,-2.8231 -13.6867,-3.5799 -20.19363,-2.5499 0.83144,2.1729 -0.18928,5.6929 -2.65169,9.6217 2.81589,-1.0877 5.77894,-1.7003 8.80497,-1.768 2.08087,-0.047 4.18909,0.1762 6.28926,0.6459 5.58125,1.2497 10.53876,3.7796 10.53876,5.372 0,0.4148 -4.11066,0.7478 -9.14492,0.7478 -8.43383,0 -9.51366,0.2596 -13.83638,3.298 -2.58029,1.8129 -6.17992,5.7093 -7.98906,8.6357 -2.95655,4.7833 -3.28059,6.2097 -3.26362,14.1096 0.0149,6.967 0.49453,9.7081 2.41372,13.3276 3.03161,5.7157 1.56539,6.8497 -3.33161,2.5498 -8.09629,-7.1094 -10.68237,-21.3957 -6.28926,-31.8229 -4.79832,2.77 -9.01603,3.7409 -11.15069,2.2439 -0.41519,1.194 -0.71372,2.1842 -0.71392,2.6178 -4.6e-4,1.0477 -0.65894,1.9043 -1.46182,1.904 -0.56631,0 -7.30919,-17.1755 -15.57017,-38.9287 z m 255.61597,18.3934 c -2.29821,0 -4.55715,0.034 -6.76521,0.1022 -14.08048,0.4325 -16.91171,0.8283 -25.15704,3.7058 -15.86805,5.5384 -28.89054,16.2311 -35.18587,28.8652 -5.54124,11.1201 -3.14883,29.5189 5.50736,42.0906 3.03235,4.4047 8.02981,8.8874 18.6638,16.7614 26.09259,19.3213 38.6936,33.4843 40.0133,44.9806 0.57233,4.9866 0.3757,5.5793 -3.02564,8.8397 -2.00169,1.9197 -5.78109,4.245 -8.39702,5.1678 -6.21502,2.194 -22.03017,2.1555 -27.87672,-0.067 -2.39332,-0.9107 -5.13971,-1.9318 -6.11928,-2.244 -1.33762,-0.4257 -3.16585,1.9049 -7.34314,9.3157 -3.05915,5.427 -5.57534,10.2648 -5.57534,10.7777 0,1.9862 9.47798,4.6433 21.75744,6.0858 7.9474,0.9328 33.34062,-0.3581 39.46936,-2.0059 13.16347,-3.5401 22.35768,-10.3407 27.16281,-20.0934 2.03813,-4.136 2.44771,-6.79 2.44771,-15.3335 0,-9.3709 -0.31178,-11.0164 -3.46759,-17.6795 -4.42274,-9.3373 -8.97984,-16.1647 -19.44571,-29.103 -4.59844,-5.6842 -9.53531,-12.7833 -10.94672,-15.7755 -6.23699,-13.2212 0.0802,-26.8811 13.76838,-29.817 6.79638,-1.4568 22.11237,-1.5602 26.95884,-0.1699 2.5986,0.7445 3.68924,0.6697 3.97753,-0.272 0.21888,-0.7161 0.71658,-9.7505 1.08787,-20.0934 l 0.67992,-18.8013 -3.73956,-1.5641 c -5.00674,-2.0922 -22.36202,-3.6719 -38.44948,-3.6719 z m 703.75135,22.3032 c -8.3936,0.1225 -39.513,3.3519 -40.5573,4.42 -1.3186,1.3481 -39.0596,125.7264 -38.4494,126.7138 0.6019,0.9736 12.797,-0.039 16.386,-1.3599 1.6388,-0.6042 3.0436,-2.9695 4.6915,-7.9218 1.2918,-3.8818 2.9234,-7.5175 3.6375,-8.0917 0.7142,-0.5745 7.4126,-1.2088 14.8903,-1.428 l 2.7197,-0.068 0,-15.9115 c -5.5789,0.3243 -7.4378,0.083 -7.8871,-1.0879 -0.3252,-0.8476 1.3042,-6.2683 3.6376,-12.0357 3.377,-8.3455 4.6934,-10.4712 6.4252,-10.4717 1.8525,0 2.557,1.5769 4.7595,10.6758 1.469,6.0682 2.1741,11.0851 1.6318,11.5935 -0.2731,0.2566 -1.4423,0.5355 -3.0597,0.7821 l 0,16.2854 5.3714,-0.1701 1.6318,7.8199 c 0.8989,4.3035 1.9221,8.1258 2.2777,8.4656 1.0245,0.9806 29.2256,-1.085 30.1885,-2.2098 0.4766,-0.5578 0.2757,-12.2805 -0.442,-26.0433 -0.7176,-13.7619 -2.1342,-41.6682 -3.1616,-62.014 -1.0273,-20.344 -2.2341,-37.3583 -2.6517,-37.8067 -0.1172,-0.1252 -0.8407,-0.1533 -2.0397,-0.136 z m -254.83409,12.3756 0.27197,20.9433 0.30596,20.9434 14.65228,0.306 c 8.06592,0.1671 15.07356,0.7269 15.57017,1.224 0.49651,0.4966 -3.23,11.3742 -8.29502,24.1731 -5.06503,12.7994 -14.38722,36.38 -20.73757,52.4264 -6.35034,16.0453 -11.29211,29.6313 -10.94671,30.191 0.36944,0.5972 16.0131,1.0199 37.97354,1.0199 29.54727,0 37.57667,-0.2944 38.51747,-1.4278 1.5615,-1.8823 6.791,-21.4803 6.0513,-22.6774 -0.3151,-0.5089 -8.378,-0.918 -17.9159,-0.918 -15.7925,0 -17.338,-0.1695 -17.338,-1.9039 0,-1.0463 13.2087,-29.03 29.3386,-62.1839 16.1299,-33.1534 29.0727,-60.6924 28.7606,-61.198 -0.3121,-0.5041 -22.0722,-0.9181 -48.3763,-0.9181 l -47.83239,0 z m -77.27292,2.278 c -5.44876,-0.1103 -43.87018,4.2377 -44.80674,5.1678 -0.66218,0.6584 -18.22186,47.6738 -18.22186,48.7885 0,0.1814 -0.67187,0.3399 -1.49582,0.3399 -0.9124,0 -5.03184,-8.3052 -10.53876,-21.2493 -4.97288,-11.6879 -9.63621,-21.7633 -10.36878,-22.3712 -1.53358,-1.2733 -39.3367,1.9626 -41.33915,3.5358 -0.66425,0.521 -1.05572,2.0239 -0.8499,3.3659 0.20583,1.3434 3.10169,27.1727 6.42525,57.3901 3.32356,30.2187 6.28942,56.1071 6.59522,57.5261 0.52414,2.4337 0.88863,2.544 6.22127,1.87 9.92107,-1.2529 12.87247,-1.9764 13.32644,-3.2299 0.24368,-0.6716 1.32481,-8.3222 2.37972,-16.9995 1.06187,-8.7337 2.38929,-15.7332 2.99164,-15.6734 1.31448,0.1321 2.31837,1.9642 9.24692,17.0674 l 5.37137,11.7297 11.55864,-0.306 11.59264,-0.3061 6.8332,-16.2854 c 3.77056,-8.957 7.38904,-16.4479 8.02305,-16.6594 1.68979,-0.5627 2.1393,2.7534 2.92366,22.0652 0.3888,9.5749 0.91343,17.775 1.18986,18.2234 0.70646,1.1478 15.82397,1.0039 17.67792,-0.1699 1.5202,-0.9617 1.88055,-3.7774 13.15646,-103.9007 1.81304,-16.0987 3.0319,-29.5389 2.71968,-29.851 -0.0495,-0.05 -0.24868,-0.06 -0.61193,-0.067 z m -134.79417,0.136 c -5.35145,0.051 -42.55517,6.0922 -43.71886,7.2078 -0.40327,0.3873 -1.09924,14.7916 -1.52982,31.9929 -0.54655,21.8353 -1.17822,31.5899 -2.07376,32.333 -0.70548,0.5863 -4.17052,1.1961 -7.71709,1.3599 l -6.45924,0.306 -0.27197,-31.823 c -0.22845,-25.2087 -0.58136,-31.8226 -1.6998,-31.823 -2.38211,0 -43.20577,8.3608 -43.82085,8.9757 -0.515,0.516 10.6197,107.1271 12.10258,115.8683 0.32995,1.9456 0.99469,3.5363 1.46183,3.5359 3.56234,0 24.75436,-3.5068 25.463,-4.2159 0.49237,-0.4917 1.20265,-8.8504 1.56382,-18.5633 0.45462,-12.2248 1.10098,-18.1008 2.07376,-19.0734 1.47363,-1.4743 14.88649,-3.3443 16.55605,-2.3119 0.53164,0.3281 1.298,9.0408 1.7338,19.3793 0.4358,10.3393 1.01134,18.9937 1.25785,19.2434 0.82058,0.8304 22.22741,-3.4984 23.18528,-4.6919 1.40574,-1.7503 23.47155,-126.6996 22.53935,-127.6318 -0.0533,-0.054 -0.28916,-0.071 -0.64593,-0.068 z m 316.84278,16.8635 c -2.72,0.011 -4.3933,0.048 -4.6575,0.1359 -1.1662,0.3947 -1.5353,32.489 -0.4079,35.4269 0.5506,1.4348 2.7833,1.7341 13.4964,1.7339 13.5855,0 16.2841,0.4444 16.2841,2.7199 0,0.7756 -9.0457,21.4093 -20.0916,45.8305 -14.4017,31.842 -19.7108,44.6181 -18.7658,45.2186 1.8109,1.1499 74.9402,1.0874 76.7629,-0.069 1.6316,-1.0332 6.0036,-18.2484 5.0315,-19.8213 -0.3399,-0.5508 -6.1207,-0.9748 -12.8165,-0.986 -13.831,-0.014 -20.3297,-0.8362 -20.3297,-2.5499 0,-1.2248 3.3112,-7.3758 36.6477,-68.0658 10.9854,-19.9982 19.6053,-36.7545 19.1398,-37.1948 -0.7254,-0.6868 -71.2532,-2.4261 -90.2934,-2.3799 z m -145.43491,3.9099 0,6.8337 c 2.31491,-0.3423 4.71443,-0.4972 7.07117,-0.476 6.86449,0.061 13.38626,1.614 16.48806,4.3519 l 2.44771,2.1759 -2.71968,-0.6459 c -16.3121,-3.8739 -32.63616,0.2446 -32.63616,8.2276 0,2.0613 0.99116,4.1435 2.71968,5.7459 1.49582,1.3856 2.71968,2.8498 2.71968,3.2298 0,1.6685 -5.27151,0.443 -8.97495,-2.0739 -4.60453,-3.1288 -5.98253,-6.8352 -4.14751,-11.1516 1.62631,-3.8246 4.79985,-6.0757 11.45665,-8.1258 l 0,-7.9897 c -10.37351,0.6926 -20.15676,3.6863 -25.90495,9.1458 -7.2461,6.8812 -7.35924,12.8853 -0.40796,19.4813 4.44472,4.2187 8.9093,6.4548 16.82803,8.4657 8.75846,2.2242 26.00205,1.4973 34.36996,-1.4619 14.39364,-5.0913 20.20195,-13.9766 14.85625,-22.7454 -5.08859,-8.3457 -19.59166,-12.83 -34.16598,-12.9874 z m -301.17062,7.0718 c -12.93292,0.2266 -24.52745,3.085 -36.30774,8.8736 -20.97167,10.3064 -30.67418,29.5112 -27.53676,54.5342 3.42691,27.3332 16.48659,42.3602 38.55147,44.3685 8.42992,0.7682 19.16167,-0.173 26.65287,-2.3458 l 4.89542,-1.428 0,-7.0038 0,-7.0378 -3.26361,0.2381 c -1.79499,0.1385 -6.48269,0.5673 -10.43678,0.9519 -8.62846,0.8417 -13.73487,-0.5664 -19.20774,-5.3718 -4.7107,-4.1372 -7.43289,-10.0564 -8.43101,-18.2575 -1.96513,-16.1437 10.71826,-25.8595 38.89143,-29.7489 l 5.16739,-0.7141 0,-18.4273 0,-18.4275 -3.53558,-0.136 c -0.9477,-0.035 -1.88895,-0.061 -2.82167,-0.067 -0.87442,-0.011 -1.7555,-0.015 -2.61769,0 z m 316.91077,34.4747 c -3.21658,0.064 -7.63487,0.2825 -13.70039,0.6121 -11.33302,0.6149 -21.01307,1.5334 -21.51947,2.0399 -1.44187,1.4412 -3.93326,62.369 -2.6177,64.0199 0.84006,1.0535 6.41606,1.3117 23.52524,1.088 l 22.40337,-0.3061 0.27197,-32.6389 c 0.14534,-17.9514 -0.13697,-33.2588 -0.61193,-33.9989 -0.42379,-0.6593 -2.39013,-0.9234 -7.75109,-0.816 z"
       id="path3919"
       inkscape:connector-curvature="0" />
  </g>
</svg>
