G75*
%MOIN*%
%OFA0B0*%
%FSLAX24Y24*%
%IPPOS*%
%LPD*%
%AMOC8*
5,1,8,0,0,1.08239X$1,22.5*
%
%ADD10R,0.0512X0.0591*%
%ADD11R,0.0591X0.0512*%
%ADD12R,0.0709X0.0551*%
%ADD13R,0.1339X0.0748*%
%ADD14R,0.0390X0.0272*%
%ADD15OC8,0.0610*%
%ADD16R,0.0472X0.0472*%
%ADD17R,0.0500X0.0220*%
%ADD18R,0.0220X0.0500*%
%ADD19R,0.0394X0.0394*%
%ADD20C,0.0400*%
%ADD21C,0.0740*%
%ADD22R,0.0551X0.0138*%
%ADD23R,0.0748X0.0709*%
%ADD24R,0.0748X0.0748*%
%ADD25C,0.0160*%
%ADD26C,0.0320*%
%ADD27C,0.0396*%
%ADD28C,0.0531*%
%ADD29C,0.0200*%
%ADD30C,0.0240*%
D10*
X005215Y006700D03*
X005885Y006700D03*
X005885Y007700D03*
X005215Y007700D03*
X004965Y009950D03*
X005635Y009950D03*
X005635Y011450D03*
X004965Y011450D03*
X007215Y013200D03*
X007885Y013200D03*
X001635Y014200D03*
X000965Y014200D03*
X014915Y007750D03*
X015585Y007750D03*
X015635Y006700D03*
X014965Y006700D03*
X014965Y005450D03*
X015635Y005450D03*
D11*
X011250Y003585D03*
X011250Y002915D03*
X008300Y005115D03*
X008300Y005785D03*
X018050Y009615D03*
X018050Y010285D03*
D12*
X016750Y010669D03*
X016750Y009331D03*
D13*
X003050Y012682D03*
X003050Y014218D03*
D14*
X012742Y004624D03*
X012742Y004250D03*
X012742Y003876D03*
X013762Y003876D03*
X013762Y004624D03*
D15*
X014000Y009000D03*
X015000Y009000D03*
X015000Y010000D03*
X014000Y010000D03*
X014000Y011000D03*
X015000Y011000D03*
D16*
X013713Y006700D03*
X012887Y006700D03*
X012887Y005700D03*
X013713Y005700D03*
D17*
G36*
X009138Y007574D02*
X008786Y007222D01*
X008630Y007378D01*
X008982Y007730D01*
X009138Y007574D01*
G37*
G36*
X008916Y007796D02*
X008564Y007444D01*
X008408Y007600D01*
X008760Y007952D01*
X008916Y007796D01*
G37*
G36*
X008693Y008019D02*
X008341Y007667D01*
X008185Y007823D01*
X008537Y008175D01*
X008693Y008019D01*
G37*
G36*
X008470Y008242D02*
X008118Y007890D01*
X007962Y008046D01*
X008314Y008398D01*
X008470Y008242D01*
G37*
G36*
X008248Y008464D02*
X007896Y008112D01*
X007740Y008268D01*
X008092Y008620D01*
X008248Y008464D01*
G37*
G36*
X008025Y008687D02*
X007673Y008335D01*
X007517Y008491D01*
X007869Y008843D01*
X008025Y008687D01*
G37*
G36*
X007802Y008910D02*
X007450Y008558D01*
X007294Y008714D01*
X007646Y009066D01*
X007802Y008910D01*
G37*
G36*
X007580Y009132D02*
X007228Y008780D01*
X007072Y008936D01*
X007424Y009288D01*
X007580Y009132D01*
G37*
G36*
X010415Y011077D02*
X010063Y010725D01*
X009907Y010881D01*
X010259Y011233D01*
X010415Y011077D01*
G37*
G36*
X010638Y010854D02*
X010286Y010502D01*
X010130Y010658D01*
X010482Y011010D01*
X010638Y010854D01*
G37*
G36*
X010860Y010632D02*
X010508Y010280D01*
X010352Y010436D01*
X010704Y010788D01*
X010860Y010632D01*
G37*
G36*
X011083Y010409D02*
X010731Y010057D01*
X010575Y010213D01*
X010927Y010565D01*
X011083Y010409D01*
G37*
G36*
X011306Y010186D02*
X010954Y009834D01*
X010798Y009990D01*
X011150Y010342D01*
X011306Y010186D01*
G37*
G36*
X011528Y009964D02*
X011176Y009612D01*
X011020Y009768D01*
X011372Y010120D01*
X011528Y009964D01*
G37*
G36*
X010192Y011300D02*
X009840Y010948D01*
X009684Y011104D01*
X010036Y011456D01*
X010192Y011300D01*
G37*
G36*
X009970Y011522D02*
X009618Y011170D01*
X009462Y011326D01*
X009814Y011678D01*
X009970Y011522D01*
G37*
D18*
G36*
X009138Y011326D02*
X008982Y011170D01*
X008630Y011522D01*
X008786Y011678D01*
X009138Y011326D01*
G37*
G36*
X008916Y011104D02*
X008760Y010948D01*
X008408Y011300D01*
X008564Y011456D01*
X008916Y011104D01*
G37*
G36*
X008693Y010881D02*
X008537Y010725D01*
X008185Y011077D01*
X008341Y011233D01*
X008693Y010881D01*
G37*
G36*
X008470Y010658D02*
X008314Y010502D01*
X007962Y010854D01*
X008118Y011010D01*
X008470Y010658D01*
G37*
G36*
X008248Y010436D02*
X008092Y010280D01*
X007740Y010632D01*
X007896Y010788D01*
X008248Y010436D01*
G37*
G36*
X008025Y010213D02*
X007869Y010057D01*
X007517Y010409D01*
X007673Y010565D01*
X008025Y010213D01*
G37*
G36*
X007802Y009990D02*
X007646Y009834D01*
X007294Y010186D01*
X007450Y010342D01*
X007802Y009990D01*
G37*
G36*
X007580Y009768D02*
X007424Y009612D01*
X007072Y009964D01*
X007228Y010120D01*
X007580Y009768D01*
G37*
G36*
X010415Y007823D02*
X010259Y007667D01*
X009907Y008019D01*
X010063Y008175D01*
X010415Y007823D01*
G37*
G36*
X010638Y008046D02*
X010482Y007890D01*
X010130Y008242D01*
X010286Y008398D01*
X010638Y008046D01*
G37*
G36*
X010860Y008268D02*
X010704Y008112D01*
X010352Y008464D01*
X010508Y008620D01*
X010860Y008268D01*
G37*
G36*
X011083Y008491D02*
X010927Y008335D01*
X010575Y008687D01*
X010731Y008843D01*
X011083Y008491D01*
G37*
G36*
X011306Y008714D02*
X011150Y008558D01*
X010798Y008910D01*
X010954Y009066D01*
X011306Y008714D01*
G37*
G36*
X011528Y008936D02*
X011372Y008780D01*
X011020Y009132D01*
X011176Y009288D01*
X011528Y008936D01*
G37*
G36*
X010192Y007600D02*
X010036Y007444D01*
X009684Y007796D01*
X009840Y007952D01*
X010192Y007600D01*
G37*
G36*
X009970Y007378D02*
X009814Y007222D01*
X009462Y007574D01*
X009618Y007730D01*
X009970Y007378D01*
G37*
D19*
X003800Y007344D03*
X003800Y006556D03*
X003300Y009806D03*
X003300Y010594D03*
D20*
X000650Y005721D02*
X000650Y002400D01*
X010359Y002400D01*
X010305Y002530D01*
X010305Y003301D01*
X010404Y003539D01*
X010587Y003722D01*
X010655Y003751D01*
X010655Y003870D01*
X010666Y003928D01*
X010689Y003983D01*
X010722Y004032D01*
X010744Y004054D01*
X010655Y004143D01*
X009579Y005218D01*
X009419Y005152D01*
X009138Y005152D01*
X008963Y004978D01*
X008895Y004949D01*
X008895Y004830D01*
X008884Y004772D01*
X008861Y004717D01*
X008828Y004668D01*
X008787Y004626D01*
X008737Y004594D01*
X008683Y004571D01*
X008625Y004559D01*
X008300Y004559D01*
X008300Y004879D01*
X008300Y004559D01*
X007975Y004559D01*
X007917Y004571D01*
X007863Y004594D01*
X007813Y004626D01*
X007772Y004668D01*
X007739Y004717D01*
X007716Y004772D01*
X007705Y004830D01*
X007705Y004949D01*
X007637Y004978D01*
X007454Y005161D01*
X007355Y005399D01*
X007355Y006170D01*
X007440Y006376D01*
X007335Y006376D01*
X007347Y006381D02*
X007440Y006474D01*
X007440Y006376D01*
X007347Y006381D02*
X007035Y006251D01*
X006781Y006251D01*
X006692Y006037D01*
X006509Y005854D01*
X006270Y005755D01*
X005499Y005755D01*
X005261Y005854D01*
X005078Y006037D01*
X005049Y006105D01*
X004930Y006105D01*
X004872Y006116D01*
X004817Y006139D01*
X004768Y006172D01*
X004726Y006213D01*
X004694Y006263D01*
X004671Y006317D01*
X004659Y006375D01*
X004659Y006700D01*
X004979Y006700D01*
X004659Y006700D01*
X004659Y006914D01*
X004630Y006885D01*
X004565Y006819D01*
X004548Y006779D01*
X004365Y006596D01*
X004297Y006568D01*
X004297Y006556D01*
X004270Y006556D01*
X004297Y006556D01*
X004297Y006330D01*
X004285Y006272D01*
X004263Y006217D01*
X004230Y006168D01*
X004188Y006126D01*
X004139Y006094D01*
X004084Y006071D01*
X004026Y006059D01*
X003800Y006059D01*
X003800Y006497D01*
X003800Y006497D01*
X003800Y006059D01*
X003574Y006059D01*
X003516Y006071D01*
X003461Y006094D01*
X003412Y006126D01*
X003370Y006168D01*
X003337Y006217D01*
X003315Y006272D01*
X003303Y006330D01*
X003303Y006534D01*
X002745Y006534D01*
X002447Y006657D01*
X002220Y006885D01*
X002113Y006991D01*
X002102Y007018D01*
X001998Y006975D01*
X001574Y006975D01*
X001574Y006947D01*
X001475Y006708D01*
X001292Y006525D01*
X001224Y006497D01*
X001224Y006375D01*
X000650Y006375D01*
X000650Y006375D01*
X001224Y006375D01*
X001224Y005991D01*
X001212Y005933D01*
X001190Y005879D01*
X001157Y005830D01*
X001115Y005788D01*
X001066Y005755D01*
X001012Y005732D01*
X000954Y005721D01*
X000650Y005721D01*
X000650Y005579D02*
X007355Y005579D01*
X007355Y005978D02*
X006633Y005978D01*
X007445Y005181D02*
X000650Y005181D01*
X000650Y004782D02*
X007714Y004782D01*
X008300Y004782D02*
X008300Y004782D01*
X008300Y004879D02*
X008300Y004879D01*
X008300Y005115D02*
X009831Y003585D01*
X011250Y003585D01*
X011335Y003500D01*
X012750Y003500D01*
X013980Y003066D02*
X013980Y002947D01*
X014000Y002899D01*
X014000Y002601D01*
X013917Y002400D01*
X018984Y002400D01*
X021947Y005401D01*
X021877Y005442D01*
X021807Y005495D01*
X021745Y005557D01*
X021692Y005627D01*
X021648Y005703D01*
X021614Y005784D01*
X021591Y005869D01*
X021580Y005956D01*
X021580Y006000D01*
X022041Y006000D01*
X022041Y006000D01*
X021580Y006000D01*
X021580Y006044D01*
X021591Y006131D01*
X021607Y006190D01*
X021336Y006190D01*
X018459Y003313D01*
X018161Y003190D01*
X014586Y003190D01*
X014585Y003189D01*
X014287Y003066D01*
X013980Y003066D01*
X014000Y002790D02*
X019368Y002790D01*
X019762Y003188D02*
X014582Y003188D01*
X012742Y004624D02*
X011376Y004624D01*
X009750Y006250D01*
X009617Y005181D02*
X009488Y005181D01*
X010016Y004782D02*
X008886Y004782D01*
X010414Y004384D02*
X000650Y004384D01*
X000650Y003985D02*
X010690Y003985D01*
X010451Y003587D02*
X000650Y003587D01*
X000650Y003188D02*
X010305Y003188D01*
X010305Y002790D02*
X000650Y002790D01*
X002000Y005000D02*
X002000Y005600D01*
X001225Y006375D01*
X001224Y006376D02*
X003303Y006376D01*
X003800Y006376D02*
X003800Y006376D01*
X004297Y006376D02*
X004659Y006376D01*
X004270Y006556D02*
X004270Y006556D01*
X004544Y006775D02*
X004659Y006775D01*
X004979Y006700D02*
X004979Y006700D01*
X005137Y005978D02*
X001221Y005978D01*
X000550Y006375D02*
X000550Y006550D01*
X001503Y006775D02*
X002330Y006775D01*
X005451Y008516D02*
X005734Y008799D01*
X007149Y007384D02*
X006866Y007101D01*
X001740Y009362D02*
X001636Y009319D01*
X001509Y009192D01*
X001475Y009192D01*
X001475Y009192D01*
X001292Y009375D01*
X001224Y009403D01*
X001224Y009525D01*
X001224Y009909D01*
X001212Y009967D01*
X001190Y010021D01*
X001157Y010070D01*
X001115Y010112D01*
X001066Y010145D01*
X001012Y010168D01*
X000954Y010179D01*
X000650Y010179D01*
X000650Y013611D01*
X000680Y013605D01*
X000799Y013605D01*
X000828Y013537D01*
X001011Y013354D01*
X001249Y013255D01*
X001759Y013255D01*
X001731Y013186D01*
X001731Y012179D01*
X001804Y012002D01*
X001753Y011900D01*
X001751Y011871D01*
X001740Y011843D01*
X001740Y011711D01*
X001731Y011579D01*
X001740Y011551D01*
X001740Y009362D01*
X001740Y009564D02*
X001224Y009564D01*
X001224Y009525D02*
X000650Y009525D01*
X000650Y009525D01*
X001224Y009525D01*
X001213Y009963D02*
X001740Y009963D01*
X001740Y010361D02*
X000650Y010361D01*
X000650Y010760D02*
X001740Y010760D01*
X001740Y011158D02*
X000650Y011158D01*
X000650Y011557D02*
X001738Y011557D01*
X001781Y011955D02*
X000650Y011955D01*
X000650Y012354D02*
X001731Y012354D01*
X001731Y012752D02*
X000650Y012752D01*
X000650Y013151D02*
X001731Y013151D01*
X000823Y013549D02*
X000650Y013549D01*
X000650Y014789D02*
X000650Y015346D01*
X018932Y015346D01*
X022301Y012020D01*
X022116Y012020D01*
X021856Y011950D01*
X021624Y011816D01*
X021434Y011626D01*
X021300Y011394D01*
X021230Y011134D01*
X021230Y010866D01*
X021245Y010810D01*
X021086Y010810D01*
X019459Y012437D01*
X019161Y012560D01*
X016586Y012560D01*
X015209Y013937D01*
X014911Y014060D01*
X012792Y014060D01*
X012721Y014231D01*
X012481Y014471D01*
X012169Y014600D01*
X010581Y014600D01*
X010269Y014471D01*
X010029Y014231D01*
X008791Y012993D01*
X008791Y013625D01*
X008692Y013863D01*
X008509Y014046D01*
X008270Y014145D01*
X007499Y014145D01*
X007261Y014046D01*
X007078Y013863D01*
X007049Y013795D01*
X006930Y013795D01*
X006872Y013784D01*
X006817Y013761D01*
X006768Y013728D01*
X006726Y013687D01*
X006694Y013637D01*
X006671Y013583D01*
X006659Y013525D01*
X006659Y013200D01*
X006979Y013200D01*
X006659Y013200D01*
X006659Y012900D01*
X006646Y012914D01*
X006441Y013119D01*
X006172Y013230D01*
X005954Y013230D01*
X005669Y013348D01*
X005331Y013348D01*
X005020Y013219D01*
X004781Y012980D01*
X004652Y012669D01*
X004652Y012395D01*
X004580Y012395D01*
X004369Y012308D01*
X004369Y013186D01*
X004285Y013390D01*
X004639Y013390D01*
X004731Y013352D01*
X005069Y013352D01*
X005380Y013481D01*
X005619Y013720D01*
X005748Y014031D01*
X005748Y014369D01*
X005619Y014680D01*
X005380Y014919D01*
X005069Y015048D01*
X004731Y015048D01*
X004639Y015010D01*
X004220Y015010D01*
X004087Y015143D01*
X019137Y015143D01*
X019541Y014745D02*
X005555Y014745D01*
X005748Y014346D02*
X010144Y014346D01*
X009745Y013948D02*
X008608Y013948D01*
X008791Y013549D02*
X009347Y013549D01*
X008948Y013151D02*
X008791Y013151D01*
X009500Y012500D02*
X010750Y013750D01*
X012000Y013750D01*
X012606Y014346D02*
X019945Y014346D01*
X020349Y013948D02*
X015183Y013948D01*
X015597Y013549D02*
X020752Y013549D01*
X021156Y013151D02*
X015995Y013151D01*
X016000Y013000D02*
X014125Y014875D01*
X006125Y014875D01*
X005713Y013948D02*
X007162Y013948D01*
X006664Y013549D02*
X005448Y013549D01*
X004951Y013151D02*
X004369Y013151D01*
X004369Y012752D02*
X004686Y012752D01*
X004479Y012354D02*
X004369Y012354D01*
X006364Y013151D02*
X006659Y013151D01*
X006979Y013200D02*
X006979Y013200D01*
X004087Y015143D02*
X003849Y015242D01*
X002251Y015242D01*
X002019Y015145D01*
X001249Y015145D01*
X001011Y015046D01*
X000828Y014863D01*
X000799Y014795D01*
X000680Y014795D01*
X000650Y014789D01*
X000650Y015143D02*
X001244Y015143D01*
X011500Y011750D02*
X012000Y012250D01*
X012000Y012750D01*
X016394Y012752D02*
X021560Y012752D01*
X021963Y012354D02*
X019542Y012354D01*
X019941Y011955D02*
X021873Y011955D01*
X021394Y011557D02*
X020339Y011557D01*
X020738Y011158D02*
X021236Y011158D01*
X018190Y008630D02*
X018190Y008586D01*
X017164Y007560D01*
X016226Y007560D01*
X016141Y007595D01*
X016141Y007750D01*
X016141Y008075D01*
X016129Y008133D01*
X016106Y008187D01*
X016074Y008237D01*
X016032Y008278D01*
X015983Y008311D01*
X015928Y008334D01*
X015870Y008345D01*
X015751Y008345D01*
X015722Y008413D01*
X015539Y008596D01*
X015478Y008622D01*
X015549Y008694D01*
X015774Y008601D01*
X015931Y008601D01*
X016027Y008504D01*
X016266Y008405D01*
X017234Y008405D01*
X017473Y008504D01*
X017489Y008521D01*
X017926Y008521D01*
X018190Y008630D01*
X017973Y008369D02*
X015741Y008369D01*
X016141Y007970D02*
X017574Y007970D01*
X017176Y007572D02*
X016198Y007572D01*
X016141Y007750D02*
X015821Y007750D01*
X016141Y007750D01*
X015821Y007750D02*
X015821Y007750D01*
X014915Y007750D02*
X012000Y007750D01*
X012250Y006650D02*
X012837Y006650D01*
X012887Y006700D01*
X012000Y005750D02*
X012050Y005700D01*
X012887Y005700D01*
X018732Y003587D02*
X020155Y003587D01*
X020549Y003985D02*
X019131Y003985D01*
X019529Y004384D02*
X020942Y004384D01*
X021335Y004782D02*
X019928Y004782D01*
X020326Y005181D02*
X021729Y005181D01*
X021729Y005579D02*
X020725Y005579D01*
X021123Y005978D02*
X021580Y005978D01*
D21*
X022250Y006000D03*
X022250Y007000D03*
X022250Y008000D03*
X022250Y009000D03*
X022250Y010000D03*
X022250Y011000D03*
D22*
X001593Y008462D03*
X001593Y008206D03*
X001593Y007950D03*
X001593Y007694D03*
X001593Y007438D03*
D23*
X000550Y006375D03*
X000550Y009525D03*
D24*
X000550Y008450D03*
X000550Y007450D03*
D25*
X001593Y007438D02*
X001650Y007381D01*
X001650Y007000D01*
X002300Y007950D02*
X002800Y007450D01*
X002300Y007950D02*
X001593Y007950D01*
X001599Y008200D02*
X002800Y008200D01*
X002300Y008700D02*
X002050Y008700D01*
X001800Y008450D01*
X001605Y008450D01*
X001593Y008462D01*
X001593Y008206D02*
X001599Y008200D01*
X006300Y008450D02*
X006741Y008450D01*
X007326Y009034D01*
X007548Y008812D02*
X006950Y008214D01*
X006950Y008200D01*
X007550Y008368D02*
X007550Y006550D01*
X008250Y006500D02*
X008250Y007250D01*
X007800Y007700D01*
X007800Y008173D01*
X007994Y008366D01*
X008300Y008673D01*
X008300Y008950D01*
X007384Y009866D01*
X007326Y009866D01*
X007548Y010088D01*
X007771Y010311D02*
X006632Y011450D01*
X005635Y011450D01*
X005500Y012500D02*
X006027Y012500D01*
X007994Y010534D01*
X008216Y010756D02*
X007550Y011423D01*
X007550Y011700D01*
X008150Y011650D02*
X008150Y011268D01*
X008439Y010979D01*
X009500Y011640D02*
X009500Y012500D01*
X009500Y011640D02*
X009716Y011424D01*
X009938Y011202D02*
X011486Y013250D01*
X011541Y013750D02*
X012000Y013750D01*
X011500Y011750D02*
X010932Y011750D01*
X010161Y010979D01*
X011274Y009866D02*
X012640Y011000D01*
X014000Y011000D01*
X013650Y010500D02*
X013300Y010150D01*
X013250Y010150D01*
X012659Y010150D01*
X012390Y010150D01*
X011274Y009034D01*
X011052Y008812D02*
X011614Y008250D01*
X012250Y008250D01*
X014000Y010000D01*
X013650Y010500D02*
X014500Y010500D01*
X015000Y010000D01*
X014500Y009500D02*
X015750Y009500D01*
X015919Y009331D01*
X016750Y009331D01*
X014500Y009500D02*
X014000Y009000D01*
X012000Y007750D02*
X011223Y007750D01*
X010606Y008366D01*
X010161Y007921D02*
X011382Y006700D01*
X012200Y006700D01*
X012250Y006650D01*
X012000Y005750D02*
X011886Y005750D01*
X009938Y007698D01*
X009716Y007476D02*
X009750Y007441D01*
X009750Y006250D01*
X009250Y006000D02*
X009000Y006500D01*
X008750Y006750D01*
X008750Y007341D01*
X008884Y007476D01*
X007771Y008589D02*
X007550Y008368D01*
X013250Y004250D02*
X013250Y002750D01*
X012750Y003500D02*
X012742Y003508D01*
X012742Y003876D01*
X013250Y004250D02*
X013624Y004624D01*
X013762Y004624D01*
X013835Y004697D01*
X011415Y002750D02*
X011250Y002915D01*
D26*
X013762Y003876D02*
X014126Y003876D01*
X014250Y004000D01*
X018000Y004000D01*
X021000Y007000D01*
X022250Y007000D01*
X019000Y008250D02*
X019000Y010250D01*
X018965Y010285D01*
X018050Y010285D01*
X017665Y010669D01*
X016750Y010669D01*
X016419Y011000D01*
X015000Y011000D01*
X016250Y011750D02*
X019000Y011750D01*
X020750Y010000D01*
X022250Y010000D01*
X019000Y008250D02*
X017500Y006750D01*
X015685Y006750D01*
X015635Y006700D01*
X015635Y005450D01*
X014965Y005450D02*
X013963Y005450D01*
X013713Y005700D01*
X013713Y006700D02*
X014965Y006700D01*
X015585Y007750D02*
X015585Y008415D01*
X015000Y009000D01*
X016750Y009331D02*
X017765Y009331D01*
X018050Y009615D01*
X016250Y011750D02*
X014750Y013250D01*
X011486Y013250D01*
X008150Y012400D02*
X008150Y011650D01*
X007550Y011700D02*
X007215Y012035D01*
X007215Y013200D01*
X007050Y013365D01*
X007050Y013950D01*
X006125Y014875D01*
X006050Y014950D01*
X001050Y014950D01*
X000965Y014865D01*
X000965Y014200D01*
X000550Y013785D01*
X000550Y011450D01*
X001550Y011450D01*
X000550Y011450D02*
X000550Y009525D01*
X000550Y009400D01*
X000500Y009350D01*
X000550Y009525D02*
X001075Y009525D01*
X001600Y009000D01*
X001550Y008950D01*
X001050Y008950D01*
X000550Y008450D01*
X000550Y006550D01*
X000550Y006525D01*
X000625Y006450D01*
X001225Y006375D02*
X001650Y006800D01*
X001650Y007000D01*
X002300Y007000D01*
X002750Y006550D01*
X003794Y006550D01*
X003800Y006556D01*
X003806Y006550D01*
X004450Y006550D01*
X004600Y006700D01*
X005215Y006700D01*
X005215Y005785D01*
X005300Y005700D01*
X006700Y005700D01*
X007000Y006000D01*
X007000Y005850D01*
X007735Y005115D01*
X008300Y005115D01*
X008300Y005785D02*
X008250Y005835D01*
X008250Y006500D01*
X007550Y006550D02*
X007000Y006000D01*
X006135Y006950D02*
X005885Y006700D01*
X006135Y006950D02*
X006300Y006950D01*
X006593Y007243D01*
X007007Y007243D01*
X007007Y007493D01*
X006800Y007700D01*
X006800Y008050D01*
X006950Y008200D01*
X006550Y008450D02*
X006300Y008450D01*
X006050Y008450D01*
X006050Y007865D01*
X005885Y007700D01*
X005215Y007700D02*
X005215Y006700D01*
X004300Y007700D02*
X003944Y007344D01*
X003800Y007344D01*
X002906Y007344D01*
X002800Y007450D01*
X002800Y008200D02*
X003300Y008700D01*
X003300Y009806D01*
X003906Y009806D01*
X004050Y009950D01*
X004050Y010535D01*
X004965Y011450D01*
X005750Y010250D02*
X005635Y010135D01*
X005635Y009950D01*
X004965Y009950D02*
X004300Y009285D01*
X004300Y007700D01*
X003806Y007350D02*
X003800Y007344D01*
X002300Y008700D02*
X002550Y008950D01*
X002550Y011682D01*
X003050Y012682D01*
X003300Y011450D02*
X003300Y010594D01*
X005593Y008657D02*
X005800Y008450D01*
X006050Y008450D01*
X007116Y009866D02*
X007326Y009866D01*
X007116Y009866D02*
X006550Y010200D01*
X008150Y012400D02*
X007885Y012665D01*
X007885Y013200D01*
X004900Y014200D02*
X003068Y014200D01*
X003050Y014218D01*
X001652Y014218D01*
X001635Y014200D01*
X001706Y007056D02*
X001650Y007000D01*
D27*
X005750Y010250D03*
X006550Y010200D03*
X005500Y012500D03*
X003300Y011450D03*
X001550Y011450D03*
X004900Y014200D03*
X012000Y013750D03*
X012000Y012750D03*
X016000Y013000D03*
X009250Y006000D03*
D28*
X001650Y007000D03*
X000550Y006550D03*
X001600Y009000D03*
X000500Y009350D03*
D29*
X011415Y002750D02*
X013250Y002750D01*
D30*
X012742Y004250D02*
X012742Y004624D01*
X012626Y004624D01*
M02*
