%
M48
M72
T01C0.0236
T02C0.0240
T03C0.0354
T04C0.0374
T05C0.0400
%
T01
X9250Y6000
X6550Y10200
X5750Y10250
X3300Y11450
X1550Y11450
X5500Y12500
X4900Y14200
X12000Y13750
X12000Y12750
X16000Y13000
T02
X7007Y7243
X5593Y8657
T03
X1600Y9000
X500Y9350
X1650Y7000
X550Y6550
T04
X14000Y9000
X15000Y9000
X15000Y10000
X14000Y10000
X14000Y11000
X15000Y11000
T05
X22250Y11000
X22250Y10000
X22250Y9000
X22250Y8000
X22250Y7000
X22250Y6000
M30
