<svg xmlns="http://www.w3.org/2000/svg" version="1.1" width="300.7mm" height="144.7mm" viewBox = " 0 0 1065.473317 512.716957" >
<!-- Front--> 
<g transform="translate(22.5000185, 22.5000185) " > 
<polygon style="stroke:#000000; fill:none; stroke-width:0.90000074" points="0, 0 29.2323075, 0 29.2323075, 10.62993 58.464615, 10.62993 58.464615, 0 79.724475, 0 79.724475, 10.62993 100.984335, 10.62993 100.984335, 0 122.24419499999999, 0 122.24419499999999, 10.62993 143.504055, 10.62993 143.504055, 0 164.763915, 0 164.763915, 10.62993 186.023775, 10.62993 186.023775, 0 207.283635, 0 207.283635, 10.62993 228.543495, 10.62993 228.543495, 0 249.803355, 0 249.803355, 10.62993 271.063215, 10.62993 271.063215, 0 292.323075, 0 292.323075, 10.62993 313.58293499999996, 10.62993 313.58293499999996, 0 334.84279499999997, 0 334.84279499999997, 10.62993 364.07510249999996, 10.62993 364.07510249999996, 0 393.30741, 0 393.30741, 31.889789999999998 382.67748, 31.889789999999998 382.67748, 63.779579999999996 393.30741, 63.779579999999996 393.30741, 85.03944 382.67748, 85.03944 382.67748, 106.29929999999999 393.30741, 106.29929999999999 393.30741, 127.55915999999999 382.67748, 127.55915999999999 382.67748, 148.81902 393.30741, 148.81902 393.30741, 170.07888 382.67748, 170.07888 382.67748, 201.96866999999997 393.30741, 201.96866999999997 393.30741, 233.85846 364.07510249999996, 233.85846 364.07510249999996, 223.22853 334.84279499999997, 223.22853 334.84279499999997, 233.85846 313.58293499999996, 233.85846 313.58293499999996, 223.22853 292.323075, 223.22853 292.323075, 233.85846 271.063215, 233.85846 271.063215, 223.22853 249.803355, 223.22853 249.803355, 233.85846 228.543495, 233.85846 228.543495, 223.22853 207.283635, 223.22853 207.283635, 233.85846 186.023775, 233.85846 186.023775, 223.22853 164.763915, 223.22853 164.763915, 233.85846 143.504055, 233.85846 143.504055, 223.22853 122.24419499999999, 223.22853 122.24419499999999, 233.85846 100.984335, 233.85846 100.984335, 223.22853 79.724475, 223.22853 79.724475, 233.85846 58.464615, 233.85846 58.464615, 223.22853 29.2323075, 223.22853 29.2323075, 233.85846 0, 233.85845999999998 0, 201.96866999999997 10.62993, 201.96866999999997 10.62993, 170.07888 0, 170.07888 0, 148.81902 10.62993, 148.81902 10.62993, 127.55915999999999 0, 127.55915999999999 0, 106.29929999999999 10.62993, 106.29929999999999 10.62993, 85.03944 0, 85.03944 0, 63.779579999999996 10.62993, 63.779579999999996 10.62993, 31.889789999999998 0, 31.889789999999998 "/> 
 <rect x="58.464615" y="28.34648" width="272.83487" height="176.102507" rx="0" ry="0" style="stroke:#000000;stroke-width:0.90000074;fill:none" /> 
</g>
<!-- Back--> 
<g transform="translate(415.80742849999996, 22.5000185) " > 
 <rect x="186.023775" y="106.2993" width="90.000074" height="19.133874000000002" rx="0" ry="0" style="stroke:#000000;stroke-width:0.90000074;fill:none" /> 
<polygon style="stroke:#000000; fill:none; stroke-width:0.90000074" points="0, 0 29.2323075, 0 29.2323075, 10.62993 58.464615, 10.62993 58.464615, 0 79.724475, 0 79.724475, 10.62993 100.984335, 10.62993 100.984335, 0 122.24419499999999, 0 122.24419499999999, 10.62993 143.504055, 10.62993 143.504055, 0 164.763915, 0 164.763915, 10.62993 186.023775, 10.62993 186.023775, 0 207.283635, 0 207.283635, 10.62993 228.543495, 10.62993 228.543495, 0 249.803355, 0 249.803355, 10.62993 271.063215, 10.62993 271.063215, 0 292.323075, 0 292.323075, 10.62993 313.58293499999996, 10.62993 313.58293499999996, 0 334.84279499999997, 0 334.84279499999997, 10.62993 364.07510249999996, 10.62993 364.07510249999996, 0 393.30741, 0 393.30741, 31.889789999999998 382.67748, 31.889789999999998 382.67748, 63.779579999999996 393.30741, 63.779579999999996 393.30741, 85.03944 382.67748, 85.03944 382.67748, 106.29929999999999 393.30741, 106.29929999999999 393.30741, 127.55915999999999 382.67748, 127.55915999999999 382.67748, 148.81902 393.30741, 148.81902 393.30741, 170.07888 382.67748, 170.07888 382.67748, 201.96866999999997 393.30741, 201.96866999999997 393.30741, 233.85846 364.07510249999996, 233.85846 364.07510249999996, 223.22853 334.84279499999997, 223.22853 334.84279499999997, 233.85846 313.58293499999996, 233.85846 313.58293499999996, 223.22853 292.323075, 223.22853 292.323075, 233.85846 271.063215, 233.85846 271.063215, 223.22853 249.803355, 223.22853 249.803355, 233.85846 228.543495, 233.85846 228.543495, 223.22853 207.283635, 223.22853 207.283635, 233.85846 186.023775, 233.85846 186.023775, 223.22853 164.763915, 223.22853 164.763915, 233.85846 143.504055, 233.85846 143.504055, 223.22853 122.24419499999999, 223.22853 122.24419499999999, 233.85846 100.984335, 233.85846 100.984335, 223.22853 79.724475, 223.22853 79.724475, 233.85846 58.464615, 233.85846 58.464615, 223.22853 29.2323075, 223.22853 29.2323075, 233.85846 0, 233.85845999999998 0, 201.96866999999997 10.62993, 201.96866999999997 10.62993, 170.07888 0, 170.07888 0, 148.81902 10.62993, 148.81902 10.62993, 127.55915999999999 0, 127.55915999999999 0, 106.29929999999999 10.62993, 106.29929999999999 10.62993, 85.03944 0, 85.03944 0, 63.779579999999996 10.62993, 63.779579999999996 10.62993, 31.889789999999998 0, 31.889789999999998 "/> 
</g>
<!-- Left--> 
<g transform="translate(809.1148385, 22.5000185) " > 
<polygon style="stroke:#000000; fill:none; stroke-width:0.90000074" points="10.62993, 0 31.889789999999998, 0 31.889789999999998, 10.62993 63.779579999999996, 10.62993 63.779579999999996, 0 85.03944, 0 85.03944, 10.62993 106.29929999999999, 10.62993 106.29929999999999, 0 127.55915999999999, 0 127.55915999999999, 10.62993 148.81902, 10.62993 148.81902, 0 170.07888, 0 170.07888, 10.62993 201.96866999999997, 10.62993 201.96866999999997, 0 223.22853, 0 223.22853, 31.889789999999998 233.85846, 31.889789999999998 233.85846, 63.779579999999996 223.22853, 63.779579999999996 223.22853, 85.03944 233.85846, 85.03944 233.85846, 106.29929999999999 223.22853, 106.29929999999999 223.22853, 127.55915999999999 233.85846, 127.55915999999999 233.85846, 148.81902 223.22853, 148.81902 223.22853, 170.07888 233.85846, 170.07888 233.85846, 201.96866999999997 223.22853, 201.96866999999997 223.22852999999998, 233.85846 201.96866999999997, 233.85846 201.96866999999997, 223.22853 170.07888, 223.22853 170.07888, 233.85846 148.81902, 233.85846 148.81902, 223.22853 127.55915999999999, 223.22853 127.55915999999999, 233.85846 106.29929999999999, 233.85846 106.29929999999999, 223.22853 85.03944, 223.22853 85.03944, 233.85846 63.779579999999996, 233.85846 63.779579999999996, 223.22853 31.889789999999998, 223.22853 31.889789999999998, 233.85846 10.62993, 233.85845999999998 10.62993, 201.96866999999997 0, 201.96866999999997 0, 170.07888 10.62993, 170.07888 10.62993, 148.81902 0, 148.81902 0, 127.55915999999999 10.62993, 127.55915999999999 10.62993, 106.29929999999999 0, 106.29929999999999 0, 85.03944 10.62993, 85.03944 10.62993, 63.779579999999996 0, 63.779579999999996 0, 31.889789999999998 10.62993, 31.889789999999998 "/> 
</g>
<!-- Right--> 
<g transform="translate(809.1148385, 256.3584785) " > 
<polygon style="stroke:#000000; fill:none; stroke-width:0.90000074" points="10.62993, 0 31.889789999999998, 0 31.889789999999998, 10.62993 63.779579999999996, 10.62993 63.779579999999996, 0 85.03944, 0 85.03944, 10.62993 106.29929999999999, 10.62993 106.29929999999999, 0 127.55915999999999, 0 127.55915999999999, 10.62993 148.81902, 10.62993 148.81902, 0 170.07888, 0 170.07888, 10.62993 201.96866999999997, 10.62993 201.96866999999997, 0 223.22853, 0 223.22853, 31.889789999999998 233.85846, 31.889789999999998 233.85846, 63.779579999999996 223.22853, 63.779579999999996 223.22853, 85.03944 233.85846, 85.03944 233.85846, 106.29929999999999 223.22853, 106.29929999999999 223.22853, 127.55915999999999 233.85846, 127.55915999999999 233.85846, 148.81902 223.22853, 148.81902 223.22853, 170.07888 233.85846, 170.07888 233.85846, 201.96866999999997 223.22853, 201.96866999999997 223.22852999999998, 233.85846 201.96866999999997, 233.85846 201.96866999999997, 223.22853 170.07888, 223.22853 170.07888, 233.85846 148.81902, 233.85846 148.81902, 223.22853 127.55915999999999, 223.22853 127.55915999999999, 233.85846 106.29929999999999, 233.85846 106.29929999999999, 223.22853 85.03944, 223.22853 85.03944, 233.85846 63.779579999999996, 233.85846 63.779579999999996, 223.22853 31.889789999999998, 223.22853 31.889789999999998, 233.85846 10.62993, 233.85845999999998 10.62993, 201.96866999999997 0, 201.96866999999997 0, 170.07888 10.62993, 170.07888 10.62993, 148.81902 0, 148.81902 0, 127.55915999999999 10.62993, 127.55915999999999 10.62993, 106.29929999999999 0, 106.29929999999999 0, 85.03944 10.62993, 85.03944 10.62993, 63.779579999999996 0, 63.779579999999996 0, 31.889789999999998 10.62993, 31.889789999999998 "/> 
</g>
<!-- Top--> 
<g transform="translate(22.5000185, 256.3584785) " > 
<polygon style="stroke:#000000; fill:none; stroke-width:0.90000074" points="10.62993, 10.62993 29.2323075, 10.62993 29.2323075, 0 58.464615, 0 58.464615, 10.62993 79.724475, 10.62993 79.724475, 0 100.984335, 0 100.984335, 10.62993 122.24419499999999, 10.62993 122.24419499999999, 0 143.504055, 0 143.504055, 10.62993 164.763915, 10.62993 164.763915, 0 186.023775, 0 186.023775, 10.62993 207.283635, 10.62993 207.283635, 0 228.543495, 0 228.543495, 10.62993 249.803355, 10.62993 249.803355, 0 271.063215, 0 271.063215, 10.62993 292.323075, 10.62993 292.323075, 0 313.58293499999996, 0 313.58293499999996, 10.62993 334.84279499999997, 10.62993 334.84279499999997, 0 364.07510249999996, 0 364.07510249999996, 10.62993 382.67748, 10.62993 382.67748, 31.889789999999998 393.30741, 31.889789999999998 393.30741, 63.779579999999996 382.67748, 63.779579999999996 382.67748, 85.03944 393.30741, 85.03944 393.30741, 106.29929999999999 382.67748, 106.29929999999999 382.67748, 127.55915999999999 393.30741, 127.55915999999999 393.30741, 148.81902 382.67748, 148.81902 382.67748, 170.07888 393.30741, 170.07888 393.30741, 201.96866999999997 382.67748, 201.96866999999997 382.67748, 223.22853 364.07510249999996, 223.22853 364.07510249999996, 233.85846 334.84279499999997, 233.85846 334.84279499999997, 223.22853 313.58293499999996, 223.22853 313.58293499999996, 233.85846 292.323075, 233.85846 292.323075, 223.22853 271.063215, 223.22853 271.063215, 233.85846 249.803355, 233.85846 249.803355, 223.22853 228.543495, 223.22853 228.543495, 233.85846 207.283635, 233.85846 207.283635, 223.22853 186.023775, 223.22853 186.023775, 233.85846 164.763915, 233.85846 164.763915, 223.22853 143.504055, 223.22853 143.504055, 233.85846 122.24419499999999, 233.85846 122.24419499999999, 223.22853 100.984335, 223.22853 100.984335, 233.85846 79.724475, 233.85846 79.724475, 223.22853 58.464615, 223.22853 58.464615, 233.85846 29.2323075, 233.85846 29.2323075, 223.22853 10.62993, 223.22852999999998 10.62993, 201.96866999999997 0, 201.96866999999997 0, 170.07888 10.62993, 170.07888 10.62993, 148.81902 0, 148.81902 0, 127.55915999999999 10.62993, 127.55915999999999 10.62993, 106.29929999999999 0, 106.29929999999999 0, 85.03944 10.62993, 85.03944 10.62993, 63.779579999999996 0, 63.779579999999996 0, 31.889789999999998 10.62993, 31.889789999999998 "/> 
</g>
<!-- Bottom--> 
<g transform="translate(415.80742849999996, 256.3584785) " > 
 <circle cx="127.55915999999999" cy="106.2993" r="14.17324" style="stroke:#000000;stroke-width:0.90000074;fill:none" /> 
 <circle cx="255.11831999999998" cy="106.2993" r="14.17324" style="stroke:#000000;stroke-width:0.90000074;fill:none" /> 
<polygon style="stroke:#000000; fill:none; stroke-width:0.90000074" points="10.62993, 10.62993 29.2323075, 10.62993 29.2323075, 0 58.464615, 0 58.464615, 10.62993 79.724475, 10.62993 79.724475, 0 100.984335, 0 100.984335, 10.62993 122.24419499999999, 10.62993 122.24419499999999, 0 143.504055, 0 143.504055, 10.62993 164.763915, 10.62993 164.763915, 0 186.023775, 0 186.023775, 10.62993 207.283635, 10.62993 207.283635, 0 228.543495, 0 228.543495, 10.62993 249.803355, 10.62993 249.803355, 0 271.063215, 0 271.063215, 10.62993 292.323075, 10.62993 292.323075, 0 313.58293499999996, 0 313.58293499999996, 10.62993 334.84279499999997, 10.62993 334.84279499999997, 0 364.07510249999996, 0 364.07510249999996, 10.62993 382.67748, 10.62993 382.67748, 31.889789999999998 393.30741, 31.889789999999998 393.30741, 63.779579999999996 382.67748, 63.779579999999996 382.67748, 85.03944 393.30741, 85.03944 393.30741, 106.29929999999999 382.67748, 106.29929999999999 382.67748, 127.55915999999999 393.30741, 127.55915999999999 393.30741, 148.81902 382.67748, 148.81902 382.67748, 170.07888 393.30741, 170.07888 393.30741, 201.96866999999997 382.67748, 201.96866999999997 382.67748, 223.22853 364.07510249999996, 223.22853 364.07510249999996, 233.85846 334.84279499999997, 233.85846 334.84279499999997, 223.22853 313.58293499999996, 223.22853 313.58293499999996, 233.85846 292.323075, 233.85846 292.323075, 223.22853 271.063215, 223.22853 271.063215, 233.85846 249.803355, 233.85846 249.803355, 223.22853 228.543495, 223.22853 228.543495, 233.85846 207.283635, 233.85846 207.283635, 223.22853 186.023775, 223.22853 186.023775, 233.85846 164.763915, 233.85846 164.763915, 223.22853 143.504055, 223.22853 143.504055, 233.85846 122.24419499999999, 233.85846 122.24419499999999, 223.22853 100.984335, 223.22853 100.984335, 233.85846 79.724475, 233.85846 79.724475, 223.22853 58.464615, 223.22853 58.464615, 233.85846 29.2323075, 233.85846 29.2323075, 223.22853 10.62993, 223.22852999999998 10.62993, 201.96866999999997 0, 201.96866999999997 0, 170.07888 10.62993, 170.07888 10.62993, 148.81902 0, 148.81902 0, 127.55915999999999 10.62993, 127.55915999999999 10.62993, 106.29929999999999 0, 106.29929999999999 0, 85.03944 10.62993, 85.03944 10.62993, 63.779579999999996 0, 63.779579999999996 0, 31.889789999999998 10.62993, 31.889789999999998 "/> 
</g></svg>