G75*
%MOIN*%
%OFA0B0*%
%FSLAX24Y24*%
%IPPOS*%
%LPD*%
%AMOC8*
5,1,8,0,0,1.08239X$1,22.5*
%
%ADD10R,0.0769X0.0493*%
%ADD11R,0.0572X0.0651*%
%ADD12R,0.0651X0.0572*%
%ADD13R,0.0473X0.0572*%
%ADD14R,0.0454X0.0532*%
%ADD15R,0.0414X0.0336*%
%ADD16R,0.0178X0.0532*%
%ADD17R,0.0532X0.0178*%
%ADD18C,0.0142*%
%ADD19C,0.0448*%
%ADD20C,0.0022*%
%ADD21C,0.0066*%
%ADD22C,0.0560*%
%ADD23C,0.0550*%
%ADD24C,0.0532*%
%ADD25R,0.0532X0.0532*%
%ADD26R,0.1399X0.0808*%
%ADD27C,0.0136*%
%ADD28C,0.0050*%
%ADD29OC8,0.0670*%
%ADD30R,0.0454X0.0454*%
%ADD31R,0.0769X0.0611*%
%ADD32R,0.0217X0.0336*%
%ADD33R,0.0572X0.0473*%
%ADD34R,0.0540X0.0940*%
%ADD35R,0.1477X0.0926*%
%ADD36R,0.0576X0.1635*%
%ADD37R,0.3406X0.3997*%
%ADD38R,0.0847X0.0375*%
%ADD39OC8,0.0910*%
%ADD40R,0.0257X0.0926*%
%ADD41C,0.0600*%
%ADD42OC8,0.0600*%
%ADD43C,0.0540*%
%ADD44R,0.0840X0.0460*%
%ADD45R,0.0410X0.0370*%
%ADD46R,0.0572X0.0690*%
%ADD47R,0.0690X0.0572*%
%ADD48C,0.0436*%
D10*
X014211Y015333D03*
X014211Y016554D03*
D11*
X014216Y017514D03*
X013546Y017514D03*
X013546Y018614D03*
X014216Y018614D03*
X014216Y019714D03*
X013546Y019714D03*
X012766Y016564D03*
X012096Y016564D03*
X012096Y015504D03*
X012766Y015504D03*
X012766Y014344D03*
X012096Y014344D03*
X013546Y013274D03*
X014216Y013274D03*
X014216Y012184D03*
X013546Y012184D03*
X013546Y011024D03*
X014216Y011024D03*
X015216Y010664D03*
X015886Y010664D03*
X015886Y009454D03*
X015216Y009454D03*
X015216Y008244D03*
X015886Y008244D03*
X013176Y008214D03*
X012506Y008214D03*
X011296Y008244D03*
X010626Y008244D03*
X008336Y011164D03*
X007666Y011164D03*
X006376Y011234D03*
X005706Y011234D03*
X005756Y009694D03*
X006426Y009694D03*
X006416Y008694D03*
X005746Y008694D03*
X004706Y008054D03*
X004036Y008054D03*
X006476Y004514D03*
X007146Y004514D03*
X007166Y003614D03*
X006496Y003614D03*
X013714Y005039D03*
X014384Y005039D03*
X021546Y005444D03*
X022216Y005444D03*
X022186Y006514D03*
X021516Y006514D03*
X025766Y007064D03*
X026436Y007064D03*
X026416Y008274D03*
X025746Y008274D03*
X028856Y010524D03*
X029526Y010524D03*
X029526Y011774D03*
X028856Y011774D03*
X027836Y013074D03*
X027166Y013074D03*
X027116Y014494D03*
X027786Y014494D03*
X027856Y016494D03*
X028526Y016494D03*
X032206Y022274D03*
X032876Y022274D03*
X018596Y020574D03*
X017926Y020574D03*
X017926Y019414D03*
X018596Y019414D03*
X009176Y015774D03*
X008506Y015774D03*
X003226Y012064D03*
X002556Y012064D03*
D12*
X006721Y007808D03*
X006721Y007139D03*
X009552Y005439D03*
X009552Y004769D03*
X009391Y010529D03*
X009391Y011198D03*
X010511Y011238D03*
X010511Y010569D03*
X015101Y014169D03*
X015101Y014838D03*
X021751Y019859D03*
X021751Y020528D03*
X023141Y020538D03*
X023141Y019869D03*
X024441Y019869D03*
X024441Y020538D03*
X026191Y020558D03*
X026191Y019889D03*
X027491Y021839D03*
X027491Y022508D03*
X031091Y016708D03*
X031091Y016039D03*
X032391Y016089D03*
X032391Y016758D03*
X027791Y008908D03*
X027791Y008239D03*
X021621Y008148D03*
X021621Y007479D03*
X017541Y007738D03*
X017541Y007069D03*
D13*
X019727Y019521D03*
X020455Y019521D03*
X020455Y020426D03*
X019727Y020426D03*
D14*
X015311Y020507D03*
X015311Y019641D03*
X023281Y008027D03*
X023281Y007161D03*
X020521Y007427D03*
X020521Y006561D03*
D15*
X023291Y006199D03*
X023291Y005688D03*
X023291Y005176D03*
D16*
X023258Y009472D03*
X023455Y009472D03*
X023652Y009472D03*
X023848Y009472D03*
X024045Y009472D03*
X024242Y009472D03*
X024439Y009472D03*
X024636Y009472D03*
X023061Y009472D03*
X022864Y009472D03*
X022667Y009472D03*
X022470Y009472D03*
X022274Y009472D03*
X022077Y009472D03*
X021880Y009472D03*
X021683Y009472D03*
X021486Y009472D03*
X021289Y009472D03*
X021092Y009472D03*
X020896Y009472D03*
X020699Y009472D03*
X020502Y009472D03*
X020305Y009472D03*
X020108Y009472D03*
X019911Y009472D03*
X019714Y009472D03*
X019518Y009472D03*
X019321Y009472D03*
X019124Y009472D03*
X018927Y009472D03*
X018730Y009472D03*
X018533Y009472D03*
X018337Y009472D03*
X018140Y009472D03*
X017943Y009472D03*
X017746Y009472D03*
X017746Y017976D03*
X017943Y017976D03*
X018140Y017976D03*
X018337Y017976D03*
X018533Y017976D03*
X018730Y017976D03*
X018927Y017976D03*
X019124Y017976D03*
X019321Y017976D03*
X019518Y017976D03*
X019714Y017976D03*
X019911Y017976D03*
X020108Y017976D03*
X020305Y017976D03*
X020502Y017976D03*
X020699Y017976D03*
X020896Y017976D03*
X021092Y017976D03*
X021289Y017976D03*
X021486Y017976D03*
X021683Y017976D03*
X021880Y017976D03*
X022077Y017976D03*
X022274Y017976D03*
X022470Y017976D03*
X022667Y017976D03*
X022864Y017976D03*
X023061Y017976D03*
X023258Y017976D03*
X023455Y017976D03*
X023652Y017976D03*
X023848Y017976D03*
X024045Y017976D03*
X024242Y017976D03*
X024439Y017976D03*
X024636Y017976D03*
X028707Y014455D03*
X028963Y014455D03*
X029219Y014455D03*
X029475Y014455D03*
X029475Y012792D03*
X029219Y012792D03*
X028963Y012792D03*
X028707Y012792D03*
D17*
X025443Y012838D03*
X025443Y013035D03*
X025443Y013231D03*
X025443Y013428D03*
X025443Y013625D03*
X025443Y013822D03*
X025443Y014019D03*
X025443Y014216D03*
X025443Y014413D03*
X025443Y014609D03*
X025443Y014806D03*
X025443Y015003D03*
X025443Y015200D03*
X025443Y015397D03*
X025443Y015594D03*
X025443Y015791D03*
X025443Y015987D03*
X025443Y016184D03*
X025443Y016381D03*
X025443Y016578D03*
X025443Y016775D03*
X025443Y016972D03*
X025443Y017168D03*
X025443Y012641D03*
X025443Y012444D03*
X025443Y012247D03*
X025443Y012050D03*
X025443Y011854D03*
X025443Y011657D03*
X025443Y011460D03*
X025443Y011263D03*
X025443Y011066D03*
X025443Y010869D03*
X025443Y010672D03*
X025443Y010476D03*
X025443Y010279D03*
X016939Y010279D03*
X016939Y010476D03*
X016939Y010672D03*
X016939Y010869D03*
X016939Y011066D03*
X016939Y011263D03*
X016939Y011460D03*
X016939Y011657D03*
X016939Y011854D03*
X016939Y012050D03*
X016939Y012247D03*
X016939Y012444D03*
X016939Y012641D03*
X016939Y012838D03*
X016939Y013035D03*
X016939Y013231D03*
X016939Y013428D03*
X016939Y013625D03*
X016939Y013822D03*
X016939Y014019D03*
X016939Y014216D03*
X016939Y014413D03*
X016939Y014609D03*
X016939Y014806D03*
X016939Y015003D03*
X016939Y015200D03*
X016939Y015397D03*
X016939Y015594D03*
X016939Y015791D03*
X016939Y015987D03*
X016939Y016184D03*
X016939Y016381D03*
X016939Y016578D03*
X016939Y016775D03*
X016939Y016972D03*
X016939Y017168D03*
D18*
X001657Y010883D02*
X001657Y010265D01*
X001657Y010883D02*
X002225Y010883D01*
X002225Y010265D01*
X001657Y010265D01*
X001657Y010406D02*
X002225Y010406D01*
X002225Y010547D02*
X001657Y010547D01*
X001657Y010688D02*
X002225Y010688D01*
X002225Y010829D02*
X001657Y010829D01*
X001657Y008283D02*
X001657Y007665D01*
X001657Y008283D02*
X002225Y008283D01*
X002225Y007665D01*
X001657Y007665D01*
X001657Y007806D02*
X002225Y007806D01*
X002225Y007947D02*
X001657Y007947D01*
X001657Y008088D02*
X002225Y008088D01*
X002225Y008229D02*
X001657Y008229D01*
D19*
X002945Y008188D02*
X002945Y008400D01*
X003057Y008400D01*
X003057Y008188D01*
X002945Y008188D01*
X002945Y010148D02*
X002945Y010360D01*
X003057Y010360D01*
X003057Y010148D01*
X002945Y010148D01*
D20*
X002717Y009893D02*
X002717Y009695D01*
X002717Y009893D02*
X003285Y009893D01*
X003285Y009695D01*
X002717Y009695D01*
X002717Y009716D02*
X003285Y009716D01*
X003285Y009737D02*
X002717Y009737D01*
X002717Y009758D02*
X003285Y009758D01*
X003285Y009779D02*
X002717Y009779D01*
X002717Y009800D02*
X003285Y009800D01*
X003285Y009821D02*
X002717Y009821D01*
X002717Y009842D02*
X003285Y009842D01*
X003285Y009863D02*
X002717Y009863D01*
X002717Y009884D02*
X003285Y009884D01*
X002717Y009633D02*
X002717Y009435D01*
X002717Y009633D02*
X003285Y009633D01*
X003285Y009435D01*
X002717Y009435D01*
X002717Y009456D02*
X003285Y009456D01*
X003285Y009477D02*
X002717Y009477D01*
X002717Y009498D02*
X003285Y009498D01*
X003285Y009519D02*
X002717Y009519D01*
X002717Y009540D02*
X003285Y009540D01*
X003285Y009561D02*
X002717Y009561D01*
X002717Y009582D02*
X003285Y009582D01*
X003285Y009603D02*
X002717Y009603D01*
X002717Y009624D02*
X003285Y009624D01*
X002717Y009373D02*
X002717Y009175D01*
X002717Y009373D02*
X003285Y009373D01*
X003285Y009175D01*
X002717Y009175D01*
X002717Y009196D02*
X003285Y009196D01*
X003285Y009217D02*
X002717Y009217D01*
X002717Y009238D02*
X003285Y009238D01*
X003285Y009259D02*
X002717Y009259D01*
X002717Y009280D02*
X003285Y009280D01*
X003285Y009301D02*
X002717Y009301D01*
X002717Y009322D02*
X003285Y009322D01*
X003285Y009343D02*
X002717Y009343D01*
X002717Y009364D02*
X003285Y009364D01*
X002717Y009113D02*
X002717Y008915D01*
X002717Y009113D02*
X003285Y009113D01*
X003285Y008915D01*
X002717Y008915D01*
X002717Y008936D02*
X003285Y008936D01*
X003285Y008957D02*
X002717Y008957D01*
X002717Y008978D02*
X003285Y008978D01*
X003285Y008999D02*
X002717Y008999D01*
X002717Y009020D02*
X003285Y009020D01*
X003285Y009041D02*
X002717Y009041D01*
X002717Y009062D02*
X003285Y009062D01*
X003285Y009083D02*
X002717Y009083D01*
X002717Y009104D02*
X003285Y009104D01*
X002717Y008853D02*
X002717Y008655D01*
X002717Y008853D02*
X003285Y008853D01*
X003285Y008655D01*
X002717Y008655D01*
X002717Y008676D02*
X003285Y008676D01*
X003285Y008697D02*
X002717Y008697D01*
X002717Y008718D02*
X003285Y008718D01*
X003285Y008739D02*
X002717Y008739D01*
X002717Y008760D02*
X003285Y008760D01*
X003285Y008781D02*
X002717Y008781D01*
X002717Y008802D02*
X003285Y008802D01*
X003285Y008823D02*
X002717Y008823D01*
X002717Y008844D02*
X003285Y008844D01*
D21*
X001644Y008557D02*
X001644Y009191D01*
X002238Y009191D01*
X002238Y008557D01*
X001644Y008557D01*
X001644Y008622D02*
X002238Y008622D01*
X002238Y008687D02*
X001644Y008687D01*
X001644Y008752D02*
X002238Y008752D01*
X002238Y008817D02*
X001644Y008817D01*
X001644Y008882D02*
X002238Y008882D01*
X002238Y008947D02*
X001644Y008947D01*
X001644Y009012D02*
X002238Y009012D01*
X002238Y009077D02*
X001644Y009077D01*
X001644Y009142D02*
X002238Y009142D01*
X001644Y009357D02*
X001644Y009991D01*
X002238Y009991D01*
X002238Y009357D01*
X001644Y009357D01*
X001644Y009422D02*
X002238Y009422D01*
X002238Y009487D02*
X001644Y009487D01*
X001644Y009552D02*
X002238Y009552D01*
X002238Y009617D02*
X001644Y009617D01*
X001644Y009682D02*
X002238Y009682D01*
X002238Y009747D02*
X001644Y009747D01*
X001644Y009812D02*
X002238Y009812D01*
X002238Y009877D02*
X001644Y009877D01*
X001644Y009942D02*
X002238Y009942D01*
D22*
X003001Y010304D03*
X006341Y017474D03*
X024091Y006974D03*
D23*
X003001Y008244D03*
X003001Y008344D03*
X003001Y010204D03*
D24*
X002041Y010654D03*
X001841Y010654D03*
X001841Y007894D03*
X002041Y007894D03*
D25*
X008011Y005627D03*
X008811Y005617D03*
X008811Y004790D03*
X008011Y004800D03*
D26*
X002751Y013356D03*
X002751Y014891D03*
D27*
X007845Y009268D02*
X007879Y009268D01*
X007879Y009068D01*
X007845Y009068D01*
X007845Y009268D01*
X007845Y009203D02*
X007879Y009203D01*
X008042Y009268D02*
X008076Y009268D01*
X008076Y009068D01*
X008042Y009068D01*
X008042Y009268D01*
X008042Y009203D02*
X008076Y009203D01*
X008239Y009268D02*
X008273Y009268D01*
X008273Y009068D01*
X008239Y009068D01*
X008239Y009268D01*
X008239Y009203D02*
X008273Y009203D01*
X008435Y009268D02*
X008469Y009268D01*
X008469Y009068D01*
X008435Y009068D01*
X008435Y009268D01*
X008435Y009203D02*
X008469Y009203D01*
X008632Y009268D02*
X008666Y009268D01*
X008666Y009068D01*
X008632Y009068D01*
X008632Y009268D01*
X008632Y009203D02*
X008666Y009203D01*
X008829Y009268D02*
X008863Y009268D01*
X008863Y009068D01*
X008829Y009068D01*
X008829Y009268D01*
X008829Y009203D02*
X008863Y009203D01*
X009026Y009268D02*
X009060Y009268D01*
X009060Y009068D01*
X009026Y009068D01*
X009026Y009268D01*
X009026Y009203D02*
X009060Y009203D01*
X009223Y009268D02*
X009257Y009268D01*
X009257Y009068D01*
X009223Y009068D01*
X009223Y009268D01*
X009223Y009203D02*
X009257Y009203D01*
X009615Y008910D02*
X009615Y008876D01*
X009415Y008876D01*
X009415Y008910D01*
X009615Y008910D01*
X009615Y008713D02*
X009615Y008679D01*
X009415Y008679D01*
X009415Y008713D01*
X009615Y008713D01*
X009615Y008516D02*
X009615Y008482D01*
X009415Y008482D01*
X009415Y008516D01*
X009615Y008516D01*
X009615Y008319D02*
X009615Y008285D01*
X009415Y008285D01*
X009415Y008319D01*
X009615Y008319D01*
X009615Y008122D02*
X009615Y008088D01*
X009415Y008088D01*
X009415Y008122D01*
X009615Y008122D01*
X009615Y007925D02*
X009615Y007891D01*
X009415Y007891D01*
X009415Y007925D01*
X009615Y007925D01*
X009615Y007728D02*
X009615Y007694D01*
X009415Y007694D01*
X009415Y007728D01*
X009615Y007728D01*
X009615Y007532D02*
X009615Y007498D01*
X009415Y007498D01*
X009415Y007532D01*
X009615Y007532D01*
X009257Y007339D02*
X009223Y007339D01*
X009257Y007339D02*
X009257Y007139D01*
X009223Y007139D01*
X009223Y007339D01*
X009223Y007274D02*
X009257Y007274D01*
X009060Y007339D02*
X009026Y007339D01*
X009060Y007339D02*
X009060Y007139D01*
X009026Y007139D01*
X009026Y007339D01*
X009026Y007274D02*
X009060Y007274D01*
X008863Y007339D02*
X008829Y007339D01*
X008863Y007339D02*
X008863Y007139D01*
X008829Y007139D01*
X008829Y007339D01*
X008829Y007274D02*
X008863Y007274D01*
X008666Y007339D02*
X008632Y007339D01*
X008666Y007339D02*
X008666Y007139D01*
X008632Y007139D01*
X008632Y007339D01*
X008632Y007274D02*
X008666Y007274D01*
X008469Y007339D02*
X008435Y007339D01*
X008469Y007339D02*
X008469Y007139D01*
X008435Y007139D01*
X008435Y007339D01*
X008435Y007274D02*
X008469Y007274D01*
X008273Y007339D02*
X008239Y007339D01*
X008273Y007339D02*
X008273Y007139D01*
X008239Y007139D01*
X008239Y007339D01*
X008239Y007274D02*
X008273Y007274D01*
X008076Y007339D02*
X008042Y007339D01*
X008076Y007339D02*
X008076Y007139D01*
X008042Y007139D01*
X008042Y007339D01*
X008042Y007274D02*
X008076Y007274D01*
X007879Y007339D02*
X007845Y007339D01*
X007879Y007339D02*
X007879Y007139D01*
X007845Y007139D01*
X007845Y007339D01*
X007845Y007274D02*
X007879Y007274D01*
X007686Y007498D02*
X007686Y007532D01*
X007686Y007498D02*
X007486Y007498D01*
X007486Y007532D01*
X007686Y007532D01*
X007686Y007694D02*
X007686Y007728D01*
X007686Y007694D02*
X007486Y007694D01*
X007486Y007728D01*
X007686Y007728D01*
X007686Y007891D02*
X007686Y007925D01*
X007686Y007891D02*
X007486Y007891D01*
X007486Y007925D01*
X007686Y007925D01*
X007686Y008088D02*
X007686Y008122D01*
X007686Y008088D02*
X007486Y008088D01*
X007486Y008122D01*
X007686Y008122D01*
X007686Y008285D02*
X007686Y008319D01*
X007686Y008285D02*
X007486Y008285D01*
X007486Y008319D01*
X007686Y008319D01*
X007686Y008482D02*
X007686Y008516D01*
X007686Y008482D02*
X007486Y008482D01*
X007486Y008516D01*
X007686Y008516D01*
X007686Y008679D02*
X007686Y008713D01*
X007686Y008679D02*
X007486Y008679D01*
X007486Y008713D01*
X007686Y008713D01*
X007686Y008876D02*
X007686Y008910D01*
X007686Y008876D02*
X007486Y008876D01*
X007486Y008910D01*
X007686Y008910D01*
D28*
X008168Y008525D02*
X008229Y008587D01*
X008301Y008637D01*
X008380Y008673D01*
X008464Y008696D01*
X008551Y008704D01*
X008638Y008696D01*
X008722Y008673D01*
X008801Y008637D01*
X008872Y008587D01*
X008934Y008525D01*
X008984Y008454D01*
X009021Y008375D01*
X009043Y008290D01*
X009051Y008204D01*
X009043Y008117D01*
X009021Y008033D01*
X008984Y007954D01*
X008934Y007882D01*
X008872Y007821D01*
X008801Y007771D01*
X008722Y007734D01*
X008638Y007711D01*
X008551Y007704D01*
X008464Y007711D01*
X008380Y007734D01*
X008301Y007771D01*
X008229Y007821D01*
X008168Y007882D01*
X008118Y007954D01*
X008081Y008033D01*
X008058Y008117D01*
X008051Y008204D01*
X008058Y008290D01*
X008081Y008375D01*
X008118Y008454D01*
X008168Y008525D01*
X008167Y008524D02*
X008934Y008524D01*
X008968Y008476D02*
X008133Y008476D01*
X008106Y008427D02*
X008996Y008427D01*
X009019Y008379D02*
X008083Y008379D01*
X008069Y008330D02*
X009033Y008330D01*
X009044Y008282D02*
X008058Y008282D01*
X008053Y008233D02*
X009048Y008233D01*
X009049Y008185D02*
X008053Y008185D01*
X008057Y008136D02*
X009045Y008136D01*
X009035Y008088D02*
X008066Y008088D01*
X008079Y008039D02*
X009022Y008039D01*
X009001Y007991D02*
X008101Y007991D01*
X008126Y007942D02*
X008976Y007942D01*
X008942Y007894D02*
X008160Y007894D01*
X008205Y007845D02*
X008897Y007845D01*
X008838Y007797D02*
X008264Y007797D01*
X008349Y007748D02*
X008753Y007748D01*
X008886Y008573D02*
X008215Y008573D01*
X008279Y008621D02*
X008823Y008621D01*
X008730Y008670D02*
X008372Y008670D01*
D29*
X010672Y007004D03*
X011672Y007004D03*
X011672Y006004D03*
X010672Y006004D03*
X010672Y005004D03*
X011672Y005004D03*
D30*
X004825Y009044D03*
X004037Y009044D03*
X003777Y011204D03*
X004565Y011204D03*
D31*
X013081Y007173D03*
X013081Y005834D03*
D32*
X007445Y005521D03*
X006933Y005521D03*
X006933Y006190D03*
X007189Y006190D03*
X007445Y006190D03*
D33*
X005604Y006389D03*
X005604Y007118D03*
X004698Y007118D03*
X004698Y006389D03*
D34*
X025381Y005594D03*
X026291Y005594D03*
X027201Y005594D03*
D35*
X026291Y003154D03*
D36*
X028711Y008464D03*
X029381Y008464D03*
X030050Y008464D03*
X030719Y008464D03*
X031389Y008464D03*
D37*
X030038Y004523D03*
D38*
X030832Y011174D03*
X032250Y011174D03*
X032200Y014024D03*
X030782Y014024D03*
D39*
X033041Y006524D03*
X033041Y004324D03*
X030791Y022324D03*
X029091Y022324D03*
X025841Y022324D03*
X024091Y022324D03*
D40*
X027791Y020515D03*
X028291Y020515D03*
X028791Y020515D03*
X029291Y020515D03*
X030891Y020565D03*
X031391Y020565D03*
X031891Y020565D03*
X032391Y020565D03*
X032387Y018082D03*
X031887Y018082D03*
X031387Y018082D03*
X030891Y018082D03*
X029287Y018032D03*
X028787Y018032D03*
X028287Y018032D03*
X027791Y018032D03*
D41*
X005941Y020324D03*
D42*
X006941Y020324D03*
X007941Y020324D03*
X008941Y020324D03*
X009941Y020324D03*
X009941Y019324D03*
X008941Y019324D03*
X007941Y019324D03*
X006941Y019324D03*
X005941Y019324D03*
D43*
X003231Y018924D02*
X002751Y018924D01*
X002751Y019924D02*
X003231Y019924D01*
X003231Y020924D02*
X002751Y020924D01*
X002751Y017924D02*
X003231Y017924D01*
X003231Y016924D02*
X002751Y016924D01*
X016891Y004014D02*
X016891Y003534D01*
X017891Y003534D02*
X017891Y004014D01*
X018891Y004014D02*
X018891Y003534D01*
X019891Y003534D02*
X019891Y004014D01*
X020891Y004014D02*
X020891Y003534D01*
D44*
X010591Y014774D03*
X010591Y016374D03*
D45*
X008691Y014464D03*
X009491Y014084D03*
X008691Y013704D03*
D46*
X015197Y007174D03*
X015985Y007174D03*
D47*
X019191Y006930D03*
X019191Y007717D03*
X015191Y011930D03*
X015191Y012717D03*
X011591Y018480D03*
X011591Y019267D03*
X016341Y020330D03*
X016341Y021117D03*
X027691Y011117D03*
X027691Y010330D03*
D48*
X003861Y003074D03*
X002461Y004394D03*
X004241Y005824D03*
X005391Y005474D03*
X005841Y004514D03*
X006291Y006474D03*
X007441Y007024D03*
X005991Y007824D03*
X004891Y009624D03*
X003591Y009924D03*
X006141Y012074D03*
X006941Y011224D03*
X007891Y010374D03*
X007241Y010324D03*
X007391Y009674D03*
X010091Y009174D03*
X011541Y009974D03*
X011931Y008224D03*
X014041Y007474D03*
X015216Y008884D03*
X016541Y008924D03*
X018491Y008924D03*
X019191Y008774D03*
X019941Y008824D03*
X019271Y010314D03*
X018691Y010124D03*
X021391Y010574D03*
X023391Y012074D03*
X024861Y011184D03*
X024861Y010364D03*
X025911Y009324D03*
X025101Y008354D03*
X025101Y007064D03*
X027741Y007424D03*
X025391Y004424D03*
X023841Y002824D03*
X017391Y005474D03*
X016191Y006374D03*
X012691Y005274D03*
X012251Y006484D03*
X013891Y009574D03*
X012691Y012674D03*
X011841Y012574D03*
X010691Y014174D03*
X009141Y013224D03*
X007291Y013624D03*
X006391Y015074D03*
X004391Y015574D03*
X003191Y014224D03*
X004091Y012574D03*
X009641Y016824D03*
X012791Y018274D03*
X013391Y016624D03*
X015761Y017074D03*
X016121Y015934D03*
X015841Y014724D03*
X014421Y014714D03*
X014341Y014124D03*
X015941Y013074D03*
X017731Y013474D03*
X017681Y014214D03*
X017711Y014834D03*
X018671Y015844D03*
X017641Y016574D03*
X017841Y017224D03*
X017641Y018824D03*
X015941Y018724D03*
X015291Y018974D03*
X012801Y021244D03*
X014601Y022534D03*
X017941Y021224D03*
X020891Y022574D03*
X020991Y019521D03*
X020301Y018894D03*
X020791Y017324D03*
X020091Y015674D03*
X019641Y014224D03*
X018661Y012944D03*
X023691Y015224D03*
X024931Y014404D03*
X024571Y013714D03*
X026891Y015574D03*
X026641Y017174D03*
X028191Y017174D03*
X029281Y017014D03*
X030191Y018124D03*
X028911Y018794D03*
X029291Y019724D03*
X027741Y019074D03*
X025391Y019074D03*
X024441Y018774D03*
X023741Y016424D03*
X027441Y013824D03*
X027441Y012324D03*
X026421Y010874D03*
X029891Y015574D03*
X032541Y015324D03*
X031941Y017274D03*
X031891Y018974D03*
X032291Y010374D03*
X032891Y008574D03*
X032241Y004324D03*
X014091Y003114D03*
X002661Y006074D03*
X010741Y020674D03*
X009351Y022454D03*
X004561Y021404D03*
X003301Y022514D03*
M02*
