G75*
%MOIN*%
%OFA0B0*%
%FSLAX24Y24*%
%IPPOS*%
%LPD*%
%AMOC8*
5,1,8,0,0,1.08239X$1,22.5*
%
%ADD10R,0.0709X0.0433*%
%ADD11R,0.0512X0.0591*%
%ADD12R,0.0591X0.0512*%
%ADD13R,0.0413X0.0512*%
%ADD14R,0.0394X0.0472*%
%ADD15R,0.0354X0.0276*%
%ADD16R,0.0118X0.0472*%
%ADD17R,0.0472X0.0118*%
%ADD18C,0.0130*%
%ADD19C,0.0400*%
%ADD20C,0.0016*%
%ADD21C,0.0060*%
%ADD22R,0.0472X0.0472*%
%ADD23R,0.1339X0.0748*%
%ADD24C,0.0088*%
%ADD25R,0.0500X0.0500*%
%ADD26R,0.0394X0.0394*%
%ADD27R,0.0709X0.0551*%
%ADD28R,0.0157X0.0276*%
%ADD29R,0.0512X0.0413*%
%ADD30R,0.0480X0.0880*%
%ADD31R,0.1417X0.0866*%
%ADD32R,0.0516X0.1575*%
%ADD33R,0.3346X0.3937*%
%ADD34R,0.0787X0.0315*%
%ADD35R,0.0197X0.0866*%
%ADD36R,0.0780X0.0400*%
%ADD37R,0.0350X0.0310*%
%ADD38R,0.0512X0.0630*%
%ADD39R,0.0630X0.0512*%
D10*
X014211Y015333D03*
X014211Y016554D03*
D11*
X006496Y003614D03*
X007166Y003614D03*
X007146Y004514D03*
X006476Y004514D03*
X004706Y008054D03*
X004036Y008054D03*
X005746Y008694D03*
X006416Y008694D03*
X006426Y009694D03*
X005756Y009694D03*
X005706Y011234D03*
X006376Y011234D03*
X007666Y011164D03*
X008336Y011164D03*
X010626Y008244D03*
X011296Y008244D03*
X012506Y008214D03*
X013176Y008214D03*
X015216Y008244D03*
X015886Y008244D03*
X015886Y009454D03*
X015216Y009454D03*
X015216Y010664D03*
X015886Y010664D03*
X014216Y011024D03*
X013546Y011024D03*
X013546Y012184D03*
X014216Y012184D03*
X014216Y013274D03*
X013546Y013274D03*
X012766Y014344D03*
X012096Y014344D03*
X012096Y015504D03*
X012766Y015504D03*
X012766Y016564D03*
X012096Y016564D03*
X013546Y017514D03*
X014216Y017514D03*
X014216Y018614D03*
X013546Y018614D03*
X013546Y019714D03*
X014216Y019714D03*
X017926Y019414D03*
X018596Y019414D03*
X018596Y020574D03*
X017926Y020574D03*
X009176Y015774D03*
X008506Y015774D03*
X003226Y012064D03*
X002556Y012064D03*
X013714Y005039D03*
X014384Y005039D03*
X021546Y005444D03*
X022216Y005444D03*
X022186Y006514D03*
X021516Y006514D03*
X025766Y007064D03*
X026436Y007064D03*
X026416Y008274D03*
X025746Y008274D03*
X028856Y010524D03*
X029526Y010524D03*
X029526Y011774D03*
X028856Y011774D03*
X027836Y013074D03*
X027166Y013074D03*
X027116Y014494D03*
X027786Y014494D03*
X027856Y016494D03*
X028526Y016494D03*
X032206Y022274D03*
X032876Y022274D03*
D12*
X027491Y022508D03*
X027491Y021839D03*
X026191Y020558D03*
X026191Y019889D03*
X024441Y019869D03*
X024441Y020538D03*
X023141Y020538D03*
X023141Y019869D03*
X021751Y019859D03*
X021751Y020528D03*
X015101Y014838D03*
X015101Y014169D03*
X010511Y011238D03*
X010511Y010569D03*
X009391Y010529D03*
X009391Y011198D03*
X006721Y007808D03*
X006721Y007139D03*
X009552Y005439D03*
X009552Y004769D03*
X017541Y007069D03*
X017541Y007738D03*
X021621Y007479D03*
X021621Y008148D03*
X027791Y008239D03*
X027791Y008908D03*
X031091Y016039D03*
X031091Y016708D03*
X032391Y016758D03*
X032391Y016089D03*
D13*
X020455Y019521D03*
X019727Y019521D03*
X019727Y020426D03*
X020455Y020426D03*
D14*
X015311Y020507D03*
X015311Y019641D03*
X023281Y008027D03*
X023281Y007161D03*
X020521Y007427D03*
X020521Y006561D03*
D15*
X023291Y006199D03*
X023291Y005688D03*
X023291Y005176D03*
D16*
X023258Y009472D03*
X023455Y009472D03*
X023652Y009472D03*
X023848Y009472D03*
X024045Y009472D03*
X024242Y009472D03*
X024439Y009472D03*
X024636Y009472D03*
X023061Y009472D03*
X022864Y009472D03*
X022667Y009472D03*
X022470Y009472D03*
X022274Y009472D03*
X022077Y009472D03*
X021880Y009472D03*
X021683Y009472D03*
X021486Y009472D03*
X021289Y009472D03*
X021092Y009472D03*
X020896Y009472D03*
X020699Y009472D03*
X020502Y009472D03*
X020305Y009472D03*
X020108Y009472D03*
X019911Y009472D03*
X019714Y009472D03*
X019518Y009472D03*
X019321Y009472D03*
X019124Y009472D03*
X018927Y009472D03*
X018730Y009472D03*
X018533Y009472D03*
X018337Y009472D03*
X018140Y009472D03*
X017943Y009472D03*
X017746Y009472D03*
X017746Y017976D03*
X017943Y017976D03*
X018140Y017976D03*
X018337Y017976D03*
X018533Y017976D03*
X018730Y017976D03*
X018927Y017976D03*
X019124Y017976D03*
X019321Y017976D03*
X019518Y017976D03*
X019714Y017976D03*
X019911Y017976D03*
X020108Y017976D03*
X020305Y017976D03*
X020502Y017976D03*
X020699Y017976D03*
X020896Y017976D03*
X021092Y017976D03*
X021289Y017976D03*
X021486Y017976D03*
X021683Y017976D03*
X021880Y017976D03*
X022077Y017976D03*
X022274Y017976D03*
X022470Y017976D03*
X022667Y017976D03*
X022864Y017976D03*
X023061Y017976D03*
X023258Y017976D03*
X023455Y017976D03*
X023652Y017976D03*
X023848Y017976D03*
X024045Y017976D03*
X024242Y017976D03*
X024439Y017976D03*
X024636Y017976D03*
X028707Y014455D03*
X028963Y014455D03*
X029219Y014455D03*
X029475Y014455D03*
X029475Y012792D03*
X029219Y012792D03*
X028963Y012792D03*
X028707Y012792D03*
D17*
X025443Y012838D03*
X025443Y013035D03*
X025443Y013231D03*
X025443Y013428D03*
X025443Y013625D03*
X025443Y013822D03*
X025443Y014019D03*
X025443Y014216D03*
X025443Y014413D03*
X025443Y014609D03*
X025443Y014806D03*
X025443Y015003D03*
X025443Y015200D03*
X025443Y015397D03*
X025443Y015594D03*
X025443Y015791D03*
X025443Y015987D03*
X025443Y016184D03*
X025443Y016381D03*
X025443Y016578D03*
X025443Y016775D03*
X025443Y016972D03*
X025443Y017168D03*
X025443Y012641D03*
X025443Y012444D03*
X025443Y012247D03*
X025443Y012050D03*
X025443Y011854D03*
X025443Y011657D03*
X025443Y011460D03*
X025443Y011263D03*
X025443Y011066D03*
X025443Y010869D03*
X025443Y010672D03*
X025443Y010476D03*
X025443Y010279D03*
X016939Y010279D03*
X016939Y010476D03*
X016939Y010672D03*
X016939Y010869D03*
X016939Y011066D03*
X016939Y011263D03*
X016939Y011460D03*
X016939Y011657D03*
X016939Y011854D03*
X016939Y012050D03*
X016939Y012247D03*
X016939Y012444D03*
X016939Y012641D03*
X016939Y012838D03*
X016939Y013035D03*
X016939Y013231D03*
X016939Y013428D03*
X016939Y013625D03*
X016939Y013822D03*
X016939Y014019D03*
X016939Y014216D03*
X016939Y014413D03*
X016939Y014609D03*
X016939Y014806D03*
X016939Y015003D03*
X016939Y015200D03*
X016939Y015397D03*
X016939Y015594D03*
X016939Y015791D03*
X016939Y015987D03*
X016939Y016184D03*
X016939Y016381D03*
X016939Y016578D03*
X016939Y016775D03*
X016939Y016972D03*
X016939Y017168D03*
D18*
X001681Y010859D02*
X001681Y010289D01*
X001681Y010859D02*
X002201Y010859D01*
X002201Y010289D01*
X001681Y010289D01*
X001681Y010418D02*
X002201Y010418D01*
X002201Y010547D02*
X001681Y010547D01*
X001681Y010676D02*
X002201Y010676D01*
X002201Y010805D02*
X001681Y010805D01*
X001681Y008259D02*
X001681Y007689D01*
X001681Y008259D02*
X002201Y008259D01*
X002201Y007689D01*
X001681Y007689D01*
X001681Y007818D02*
X002201Y007818D01*
X002201Y007947D02*
X001681Y007947D01*
X001681Y008076D02*
X002201Y008076D01*
X002201Y008205D02*
X001681Y008205D01*
D19*
X002951Y008194D02*
X002951Y008394D01*
X003051Y008394D01*
X003051Y008194D01*
X002951Y008194D01*
X002951Y010154D02*
X002951Y010354D01*
X003051Y010354D01*
X003051Y010154D01*
X002951Y010154D01*
D20*
X002744Y009866D02*
X002744Y009722D01*
X002744Y009866D02*
X003258Y009866D01*
X003258Y009722D01*
X002744Y009722D01*
X002744Y009737D02*
X003258Y009737D01*
X003258Y009752D02*
X002744Y009752D01*
X002744Y009767D02*
X003258Y009767D01*
X003258Y009782D02*
X002744Y009782D01*
X002744Y009797D02*
X003258Y009797D01*
X003258Y009812D02*
X002744Y009812D01*
X002744Y009827D02*
X003258Y009827D01*
X003258Y009842D02*
X002744Y009842D01*
X002744Y009857D02*
X003258Y009857D01*
X002744Y009606D02*
X002744Y009462D01*
X002744Y009606D02*
X003258Y009606D01*
X003258Y009462D01*
X002744Y009462D01*
X002744Y009477D02*
X003258Y009477D01*
X003258Y009492D02*
X002744Y009492D01*
X002744Y009507D02*
X003258Y009507D01*
X003258Y009522D02*
X002744Y009522D01*
X002744Y009537D02*
X003258Y009537D01*
X003258Y009552D02*
X002744Y009552D01*
X002744Y009567D02*
X003258Y009567D01*
X003258Y009582D02*
X002744Y009582D01*
X002744Y009597D02*
X003258Y009597D01*
X002744Y009346D02*
X002744Y009202D01*
X002744Y009346D02*
X003258Y009346D01*
X003258Y009202D01*
X002744Y009202D01*
X002744Y009217D02*
X003258Y009217D01*
X003258Y009232D02*
X002744Y009232D01*
X002744Y009247D02*
X003258Y009247D01*
X003258Y009262D02*
X002744Y009262D01*
X002744Y009277D02*
X003258Y009277D01*
X003258Y009292D02*
X002744Y009292D01*
X002744Y009307D02*
X003258Y009307D01*
X003258Y009322D02*
X002744Y009322D01*
X002744Y009337D02*
X003258Y009337D01*
X002744Y009086D02*
X002744Y008942D01*
X002744Y009086D02*
X003258Y009086D01*
X003258Y008942D01*
X002744Y008942D01*
X002744Y008957D02*
X003258Y008957D01*
X003258Y008972D02*
X002744Y008972D01*
X002744Y008987D02*
X003258Y008987D01*
X003258Y009002D02*
X002744Y009002D01*
X002744Y009017D02*
X003258Y009017D01*
X003258Y009032D02*
X002744Y009032D01*
X002744Y009047D02*
X003258Y009047D01*
X003258Y009062D02*
X002744Y009062D01*
X002744Y009077D02*
X003258Y009077D01*
X002744Y008826D02*
X002744Y008682D01*
X002744Y008826D02*
X003258Y008826D01*
X003258Y008682D01*
X002744Y008682D01*
X002744Y008697D02*
X003258Y008697D01*
X003258Y008712D02*
X002744Y008712D01*
X002744Y008727D02*
X003258Y008727D01*
X003258Y008742D02*
X002744Y008742D01*
X002744Y008757D02*
X003258Y008757D01*
X003258Y008772D02*
X002744Y008772D01*
X002744Y008787D02*
X003258Y008787D01*
X003258Y008802D02*
X002744Y008802D01*
X002744Y008817D02*
X003258Y008817D01*
D21*
X001671Y008584D02*
X001671Y009164D01*
X002211Y009164D01*
X002211Y008584D01*
X001671Y008584D01*
X001671Y008643D02*
X002211Y008643D01*
X002211Y008702D02*
X001671Y008702D01*
X001671Y008761D02*
X002211Y008761D01*
X002211Y008820D02*
X001671Y008820D01*
X001671Y008879D02*
X002211Y008879D01*
X002211Y008938D02*
X001671Y008938D01*
X001671Y008997D02*
X002211Y008997D01*
X002211Y009056D02*
X001671Y009056D01*
X001671Y009115D02*
X002211Y009115D01*
X001671Y009384D02*
X001671Y009964D01*
X002211Y009964D01*
X002211Y009384D01*
X001671Y009384D01*
X001671Y009443D02*
X002211Y009443D01*
X002211Y009502D02*
X001671Y009502D01*
X001671Y009561D02*
X002211Y009561D01*
X002211Y009620D02*
X001671Y009620D01*
X001671Y009679D02*
X002211Y009679D01*
X002211Y009738D02*
X001671Y009738D01*
X001671Y009797D02*
X002211Y009797D01*
X002211Y009856D02*
X001671Y009856D01*
X001671Y009915D02*
X002211Y009915D01*
D22*
X008011Y005627D03*
X008811Y005617D03*
X008811Y004790D03*
X008011Y004800D03*
D23*
X002751Y013356D03*
X002751Y014891D03*
D24*
X007851Y009262D02*
X007873Y009262D01*
X007873Y009074D01*
X007851Y009074D01*
X007851Y009262D01*
X007851Y009161D02*
X007873Y009161D01*
X007873Y009248D02*
X007851Y009248D01*
X008048Y009262D02*
X008070Y009262D01*
X008070Y009074D01*
X008048Y009074D01*
X008048Y009262D01*
X008048Y009161D02*
X008070Y009161D01*
X008070Y009248D02*
X008048Y009248D01*
X008245Y009262D02*
X008267Y009262D01*
X008267Y009074D01*
X008245Y009074D01*
X008245Y009262D01*
X008245Y009161D02*
X008267Y009161D01*
X008267Y009248D02*
X008245Y009248D01*
X008441Y009262D02*
X008463Y009262D01*
X008463Y009074D01*
X008441Y009074D01*
X008441Y009262D01*
X008441Y009161D02*
X008463Y009161D01*
X008463Y009248D02*
X008441Y009248D01*
X008638Y009262D02*
X008660Y009262D01*
X008660Y009074D01*
X008638Y009074D01*
X008638Y009262D01*
X008638Y009161D02*
X008660Y009161D01*
X008660Y009248D02*
X008638Y009248D01*
X008835Y009262D02*
X008857Y009262D01*
X008857Y009074D01*
X008835Y009074D01*
X008835Y009262D01*
X008835Y009161D02*
X008857Y009161D01*
X008857Y009248D02*
X008835Y009248D01*
X009032Y009262D02*
X009054Y009262D01*
X009054Y009074D01*
X009032Y009074D01*
X009032Y009262D01*
X009032Y009161D02*
X009054Y009161D01*
X009054Y009248D02*
X009032Y009248D01*
X009229Y009262D02*
X009251Y009262D01*
X009251Y009074D01*
X009229Y009074D01*
X009229Y009262D01*
X009229Y009161D02*
X009251Y009161D01*
X009251Y009248D02*
X009229Y009248D01*
X009609Y008904D02*
X009609Y008882D01*
X009421Y008882D01*
X009421Y008904D01*
X009609Y008904D01*
X009609Y008707D02*
X009609Y008685D01*
X009421Y008685D01*
X009421Y008707D01*
X009609Y008707D01*
X009609Y008510D02*
X009609Y008488D01*
X009421Y008488D01*
X009421Y008510D01*
X009609Y008510D01*
X009609Y008313D02*
X009609Y008291D01*
X009421Y008291D01*
X009421Y008313D01*
X009609Y008313D01*
X009609Y008116D02*
X009609Y008094D01*
X009421Y008094D01*
X009421Y008116D01*
X009609Y008116D01*
X009609Y007919D02*
X009609Y007897D01*
X009421Y007897D01*
X009421Y007919D01*
X009609Y007919D01*
X009609Y007722D02*
X009609Y007700D01*
X009421Y007700D01*
X009421Y007722D01*
X009609Y007722D01*
X009609Y007526D02*
X009609Y007504D01*
X009421Y007504D01*
X009421Y007526D01*
X009609Y007526D01*
X009251Y007333D02*
X009229Y007333D01*
X009251Y007333D02*
X009251Y007145D01*
X009229Y007145D01*
X009229Y007333D01*
X009229Y007232D02*
X009251Y007232D01*
X009251Y007319D02*
X009229Y007319D01*
X009054Y007333D02*
X009032Y007333D01*
X009054Y007333D02*
X009054Y007145D01*
X009032Y007145D01*
X009032Y007333D01*
X009032Y007232D02*
X009054Y007232D01*
X009054Y007319D02*
X009032Y007319D01*
X008857Y007333D02*
X008835Y007333D01*
X008857Y007333D02*
X008857Y007145D01*
X008835Y007145D01*
X008835Y007333D01*
X008835Y007232D02*
X008857Y007232D01*
X008857Y007319D02*
X008835Y007319D01*
X008660Y007333D02*
X008638Y007333D01*
X008660Y007333D02*
X008660Y007145D01*
X008638Y007145D01*
X008638Y007333D01*
X008638Y007232D02*
X008660Y007232D01*
X008660Y007319D02*
X008638Y007319D01*
X008463Y007333D02*
X008441Y007333D01*
X008463Y007333D02*
X008463Y007145D01*
X008441Y007145D01*
X008441Y007333D01*
X008441Y007232D02*
X008463Y007232D01*
X008463Y007319D02*
X008441Y007319D01*
X008267Y007333D02*
X008245Y007333D01*
X008267Y007333D02*
X008267Y007145D01*
X008245Y007145D01*
X008245Y007333D01*
X008245Y007232D02*
X008267Y007232D01*
X008267Y007319D02*
X008245Y007319D01*
X008070Y007333D02*
X008048Y007333D01*
X008070Y007333D02*
X008070Y007145D01*
X008048Y007145D01*
X008048Y007333D01*
X008048Y007232D02*
X008070Y007232D01*
X008070Y007319D02*
X008048Y007319D01*
X007873Y007333D02*
X007851Y007333D01*
X007873Y007333D02*
X007873Y007145D01*
X007851Y007145D01*
X007851Y007333D01*
X007851Y007232D02*
X007873Y007232D01*
X007873Y007319D02*
X007851Y007319D01*
X007680Y007504D02*
X007680Y007526D01*
X007680Y007504D02*
X007492Y007504D01*
X007492Y007526D01*
X007680Y007526D01*
X007680Y007700D02*
X007680Y007722D01*
X007680Y007700D02*
X007492Y007700D01*
X007492Y007722D01*
X007680Y007722D01*
X007680Y007897D02*
X007680Y007919D01*
X007680Y007897D02*
X007492Y007897D01*
X007492Y007919D01*
X007680Y007919D01*
X007680Y008094D02*
X007680Y008116D01*
X007680Y008094D02*
X007492Y008094D01*
X007492Y008116D01*
X007680Y008116D01*
X007680Y008291D02*
X007680Y008313D01*
X007680Y008291D02*
X007492Y008291D01*
X007492Y008313D01*
X007680Y008313D01*
X007680Y008488D02*
X007680Y008510D01*
X007680Y008488D02*
X007492Y008488D01*
X007492Y008510D01*
X007680Y008510D01*
X007680Y008685D02*
X007680Y008707D01*
X007680Y008685D02*
X007492Y008685D01*
X007492Y008707D01*
X007680Y008707D01*
X007680Y008882D02*
X007680Y008904D01*
X007680Y008882D02*
X007492Y008882D01*
X007492Y008904D01*
X007680Y008904D01*
D25*
X008551Y008204D03*
D26*
X004825Y009044D03*
X004037Y009044D03*
X003777Y011204D03*
X004565Y011204D03*
D27*
X013081Y007173D03*
X013081Y005834D03*
D28*
X007445Y005521D03*
X006933Y005521D03*
X006933Y006190D03*
X007189Y006190D03*
X007445Y006190D03*
D29*
X005604Y006389D03*
X005604Y007118D03*
X004698Y007118D03*
X004698Y006389D03*
D30*
X025381Y005594D03*
X026291Y005594D03*
X027201Y005594D03*
D31*
X026291Y003154D03*
D32*
X028711Y008464D03*
X029381Y008464D03*
X030050Y008464D03*
X030719Y008464D03*
X031389Y008464D03*
D33*
X030038Y004523D03*
D34*
X030832Y011174D03*
X032250Y011174D03*
X032200Y014024D03*
X030782Y014024D03*
D35*
X030891Y018082D03*
X031387Y018082D03*
X031887Y018082D03*
X032387Y018082D03*
X032391Y020565D03*
X031891Y020565D03*
X031391Y020565D03*
X030891Y020565D03*
X029291Y020515D03*
X028791Y020515D03*
X028291Y020515D03*
X027791Y020515D03*
X027791Y018032D03*
X028287Y018032D03*
X028787Y018032D03*
X029287Y018032D03*
D36*
X010591Y016374D03*
X010591Y014774D03*
D37*
X009491Y014084D03*
X008691Y014464D03*
X008691Y013704D03*
D38*
X015197Y007174D03*
X015985Y007174D03*
D39*
X019191Y006930D03*
X019191Y007717D03*
X015191Y011930D03*
X015191Y012717D03*
X011591Y018480D03*
X011591Y019267D03*
X016341Y020330D03*
X016341Y021117D03*
X027691Y011117D03*
X027691Y010330D03*
M02*
