%
M48
M72
T01C0.0236
T02C0.0315
T03C0.0320
T04C0.0360
T05C0.0374
T06C0.0520
%
T01
X3861Y3074
X2461Y4394
X4241Y5824
X5391Y5474
X5841Y4514
X6291Y6474
X7441Y7024
X5991Y7824
X4891Y9624
X3591Y9924
X6141Y12074
X6941Y11224
X7891Y10374
X7241Y10324
X7391Y9674
X10091Y9174
X11541Y9974
X11931Y8224
X14041Y7474
X15216Y8884
X16541Y8924
X18491Y8924
X19191Y8774
X19941Y8824
X19271Y10314
X18691Y10124
X21391Y10574
X23391Y12074
X24861Y11184
X24861Y10364
X25911Y9324
X25101Y8354
X25101Y7064
X27741Y7424
X25391Y4424
X23841Y2824
X17391Y5474
X16191Y6374
X12691Y5274
X12251Y6484
X13891Y9574
X12691Y12674
X11841Y12574
X10691Y14174
X9141Y13224
X7291Y13624
X6391Y15074
X4391Y15574
X3191Y14224
X4091Y12574
X9641Y16824
X12791Y18274
X13391Y16624
X15761Y17074
X16121Y15934
X15841Y14724
X14421Y14714
X14341Y14124
X15941Y13074
X17731Y13474
X17681Y14214
X17711Y14834
X18671Y15844
X17641Y16574
X17841Y17224
X17641Y18824
X15941Y18724
X15291Y18974
X12801Y21244
X14601Y22534
X17941Y21224
X20891Y22574
X20991Y19521
X20301Y18894
X20791Y17324
X20091Y15674
X19641Y14224
X18661Y12944
X23691Y15224
X24931Y14404
X24571Y13714
X26891Y15574
X26641Y17174
X28191Y17174
X29281Y17014
X30191Y18124
X28911Y18794
X29291Y19724
X27741Y19074
X25391Y19074
X24441Y18774
X23741Y16424
X27441Y13824
X27441Y12324
X26421Y10874
X29891Y15574
X32541Y15324
X31941Y17274
X31891Y18974
X32291Y10374
X32891Y8574
X32241Y4324
X14091Y3114
X2661Y6074
X10741Y20674
X9351Y22454
X4561Y21404
X3301Y22514
T02
X2041Y10654
X1841Y10654
X3001Y10304
X3001Y10204
X3001Y8344
X3001Y8244
X2041Y7894
X1841Y7894
T03
X2991Y16924
X2991Y17924
X2991Y18924
X2991Y19924
X2991Y20924
X16891Y3774
X17891Y3774
X18891Y3774
X19891Y3774
X20891Y3774
T04
X9941Y19324
X8941Y19324
X7941Y19324
X6941Y19324
X5941Y19324
X5941Y20324
X6941Y20324
X7941Y20324
X8941Y20324
X9941Y20324
T05
X10672Y7004
X11672Y7004
X11672Y6004
X10672Y6004
X10672Y5004
X11672Y5004
T06
X33041Y4324
X33041Y6524
X30791Y22324
X29091Y22324
X25841Y22324
X24091Y22324
M30
