G75*
%MOIN*%
%OFA0B0*%
%FSLAX24Y24*%
%IPPOS*%
%LPD*%
%AMOC8*
5,1,8,0,0,1.08239X$1,22.5*
%
%ADD10OC8,0.0630*%
%ADD11OC8,0.0520*%
%ADD12C,0.0600*%
%ADD13C,0.0760*%
%ADD14OC8,0.0885*%
%ADD15C,0.0885*%
%ADD16C,0.0160*%
%ADD17C,0.0660*%
%ADD18C,0.0320*%
%ADD19C,0.0050*%
D10*
X026500Y007500D03*
X027500Y007500D03*
X028000Y015000D03*
X028000Y016000D03*
X026000Y016000D03*
X026000Y015000D03*
X024000Y015000D03*
X024000Y016000D03*
X023000Y022500D03*
X023000Y023500D03*
X023000Y028500D03*
X023000Y029500D03*
X034500Y029000D03*
X035500Y029000D03*
X035500Y027000D03*
X034500Y027000D03*
X037000Y023500D03*
X037000Y022500D03*
X034500Y018500D03*
X034500Y017500D03*
X035500Y015000D03*
X036500Y015000D03*
X036500Y013500D03*
X036500Y012500D03*
X034500Y012500D03*
X034500Y013500D03*
X035500Y006500D03*
X036500Y006500D03*
X036500Y003000D03*
X035500Y003000D03*
X035500Y001500D03*
X036500Y001500D03*
D11*
X037500Y003500D03*
X037500Y004500D03*
X036500Y004500D03*
X035500Y004500D03*
X034000Y002500D03*
X034000Y001500D03*
X033000Y005000D03*
X032000Y005000D03*
X032000Y008000D03*
X033000Y008000D03*
X033000Y010000D03*
X033000Y011000D03*
X033000Y012500D03*
X033000Y013500D03*
X035500Y011000D03*
X036500Y011000D03*
X036500Y009000D03*
X035500Y009000D03*
X038500Y008500D03*
X038500Y009500D03*
X038500Y002500D03*
X038500Y001500D03*
X028000Y009500D03*
X028000Y010500D03*
X024500Y011000D03*
X023500Y011000D03*
X023500Y013000D03*
X024500Y013000D03*
X024500Y009000D03*
X023500Y009000D03*
X031500Y017500D03*
X031500Y018500D03*
X033000Y018500D03*
X033000Y017500D03*
X033000Y020000D03*
X033000Y021000D03*
X033000Y023500D03*
X033000Y024500D03*
X034500Y025500D03*
X035500Y025500D03*
X036500Y026000D03*
X037500Y026000D03*
X035500Y023500D03*
X035500Y022500D03*
X036000Y019000D03*
X037000Y019000D03*
X037000Y017000D03*
X036000Y017000D03*
X038500Y016500D03*
X038500Y017500D03*
X035500Y030500D03*
X034500Y030500D03*
D12*
X038700Y028500D02*
X039300Y028500D01*
X039300Y027500D02*
X038700Y027500D01*
X038700Y026500D02*
X039300Y026500D01*
X039300Y021500D02*
X038700Y021500D01*
X038700Y020500D02*
X039300Y020500D01*
X039300Y019500D02*
X038700Y019500D01*
X038700Y013500D02*
X039300Y013500D01*
X039300Y012500D02*
X038700Y012500D01*
X038700Y011500D02*
X039300Y011500D01*
X039300Y006000D02*
X038700Y006000D01*
X038700Y005000D02*
X039300Y005000D01*
X039300Y004000D02*
X038700Y004000D01*
X019300Y004000D02*
X018700Y004000D01*
X018700Y005000D02*
X019300Y005000D01*
X019300Y006000D02*
X018700Y006000D01*
X018700Y008500D02*
X019300Y008500D01*
X019300Y009500D02*
X018700Y009500D01*
X018700Y010500D02*
X019300Y010500D01*
X019300Y013000D02*
X018700Y013000D01*
X018700Y014000D02*
X019300Y014000D01*
X019300Y015000D02*
X018700Y015000D01*
X018700Y022500D02*
X019300Y022500D01*
X019300Y023500D02*
X018700Y023500D01*
X018700Y024500D02*
X019300Y024500D01*
X019300Y025500D02*
X018700Y025500D01*
X018700Y027500D02*
X019300Y027500D01*
X019300Y028500D02*
X018700Y028500D01*
X018700Y029500D02*
X019300Y029500D01*
D13*
X019000Y020000D03*
X019000Y017500D03*
D14*
X026780Y026240D03*
X026570Y029190D03*
X028420Y030470D03*
X030220Y005260D03*
X030430Y002310D03*
X028580Y001030D03*
D15*
X027560Y003570D03*
X026570Y004120D03*
X030430Y027380D03*
X029440Y027930D03*
D16*
X017980Y031016D02*
X017980Y000480D01*
X028250Y000480D01*
X027958Y000772D01*
X027958Y000962D01*
X028512Y000962D01*
X028512Y001098D01*
X028512Y001652D01*
X028322Y001652D01*
X027958Y001288D01*
X027957Y001098D01*
X028512Y001098D01*
X028648Y001098D01*
X028648Y001652D01*
X028838Y001652D01*
X029202Y001288D01*
X029202Y001098D01*
X028648Y001098D01*
X028648Y000962D01*
X029202Y000962D01*
X029202Y000772D01*
X028910Y000480D01*
X040120Y000480D01*
X040120Y031016D01*
X035917Y031016D01*
X036160Y030773D01*
X036160Y030227D01*
X035773Y029840D01*
X035227Y029840D01*
X035049Y030017D01*
X034914Y029881D01*
X034645Y029770D01*
X033802Y029770D01*
X032730Y028698D01*
X032730Y025160D01*
X033273Y025160D01*
X033660Y024773D01*
X033660Y024227D01*
X033483Y024049D01*
X033619Y023914D01*
X033730Y023645D01*
X033730Y023355D01*
X033619Y023086D01*
X032619Y022086D01*
X032414Y021881D01*
X032145Y021770D01*
X030730Y021770D01*
X030730Y020560D01*
X032507Y020560D01*
X032340Y020727D01*
X032340Y021273D01*
X032727Y021660D01*
X033273Y021660D01*
X033660Y021273D01*
X033660Y020727D01*
X033433Y020500D01*
X033660Y020273D01*
X033660Y019727D01*
X033273Y019340D01*
X032727Y019340D01*
X032627Y019440D01*
X030730Y019440D01*
X030730Y010302D01*
X032549Y008483D01*
X032727Y008660D01*
X033273Y008660D01*
X033660Y008273D01*
X033660Y007727D01*
X033273Y007340D01*
X032730Y007340D01*
X032730Y005660D01*
X033273Y005660D01*
X033660Y005273D01*
X033660Y004727D01*
X033273Y004340D01*
X032727Y004340D01*
X032549Y004517D01*
X032414Y004381D01*
X032145Y004270D01*
X031855Y004270D01*
X031586Y004381D01*
X031381Y004586D01*
X031270Y004855D01*
X031270Y007698D01*
X029586Y009381D01*
X029381Y009586D01*
X029270Y009855D01*
X029270Y021770D01*
X027300Y021770D01*
X027388Y021682D01*
X027534Y021428D01*
X027610Y021146D01*
X027610Y020854D01*
X027534Y020572D01*
X027388Y020318D01*
X027182Y020112D01*
X026928Y019966D01*
X026785Y019927D01*
X026837Y019913D01*
X026891Y019905D01*
X026902Y019899D01*
X026956Y019879D01*
X026960Y019879D01*
X026974Y019874D01*
X027025Y019859D01*
X027038Y019850D01*
X027075Y019836D01*
X027076Y019836D01*
X027086Y019832D01*
X027112Y019823D01*
X027113Y019821D01*
X027151Y019806D01*
X027171Y019805D01*
X027197Y019791D01*
X027209Y019790D01*
X027246Y019768D01*
X027290Y019751D01*
X027304Y019737D01*
X027337Y019720D01*
X027337Y019720D01*
X027362Y019714D01*
X027405Y019683D01*
X027452Y019658D01*
X027467Y019640D01*
X027503Y019619D01*
X027513Y019616D01*
X027571Y019576D01*
X027572Y019575D01*
X027582Y019572D01*
X027602Y019556D01*
X027632Y019538D01*
X027638Y019529D01*
X027645Y019527D01*
X027669Y019507D01*
X027701Y019484D01*
X027707Y019475D01*
X027719Y019465D01*
X027721Y019465D01*
X027729Y019457D01*
X027760Y019433D01*
X027762Y019432D01*
X027806Y019390D01*
X027843Y019359D01*
X027844Y019356D01*
X027874Y019330D01*
X027878Y019322D01*
X027920Y019282D01*
X027938Y019273D01*
X027980Y019224D01*
X028027Y019179D01*
X028031Y019170D01*
X028064Y019128D01*
X028069Y019122D01*
X028075Y019118D01*
X028088Y019101D01*
X028111Y019073D01*
X028115Y019063D01*
X028120Y019056D01*
X028167Y018995D01*
X028167Y018995D01*
X028189Y018974D01*
X028205Y018937D01*
X028230Y018903D01*
X028240Y018860D01*
X028246Y018847D01*
X028255Y018837D01*
X028280Y018770D01*
X028280Y018769D01*
X028288Y018760D01*
X028296Y018734D01*
X028309Y018706D01*
X028309Y018692D01*
X028309Y018690D01*
X028314Y018679D01*
X028325Y018661D01*
X028331Y018633D01*
X028335Y018622D01*
X028334Y018614D01*
X028337Y018601D01*
X028355Y018542D01*
X028353Y018525D01*
X028364Y018502D01*
X028366Y018450D01*
X028376Y018398D01*
X028373Y018384D01*
X028373Y018384D01*
X028371Y018313D01*
X028373Y018269D01*
X028377Y018251D01*
X028369Y018196D01*
X028367Y018140D01*
X028364Y018133D01*
X028365Y018132D01*
X028348Y018070D01*
X028338Y018007D01*
X028328Y017990D01*
X028320Y017935D01*
X028307Y017914D01*
X028301Y017890D01*
X028265Y017842D01*
X028261Y017835D01*
X028247Y017795D01*
X028218Y017763D01*
X028196Y017726D01*
X028163Y017701D01*
X028162Y017700D01*
X028166Y017688D01*
X028166Y017650D01*
X028174Y017613D01*
X028165Y017567D01*
X028165Y017564D01*
X028172Y017523D01*
X028163Y017481D01*
X028163Y017437D01*
X028146Y017399D01*
X028142Y017379D01*
X028134Y017313D01*
X028125Y017297D01*
X028121Y017279D01*
X028086Y017227D01*
X028074Y017189D01*
X028045Y017156D01*
X028024Y017118D01*
X029270Y017118D01*
X029270Y016960D02*
X027848Y016960D01*
X027848Y016959D02*
X027882Y016994D01*
X027927Y017017D01*
X027948Y017042D01*
X027975Y017061D01*
X027997Y017097D01*
X028024Y017118D01*
X028120Y017277D02*
X029270Y017277D01*
X029270Y017435D02*
X028162Y017435D01*
X028170Y017594D02*
X029270Y017594D01*
X029270Y017752D02*
X028211Y017752D01*
X028307Y017911D02*
X029270Y017911D01*
X029270Y018069D02*
X028348Y018069D01*
X028374Y018228D02*
X029270Y018228D01*
X029270Y018386D02*
X028373Y018386D01*
X028354Y018545D02*
X029270Y018545D01*
X029270Y018703D02*
X028309Y018703D01*
X028239Y018862D02*
X029270Y018862D01*
X029270Y019020D02*
X028148Y019020D01*
X028028Y019179D02*
X029270Y019179D01*
X029270Y019337D02*
X027866Y019337D01*
X027684Y019496D02*
X029270Y019496D01*
X029270Y019654D02*
X027455Y019654D01*
X027135Y019813D02*
X029270Y019813D01*
X029270Y019971D02*
X026938Y019971D01*
X027199Y020130D02*
X029270Y020130D01*
X029270Y020288D02*
X027358Y020288D01*
X027462Y020447D02*
X029270Y020447D01*
X029270Y020605D02*
X027543Y020605D01*
X027586Y020764D02*
X029270Y020764D01*
X029270Y020922D02*
X027610Y020922D01*
X027610Y021081D02*
X029270Y021081D01*
X029270Y021239D02*
X027585Y021239D01*
X027543Y021398D02*
X029270Y021398D01*
X029270Y021556D02*
X027461Y021556D01*
X027355Y021715D02*
X029270Y021715D01*
X030730Y021715D02*
X038031Y021715D01*
X038000Y021639D02*
X038107Y021897D01*
X038303Y022093D01*
X038561Y022200D01*
X039439Y022200D01*
X039697Y022093D01*
X039893Y021897D01*
X040000Y021639D01*
X040000Y021361D01*
X039893Y021103D01*
X039790Y021000D01*
X039893Y020897D01*
X040000Y020639D01*
X040000Y020361D01*
X039893Y020103D01*
X039790Y020000D01*
X039893Y019897D01*
X040000Y019639D01*
X040000Y019361D01*
X039893Y019103D01*
X039697Y018907D01*
X039439Y018800D01*
X038561Y018800D01*
X038303Y018907D01*
X038107Y019103D01*
X038000Y019361D01*
X038000Y019639D01*
X038107Y019897D01*
X038210Y020000D01*
X038107Y020103D01*
X038000Y020361D01*
X038000Y020639D01*
X038107Y020897D01*
X038210Y021000D01*
X038107Y021103D01*
X038000Y021361D01*
X038000Y021639D01*
X038000Y021556D02*
X033377Y021556D01*
X033536Y021398D02*
X038000Y021398D01*
X038050Y021239D02*
X033660Y021239D01*
X033660Y021081D02*
X038130Y021081D01*
X038132Y020922D02*
X033660Y020922D01*
X033660Y020764D02*
X038051Y020764D01*
X038000Y020605D02*
X033538Y020605D01*
X033487Y020447D02*
X038000Y020447D01*
X038030Y020288D02*
X033645Y020288D01*
X033660Y020130D02*
X038096Y020130D01*
X038181Y019971D02*
X033660Y019971D01*
X033660Y019813D02*
X038072Y019813D01*
X038006Y019654D02*
X037279Y019654D01*
X037273Y019660D02*
X036727Y019660D01*
X036500Y019433D01*
X036273Y019660D01*
X035727Y019660D01*
X035340Y019273D01*
X035340Y018727D01*
X035727Y018340D01*
X036273Y018340D01*
X036500Y018567D01*
X036727Y018340D01*
X037273Y018340D01*
X037660Y018727D01*
X037660Y019273D01*
X037273Y019660D01*
X037438Y019496D02*
X038000Y019496D01*
X038010Y019337D02*
X037596Y019337D01*
X037660Y019179D02*
X038075Y019179D01*
X038190Y019020D02*
X037660Y019020D01*
X037660Y018862D02*
X038412Y018862D01*
X038227Y018160D02*
X037840Y017773D01*
X037840Y017227D01*
X038222Y016844D01*
X038060Y016682D01*
X038060Y016500D01*
X038500Y016500D01*
X038940Y016500D01*
X038940Y016682D01*
X038778Y016844D01*
X039160Y017227D01*
X039160Y017773D01*
X038773Y018160D01*
X038227Y018160D01*
X038136Y018069D02*
X035080Y018069D01*
X035011Y018000D02*
X035215Y017796D01*
X035215Y017204D01*
X034796Y016785D01*
X034204Y016785D01*
X033785Y017204D01*
X033785Y017796D01*
X033989Y018000D01*
X033785Y018204D01*
X033785Y018796D01*
X034204Y019215D01*
X034796Y019215D01*
X035215Y018796D01*
X035215Y018204D01*
X035011Y018000D01*
X035101Y017911D02*
X037977Y017911D01*
X037840Y017752D02*
X035215Y017752D01*
X035215Y017594D02*
X035660Y017594D01*
X035727Y017660D02*
X035340Y017273D01*
X035340Y016727D01*
X035727Y016340D01*
X036273Y016340D01*
X036500Y016567D01*
X036727Y016340D01*
X037273Y016340D01*
X037660Y016727D01*
X037660Y017273D01*
X037273Y017660D01*
X036727Y017660D01*
X036500Y017433D01*
X036273Y017660D01*
X035727Y017660D01*
X035502Y017435D02*
X035215Y017435D01*
X035215Y017277D02*
X035343Y017277D01*
X035340Y017118D02*
X035129Y017118D01*
X034971Y016960D02*
X035340Y016960D01*
X035340Y016801D02*
X034812Y016801D01*
X035424Y016643D02*
X030730Y016643D01*
X030730Y016801D02*
X034188Y016801D01*
X034029Y016960D02*
X033393Y016960D01*
X033273Y016840D02*
X033660Y017227D01*
X033660Y017773D01*
X033433Y018000D01*
X033660Y018227D01*
X033660Y018773D01*
X033273Y019160D01*
X032727Y019160D01*
X032340Y018773D01*
X032340Y018227D01*
X032567Y018000D01*
X032340Y017773D01*
X032340Y017227D01*
X032727Y016840D01*
X033273Y016840D01*
X033551Y017118D02*
X033871Y017118D01*
X033785Y017277D02*
X033660Y017277D01*
X033660Y017435D02*
X033785Y017435D01*
X033785Y017594D02*
X033660Y017594D01*
X033660Y017752D02*
X033785Y017752D01*
X033899Y017911D02*
X033523Y017911D01*
X033502Y018069D02*
X033920Y018069D01*
X033785Y018228D02*
X033660Y018228D01*
X033660Y018386D02*
X033785Y018386D01*
X033785Y018545D02*
X033660Y018545D01*
X033660Y018703D02*
X033785Y018703D01*
X033850Y018862D02*
X033572Y018862D01*
X033413Y019020D02*
X034009Y019020D01*
X034167Y019179D02*
X030730Y019179D01*
X030730Y019337D02*
X035404Y019337D01*
X035340Y019179D02*
X034833Y019179D01*
X034991Y019020D02*
X035340Y019020D01*
X035340Y018862D02*
X035150Y018862D01*
X035215Y018703D02*
X035364Y018703D01*
X035215Y018545D02*
X035522Y018545D01*
X035681Y018386D02*
X035215Y018386D01*
X035215Y018228D02*
X040120Y018228D01*
X040120Y018386D02*
X037319Y018386D01*
X037478Y018545D02*
X040120Y018545D01*
X040120Y018703D02*
X037636Y018703D01*
X037840Y017594D02*
X037340Y017594D01*
X037498Y017435D02*
X037840Y017435D01*
X037840Y017277D02*
X037657Y017277D01*
X037660Y017118D02*
X037949Y017118D01*
X038107Y016960D02*
X037660Y016960D01*
X037660Y016801D02*
X038179Y016801D01*
X038060Y016643D02*
X037576Y016643D01*
X037417Y016484D02*
X038060Y016484D01*
X038060Y016500D02*
X038060Y016318D01*
X038318Y016060D01*
X038500Y016060D01*
X038682Y016060D01*
X038940Y016318D01*
X038940Y016500D01*
X038500Y016500D01*
X038500Y016500D01*
X038500Y016500D01*
X038500Y016060D01*
X038500Y016500D01*
X038500Y016500D01*
X038060Y016500D01*
X038060Y016326D02*
X030730Y016326D01*
X030730Y016484D02*
X035583Y016484D01*
X035796Y015715D02*
X035204Y015715D01*
X034785Y015296D01*
X034785Y014704D01*
X035204Y014285D01*
X035796Y014285D01*
X036000Y014489D01*
X036204Y014285D01*
X036796Y014285D01*
X037215Y014704D01*
X037215Y015296D01*
X036796Y015715D01*
X036204Y015715D01*
X036000Y015511D01*
X035796Y015715D01*
X035820Y015692D02*
X036180Y015692D01*
X036022Y015533D02*
X035978Y015533D01*
X035180Y015692D02*
X030730Y015692D01*
X030730Y015850D02*
X040120Y015850D01*
X040120Y015692D02*
X036820Y015692D01*
X036978Y015533D02*
X040120Y015533D01*
X040120Y015375D02*
X037137Y015375D01*
X037215Y015216D02*
X040120Y015216D01*
X040120Y015058D02*
X037215Y015058D01*
X037215Y014899D02*
X040120Y014899D01*
X040120Y014741D02*
X037215Y014741D01*
X037093Y014582D02*
X040120Y014582D01*
X040120Y014424D02*
X036935Y014424D01*
X036796Y014215D02*
X036204Y014215D01*
X035785Y013796D01*
X035785Y013204D01*
X035989Y013000D01*
X035785Y012796D01*
X035785Y012204D01*
X036204Y011785D01*
X036796Y011785D01*
X037215Y012204D01*
X037215Y012796D01*
X037011Y013000D01*
X037215Y013204D01*
X037215Y013796D01*
X036796Y014215D01*
X036905Y014107D02*
X038335Y014107D01*
X038303Y014093D02*
X038107Y013897D01*
X038000Y013639D01*
X038000Y013361D01*
X038107Y013103D01*
X038210Y013000D01*
X038107Y012897D01*
X038000Y012639D01*
X038000Y012361D01*
X038107Y012103D01*
X038210Y012000D01*
X038107Y011897D01*
X038000Y011639D01*
X038000Y011361D01*
X038107Y011103D01*
X038303Y010907D01*
X038561Y010800D01*
X039439Y010800D01*
X039697Y010907D01*
X039893Y011103D01*
X040000Y011361D01*
X040000Y011639D01*
X039893Y011897D01*
X039790Y012000D01*
X039893Y012103D01*
X040000Y012361D01*
X040000Y012639D01*
X039893Y012897D01*
X039790Y013000D01*
X039893Y013103D01*
X040000Y013361D01*
X040000Y013639D01*
X039893Y013897D01*
X039697Y014093D01*
X039439Y014200D01*
X038561Y014200D01*
X038303Y014093D01*
X038158Y013948D02*
X037063Y013948D01*
X037215Y013790D02*
X038062Y013790D01*
X038000Y013631D02*
X037215Y013631D01*
X037215Y013473D02*
X038000Y013473D01*
X038019Y013314D02*
X037215Y013314D01*
X037167Y013156D02*
X038085Y013156D01*
X038207Y012997D02*
X037014Y012997D01*
X037173Y012839D02*
X038083Y012839D01*
X038017Y012680D02*
X037215Y012680D01*
X037215Y012522D02*
X038000Y012522D01*
X038000Y012363D02*
X037215Y012363D01*
X037215Y012205D02*
X038065Y012205D01*
X038164Y012046D02*
X037057Y012046D01*
X036899Y011888D02*
X038103Y011888D01*
X038037Y011729D02*
X030730Y011729D01*
X030730Y011571D02*
X032637Y011571D01*
X032727Y011660D02*
X032340Y011273D01*
X032340Y010727D01*
X032567Y010500D01*
X032340Y010273D01*
X032340Y009727D01*
X032727Y009340D01*
X033273Y009340D01*
X033660Y009727D01*
X033660Y010273D01*
X033433Y010500D01*
X033660Y010727D01*
X033660Y011273D01*
X033273Y011660D01*
X032727Y011660D01*
X032727Y011840D02*
X033273Y011840D01*
X033660Y012227D01*
X033660Y012773D01*
X033278Y013156D01*
X033440Y013318D01*
X033440Y013500D01*
X033440Y013682D01*
X033182Y013940D01*
X033000Y013940D01*
X033000Y013500D01*
X033000Y013500D01*
X033440Y013500D01*
X033000Y013500D01*
X033000Y013500D01*
X033000Y013500D01*
X032560Y013500D01*
X032560Y013682D01*
X032818Y013940D01*
X033000Y013940D01*
X033000Y013500D01*
X032560Y013500D01*
X032560Y013318D01*
X032722Y013156D01*
X032340Y012773D01*
X032340Y012227D01*
X032727Y011840D01*
X032679Y011888D02*
X030730Y011888D01*
X030730Y012046D02*
X032521Y012046D01*
X032362Y012205D02*
X030730Y012205D01*
X030730Y012363D02*
X032340Y012363D01*
X032340Y012522D02*
X030730Y012522D01*
X030730Y012680D02*
X032340Y012680D01*
X032405Y012839D02*
X030730Y012839D01*
X030730Y012997D02*
X032564Y012997D01*
X032722Y013156D02*
X030730Y013156D01*
X030730Y013314D02*
X032564Y013314D01*
X032560Y013473D02*
X030730Y013473D01*
X030730Y013631D02*
X032560Y013631D01*
X032667Y013790D02*
X030730Y013790D01*
X030730Y013948D02*
X033937Y013948D01*
X033785Y013796D02*
X033785Y013204D01*
X033989Y013000D01*
X033785Y012796D01*
X033785Y012204D01*
X034204Y011785D01*
X034796Y011785D01*
X035215Y012204D01*
X035215Y012796D01*
X035011Y013000D01*
X035215Y013204D01*
X035215Y013796D01*
X034796Y014215D01*
X034204Y014215D01*
X033785Y013796D01*
X033785Y013790D02*
X033333Y013790D01*
X033440Y013631D02*
X033785Y013631D01*
X033785Y013473D02*
X033440Y013473D01*
X033436Y013314D02*
X033785Y013314D01*
X033833Y013156D02*
X033278Y013156D01*
X033436Y012997D02*
X033986Y012997D01*
X033827Y012839D02*
X033595Y012839D01*
X033660Y012680D02*
X033785Y012680D01*
X033785Y012522D02*
X033660Y012522D01*
X033660Y012363D02*
X033785Y012363D01*
X033785Y012205D02*
X033638Y012205D01*
X033479Y012046D02*
X033943Y012046D01*
X034101Y011888D02*
X033321Y011888D01*
X033363Y011571D02*
X035137Y011571D01*
X035227Y011660D02*
X034840Y011273D01*
X034840Y010727D01*
X035227Y010340D01*
X035773Y010340D01*
X036000Y010567D01*
X036227Y010340D01*
X036773Y010340D01*
X037160Y010727D01*
X037160Y011273D01*
X036773Y011660D01*
X036227Y011660D01*
X036000Y011433D01*
X035773Y011660D01*
X035227Y011660D01*
X034979Y011412D02*
X033521Y011412D01*
X033660Y011254D02*
X034840Y011254D01*
X034840Y011095D02*
X033660Y011095D01*
X033660Y010937D02*
X034840Y010937D01*
X034840Y010778D02*
X033660Y010778D01*
X033553Y010620D02*
X034947Y010620D01*
X035106Y010461D02*
X033472Y010461D01*
X033631Y010303D02*
X040120Y010303D01*
X040120Y010461D02*
X036894Y010461D01*
X037053Y010620D02*
X040120Y010620D01*
X040120Y010778D02*
X037160Y010778D01*
X037160Y010937D02*
X038274Y010937D01*
X038115Y011095D02*
X037160Y011095D01*
X037160Y011254D02*
X038044Y011254D01*
X038000Y011412D02*
X037021Y011412D01*
X036863Y011571D02*
X038000Y011571D01*
X038227Y010160D02*
X037840Y009773D01*
X037840Y009227D01*
X038222Y008844D01*
X038060Y008682D01*
X038060Y008500D01*
X038500Y008500D01*
X038940Y008500D01*
X038940Y008682D01*
X038778Y008844D01*
X039160Y009227D01*
X039160Y009773D01*
X038773Y010160D01*
X038227Y010160D01*
X038211Y010144D02*
X033660Y010144D01*
X033660Y009986D02*
X038052Y009986D01*
X037894Y009827D02*
X033660Y009827D01*
X033602Y009669D02*
X037840Y009669D01*
X037840Y009510D02*
X036923Y009510D01*
X036773Y009660D02*
X036227Y009660D01*
X036000Y009433D01*
X035773Y009660D01*
X035227Y009660D01*
X034840Y009273D01*
X034840Y008727D01*
X035227Y008340D01*
X035773Y008340D01*
X036000Y008567D01*
X036227Y008340D01*
X036773Y008340D01*
X037160Y008727D01*
X037160Y009273D01*
X036773Y009660D01*
X037082Y009352D02*
X037840Y009352D01*
X037874Y009193D02*
X037160Y009193D01*
X037160Y009035D02*
X038032Y009035D01*
X038191Y008876D02*
X037160Y008876D01*
X037151Y008718D02*
X038095Y008718D01*
X038060Y008559D02*
X036992Y008559D01*
X036834Y008401D02*
X038060Y008401D01*
X038060Y008318D02*
X038318Y008060D01*
X038500Y008060D01*
X038682Y008060D01*
X038940Y008318D01*
X038940Y008500D01*
X038500Y008500D01*
X038500Y008500D01*
X038500Y008500D01*
X038500Y008060D01*
X038500Y008500D01*
X038500Y008500D01*
X038060Y008500D01*
X038060Y008318D01*
X038136Y008242D02*
X033660Y008242D01*
X033660Y008084D02*
X038294Y008084D01*
X038500Y008084D02*
X038500Y008084D01*
X038500Y008242D02*
X038500Y008242D01*
X038500Y008401D02*
X038500Y008401D01*
X038706Y008084D02*
X040120Y008084D01*
X040120Y008242D02*
X038864Y008242D01*
X038940Y008401D02*
X040120Y008401D01*
X040120Y008559D02*
X038940Y008559D01*
X038905Y008718D02*
X040120Y008718D01*
X040120Y008876D02*
X038809Y008876D01*
X038968Y009035D02*
X040120Y009035D01*
X040120Y009193D02*
X039126Y009193D01*
X039160Y009352D02*
X040120Y009352D01*
X040120Y009510D02*
X039160Y009510D01*
X039160Y009669D02*
X040120Y009669D01*
X040120Y009827D02*
X039106Y009827D01*
X038948Y009986D02*
X040120Y009986D01*
X040120Y010144D02*
X038789Y010144D01*
X039726Y010937D02*
X040120Y010937D01*
X040120Y011095D02*
X039885Y011095D01*
X039956Y011254D02*
X040120Y011254D01*
X040120Y011412D02*
X040000Y011412D01*
X040000Y011571D02*
X040120Y011571D01*
X040120Y011729D02*
X039963Y011729D01*
X039897Y011888D02*
X040120Y011888D01*
X040120Y012046D02*
X039836Y012046D01*
X039935Y012205D02*
X040120Y012205D01*
X040120Y012363D02*
X040000Y012363D01*
X040000Y012522D02*
X040120Y012522D01*
X040120Y012680D02*
X039983Y012680D01*
X039917Y012839D02*
X040120Y012839D01*
X040120Y012997D02*
X039793Y012997D01*
X039915Y013156D02*
X040120Y013156D01*
X040120Y013314D02*
X039981Y013314D01*
X040000Y013473D02*
X040120Y013473D01*
X040120Y013631D02*
X040000Y013631D01*
X039938Y013790D02*
X040120Y013790D01*
X040120Y013948D02*
X039842Y013948D01*
X039665Y014107D02*
X040120Y014107D01*
X040120Y014265D02*
X030730Y014265D01*
X030730Y014107D02*
X034095Y014107D01*
X034905Y014107D02*
X036095Y014107D01*
X035937Y013948D02*
X035063Y013948D01*
X035215Y013790D02*
X035785Y013790D01*
X035785Y013631D02*
X035215Y013631D01*
X035215Y013473D02*
X035785Y013473D01*
X035785Y013314D02*
X035215Y013314D01*
X035167Y013156D02*
X035833Y013156D01*
X035986Y012997D02*
X035014Y012997D01*
X035173Y012839D02*
X035827Y012839D01*
X035785Y012680D02*
X035215Y012680D01*
X035215Y012522D02*
X035785Y012522D01*
X035785Y012363D02*
X035215Y012363D01*
X035215Y012205D02*
X035785Y012205D01*
X035943Y012046D02*
X035057Y012046D01*
X034899Y011888D02*
X036101Y011888D01*
X036137Y011571D02*
X035863Y011571D01*
X035894Y010461D02*
X036106Y010461D01*
X036077Y009510D02*
X035923Y009510D01*
X035077Y009510D02*
X033443Y009510D01*
X033285Y009352D02*
X034918Y009352D01*
X034840Y009193D02*
X031839Y009193D01*
X031681Y009352D02*
X032715Y009352D01*
X032557Y009510D02*
X031522Y009510D01*
X031364Y009669D02*
X032398Y009669D01*
X032340Y009827D02*
X031205Y009827D01*
X031047Y009986D02*
X032340Y009986D01*
X032340Y010144D02*
X030888Y010144D01*
X030730Y010303D02*
X032369Y010303D01*
X032528Y010461D02*
X030730Y010461D01*
X030730Y010620D02*
X032447Y010620D01*
X032340Y010778D02*
X030730Y010778D01*
X030730Y010937D02*
X032340Y010937D01*
X032340Y011095D02*
X030730Y011095D01*
X030730Y011254D02*
X032340Y011254D01*
X032479Y011412D02*
X030730Y011412D01*
X029347Y009669D02*
X028660Y009669D01*
X028660Y009773D02*
X028433Y010000D01*
X028660Y010227D01*
X028660Y010773D01*
X028273Y011160D01*
X027727Y011160D01*
X027340Y010773D01*
X027340Y010227D01*
X027567Y010000D01*
X027340Y009773D01*
X027340Y009227D01*
X027727Y008840D01*
X028273Y008840D01*
X028660Y009227D01*
X028660Y009773D01*
X028606Y009827D02*
X029282Y009827D01*
X029270Y009986D02*
X028448Y009986D01*
X028577Y010144D02*
X029270Y010144D01*
X029270Y010303D02*
X028660Y010303D01*
X028660Y010461D02*
X029270Y010461D01*
X029270Y010620D02*
X028660Y010620D01*
X028655Y010778D02*
X029270Y010778D01*
X029270Y010937D02*
X028497Y010937D01*
X028338Y011095D02*
X029270Y011095D01*
X029270Y011254D02*
X024869Y011254D01*
X024940Y011182D02*
X024682Y011440D01*
X024500Y011440D01*
X024500Y011000D01*
X024500Y011000D01*
X024940Y011000D01*
X024940Y011182D01*
X024940Y011095D02*
X025798Y011095D01*
X025854Y011110D02*
X025572Y011034D01*
X025318Y010888D01*
X025112Y010682D01*
X024966Y010428D01*
X024890Y010146D01*
X024890Y009854D01*
X024966Y009572D01*
X025112Y009318D01*
X025318Y009112D01*
X025572Y008966D01*
X025854Y008890D01*
X026146Y008890D01*
X026428Y008966D01*
X026682Y009112D01*
X026888Y009318D01*
X027034Y009572D01*
X027110Y009854D01*
X027110Y010146D01*
X027034Y010428D01*
X026888Y010682D01*
X026682Y010888D01*
X026428Y011034D01*
X026146Y011110D01*
X025854Y011110D01*
X026202Y011095D02*
X027662Y011095D01*
X027503Y010937D02*
X026598Y010937D01*
X026792Y010778D02*
X027345Y010778D01*
X027340Y010620D02*
X026924Y010620D01*
X027015Y010461D02*
X027340Y010461D01*
X027340Y010303D02*
X027068Y010303D01*
X027110Y010144D02*
X027423Y010144D01*
X027552Y009986D02*
X027110Y009986D01*
X027103Y009827D02*
X027394Y009827D01*
X027340Y009669D02*
X027060Y009669D01*
X026999Y009510D02*
X027340Y009510D01*
X027340Y009352D02*
X026907Y009352D01*
X026763Y009193D02*
X027374Y009193D01*
X027532Y009035D02*
X026548Y009035D01*
X026796Y008215D02*
X026204Y008215D01*
X025785Y007796D01*
X025785Y007204D01*
X026204Y006785D01*
X026796Y006785D01*
X027000Y006989D01*
X027204Y006785D01*
X027796Y006785D01*
X028215Y007204D01*
X028215Y007796D01*
X027796Y008215D01*
X027204Y008215D01*
X027000Y008011D01*
X026796Y008215D01*
X026928Y008084D02*
X027072Y008084D01*
X027691Y008876D02*
X024940Y008876D01*
X024940Y008818D02*
X024940Y009000D01*
X024940Y009182D01*
X024682Y009440D01*
X024500Y009440D01*
X024500Y009000D01*
X024940Y009000D01*
X024500Y009000D01*
X024500Y009000D01*
X024500Y009000D01*
X024500Y008560D01*
X024682Y008560D01*
X024940Y008818D01*
X024840Y008718D02*
X030250Y008718D01*
X030092Y008876D02*
X028309Y008876D01*
X028468Y009035D02*
X029933Y009035D01*
X029775Y009193D02*
X028626Y009193D01*
X028660Y009352D02*
X029616Y009352D01*
X029458Y009510D02*
X028660Y009510D01*
X027928Y008084D02*
X030884Y008084D01*
X030726Y008242D02*
X019951Y008242D01*
X020000Y008361D02*
X020000Y008639D01*
X019893Y008897D01*
X019790Y009000D01*
X019893Y009103D01*
X020000Y009361D01*
X020000Y009639D01*
X019893Y009897D01*
X019790Y010000D01*
X019893Y010103D01*
X020000Y010361D01*
X020000Y010440D01*
X023127Y010440D01*
X023227Y010340D01*
X023773Y010340D01*
X024156Y010722D01*
X024318Y010560D01*
X024500Y010560D01*
X024682Y010560D01*
X024940Y010818D01*
X024940Y011000D01*
X024500Y011000D01*
X024500Y011000D01*
X024500Y011440D01*
X024318Y011440D01*
X024156Y011278D01*
X023773Y011660D01*
X023227Y011660D01*
X023127Y011560D01*
X019389Y011560D01*
X019183Y011475D01*
X019025Y011317D01*
X018908Y011200D01*
X018561Y011200D01*
X018303Y011093D01*
X018107Y010897D01*
X018000Y010639D01*
X018000Y010361D01*
X018107Y010103D01*
X018210Y010000D01*
X018107Y009897D01*
X018000Y009639D01*
X018000Y009361D01*
X018107Y009103D01*
X018210Y009000D01*
X018107Y008897D01*
X018000Y008639D01*
X018000Y008361D01*
X018107Y008103D01*
X018303Y007907D01*
X018561Y007800D01*
X019439Y007800D01*
X019697Y007907D01*
X019893Y008103D01*
X020000Y008361D01*
X020000Y008401D02*
X023166Y008401D01*
X023227Y008340D02*
X023773Y008340D01*
X024156Y008722D01*
X024318Y008560D01*
X024500Y008560D01*
X024500Y009000D01*
X024500Y009000D01*
X024500Y009440D01*
X024318Y009440D01*
X024156Y009278D01*
X023773Y009660D01*
X023227Y009660D01*
X022840Y009273D01*
X022840Y008727D01*
X023227Y008340D01*
X023008Y008559D02*
X020000Y008559D01*
X019968Y008718D02*
X022849Y008718D01*
X022840Y008876D02*
X019902Y008876D01*
X019824Y009035D02*
X022840Y009035D01*
X022840Y009193D02*
X019931Y009193D01*
X019996Y009352D02*
X022918Y009352D01*
X023077Y009510D02*
X020000Y009510D01*
X019988Y009669D02*
X024940Y009669D01*
X024897Y009827D02*
X019922Y009827D01*
X019804Y009986D02*
X024890Y009986D01*
X024890Y010144D02*
X019910Y010144D01*
X019976Y010303D02*
X024932Y010303D01*
X024985Y010461D02*
X023894Y010461D01*
X024053Y010620D02*
X024258Y010620D01*
X024500Y010620D02*
X024500Y010620D01*
X024500Y010560D02*
X024500Y011000D01*
X024500Y011000D01*
X024500Y010560D01*
X024500Y010778D02*
X024500Y010778D01*
X024500Y010937D02*
X024500Y010937D01*
X024500Y011095D02*
X024500Y011095D01*
X024500Y011254D02*
X024500Y011254D01*
X024500Y011412D02*
X024500Y011412D01*
X024290Y011412D02*
X024021Y011412D01*
X023863Y011571D02*
X029270Y011571D01*
X029270Y011729D02*
X017980Y011729D01*
X017980Y011571D02*
X023137Y011571D01*
X023227Y012340D02*
X023773Y012340D01*
X024000Y012567D01*
X024227Y012340D01*
X024773Y012340D01*
X025160Y012727D01*
X025160Y013273D01*
X024773Y013660D01*
X024227Y013660D01*
X024000Y013433D01*
X023773Y013660D01*
X023227Y013660D01*
X022840Y013273D01*
X022840Y012727D01*
X023227Y012340D01*
X023204Y012363D02*
X017980Y012363D01*
X017980Y012205D02*
X029270Y012205D01*
X029270Y012363D02*
X024796Y012363D01*
X024955Y012522D02*
X029270Y012522D01*
X029270Y012680D02*
X025113Y012680D01*
X025160Y012839D02*
X029270Y012839D01*
X029270Y012997D02*
X025160Y012997D01*
X025160Y013156D02*
X029270Y013156D01*
X029270Y013314D02*
X025119Y013314D01*
X024961Y013473D02*
X029270Y013473D01*
X029270Y013631D02*
X024802Y013631D01*
X024198Y013631D02*
X023802Y013631D01*
X023961Y013473D02*
X024039Y013473D01*
X024296Y014285D02*
X023704Y014285D01*
X023285Y014704D01*
X023285Y015296D01*
X023644Y015656D01*
X023505Y015795D01*
X023505Y016000D01*
X024000Y016000D01*
X024495Y016000D01*
X024495Y016205D01*
X024221Y016479D01*
X024251Y016481D01*
X024254Y016483D01*
X024258Y016483D01*
X024258Y016483D01*
X024260Y016483D01*
X024325Y016491D01*
X024347Y016488D01*
X024395Y016499D01*
X024417Y016501D01*
X024422Y016504D01*
X024469Y016510D01*
X024479Y016516D01*
X024480Y016516D01*
X024519Y016527D01*
X024526Y016527D01*
X024569Y016541D01*
X024621Y016554D01*
X024630Y016561D01*
X024675Y016574D01*
X024680Y016578D01*
X024736Y016597D01*
X024765Y016599D01*
X024815Y016624D01*
X024869Y016641D01*
X024885Y016655D01*
X024931Y016678D01*
X024936Y016679D01*
X024963Y016694D01*
X024986Y016704D01*
X024987Y016705D01*
X024990Y016707D01*
X024992Y016707D01*
X025001Y016712D01*
X025013Y016718D01*
X025016Y016720D01*
X025035Y016731D01*
X025077Y016752D01*
X025080Y016756D01*
X025089Y016761D01*
X025101Y016763D01*
X025160Y016802D01*
X025221Y016836D01*
X025224Y016839D01*
X025258Y016864D01*
X025263Y016866D01*
X025292Y016888D01*
X025336Y016917D01*
X025343Y016927D01*
X025354Y016935D01*
X025358Y016936D01*
X025376Y016951D01*
X025389Y016961D01*
X025391Y016963D01*
X025414Y016983D01*
X025417Y016984D01*
X025440Y017003D01*
X025480Y017034D01*
X025483Y017040D01*
X025541Y017088D01*
X025543Y017091D01*
X025560Y017105D01*
X025568Y017088D01*
X025601Y017058D01*
X025604Y017053D01*
X025607Y017052D01*
X025610Y017050D01*
X025623Y017028D01*
X025645Y017012D01*
X025660Y016995D01*
X025676Y016988D01*
X025689Y016972D01*
X025704Y016964D01*
X025715Y016953D01*
X025739Y016944D01*
X025740Y016944D01*
X025788Y016910D01*
X025814Y016904D01*
X025832Y016894D01*
X025906Y016854D01*
X025907Y016854D01*
X025907Y016853D01*
X025991Y016845D01*
X026074Y016836D01*
X026075Y016836D01*
X026082Y016836D01*
X026161Y016826D01*
X026166Y016827D01*
X026170Y016827D01*
X026247Y016850D01*
X026300Y016864D01*
X026380Y016885D01*
X026382Y016887D01*
X026384Y016887D01*
X026449Y016938D01*
X026461Y016947D01*
X026515Y016981D01*
X026528Y016998D01*
X026545Y017011D01*
X026574Y017061D01*
X026594Y017082D01*
X026613Y017071D01*
X026622Y017061D01*
X026664Y017040D01*
X026673Y017034D01*
X026675Y017034D01*
X026715Y017008D01*
X026727Y017006D01*
X026748Y016994D01*
X026752Y016994D01*
X026757Y016989D01*
X026816Y016965D01*
X026820Y016964D01*
X026821Y016964D01*
X026821Y016963D01*
X026883Y016933D01*
X026899Y016932D01*
X026925Y016922D01*
X026956Y016901D01*
X027003Y016891D01*
X027047Y016874D01*
X027085Y016874D01*
X027145Y016862D01*
X027179Y016847D01*
X027227Y016845D01*
X027274Y016835D01*
X027305Y016841D01*
X027326Y016834D01*
X027384Y016840D01*
X027443Y016838D01*
X027462Y016845D01*
X027490Y016841D01*
X027538Y016853D01*
X027586Y016858D01*
X027611Y016871D01*
X027635Y016871D01*
X027685Y016892D01*
X027739Y016906D01*
X027754Y016917D01*
X027786Y016925D01*
X027815Y016946D01*
X027848Y016959D01*
X027704Y016715D02*
X027285Y016296D01*
X027285Y015704D01*
X027489Y015500D01*
X027285Y015296D01*
X027285Y014704D01*
X027704Y014285D01*
X028296Y014285D01*
X028715Y014704D01*
X028715Y015296D01*
X028511Y015500D01*
X028715Y015704D01*
X028715Y016296D01*
X028296Y016715D01*
X027704Y016715D01*
X027631Y016643D02*
X026369Y016643D01*
X026296Y016715D02*
X025704Y016715D01*
X025285Y016296D01*
X025285Y015704D01*
X025489Y015500D01*
X025285Y015296D01*
X025285Y014704D01*
X025704Y014285D01*
X026296Y014285D01*
X026715Y014704D01*
X026715Y015296D01*
X026511Y015500D01*
X026715Y015704D01*
X026715Y016296D01*
X026296Y016715D01*
X026481Y016960D02*
X026829Y016960D01*
X026527Y016484D02*
X027473Y016484D01*
X027314Y016326D02*
X026686Y016326D01*
X026715Y016167D02*
X027285Y016167D01*
X027285Y016009D02*
X026715Y016009D01*
X026715Y015850D02*
X027285Y015850D01*
X027297Y015692D02*
X026703Y015692D01*
X026544Y015533D02*
X027456Y015533D01*
X027363Y015375D02*
X026637Y015375D01*
X026715Y015216D02*
X027285Y015216D01*
X027285Y015058D02*
X026715Y015058D01*
X026715Y014899D02*
X027285Y014899D01*
X027285Y014741D02*
X026715Y014741D01*
X026593Y014582D02*
X027407Y014582D01*
X027565Y014424D02*
X026435Y014424D01*
X025565Y014424D02*
X024435Y014424D01*
X024296Y014285D02*
X024715Y014704D01*
X024715Y015296D01*
X024356Y015656D01*
X024495Y015795D01*
X024495Y016000D01*
X024000Y016000D01*
X024000Y016000D01*
X024000Y016000D01*
X023505Y016000D01*
X023505Y016205D01*
X023795Y016495D01*
X023892Y016495D01*
X023875Y016497D01*
X023868Y016501D01*
X023850Y016504D01*
X023822Y016504D01*
X023808Y016510D01*
X023806Y016510D01*
X023804Y016511D01*
X023777Y016523D01*
X023730Y016534D01*
X023725Y016537D01*
X023725Y016538D01*
X023674Y016567D01*
X023620Y016590D01*
X023614Y016596D01*
X023579Y016620D01*
X023552Y016630D01*
X023530Y016650D01*
X023509Y016662D01*
X023498Y016677D01*
X023464Y016700D01*
X023449Y016724D01*
X023413Y016746D01*
X023378Y016739D01*
X023366Y016741D01*
X023353Y016737D01*
X023309Y016744D01*
X023265Y016742D01*
X023249Y016748D01*
X023197Y016760D01*
X023135Y016770D01*
X023126Y016770D01*
X023085Y016787D01*
X023082Y016787D01*
X023073Y016791D01*
X023029Y016802D01*
X023005Y016818D01*
X022997Y016823D01*
X022972Y016827D01*
X022936Y016849D01*
X022931Y016851D01*
X022929Y016853D01*
X022899Y016866D01*
X022894Y016871D01*
X022884Y016876D01*
X022876Y016878D01*
X022872Y016882D01*
X022866Y016884D01*
X022861Y016890D01*
X022846Y016902D01*
X022835Y016906D01*
X022812Y016926D01*
X022778Y016947D01*
X022763Y016967D01*
X022747Y016980D01*
X022743Y016983D01*
X022742Y016983D01*
X022739Y016983D01*
X022737Y016983D01*
X022703Y016986D01*
X022690Y016986D01*
X022685Y016985D01*
X022677Y016986D01*
X022641Y016986D01*
X022621Y016993D01*
X022610Y016995D01*
X022598Y016996D01*
X022591Y016995D01*
X022565Y016999D01*
X022534Y017002D01*
X022527Y017005D01*
X022516Y017007D01*
X022495Y017010D01*
X022485Y017009D01*
X022455Y017016D01*
X022440Y017017D01*
X022436Y017020D01*
X022414Y017025D01*
X022342Y017037D01*
X022335Y017036D01*
X022273Y017056D01*
X022210Y017071D01*
X022197Y017080D01*
X022191Y017082D01*
X022179Y017082D01*
X022149Y017095D01*
X022146Y017095D01*
X022120Y017106D01*
X022111Y017109D01*
X022110Y017109D01*
X022109Y017110D01*
X022087Y017117D01*
X022082Y017121D01*
X022062Y017128D01*
X022059Y017129D01*
X022053Y017132D01*
X022043Y017135D01*
X022039Y017139D01*
X022018Y017149D01*
X021998Y017158D01*
X021995Y017161D01*
X021961Y017176D01*
X021959Y017178D01*
X021925Y017193D01*
X021918Y017201D01*
X021853Y017233D01*
X021845Y017234D01*
X021782Y017269D01*
X021767Y017272D01*
X021732Y017295D01*
X021710Y017306D01*
X021705Y017313D01*
X021648Y017344D01*
X021639Y017356D01*
X021637Y017357D01*
X021620Y017362D01*
X021588Y017387D01*
X021584Y017389D01*
X021558Y017409D01*
X021511Y017440D01*
X021502Y017453D01*
X021502Y017453D01*
X021493Y017460D01*
X021492Y017460D01*
X021472Y017478D01*
X021457Y017489D01*
X021456Y017491D01*
X021438Y017506D01*
X021378Y017555D01*
X021377Y017556D01*
X021362Y017563D01*
X021318Y017609D01*
X021269Y017650D01*
X021259Y017669D01*
X021220Y017710D01*
X021199Y017722D01*
X021161Y017771D01*
X021118Y017815D01*
X021111Y017833D01*
X021089Y017863D01*
X021078Y017869D01*
X021049Y017913D01*
X021033Y017932D01*
X021032Y017936D01*
X021026Y017945D01*
X021024Y017946D01*
X021018Y017955D01*
X020993Y017987D01*
X020991Y017998D01*
X020989Y018001D01*
X020979Y018008D01*
X020957Y018047D01*
X020957Y018047D01*
X020952Y018055D01*
X020936Y018078D01*
X020935Y018084D01*
X020904Y018133D01*
X020902Y018145D01*
X020897Y018153D01*
X020875Y018177D01*
X020856Y018226D01*
X020856Y018227D01*
X020830Y018272D01*
X020829Y018282D01*
X020803Y018330D01*
X020801Y018346D01*
X020800Y018348D01*
X020790Y018369D01*
X020783Y018376D01*
X020756Y018446D01*
X020725Y018513D01*
X020725Y018524D01*
X020719Y018540D01*
X020709Y018552D01*
X020688Y018619D01*
X020671Y018660D01*
X020671Y018660D01*
X020671Y018661D01*
X020662Y018684D01*
X020662Y018693D01*
X020657Y018712D01*
X020652Y018719D01*
X020642Y018764D01*
X020639Y018773D01*
X020637Y018776D01*
X020635Y018786D01*
X020628Y018806D01*
X020629Y018814D01*
X020628Y018816D01*
X020615Y018866D01*
X020616Y018875D01*
X020614Y018883D01*
X020606Y018899D01*
X020599Y018962D01*
X020587Y019025D01*
X020588Y019030D01*
X020585Y019037D01*
X020586Y019098D01*
X020580Y019159D01*
X020584Y019174D01*
X020580Y019191D01*
X020588Y019250D01*
X020588Y019308D01*
X020599Y019333D01*
X020601Y019351D01*
X020598Y019387D01*
X020612Y019434D01*
X020618Y019482D01*
X020636Y019513D01*
X020638Y019545D01*
X020661Y019592D01*
X020677Y019642D01*
X020690Y019659D01*
X020691Y019667D01*
X020726Y019726D01*
X020733Y019741D01*
X020746Y019776D01*
X020773Y019807D01*
X020793Y019842D01*
X020829Y019869D01*
X020883Y019929D01*
X020898Y019957D01*
X020939Y019991D01*
X020951Y020004D01*
X020954Y020009D01*
X020958Y020012D01*
X020975Y020031D01*
X021001Y020043D01*
X021012Y020051D01*
X021048Y020081D01*
X021064Y020099D01*
X021107Y020121D01*
X021147Y020150D01*
X021173Y020157D01*
X021185Y020168D01*
X021242Y020189D01*
X021296Y020216D01*
X021301Y020217D01*
X021307Y020221D01*
X021362Y020233D01*
X021414Y020253D01*
X021433Y020252D01*
X021471Y020258D01*
X021492Y020268D01*
X021526Y020270D01*
X021548Y020275D01*
X021561Y020273D01*
X021615Y020281D01*
X021638Y020276D01*
X021700Y020279D01*
X021716Y020286D01*
X021784Y020284D01*
X021843Y020287D01*
X021848Y020289D01*
X021912Y020281D01*
X021931Y020280D01*
X021934Y020281D01*
X021941Y020280D01*
X021976Y020279D01*
X021993Y020272D01*
X022009Y020269D01*
X022020Y020268D01*
X022031Y020270D01*
X022037Y020268D01*
X022060Y020282D01*
X022080Y020303D01*
X022131Y020326D01*
X022179Y020355D01*
X022183Y020356D01*
X022190Y020361D01*
X022237Y020373D01*
X022253Y020380D01*
X022263Y020386D01*
X022268Y020387D01*
X022281Y020392D01*
X022311Y020393D01*
X022325Y020395D01*
X022376Y020408D01*
X022392Y020413D01*
X022430Y020411D01*
X022468Y020416D01*
X022485Y020412D01*
X022491Y020413D01*
X022551Y020402D01*
X022612Y020397D01*
X022613Y020397D01*
X022622Y020397D01*
X022659Y020382D01*
X022698Y020375D01*
X022721Y020360D01*
X022728Y020357D01*
X022759Y020350D01*
X022789Y020330D01*
X022823Y020316D01*
X022840Y020300D01*
X022862Y020289D01*
X022881Y020267D01*
X022904Y020251D01*
X022927Y020216D01*
X022945Y020199D01*
X022950Y020186D01*
X022972Y020160D01*
X022981Y020133D01*
X022997Y020109D01*
X023006Y020057D01*
X023012Y020044D01*
X023012Y020038D01*
X023013Y020034D01*
X023059Y020039D01*
X023078Y020048D01*
X023142Y020048D01*
X023205Y020055D01*
X023226Y020049D01*
X023280Y020050D01*
X023296Y020055D01*
X023364Y020051D01*
X023432Y020052D01*
X023448Y020045D01*
X023457Y020045D01*
X023474Y020049D01*
X023518Y020043D01*
X023536Y020046D01*
X023571Y020037D01*
X023588Y020036D01*
X023589Y020081D01*
X023605Y020117D01*
X023608Y020135D01*
X023607Y020169D01*
X023625Y020217D01*
X023635Y020268D01*
X023641Y020277D01*
X023642Y020284D01*
X023655Y020310D01*
X023656Y020317D01*
X023672Y020347D01*
X023688Y020392D01*
X023693Y020396D01*
X023716Y020431D01*
X023729Y020455D01*
X023734Y020459D01*
X023757Y020500D01*
X023770Y020511D01*
X023787Y020548D01*
X023815Y020574D01*
X023837Y020606D01*
X023860Y020621D01*
X023872Y020639D01*
X023893Y020653D01*
X023897Y020658D01*
X023920Y020672D01*
X023948Y020699D01*
X023960Y020703D01*
X023961Y020704D01*
X024004Y020726D01*
X024029Y020742D01*
X024035Y020743D01*
X024076Y020768D01*
X024084Y020770D01*
X024103Y020785D01*
X024144Y020796D01*
X024182Y020815D01*
X024206Y020817D01*
X024252Y020825D01*
X024257Y020828D01*
X024274Y020831D01*
X024319Y020843D01*
X024335Y020841D01*
X024395Y020853D01*
X024422Y020864D01*
X024470Y020863D01*
X024518Y020871D01*
X024554Y020863D01*
X024668Y020862D01*
X024687Y020868D01*
X024752Y020862D01*
X024817Y020862D01*
X024830Y020856D01*
X024873Y020850D01*
X024922Y020845D01*
X024926Y020846D01*
X024940Y020844D01*
X024948Y020843D01*
X024950Y020842D01*
X024986Y020835D01*
X024987Y020835D01*
X025011Y020831D01*
X025033Y020828D01*
X025038Y020829D01*
X025055Y020825D01*
X025073Y020822D01*
X025078Y020819D01*
X025095Y020816D01*
X025099Y020816D01*
X025121Y020811D01*
X025148Y020806D01*
X025150Y020804D01*
X025174Y020800D01*
X025188Y020801D01*
X025233Y020784D01*
X025236Y020785D01*
X025245Y020781D01*
X025255Y020779D01*
X025259Y020776D01*
X025309Y020764D01*
X025326Y020751D01*
X025389Y020728D01*
X025391Y020726D01*
X025418Y020716D01*
X025427Y020715D01*
X025390Y020854D01*
X025390Y021146D01*
X025466Y021428D01*
X025612Y021682D01*
X025700Y021770D01*
X018855Y021770D01*
X018782Y021800D01*
X018561Y021800D01*
X018303Y021907D01*
X018107Y022103D01*
X018000Y022361D01*
X018000Y022639D01*
X018107Y022897D01*
X018210Y023000D01*
X018107Y023103D01*
X018000Y023361D01*
X018000Y023639D01*
X018107Y023897D01*
X018210Y024000D01*
X018107Y024103D01*
X018000Y024361D01*
X018000Y024639D01*
X018107Y024897D01*
X018303Y025093D01*
X018392Y025130D01*
X018387Y025134D01*
X018334Y025187D01*
X018289Y025248D01*
X018255Y025316D01*
X018232Y025388D01*
X018220Y025462D01*
X018220Y025480D01*
X018980Y025480D01*
X018980Y025520D01*
X018980Y025980D01*
X018662Y025980D01*
X018588Y025968D01*
X018516Y025945D01*
X018448Y025911D01*
X018387Y025866D01*
X018334Y025813D01*
X018289Y025752D01*
X018255Y025684D01*
X018232Y025612D01*
X018220Y025538D01*
X018220Y025520D01*
X018980Y025520D01*
X019020Y025520D01*
X019020Y025980D01*
X019338Y025980D01*
X019412Y025968D01*
X019484Y025945D01*
X019552Y025911D01*
X019613Y025866D01*
X019666Y025813D01*
X019711Y025752D01*
X019745Y025684D01*
X019768Y025612D01*
X019780Y025538D01*
X019780Y025520D01*
X019020Y025520D01*
X019020Y025480D01*
X019780Y025480D01*
X019780Y025462D01*
X019768Y025388D01*
X019745Y025316D01*
X019711Y025248D01*
X019666Y025187D01*
X019613Y025134D01*
X019608Y025130D01*
X019697Y025093D01*
X019893Y024897D01*
X020000Y024639D01*
X020000Y024361D01*
X019893Y024103D01*
X019790Y024000D01*
X019893Y023897D01*
X020000Y023639D01*
X020000Y023361D01*
X019946Y023230D01*
X022570Y023230D01*
X022505Y023295D01*
X022505Y023500D01*
X023000Y023500D01*
X023000Y023500D01*
X023000Y023995D01*
X023205Y023995D01*
X023495Y023705D01*
X023495Y023500D01*
X023000Y023500D01*
X023000Y023500D01*
X023000Y023500D01*
X023000Y023995D01*
X022795Y023995D01*
X022505Y023705D01*
X022505Y023500D01*
X023000Y023500D01*
X023495Y023500D01*
X023495Y023295D01*
X023430Y023230D01*
X031270Y023230D01*
X031270Y027206D01*
X031144Y026903D01*
X030907Y026666D01*
X030598Y026538D01*
X030262Y026538D01*
X029953Y026666D01*
X029716Y026903D01*
X029635Y027099D01*
X029608Y027088D01*
X029272Y027088D01*
X028963Y027216D01*
X028726Y027453D01*
X028598Y027762D01*
X028598Y028098D01*
X028726Y028407D01*
X028963Y028644D01*
X029272Y028772D01*
X029608Y028772D01*
X029917Y028644D01*
X030154Y028407D01*
X030235Y028211D01*
X030262Y028222D01*
X030598Y028222D01*
X030907Y028094D01*
X031144Y027857D01*
X031270Y027554D01*
X031270Y029145D01*
X031381Y029414D01*
X031586Y029619D01*
X032984Y031016D01*
X028754Y031016D01*
X029042Y030728D01*
X029042Y030538D01*
X028488Y030538D01*
X028488Y030402D01*
X029042Y030402D01*
X029042Y030212D01*
X028678Y029848D01*
X028488Y029848D01*
X028488Y030402D01*
X028352Y030402D01*
X028352Y029848D01*
X028162Y029848D01*
X027798Y030212D01*
X027798Y030402D01*
X028352Y030402D01*
X028352Y030538D01*
X027797Y030538D01*
X027798Y030728D01*
X028086Y031016D01*
X017980Y031016D01*
X017980Y030908D02*
X027977Y030908D01*
X027819Y030749D02*
X017980Y030749D01*
X017980Y030591D02*
X027798Y030591D01*
X027798Y030274D02*
X017980Y030274D01*
X017980Y030432D02*
X028352Y030432D01*
X028488Y030432D02*
X032400Y030432D01*
X032558Y030591D02*
X029042Y030591D01*
X029021Y030749D02*
X032717Y030749D01*
X032875Y030908D02*
X028863Y030908D01*
X029042Y030274D02*
X032241Y030274D01*
X032083Y030115D02*
X028945Y030115D01*
X028787Y029957D02*
X031924Y029957D01*
X031766Y029798D02*
X027153Y029798D01*
X026995Y029957D02*
X028053Y029957D01*
X027895Y030115D02*
X023396Y030115D01*
X023296Y030215D02*
X023715Y029796D01*
X023715Y029204D01*
X023511Y029000D01*
X023715Y028796D01*
X023715Y028204D01*
X023296Y027785D01*
X022704Y027785D01*
X022285Y028204D01*
X022285Y028796D01*
X022489Y029000D01*
X022285Y029204D01*
X022285Y029796D01*
X022704Y030215D01*
X023296Y030215D01*
X023555Y029957D02*
X026145Y029957D01*
X026221Y030032D02*
X025728Y029539D01*
X025728Y028841D01*
X026221Y028348D01*
X026919Y028348D01*
X027412Y028841D01*
X027412Y029539D01*
X026919Y030032D01*
X026221Y030032D01*
X025987Y029798D02*
X023713Y029798D01*
X023715Y029640D02*
X025828Y029640D01*
X025728Y029481D02*
X023715Y029481D01*
X023715Y029323D02*
X025728Y029323D01*
X025728Y029164D02*
X023675Y029164D01*
X023517Y029006D02*
X025728Y029006D01*
X025728Y028847D02*
X023664Y028847D01*
X023715Y028689D02*
X025880Y028689D01*
X026038Y028530D02*
X023715Y028530D01*
X023715Y028372D02*
X026197Y028372D01*
X026943Y028372D02*
X028711Y028372D01*
X028645Y028213D02*
X023715Y028213D01*
X023566Y028055D02*
X028598Y028055D01*
X028598Y027896D02*
X023407Y027896D01*
X022593Y027896D02*
X019894Y027896D01*
X019893Y027897D02*
X019790Y028000D01*
X019893Y028103D01*
X020000Y028361D01*
X020000Y028639D01*
X019893Y028897D01*
X019697Y029093D01*
X019608Y029130D01*
X019613Y029134D01*
X019666Y029187D01*
X019711Y029248D01*
X019745Y029316D01*
X019768Y029388D01*
X019780Y029462D01*
X019780Y029480D01*
X019020Y029480D01*
X019020Y029520D01*
X018980Y029520D01*
X018980Y029980D01*
X018662Y029980D01*
X018588Y029968D01*
X018516Y029945D01*
X018448Y029911D01*
X018387Y029866D01*
X018334Y029813D01*
X018289Y029752D01*
X018255Y029684D01*
X018232Y029612D01*
X018220Y029538D01*
X018220Y029520D01*
X018980Y029520D01*
X018980Y029480D01*
X018220Y029480D01*
X018220Y029462D01*
X018232Y029388D01*
X018255Y029316D01*
X018289Y029248D01*
X018334Y029187D01*
X018387Y029134D01*
X018392Y029130D01*
X018303Y029093D01*
X018107Y028897D01*
X018000Y028639D01*
X018000Y028361D01*
X018107Y028103D01*
X018210Y028000D01*
X018107Y027897D01*
X018000Y027639D01*
X018000Y027361D01*
X018107Y027103D01*
X018303Y026907D01*
X018561Y026800D01*
X019439Y026800D01*
X019697Y026907D01*
X019893Y027103D01*
X020000Y027361D01*
X020000Y027639D01*
X019893Y027897D01*
X019844Y028055D02*
X022434Y028055D01*
X022285Y028213D02*
X019939Y028213D01*
X020000Y028372D02*
X022285Y028372D01*
X022285Y028530D02*
X020000Y028530D01*
X019980Y028689D02*
X022285Y028689D01*
X022336Y028847D02*
X019914Y028847D01*
X019784Y029006D02*
X022483Y029006D01*
X022325Y029164D02*
X019643Y029164D01*
X019747Y029323D02*
X022285Y029323D01*
X022285Y029481D02*
X019020Y029481D01*
X019020Y029520D02*
X019780Y029520D01*
X019780Y029538D01*
X019768Y029612D01*
X019745Y029684D01*
X019711Y029752D01*
X019666Y029813D01*
X019613Y029866D01*
X019552Y029911D01*
X019484Y029945D01*
X019412Y029968D01*
X019338Y029980D01*
X019020Y029980D01*
X019020Y029520D01*
X018980Y029481D02*
X017980Y029481D01*
X017980Y029323D02*
X018253Y029323D01*
X018357Y029164D02*
X017980Y029164D01*
X017980Y029006D02*
X018216Y029006D01*
X018086Y028847D02*
X017980Y028847D01*
X017980Y028689D02*
X018020Y028689D01*
X018000Y028530D02*
X017980Y028530D01*
X017980Y028372D02*
X018000Y028372D01*
X017980Y028213D02*
X018061Y028213D01*
X017980Y028055D02*
X018156Y028055D01*
X018106Y027896D02*
X017980Y027896D01*
X017980Y027738D02*
X018041Y027738D01*
X018000Y027579D02*
X017980Y027579D01*
X017980Y027421D02*
X018000Y027421D01*
X017980Y027262D02*
X018041Y027262D01*
X017980Y027104D02*
X018107Y027104D01*
X017980Y026945D02*
X018265Y026945D01*
X017980Y026787D02*
X026135Y026787D01*
X026294Y026945D02*
X019735Y026945D01*
X019893Y027104D02*
X029234Y027104D01*
X028916Y027262D02*
X019959Y027262D01*
X020000Y027421D02*
X028758Y027421D01*
X028673Y027579D02*
X020000Y027579D01*
X019959Y027738D02*
X028608Y027738D01*
X028849Y028530D02*
X027102Y028530D01*
X027260Y028689D02*
X029070Y028689D01*
X029810Y028689D02*
X031270Y028689D01*
X031270Y028847D02*
X027412Y028847D01*
X027412Y029006D02*
X031270Y029006D01*
X031278Y029164D02*
X027412Y029164D01*
X027412Y029323D02*
X031343Y029323D01*
X031449Y029481D02*
X027412Y029481D01*
X027312Y029640D02*
X031607Y029640D01*
X031270Y028530D02*
X030031Y028530D01*
X030169Y028372D02*
X031270Y028372D01*
X031270Y028213D02*
X030620Y028213D01*
X030947Y028055D02*
X031270Y028055D01*
X031270Y027896D02*
X031105Y027896D01*
X031194Y027738D02*
X031270Y027738D01*
X031259Y027579D02*
X031270Y027579D01*
X031270Y027104D02*
X031227Y027104D01*
X031270Y026945D02*
X031162Y026945D01*
X031270Y026787D02*
X031028Y026787D01*
X030816Y026628D02*
X031270Y026628D01*
X031270Y026470D02*
X027622Y026470D01*
X027622Y026589D02*
X027129Y027082D01*
X026431Y027082D01*
X025938Y026589D01*
X025938Y025891D01*
X026431Y025398D01*
X027129Y025398D01*
X027622Y025891D01*
X027622Y026589D01*
X027583Y026628D02*
X030044Y026628D01*
X029832Y026787D02*
X027425Y026787D01*
X027266Y026945D02*
X029698Y026945D01*
X030235Y028213D02*
X030240Y028213D01*
X031270Y026311D02*
X027622Y026311D01*
X027622Y026153D02*
X031270Y026153D01*
X031270Y025994D02*
X027622Y025994D01*
X027567Y025836D02*
X031270Y025836D01*
X031270Y025677D02*
X027409Y025677D01*
X027250Y025519D02*
X031270Y025519D01*
X031270Y025360D02*
X019759Y025360D01*
X019676Y025202D02*
X031270Y025202D01*
X031270Y025043D02*
X019747Y025043D01*
X019898Y024885D02*
X031270Y024885D01*
X031270Y024726D02*
X019964Y024726D01*
X020000Y024568D02*
X031270Y024568D01*
X031270Y024409D02*
X020000Y024409D01*
X019954Y024251D02*
X031270Y024251D01*
X031270Y024092D02*
X019882Y024092D01*
X019856Y023934D02*
X022734Y023934D01*
X022575Y023775D02*
X019944Y023775D01*
X020000Y023617D02*
X022505Y023617D01*
X022505Y023458D02*
X020000Y023458D01*
X019975Y023300D02*
X022505Y023300D01*
X023000Y023617D02*
X023000Y023617D01*
X023000Y023775D02*
X023000Y023775D01*
X023000Y023934D02*
X023000Y023934D01*
X023266Y023934D02*
X031270Y023934D01*
X031270Y023775D02*
X023425Y023775D01*
X023495Y023617D02*
X031270Y023617D01*
X031270Y023458D02*
X023495Y023458D01*
X023495Y023300D02*
X031270Y023300D01*
X032394Y021873D02*
X035194Y021873D01*
X035227Y021840D02*
X035773Y021840D01*
X036160Y022227D01*
X036160Y022773D01*
X035933Y023000D01*
X036160Y023227D01*
X036160Y023773D01*
X035773Y024160D01*
X035227Y024160D01*
X034840Y023773D01*
X034840Y023227D01*
X035067Y023000D01*
X034840Y022773D01*
X034840Y022227D01*
X035227Y021840D01*
X035035Y022032D02*
X032564Y022032D01*
X032722Y022190D02*
X034877Y022190D01*
X034840Y022349D02*
X032881Y022349D01*
X033039Y022507D02*
X034840Y022507D01*
X034840Y022666D02*
X033198Y022666D01*
X033356Y022824D02*
X034891Y022824D01*
X035049Y022983D02*
X033515Y022983D01*
X033641Y023141D02*
X034926Y023141D01*
X034840Y023300D02*
X033707Y023300D01*
X033730Y023458D02*
X034840Y023458D01*
X034840Y023617D02*
X033730Y023617D01*
X033676Y023775D02*
X034842Y023775D01*
X035000Y023934D02*
X033599Y023934D01*
X033525Y024092D02*
X035159Y024092D01*
X034773Y024840D02*
X035156Y025222D01*
X035318Y025060D01*
X035500Y025060D01*
X035682Y025060D01*
X035940Y025318D01*
X035940Y025500D01*
X035940Y025682D01*
X035682Y025940D01*
X035500Y025940D01*
X035500Y025500D01*
X035940Y025500D01*
X035500Y025500D01*
X035500Y025500D01*
X035500Y025500D01*
X035500Y025060D01*
X035500Y025500D01*
X035500Y025500D01*
X035500Y025940D01*
X035318Y025940D01*
X035156Y025778D01*
X034773Y026160D01*
X034227Y026160D01*
X033840Y025773D01*
X033840Y025227D01*
X034227Y024840D01*
X034773Y024840D01*
X034818Y024885D02*
X040120Y024885D01*
X040120Y025043D02*
X034976Y025043D01*
X035135Y025202D02*
X035176Y025202D01*
X035500Y025202D02*
X035500Y025202D01*
X035500Y025360D02*
X035500Y025360D01*
X035500Y025519D02*
X035500Y025519D01*
X035500Y025677D02*
X035500Y025677D01*
X035500Y025836D02*
X035500Y025836D01*
X035213Y025836D02*
X035098Y025836D01*
X034939Y025994D02*
X036060Y025994D01*
X036060Y026000D02*
X036060Y025818D01*
X036318Y025560D01*
X036500Y025560D01*
X036682Y025560D01*
X036844Y025722D01*
X037227Y025340D01*
X037773Y025340D01*
X038160Y025727D01*
X038160Y026050D01*
X038303Y025907D01*
X038561Y025800D01*
X039439Y025800D01*
X039697Y025907D01*
X039893Y026103D01*
X040000Y026361D01*
X040000Y026639D01*
X039893Y026897D01*
X039790Y027000D01*
X039893Y027103D01*
X040000Y027361D01*
X040000Y027639D01*
X039893Y027897D01*
X039790Y028000D01*
X039893Y028103D01*
X040000Y028361D01*
X040000Y028639D01*
X039893Y028897D01*
X039697Y029093D01*
X039439Y029200D01*
X038561Y029200D01*
X038303Y029093D01*
X038107Y028897D01*
X038000Y028639D01*
X038000Y028361D01*
X038107Y028103D01*
X038210Y028000D01*
X038107Y027897D01*
X038000Y027639D01*
X038000Y027361D01*
X038107Y027103D01*
X038210Y027000D01*
X038107Y026897D01*
X038000Y026639D01*
X038000Y026433D01*
X037773Y026660D01*
X037227Y026660D01*
X036844Y026278D01*
X036682Y026440D01*
X036500Y026440D01*
X036500Y026000D01*
X036500Y026000D01*
X036500Y025560D01*
X036500Y026000D01*
X036500Y026000D01*
X036500Y026000D01*
X036060Y026000D01*
X036060Y026182D01*
X036318Y026440D01*
X036500Y026440D01*
X036500Y026000D01*
X036060Y026000D01*
X036060Y026153D02*
X034781Y026153D01*
X034796Y026285D02*
X035000Y026489D01*
X035204Y026285D01*
X035796Y026285D01*
X036215Y026704D01*
X036215Y027296D01*
X035796Y027715D01*
X035204Y027715D01*
X035000Y027511D01*
X034796Y027715D01*
X034204Y027715D01*
X033785Y027296D01*
X033785Y026704D01*
X034204Y026285D01*
X034796Y026285D01*
X034822Y026311D02*
X035178Y026311D01*
X035019Y026470D02*
X034981Y026470D01*
X034178Y026311D02*
X032730Y026311D01*
X032730Y026153D02*
X034219Y026153D01*
X034061Y025994D02*
X032730Y025994D01*
X032730Y025836D02*
X033902Y025836D01*
X033840Y025677D02*
X032730Y025677D01*
X032730Y025519D02*
X033840Y025519D01*
X033840Y025360D02*
X032730Y025360D01*
X032730Y025202D02*
X033865Y025202D01*
X034024Y025043D02*
X033390Y025043D01*
X033549Y024885D02*
X034182Y024885D01*
X033660Y024726D02*
X040120Y024726D01*
X040120Y024568D02*
X033660Y024568D01*
X033660Y024409D02*
X040120Y024409D01*
X040120Y024251D02*
X033660Y024251D01*
X034019Y026470D02*
X032730Y026470D01*
X032730Y026628D02*
X033861Y026628D01*
X033785Y026787D02*
X032730Y026787D01*
X032730Y026945D02*
X033785Y026945D01*
X033785Y027104D02*
X032730Y027104D01*
X032730Y027262D02*
X033785Y027262D01*
X033909Y027421D02*
X032730Y027421D01*
X032730Y027579D02*
X034068Y027579D01*
X034204Y028285D02*
X034796Y028285D01*
X035000Y028489D01*
X035204Y028285D01*
X035796Y028285D01*
X036215Y028704D01*
X036215Y029296D01*
X035796Y029715D01*
X035204Y029715D01*
X035000Y029511D01*
X034796Y029715D01*
X034204Y029715D01*
X033785Y029296D01*
X033785Y028704D01*
X034204Y028285D01*
X034117Y028372D02*
X032730Y028372D01*
X032730Y028530D02*
X033959Y028530D01*
X033800Y028689D02*
X032730Y028689D01*
X032879Y028847D02*
X033785Y028847D01*
X033785Y029006D02*
X033038Y029006D01*
X033196Y029164D02*
X033785Y029164D01*
X033811Y029323D02*
X033355Y029323D01*
X033513Y029481D02*
X033970Y029481D01*
X034128Y029640D02*
X033672Y029640D01*
X034713Y029798D02*
X040120Y029798D01*
X040120Y029640D02*
X035872Y029640D01*
X036030Y029481D02*
X040120Y029481D01*
X040120Y029323D02*
X036189Y029323D01*
X036215Y029164D02*
X038474Y029164D01*
X038216Y029006D02*
X036215Y029006D01*
X036215Y028847D02*
X038086Y028847D01*
X038020Y028689D02*
X036200Y028689D01*
X036041Y028530D02*
X038000Y028530D01*
X038000Y028372D02*
X035883Y028372D01*
X035932Y027579D02*
X038000Y027579D01*
X038000Y027421D02*
X036091Y027421D01*
X036215Y027262D02*
X038041Y027262D01*
X038107Y027104D02*
X036215Y027104D01*
X036215Y026945D02*
X038155Y026945D01*
X038061Y026787D02*
X036215Y026787D01*
X036139Y026628D02*
X037195Y026628D01*
X037036Y026470D02*
X035981Y026470D01*
X035822Y026311D02*
X036189Y026311D01*
X036500Y026311D02*
X036500Y026311D01*
X036500Y026153D02*
X036500Y026153D01*
X036500Y025994D02*
X036500Y025994D01*
X036500Y025836D02*
X036500Y025836D01*
X036500Y025677D02*
X036500Y025677D01*
X036201Y025677D02*
X035940Y025677D01*
X035940Y025519D02*
X037048Y025519D01*
X036890Y025677D02*
X036799Y025677D01*
X037207Y025360D02*
X035940Y025360D01*
X035824Y025202D02*
X040120Y025202D01*
X040120Y025360D02*
X037793Y025360D01*
X037952Y025519D02*
X040120Y025519D01*
X040120Y025677D02*
X038110Y025677D01*
X038160Y025836D02*
X038475Y025836D01*
X038216Y025994D02*
X038160Y025994D01*
X038000Y026470D02*
X037964Y026470D01*
X038000Y026628D02*
X037805Y026628D01*
X036878Y026311D02*
X036811Y026311D01*
X036060Y025836D02*
X035787Y025836D01*
X035841Y024092D02*
X036581Y024092D01*
X036704Y024215D02*
X036285Y023796D01*
X036285Y023204D01*
X036489Y023000D01*
X036285Y022796D01*
X036285Y022204D01*
X036704Y021785D01*
X037296Y021785D01*
X037715Y022204D01*
X037715Y022796D01*
X037511Y023000D01*
X037715Y023204D01*
X037715Y023796D01*
X037296Y024215D01*
X036704Y024215D01*
X036422Y023934D02*
X036000Y023934D01*
X036158Y023775D02*
X036285Y023775D01*
X036285Y023617D02*
X036160Y023617D01*
X036160Y023458D02*
X036285Y023458D01*
X036285Y023300D02*
X036160Y023300D01*
X036074Y023141D02*
X036348Y023141D01*
X036471Y022983D02*
X035951Y022983D01*
X036109Y022824D02*
X036313Y022824D01*
X036285Y022666D02*
X036160Y022666D01*
X036160Y022507D02*
X036285Y022507D01*
X036285Y022349D02*
X036160Y022349D01*
X036123Y022190D02*
X036299Y022190D01*
X036457Y022032D02*
X035965Y022032D01*
X035806Y021873D02*
X036616Y021873D01*
X037384Y021873D02*
X038097Y021873D01*
X038242Y022032D02*
X037543Y022032D01*
X037701Y022190D02*
X038537Y022190D01*
X039463Y022190D02*
X040120Y022190D01*
X040120Y022032D02*
X039758Y022032D01*
X039903Y021873D02*
X040120Y021873D01*
X040120Y021715D02*
X039969Y021715D01*
X040000Y021556D02*
X040120Y021556D01*
X040120Y021398D02*
X040000Y021398D01*
X039950Y021239D02*
X040120Y021239D01*
X040120Y021081D02*
X039870Y021081D01*
X039868Y020922D02*
X040120Y020922D01*
X040120Y020764D02*
X039949Y020764D01*
X040000Y020605D02*
X040120Y020605D01*
X040120Y020447D02*
X040000Y020447D01*
X039970Y020288D02*
X040120Y020288D01*
X040120Y020130D02*
X039904Y020130D01*
X039819Y019971D02*
X040120Y019971D01*
X040120Y019813D02*
X039928Y019813D01*
X039994Y019654D02*
X040120Y019654D01*
X040120Y019496D02*
X040000Y019496D01*
X039990Y019337D02*
X040120Y019337D01*
X040120Y019179D02*
X039925Y019179D01*
X039810Y019020D02*
X040120Y019020D01*
X040120Y018862D02*
X039588Y018862D01*
X040120Y018069D02*
X038864Y018069D01*
X039023Y017911D02*
X040120Y017911D01*
X040120Y017752D02*
X039160Y017752D01*
X039160Y017594D02*
X040120Y017594D01*
X040120Y017435D02*
X039160Y017435D01*
X039160Y017277D02*
X040120Y017277D01*
X040120Y017118D02*
X039051Y017118D01*
X038893Y016960D02*
X040120Y016960D01*
X040120Y016801D02*
X038821Y016801D01*
X038940Y016643D02*
X040120Y016643D01*
X040120Y016484D02*
X038940Y016484D01*
X038940Y016326D02*
X040120Y016326D01*
X040120Y016167D02*
X038789Y016167D01*
X038500Y016167D02*
X038500Y016167D01*
X038500Y016326D02*
X038500Y016326D01*
X038500Y016484D02*
X038500Y016484D01*
X038211Y016167D02*
X030730Y016167D01*
X030730Y016009D02*
X040120Y016009D01*
X036583Y016484D02*
X036417Y016484D01*
X036498Y017435D02*
X036502Y017435D01*
X036660Y017594D02*
X036340Y017594D01*
X036319Y018386D02*
X036681Y018386D01*
X036522Y018545D02*
X036478Y018545D01*
X036438Y019496D02*
X036562Y019496D01*
X036721Y019654D02*
X036279Y019654D01*
X035721Y019654D02*
X033587Y019654D01*
X033429Y019496D02*
X035562Y019496D01*
X037715Y022349D02*
X040120Y022349D01*
X040120Y022507D02*
X037715Y022507D01*
X037715Y022666D02*
X040120Y022666D01*
X040120Y022824D02*
X037687Y022824D01*
X037529Y022983D02*
X040120Y022983D01*
X040120Y023141D02*
X037652Y023141D01*
X037715Y023300D02*
X040120Y023300D01*
X040120Y023458D02*
X037715Y023458D01*
X037715Y023617D02*
X040120Y023617D01*
X040120Y023775D02*
X037715Y023775D01*
X037578Y023934D02*
X040120Y023934D01*
X040120Y024092D02*
X037419Y024092D01*
X039525Y025836D02*
X040120Y025836D01*
X040120Y025994D02*
X039784Y025994D01*
X039914Y026153D02*
X040120Y026153D01*
X040120Y026311D02*
X039979Y026311D01*
X040000Y026470D02*
X040120Y026470D01*
X040120Y026628D02*
X040000Y026628D01*
X039939Y026787D02*
X040120Y026787D01*
X040120Y026945D02*
X039845Y026945D01*
X039893Y027104D02*
X040120Y027104D01*
X040120Y027262D02*
X039959Y027262D01*
X040000Y027421D02*
X040120Y027421D01*
X040120Y027579D02*
X040000Y027579D01*
X039959Y027738D02*
X040120Y027738D01*
X040120Y027896D02*
X039894Y027896D01*
X039844Y028055D02*
X040120Y028055D01*
X040120Y028213D02*
X039939Y028213D01*
X040000Y028372D02*
X040120Y028372D01*
X040120Y028530D02*
X040000Y028530D01*
X039980Y028689D02*
X040120Y028689D01*
X040120Y028847D02*
X039914Y028847D01*
X039784Y029006D02*
X040120Y029006D01*
X040120Y029164D02*
X039526Y029164D01*
X040120Y029957D02*
X035890Y029957D01*
X036048Y030115D02*
X040120Y030115D01*
X040120Y030274D02*
X036160Y030274D01*
X036160Y030432D02*
X040120Y030432D01*
X040120Y030591D02*
X036160Y030591D01*
X036160Y030749D02*
X040120Y030749D01*
X040120Y030908D02*
X036026Y030908D01*
X035110Y029957D02*
X034989Y029957D01*
X034872Y029640D02*
X035128Y029640D01*
X035117Y028372D02*
X034883Y028372D01*
X034932Y027579D02*
X035068Y027579D01*
X032730Y027738D02*
X038041Y027738D01*
X038106Y027896D02*
X032730Y027896D01*
X032730Y028055D02*
X038156Y028055D01*
X038061Y028213D02*
X032730Y028213D01*
X028488Y029957D02*
X028352Y029957D01*
X028352Y030115D02*
X028488Y030115D01*
X028488Y030274D02*
X028352Y030274D01*
X025977Y026628D02*
X017980Y026628D01*
X017980Y026470D02*
X025938Y026470D01*
X025938Y026311D02*
X017980Y026311D01*
X017980Y026153D02*
X025938Y026153D01*
X025938Y025994D02*
X017980Y025994D01*
X017980Y025836D02*
X018357Y025836D01*
X018253Y025677D02*
X017980Y025677D01*
X017980Y025519D02*
X018980Y025519D01*
X019020Y025519D02*
X026310Y025519D01*
X026151Y025677D02*
X019747Y025677D01*
X019643Y025836D02*
X025993Y025836D01*
X025645Y021715D02*
X017980Y021715D01*
X017980Y021873D02*
X018384Y021873D01*
X018179Y022032D02*
X017980Y022032D01*
X017980Y022190D02*
X018071Y022190D01*
X018005Y022349D02*
X017980Y022349D01*
X017980Y022507D02*
X018000Y022507D01*
X018011Y022666D02*
X017980Y022666D01*
X017980Y022824D02*
X018077Y022824D01*
X017980Y022983D02*
X018193Y022983D01*
X018091Y023141D02*
X017980Y023141D01*
X017980Y023300D02*
X018025Y023300D01*
X018000Y023458D02*
X017980Y023458D01*
X017980Y023617D02*
X018000Y023617D01*
X017980Y023775D02*
X018056Y023775D01*
X017980Y023934D02*
X018144Y023934D01*
X018118Y024092D02*
X017980Y024092D01*
X017980Y024251D02*
X018046Y024251D01*
X018000Y024409D02*
X017980Y024409D01*
X017980Y024568D02*
X018000Y024568D01*
X017980Y024726D02*
X018036Y024726D01*
X017980Y024885D02*
X018102Y024885D01*
X017980Y025043D02*
X018253Y025043D01*
X018324Y025202D02*
X017980Y025202D01*
X017980Y025360D02*
X018241Y025360D01*
X018980Y025677D02*
X019020Y025677D01*
X019020Y025836D02*
X018980Y025836D01*
X018980Y029640D02*
X019020Y029640D01*
X019020Y029798D02*
X018980Y029798D01*
X018980Y029957D02*
X019020Y029957D01*
X019448Y029957D02*
X022445Y029957D01*
X022604Y030115D02*
X017980Y030115D01*
X017980Y029957D02*
X018552Y029957D01*
X018323Y029798D02*
X017980Y029798D01*
X017980Y029640D02*
X018241Y029640D01*
X019677Y029798D02*
X022287Y029798D01*
X022285Y029640D02*
X019759Y029640D01*
X017980Y021556D02*
X025539Y021556D01*
X025457Y021398D02*
X017980Y021398D01*
X017980Y021239D02*
X025415Y021239D01*
X025390Y021081D02*
X017980Y021081D01*
X017980Y020922D02*
X025390Y020922D01*
X025414Y020764D02*
X025309Y020764D01*
X024068Y020764D02*
X019195Y020764D01*
X019155Y020780D02*
X018845Y020780D01*
X018558Y020661D01*
X018339Y020442D01*
X018220Y020155D01*
X018220Y019845D01*
X018339Y019558D01*
X018558Y019339D01*
X018845Y019220D01*
X019155Y019220D01*
X019442Y019339D01*
X019661Y019558D01*
X019780Y019845D01*
X019780Y020155D01*
X019661Y020442D01*
X019442Y020661D01*
X019155Y020780D01*
X019498Y020605D02*
X023836Y020605D01*
X023725Y020447D02*
X019657Y020447D01*
X019725Y020288D02*
X021846Y020288D01*
X021853Y020288D02*
X022066Y020288D01*
X022863Y020288D02*
X023644Y020288D01*
X023607Y020130D02*
X022983Y020130D01*
X021118Y020130D02*
X019780Y020130D01*
X019780Y019971D02*
X020915Y019971D01*
X020776Y019813D02*
X019767Y019813D01*
X019701Y019654D02*
X020686Y019654D01*
X020626Y019496D02*
X019599Y019496D01*
X019438Y019337D02*
X020599Y019337D01*
X020583Y019179D02*
X017980Y019179D01*
X017980Y019337D02*
X018562Y019337D01*
X018401Y019496D02*
X017980Y019496D01*
X017980Y019654D02*
X018299Y019654D01*
X018233Y019813D02*
X017980Y019813D01*
X017980Y019971D02*
X018220Y019971D01*
X018220Y020130D02*
X017980Y020130D01*
X017980Y020288D02*
X018275Y020288D01*
X018343Y020447D02*
X017980Y020447D01*
X017980Y020605D02*
X018502Y020605D01*
X018805Y020764D02*
X017980Y020764D01*
X017980Y019020D02*
X020588Y019020D01*
X020616Y018862D02*
X017980Y018862D01*
X017980Y018703D02*
X020660Y018703D01*
X020715Y018545D02*
X017980Y018545D01*
X017980Y018386D02*
X020779Y018386D01*
X020855Y018228D02*
X019282Y018228D01*
X019155Y018280D02*
X018845Y018280D01*
X018558Y018161D01*
X018339Y017942D01*
X018220Y017655D01*
X018220Y017345D01*
X018339Y017058D01*
X018558Y016839D01*
X018845Y016720D01*
X019155Y016720D01*
X019442Y016839D01*
X019661Y017058D01*
X019780Y017345D01*
X019780Y017655D01*
X019661Y017942D01*
X019442Y018161D01*
X019155Y018280D01*
X019534Y018069D02*
X020943Y018069D01*
X021050Y017911D02*
X019674Y017911D01*
X019740Y017752D02*
X021176Y017752D01*
X021332Y017594D02*
X019780Y017594D01*
X019780Y017435D02*
X021519Y017435D01*
X021760Y017277D02*
X019752Y017277D01*
X019686Y017118D02*
X022086Y017118D01*
X022769Y016960D02*
X019563Y016960D01*
X019351Y016801D02*
X023031Y016801D01*
X023538Y016643D02*
X017980Y016643D01*
X017980Y016801D02*
X018649Y016801D01*
X018437Y016960D02*
X017980Y016960D01*
X017980Y017118D02*
X018314Y017118D01*
X018248Y017277D02*
X017980Y017277D01*
X017980Y017435D02*
X018220Y017435D01*
X018220Y017594D02*
X017980Y017594D01*
X017980Y017752D02*
X018260Y017752D01*
X018326Y017911D02*
X017980Y017911D01*
X017980Y018069D02*
X018466Y018069D01*
X018718Y018228D02*
X017980Y018228D01*
X017980Y016484D02*
X023784Y016484D01*
X023625Y016326D02*
X017980Y016326D01*
X017980Y016167D02*
X023505Y016167D01*
X023505Y016009D02*
X017980Y016009D01*
X017980Y015850D02*
X023505Y015850D01*
X023608Y015692D02*
X019460Y015692D01*
X019439Y015700D02*
X018561Y015700D01*
X018303Y015593D01*
X018107Y015397D01*
X018000Y015139D01*
X018000Y014861D01*
X018107Y014603D01*
X018303Y014407D01*
X018392Y014370D01*
X018387Y014366D01*
X018334Y014313D01*
X018289Y014252D01*
X018255Y014184D01*
X018232Y014112D01*
X018220Y014038D01*
X018220Y014020D01*
X018980Y014020D01*
X018980Y013980D01*
X019020Y013980D01*
X019020Y014020D01*
X019780Y014020D01*
X019780Y014038D01*
X019768Y014112D01*
X019745Y014184D01*
X019711Y014252D01*
X019666Y014313D01*
X019613Y014366D01*
X019608Y014370D01*
X019697Y014407D01*
X019893Y014603D01*
X020000Y014861D01*
X020000Y015139D01*
X019893Y015397D01*
X019697Y015593D01*
X019439Y015700D01*
X019757Y015533D02*
X023522Y015533D01*
X023363Y015375D02*
X019903Y015375D01*
X019968Y015216D02*
X023285Y015216D01*
X023285Y015058D02*
X020000Y015058D01*
X020000Y014899D02*
X023285Y014899D01*
X023285Y014741D02*
X019950Y014741D01*
X019872Y014582D02*
X023407Y014582D01*
X023565Y014424D02*
X019713Y014424D01*
X019701Y014265D02*
X029270Y014265D01*
X029270Y014107D02*
X019769Y014107D01*
X019780Y013980D02*
X019020Y013980D01*
X019020Y013520D01*
X019338Y013520D01*
X019412Y013532D01*
X019484Y013555D01*
X019552Y013589D01*
X019613Y013634D01*
X019666Y013687D01*
X019711Y013748D01*
X019745Y013816D01*
X019768Y013888D01*
X019780Y013962D01*
X019780Y013980D01*
X019778Y013948D02*
X029270Y013948D01*
X029270Y013790D02*
X019731Y013790D01*
X019609Y013631D02*
X023198Y013631D01*
X023039Y013473D02*
X019385Y013473D01*
X019412Y013468D02*
X019338Y013480D01*
X019020Y013480D01*
X019020Y013020D01*
X018980Y013020D01*
X018980Y013480D01*
X018662Y013480D01*
X018588Y013468D01*
X018516Y013445D01*
X018448Y013411D01*
X018387Y013366D01*
X018334Y013313D01*
X018289Y013252D01*
X018255Y013184D01*
X018232Y013112D01*
X018220Y013038D01*
X018220Y013020D01*
X018980Y013020D01*
X018980Y012980D01*
X019020Y012980D01*
X019020Y013020D01*
X019780Y013020D01*
X019780Y013038D01*
X019768Y013112D01*
X019745Y013184D01*
X019711Y013252D01*
X019666Y013313D01*
X019613Y013366D01*
X019552Y013411D01*
X019484Y013445D01*
X019412Y013468D01*
X019665Y013314D02*
X022881Y013314D01*
X022840Y013156D02*
X019754Y013156D01*
X019780Y012980D02*
X019020Y012980D01*
X019020Y012520D01*
X019338Y012520D01*
X019412Y012532D01*
X019484Y012555D01*
X019552Y012589D01*
X019613Y012634D01*
X019666Y012687D01*
X019711Y012748D01*
X019745Y012816D01*
X019768Y012888D01*
X019780Y012962D01*
X019780Y012980D01*
X019752Y012839D02*
X022840Y012839D01*
X022840Y012997D02*
X019020Y012997D01*
X018980Y012997D02*
X017980Y012997D01*
X017980Y012839D02*
X018248Y012839D01*
X018255Y012816D02*
X018289Y012748D01*
X018334Y012687D01*
X018387Y012634D01*
X018448Y012589D01*
X018516Y012555D01*
X018588Y012532D01*
X018662Y012520D01*
X018980Y012520D01*
X018980Y012980D01*
X018220Y012980D01*
X018220Y012962D01*
X018232Y012888D01*
X018255Y012816D01*
X018341Y012680D02*
X017980Y012680D01*
X017980Y012522D02*
X018653Y012522D01*
X018980Y012522D02*
X019020Y012522D01*
X019020Y012680D02*
X018980Y012680D01*
X018980Y012839D02*
X019020Y012839D01*
X019020Y013156D02*
X018980Y013156D01*
X018980Y013314D02*
X019020Y013314D01*
X019020Y013473D02*
X018980Y013473D01*
X018980Y013520D02*
X018980Y013980D01*
X018220Y013980D01*
X018220Y013962D01*
X018232Y013888D01*
X018255Y013816D01*
X018289Y013748D01*
X018334Y013687D01*
X018387Y013634D01*
X018448Y013589D01*
X018516Y013555D01*
X018588Y013532D01*
X018662Y013520D01*
X018980Y013520D01*
X018980Y013631D02*
X019020Y013631D01*
X019020Y013790D02*
X018980Y013790D01*
X018980Y013948D02*
X019020Y013948D01*
X018615Y013473D02*
X017980Y013473D01*
X017980Y013631D02*
X018391Y013631D01*
X018269Y013790D02*
X017980Y013790D01*
X017980Y013948D02*
X018222Y013948D01*
X018231Y014107D02*
X017980Y014107D01*
X017980Y014265D02*
X018299Y014265D01*
X018287Y014424D02*
X017980Y014424D01*
X017980Y014582D02*
X018128Y014582D01*
X018050Y014741D02*
X017980Y014741D01*
X017980Y014899D02*
X018000Y014899D01*
X018000Y015058D02*
X017980Y015058D01*
X017980Y015216D02*
X018032Y015216D01*
X017980Y015375D02*
X018097Y015375D01*
X017980Y015533D02*
X018243Y015533D01*
X017980Y015692D02*
X018540Y015692D01*
X018335Y013314D02*
X017980Y013314D01*
X017980Y013156D02*
X018246Y013156D01*
X017980Y012046D02*
X029270Y012046D01*
X029270Y011888D02*
X017980Y011888D01*
X017980Y011412D02*
X019120Y011412D01*
X018962Y011254D02*
X017980Y011254D01*
X017980Y011095D02*
X018307Y011095D01*
X018147Y010937D02*
X017980Y010937D01*
X017980Y010778D02*
X018057Y010778D01*
X018000Y010620D02*
X017980Y010620D01*
X017980Y010461D02*
X018000Y010461D01*
X017980Y010303D02*
X018024Y010303D01*
X017980Y010144D02*
X018090Y010144D01*
X018196Y009986D02*
X017980Y009986D01*
X017980Y009827D02*
X018078Y009827D01*
X018012Y009669D02*
X017980Y009669D01*
X017980Y009510D02*
X018000Y009510D01*
X018004Y009352D02*
X017980Y009352D01*
X017980Y009193D02*
X018069Y009193D01*
X017980Y009035D02*
X018176Y009035D01*
X018098Y008876D02*
X017980Y008876D01*
X017980Y008718D02*
X018032Y008718D01*
X018000Y008559D02*
X017980Y008559D01*
X017980Y008401D02*
X018000Y008401D01*
X017980Y008242D02*
X018049Y008242D01*
X017980Y008084D02*
X018127Y008084D01*
X017980Y007925D02*
X018285Y007925D01*
X017980Y007767D02*
X025785Y007767D01*
X025785Y007608D02*
X017980Y007608D01*
X017980Y007450D02*
X025785Y007450D01*
X025785Y007291D02*
X017980Y007291D01*
X017980Y007133D02*
X025856Y007133D01*
X026015Y006974D02*
X017980Y006974D01*
X017980Y006816D02*
X026173Y006816D01*
X026827Y006816D02*
X027173Y006816D01*
X027015Y006974D02*
X026985Y006974D01*
X026072Y008084D02*
X019873Y008084D01*
X019715Y007925D02*
X025914Y007925D01*
X025452Y009035D02*
X024940Y009035D01*
X024929Y009193D02*
X025237Y009193D01*
X025093Y009352D02*
X024771Y009352D01*
X024500Y009352D02*
X024500Y009352D01*
X024500Y009193D02*
X024500Y009193D01*
X024500Y009035D02*
X024500Y009035D01*
X024500Y008876D02*
X024500Y008876D01*
X024500Y008718D02*
X024500Y008718D01*
X024160Y008718D02*
X024151Y008718D01*
X023992Y008559D02*
X030409Y008559D01*
X030567Y008401D02*
X023834Y008401D01*
X024082Y009352D02*
X024229Y009352D01*
X023923Y009510D02*
X025001Y009510D01*
X025076Y010620D02*
X024742Y010620D01*
X024900Y010778D02*
X025208Y010778D01*
X025402Y010937D02*
X024940Y010937D01*
X024710Y011412D02*
X029270Y011412D01*
X029270Y014424D02*
X028435Y014424D01*
X028593Y014582D02*
X029270Y014582D01*
X029270Y014741D02*
X028715Y014741D01*
X028715Y014899D02*
X029270Y014899D01*
X029270Y015058D02*
X028715Y015058D01*
X028715Y015216D02*
X029270Y015216D01*
X029270Y015375D02*
X028637Y015375D01*
X028544Y015533D02*
X029270Y015533D01*
X029270Y015692D02*
X028703Y015692D01*
X028715Y015850D02*
X029270Y015850D01*
X029270Y016009D02*
X028715Y016009D01*
X028715Y016167D02*
X029270Y016167D01*
X029270Y016326D02*
X028686Y016326D01*
X028527Y016484D02*
X029270Y016484D01*
X029270Y016643D02*
X028369Y016643D01*
X029270Y016801D02*
X025159Y016801D01*
X025387Y016960D02*
X025708Y016960D01*
X025560Y017105D02*
X025560Y017105D01*
X025631Y016643D02*
X024870Y016643D01*
X024495Y016167D02*
X025285Y016167D01*
X025285Y016009D02*
X024495Y016009D01*
X024495Y015850D02*
X025285Y015850D01*
X025297Y015692D02*
X024392Y015692D01*
X024478Y015533D02*
X025456Y015533D01*
X025363Y015375D02*
X024637Y015375D01*
X024715Y015216D02*
X025285Y015216D01*
X025285Y015058D02*
X024715Y015058D01*
X024715Y014899D02*
X025285Y014899D01*
X025285Y014741D02*
X024715Y014741D01*
X024593Y014582D02*
X025407Y014582D01*
X025314Y016326D02*
X024375Y016326D01*
X024270Y016484D02*
X025473Y016484D01*
X022887Y012680D02*
X019659Y012680D01*
X019347Y012522D02*
X023045Y012522D01*
X023796Y012363D02*
X024204Y012363D01*
X024045Y012522D02*
X023955Y012522D01*
X027985Y006974D02*
X031270Y006974D01*
X031270Y006816D02*
X027827Y006816D01*
X028144Y007133D02*
X031270Y007133D01*
X031270Y007291D02*
X028215Y007291D01*
X028215Y007450D02*
X031270Y007450D01*
X031270Y007608D02*
X028215Y007608D01*
X028215Y007767D02*
X031201Y007767D01*
X031043Y007925D02*
X028086Y007925D01*
X029633Y005865D02*
X020000Y005865D01*
X020000Y005861D02*
X020000Y006139D01*
X019893Y006397D01*
X019697Y006593D01*
X019439Y006700D01*
X018561Y006700D01*
X018303Y006593D01*
X018107Y006397D01*
X018000Y006139D01*
X018000Y005861D01*
X018107Y005603D01*
X018210Y005500D01*
X018107Y005397D01*
X018000Y005139D01*
X018000Y004861D01*
X018107Y004603D01*
X018210Y004500D01*
X018107Y004397D01*
X018000Y004139D01*
X018000Y003861D01*
X018107Y003603D01*
X018303Y003407D01*
X018561Y003300D01*
X019439Y003300D01*
X019697Y003407D01*
X019893Y003603D01*
X020000Y003861D01*
X020000Y004139D01*
X019893Y004397D01*
X019790Y004500D01*
X019893Y004603D01*
X020000Y004861D01*
X020000Y005139D01*
X019893Y005397D01*
X019790Y005500D01*
X019893Y005603D01*
X020000Y005861D01*
X020000Y006023D02*
X029792Y006023D01*
X029871Y006102D02*
X029378Y005609D01*
X029378Y004911D01*
X029871Y004418D01*
X030569Y004418D01*
X031062Y004911D01*
X031062Y005609D01*
X030569Y006102D01*
X029871Y006102D01*
X029475Y005706D02*
X019936Y005706D01*
X019837Y005548D02*
X029378Y005548D01*
X029378Y005389D02*
X019897Y005389D01*
X019962Y005231D02*
X029378Y005231D01*
X029378Y005072D02*
X020000Y005072D01*
X020000Y004914D02*
X026284Y004914D01*
X026402Y004962D02*
X026093Y004834D01*
X025856Y004597D01*
X025728Y004288D01*
X025728Y003952D01*
X025856Y003643D01*
X026093Y003406D01*
X026402Y003278D01*
X026738Y003278D01*
X026765Y003289D01*
X026846Y003093D01*
X027083Y002856D01*
X027392Y002728D01*
X027728Y002728D01*
X028037Y002856D01*
X028274Y003093D01*
X028402Y003402D01*
X028402Y003738D01*
X028274Y004047D01*
X028037Y004284D01*
X027728Y004412D01*
X027392Y004412D01*
X027365Y004401D01*
X027284Y004597D01*
X027047Y004834D01*
X026738Y004962D01*
X026402Y004962D01*
X026014Y004755D02*
X019956Y004755D01*
X019886Y004597D02*
X025855Y004597D01*
X025790Y004438D02*
X019852Y004438D01*
X019942Y004280D02*
X025728Y004280D01*
X025728Y004121D02*
X020000Y004121D01*
X020000Y003963D02*
X025728Y003963D01*
X025789Y003804D02*
X019976Y003804D01*
X019911Y003646D02*
X025855Y003646D01*
X026012Y003487D02*
X019777Y003487D01*
X019508Y003329D02*
X026279Y003329D01*
X026814Y003170D02*
X017980Y003170D01*
X017980Y003012D02*
X026927Y003012D01*
X027089Y002853D02*
X017980Y002853D01*
X017980Y002695D02*
X029623Y002695D01*
X029588Y002659D02*
X029588Y001961D01*
X030081Y001468D01*
X030779Y001468D01*
X031272Y001961D01*
X031272Y002659D01*
X030779Y003152D01*
X030081Y003152D01*
X029588Y002659D01*
X029588Y002536D02*
X017980Y002536D01*
X017980Y002378D02*
X029588Y002378D01*
X029588Y002219D02*
X017980Y002219D01*
X017980Y002061D02*
X029588Y002061D01*
X029647Y001902D02*
X017980Y001902D01*
X017980Y001744D02*
X029805Y001744D01*
X029964Y001585D02*
X028905Y001585D01*
X029064Y001427D02*
X033340Y001427D01*
X033340Y001585D02*
X030896Y001585D01*
X031055Y001744D02*
X033340Y001744D01*
X033340Y001773D02*
X033340Y001227D01*
X033727Y000840D01*
X034273Y000840D01*
X034660Y001227D01*
X034660Y001773D01*
X034433Y002000D01*
X034660Y002227D01*
X034660Y002773D01*
X034273Y003160D01*
X033727Y003160D01*
X033340Y002773D01*
X033340Y002227D01*
X033567Y002000D01*
X033340Y001773D01*
X033469Y001902D02*
X031213Y001902D01*
X031272Y002061D02*
X033506Y002061D01*
X033348Y002219D02*
X031272Y002219D01*
X031272Y002378D02*
X033340Y002378D01*
X033340Y002536D02*
X031272Y002536D01*
X031237Y002695D02*
X033340Y002695D01*
X033420Y002853D02*
X031078Y002853D01*
X030920Y003012D02*
X033578Y003012D01*
X034422Y003012D02*
X034785Y003012D01*
X034785Y003170D02*
X028306Y003170D01*
X028372Y003329D02*
X034817Y003329D01*
X034785Y003296D02*
X034785Y002704D01*
X035204Y002285D01*
X035796Y002285D01*
X036000Y002489D01*
X036204Y002285D01*
X036796Y002285D01*
X037215Y002704D01*
X037215Y002852D01*
X037227Y002840D01*
X037773Y002840D01*
X038160Y003227D01*
X038160Y003550D01*
X038303Y003407D01*
X038561Y003300D01*
X039439Y003300D01*
X039697Y003407D01*
X039893Y003603D01*
X040000Y003861D01*
X040000Y004139D01*
X039893Y004397D01*
X039790Y004500D01*
X039893Y004603D01*
X040000Y004861D01*
X040000Y005139D01*
X039893Y005397D01*
X039790Y005500D01*
X039893Y005603D01*
X040000Y005861D01*
X040000Y006139D01*
X039893Y006397D01*
X039697Y006593D01*
X039439Y006700D01*
X038561Y006700D01*
X038303Y006593D01*
X038107Y006397D01*
X038000Y006139D01*
X038000Y005861D01*
X038107Y005603D01*
X038210Y005500D01*
X038107Y005397D01*
X038000Y005139D01*
X038000Y004933D01*
X037773Y005160D01*
X037227Y005160D01*
X037000Y004933D01*
X036773Y005160D01*
X036227Y005160D01*
X035844Y004778D01*
X035682Y004940D01*
X035500Y004940D01*
X035500Y004500D01*
X035500Y004500D01*
X035500Y004060D01*
X035682Y004060D01*
X035844Y004222D01*
X036227Y003840D01*
X036773Y003840D01*
X037000Y004067D01*
X037067Y004000D01*
X036840Y003773D01*
X036840Y003671D01*
X036796Y003715D01*
X036204Y003715D01*
X036000Y003511D01*
X035796Y003715D01*
X035204Y003715D01*
X034785Y003296D01*
X034976Y003487D02*
X028402Y003487D01*
X028402Y003646D02*
X035134Y003646D01*
X035318Y004060D02*
X035500Y004060D01*
X035500Y004500D01*
X035500Y004500D01*
X035500Y004500D01*
X035060Y004500D01*
X035060Y004682D01*
X035318Y004940D01*
X035500Y004940D01*
X035500Y004500D01*
X035060Y004500D01*
X035060Y004318D01*
X035318Y004060D01*
X035257Y004121D02*
X028200Y004121D01*
X028309Y003963D02*
X036104Y003963D01*
X035946Y004121D02*
X035743Y004121D01*
X035500Y004121D02*
X035500Y004121D01*
X035500Y004280D02*
X035500Y004280D01*
X035500Y004438D02*
X035500Y004438D01*
X035500Y004597D02*
X035500Y004597D01*
X035500Y004755D02*
X035500Y004755D01*
X035500Y004914D02*
X035500Y004914D01*
X035709Y004914D02*
X035980Y004914D01*
X036139Y005072D02*
X033660Y005072D01*
X033660Y004914D02*
X035291Y004914D01*
X035133Y004755D02*
X033660Y004755D01*
X033530Y004597D02*
X035060Y004597D01*
X035060Y004438D02*
X033371Y004438D01*
X032629Y004438D02*
X032470Y004438D01*
X032168Y004280D02*
X035098Y004280D01*
X035866Y003646D02*
X036134Y003646D01*
X036871Y003804D02*
X028375Y003804D01*
X028042Y004280D02*
X031832Y004280D01*
X031530Y004438D02*
X030589Y004438D01*
X030748Y004597D02*
X031377Y004597D01*
X031311Y004755D02*
X030906Y004755D01*
X031062Y004914D02*
X031270Y004914D01*
X031270Y005072D02*
X031062Y005072D01*
X031062Y005231D02*
X031270Y005231D01*
X031270Y005389D02*
X031062Y005389D01*
X031062Y005548D02*
X031270Y005548D01*
X031270Y005706D02*
X030965Y005706D01*
X030807Y005865D02*
X031270Y005865D01*
X031270Y006023D02*
X030648Y006023D01*
X031270Y006182D02*
X019982Y006182D01*
X019917Y006340D02*
X031270Y006340D01*
X031270Y006499D02*
X019791Y006499D01*
X019543Y006657D02*
X031270Y006657D01*
X032473Y008559D02*
X032626Y008559D01*
X032315Y008718D02*
X034849Y008718D01*
X034840Y008876D02*
X032156Y008876D01*
X031998Y009035D02*
X034840Y009035D01*
X035008Y008559D02*
X033374Y008559D01*
X033533Y008401D02*
X035166Y008401D01*
X035834Y008401D02*
X036166Y008401D01*
X036008Y008559D02*
X035992Y008559D01*
X035796Y007215D02*
X035204Y007215D01*
X034785Y006796D01*
X034785Y006204D01*
X035204Y005785D01*
X035796Y005785D01*
X036000Y005989D01*
X036204Y005785D01*
X036796Y005785D01*
X037215Y006204D01*
X037215Y006796D01*
X036796Y007215D01*
X036204Y007215D01*
X036000Y007011D01*
X035796Y007215D01*
X035879Y007133D02*
X036121Y007133D01*
X036879Y007133D02*
X040120Y007133D01*
X040120Y007291D02*
X032730Y007291D01*
X032730Y007133D02*
X035121Y007133D01*
X034963Y006974D02*
X032730Y006974D01*
X032730Y006816D02*
X034804Y006816D01*
X034785Y006657D02*
X032730Y006657D01*
X032730Y006499D02*
X034785Y006499D01*
X034785Y006340D02*
X032730Y006340D01*
X032730Y006182D02*
X034807Y006182D01*
X034966Y006023D02*
X032730Y006023D01*
X032730Y005865D02*
X035124Y005865D01*
X035876Y005865D02*
X036124Y005865D01*
X036876Y005865D02*
X038000Y005865D01*
X038000Y006023D02*
X037034Y006023D01*
X037193Y006182D02*
X038018Y006182D01*
X038083Y006340D02*
X037215Y006340D01*
X037215Y006499D02*
X038209Y006499D01*
X038457Y006657D02*
X037215Y006657D01*
X037196Y006816D02*
X040120Y006816D01*
X040120Y006974D02*
X037037Y006974D01*
X038064Y005706D02*
X032730Y005706D01*
X033386Y005548D02*
X038163Y005548D01*
X038103Y005389D02*
X033544Y005389D01*
X033660Y005231D02*
X038038Y005231D01*
X038000Y005072D02*
X037861Y005072D01*
X037139Y005072D02*
X036861Y005072D01*
X036896Y003963D02*
X037029Y003963D01*
X037945Y003012D02*
X038078Y003012D01*
X038103Y003170D02*
X040120Y003170D01*
X040120Y003012D02*
X038922Y003012D01*
X038773Y003160D02*
X038227Y003160D01*
X037840Y002773D01*
X037840Y002227D01*
X038222Y001844D01*
X038060Y001682D01*
X038060Y001500D01*
X038500Y001500D01*
X038940Y001500D01*
X038940Y001682D01*
X038778Y001844D01*
X039160Y002227D01*
X039160Y002773D01*
X038773Y003160D01*
X039080Y002853D02*
X040120Y002853D01*
X040120Y002695D02*
X039160Y002695D01*
X039160Y002536D02*
X040120Y002536D01*
X040120Y002378D02*
X039160Y002378D01*
X039152Y002219D02*
X040120Y002219D01*
X040120Y002061D02*
X038994Y002061D01*
X038835Y001902D02*
X040120Y001902D01*
X040120Y001744D02*
X038879Y001744D01*
X038940Y001585D02*
X040120Y001585D01*
X040120Y001427D02*
X038940Y001427D01*
X038940Y001500D02*
X038500Y001500D01*
X038500Y001500D01*
X038500Y001500D01*
X038500Y001060D01*
X038682Y001060D01*
X038940Y001318D01*
X038940Y001500D01*
X038890Y001268D02*
X040120Y001268D01*
X040120Y001110D02*
X038732Y001110D01*
X038500Y001110D02*
X038500Y001110D01*
X038500Y001060D02*
X038500Y001500D01*
X038500Y001500D01*
X038060Y001500D01*
X038060Y001318D01*
X038318Y001060D01*
X038500Y001060D01*
X038500Y001268D02*
X038500Y001268D01*
X038500Y001427D02*
X038500Y001427D01*
X038268Y001110D02*
X037121Y001110D01*
X037215Y001204D02*
X037215Y001796D01*
X036796Y002215D01*
X036204Y002215D01*
X036000Y002011D01*
X035796Y002215D01*
X035204Y002215D01*
X034785Y001796D01*
X034785Y001204D01*
X035204Y000785D01*
X035796Y000785D01*
X036000Y000989D01*
X036204Y000785D01*
X036796Y000785D01*
X037215Y001204D01*
X037215Y001268D02*
X038110Y001268D01*
X038060Y001427D02*
X037215Y001427D01*
X037215Y001585D02*
X038060Y001585D01*
X038121Y001744D02*
X037215Y001744D01*
X037109Y001902D02*
X038165Y001902D01*
X038006Y002061D02*
X036951Y002061D01*
X036889Y002378D02*
X037840Y002378D01*
X037840Y002536D02*
X037047Y002536D01*
X037206Y002695D02*
X037840Y002695D01*
X037786Y002853D02*
X037920Y002853D01*
X038160Y003329D02*
X038492Y003329D01*
X038223Y003487D02*
X038160Y003487D01*
X037848Y002219D02*
X034652Y002219D01*
X034660Y002378D02*
X035111Y002378D01*
X034953Y002536D02*
X034660Y002536D01*
X034660Y002695D02*
X034794Y002695D01*
X034785Y002853D02*
X034580Y002853D01*
X034494Y002061D02*
X035049Y002061D01*
X034891Y001902D02*
X034531Y001902D01*
X034660Y001744D02*
X034785Y001744D01*
X034785Y001585D02*
X034660Y001585D01*
X034660Y001427D02*
X034785Y001427D01*
X034785Y001268D02*
X034660Y001268D01*
X034543Y001110D02*
X034879Y001110D01*
X035038Y000951D02*
X034384Y000951D01*
X033616Y000951D02*
X029202Y000951D01*
X029202Y000793D02*
X035196Y000793D01*
X035804Y000793D02*
X036196Y000793D01*
X036038Y000951D02*
X035962Y000951D01*
X035951Y002061D02*
X036049Y002061D01*
X036111Y002378D02*
X035889Y002378D01*
X036962Y000951D02*
X040120Y000951D01*
X040120Y000793D02*
X036804Y000793D01*
X039508Y003329D02*
X040120Y003329D01*
X040120Y003487D02*
X039777Y003487D01*
X039911Y003646D02*
X040120Y003646D01*
X040120Y003804D02*
X039976Y003804D01*
X040000Y003963D02*
X040120Y003963D01*
X040120Y004121D02*
X040000Y004121D01*
X039942Y004280D02*
X040120Y004280D01*
X040120Y004438D02*
X039852Y004438D01*
X039886Y004597D02*
X040120Y004597D01*
X040120Y004755D02*
X039956Y004755D01*
X040000Y004914D02*
X040120Y004914D01*
X040120Y005072D02*
X040000Y005072D01*
X039962Y005231D02*
X040120Y005231D01*
X040120Y005389D02*
X039897Y005389D01*
X039837Y005548D02*
X040120Y005548D01*
X040120Y005706D02*
X039936Y005706D01*
X040000Y005865D02*
X040120Y005865D01*
X040120Y006023D02*
X040000Y006023D01*
X039982Y006182D02*
X040120Y006182D01*
X040120Y006340D02*
X039917Y006340D01*
X039791Y006499D02*
X040120Y006499D01*
X040120Y006657D02*
X039543Y006657D01*
X040120Y007450D02*
X033383Y007450D01*
X033541Y007608D02*
X040120Y007608D01*
X040120Y007767D02*
X033660Y007767D01*
X033660Y007925D02*
X040120Y007925D01*
X036065Y014424D02*
X035935Y014424D01*
X035065Y014424D02*
X030730Y014424D01*
X030730Y014582D02*
X034907Y014582D01*
X034785Y014741D02*
X030730Y014741D01*
X030730Y014899D02*
X034785Y014899D01*
X034785Y015058D02*
X030730Y015058D01*
X030730Y015216D02*
X034785Y015216D01*
X034863Y015375D02*
X030730Y015375D01*
X030730Y015533D02*
X035022Y015533D01*
X033000Y013790D02*
X033000Y013790D01*
X033000Y013631D02*
X033000Y013631D01*
X032607Y016960D02*
X030730Y016960D01*
X030730Y017118D02*
X031260Y017118D01*
X031318Y017060D02*
X031060Y017318D01*
X031060Y017500D01*
X031500Y017500D01*
X031940Y017500D01*
X031940Y017682D01*
X031778Y017844D01*
X032160Y018227D01*
X032160Y018773D01*
X031773Y019160D01*
X031227Y019160D01*
X030840Y018773D01*
X030840Y018227D01*
X031222Y017844D01*
X031060Y017682D01*
X031060Y017500D01*
X031500Y017500D01*
X031500Y017500D01*
X031500Y017500D01*
X031940Y017500D01*
X031940Y017318D01*
X031682Y017060D01*
X031500Y017060D01*
X031500Y017500D01*
X031500Y017500D01*
X031500Y017060D01*
X031318Y017060D01*
X031500Y017118D02*
X031500Y017118D01*
X031500Y017277D02*
X031500Y017277D01*
X031500Y017435D02*
X031500Y017435D01*
X031740Y017118D02*
X032449Y017118D01*
X032340Y017277D02*
X031899Y017277D01*
X031940Y017435D02*
X032340Y017435D01*
X032340Y017594D02*
X031940Y017594D01*
X031870Y017752D02*
X032340Y017752D01*
X032477Y017911D02*
X031844Y017911D01*
X032002Y018069D02*
X032498Y018069D01*
X032340Y018228D02*
X032160Y018228D01*
X032160Y018386D02*
X032340Y018386D01*
X032340Y018545D02*
X032160Y018545D01*
X032160Y018703D02*
X032340Y018703D01*
X032428Y018862D02*
X032072Y018862D01*
X031913Y019020D02*
X032587Y019020D01*
X032462Y020605D02*
X030730Y020605D01*
X030730Y020764D02*
X032340Y020764D01*
X032340Y020922D02*
X030730Y020922D01*
X030730Y021081D02*
X032340Y021081D01*
X032340Y021239D02*
X030730Y021239D01*
X030730Y021398D02*
X032464Y021398D01*
X032623Y021556D02*
X030730Y021556D01*
X030730Y019020D02*
X031087Y019020D01*
X030928Y018862D02*
X030730Y018862D01*
X030730Y018703D02*
X030840Y018703D01*
X030840Y018545D02*
X030730Y018545D01*
X030730Y018386D02*
X030840Y018386D01*
X030840Y018228D02*
X030730Y018228D01*
X030730Y018069D02*
X030998Y018069D01*
X031156Y017911D02*
X030730Y017911D01*
X030730Y017752D02*
X031130Y017752D01*
X031060Y017594D02*
X030730Y017594D01*
X030730Y017435D02*
X031060Y017435D01*
X031101Y017277D02*
X030730Y017277D01*
X029378Y004914D02*
X026856Y004914D01*
X027126Y004755D02*
X029534Y004755D01*
X029692Y004597D02*
X027285Y004597D01*
X027350Y004438D02*
X029851Y004438D01*
X029940Y003012D02*
X028193Y003012D01*
X028031Y002853D02*
X029782Y002853D01*
X028648Y001585D02*
X028512Y001585D01*
X028512Y001427D02*
X028648Y001427D01*
X028648Y001268D02*
X028512Y001268D01*
X028512Y001110D02*
X028648Y001110D01*
X029202Y001110D02*
X033457Y001110D01*
X033340Y001268D02*
X029202Y001268D01*
X029064Y000634D02*
X040120Y000634D01*
X028255Y001585D02*
X017980Y001585D01*
X017980Y001427D02*
X028096Y001427D01*
X027958Y001268D02*
X017980Y001268D01*
X017980Y001110D02*
X027958Y001110D01*
X027958Y000951D02*
X017980Y000951D01*
X017980Y000793D02*
X027958Y000793D01*
X028096Y000634D02*
X017980Y000634D01*
X017980Y003329D02*
X018492Y003329D01*
X018223Y003487D02*
X017980Y003487D01*
X017980Y003646D02*
X018089Y003646D01*
X018024Y003804D02*
X017980Y003804D01*
X017980Y003963D02*
X018000Y003963D01*
X018000Y004121D02*
X017980Y004121D01*
X017980Y004280D02*
X018058Y004280D01*
X017980Y004438D02*
X018148Y004438D01*
X018114Y004597D02*
X017980Y004597D01*
X017980Y004755D02*
X018044Y004755D01*
X018000Y004914D02*
X017980Y004914D01*
X017980Y005072D02*
X018000Y005072D01*
X017980Y005231D02*
X018038Y005231D01*
X017980Y005389D02*
X018103Y005389D01*
X018163Y005548D02*
X017980Y005548D01*
X017980Y005706D02*
X018064Y005706D01*
X018000Y005865D02*
X017980Y005865D01*
X017980Y006023D02*
X018000Y006023D01*
X017980Y006182D02*
X018018Y006182D01*
X017980Y006340D02*
X018083Y006340D01*
X017980Y006499D02*
X018209Y006499D01*
X017980Y006657D02*
X018457Y006657D01*
D17*
X030000Y010000D02*
X030000Y020000D01*
X030000Y022500D01*
X023000Y022500D01*
X019000Y022500D01*
X030000Y022500D02*
X032000Y022500D01*
X032000Y029000D01*
X033500Y030500D01*
X034500Y030500D01*
X033000Y023500D02*
X032000Y022500D01*
X030000Y010000D02*
X032000Y008000D01*
X032000Y005000D01*
D18*
X023500Y011000D02*
X019500Y011000D01*
X019000Y010500D01*
X030000Y020000D02*
X033000Y020000D01*
D19*
X027924Y018498D02*
X027943Y018401D01*
X027946Y018309D01*
X027944Y018235D01*
X027932Y018158D01*
X027911Y018079D01*
X027874Y018016D01*
X027827Y017964D01*
X027769Y017926D01*
X027705Y017898D01*
X027638Y017884D01*
X027619Y017880D01*
X027614Y017873D01*
X027625Y017858D01*
X027666Y017796D01*
X027710Y017714D01*
X027729Y017666D01*
X027740Y017610D01*
X027739Y017527D01*
X027723Y017449D01*
X027695Y017401D01*
X027658Y017357D01*
X027606Y017319D01*
X027549Y017296D01*
X027464Y017273D01*
X027373Y017265D01*
X027277Y017268D01*
X027125Y017300D01*
X026993Y017353D01*
X026931Y017382D01*
X026885Y017405D01*
X026875Y017411D01*
X026855Y017424D01*
X026829Y017439D01*
X026752Y017487D01*
X026734Y017499D01*
X026661Y017553D01*
X026623Y017582D01*
X026478Y017710D01*
X026417Y017770D01*
X026369Y017819D01*
X026318Y017875D01*
X026251Y017947D01*
X026188Y018020D01*
X026178Y018027D01*
X026159Y018027D01*
X026119Y018013D01*
X026109Y018010D01*
X026091Y018005D01*
X026063Y017994D01*
X026018Y017974D01*
X025979Y017956D01*
X025951Y017943D01*
X025884Y017904D01*
X025880Y017897D01*
X025888Y017892D01*
X025921Y017868D01*
X025976Y017826D01*
X026021Y017788D01*
X026059Y017757D01*
X026166Y017647D01*
X026181Y017626D01*
X026219Y017575D01*
X026240Y017535D01*
X026263Y017465D01*
X026265Y017417D01*
X026258Y017370D01*
X026243Y017330D01*
X026220Y017298D01*
X026189Y017275D01*
X026129Y017258D01*
X026035Y017268D01*
X025966Y017305D01*
X025940Y017324D01*
X025917Y017345D01*
X025870Y017396D01*
X025829Y017443D01*
X025818Y017455D01*
X025803Y017475D01*
X025779Y017510D01*
X025736Y017568D01*
X025725Y017588D01*
X025719Y017601D01*
X025680Y017668D01*
X025674Y017681D01*
X025664Y017700D01*
X025648Y017728D01*
X025641Y017739D01*
X025631Y017740D01*
X025590Y017704D01*
X025568Y017684D01*
X025482Y017606D01*
X025347Y017482D01*
X025251Y017401D01*
X025206Y017362D01*
X025152Y017318D01*
X025069Y017253D01*
X025032Y017226D01*
X024939Y017165D01*
X024857Y017119D01*
X024810Y017094D01*
X024757Y017067D01*
X024732Y017055D01*
X024703Y017042D01*
X024654Y017018D01*
X024472Y016957D01*
X024439Y016947D01*
X024330Y016921D01*
X024288Y016915D01*
X024137Y016899D01*
X024137Y016899D01*
X024122Y016898D01*
X024005Y016910D01*
X023952Y016918D01*
X023911Y016928D01*
X023864Y016948D01*
X023795Y016988D01*
X023777Y017001D01*
X023708Y017063D01*
X023672Y017113D01*
X023651Y017164D01*
X023644Y017203D01*
X023647Y017249D01*
X023665Y017303D01*
X023727Y017398D01*
X023784Y017457D01*
X023803Y017472D01*
X023927Y017554D01*
X024000Y017588D01*
X024088Y017618D01*
X024155Y017637D01*
X024199Y017643D01*
X024236Y017646D01*
X024265Y017650D01*
X024353Y017648D01*
X024449Y017633D01*
X024503Y017615D01*
X024548Y017591D01*
X024581Y017558D01*
X024610Y017518D01*
X024624Y017485D01*
X024628Y017449D01*
X024623Y017419D01*
X024614Y017402D01*
X024586Y017368D01*
X024539Y017338D01*
X024490Y017327D01*
X024422Y017322D01*
X024368Y017327D01*
X024322Y017344D01*
X024298Y017361D01*
X024285Y017382D01*
X024282Y017403D01*
X024290Y017423D01*
X024324Y017452D01*
X024374Y017461D01*
X024421Y017450D01*
X024484Y017418D01*
X024523Y017398D01*
X024551Y017395D01*
X024571Y017402D01*
X024590Y017417D01*
X024604Y017437D01*
X024611Y017461D01*
X024605Y017493D01*
X024590Y017525D01*
X024567Y017552D01*
X024534Y017577D01*
X024478Y017602D01*
X024426Y017620D01*
X024376Y017629D01*
X024313Y017632D01*
X024245Y017626D01*
X024197Y017619D01*
X024128Y017601D01*
X024079Y017584D01*
X024020Y017560D01*
X023956Y017526D01*
X023916Y017502D01*
X023885Y017482D01*
X023876Y017477D01*
X023796Y017411D01*
X023764Y017373D01*
X023742Y017340D01*
X023730Y017305D01*
X023721Y017260D01*
X023720Y017205D01*
X023741Y017144D01*
X023762Y017112D01*
X023794Y017072D01*
X023839Y017029D01*
X023886Y016999D01*
X023943Y016976D01*
X023967Y016968D01*
X023999Y016960D01*
X024078Y016952D01*
X024239Y016954D01*
X024330Y016966D01*
X024366Y016972D01*
X024457Y016994D01*
X024581Y017034D01*
X024621Y017050D01*
X024665Y017068D01*
X024704Y017084D01*
X024784Y017124D01*
X024810Y017139D01*
X024903Y017191D01*
X024976Y017240D01*
X025000Y017258D01*
X025116Y017349D01*
X025174Y017397D01*
X025205Y017422D01*
X025236Y017448D01*
X025267Y017475D01*
X025290Y017494D01*
X025310Y017510D01*
X025337Y017532D01*
X025364Y017558D01*
X025379Y017573D01*
X025433Y017622D01*
X025448Y017634D01*
X025513Y017691D01*
X025540Y017714D01*
X025582Y017748D01*
X025608Y017768D01*
X025623Y017790D01*
X025606Y017831D01*
X025571Y017896D01*
X025559Y017917D01*
X025549Y017933D01*
X025536Y017958D01*
X025513Y018006D01*
X025489Y018048D01*
X025389Y018076D01*
X025339Y018088D01*
X025263Y018102D01*
X025256Y017986D01*
X025254Y017874D01*
X025249Y017790D01*
X025237Y017737D01*
X025204Y017685D01*
X025166Y017652D01*
X025129Y017633D01*
X025089Y017631D01*
X025060Y017634D01*
X025039Y017642D01*
X025013Y017660D01*
X024995Y017687D01*
X024987Y017707D01*
X024987Y017720D01*
X024998Y017728D01*
X025019Y017734D01*
X025047Y017745D01*
X025074Y017765D01*
X025112Y017814D01*
X025129Y017877D01*
X025134Y017911D01*
X025146Y018015D01*
X025154Y018175D01*
X025162Y018479D01*
X025119Y018508D01*
X025044Y018540D01*
X024967Y018560D01*
X024877Y018573D01*
X024736Y018581D01*
X024592Y018580D01*
X024406Y018568D01*
X024248Y018546D01*
X024218Y018542D01*
X024200Y018544D01*
X024196Y018558D01*
X024203Y018573D01*
X024240Y018580D01*
X024297Y018586D01*
X024421Y018596D01*
X024627Y018599D01*
X024859Y018596D01*
X024910Y018590D01*
X025016Y018573D01*
X025052Y018565D01*
X025111Y018546D01*
X025201Y018500D01*
X025251Y018469D01*
X025295Y018431D01*
X025332Y018391D01*
X025364Y018343D01*
X025386Y018305D01*
X025407Y018268D01*
X025432Y018221D01*
X025488Y018111D01*
X025502Y018091D01*
X025550Y018070D01*
X025662Y018024D01*
X025745Y017982D01*
X025792Y017956D01*
X025823Y017935D01*
X025837Y017927D01*
X025911Y017961D01*
X025964Y017986D01*
X025990Y017997D01*
X026076Y018031D01*
X026107Y018047D01*
X026136Y018068D01*
X026116Y018092D01*
X026105Y018104D01*
X026063Y018152D01*
X026009Y018214D01*
X025958Y018276D01*
X025917Y018326D01*
X025877Y018385D01*
X025853Y018418D01*
X025838Y018438D01*
X025797Y018502D01*
X025775Y018536D01*
X025738Y018600D01*
X025728Y018617D01*
X025707Y018655D01*
X025686Y018690D01*
X025654Y018757D01*
X025641Y018784D01*
X025629Y018817D01*
X025608Y018898D01*
X025599Y018958D01*
X025599Y018986D01*
X025606Y019006D01*
X025614Y019027D01*
X025620Y019044D01*
X025649Y019079D01*
X025681Y019105D01*
X025700Y019114D01*
X025779Y019139D01*
X025863Y019148D01*
X025884Y019151D01*
X025871Y019163D01*
X025852Y019176D01*
X025828Y019193D01*
X025802Y019213D01*
X025782Y019229D01*
X025693Y019318D01*
X025624Y019404D01*
X025609Y019433D01*
X025579Y019498D01*
X025571Y019547D01*
X025573Y019581D01*
X025583Y019598D01*
X025588Y019609D01*
X025633Y019662D01*
X025650Y019670D01*
X025679Y019680D01*
X025790Y019690D01*
X025895Y019685D01*
X025952Y019680D01*
X025955Y019684D01*
X025921Y019741D01*
X025900Y019778D01*
X025863Y019830D01*
X025849Y019848D01*
X025833Y019868D01*
X025803Y019905D01*
X025765Y019948D01*
X025714Y019996D01*
X025689Y020018D01*
X025671Y020030D01*
X025635Y020058D01*
X025629Y020063D01*
X025572Y020108D01*
X025546Y020126D01*
X025500Y020156D01*
X025484Y020166D01*
X025399Y020214D01*
X025362Y020235D01*
X025273Y020278D01*
X025259Y020284D01*
X025181Y020316D01*
X025102Y020341D01*
X025046Y020355D01*
X024995Y020366D01*
X024969Y020368D01*
X024930Y020375D01*
X024893Y020383D01*
X024716Y020404D01*
X024630Y020406D01*
X024515Y020403D01*
X024411Y020388D01*
X024321Y020359D01*
X024248Y020321D01*
X024222Y020302D01*
X024168Y020247D01*
X024118Y020164D01*
X024089Y020076D01*
X024076Y020013D01*
X024074Y019957D01*
X024079Y019876D01*
X024093Y019812D01*
X024108Y019763D01*
X024135Y019678D01*
X024144Y019655D01*
X024161Y019619D01*
X024173Y019594D01*
X024175Y019588D01*
X024236Y019467D01*
X024271Y019405D01*
X024329Y019323D01*
X024346Y019300D01*
X024361Y019284D01*
X024366Y019278D01*
X024407Y019224D01*
X024489Y019149D01*
X024558Y019105D01*
X024585Y019089D01*
X024605Y019084D01*
X024589Y019120D01*
X024570Y019163D01*
X024553Y019201D01*
X024519Y019272D01*
X024486Y019338D01*
X024469Y019372D01*
X024453Y019403D01*
X024442Y019425D01*
X024437Y019435D01*
X024417Y019471D01*
X024392Y019517D01*
X024381Y019535D01*
X024377Y019543D01*
X024364Y019564D01*
X024351Y019587D01*
X024338Y019608D01*
X024326Y019628D01*
X024311Y019653D01*
X024279Y019708D01*
X024262Y019737D01*
X024230Y019787D01*
X024211Y019815D01*
X024187Y019848D01*
X024179Y019863D01*
X024182Y019870D01*
X024193Y019862D01*
X024199Y019856D01*
X024211Y019843D01*
X024235Y019815D01*
X024259Y019785D01*
X024341Y019691D01*
X024363Y019670D01*
X024449Y019594D01*
X024468Y019579D01*
X024479Y019570D01*
X024493Y019550D01*
X024544Y019432D01*
X024572Y019370D01*
X024614Y019285D01*
X024626Y019261D01*
X024633Y019247D01*
X024677Y019152D01*
X024710Y019085D01*
X024720Y019096D01*
X024741Y019116D01*
X024769Y019129D01*
X024803Y019129D01*
X024829Y019125D01*
X024858Y019112D01*
X024906Y019086D01*
X024931Y019072D01*
X024941Y019070D01*
X024954Y019077D01*
X024990Y019111D01*
X025022Y019151D01*
X025056Y019230D01*
X025060Y019291D01*
X025056Y019359D01*
X025036Y019438D01*
X025008Y019509D01*
X024992Y019539D01*
X024973Y019578D01*
X024889Y019706D01*
X024818Y019783D01*
X024742Y019854D01*
X024716Y019875D01*
X024684Y019899D01*
X024632Y019939D01*
X024587Y019972D01*
X024560Y019990D01*
X024398Y020071D01*
X024316Y020092D01*
X024287Y020091D01*
X024259Y020083D01*
X024247Y020077D01*
X024239Y020065D01*
X024235Y020032D01*
X024254Y019961D01*
X024286Y019901D01*
X024295Y019887D01*
X024333Y019842D01*
X024381Y019796D01*
X024416Y019778D01*
X024454Y019768D01*
X024486Y019770D01*
X024499Y019797D01*
X024499Y019821D01*
X024491Y019845D01*
X024475Y019867D01*
X024453Y019884D01*
X024430Y019907D01*
X024430Y019912D01*
X024437Y019913D01*
X024457Y019908D01*
X024479Y019893D01*
X024515Y019845D01*
X024527Y019795D01*
X024522Y019774D01*
X024510Y019756D01*
X024497Y019747D01*
X024481Y019740D01*
X024467Y019735D01*
X024443Y019735D01*
X024397Y019742D01*
X024352Y019760D01*
X024308Y019785D01*
X024273Y019818D01*
X024266Y019831D01*
X024230Y019899D01*
X024213Y019932D01*
X024200Y019969D01*
X024195Y020019D01*
X024204Y020057D01*
X024224Y020087D01*
X024255Y020107D01*
X024293Y020115D01*
X024393Y020100D01*
X024471Y020069D01*
X024486Y020063D01*
X024572Y020012D01*
X024608Y019989D01*
X024636Y019972D01*
X024668Y019948D01*
X024698Y019923D01*
X024725Y019898D01*
X024760Y019868D01*
X024804Y019832D01*
X024842Y019797D01*
X024892Y019741D01*
X024960Y019653D01*
X024994Y019601D01*
X025002Y019585D01*
X025016Y019558D01*
X025030Y019526D01*
X025057Y019458D01*
X025073Y019394D01*
X025080Y019350D01*
X025082Y019283D01*
X025076Y019208D01*
X025063Y019170D01*
X025034Y019119D01*
X024986Y019072D01*
X024966Y019050D01*
X025007Y019000D01*
X025022Y018983D01*
X025036Y018971D01*
X025047Y018975D01*
X025057Y018984D01*
X025075Y018986D01*
X025094Y018989D01*
X025097Y019005D01*
X025108Y019059D01*
X025127Y019084D01*
X025156Y019108D01*
X025200Y019113D01*
X025253Y019106D01*
X025292Y019090D01*
X025327Y019067D01*
X025354Y019049D01*
X025401Y019006D01*
X025434Y018967D01*
X025467Y018923D01*
X025485Y018888D01*
X025507Y018831D01*
X025522Y018774D01*
X025523Y018730D01*
X025517Y018695D01*
X025493Y018668D01*
X025459Y018646D01*
X025388Y018634D01*
X025348Y018645D01*
X025300Y018673D01*
X025254Y018711D01*
X025221Y018746D01*
X025184Y018785D01*
X025166Y018814D01*
X025140Y018859D01*
X025124Y018898D01*
X025108Y018940D01*
X025099Y018961D01*
X025082Y018965D01*
X025058Y018959D01*
X025049Y018949D01*
X025059Y018931D01*
X025077Y018899D01*
X025089Y018877D01*
X025118Y018804D01*
X025124Y018770D01*
X025121Y018740D01*
X025107Y018713D01*
X025074Y018686D01*
X025055Y018674D01*
X025018Y018674D01*
X024968Y018680D01*
X024954Y018686D01*
X024884Y018720D01*
X024857Y018739D01*
X024836Y018751D01*
X024830Y018741D01*
X024817Y018713D01*
X024797Y018695D01*
X024770Y018686D01*
X024735Y018686D01*
X024705Y018692D01*
X024669Y018715D01*
X024601Y018772D01*
X024573Y018795D01*
X024557Y018809D01*
X024547Y018820D01*
X024542Y018819D01*
X024582Y018732D01*
X024587Y018724D01*
X024607Y018686D01*
X024627Y018647D01*
X024626Y018642D01*
X024618Y018644D01*
X024600Y018654D01*
X024572Y018668D01*
X024503Y018691D01*
X024482Y018698D01*
X024473Y018712D01*
X024456Y018768D01*
X024423Y018849D01*
X024398Y018910D01*
X024385Y018940D01*
X024371Y018971D01*
X024352Y019005D01*
X024293Y019081D01*
X024248Y019131D01*
X024222Y019153D01*
X024187Y019170D01*
X024158Y019167D01*
X024150Y019159D01*
X024149Y019148D01*
X024174Y019104D01*
X024181Y019100D01*
X024188Y019103D01*
X024206Y019108D01*
X024225Y019105D01*
X024271Y019066D01*
X024280Y019036D01*
X024278Y019012D01*
X024260Y019002D01*
X024231Y019003D01*
X024214Y019012D01*
X024186Y019040D01*
X024145Y019095D01*
X024133Y019138D01*
X024135Y019164D01*
X024142Y019180D01*
X024158Y019188D01*
X024182Y019188D01*
X024214Y019181D01*
X024248Y019160D01*
X024291Y019123D01*
X024340Y019083D01*
X024411Y019045D01*
X024498Y019009D01*
X024508Y019002D01*
X024503Y018994D01*
X024494Y018985D01*
X024495Y018957D01*
X024506Y018923D01*
X024537Y018868D01*
X024574Y018820D01*
X024614Y018782D01*
X024654Y018756D01*
X024697Y018746D01*
X024710Y018752D01*
X024719Y018765D01*
X024722Y018802D01*
X024711Y018843D01*
X024702Y018867D01*
X024671Y018949D01*
X024667Y018958D01*
X024662Y018970D01*
X024645Y019004D01*
X024634Y019031D01*
X024566Y019066D01*
X024501Y019100D01*
X024473Y019121D01*
X024443Y019145D01*
X024401Y019178D01*
X024271Y019312D01*
X024250Y019340D01*
X024223Y019374D01*
X024210Y019393D01*
X024193Y019415D01*
X024173Y019442D01*
X024148Y019480D01*
X024141Y019492D01*
X024117Y019538D01*
X024098Y019575D01*
X024057Y019671D01*
X024035Y019735D01*
X024025Y019783D01*
X024017Y019831D01*
X024011Y019897D01*
X024013Y019990D01*
X024035Y020102D01*
X024058Y020166D01*
X024069Y020186D01*
X024088Y020221D01*
X024139Y020295D01*
X024177Y020331D01*
X024192Y020341D01*
X024227Y020362D01*
X024297Y020397D01*
X024349Y020411D01*
X024409Y020423D01*
X024504Y020438D01*
X024730Y020437D01*
X024823Y020428D01*
X024931Y020413D01*
X024961Y020407D01*
X024991Y020402D01*
X025025Y020396D01*
X025078Y020383D01*
X025123Y020372D01*
X025165Y020357D01*
X025231Y020332D01*
X025322Y020297D01*
X025412Y020251D01*
X025439Y020237D01*
X025459Y020226D01*
X025479Y020214D01*
X025558Y020169D01*
X025602Y020142D01*
X025671Y020095D01*
X025691Y020080D01*
X025738Y020045D01*
X025781Y020011D01*
X025894Y019913D01*
X025988Y019809D01*
X026015Y019774D01*
X026042Y019739D01*
X026056Y019720D01*
X026100Y019654D01*
X026123Y019639D01*
X026217Y019609D01*
X026373Y019552D01*
X026454Y019515D01*
X026488Y019499D01*
X026503Y019494D01*
X026518Y019496D01*
X026586Y019508D01*
X026666Y019507D01*
X026749Y019496D01*
X026828Y019473D01*
X026887Y019452D01*
X026998Y019410D01*
X027054Y019387D01*
X027069Y019380D01*
X027090Y019367D01*
X027181Y019320D01*
X027202Y019305D01*
X027220Y019292D01*
X027237Y019282D01*
X027337Y019221D01*
X027386Y019186D01*
X027434Y019148D01*
X027503Y019090D01*
X027530Y019066D01*
X027673Y018930D01*
X027735Y018858D01*
X027779Y018801D01*
X027835Y018724D01*
X027886Y018610D01*
X027907Y018554D01*
X027924Y018498D01*
X027798Y018499D02*
X027830Y018408D01*
X027838Y018380D01*
X027851Y018334D01*
X027859Y018296D01*
X027870Y018207D01*
X027863Y018104D01*
X027840Y018050D01*
X027830Y018032D01*
X027796Y017992D01*
X027767Y017965D01*
X027737Y017947D01*
X027687Y017924D01*
X027626Y017911D01*
X027587Y017908D01*
X027559Y017931D01*
X027559Y017931D01*
X027522Y017962D01*
X027496Y017981D01*
X027404Y018043D01*
X027388Y018053D01*
X027363Y018068D01*
X027336Y018082D01*
X027161Y018163D01*
X027057Y018192D01*
X026939Y018214D01*
X026905Y018219D01*
X026853Y018277D01*
X026764Y018413D01*
X026704Y018522D01*
X026665Y018593D01*
X026634Y018652D01*
X026611Y018692D01*
X026599Y018715D01*
X026587Y018738D01*
X026570Y018769D01*
X026534Y018836D01*
X026530Y018845D01*
X026521Y018861D01*
X026511Y018880D01*
X026502Y018897D01*
X026482Y018933D01*
X026470Y018955D01*
X026449Y018993D01*
X026428Y019031D01*
X026417Y019053D01*
X026393Y019104D01*
X026362Y019167D01*
X026344Y019205D01*
X026311Y019274D01*
X026307Y019284D01*
X026297Y019302D01*
X026283Y019325D01*
X026276Y019337D01*
X026267Y019354D01*
X026254Y019385D01*
X026244Y019408D01*
X026228Y019433D01*
X026215Y019457D01*
X026189Y019503D01*
X026178Y019525D01*
X026167Y019543D01*
X026158Y019557D01*
X026144Y019580D01*
X026136Y019597D01*
X026142Y019602D01*
X026289Y019561D01*
X026457Y019490D01*
X026472Y019474D01*
X026458Y019447D01*
X026436Y019415D01*
X026435Y019386D01*
X026439Y019345D01*
X026447Y019319D01*
X026460Y019286D01*
X026496Y019216D01*
X026540Y019160D01*
X026564Y019133D01*
X026626Y019071D01*
X026656Y019047D01*
X026681Y019028D01*
X026705Y019012D01*
X026735Y018994D01*
X026758Y018982D01*
X026818Y018952D01*
X026862Y018938D01*
X026916Y018927D01*
X026955Y018918D01*
X027016Y018920D01*
X027077Y018921D01*
X027084Y018896D01*
X027104Y018811D01*
X027114Y018736D01*
X027104Y018650D01*
X027102Y018640D01*
X027090Y018624D01*
X027068Y018608D01*
X027040Y018601D01*
X027023Y018600D01*
X027006Y018606D01*
X026976Y018630D01*
X026952Y018656D01*
X026932Y018684D01*
X026915Y018722D01*
X026896Y018752D01*
X026871Y018775D01*
X026852Y018786D01*
X026825Y018791D01*
X026792Y018777D01*
X026778Y018764D01*
X026773Y018752D01*
X026793Y018699D01*
X026835Y018656D01*
X026891Y018621D01*
X026966Y018590D01*
X026995Y018583D01*
X027038Y018580D01*
X027093Y018583D01*
X027107Y018588D01*
X027140Y018607D01*
X027173Y018642D01*
X027193Y018691D01*
X027203Y018746D01*
X027202Y018804D01*
X027190Y018862D01*
X027171Y018907D01*
X027149Y018949D01*
X027163Y018963D01*
X027192Y018997D01*
X027202Y019037D01*
X027193Y019071D01*
X027169Y019100D01*
X027145Y019120D01*
X027082Y019155D01*
X027031Y019174D01*
X026978Y019185D01*
X026942Y019189D01*
X026927Y019205D01*
X026831Y019286D01*
X026807Y019305D01*
X026784Y019322D01*
X026740Y019353D01*
X026680Y019394D01*
X026627Y019428D01*
X026595Y019447D01*
X026577Y019457D01*
X026573Y019467D01*
X026593Y019475D01*
X026673Y019479D01*
X026730Y019478D01*
X026763Y019472D01*
X026888Y019433D01*
X026998Y019382D01*
X027025Y019367D01*
X027119Y019308D01*
X027190Y019257D01*
X027243Y019209D01*
X027264Y019191D01*
X027290Y019167D01*
X027329Y019131D01*
X027415Y019046D01*
X027450Y019008D01*
X027477Y018977D01*
X027497Y018954D01*
X027589Y018846D01*
X027606Y018821D01*
X027617Y018807D01*
X027630Y018790D01*
X027639Y018775D01*
X027652Y018756D01*
X027693Y018695D01*
X027726Y018642D01*
X027736Y018626D01*
X027750Y018601D01*
X027789Y018519D01*
X027798Y018499D01*
X027452Y017988D02*
X027516Y017942D01*
X027543Y017913D01*
X027536Y017908D01*
X027502Y017908D01*
X027463Y017910D01*
X027408Y017923D01*
X027272Y017962D01*
X027155Y018016D01*
X027070Y018062D01*
X027031Y018089D01*
X026985Y018128D01*
X026944Y018170D01*
X026948Y018175D01*
X027084Y018154D01*
X027114Y018147D01*
X027137Y018140D01*
X027148Y018136D01*
X027188Y018124D01*
X027224Y018110D01*
X027274Y018088D01*
X027352Y018050D01*
X027408Y018017D01*
X027452Y017988D01*
X027394Y017890D02*
X027525Y017879D01*
X027560Y017877D01*
X027581Y017871D01*
X027600Y017853D01*
X027627Y017816D01*
X027650Y017786D01*
X027665Y017761D01*
X027677Y017737D01*
X027717Y017635D01*
X027718Y017571D01*
X027707Y017518D01*
X027699Y017499D01*
X027680Y017459D01*
X027648Y017418D01*
X027607Y017381D01*
X027561Y017351D01*
X027500Y017329D01*
X027421Y017313D01*
X027377Y017306D01*
X027244Y017310D01*
X027174Y017322D01*
X027130Y017337D01*
X027090Y017352D01*
X027002Y017391D01*
X026961Y017412D01*
X026925Y017433D01*
X026883Y017457D01*
X026836Y017487D01*
X026801Y017512D01*
X026762Y017537D01*
X026727Y017559D01*
X026710Y017572D01*
X026684Y017590D01*
X026646Y017618D01*
X026614Y017644D01*
X026593Y017662D01*
X026569Y017680D01*
X026446Y017791D01*
X026412Y017825D01*
X026376Y017863D01*
X026312Y017934D01*
X026265Y017985D01*
X026226Y018028D01*
X026219Y018042D01*
X026277Y018065D01*
X026404Y018100D01*
X026493Y018122D01*
X026556Y018136D01*
X026590Y018142D01*
X026627Y018147D01*
X026668Y018153D01*
X026815Y018174D01*
X026834Y018168D01*
X026868Y018141D01*
X026965Y018071D01*
X026994Y018053D01*
X027063Y018013D01*
X027101Y017992D01*
X027124Y017982D01*
X027148Y017972D01*
X027239Y017936D01*
X027362Y017898D01*
X027394Y017890D01*
X026790Y018211D02*
X026781Y018206D01*
X026760Y018202D01*
X026739Y018200D01*
X026714Y018197D01*
X026650Y018188D01*
X026584Y018177D01*
X026550Y018170D01*
X026448Y018150D01*
X026384Y018133D01*
X026324Y018118D01*
X026282Y018105D01*
X026253Y018094D01*
X026220Y018084D01*
X026192Y018076D01*
X026182Y018085D01*
X026182Y018085D01*
X026167Y018106D01*
X026129Y018157D01*
X026105Y018192D01*
X026073Y018239D01*
X026043Y018285D01*
X026033Y018301D01*
X026024Y018317D01*
X025993Y018371D01*
X025959Y018431D01*
X025940Y018463D01*
X025927Y018488D01*
X025882Y018577D01*
X025816Y018720D01*
X025806Y018743D01*
X025796Y018766D01*
X025784Y018796D01*
X025770Y018836D01*
X025764Y018856D01*
X025741Y018928D01*
X025737Y018967D01*
X025741Y018990D01*
X025752Y019025D01*
X025763Y019049D01*
X025782Y019069D01*
X025848Y019101D01*
X025876Y019111D01*
X025954Y019109D01*
X025989Y019102D01*
X026016Y019095D01*
X026049Y019087D01*
X026076Y019079D01*
X026102Y019071D01*
X026146Y019058D01*
X026175Y019050D01*
X026247Y019025D01*
X026289Y019010D01*
X026338Y018992D01*
X026361Y018967D01*
X026381Y018925D01*
X026396Y018896D01*
X026410Y018871D01*
X026443Y018813D01*
X026462Y018779D01*
X026478Y018748D01*
X026492Y018722D01*
X026509Y018692D01*
X026520Y018673D01*
X026535Y018648D01*
X026565Y018594D01*
X026639Y018461D01*
X026677Y018385D01*
X026687Y018367D01*
X026699Y018347D01*
X026738Y018285D01*
X026769Y018244D01*
X026787Y018220D01*
X026790Y018211D01*
X026981Y018960D02*
X026981Y018960D01*
X027056Y018957D01*
X027058Y018970D01*
X027047Y018995D01*
X027025Y019038D01*
X027010Y019067D01*
X027002Y019079D01*
X026948Y019145D01*
X026934Y019159D01*
X026917Y019163D01*
X026849Y019165D01*
X026798Y019170D01*
X026802Y019178D01*
X026814Y019185D01*
X026865Y019193D01*
X026893Y019197D01*
X026881Y019215D01*
X026858Y019234D01*
X026847Y019242D01*
X026825Y019262D01*
X026790Y019290D01*
X026662Y019380D01*
X026641Y019392D01*
X026596Y019417D01*
X026565Y019434D01*
X026552Y019439D01*
X026539Y019432D01*
X026529Y019403D01*
X026529Y019356D01*
X026537Y019311D01*
X026559Y019261D01*
X026588Y019215D01*
X026605Y019190D01*
X026615Y019177D01*
X026638Y019150D01*
X026708Y019086D01*
X026791Y019030D01*
X026822Y019012D01*
X026899Y018978D01*
X026981Y018960D01*
X027101Y019012D02*
X027011Y019120D01*
X026984Y019155D01*
X027021Y019150D01*
X027055Y019141D01*
X027137Y019097D01*
X027173Y019062D01*
X027187Y019032D01*
X027176Y019001D01*
X027151Y018978D01*
X027135Y018974D01*
X027125Y018980D01*
X027116Y018991D01*
X027101Y019012D01*
X026309Y019053D02*
X026300Y019048D01*
X026264Y019053D01*
X026264Y019053D01*
X026231Y019062D01*
X026208Y019070D01*
X026067Y019107D01*
X026001Y019131D01*
X025952Y019155D01*
X025917Y019179D01*
X025849Y019238D01*
X025799Y019290D01*
X025786Y019307D01*
X025773Y019327D01*
X025760Y019346D01*
X025739Y019382D01*
X025731Y019396D01*
X025695Y019470D01*
X025689Y019491D01*
X025685Y019527D01*
X025694Y019570D01*
X025717Y019606D01*
X025754Y019626D01*
X025803Y019640D01*
X025854Y019647D01*
X025909Y019646D01*
X025969Y019637D01*
X025992Y019633D01*
X026004Y019613D01*
X026021Y019587D01*
X026032Y019568D01*
X026041Y019551D01*
X026054Y019528D01*
X026069Y019503D01*
X026098Y019447D01*
X026138Y019373D01*
X026148Y019352D01*
X026155Y019337D01*
X026196Y019265D01*
X026210Y019237D01*
X026220Y019220D01*
X026231Y019198D01*
X026244Y019175D01*
X026256Y019154D01*
X026278Y019113D01*
X026297Y019077D01*
X026309Y019053D01*
X025851Y017888D02*
X025869Y017878D01*
X025894Y017859D01*
X025910Y017846D01*
X025924Y017836D01*
X025941Y017824D01*
X026010Y017739D01*
X026028Y017711D01*
X026042Y017688D01*
X026055Y017662D01*
X026083Y017604D01*
X026098Y017550D01*
X026105Y017511D01*
X026116Y017443D01*
X026102Y017376D01*
X026086Y017351D01*
X026061Y017337D01*
X026034Y017333D01*
X026000Y017341D01*
X025952Y017364D01*
X025902Y017406D01*
X025842Y017474D01*
X025821Y017504D01*
X025809Y017521D01*
X025797Y017538D01*
X025777Y017569D01*
X025763Y017591D01*
X025748Y017614D01*
X025733Y017639D01*
X025717Y017665D01*
X025689Y017718D01*
X025665Y017764D01*
X025666Y017772D01*
X025678Y017781D01*
X025708Y017803D01*
X025738Y017824D01*
X025776Y017846D01*
X025812Y017867D01*
X025834Y017880D01*
X025851Y017888D01*
X025468Y018106D02*
X025464Y018101D01*
X025413Y018113D01*
X025413Y018113D01*
X025336Y018133D01*
X025287Y018146D01*
X025264Y018156D01*
X025259Y018285D01*
X025262Y018412D01*
X025274Y018407D01*
X025306Y018377D01*
X025339Y018338D01*
X025366Y018292D01*
X025385Y018258D01*
X025398Y018237D01*
X025411Y018214D01*
X025424Y018190D01*
X025437Y018170D01*
X025452Y018143D01*
X025464Y018116D01*
X025468Y018106D01*
X025089Y018182D02*
X025080Y018212D01*
X025058Y018244D01*
X025036Y018260D01*
X025008Y018268D01*
X024988Y018267D01*
X024970Y018257D01*
X024955Y018241D01*
X024943Y018219D01*
X024938Y018190D01*
X024941Y018104D01*
X024942Y018047D01*
X024932Y018000D01*
X024911Y017919D01*
X024899Y017901D01*
X024882Y017890D01*
X024862Y017884D01*
X024839Y017889D01*
X024822Y017901D01*
X024799Y017935D01*
X024788Y017954D01*
X024789Y017992D01*
X024793Y018061D01*
X024796Y018142D01*
X024799Y018197D01*
X024806Y018201D01*
X024819Y018194D01*
X024833Y018188D01*
X024838Y018194D01*
X024827Y018204D01*
X024785Y018233D01*
X024757Y018265D01*
X024748Y018281D01*
X024734Y018303D01*
X024711Y018337D01*
X024704Y018338D01*
X024698Y018331D01*
X024691Y018309D01*
X024688Y018266D01*
X024695Y018127D01*
X024697Y018046D01*
X024690Y017982D01*
X024675Y017964D01*
X024653Y017972D01*
X024615Y018017D01*
X024601Y018037D01*
X024590Y018058D01*
X024575Y018091D01*
X024561Y018122D01*
X024554Y018135D01*
X024537Y018161D01*
X024483Y018220D01*
X024471Y018227D01*
X024423Y018257D01*
X024369Y018281D01*
X024322Y018290D01*
X024285Y018284D01*
X024253Y018270D01*
X024238Y018261D01*
X024205Y018330D01*
X024189Y018370D01*
X024181Y018418D01*
X024179Y018450D01*
X024160Y018464D01*
X024055Y018562D01*
X024023Y018603D01*
X023957Y018681D01*
X023958Y018661D01*
X023981Y018619D01*
X024046Y018488D01*
X024075Y018421D01*
X024109Y018342D01*
X024126Y018296D01*
X024162Y018202D01*
X024199Y018085D01*
X024213Y018043D01*
X024222Y018006D01*
X024208Y017965D01*
X024195Y017961D01*
X024177Y017966D01*
X024127Y018016D01*
X024081Y018074D01*
X024073Y018091D01*
X024066Y018103D01*
X024058Y018121D01*
X024056Y018136D01*
X024057Y018149D01*
X024025Y018160D01*
X023911Y018210D01*
X023891Y018206D02*
X023908Y018189D01*
X023956Y018119D01*
X023969Y018098D01*
X024012Y018023D01*
X024051Y017940D01*
X024053Y017921D01*
X024045Y017902D01*
X024033Y017892D01*
X024014Y017889D01*
X023964Y017905D01*
X023936Y017932D01*
X023882Y017994D01*
X023815Y018045D01*
X023709Y018084D01*
X023654Y018086D01*
X023605Y018079D01*
X023559Y018047D01*
X023529Y018014D01*
X023514Y017974D01*
X023499Y017942D01*
X023429Y017965D01*
X023423Y017993D01*
X023399Y018081D01*
X023364Y018153D01*
X023355Y018169D01*
X023317Y018227D01*
X023310Y018241D01*
X023345Y018259D01*
X023549Y018344D01*
X023595Y018364D01*
X023711Y018415D01*
X023768Y018438D01*
X023788Y018452D01*
X023783Y018468D01*
X023767Y018472D01*
X023731Y018453D01*
X023676Y018425D01*
X023633Y018405D01*
X023612Y018396D01*
X023544Y018363D01*
X023499Y018343D01*
X023477Y018333D01*
X023459Y018326D01*
X023430Y018316D01*
X023391Y018299D01*
X023335Y018276D01*
X023298Y018261D01*
X023243Y018319D01*
X023190Y018377D01*
X023127Y018434D01*
X023115Y018446D01*
X023106Y018455D01*
X023090Y018465D01*
X022947Y018538D01*
X022901Y018552D01*
X022858Y018564D01*
X022813Y018573D01*
X022716Y018588D01*
X022655Y018593D01*
X022558Y018596D01*
X022461Y018590D01*
X022425Y018583D01*
X022396Y018570D01*
X022343Y018531D01*
X022325Y018508D01*
X022305Y018468D01*
X022296Y018415D01*
X022298Y018379D01*
X022312Y018348D01*
X022372Y018288D01*
X022395Y018270D01*
X022456Y018238D01*
X022485Y018225D01*
X022572Y018195D01*
X022661Y018175D01*
X022756Y018163D01*
X022802Y018158D01*
X022953Y018163D01*
X022997Y018168D01*
X023041Y018175D01*
X023080Y018181D01*
X023193Y018208D01*
X023282Y018233D01*
X023317Y018194D01*
X023389Y018043D01*
X023403Y017976D01*
X023361Y017983D01*
X023251Y018008D01*
X023182Y018015D01*
X023111Y018013D01*
X023055Y018001D01*
X023010Y017985D01*
X022972Y017957D01*
X022936Y017917D01*
X022905Y017867D01*
X022879Y017810D01*
X022866Y017767D01*
X022860Y017716D01*
X022860Y017639D01*
X022869Y017571D01*
X022873Y017548D01*
X022899Y017471D01*
X022907Y017446D01*
X022796Y017434D01*
X022669Y017436D01*
X022617Y017442D01*
X022514Y017457D01*
X022463Y017469D01*
X022325Y017510D01*
X022208Y017561D01*
X022145Y017593D01*
X021995Y017670D01*
X021918Y017715D01*
X021884Y017737D01*
X021860Y017753D01*
X021820Y017780D01*
X021795Y017799D01*
X021763Y017821D01*
X021741Y017838D01*
X021723Y017852D01*
X021602Y017962D01*
X021510Y018066D01*
X021481Y018102D01*
X021432Y018166D01*
X021418Y018184D01*
X021401Y018207D01*
X021377Y018241D01*
X021360Y018267D01*
X021345Y018291D01*
X021280Y018401D01*
X021263Y018432D01*
X021236Y018484D01*
X021171Y018665D01*
X021156Y018715D01*
X021134Y018799D01*
X021111Y018910D01*
X021104Y018955D01*
X021095Y019013D01*
X021088Y019070D01*
X021085Y019167D01*
X021087Y019245D01*
X021096Y019310D01*
X021131Y019438D01*
X021138Y019453D01*
X021194Y019565D01*
X021256Y019645D01*
X021326Y019711D01*
X021355Y019736D01*
X021371Y019748D01*
X021383Y019758D01*
X021409Y019774D01*
X021440Y019790D01*
X021547Y019822D01*
X021613Y019833D01*
X021716Y019836D01*
X021794Y019835D01*
X021825Y019835D01*
X021859Y019831D01*
X021910Y019825D01*
X021998Y019813D01*
X022036Y019807D01*
X022110Y019794D01*
X022189Y019771D01*
X022233Y019754D01*
X022252Y019720D01*
X022265Y019697D01*
X022312Y019644D01*
X022334Y019625D01*
X022409Y019578D01*
X022479Y019549D01*
X022558Y019535D01*
X022603Y019530D01*
X022682Y019527D01*
X022774Y019532D01*
X022858Y019545D01*
X022901Y019554D01*
X022923Y019559D01*
X023019Y019580D01*
X023063Y019589D01*
X023089Y019593D01*
X023121Y019598D01*
X023185Y019606D01*
X023285Y019606D01*
X023380Y019602D01*
X023414Y019600D01*
X023489Y019592D01*
X023587Y019568D01*
X023669Y019531D01*
X023730Y019487D01*
X023787Y019434D01*
X023832Y019380D01*
X023857Y019332D01*
X023871Y019306D01*
X023899Y019277D01*
X023918Y019261D01*
X023936Y019261D01*
X023961Y019264D01*
X023974Y019280D01*
X023981Y019313D01*
X023978Y019334D01*
X023975Y019341D01*
X023964Y019367D01*
X023941Y019400D01*
X023922Y019421D01*
X023889Y019448D01*
X023794Y019508D01*
X023770Y019522D01*
X023695Y019562D01*
X023602Y019594D01*
X023521Y019613D01*
X023496Y019616D01*
X023352Y019626D01*
X023168Y019624D01*
X023042Y019610D01*
X022977Y019604D01*
X022873Y019605D01*
X022769Y019619D01*
X022647Y019649D01*
X022632Y019654D01*
X022597Y019664D01*
X022522Y019688D01*
X022491Y019700D01*
X022457Y019712D01*
X022418Y019725D01*
X022357Y019746D01*
X022273Y019776D01*
X022258Y019788D01*
X022259Y019832D01*
X022274Y019877D01*
X022301Y019909D01*
X022339Y019937D01*
X022386Y019954D01*
X022434Y019961D01*
X022475Y019959D01*
X022505Y019955D01*
X022560Y019946D01*
X022583Y019944D01*
X022594Y019948D01*
X022589Y019952D01*
X022576Y019957D01*
X022538Y019972D01*
X022498Y019980D01*
X022446Y019983D01*
X022409Y019978D01*
X022376Y019970D01*
X022330Y019949D01*
X022285Y019921D01*
X022248Y019872D01*
X022233Y019816D01*
X022231Y019794D01*
X022210Y019793D01*
X022158Y019806D01*
X022021Y019837D01*
X021949Y019848D01*
X021881Y019857D01*
X021790Y019859D01*
X021599Y019848D01*
X021558Y019842D01*
X021482Y019825D01*
X021412Y019799D01*
X021330Y019758D01*
X021274Y019716D01*
X021234Y019684D01*
X021118Y019555D01*
X021101Y019526D01*
X021058Y019436D01*
X021029Y019342D01*
X021012Y019219D01*
X021011Y019117D01*
X021020Y019025D01*
X021037Y018942D01*
X021047Y018897D01*
X021059Y018854D01*
X021088Y018761D01*
X021148Y018611D01*
X021161Y018581D01*
X021187Y018524D01*
X021216Y018461D01*
X021230Y018434D01*
X021237Y018421D01*
X021242Y018406D01*
X021286Y018329D01*
X021307Y018291D01*
X021335Y018247D01*
X021382Y018178D01*
X021419Y018131D01*
X021463Y018075D01*
X021483Y018050D01*
X021609Y017919D01*
X021703Y017839D01*
X021711Y017832D01*
X021785Y017772D01*
X021815Y017749D01*
X021929Y017674D01*
X021978Y017647D01*
X022177Y017546D01*
X022208Y017531D01*
X022238Y017518D01*
X022257Y017511D01*
X022266Y017507D01*
X022298Y017495D01*
X022386Y017467D01*
X022496Y017442D01*
X022579Y017428D01*
X022657Y017417D01*
X022720Y017412D01*
X022794Y017412D01*
X022876Y017418D01*
X022909Y017421D01*
X022927Y017421D01*
X022947Y017392D01*
X023000Y017326D01*
X023052Y017280D01*
X023074Y017264D01*
X023124Y017232D01*
X023145Y017223D01*
X023173Y017210D01*
X023211Y017194D01*
X023279Y017178D01*
X023331Y017170D01*
X023370Y017172D01*
X023370Y017172D01*
X023429Y017185D01*
X023480Y017207D01*
X023546Y017272D01*
X023563Y017317D01*
X023572Y017366D01*
X023571Y017410D01*
X023561Y017466D01*
X023543Y017516D01*
X023505Y017565D01*
X023453Y017615D01*
X023402Y017647D01*
X023362Y017670D01*
X023372Y017688D01*
X023391Y017724D01*
X023404Y017749D01*
X023422Y017806D01*
X023431Y017905D01*
X023434Y017940D01*
X023463Y017935D01*
X023486Y017926D01*
X023495Y017916D01*
X023502Y017880D01*
X023507Y017836D01*
X023521Y017790D01*
X023535Y017753D01*
X023558Y017715D01*
X023616Y017650D01*
X023635Y017637D01*
X023670Y017616D01*
X023706Y017601D01*
X023756Y017598D01*
X023791Y017599D01*
X023816Y017606D01*
X023893Y017645D01*
X023956Y017705D01*
X023970Y017737D01*
X023979Y017780D01*
X023979Y017829D01*
X023976Y017851D01*
X023990Y017855D01*
X024017Y017851D01*
X024067Y017848D01*
X024114Y017870D01*
X024138Y017895D01*
X024144Y017929D01*
X024147Y017951D01*
X024165Y017939D01*
X024209Y017912D01*
X024258Y017899D01*
X024288Y017899D01*
X024310Y017912D01*
X024324Y017937D01*
X024321Y017982D01*
X024317Y018013D01*
X024322Y018021D01*
X024357Y017989D01*
X024398Y017954D01*
X024413Y017944D01*
X024447Y017926D01*
X024485Y017914D01*
X024525Y017913D01*
X024556Y017920D01*
X024581Y017937D01*
X024594Y017955D01*
X024603Y017969D01*
X024622Y017944D01*
X024664Y017899D01*
X024694Y017881D01*
X024726Y017879D01*
X024748Y017885D01*
X024766Y017902D01*
X024776Y017912D01*
X024781Y017911D01*
X024852Y017847D01*
X024886Y017838D01*
X024922Y017835D01*
X024958Y017843D01*
X024979Y017852D01*
X024997Y017868D01*
X025017Y017891D01*
X025027Y017918D01*
X025030Y018001D01*
X025027Y018104D01*
X025030Y018157D01*
X025039Y018177D01*
X025051Y018184D01*
X025077Y018172D01*
X025085Y018170D01*
X025089Y018182D01*
X024976Y018705D02*
X024951Y018712D01*
X024951Y018712D01*
X024899Y018738D01*
X024848Y018771D01*
X024831Y018786D01*
X024823Y018806D01*
X024811Y018837D01*
X024790Y018885D01*
X024760Y018954D01*
X024745Y018987D01*
X024746Y018997D01*
X024788Y019002D01*
X024882Y019009D01*
X024899Y019008D01*
X024913Y018991D01*
X024935Y018958D01*
X024971Y018902D01*
X024986Y018869D01*
X024997Y018828D01*
X025008Y018746D01*
X025003Y018722D01*
X024992Y018708D01*
X024976Y018705D01*
X025237Y018813D02*
X025213Y018896D01*
X025212Y018922D01*
X025216Y018925D01*
X025227Y018920D01*
X025265Y018915D01*
X025282Y018920D01*
X025293Y018930D01*
X025301Y018943D01*
X025308Y018970D01*
X025300Y019009D01*
X025287Y019038D01*
X025274Y019066D01*
X025310Y019043D01*
X025335Y019019D01*
X025353Y018991D01*
X025380Y018920D01*
X025385Y018908D01*
X025394Y018877D01*
X025402Y018849D01*
X025419Y018770D01*
X025423Y018734D01*
X025421Y018707D01*
X025411Y018686D01*
X025398Y018676D01*
X025374Y018668D01*
X025345Y018676D01*
X025277Y018744D01*
X025237Y018813D01*
X025252Y018937D02*
X025235Y018941D01*
X025235Y018941D01*
X025223Y018945D01*
X025209Y018954D01*
X025199Y018963D01*
X025201Y018984D01*
X025206Y019015D01*
X025212Y019039D01*
X025217Y019059D01*
X025225Y019064D01*
X025237Y019061D01*
X025260Y019044D01*
X025272Y019028D01*
X025286Y019000D01*
X025289Y018969D01*
X025282Y018950D01*
X025271Y018941D01*
X025252Y018937D01*
X024876Y019036D02*
X024869Y019031D01*
X024857Y019029D01*
X024801Y019024D01*
X024751Y019028D01*
X024751Y019028D01*
X024743Y019041D01*
X024746Y019059D01*
X024285Y018756D02*
X024238Y018791D01*
X024169Y018868D01*
X024145Y018901D01*
X024115Y018951D01*
X024078Y019052D01*
X024076Y019060D01*
X024070Y019063D01*
X024018Y019095D01*
X023977Y019131D01*
X023934Y019182D01*
X023890Y019231D01*
X023887Y019224D01*
X023894Y019211D01*
X023920Y019155D01*
X023933Y019122D01*
X023948Y019090D01*
X023983Y019015D01*
X024030Y018911D01*
X024047Y018875D01*
X024072Y018810D01*
X024070Y018785D01*
X024051Y018774D01*
X024037Y018782D01*
X024023Y018798D01*
X024017Y018803D01*
X024006Y018801D01*
X023990Y018814D01*
X023977Y018829D01*
X023969Y018850D01*
X023959Y018876D01*
X023950Y018890D01*
X023909Y018945D01*
X023892Y018969D01*
X023805Y019063D01*
X023728Y019124D01*
X023657Y019156D01*
X023588Y019172D01*
X023532Y019164D01*
X023516Y019155D01*
X023506Y019138D01*
X023490Y019071D01*
X023513Y018964D01*
X023542Y018887D01*
X023576Y018823D01*
X023596Y018792D01*
X023622Y018753D01*
X023638Y018730D01*
X023773Y018573D01*
X023892Y018445D01*
X023954Y018359D01*
X023967Y018332D01*
X023970Y018302D01*
X023967Y018279D01*
X023971Y018262D02*
X023971Y018262D01*
X023956Y018251D01*
X023971Y018262D02*
X023993Y018284D01*
X023998Y018305D01*
X023981Y018363D01*
X023960Y018399D01*
X023930Y018446D01*
X023870Y018536D01*
X023838Y018586D01*
X023768Y018700D01*
X023745Y018736D01*
X023727Y018764D01*
X023721Y018777D01*
X023727Y018780D01*
X023741Y018772D01*
X023833Y018729D01*
X023865Y018722D01*
X023894Y018722D01*
X023919Y018729D01*
X023939Y018743D01*
X023961Y018771D01*
X023975Y018789D01*
X024006Y018755D01*
X024019Y018739D01*
X024038Y018718D01*
X024085Y018683D01*
X024124Y018673D01*
X024154Y018676D01*
X024178Y018694D01*
X024188Y018705D01*
X024190Y018725D01*
X024189Y018755D01*
X024178Y018796D01*
X024172Y018820D01*
X024180Y018817D01*
X024267Y018746D01*
X023993Y018526D02*
X023983Y018529D01*
X023949Y018524D01*
X023914Y018514D01*
X023907Y018505D01*
X023913Y018500D01*
X023957Y018505D01*
X023957Y018505D01*
X023993Y018518D01*
X023993Y018526D01*
X023847Y018392D02*
X023832Y018369D01*
X023831Y018337D01*
X023841Y018307D01*
X023864Y018282D01*
X023858Y018232D02*
X023870Y018221D01*
X023891Y018206D01*
X023733Y018011D02*
X023817Y017932D01*
X023894Y017821D01*
X023909Y017781D01*
X023915Y017741D01*
X023906Y017711D01*
X023889Y017692D01*
X023870Y017680D01*
X023856Y017677D01*
X023837Y017680D01*
X023837Y017680D01*
X023800Y017693D01*
X023763Y017712D01*
X023680Y017777D01*
X023630Y017831D01*
X023603Y017870D01*
X023636Y017881D01*
X023678Y017895D01*
X023715Y017919D01*
X023730Y017940D01*
X023736Y017965D01*
X023730Y017987D01*
X023713Y018012D01*
X023704Y018029D01*
X023733Y018011D01*
X023701Y018002D02*
X023716Y017979D01*
X023718Y017958D01*
X023702Y017934D01*
X023672Y017918D01*
X023613Y017910D01*
X023591Y017915D01*
X023572Y017921D01*
X023565Y017936D01*
X023557Y017951D01*
X023562Y017970D01*
X023574Y018003D01*
X023591Y018026D01*
X023612Y018035D01*
X023641Y018034D01*
X023675Y018024D01*
X023701Y018002D01*
X023409Y017946D02*
X023411Y017892D01*
X023409Y017837D01*
X023401Y017806D01*
X023389Y017772D01*
X023350Y017695D01*
X023341Y017680D01*
X023327Y017681D01*
X023284Y017688D01*
X023226Y017697D01*
X023134Y017701D01*
X023079Y017702D01*
X023071Y017696D01*
X023064Y017682D01*
X023073Y017673D01*
X023092Y017671D01*
X023116Y017678D01*
X023130Y017685D01*
X023195Y017682D01*
X023262Y017677D01*
X023307Y017668D01*
X023317Y017664D01*
X023319Y017655D01*
X023316Y017642D01*
X023293Y017621D01*
X023266Y017599D01*
X023246Y017583D01*
X023167Y017531D01*
X023157Y017525D01*
X023093Y017491D01*
X023074Y017483D01*
X023053Y017483D01*
X023053Y017483D01*
X023018Y017528D01*
X023000Y017559D01*
X022990Y017577D01*
X022970Y017610D01*
X022952Y017643D01*
X022944Y017660D01*
X022917Y017749D01*
X022911Y017812D01*
X022910Y017845D01*
X022926Y017871D01*
X022955Y017912D01*
X022989Y017945D01*
X023069Y017987D01*
X023139Y018000D01*
X023201Y017999D01*
X023268Y017987D01*
X023349Y017970D01*
X023392Y017959D01*
X023403Y017955D01*
X023409Y017946D01*
X023349Y017651D02*
X023372Y017645D01*
X023411Y017623D01*
X023493Y017556D01*
X023519Y017518D01*
X023534Y017480D01*
X023540Y017462D01*
X023556Y017390D01*
X023550Y017349D01*
X023535Y017309D01*
X023508Y017279D01*
X023480Y017263D01*
X023459Y017257D01*
X023441Y017254D01*
X023393Y017253D01*
X023339Y017259D01*
X023288Y017276D01*
X023249Y017299D01*
X023222Y017318D01*
X023173Y017356D01*
X023110Y017416D01*
X023083Y017447D01*
X023086Y017453D01*
X023096Y017460D01*
X023134Y017479D01*
X023175Y017503D01*
X023253Y017556D01*
X023333Y017634D01*
X023349Y017651D01*
X023207Y018228D02*
X023173Y018219D01*
X023134Y018210D01*
X023035Y018186D01*
X022953Y018176D01*
X022911Y018172D01*
X022803Y018173D01*
X022803Y018173D01*
X022722Y018186D01*
X022662Y018203D01*
X022650Y018207D01*
X022546Y018241D01*
X022524Y018252D01*
X022445Y018307D01*
X022388Y018360D01*
X022360Y018419D01*
X022360Y018460D01*
X022370Y018493D01*
X022386Y018512D01*
X022403Y018525D01*
X022436Y018544D01*
X022493Y018563D01*
X022533Y018573D01*
X022601Y018573D01*
X022697Y018569D01*
X022789Y018550D01*
X022932Y018506D01*
X023037Y018454D01*
X023090Y018420D01*
X023174Y018350D01*
X023234Y018290D01*
X023267Y018253D01*
X023259Y018245D01*
X023236Y018237D01*
X023207Y018228D01*
X023190Y018676D02*
X023208Y018680D01*
X023238Y018696D01*
X023251Y018725D01*
X023256Y018732D01*
X023272Y018728D01*
X023374Y018700D01*
X023408Y018696D01*
X023441Y018701D01*
X023469Y018714D01*
X023492Y018735D01*
X023503Y018752D01*
X023506Y018778D01*
X023506Y018802D01*
X023493Y018843D01*
X023464Y018913D01*
X023439Y018962D01*
X023403Y019025D01*
X023378Y019071D01*
X023367Y019092D01*
X023352Y019138D01*
X023355Y019150D01*
X023367Y019155D01*
X023382Y019150D01*
X023399Y019131D01*
X023419Y019110D01*
X023431Y019099D01*
X023438Y019092D01*
X023426Y019130D01*
X023404Y019164D01*
X023374Y019187D01*
X023332Y019197D01*
X023306Y019199D01*
X023292Y019190D01*
X023273Y019174D01*
X023263Y019156D01*
X023260Y019129D01*
X023268Y019092D01*
X023286Y019053D01*
X023295Y019037D01*
X023311Y019005D01*
X023393Y018835D01*
X023401Y018793D01*
X023398Y018762D01*
X023388Y018748D01*
X023372Y018743D01*
X023332Y018746D01*
X023281Y018758D01*
X023251Y018765D01*
X023233Y018794D01*
X023208Y018839D01*
X023190Y018869D01*
X023178Y018891D01*
X023141Y018959D01*
X023115Y019008D01*
X023102Y019033D01*
X023087Y019066D01*
X023078Y019093D01*
X023100Y019100D01*
X023108Y019103D01*
X023098Y019108D01*
X023084Y019114D01*
X023070Y019122D01*
X022993Y019156D01*
X022942Y019188D01*
X022922Y019203D01*
X022907Y019213D01*
X022893Y019218D01*
X022899Y019211D01*
X022927Y019169D01*
X022946Y019140D01*
X022977Y019091D01*
X023006Y019043D01*
X023052Y018956D01*
X023076Y018912D01*
X023086Y018892D01*
X023104Y018853D01*
X023128Y018794D01*
X023129Y018780D01*
X023124Y018771D01*
X023105Y018766D01*
X023081Y018775D01*
X023064Y018786D01*
X022965Y018885D01*
X022941Y018922D01*
X022922Y018950D01*
X022910Y018967D01*
X022844Y019034D01*
X022823Y019053D01*
X022757Y019106D01*
X022726Y019128D01*
X022688Y019148D01*
X022649Y019164D01*
X022619Y019173D01*
X022588Y019170D01*
X022564Y019155D01*
X022549Y019135D01*
X022544Y019104D01*
X022548Y019069D01*
X022570Y019022D01*
X022613Y018970D01*
X022659Y018927D01*
X022704Y018898D01*
X022799Y018858D01*
X022842Y018841D01*
X022850Y018824D01*
X022851Y018800D01*
X022842Y018774D01*
X022829Y018756D01*
X022807Y018747D01*
X022782Y018747D01*
X022749Y018763D01*
X022695Y018799D01*
X022677Y018817D01*
X022549Y018954D01*
X022495Y019015D01*
X022469Y019045D01*
X022420Y019094D01*
X022360Y019139D01*
X022237Y019199D01*
X022194Y019213D01*
X022098Y019230D01*
X021982Y019232D01*
X021852Y019232D01*
X021806Y019240D01*
X021770Y019255D01*
X021736Y019272D01*
X021705Y019289D01*
X021662Y019312D01*
X021662Y019301D01*
X021697Y019259D01*
X021766Y019196D01*
X021826Y019154D01*
X021876Y019126D01*
X021969Y019077D01*
X022028Y019041D01*
X022067Y019015D01*
X022102Y018991D01*
X022127Y018971D01*
X022156Y018945D01*
X022185Y018920D01*
X022234Y018878D01*
X022312Y018807D01*
X022318Y018798D01*
X022310Y018798D01*
X022271Y018818D01*
X022227Y018840D01*
X022197Y018853D01*
X022044Y018909D01*
X021989Y018924D01*
X021899Y018949D01*
X021843Y018957D01*
X021787Y018963D01*
X021677Y018960D01*
X021606Y018946D01*
X021548Y018920D01*
X021518Y018901D01*
X021491Y018879D01*
X021471Y018862D01*
X021445Y018832D01*
X021427Y018807D01*
X021412Y018784D01*
X021400Y018764D01*
X021369Y018690D01*
X021363Y018666D01*
X021363Y018622D01*
X021371Y018558D01*
X021391Y018511D01*
X021413Y018483D01*
X021435Y018461D01*
X021458Y018451D01*
X021522Y018438D01*
X021591Y018445D01*
X021591Y018445D01*
X021638Y018458D01*
X021656Y018471D01*
X021657Y018480D01*
X021639Y018519D01*
X021633Y018554D01*
X021637Y018592D01*
X021646Y018623D01*
X021669Y018668D01*
X021690Y018695D01*
X021720Y018722D01*
X021795Y018763D01*
X021907Y018789D01*
X022046Y018802D01*
X022113Y018797D01*
X022134Y018795D01*
X022155Y018792D01*
X022182Y018786D01*
X022254Y018766D01*
X022326Y018739D01*
X022368Y018721D01*
X022405Y018703D01*
X022439Y018687D01*
X022462Y018674D01*
X022474Y018668D01*
X022483Y018672D01*
X022472Y018691D01*
X022438Y018729D01*
X022319Y018839D01*
X022279Y018877D01*
X022239Y018912D01*
X022186Y018955D01*
X022100Y019021D01*
X022035Y019068D01*
X021983Y019106D01*
X021991Y019110D01*
X022013Y019107D01*
X022063Y019097D01*
X022130Y019091D01*
X022215Y019085D01*
X022282Y019074D01*
X022347Y019050D01*
X022380Y019030D01*
X022405Y019012D01*
X022449Y018978D01*
X022468Y018965D01*
X022593Y018862D01*
X022621Y018837D01*
X022649Y018814D01*
X022712Y018764D01*
X022765Y018735D01*
X022824Y018712D01*
X022881Y018702D01*
X022932Y018712D01*
X022964Y018734D01*
X022981Y018756D01*
X022989Y018783D01*
X022994Y018803D01*
X023054Y018750D01*
X023114Y018701D01*
X023168Y018679D01*
X023190Y018676D01*
X022835Y018881D02*
X022829Y018873D01*
X022805Y018879D01*
X022805Y018879D01*
X022745Y018914D01*
X022697Y018968D01*
X022682Y018992D01*
X022666Y019024D01*
X022647Y019065D01*
X022647Y019102D01*
X022653Y019116D01*
X022663Y019122D01*
X022683Y019120D01*
X022709Y019105D01*
X022748Y019067D01*
X022796Y018978D01*
X022835Y018881D01*
X022739Y019549D02*
X022627Y019553D01*
X022581Y019560D01*
X022552Y019566D01*
X022454Y019595D01*
X022416Y019610D01*
X022347Y019648D01*
X022331Y019659D01*
X022313Y019675D01*
X022286Y019708D01*
X022272Y019738D01*
X022281Y019742D01*
X022296Y019738D01*
X022308Y019734D01*
X022338Y019725D01*
X022392Y019707D01*
X022475Y019676D01*
X022555Y019649D01*
X022563Y019646D01*
X022614Y019631D01*
X022671Y019614D01*
X022709Y019605D01*
X022758Y019594D01*
X022785Y019589D01*
X022817Y019584D01*
X022854Y019577D01*
X022869Y019573D01*
X022866Y019568D01*
X022774Y019554D01*
X022739Y019549D01*
X023552Y019128D02*
X023571Y019143D01*
X023606Y019144D01*
X023650Y019134D01*
X023693Y019112D01*
X023727Y019078D01*
X023761Y019033D01*
X023802Y018962D01*
X023807Y018952D01*
X023815Y018937D01*
X023825Y018916D01*
X023857Y018822D01*
X023858Y018797D01*
X023847Y018775D01*
X023829Y018764D01*
X023805Y018772D01*
X023719Y018818D01*
X023696Y018835D01*
X023672Y018856D01*
X023647Y018897D01*
X023566Y019064D01*
X023554Y019104D01*
X023552Y019128D01*
M02*
