%
M48
M72
T01C0.0320
T02C0.0394
T03C0.0400
T04C0.0590
T05C0.1260
%
T01
X23500Y9000
X24500Y9000
X24500Y11000
X23500Y11000
X23500Y13000
X24500Y13000
X24000Y15000
X24000Y16000
X26000Y16000
X26000Y15000
X28000Y15000
X28000Y16000
X31500Y17500
X31500Y18500
X33000Y18500
X33000Y17500
X34500Y17500
X34500Y18500
X36000Y19000
X37000Y19000
X37000Y17000
X36000Y17000
X35500Y15000
X36500Y15000
X36500Y13500
X36500Y12500
X36500Y11000
X35500Y11000
X34500Y12500
X34500Y13500
X33000Y13500
X33000Y12500
X33000Y11000
X33000Y10000
X33000Y8000
X32000Y8000
X32000Y5000
X33000Y5000
X34000Y2500
X34000Y1500
X35500Y1500
X36500Y1500
X36500Y3000
X35500Y3000
X35500Y4500
X36500Y4500
X37500Y4500
X37500Y3500
X38500Y2500
X38500Y1500
X36500Y6500
X35500Y6500
X35500Y9000
X36500Y9000
X38500Y8500
X38500Y9500
X38500Y16500
X38500Y17500
X37000Y22500
X37000Y23500
X35500Y23500
X35500Y22500
X35500Y25500
X34500Y25500
X34500Y27000
X35500Y27000
X36500Y26000
X37500Y26000
X35500Y29000
X34500Y29000
X34500Y30500
X35500Y30500
X33000Y24500
X33000Y23500
X33000Y21000
X33000Y20000
X28000Y10500
X28000Y9500
X27500Y7500
X26500Y7500
X23000Y22500
X23000Y23500
X23000Y28500
X23000Y29500
T02
X19000Y20000
X19000Y17500
T03
X19000Y4000
X19000Y5000
X19000Y6000
X19000Y8500
X19000Y9500
X19000Y10500
X19000Y13000
X19000Y14000
X19000Y15000
X19000Y22500
X19000Y23500
X19000Y24500
X19000Y25500
X19000Y27500
X19000Y28500
X19000Y29500
X39000Y28500
X39000Y27500
X39000Y26500
X39000Y21500
X39000Y20500
X39000Y19500
X39000Y13500
X39000Y12500
X39000Y11500
X39000Y6000
X39000Y5000
X39000Y4000
T04
X30430Y2310
X28580Y1030
X27560Y3570
X26570Y4120
X30220Y5260
X26780Y26240
X26570Y29190
X28420Y30470
X29440Y27930
X30430Y27380
T05
X26500Y21000
X26000Y10000
M30
