G75*
%MOIN*%
%OFA0B0*%
%FSLAX24Y24*%
%IPPOS*%
%LPD*%
%AMOC8*
5,1,8,0,0,1.08239X$1,22.5*
%
%ADD10C,0.0000*%
D10*
X017500Y000000D02*
X017500Y031496D01*
X040600Y031496D01*
X040600Y000000D01*
X017500Y000000D01*
X025370Y010000D02*
X025372Y010050D01*
X025378Y010100D01*
X025388Y010149D01*
X025402Y010197D01*
X025419Y010244D01*
X025440Y010289D01*
X025465Y010333D01*
X025493Y010374D01*
X025525Y010413D01*
X025559Y010450D01*
X025596Y010484D01*
X025636Y010514D01*
X025678Y010541D01*
X025722Y010565D01*
X025768Y010586D01*
X025815Y010602D01*
X025863Y010615D01*
X025913Y010624D01*
X025962Y010629D01*
X026013Y010630D01*
X026063Y010627D01*
X026112Y010620D01*
X026161Y010609D01*
X026209Y010594D01*
X026255Y010576D01*
X026300Y010554D01*
X026343Y010528D01*
X026384Y010499D01*
X026423Y010467D01*
X026459Y010432D01*
X026491Y010394D01*
X026521Y010354D01*
X026548Y010311D01*
X026571Y010267D01*
X026590Y010221D01*
X026606Y010173D01*
X026618Y010124D01*
X026626Y010075D01*
X026630Y010025D01*
X026630Y009975D01*
X026626Y009925D01*
X026618Y009876D01*
X026606Y009827D01*
X026590Y009779D01*
X026571Y009733D01*
X026548Y009689D01*
X026521Y009646D01*
X026491Y009606D01*
X026459Y009568D01*
X026423Y009533D01*
X026384Y009501D01*
X026343Y009472D01*
X026300Y009446D01*
X026255Y009424D01*
X026209Y009406D01*
X026161Y009391D01*
X026112Y009380D01*
X026063Y009373D01*
X026013Y009370D01*
X025962Y009371D01*
X025913Y009376D01*
X025863Y009385D01*
X025815Y009398D01*
X025768Y009414D01*
X025722Y009435D01*
X025678Y009459D01*
X025636Y009486D01*
X025596Y009516D01*
X025559Y009550D01*
X025525Y009587D01*
X025493Y009626D01*
X025465Y009667D01*
X025440Y009711D01*
X025419Y009756D01*
X025402Y009803D01*
X025388Y009851D01*
X025378Y009900D01*
X025372Y009950D01*
X025370Y010000D01*
X025870Y021000D02*
X025872Y021050D01*
X025878Y021100D01*
X025888Y021149D01*
X025902Y021197D01*
X025919Y021244D01*
X025940Y021289D01*
X025965Y021333D01*
X025993Y021374D01*
X026025Y021413D01*
X026059Y021450D01*
X026096Y021484D01*
X026136Y021514D01*
X026178Y021541D01*
X026222Y021565D01*
X026268Y021586D01*
X026315Y021602D01*
X026363Y021615D01*
X026413Y021624D01*
X026462Y021629D01*
X026513Y021630D01*
X026563Y021627D01*
X026612Y021620D01*
X026661Y021609D01*
X026709Y021594D01*
X026755Y021576D01*
X026800Y021554D01*
X026843Y021528D01*
X026884Y021499D01*
X026923Y021467D01*
X026959Y021432D01*
X026991Y021394D01*
X027021Y021354D01*
X027048Y021311D01*
X027071Y021267D01*
X027090Y021221D01*
X027106Y021173D01*
X027118Y021124D01*
X027126Y021075D01*
X027130Y021025D01*
X027130Y020975D01*
X027126Y020925D01*
X027118Y020876D01*
X027106Y020827D01*
X027090Y020779D01*
X027071Y020733D01*
X027048Y020689D01*
X027021Y020646D01*
X026991Y020606D01*
X026959Y020568D01*
X026923Y020533D01*
X026884Y020501D01*
X026843Y020472D01*
X026800Y020446D01*
X026755Y020424D01*
X026709Y020406D01*
X026661Y020391D01*
X026612Y020380D01*
X026563Y020373D01*
X026513Y020370D01*
X026462Y020371D01*
X026413Y020376D01*
X026363Y020385D01*
X026315Y020398D01*
X026268Y020414D01*
X026222Y020435D01*
X026178Y020459D01*
X026136Y020486D01*
X026096Y020516D01*
X026059Y020550D01*
X026025Y020587D01*
X025993Y020626D01*
X025965Y020667D01*
X025940Y020711D01*
X025919Y020756D01*
X025902Y020803D01*
X025888Y020851D01*
X025878Y020900D01*
X025872Y020950D01*
X025870Y021000D01*
M02*
