%
M48
M72
T01C0.0276
T02C0.0400
%
T01
X3379Y674
X4379Y1434
X3379Y2194
X4379Y2954
X3379Y3714
X3379Y4473
X3379Y5233
X3379Y5993
X3379Y6753
X3379Y7513
X4379Y7133
X4379Y6373
X4379Y5613
X4379Y4853
X4379Y4094
T02
X629Y513
X629Y1513
X629Y2513
X629Y3513
X629Y4513
X629Y5513
X629Y6513
X629Y7513
X7629Y6513
X7629Y5513
X7629Y4513
X7629Y3513
X7629Y2513
X7629Y1513
X7629Y513
M30
