G75*
%MOIN*%
%OFA0B0*%
%FSLAX24Y24*%
%IPPOS*%
%LPD*%
%AMOC8*
5,1,8,0,0,1.08239X$1,22.5*
%
%ADD10C,0.1060*%
%ADD11R,0.0572X0.0651*%
%ADD12R,0.0651X0.0572*%
%ADD13OC8,0.0456*%
%ADD14C,0.0456*%
%ADD15R,0.0611X0.0454*%
%ADD16R,0.0370X0.0410*%
%ADD17R,0.0660X0.0660*%
%ADD18C,0.0660*%
%ADD19R,0.0178X0.0336*%
%ADD20R,0.0257X0.0454*%
%ADD21R,0.0769X0.1320*%
%ADD22C,0.0651*%
%ADD23C,0.0645*%
%ADD24R,0.0320X0.0860*%
%ADD25R,0.0296X0.0532*%
%ADD26C,0.0808*%
%ADD27R,0.0280X0.0560*%
%ADD28R,0.0560X0.0280*%
%ADD29C,0.0532*%
%ADD30R,0.2560X0.2560*%
%ADD31C,0.0436*%
%ADD32C,0.0397*%
D10*
X002230Y010805D03*
X016230Y029805D03*
X030230Y010805D03*
D11*
X022628Y019175D03*
X021880Y019175D03*
X021880Y020318D03*
X022628Y020318D03*
X020714Y020318D03*
X020045Y020318D03*
X019972Y019155D03*
X020720Y019155D03*
X023997Y023029D03*
X024745Y023029D03*
X017104Y010805D03*
X016356Y010805D03*
X016356Y006305D03*
X017104Y006305D03*
X009639Y011660D03*
X008891Y011660D03*
X008891Y012798D03*
X009639Y012798D03*
X009104Y020805D03*
X008356Y020805D03*
X006104Y020805D03*
X005356Y020805D03*
X005365Y022427D03*
X006113Y022427D03*
D12*
X007149Y023083D03*
X007149Y023831D03*
X005386Y023834D03*
X005386Y024582D03*
X009102Y022514D03*
X009102Y021766D03*
X010530Y015269D03*
X010530Y014521D03*
X012923Y014632D03*
X012923Y015380D03*
X014725Y010569D03*
X014725Y009821D03*
X014730Y007679D03*
X014730Y006931D03*
X018730Y006931D03*
X018730Y007679D03*
X018730Y009431D03*
X018730Y010179D03*
X020408Y012682D03*
X020408Y013430D03*
X021422Y013434D03*
X021422Y012686D03*
X023727Y012925D03*
X023727Y013673D03*
X023729Y011696D03*
X023729Y010948D03*
D13*
X026740Y014250D03*
D14*
X028118Y014250D03*
D15*
X023880Y023882D03*
X023880Y024630D03*
X024746Y024256D03*
D16*
X009015Y009705D03*
X008255Y009705D03*
X008635Y008905D03*
D17*
X028730Y022805D03*
D18*
X028730Y021805D03*
X028730Y020805D03*
X029730Y020805D03*
X029730Y021805D03*
X029730Y022805D03*
D19*
X016986Y009120D03*
X016730Y009120D03*
X016474Y009120D03*
X016474Y008490D03*
X016730Y008490D03*
X016986Y008490D03*
D20*
X024840Y012921D03*
X025352Y012921D03*
X025096Y013630D03*
D21*
X026328Y011233D03*
X028533Y011233D03*
D22*
X015116Y024085D03*
X003344Y015525D03*
D23*
X005116Y015525D03*
X005116Y018085D03*
X003344Y018085D03*
X013344Y021525D03*
X015116Y021525D03*
X013344Y024085D03*
D24*
X013430Y019465D03*
X012930Y019465D03*
X012430Y019465D03*
X011930Y019465D03*
X011430Y019465D03*
X010930Y019465D03*
X010430Y019465D03*
X010430Y017045D03*
X010930Y017045D03*
X011430Y017045D03*
X011930Y017045D03*
X012430Y017045D03*
X012930Y017045D03*
X013430Y017045D03*
D25*
X011354Y013319D03*
X010606Y013319D03*
X010606Y012291D03*
X010980Y012291D03*
X011354Y012291D03*
D26*
X010242Y008620D03*
X013230Y005305D03*
X024125Y009430D03*
X018923Y022714D03*
D27*
X020102Y017998D03*
X020417Y017998D03*
X020732Y017998D03*
X021047Y017998D03*
X021362Y017998D03*
X021677Y017998D03*
X021992Y017998D03*
X022307Y017998D03*
X022307Y014618D03*
X021992Y014618D03*
X021677Y014618D03*
X021362Y014618D03*
X021047Y014618D03*
X020732Y014618D03*
X020417Y014618D03*
X020102Y014618D03*
D28*
X019514Y015206D03*
X019514Y015521D03*
X019514Y015836D03*
X019514Y016151D03*
X019514Y016466D03*
X019514Y016781D03*
X019514Y017096D03*
X019514Y017410D03*
X022894Y017410D03*
X022894Y017096D03*
X022894Y016781D03*
X022894Y016466D03*
X022894Y016151D03*
X022894Y015836D03*
X022894Y015521D03*
X022894Y015206D03*
D29*
X026079Y008654D03*
X025371Y007946D03*
X017725Y003810D03*
X016725Y003810D03*
X015725Y003810D03*
X009334Y005461D03*
X008626Y006169D03*
X005834Y008941D03*
X005126Y009649D03*
X007136Y025951D03*
X007844Y026659D03*
X025391Y026164D03*
X026099Y025456D03*
D30*
X030700Y017095D03*
X020855Y002300D03*
X001760Y021940D03*
D31*
X005708Y005798D03*
X004002Y007661D03*
X007662Y003794D03*
X009834Y001825D03*
X012812Y001545D03*
X016286Y001452D03*
X019202Y001483D03*
X020230Y004805D03*
X017915Y005676D03*
X017100Y007441D03*
X018480Y008805D03*
X020336Y009526D03*
X018730Y011305D03*
X019474Y013432D03*
X019680Y014755D03*
X021230Y015155D03*
X021772Y015379D03*
X022318Y015409D03*
X021930Y016205D03*
X020810Y016960D03*
X017730Y017805D03*
X017163Y017073D03*
X017730Y015955D03*
X017730Y015305D03*
X016587Y014827D03*
X015711Y015668D03*
X014230Y016102D03*
X012048Y015124D03*
X011436Y015122D03*
X011430Y016055D03*
X010429Y018272D03*
X009172Y019466D03*
X008230Y017555D03*
X007730Y015305D03*
X010610Y011660D03*
X012249Y012276D03*
X014230Y013305D03*
X014731Y011444D03*
X016355Y009820D03*
X012230Y009305D03*
X010230Y009705D03*
X000931Y013063D03*
X000962Y016385D03*
X001086Y020266D03*
X001773Y023966D03*
X003153Y025452D03*
X007992Y030140D03*
X010194Y031879D03*
X013855Y031941D03*
X018136Y029602D03*
X018818Y031754D03*
X022478Y031692D03*
X022291Y028774D03*
X025549Y028898D03*
X027930Y026598D03*
X029599Y024929D03*
X031126Y023089D03*
X031219Y019923D03*
X028180Y017055D03*
X027230Y018305D03*
X026730Y018805D03*
X027709Y019683D03*
X026230Y021805D03*
X026230Y022805D03*
X021880Y021805D03*
X018744Y019797D03*
X017481Y020857D03*
X015586Y019984D03*
X015681Y018727D03*
X010990Y020640D03*
X010475Y022515D03*
X011919Y025478D03*
X017667Y023403D03*
X019654Y025327D03*
X023675Y018525D03*
X025260Y016885D03*
X023730Y016805D03*
X023725Y015410D03*
X025244Y011797D03*
X022756Y008035D03*
X026274Y005426D03*
X024072Y003439D03*
X022991Y002326D03*
X028477Y007506D03*
X029792Y009274D03*
X031219Y010547D03*
X031281Y013217D03*
X031250Y015514D03*
D32*
X010597Y013839D03*
M02*
