G75*
%MOIN*%
%OFA0B0*%
%FSLAX24Y24*%
%IPPOS*%
%LPD*%
%AMOC8*
5,1,8,0,0,1.08239X$1,22.5*
%
%ADD10C,0.0160*%
%ADD11C,0.0000*%
D10*
X009630Y000805D02*
X022930Y000805D01*
X032230Y010205D01*
X032230Y023505D01*
X022930Y032805D01*
X009630Y032805D01*
X000230Y023505D01*
X000230Y010205D01*
X009630Y000805D01*
D11*
X001730Y010805D02*
X001732Y010849D01*
X001738Y010893D01*
X001748Y010936D01*
X001761Y010978D01*
X001778Y011019D01*
X001799Y011058D01*
X001823Y011095D01*
X001850Y011130D01*
X001880Y011162D01*
X001913Y011192D01*
X001949Y011218D01*
X001986Y011242D01*
X002026Y011261D01*
X002067Y011278D01*
X002110Y011290D01*
X002153Y011299D01*
X002197Y011304D01*
X002241Y011305D01*
X002285Y011302D01*
X002329Y011295D01*
X002372Y011284D01*
X002414Y011270D01*
X002454Y011252D01*
X002493Y011230D01*
X002529Y011206D01*
X002563Y011178D01*
X002595Y011147D01*
X002624Y011113D01*
X002650Y011077D01*
X002672Y011039D01*
X002691Y010999D01*
X002706Y010957D01*
X002718Y010915D01*
X002726Y010871D01*
X002730Y010827D01*
X002730Y010783D01*
X002726Y010739D01*
X002718Y010695D01*
X002706Y010653D01*
X002691Y010611D01*
X002672Y010571D01*
X002650Y010533D01*
X002624Y010497D01*
X002595Y010463D01*
X002563Y010432D01*
X002529Y010404D01*
X002493Y010380D01*
X002454Y010358D01*
X002414Y010340D01*
X002372Y010326D01*
X002329Y010315D01*
X002285Y010308D01*
X002241Y010305D01*
X002197Y010306D01*
X002153Y010311D01*
X002110Y010320D01*
X002067Y010332D01*
X002026Y010349D01*
X001986Y010368D01*
X001949Y010392D01*
X001913Y010418D01*
X001880Y010448D01*
X001850Y010480D01*
X001823Y010515D01*
X001799Y010552D01*
X001778Y010591D01*
X001761Y010632D01*
X001748Y010674D01*
X001738Y010717D01*
X001732Y010761D01*
X001730Y010805D01*
X015730Y029805D02*
X015732Y029849D01*
X015738Y029893D01*
X015748Y029936D01*
X015761Y029978D01*
X015778Y030019D01*
X015799Y030058D01*
X015823Y030095D01*
X015850Y030130D01*
X015880Y030162D01*
X015913Y030192D01*
X015949Y030218D01*
X015986Y030242D01*
X016026Y030261D01*
X016067Y030278D01*
X016110Y030290D01*
X016153Y030299D01*
X016197Y030304D01*
X016241Y030305D01*
X016285Y030302D01*
X016329Y030295D01*
X016372Y030284D01*
X016414Y030270D01*
X016454Y030252D01*
X016493Y030230D01*
X016529Y030206D01*
X016563Y030178D01*
X016595Y030147D01*
X016624Y030113D01*
X016650Y030077D01*
X016672Y030039D01*
X016691Y029999D01*
X016706Y029957D01*
X016718Y029915D01*
X016726Y029871D01*
X016730Y029827D01*
X016730Y029783D01*
X016726Y029739D01*
X016718Y029695D01*
X016706Y029653D01*
X016691Y029611D01*
X016672Y029571D01*
X016650Y029533D01*
X016624Y029497D01*
X016595Y029463D01*
X016563Y029432D01*
X016529Y029404D01*
X016493Y029380D01*
X016454Y029358D01*
X016414Y029340D01*
X016372Y029326D01*
X016329Y029315D01*
X016285Y029308D01*
X016241Y029305D01*
X016197Y029306D01*
X016153Y029311D01*
X016110Y029320D01*
X016067Y029332D01*
X016026Y029349D01*
X015986Y029368D01*
X015949Y029392D01*
X015913Y029418D01*
X015880Y029448D01*
X015850Y029480D01*
X015823Y029515D01*
X015799Y029552D01*
X015778Y029591D01*
X015761Y029632D01*
X015748Y029674D01*
X015738Y029717D01*
X015732Y029761D01*
X015730Y029805D01*
X029730Y010805D02*
X029732Y010849D01*
X029738Y010893D01*
X029748Y010936D01*
X029761Y010978D01*
X029778Y011019D01*
X029799Y011058D01*
X029823Y011095D01*
X029850Y011130D01*
X029880Y011162D01*
X029913Y011192D01*
X029949Y011218D01*
X029986Y011242D01*
X030026Y011261D01*
X030067Y011278D01*
X030110Y011290D01*
X030153Y011299D01*
X030197Y011304D01*
X030241Y011305D01*
X030285Y011302D01*
X030329Y011295D01*
X030372Y011284D01*
X030414Y011270D01*
X030454Y011252D01*
X030493Y011230D01*
X030529Y011206D01*
X030563Y011178D01*
X030595Y011147D01*
X030624Y011113D01*
X030650Y011077D01*
X030672Y011039D01*
X030691Y010999D01*
X030706Y010957D01*
X030718Y010915D01*
X030726Y010871D01*
X030730Y010827D01*
X030730Y010783D01*
X030726Y010739D01*
X030718Y010695D01*
X030706Y010653D01*
X030691Y010611D01*
X030672Y010571D01*
X030650Y010533D01*
X030624Y010497D01*
X030595Y010463D01*
X030563Y010432D01*
X030529Y010404D01*
X030493Y010380D01*
X030454Y010358D01*
X030414Y010340D01*
X030372Y010326D01*
X030329Y010315D01*
X030285Y010308D01*
X030241Y010305D01*
X030197Y010306D01*
X030153Y010311D01*
X030110Y010320D01*
X030067Y010332D01*
X030026Y010349D01*
X029986Y010368D01*
X029949Y010392D01*
X029913Y010418D01*
X029880Y010448D01*
X029850Y010480D01*
X029823Y010515D01*
X029799Y010552D01*
X029778Y010591D01*
X029761Y010632D01*
X029748Y010674D01*
X029738Y010717D01*
X029732Y010761D01*
X029730Y010805D01*
M02*
