%
M48
M72
T01C0.0197
T02C0.0236
T03C0.0256
T04C0.0315
T05C0.0390
T06C0.0394
T07C0.0400
T08C0.1000
%
T01
X10597Y13839
T02
X5708Y5798
X4002Y7661
X7662Y3794
X9834Y1825
X12812Y1545
X16286Y1452
X19202Y1483
X20230Y4805
X17915Y5676
X17100Y7441
X18480Y8805
X20336Y9526
X18730Y11305
X19474Y13432
X19680Y14755
X21230Y15155
X21772Y15379
X22318Y15409
X21930Y16205
X20810Y16960
X17730Y17805
X17163Y17073
X17730Y15955
X17730Y15305
X16587Y14827
X15711Y15668
X14230Y16102
X12048Y15124
X11436Y15122
X11430Y16055
X10429Y18272
X9172Y19466
X8230Y17555
X7730Y15305
X10610Y11660
X12249Y12276
X14230Y13305
X14731Y11444
X16355Y9820
X12230Y9305
X10230Y9705
X931Y13063
X962Y16385
X1086Y20266
X1773Y23966
X3153Y25452
X7992Y30140
X10194Y31879
X13855Y31941
X18136Y29602
X18818Y31754
X22478Y31692
X22291Y28774
X25549Y28898
X27930Y26598
X29599Y24929
X31126Y23089
X31219Y19923
X28180Y17055
X27230Y18305
X26730Y18805
X27709Y19683
X26230Y21805
X26230Y22805
X21880Y21805
X18744Y19797
X17481Y20857
X15586Y19984
X15681Y18727
X10990Y20640
X10475Y22515
X11919Y25478
X17667Y23403
X19654Y25327
X23675Y18525
X25260Y16885
X23730Y16805
X23725Y15410
X25244Y11797
X22756Y8035
X26274Y5426
X24072Y3439
X22991Y2326
X28477Y7506
X29792Y9274
X31219Y10547
X31281Y13217
X31250Y15514
T03
X28118Y14250
X26740Y14250
T04
X26079Y8654
X25371Y7946
X17725Y3810
X16725Y3810
X15725Y3810
X9334Y5461
X8626Y6169
X5834Y8941
X5126Y9649
X7136Y25951
X7844Y26659
X25391Y26164
X26099Y25456
T05
X15116Y21525
X13344Y21525
X13344Y24085
X5116Y18085
X3344Y18085
X5116Y15525
T06
X3344Y15525
X15116Y24085
T07
X28730Y22805
X28730Y21805
X28730Y20805
X29730Y20805
X29730Y21805
X29730Y22805
T08
X30230Y10805
X16230Y29805
X2230Y10805
M30
