G75*
%MOIN*%
%OFA0B0*%
%FSLAX24Y24*%
%IPPOS*%
%LPD*%
%AMOC8*
5,1,8,0,0,1.08239X$1,22.5*
%
%ADD10R,0.0512X0.0591*%
%ADD11OC8,0.0396*%
%ADD12C,0.0396*%
%ADD13R,0.0591X0.0512*%
%ADD14R,0.0709X0.0669*%
%ADD15R,0.0600X0.0600*%
%ADD16C,0.0600*%
%ADD17C,0.0591*%
%ADD18C,0.0585*%
%ADD19C,0.0472*%
%ADD20C,0.0376*%
%ADD21C,0.0240*%
%ADD22C,0.0160*%
%ADD23C,0.0337*%
%ADD24C,0.0500*%
D10*
X010403Y019452D03*
X011151Y019452D03*
D11*
X026740Y014250D03*
D12*
X028118Y014250D03*
D13*
X014513Y017059D03*
X014513Y017807D03*
X014512Y018852D03*
X014512Y019600D03*
D14*
G36*
X024481Y010243D02*
X024981Y010743D01*
X025453Y010271D01*
X024953Y009771D01*
X024481Y010243D01*
G37*
G36*
X023340Y009101D02*
X023840Y009601D01*
X024312Y009129D01*
X023812Y008629D01*
X023340Y009101D01*
G37*
D15*
X028730Y022805D03*
D16*
X028730Y021805D03*
X028730Y020805D03*
X029730Y020805D03*
X029730Y021805D03*
X029730Y022805D03*
D17*
X015116Y024085D03*
X003344Y015525D03*
D18*
X005116Y015525D03*
X005116Y018085D03*
X003344Y018085D03*
X013344Y021525D03*
X015116Y021525D03*
X013344Y024085D03*
D19*
X007844Y026659D03*
X007136Y025951D03*
X005126Y009649D03*
X005834Y008941D03*
X008626Y006169D03*
X009334Y005461D03*
X015725Y003810D03*
X016725Y003810D03*
X017725Y003810D03*
X025371Y007946D03*
X026079Y008654D03*
X026099Y025456D03*
X025391Y026164D03*
D20*
X027930Y026598D03*
X029599Y024929D03*
X031126Y023089D03*
X031219Y019923D03*
X028180Y017055D03*
X027230Y018305D03*
X026730Y018805D03*
X027709Y019683D03*
X026230Y021805D03*
X026230Y022805D03*
X021880Y021805D03*
X018744Y019797D03*
X017481Y020857D03*
X015586Y019984D03*
X015681Y018727D03*
X017163Y017073D03*
X017730Y017805D03*
X017730Y015955D03*
X017730Y015305D03*
X016587Y014827D03*
X015711Y015668D03*
X014230Y016102D03*
X012048Y015124D03*
X011436Y015122D03*
X011430Y016055D03*
X010429Y018272D03*
X009172Y019466D03*
X008230Y017555D03*
X007730Y015305D03*
X010610Y011660D03*
X012249Y012276D03*
X014230Y013305D03*
X014731Y011444D03*
X016355Y009820D03*
X018480Y008805D03*
X017100Y007441D03*
X017915Y005676D03*
X020230Y004805D03*
X022991Y002326D03*
X024072Y003439D03*
X026274Y005426D03*
X028477Y007506D03*
X029792Y009274D03*
X031219Y010547D03*
X031281Y013217D03*
X031250Y015514D03*
X025260Y016885D03*
X023730Y016805D03*
X023725Y015410D03*
X022318Y015409D03*
X021772Y015379D03*
X021230Y015155D03*
X021930Y016205D03*
X020810Y016960D03*
X019680Y014755D03*
X019474Y013432D03*
X018730Y011305D03*
X020336Y009526D03*
X022756Y008035D03*
X025244Y011797D03*
X023675Y018525D03*
X017667Y023403D03*
X019654Y025327D03*
X022291Y028774D03*
X022478Y031692D03*
X025549Y028898D03*
X018818Y031754D03*
X018136Y029602D03*
X013855Y031941D03*
X010194Y031879D03*
X007992Y030140D03*
X011919Y025478D03*
X010475Y022515D03*
X010990Y020640D03*
X003153Y025452D03*
X001773Y023966D03*
X001086Y020266D03*
X000962Y016385D03*
X000931Y013063D03*
X004002Y007661D03*
X005708Y005798D03*
X007662Y003794D03*
X009834Y001825D03*
X012812Y001545D03*
X016286Y001452D03*
X019202Y001483D03*
X012230Y009305D03*
X010230Y009705D03*
D21*
X012230Y009305D02*
X014230Y010805D01*
X014230Y013305D01*
X018744Y014162D02*
X019474Y013432D01*
X018744Y014162D02*
X018744Y019797D01*
X021880Y021805D02*
X026230Y021805D01*
X026230Y021805D01*
X015116Y021525D02*
X014510Y021119D01*
X014510Y019602D01*
X010990Y020640D02*
X010475Y021155D01*
X010475Y022515D01*
X009172Y019466D02*
X009186Y019452D01*
X010403Y019452D01*
D22*
X008978Y005243D02*
X005645Y005243D01*
X005803Y005085D02*
X009157Y005085D01*
X009174Y005076D02*
X009236Y005055D01*
X009301Y005045D01*
X009366Y005045D01*
X009431Y005055D01*
X009493Y005076D01*
X009552Y005105D01*
X009605Y005144D01*
X009628Y005167D01*
X009651Y005190D01*
X009690Y005243D01*
X009719Y005302D01*
X009740Y005364D01*
X009750Y005429D01*
X009750Y005494D01*
X009740Y005559D01*
X009719Y005621D01*
X009690Y005680D01*
X009651Y005733D01*
X009628Y005756D01*
X009605Y005779D01*
X009552Y005817D01*
X009493Y005847D01*
X009431Y005867D01*
X009366Y005878D01*
X009301Y005878D01*
X009236Y005867D01*
X009174Y005847D01*
X009115Y005817D01*
X009062Y005779D01*
X009039Y005756D01*
X009334Y005461D01*
X009628Y005167D01*
X009334Y005461D01*
X009334Y005461D01*
X009334Y005461D01*
X009628Y005756D01*
X009334Y005461D01*
X009039Y005167D01*
X009334Y005461D01*
X009334Y005461D01*
X009039Y005756D01*
X009016Y005733D01*
X008978Y005680D01*
X008948Y005621D01*
X008928Y005559D01*
X008917Y005494D01*
X008917Y005429D01*
X008928Y005364D01*
X008948Y005302D01*
X008978Y005243D01*
X009016Y005190D01*
X009039Y005167D01*
X009062Y005144D01*
X009115Y005105D01*
X009174Y005076D01*
X009115Y005243D02*
X009115Y005243D01*
X009274Y005402D02*
X009274Y005402D01*
X009334Y005461D02*
X009334Y005461D01*
X009393Y005402D02*
X009393Y005402D01*
X009432Y005560D02*
X009432Y005560D01*
X009235Y005560D02*
X009235Y005560D01*
X009076Y005719D02*
X009076Y005719D01*
X009006Y005719D02*
X008784Y005719D01*
X008721Y005692D02*
X008896Y005765D01*
X009030Y005899D01*
X009103Y006074D01*
X009103Y006263D01*
X009030Y006438D01*
X008896Y006572D01*
X008721Y006645D01*
X008532Y006645D01*
X008357Y006572D01*
X008223Y006438D01*
X008150Y006263D01*
X008150Y006074D01*
X008223Y005899D01*
X008357Y005765D01*
X008532Y005692D01*
X008721Y005692D01*
X008928Y005560D02*
X005328Y005560D01*
X005486Y005402D02*
X008922Y005402D01*
X009008Y005877D02*
X009297Y005877D01*
X009370Y005877D02*
X027498Y005877D01*
X027655Y006036D02*
X009087Y006036D01*
X009103Y006194D02*
X027812Y006194D01*
X027968Y006353D02*
X024418Y006353D01*
X024508Y006390D02*
X025435Y007317D01*
X025498Y007468D01*
X025649Y007531D01*
X025787Y007669D01*
X025861Y007849D01*
X025861Y008044D01*
X025787Y008224D01*
X025644Y008367D01*
X025464Y008441D01*
X025219Y008441D01*
X024553Y009091D01*
X024553Y009177D01*
X024517Y009265D01*
X023976Y009806D01*
X023888Y009842D01*
X023792Y009842D01*
X023704Y009806D01*
X023135Y009237D01*
X023099Y009149D01*
X023099Y009054D01*
X023135Y008965D01*
X023676Y008425D01*
X023764Y008388D01*
X023860Y008388D01*
X023867Y008391D01*
X024503Y007771D01*
X024027Y007295D01*
X017503Y007295D01*
X017528Y007356D01*
X017528Y007414D01*
X018502Y008377D01*
X018565Y008377D01*
X018723Y008442D01*
X018843Y008562D01*
X018908Y008720D01*
X018908Y008890D01*
X018843Y009048D01*
X018723Y009168D01*
X018565Y009233D01*
X018395Y009233D01*
X018237Y009168D01*
X018117Y009048D01*
X018052Y008890D01*
X018052Y008832D01*
X017078Y007869D01*
X017015Y007869D01*
X016858Y007804D01*
X016737Y007683D01*
X016672Y007526D01*
X016672Y007356D01*
X016697Y007295D01*
X013333Y007295D01*
X010508Y010120D01*
X010327Y010195D01*
X010133Y010195D01*
X009952Y010120D01*
X009815Y009983D01*
X009740Y009802D01*
X009740Y009608D01*
X009815Y009427D01*
X012852Y006390D01*
X013033Y006315D01*
X024327Y006315D01*
X024508Y006390D01*
X024629Y006511D02*
X028125Y006511D01*
X028282Y006670D02*
X024787Y006670D01*
X024946Y006828D02*
X028439Y006828D01*
X028596Y006987D02*
X025104Y006987D01*
X025263Y007145D02*
X028752Y007145D01*
X028909Y007304D02*
X025421Y007304D01*
X025495Y007462D02*
X029066Y007462D01*
X029223Y007621D02*
X025738Y007621D01*
X025832Y007779D02*
X029380Y007779D01*
X029536Y007938D02*
X025861Y007938D01*
X025840Y008096D02*
X029693Y008096D01*
X029850Y008255D02*
X026372Y008255D01*
X026356Y008238D02*
X026499Y008381D01*
X026574Y008561D01*
X026574Y009077D01*
X026575Y009080D01*
X026574Y009174D01*
X026574Y009268D01*
X026572Y009271D01*
X026572Y009275D01*
X026535Y009361D01*
X026499Y009448D01*
X026497Y009451D01*
X026495Y009454D01*
X026428Y009519D01*
X026361Y009586D01*
X026358Y009587D01*
X025695Y010233D01*
X025695Y010318D01*
X025658Y010407D01*
X025117Y010947D01*
X025029Y010984D01*
X024934Y010984D01*
X024845Y010947D01*
X024277Y010379D01*
X024240Y010291D01*
X024240Y010195D01*
X024277Y010107D01*
X024818Y009566D01*
X024906Y009530D01*
X025001Y009530D01*
X025009Y009533D01*
X025594Y008964D01*
X025594Y008763D01*
X025589Y008751D01*
X025589Y008556D01*
X025663Y008376D01*
X025801Y008238D01*
X025981Y008164D01*
X026176Y008164D01*
X026356Y008238D01*
X026512Y008413D02*
X030007Y008413D01*
X030164Y008572D02*
X026574Y008572D01*
X026574Y008730D02*
X030321Y008730D01*
X030477Y008889D02*
X026574Y008889D01*
X026574Y009047D02*
X030634Y009047D01*
X030791Y009206D02*
X026574Y009206D01*
X026534Y009364D02*
X030948Y009364D01*
X031105Y009523D02*
X026425Y009523D01*
X026262Y009681D02*
X031261Y009681D01*
X031418Y009840D02*
X026099Y009840D01*
X025936Y009998D02*
X031575Y009998D01*
X031732Y010157D02*
X030598Y010157D01*
X030649Y010178D02*
X030857Y010386D01*
X030970Y010658D01*
X030970Y010952D01*
X030857Y011224D01*
X030649Y011432D01*
X030377Y011545D01*
X030083Y011545D01*
X029811Y011432D01*
X029603Y011224D01*
X029490Y010952D01*
X029490Y010658D01*
X029603Y010386D01*
X029811Y010178D01*
X030083Y010065D01*
X030377Y010065D01*
X030649Y010178D01*
X030787Y010315D02*
X031889Y010315D01*
X031910Y010337D02*
X022796Y001125D01*
X009763Y001125D01*
X000550Y010338D01*
X000550Y023371D01*
X009762Y032485D01*
X022797Y032485D01*
X031910Y023372D01*
X031910Y010337D01*
X031910Y010474D02*
X030894Y010474D01*
X030959Y010632D02*
X031910Y010632D01*
X031910Y010791D02*
X030970Y010791D01*
X030970Y010949D02*
X031910Y010949D01*
X031910Y011108D02*
X030906Y011108D01*
X030815Y011266D02*
X031910Y011266D01*
X031910Y011425D02*
X030657Y011425D01*
X029803Y011425D02*
X019144Y011425D01*
X019158Y011390D02*
X019093Y011548D01*
X018973Y011668D01*
X018815Y011733D01*
X018754Y011733D01*
X018050Y012438D01*
X018050Y015020D01*
X018093Y015062D01*
X018158Y015220D01*
X018158Y015390D01*
X018093Y015548D01*
X018010Y015630D01*
X018093Y015712D01*
X018158Y015870D01*
X018158Y016040D01*
X018093Y016198D01*
X018050Y016240D01*
X018050Y017520D01*
X018093Y017562D01*
X018158Y017720D01*
X018158Y017890D01*
X018093Y018048D01*
X017973Y018168D01*
X017815Y018233D01*
X017645Y018233D01*
X017487Y018168D01*
X017367Y018048D01*
X017302Y017890D01*
X017302Y017720D01*
X017367Y017562D01*
X017410Y017520D01*
X017410Y016240D01*
X017367Y016198D01*
X017302Y016040D01*
X017302Y015870D01*
X017367Y015712D01*
X017450Y015630D01*
X017367Y015548D01*
X017302Y015390D01*
X017302Y015220D01*
X017367Y015062D01*
X017410Y015020D01*
X017410Y012241D01*
X017459Y012124D01*
X018302Y011281D01*
X018302Y011220D01*
X018367Y011062D01*
X018487Y010942D01*
X018645Y010877D01*
X018815Y010877D01*
X018973Y010942D01*
X019093Y011062D01*
X019158Y011220D01*
X019158Y011390D01*
X019158Y011266D02*
X029644Y011266D01*
X029554Y011108D02*
X019112Y011108D01*
X018979Y010949D02*
X024849Y010949D01*
X024689Y010791D02*
X002970Y010791D01*
X002970Y010658D02*
X002857Y010386D01*
X002649Y010178D01*
X002377Y010065D01*
X002083Y010065D01*
X001811Y010178D01*
X001603Y010386D01*
X001490Y010658D01*
X001490Y010952D01*
X001603Y011224D01*
X001811Y011432D01*
X002083Y011545D01*
X002377Y011545D01*
X002649Y011432D01*
X002857Y011224D01*
X002970Y010952D01*
X002970Y010658D01*
X002959Y010632D02*
X024530Y010632D01*
X024372Y010474D02*
X002894Y010474D01*
X002787Y010315D02*
X024250Y010315D01*
X024256Y010157D02*
X016624Y010157D01*
X016598Y010183D02*
X016718Y010063D01*
X016783Y009905D01*
X016783Y009735D01*
X016718Y009577D01*
X016598Y009457D01*
X016440Y009392D01*
X016270Y009392D01*
X016112Y009457D01*
X015992Y009577D01*
X015927Y009735D01*
X015927Y009905D01*
X015992Y010063D01*
X016112Y010183D01*
X016270Y010248D01*
X016440Y010248D01*
X016598Y010183D01*
X016745Y009998D02*
X024386Y009998D01*
X024544Y009840D02*
X023895Y009840D01*
X023785Y009840D02*
X016783Y009840D01*
X016761Y009681D02*
X023579Y009681D01*
X023421Y009523D02*
X016663Y009523D01*
X016047Y009523D02*
X011105Y009523D01*
X010947Y009681D02*
X015949Y009681D01*
X015927Y009840D02*
X010788Y009840D01*
X010630Y009998D02*
X015965Y009998D01*
X016086Y010157D02*
X010420Y010157D01*
X010040Y010157D02*
X002598Y010157D01*
X001862Y010157D02*
X000731Y010157D01*
X000573Y010315D02*
X001673Y010315D01*
X001566Y010474D02*
X000550Y010474D01*
X000550Y010632D02*
X001501Y010632D01*
X001490Y010791D02*
X000550Y010791D01*
X000550Y010949D02*
X001490Y010949D01*
X001554Y011108D02*
X000550Y011108D01*
X000550Y011266D02*
X001644Y011266D01*
X001803Y011425D02*
X000550Y011425D01*
X000550Y011583D02*
X010182Y011583D01*
X010182Y011575D02*
X010247Y011417D01*
X010367Y011297D01*
X010525Y011232D01*
X010695Y011232D01*
X010853Y011297D01*
X010973Y011417D01*
X011038Y011575D01*
X011038Y011745D01*
X010973Y011903D01*
X010853Y012023D01*
X010695Y012088D01*
X010525Y012088D01*
X010367Y012023D01*
X010247Y011903D01*
X010182Y011745D01*
X010182Y011575D01*
X010244Y011425D02*
X002657Y011425D01*
X002815Y011266D02*
X010442Y011266D01*
X010778Y011266D02*
X014341Y011266D01*
X014368Y011201D02*
X014302Y011359D01*
X014302Y011529D01*
X014368Y011686D01*
X014411Y011729D01*
X014411Y014472D01*
X014459Y014590D01*
X014549Y014680D01*
X014549Y014680D01*
X014869Y014999D01*
X014869Y014999D01*
X014959Y015089D01*
X015076Y015138D01*
X016267Y015138D01*
X016267Y021725D01*
X016255Y021752D01*
X016255Y021879D01*
X016304Y021997D01*
X016394Y022087D01*
X016432Y022103D01*
X017316Y022986D01*
X017406Y023076D01*
X017524Y023125D01*
X025945Y023125D01*
X025987Y023168D01*
X026145Y023233D01*
X026315Y023233D01*
X026473Y023168D01*
X026593Y023048D01*
X026658Y022890D01*
X026658Y022720D01*
X026593Y022562D01*
X026473Y022442D01*
X026315Y022377D01*
X026145Y022377D01*
X025987Y022442D01*
X025945Y022485D01*
X017720Y022485D01*
X016907Y021672D01*
X016907Y015112D01*
X016950Y015069D01*
X017015Y014912D01*
X017015Y014742D01*
X016950Y014584D01*
X016829Y014464D01*
X016672Y014399D01*
X016501Y014399D01*
X016344Y014464D01*
X016310Y014498D01*
X015272Y014498D01*
X015051Y014276D01*
X015051Y011729D01*
X015094Y011686D01*
X015159Y011529D01*
X015159Y011359D01*
X015094Y011201D01*
X014973Y011081D01*
X014816Y011016D01*
X014645Y011016D01*
X014488Y011081D01*
X014368Y011201D01*
X014461Y011108D02*
X002906Y011108D01*
X002970Y010949D02*
X018481Y010949D01*
X018348Y011108D02*
X015000Y011108D01*
X015120Y011266D02*
X018302Y011266D01*
X018158Y011425D02*
X015159Y011425D01*
X015136Y011583D02*
X017999Y011583D01*
X017841Y011742D02*
X015051Y011742D01*
X015051Y011900D02*
X017682Y011900D01*
X017524Y012059D02*
X015051Y012059D01*
X015051Y012217D02*
X017420Y012217D01*
X017410Y012376D02*
X015051Y012376D01*
X015051Y012534D02*
X017410Y012534D01*
X017410Y012693D02*
X015051Y012693D01*
X015051Y012851D02*
X017410Y012851D01*
X017410Y013010D02*
X015051Y013010D01*
X015051Y013168D02*
X017410Y013168D01*
X017410Y013327D02*
X015051Y013327D01*
X015051Y013485D02*
X017410Y013485D01*
X017410Y013644D02*
X015051Y013644D01*
X015051Y013802D02*
X017410Y013802D01*
X017410Y013961D02*
X015051Y013961D01*
X015051Y014119D02*
X017410Y014119D01*
X017410Y014278D02*
X015052Y014278D01*
X015211Y014436D02*
X016412Y014436D01*
X016762Y014436D02*
X017410Y014436D01*
X017410Y014595D02*
X016954Y014595D01*
X017015Y014753D02*
X017410Y014753D01*
X017410Y014912D02*
X017015Y014912D01*
X016949Y015070D02*
X017364Y015070D01*
X017302Y015229D02*
X016907Y015229D01*
X016907Y015387D02*
X017302Y015387D01*
X017366Y015546D02*
X016907Y015546D01*
X016907Y015704D02*
X017376Y015704D01*
X017305Y015863D02*
X016907Y015863D01*
X016907Y016021D02*
X017302Y016021D01*
X017360Y016180D02*
X016907Y016180D01*
X016907Y016338D02*
X017410Y016338D01*
X017410Y016497D02*
X016907Y016497D01*
X016907Y016655D02*
X017410Y016655D01*
X017410Y016814D02*
X016907Y016814D01*
X016907Y016972D02*
X017410Y016972D01*
X017410Y017131D02*
X016907Y017131D01*
X016907Y017289D02*
X017410Y017289D01*
X017410Y017448D02*
X016907Y017448D01*
X016907Y017606D02*
X017349Y017606D01*
X017302Y017765D02*
X016907Y017765D01*
X016907Y017923D02*
X017316Y017923D01*
X017401Y018082D02*
X016907Y018082D01*
X016907Y018240D02*
X018384Y018240D01*
X018384Y018082D02*
X018059Y018082D01*
X018144Y017923D02*
X018384Y017923D01*
X018384Y017765D02*
X018158Y017765D01*
X018111Y017606D02*
X018384Y017606D01*
X018384Y017448D02*
X018050Y017448D01*
X018050Y017289D02*
X018384Y017289D01*
X018384Y017131D02*
X018050Y017131D01*
X018050Y016972D02*
X018384Y016972D01*
X018384Y016814D02*
X018050Y016814D01*
X018050Y016655D02*
X018384Y016655D01*
X018384Y016497D02*
X018050Y016497D01*
X018050Y016338D02*
X018384Y016338D01*
X018384Y016180D02*
X018100Y016180D01*
X018158Y016021D02*
X018384Y016021D01*
X018384Y015863D02*
X018155Y015863D01*
X018084Y015704D02*
X018384Y015704D01*
X018384Y015546D02*
X018094Y015546D01*
X018158Y015387D02*
X018384Y015387D01*
X018384Y015229D02*
X018158Y015229D01*
X018096Y015070D02*
X018384Y015070D01*
X018384Y014912D02*
X018050Y014912D01*
X018050Y014753D02*
X018384Y014753D01*
X018384Y014595D02*
X018050Y014595D01*
X018050Y014436D02*
X018384Y014436D01*
X018384Y014278D02*
X018050Y014278D01*
X018050Y014119D02*
X018384Y014119D01*
X018384Y014091D02*
X018439Y013958D01*
X019046Y013351D01*
X019046Y013347D01*
X019111Y013190D01*
X019232Y013069D01*
X019389Y013004D01*
X019559Y013004D01*
X019717Y013069D01*
X019837Y013190D01*
X019902Y013347D01*
X019902Y013517D01*
X019837Y013675D01*
X019717Y013795D01*
X019559Y013860D01*
X019555Y013860D01*
X019104Y014311D01*
X019104Y019552D01*
X019107Y019555D01*
X019172Y019712D01*
X019172Y019883D01*
X019107Y020040D01*
X018986Y020160D01*
X018829Y020226D01*
X018659Y020226D01*
X018501Y020160D01*
X018381Y020040D01*
X018316Y019883D01*
X018316Y019712D01*
X018381Y019555D01*
X018384Y019552D01*
X018384Y014091D01*
X018438Y013961D02*
X018050Y013961D01*
X018050Y013802D02*
X018595Y013802D01*
X018754Y013644D02*
X018050Y013644D01*
X018050Y013485D02*
X018912Y013485D01*
X019054Y013327D02*
X018050Y013327D01*
X018050Y013168D02*
X019133Y013168D01*
X019376Y013010D02*
X018050Y013010D01*
X018050Y012851D02*
X031910Y012851D01*
X031910Y012693D02*
X018050Y012693D01*
X018050Y012534D02*
X031910Y012534D01*
X031910Y012376D02*
X018112Y012376D01*
X018271Y012217D02*
X031910Y012217D01*
X031910Y012059D02*
X018429Y012059D01*
X018588Y011900D02*
X031910Y011900D01*
X031910Y011742D02*
X018746Y011742D01*
X019057Y011583D02*
X031910Y011583D01*
X031910Y013010D02*
X019572Y013010D01*
X019815Y013168D02*
X031910Y013168D01*
X031910Y013327D02*
X019894Y013327D01*
X019902Y013485D02*
X031910Y013485D01*
X031910Y013644D02*
X019850Y013644D01*
X019700Y013802D02*
X031910Y013802D01*
X031910Y013961D02*
X028447Y013961D01*
X028489Y014002D02*
X028556Y014163D01*
X028556Y014337D01*
X028489Y014498D01*
X028366Y014621D01*
X028205Y014688D01*
X028031Y014688D01*
X027870Y014621D01*
X027746Y014498D01*
X027680Y014337D01*
X027680Y014163D01*
X027746Y014002D01*
X027870Y013879D01*
X028031Y013812D01*
X028205Y013812D01*
X028366Y013879D01*
X028489Y014002D01*
X028537Y014119D02*
X031910Y014119D01*
X031910Y014278D02*
X028556Y014278D01*
X028515Y014436D02*
X031910Y014436D01*
X031910Y014595D02*
X028393Y014595D01*
X027843Y014595D02*
X027015Y014595D01*
X026921Y014688D02*
X026558Y014688D01*
X026302Y014432D01*
X026302Y014069D01*
X026558Y013812D01*
X026921Y013812D01*
X027178Y014069D01*
X027178Y014432D01*
X026921Y014688D01*
X027173Y014436D02*
X027721Y014436D01*
X027680Y014278D02*
X027178Y014278D01*
X027178Y014119D02*
X027698Y014119D01*
X027788Y013961D02*
X027069Y013961D01*
X026410Y013961D02*
X019455Y013961D01*
X019296Y014119D02*
X021963Y014119D01*
X021959Y014124D02*
X022049Y014034D01*
X022166Y013985D01*
X023294Y013985D01*
X023411Y014034D01*
X023501Y014124D01*
X027254Y017877D01*
X027315Y017877D01*
X027473Y017942D01*
X027593Y018062D01*
X027658Y018220D01*
X027658Y018390D01*
X027593Y018548D01*
X027473Y018668D01*
X027315Y018733D01*
X027158Y018733D01*
X027158Y018890D01*
X027093Y019048D01*
X026973Y019168D01*
X026815Y019233D01*
X026645Y019233D01*
X026487Y019168D01*
X026367Y019048D01*
X026302Y018890D01*
X026302Y018829D01*
X025097Y017625D01*
X024503Y017625D01*
X027501Y020624D01*
X027550Y020741D01*
X027550Y021172D01*
X028190Y021812D01*
X028190Y021698D01*
X028272Y021499D01*
X028424Y021347D01*
X028526Y021305D01*
X028424Y021263D01*
X028272Y021111D01*
X028190Y020912D01*
X028190Y020698D01*
X028272Y020499D01*
X028424Y020347D01*
X028623Y020265D01*
X028837Y020265D01*
X029036Y020347D01*
X029188Y020499D01*
X029265Y020684D01*
X029285Y020621D01*
X029319Y020553D01*
X029364Y020492D01*
X029417Y020439D01*
X029478Y020394D01*
X029546Y020360D01*
X029618Y020337D01*
X029692Y020325D01*
X029710Y020325D01*
X029710Y020785D01*
X029750Y020785D01*
X029750Y020825D01*
X030210Y020825D01*
X030210Y020843D01*
X030198Y020917D01*
X030175Y020989D01*
X030141Y021057D01*
X030096Y021118D01*
X030043Y021171D01*
X029982Y021216D01*
X029914Y021250D01*
X029851Y021270D01*
X030036Y021347D01*
X030188Y021499D01*
X030270Y021698D01*
X030270Y021912D01*
X030188Y022111D01*
X030036Y022263D01*
X029934Y022305D01*
X030036Y022347D01*
X030188Y022499D01*
X030270Y022698D01*
X030270Y022912D01*
X030188Y023111D01*
X030036Y023263D01*
X029837Y023345D01*
X029623Y023345D01*
X029424Y023263D01*
X029272Y023111D01*
X029270Y023106D01*
X029270Y023153D01*
X029233Y023241D01*
X029166Y023308D01*
X029078Y023345D01*
X028382Y023345D01*
X028294Y023308D01*
X028227Y023241D01*
X028190Y023153D01*
X028190Y022625D01*
X028166Y022625D01*
X028049Y022576D01*
X027959Y022486D01*
X027049Y021576D01*
X026959Y021486D01*
X026910Y021369D01*
X026910Y020938D01*
X022330Y016358D01*
X022293Y016448D01*
X022173Y016568D01*
X022015Y016633D01*
X021845Y016633D01*
X021687Y016568D01*
X021645Y016525D01*
X021066Y016525D01*
X020949Y016476D01*
X019656Y015183D01*
X019595Y015183D01*
X019437Y015118D01*
X019317Y014998D01*
X019252Y014840D01*
X019252Y014670D01*
X019317Y014512D01*
X019437Y014392D01*
X019595Y014327D01*
X019765Y014327D01*
X019923Y014392D01*
X020043Y014512D01*
X020108Y014670D01*
X020108Y014731D01*
X021263Y015885D01*
X021645Y015885D01*
X021687Y015842D01*
X021771Y015808D01*
X021687Y015808D01*
X021529Y015742D01*
X021409Y015622D01*
X021381Y015556D01*
X021315Y015583D01*
X021145Y015583D01*
X020987Y015518D01*
X020867Y015398D01*
X020802Y015240D01*
X020802Y015070D01*
X020448Y015070D01*
X020606Y015229D02*
X020802Y015229D01*
X020802Y015070D02*
X020867Y014912D01*
X020987Y014792D01*
X021145Y014727D01*
X021315Y014727D01*
X021344Y014739D01*
X021959Y014124D01*
X021805Y014278D02*
X019138Y014278D01*
X019104Y014436D02*
X019394Y014436D01*
X019283Y014595D02*
X019104Y014595D01*
X019104Y014753D02*
X019252Y014753D01*
X019281Y014912D02*
X019104Y014912D01*
X019104Y015070D02*
X019390Y015070D01*
X019104Y015229D02*
X019701Y015229D01*
X019859Y015387D02*
X019104Y015387D01*
X019104Y015546D02*
X020018Y015546D01*
X020176Y015704D02*
X019104Y015704D01*
X019104Y015863D02*
X020335Y015863D01*
X020493Y016021D02*
X019104Y016021D01*
X019104Y016180D02*
X020652Y016180D01*
X020810Y016338D02*
X019104Y016338D01*
X019104Y016497D02*
X020998Y016497D01*
X021130Y016205D02*
X019680Y014755D01*
X020077Y014595D02*
X021488Y014595D01*
X021646Y014436D02*
X019966Y014436D01*
X020131Y014753D02*
X021082Y014753D01*
X020868Y014912D02*
X020289Y014912D01*
X020765Y015387D02*
X020863Y015387D01*
X020923Y015546D02*
X021054Y015546D01*
X021082Y015704D02*
X021491Y015704D01*
X021667Y015863D02*
X021240Y015863D01*
X021130Y016205D02*
X021930Y016205D01*
X022244Y016497D02*
X022469Y016497D01*
X022627Y016655D02*
X019104Y016655D01*
X019104Y016814D02*
X022786Y016814D01*
X022944Y016972D02*
X019104Y016972D01*
X019104Y017131D02*
X023103Y017131D01*
X023261Y017289D02*
X019104Y017289D01*
X019104Y017448D02*
X023420Y017448D01*
X023578Y017606D02*
X019104Y017606D01*
X019104Y017765D02*
X023737Y017765D01*
X023895Y017923D02*
X019104Y017923D01*
X019104Y018082D02*
X024054Y018082D01*
X024212Y018240D02*
X019104Y018240D01*
X019104Y018399D02*
X024371Y018399D01*
X024529Y018557D02*
X019104Y018557D01*
X019104Y018716D02*
X024688Y018716D01*
X024846Y018874D02*
X019104Y018874D01*
X019104Y019033D02*
X025005Y019033D01*
X025163Y019191D02*
X019104Y019191D01*
X019104Y019350D02*
X025322Y019350D01*
X025480Y019508D02*
X019104Y019508D01*
X019153Y019667D02*
X025639Y019667D01*
X025797Y019825D02*
X019172Y019825D01*
X019130Y019984D02*
X025956Y019984D01*
X026114Y020142D02*
X019005Y020142D01*
X018483Y020142D02*
X016907Y020142D01*
X016907Y019984D02*
X018358Y019984D01*
X018316Y019825D02*
X016907Y019825D01*
X016907Y019667D02*
X018335Y019667D01*
X018384Y019508D02*
X016907Y019508D01*
X016907Y019350D02*
X018384Y019350D01*
X018384Y019191D02*
X016907Y019191D01*
X016907Y019033D02*
X018384Y019033D01*
X018384Y018874D02*
X016907Y018874D01*
X016907Y018716D02*
X018384Y018716D01*
X018384Y018557D02*
X016907Y018557D01*
X016907Y018399D02*
X018384Y018399D01*
X017730Y017805D02*
X017730Y015955D01*
X017730Y015305D02*
X017730Y012305D01*
X018730Y011305D01*
X018632Y009206D02*
X023122Y009206D01*
X023102Y009047D02*
X018843Y009047D01*
X018908Y008889D02*
X023212Y008889D01*
X023371Y008730D02*
X018908Y008730D01*
X018847Y008572D02*
X023529Y008572D01*
X023704Y008413D02*
X018652Y008413D01*
X018378Y008255D02*
X024007Y008255D01*
X024170Y008096D02*
X018218Y008096D01*
X018058Y007938D02*
X024332Y007938D01*
X024495Y007779D02*
X017897Y007779D01*
X017737Y007621D02*
X024353Y007621D01*
X024194Y007462D02*
X017577Y007462D01*
X017507Y007304D02*
X024036Y007304D01*
X025086Y008572D02*
X025589Y008572D01*
X025589Y008730D02*
X024923Y008730D01*
X024761Y008889D02*
X025594Y008889D01*
X025508Y009047D02*
X024598Y009047D01*
X024541Y009206D02*
X025345Y009206D01*
X025182Y009364D02*
X024418Y009364D01*
X024259Y009523D02*
X025019Y009523D01*
X024703Y009681D02*
X024101Y009681D01*
X023262Y009364D02*
X011264Y009364D01*
X011422Y009206D02*
X018328Y009206D01*
X018117Y009047D02*
X011581Y009047D01*
X011739Y008889D02*
X018052Y008889D01*
X017949Y008730D02*
X011898Y008730D01*
X012056Y008572D02*
X017789Y008572D01*
X017628Y008413D02*
X012215Y008413D01*
X012373Y008255D02*
X017468Y008255D01*
X017308Y008096D02*
X012532Y008096D01*
X012690Y007938D02*
X017148Y007938D01*
X016833Y007779D02*
X012849Y007779D01*
X013007Y007621D02*
X016711Y007621D01*
X016672Y007462D02*
X013166Y007462D01*
X013324Y007304D02*
X016694Y007304D01*
X017100Y007441D02*
X018480Y008805D01*
X014731Y011444D02*
X014731Y014409D01*
X015140Y014818D01*
X016578Y014818D01*
X016587Y014827D01*
X016587Y021804D01*
X017587Y022805D01*
X026230Y022805D01*
X026550Y022520D02*
X027992Y022520D01*
X027959Y022486D02*
X027959Y022486D01*
X027833Y022361D02*
X017596Y022361D01*
X017437Y022203D02*
X021721Y022203D01*
X021795Y022233D02*
X021638Y022168D01*
X021517Y022048D01*
X021452Y021890D01*
X021452Y021720D01*
X021517Y021562D01*
X021638Y021442D01*
X021795Y021377D01*
X021965Y021377D01*
X022123Y021442D01*
X022126Y021445D01*
X025985Y021445D01*
X025987Y021442D01*
X026145Y021377D01*
X026315Y021377D01*
X026473Y021442D01*
X026593Y021562D01*
X026658Y021720D01*
X026658Y021890D01*
X026593Y022048D01*
X026473Y022168D01*
X026315Y022233D01*
X026145Y022233D01*
X025987Y022168D01*
X025985Y022165D01*
X022126Y022165D01*
X022123Y022168D01*
X021965Y022233D01*
X021795Y022233D01*
X022039Y022203D02*
X026071Y022203D01*
X026389Y022203D02*
X027675Y022203D01*
X027516Y022044D02*
X026594Y022044D01*
X026658Y021886D02*
X027358Y021886D01*
X027199Y021727D02*
X026658Y021727D01*
X026595Y021569D02*
X027041Y021569D01*
X027049Y021576D02*
X027049Y021576D01*
X026927Y021410D02*
X026395Y021410D01*
X026065Y021410D02*
X022045Y021410D01*
X021715Y021410D02*
X016907Y021410D01*
X016907Y021252D02*
X026910Y021252D01*
X026910Y021093D02*
X016907Y021093D01*
X016907Y020935D02*
X026907Y020935D01*
X026748Y020776D02*
X016907Y020776D01*
X016907Y020618D02*
X026590Y020618D01*
X026431Y020459D02*
X016907Y020459D01*
X016907Y020301D02*
X026273Y020301D01*
X026703Y019825D02*
X031910Y019825D01*
X031910Y019667D02*
X026544Y019667D01*
X026386Y019508D02*
X031910Y019508D01*
X031910Y019350D02*
X026227Y019350D01*
X026069Y019191D02*
X026543Y019191D01*
X026361Y019033D02*
X025910Y019033D01*
X025752Y018874D02*
X026302Y018874D01*
X026188Y018716D02*
X025593Y018716D01*
X025435Y018557D02*
X026029Y018557D01*
X025871Y018399D02*
X025276Y018399D01*
X025118Y018240D02*
X025712Y018240D01*
X025554Y018082D02*
X024959Y018082D01*
X024801Y017923D02*
X025395Y017923D01*
X025237Y017765D02*
X024642Y017765D01*
X024230Y017305D02*
X025230Y017305D01*
X026730Y018805D01*
X026917Y019191D02*
X031910Y019191D01*
X031910Y019033D02*
X027099Y019033D01*
X027158Y018874D02*
X031910Y018874D01*
X031910Y018716D02*
X027358Y018716D01*
X027583Y018557D02*
X031910Y018557D01*
X031910Y018399D02*
X027655Y018399D01*
X027658Y018240D02*
X031910Y018240D01*
X031910Y018082D02*
X027601Y018082D01*
X027427Y017923D02*
X031910Y017923D01*
X031910Y017765D02*
X027142Y017765D01*
X026984Y017606D02*
X031910Y017606D01*
X031910Y017448D02*
X026825Y017448D01*
X026667Y017289D02*
X031910Y017289D01*
X031910Y017131D02*
X026508Y017131D01*
X026350Y016972D02*
X031910Y016972D01*
X031910Y016814D02*
X026191Y016814D01*
X026033Y016655D02*
X031910Y016655D01*
X031910Y016497D02*
X025874Y016497D01*
X025716Y016338D02*
X031910Y016338D01*
X031910Y016180D02*
X025557Y016180D01*
X025399Y016021D02*
X031910Y016021D01*
X031910Y015863D02*
X025240Y015863D01*
X025082Y015704D02*
X031910Y015704D01*
X031910Y015546D02*
X024923Y015546D01*
X024765Y015387D02*
X031910Y015387D01*
X031910Y015229D02*
X024606Y015229D01*
X024448Y015070D02*
X031910Y015070D01*
X031910Y014912D02*
X024289Y014912D01*
X024131Y014753D02*
X031910Y014753D01*
X029490Y010949D02*
X025113Y010949D01*
X025274Y010791D02*
X029490Y010791D01*
X029501Y010632D02*
X025433Y010632D01*
X025591Y010474D02*
X029566Y010474D01*
X029673Y010315D02*
X025695Y010315D01*
X025773Y010157D02*
X029862Y010157D01*
X025785Y008255D02*
X025756Y008255D01*
X025648Y008413D02*
X025533Y008413D01*
X027341Y005719D02*
X009661Y005719D01*
X009591Y005719D02*
X009591Y005719D01*
X009739Y005560D02*
X027184Y005560D01*
X027027Y005402D02*
X009745Y005402D01*
X009689Y005243D02*
X026871Y005243D01*
X026714Y005085D02*
X009511Y005085D01*
X009552Y005243D02*
X009552Y005243D01*
X008469Y005719D02*
X005169Y005719D01*
X005011Y005877D02*
X008245Y005877D01*
X008166Y006036D02*
X004852Y006036D01*
X004694Y006194D02*
X008150Y006194D01*
X008187Y006353D02*
X004535Y006353D01*
X004377Y006511D02*
X008295Y006511D01*
X008957Y006511D02*
X012731Y006511D01*
X012573Y006670D02*
X004218Y006670D01*
X004060Y006828D02*
X012414Y006828D01*
X012256Y006987D02*
X003901Y006987D01*
X003743Y007145D02*
X012097Y007145D01*
X011939Y007304D02*
X003584Y007304D01*
X003426Y007462D02*
X011780Y007462D01*
X011622Y007621D02*
X003267Y007621D01*
X003109Y007779D02*
X011463Y007779D01*
X011305Y007938D02*
X002950Y007938D01*
X002792Y008096D02*
X011146Y008096D01*
X010988Y008255D02*
X002633Y008255D01*
X002475Y008413D02*
X010829Y008413D01*
X010671Y008572D02*
X006024Y008572D01*
X006052Y008585D02*
X006105Y008624D01*
X006128Y008647D01*
X006151Y008670D01*
X006190Y008723D01*
X006219Y008782D01*
X006240Y008844D01*
X006250Y008909D01*
X006250Y008974D01*
X006240Y009039D01*
X006219Y009101D01*
X006190Y009160D01*
X006151Y009213D01*
X006128Y009236D01*
X006105Y009259D01*
X006052Y009297D01*
X005993Y009327D01*
X005931Y009347D01*
X005866Y009358D01*
X005801Y009358D01*
X005736Y009347D01*
X005674Y009327D01*
X005615Y009297D01*
X005562Y009259D01*
X005539Y009236D01*
X005834Y008941D01*
X006128Y008647D01*
X005834Y008941D01*
X005834Y008941D01*
X005834Y008941D01*
X006128Y009236D01*
X005834Y008941D01*
X005539Y008647D01*
X005834Y008941D01*
X005834Y008941D01*
X005539Y009236D01*
X005516Y009213D01*
X005478Y009160D01*
X005448Y009101D01*
X005428Y009039D01*
X005417Y008974D01*
X005417Y008909D01*
X005428Y008844D01*
X005448Y008782D01*
X005478Y008723D01*
X005516Y008670D01*
X005539Y008647D01*
X005562Y008624D01*
X005615Y008585D01*
X005674Y008556D01*
X005736Y008535D01*
X005801Y008525D01*
X005866Y008525D01*
X005931Y008535D01*
X005993Y008556D01*
X006052Y008585D01*
X006045Y008730D02*
X006045Y008730D01*
X006193Y008730D02*
X010512Y008730D01*
X010354Y008889D02*
X006247Y008889D01*
X006237Y009047D02*
X010195Y009047D01*
X010037Y009206D02*
X006156Y009206D01*
X006098Y009206D02*
X006098Y009206D01*
X005939Y009047D02*
X005939Y009047D01*
X005834Y008941D02*
X005834Y008941D01*
X005886Y008889D02*
X005886Y008889D01*
X005781Y008889D02*
X005781Y008889D01*
X005728Y009047D02*
X005728Y009047D01*
X005569Y009206D02*
X005569Y009206D01*
X005511Y009206D02*
X005301Y009206D01*
X005221Y009172D02*
X005396Y009245D01*
X005530Y009379D01*
X005603Y009554D01*
X005603Y009743D01*
X005530Y009918D01*
X005396Y010052D01*
X005221Y010125D01*
X005032Y010125D01*
X004857Y010052D01*
X004723Y009918D01*
X004650Y009743D01*
X004650Y009554D01*
X004723Y009379D01*
X004857Y009245D01*
X005032Y009172D01*
X005221Y009172D01*
X005430Y009047D02*
X001841Y009047D01*
X001999Y008889D02*
X005421Y008889D01*
X005474Y008730D02*
X002158Y008730D01*
X002316Y008572D02*
X005643Y008572D01*
X005622Y008730D02*
X005622Y008730D01*
X004952Y009206D02*
X001682Y009206D01*
X001524Y009364D02*
X004738Y009364D01*
X004663Y009523D02*
X001365Y009523D01*
X001207Y009681D02*
X004650Y009681D01*
X004690Y009840D02*
X001048Y009840D01*
X000890Y009998D02*
X004802Y009998D01*
X005450Y009998D02*
X009830Y009998D01*
X009755Y009840D02*
X005563Y009840D01*
X005603Y009681D02*
X009740Y009681D01*
X009775Y009523D02*
X005590Y009523D01*
X005515Y009364D02*
X009878Y009364D01*
X010976Y011425D02*
X014302Y011425D01*
X014325Y011583D02*
X011038Y011583D01*
X011038Y011742D02*
X014411Y011742D01*
X014411Y011900D02*
X010974Y011900D01*
X010767Y012059D02*
X014411Y012059D01*
X014411Y012217D02*
X000550Y012217D01*
X000550Y012059D02*
X010453Y012059D01*
X010246Y011900D02*
X000550Y011900D01*
X000550Y011742D02*
X010182Y011742D01*
X010516Y013431D02*
X010678Y013431D01*
X010829Y013493D01*
X010943Y013608D01*
X011006Y013758D01*
X011006Y013920D01*
X010943Y014070D01*
X010829Y014185D01*
X010678Y014248D01*
X010516Y014248D01*
X010366Y014185D01*
X010251Y014070D01*
X010189Y013920D01*
X010189Y013758D01*
X010251Y013608D01*
X010366Y013493D01*
X010516Y013431D01*
X010385Y013485D02*
X000550Y013485D01*
X000550Y013327D02*
X014411Y013327D01*
X014411Y013485D02*
X010810Y013485D01*
X010958Y013644D02*
X014411Y013644D01*
X014411Y013802D02*
X011006Y013802D01*
X010989Y013961D02*
X014411Y013961D01*
X014411Y014119D02*
X010895Y014119D01*
X010300Y014119D02*
X000550Y014119D01*
X000550Y013961D02*
X010205Y013961D01*
X010189Y013802D02*
X000550Y013802D01*
X000550Y013644D02*
X010236Y013644D01*
X011685Y014882D02*
X011620Y015039D01*
X011620Y015209D01*
X011685Y015367D01*
X011805Y015487D01*
X011963Y015552D01*
X012133Y015552D01*
X012290Y015487D01*
X012333Y015444D01*
X014260Y015444D01*
X015391Y016575D01*
X015391Y018411D01*
X015318Y018485D01*
X015253Y018642D01*
X015253Y018812D01*
X015318Y018970D01*
X015438Y019090D01*
X015595Y019155D01*
X015766Y019155D01*
X015923Y019090D01*
X016044Y018970D01*
X016109Y018812D01*
X016109Y018642D01*
X016044Y018485D01*
X016031Y018472D01*
X016031Y016379D01*
X015983Y016261D01*
X015893Y016171D01*
X015893Y016171D01*
X014574Y014853D01*
X014456Y014804D01*
X012333Y014804D01*
X012290Y014761D01*
X012133Y014696D01*
X011963Y014696D01*
X011805Y014761D01*
X011685Y014882D01*
X011673Y014912D02*
X000550Y014912D01*
X000550Y015070D02*
X003208Y015070D01*
X003233Y015062D02*
X003307Y015050D01*
X003326Y015050D01*
X003326Y015507D01*
X003363Y015507D01*
X003363Y015544D01*
X003819Y015544D01*
X003819Y015563D01*
X003808Y015637D01*
X003785Y015708D01*
X003751Y015775D01*
X003707Y015835D01*
X003654Y015888D01*
X003593Y015932D01*
X003527Y015966D01*
X003455Y015989D01*
X003382Y016001D01*
X003363Y016001D01*
X003363Y015544D01*
X003326Y015544D01*
X003326Y016001D01*
X003307Y016001D01*
X003233Y015989D01*
X003162Y015966D01*
X003095Y015932D01*
X003035Y015888D01*
X002982Y015835D01*
X002938Y015775D01*
X002904Y015708D01*
X002881Y015637D01*
X002869Y015563D01*
X002869Y015544D01*
X003326Y015544D01*
X003326Y015507D01*
X002869Y015507D01*
X002869Y015488D01*
X002881Y015414D01*
X002904Y015343D01*
X002938Y015276D01*
X002982Y015216D01*
X003035Y015163D01*
X003095Y015119D01*
X003162Y015085D01*
X003233Y015062D01*
X003326Y015070D02*
X003363Y015070D01*
X003363Y015050D02*
X003382Y015050D01*
X003455Y015062D01*
X003527Y015085D01*
X003593Y015119D01*
X003654Y015163D01*
X003707Y015216D01*
X003751Y015276D01*
X003785Y015343D01*
X003808Y015414D01*
X003819Y015488D01*
X003819Y015507D01*
X003363Y015507D01*
X003363Y015050D01*
X003480Y015070D02*
X004989Y015070D01*
X005005Y015065D02*
X005079Y015053D01*
X005098Y015053D01*
X005098Y015508D01*
X004644Y015508D01*
X004644Y015488D01*
X004655Y015415D01*
X004678Y015344D01*
X004712Y015278D01*
X004756Y015218D01*
X004808Y015165D01*
X004868Y015122D01*
X004935Y015088D01*
X005005Y015065D01*
X005098Y015070D02*
X005133Y015070D01*
X005133Y015053D02*
X005153Y015053D01*
X005226Y015065D01*
X005297Y015088D01*
X005363Y015122D01*
X005424Y015165D01*
X005476Y015218D01*
X005520Y015278D01*
X005554Y015344D01*
X005577Y015415D01*
X005588Y015488D01*
X005588Y015508D01*
X005133Y015508D01*
X005133Y015053D01*
X005243Y015070D02*
X011620Y015070D01*
X011628Y015229D02*
X005484Y015229D01*
X005567Y015387D02*
X011705Y015387D01*
X011946Y015546D02*
X005588Y015546D01*
X005588Y015543D02*
X005588Y015563D01*
X005577Y015636D01*
X005554Y015707D01*
X005520Y015773D01*
X005476Y015833D01*
X005424Y015886D01*
X005363Y015929D01*
X005297Y015963D01*
X005226Y015986D01*
X005153Y015998D01*
X005133Y015998D01*
X005133Y015543D01*
X005098Y015543D01*
X005098Y015508D01*
X005133Y015508D01*
X005133Y015543D01*
X005588Y015543D01*
X005554Y015704D02*
X011176Y015704D01*
X011187Y015692D02*
X011345Y015627D01*
X011515Y015627D01*
X011673Y015692D01*
X011793Y015812D01*
X011858Y015970D01*
X011858Y016140D01*
X011793Y016298D01*
X011673Y016418D01*
X011515Y016483D01*
X011345Y016483D01*
X011187Y016418D01*
X011145Y016375D01*
X009613Y016375D01*
X008617Y017371D01*
X008658Y017470D01*
X008658Y017640D01*
X008593Y017798D01*
X008473Y017918D01*
X008315Y017983D01*
X008145Y017983D01*
X007987Y017918D01*
X007867Y017798D01*
X007802Y017640D01*
X007802Y017470D01*
X007867Y017312D01*
X007910Y017270D01*
X007910Y017241D01*
X007959Y017124D01*
X008049Y017034D01*
X009299Y015784D01*
X009416Y015735D01*
X011145Y015735D01*
X011187Y015692D01*
X011430Y016055D02*
X009480Y016055D01*
X008230Y017305D01*
X008230Y017555D01*
X007853Y017765D02*
X005549Y017765D01*
X005567Y017783D02*
X005648Y017979D01*
X005648Y018190D01*
X005567Y018386D01*
X005417Y018536D01*
X005222Y018617D01*
X005010Y018617D01*
X004814Y018536D01*
X004665Y018386D01*
X004584Y018190D01*
X004584Y017979D01*
X004665Y017783D01*
X004814Y017633D01*
X005010Y017552D01*
X005222Y017552D01*
X005417Y017633D01*
X005567Y017783D01*
X005625Y017923D02*
X008000Y017923D01*
X007802Y017606D02*
X005352Y017606D01*
X005648Y018082D02*
X010044Y018082D01*
X010066Y018029D02*
X010186Y017909D01*
X010343Y017843D01*
X010404Y017843D01*
X010711Y017536D01*
X010829Y017487D01*
X013984Y017487D01*
X014014Y017416D01*
X014049Y017381D01*
X014037Y017339D01*
X014037Y017107D01*
X014465Y017107D01*
X014465Y017012D01*
X014037Y017012D01*
X014037Y016780D01*
X014050Y016734D01*
X014073Y016693D01*
X014107Y016660D01*
X014148Y016636D01*
X014194Y016624D01*
X014465Y016624D01*
X014465Y017012D01*
X014561Y017012D01*
X014561Y017107D01*
X014988Y017107D01*
X014988Y017339D01*
X014977Y017381D01*
X015011Y017416D01*
X015048Y017504D01*
X015048Y018111D01*
X015011Y018199D01*
X014944Y018267D01*
X014856Y018303D01*
X014832Y018303D01*
X014832Y018356D01*
X014855Y018356D01*
X014943Y018392D01*
X015010Y018460D01*
X015047Y018548D01*
X015047Y019155D01*
X015018Y019226D01*
X015047Y019296D01*
X015047Y019903D01*
X015010Y019992D01*
X014943Y020059D01*
X014870Y020090D01*
X014870Y020927D01*
X014984Y021004D01*
X015010Y020993D01*
X015222Y020993D01*
X015417Y021074D01*
X015567Y021224D01*
X015648Y021420D01*
X015648Y021631D01*
X015567Y021827D01*
X015417Y021977D01*
X015222Y022058D01*
X015010Y022058D01*
X014814Y021977D01*
X014683Y021845D01*
X013777Y021845D01*
X013646Y021977D01*
X013450Y022058D01*
X013238Y022058D01*
X013043Y021977D01*
X012893Y021827D01*
X012812Y021631D01*
X012812Y021420D01*
X012893Y021224D01*
X013043Y021074D01*
X013238Y020993D01*
X013450Y020993D01*
X013646Y021074D01*
X013777Y021205D01*
X014156Y021205D01*
X014150Y021191D01*
X014150Y021154D01*
X014142Y021119D01*
X014150Y021083D01*
X014150Y020088D01*
X014081Y020059D01*
X014013Y019992D01*
X013976Y019903D01*
X013976Y019296D01*
X014006Y019226D01*
X013976Y019155D01*
X013976Y018548D01*
X014013Y018460D01*
X014081Y018392D01*
X014169Y018356D01*
X014192Y018356D01*
X014192Y018303D01*
X014170Y018303D01*
X014081Y018267D01*
X014014Y018199D01*
X013984Y018127D01*
X011025Y018127D01*
X010857Y018296D01*
X010857Y018357D01*
X010791Y018514D01*
X010671Y018634D01*
X010514Y018700D01*
X010343Y018700D01*
X010186Y018634D01*
X010066Y018514D01*
X010000Y018357D01*
X010000Y018186D01*
X010066Y018029D01*
X010172Y017923D02*
X008460Y017923D01*
X008607Y017765D02*
X010483Y017765D01*
X010641Y017606D02*
X008658Y017606D01*
X008649Y017448D02*
X014001Y017448D01*
X014037Y017289D02*
X008699Y017289D01*
X008857Y017131D02*
X014037Y017131D01*
X014037Y016972D02*
X009016Y016972D01*
X009174Y016814D02*
X014037Y016814D01*
X014115Y016655D02*
X009333Y016655D01*
X009491Y016497D02*
X015313Y016497D01*
X015391Y016655D02*
X014911Y016655D01*
X014918Y016660D02*
X014952Y016693D01*
X014976Y016734D01*
X014988Y016780D01*
X014988Y017012D01*
X014561Y017012D01*
X014561Y016624D01*
X014832Y016624D01*
X014877Y016636D01*
X014918Y016660D01*
X014988Y016814D02*
X015391Y016814D01*
X015391Y016972D02*
X014988Y016972D01*
X014988Y017131D02*
X015391Y017131D01*
X015391Y017289D02*
X014988Y017289D01*
X015025Y017448D02*
X015391Y017448D01*
X015391Y017606D02*
X015048Y017606D01*
X015048Y017765D02*
X015391Y017765D01*
X015391Y017923D02*
X015048Y017923D01*
X015048Y018082D02*
X015391Y018082D01*
X015391Y018240D02*
X014971Y018240D01*
X014949Y018399D02*
X015391Y018399D01*
X015288Y018557D02*
X015047Y018557D01*
X015047Y018716D02*
X015253Y018716D01*
X015278Y018874D02*
X015047Y018874D01*
X015047Y019033D02*
X015381Y019033D01*
X015032Y019191D02*
X016267Y019191D01*
X016267Y019033D02*
X015981Y019033D01*
X016083Y018874D02*
X016267Y018874D01*
X016267Y018716D02*
X016109Y018716D01*
X016074Y018557D02*
X016267Y018557D01*
X016267Y018399D02*
X016031Y018399D01*
X016031Y018240D02*
X016267Y018240D01*
X016267Y018082D02*
X016031Y018082D01*
X016031Y017923D02*
X016267Y017923D01*
X016267Y017765D02*
X016031Y017765D01*
X016031Y017606D02*
X016267Y017606D01*
X016267Y017448D02*
X016031Y017448D01*
X016031Y017289D02*
X016267Y017289D01*
X016267Y017131D02*
X016031Y017131D01*
X016031Y016972D02*
X016267Y016972D01*
X016267Y016814D02*
X016031Y016814D01*
X016031Y016655D02*
X016267Y016655D01*
X016267Y016497D02*
X016031Y016497D01*
X016014Y016338D02*
X016267Y016338D01*
X016267Y016180D02*
X015901Y016180D01*
X015742Y016021D02*
X016267Y016021D01*
X016267Y015863D02*
X015584Y015863D01*
X015425Y015704D02*
X016267Y015704D01*
X016267Y015546D02*
X015267Y015546D01*
X015108Y015387D02*
X016267Y015387D01*
X016267Y015229D02*
X014950Y015229D01*
X014939Y015070D02*
X014791Y015070D01*
X014781Y014912D02*
X014633Y014912D01*
X014622Y014753D02*
X012270Y014753D01*
X012048Y015124D02*
X014393Y015124D01*
X015711Y016443D01*
X015711Y018696D01*
X015681Y018727D01*
X016267Y019350D02*
X015047Y019350D01*
X015047Y019508D02*
X016267Y019508D01*
X016267Y019667D02*
X015047Y019667D01*
X015047Y019825D02*
X016267Y019825D01*
X016267Y019984D02*
X015014Y019984D01*
X014870Y020142D02*
X016267Y020142D01*
X016267Y020301D02*
X014870Y020301D01*
X014870Y020459D02*
X016267Y020459D01*
X016267Y020618D02*
X014870Y020618D01*
X014870Y020776D02*
X016267Y020776D01*
X016267Y020935D02*
X014881Y020935D01*
X015436Y021093D02*
X016267Y021093D01*
X016267Y021252D02*
X015579Y021252D01*
X015644Y021410D02*
X016267Y021410D01*
X016267Y021569D02*
X015648Y021569D01*
X015609Y021727D02*
X016266Y021727D01*
X016258Y021886D02*
X015509Y021886D01*
X015255Y022044D02*
X016351Y022044D01*
X016532Y022203D02*
X010835Y022203D01*
X010835Y022270D02*
X010838Y022272D01*
X010903Y022430D01*
X010903Y022600D01*
X010838Y022758D01*
X010718Y022878D01*
X010560Y022943D01*
X010390Y022943D01*
X010232Y022878D01*
X010112Y022758D01*
X010047Y022600D01*
X010047Y022430D01*
X010112Y022272D01*
X010115Y022270D01*
X010115Y021083D01*
X010170Y020951D01*
X010562Y020559D01*
X010562Y020555D01*
X010627Y020397D01*
X010747Y020277D01*
X010905Y020212D01*
X011075Y020212D01*
X011233Y020277D01*
X011353Y020397D01*
X011418Y020555D01*
X011418Y020725D01*
X011353Y020883D01*
X011233Y021003D01*
X011075Y021068D01*
X011071Y021068D01*
X010835Y021304D01*
X010835Y022270D01*
X010875Y022361D02*
X016691Y022361D01*
X016849Y022520D02*
X010903Y022520D01*
X010871Y022678D02*
X017008Y022678D01*
X017166Y022837D02*
X010759Y022837D01*
X010191Y022837D02*
X000550Y022837D01*
X000550Y022995D02*
X017325Y022995D01*
X017279Y022044D02*
X021516Y022044D01*
X021452Y021886D02*
X017120Y021886D01*
X016962Y021727D02*
X021452Y021727D01*
X021515Y021569D02*
X016907Y021569D01*
X016587Y021804D02*
X016575Y021816D01*
X015116Y021525D02*
X013344Y021525D01*
X012851Y021727D02*
X010835Y021727D01*
X010835Y021569D02*
X012812Y021569D01*
X012816Y021410D02*
X010835Y021410D01*
X010888Y021252D02*
X012881Y021252D01*
X013024Y021093D02*
X011046Y021093D01*
X011301Y020935D02*
X014150Y020935D01*
X014148Y021093D02*
X013665Y021093D01*
X014150Y020776D02*
X011397Y020776D01*
X011418Y020618D02*
X014150Y020618D01*
X014150Y020459D02*
X011378Y020459D01*
X011256Y020301D02*
X014150Y020301D01*
X014150Y020142D02*
X000550Y020142D01*
X000550Y019984D02*
X010091Y019984D01*
X010099Y019987D02*
X010011Y019951D01*
X009944Y019883D01*
X009914Y019812D01*
X009432Y019812D01*
X009415Y019829D01*
X009257Y019894D01*
X009087Y019894D01*
X008930Y019829D01*
X008809Y019709D01*
X008744Y019551D01*
X008744Y019381D01*
X008809Y019224D01*
X008930Y019103D01*
X009087Y019038D01*
X009257Y019038D01*
X009387Y019092D01*
X009914Y019092D01*
X009944Y019021D01*
X010011Y018953D01*
X010099Y018916D01*
X010707Y018916D01*
X010795Y018953D01*
X010830Y018988D01*
X010871Y018976D01*
X011103Y018976D01*
X011103Y019404D01*
X011199Y019404D01*
X011199Y019500D01*
X011103Y019500D01*
X011103Y019927D01*
X010871Y019927D01*
X010830Y019916D01*
X010795Y019951D01*
X010707Y019987D01*
X010099Y019987D01*
X009920Y019825D02*
X009419Y019825D01*
X008926Y019825D02*
X000550Y019825D01*
X000550Y019667D02*
X008792Y019667D01*
X008744Y019508D02*
X000550Y019508D01*
X000550Y019350D02*
X008757Y019350D01*
X008842Y019191D02*
X000550Y019191D01*
X000550Y019033D02*
X009939Y019033D01*
X010109Y018557D02*
X005366Y018557D01*
X005555Y018399D02*
X010018Y018399D01*
X010000Y018240D02*
X005628Y018240D01*
X004866Y018557D02*
X003594Y018557D01*
X003646Y018536D02*
X003450Y018617D01*
X003238Y018617D01*
X003043Y018536D01*
X002893Y018386D01*
X002812Y018190D01*
X002812Y017979D01*
X002893Y017783D01*
X003043Y017633D01*
X003238Y017552D01*
X003450Y017552D01*
X003646Y017633D01*
X003795Y017783D01*
X003876Y017979D01*
X003876Y018190D01*
X003795Y018386D01*
X003646Y018536D01*
X003783Y018399D02*
X004677Y018399D01*
X004604Y018240D02*
X003856Y018240D01*
X003876Y018082D02*
X004584Y018082D01*
X004607Y017923D02*
X003853Y017923D01*
X003777Y017765D02*
X004683Y017765D01*
X004880Y017606D02*
X003580Y017606D01*
X003108Y017606D02*
X000550Y017606D01*
X000550Y017448D02*
X007811Y017448D01*
X007891Y017289D02*
X000550Y017289D01*
X000550Y017131D02*
X007956Y017131D01*
X008110Y016972D02*
X000550Y016972D01*
X000550Y016814D02*
X008269Y016814D01*
X008427Y016655D02*
X000550Y016655D01*
X000550Y016497D02*
X008586Y016497D01*
X008744Y016338D02*
X000550Y016338D01*
X000550Y016180D02*
X008903Y016180D01*
X009061Y016021D02*
X000550Y016021D01*
X000550Y015863D02*
X003009Y015863D01*
X002902Y015704D02*
X000550Y015704D01*
X000550Y015546D02*
X002869Y015546D01*
X002889Y015387D02*
X000550Y015387D01*
X000550Y015229D02*
X002972Y015229D01*
X003326Y015229D02*
X003363Y015229D01*
X003363Y015387D02*
X003326Y015387D01*
X003326Y015546D02*
X003363Y015546D01*
X003363Y015704D02*
X003326Y015704D01*
X003326Y015863D02*
X003363Y015863D01*
X003679Y015863D02*
X004785Y015863D01*
X004808Y015886D02*
X004756Y015833D01*
X004712Y015773D01*
X004678Y015707D01*
X004655Y015636D01*
X004644Y015563D01*
X004644Y015543D01*
X005098Y015543D01*
X005098Y015998D01*
X005079Y015998D01*
X005005Y015986D01*
X004935Y015963D01*
X004868Y015929D01*
X004808Y015886D01*
X004677Y015704D02*
X003786Y015704D01*
X003819Y015546D02*
X004644Y015546D01*
X004664Y015387D02*
X003799Y015387D01*
X003716Y015229D02*
X004748Y015229D01*
X005098Y015229D02*
X005133Y015229D01*
X005133Y015387D02*
X005098Y015387D01*
X005098Y015546D02*
X005133Y015546D01*
X005133Y015704D02*
X005098Y015704D01*
X005098Y015863D02*
X005133Y015863D01*
X005447Y015863D02*
X009220Y015863D01*
X010893Y017807D02*
X010429Y018272D01*
X010748Y018557D02*
X013976Y018557D01*
X013976Y018716D02*
X000550Y018716D01*
X000550Y018874D02*
X013976Y018874D01*
X013976Y019033D02*
X011538Y019033D01*
X011551Y019046D02*
X011575Y019087D01*
X011587Y019133D01*
X011587Y019404D01*
X011199Y019404D01*
X011199Y018976D01*
X011431Y018976D01*
X011476Y018989D01*
X011517Y019012D01*
X011551Y019046D01*
X011587Y019191D02*
X013991Y019191D01*
X013976Y019350D02*
X011587Y019350D01*
X011587Y019500D02*
X011199Y019500D01*
X011199Y019927D01*
X011431Y019927D01*
X011476Y019915D01*
X011517Y019891D01*
X011551Y019858D01*
X011575Y019817D01*
X011587Y019771D01*
X011587Y019500D01*
X011587Y019508D02*
X013976Y019508D01*
X013976Y019667D02*
X011587Y019667D01*
X011570Y019825D02*
X013976Y019825D01*
X014010Y019984D02*
X010715Y019984D01*
X010724Y020301D02*
X000550Y020301D01*
X000550Y020459D02*
X010602Y020459D01*
X010503Y020618D02*
X000550Y020618D01*
X000550Y020776D02*
X010345Y020776D01*
X010186Y020935D02*
X000550Y020935D01*
X000550Y021093D02*
X010115Y021093D01*
X010115Y021252D02*
X000550Y021252D01*
X000550Y021410D02*
X010115Y021410D01*
X010115Y021569D02*
X000550Y021569D01*
X000550Y021727D02*
X010115Y021727D01*
X010115Y021886D02*
X000550Y021886D01*
X000550Y022044D02*
X010115Y022044D01*
X010115Y022203D02*
X000550Y022203D01*
X000550Y022361D02*
X010075Y022361D01*
X010047Y022520D02*
X000550Y022520D01*
X000550Y022678D02*
X010079Y022678D01*
X010835Y022044D02*
X013205Y022044D01*
X013483Y022044D02*
X014977Y022044D01*
X014723Y021886D02*
X013737Y021886D01*
X012951Y021886D02*
X010835Y021886D01*
X011103Y019825D02*
X011199Y019825D01*
X011199Y019667D02*
X011103Y019667D01*
X011103Y019508D02*
X011199Y019508D01*
X011199Y019350D02*
X011103Y019350D01*
X011103Y019191D02*
X011199Y019191D01*
X011199Y019033D02*
X011103Y019033D01*
X010839Y018399D02*
X014074Y018399D01*
X014055Y018240D02*
X010913Y018240D01*
X010893Y017807D02*
X014513Y017807D01*
X014512Y017808D01*
X014512Y018852D01*
X014512Y019600D02*
X014510Y019602D01*
X014465Y016972D02*
X014561Y016972D01*
X014561Y016814D02*
X014465Y016814D01*
X014465Y016655D02*
X014561Y016655D01*
X014996Y016180D02*
X011842Y016180D01*
X011858Y016021D02*
X014837Y016021D01*
X014679Y015863D02*
X011814Y015863D01*
X011684Y015704D02*
X014520Y015704D01*
X014362Y015546D02*
X012150Y015546D01*
X011752Y016338D02*
X015154Y016338D01*
X014464Y014595D02*
X000550Y014595D01*
X000550Y014753D02*
X011825Y014753D01*
X014411Y014436D02*
X000550Y014436D01*
X000550Y014278D02*
X014411Y014278D01*
X014411Y013168D02*
X000550Y013168D01*
X000550Y013010D02*
X014411Y013010D01*
X014411Y012851D02*
X000550Y012851D01*
X000550Y012693D02*
X014411Y012693D01*
X014411Y012534D02*
X000550Y012534D01*
X000550Y012376D02*
X014411Y012376D01*
X012942Y006353D02*
X009066Y006353D01*
X006754Y004134D02*
X015375Y004134D01*
X015321Y004080D02*
X015249Y003905D01*
X015249Y003715D01*
X015321Y003540D01*
X015455Y003406D01*
X015630Y003334D01*
X015820Y003334D01*
X015995Y003406D01*
X016129Y003540D01*
X016201Y003715D01*
X016201Y003905D01*
X016129Y004080D01*
X015995Y004214D01*
X015820Y004286D01*
X015630Y004286D01*
X015455Y004214D01*
X015321Y004080D01*
X015278Y003975D02*
X006913Y003975D01*
X007071Y003817D02*
X015249Y003817D01*
X015273Y003658D02*
X007230Y003658D01*
X007388Y003500D02*
X015362Y003500D01*
X015613Y003341D02*
X007547Y003341D01*
X007705Y003183D02*
X024832Y003183D01*
X024989Y003341D02*
X017837Y003341D01*
X017820Y003334D02*
X017995Y003406D01*
X018129Y003540D01*
X018201Y003715D01*
X018201Y003905D01*
X018129Y004080D01*
X017995Y004214D01*
X017820Y004286D01*
X017630Y004286D01*
X017455Y004214D01*
X017321Y004080D01*
X017249Y003905D01*
X017249Y003715D01*
X017321Y003540D01*
X017455Y003406D01*
X017630Y003334D01*
X017820Y003334D01*
X017613Y003341D02*
X016837Y003341D01*
X016820Y003334D02*
X016995Y003406D01*
X017129Y003540D01*
X017201Y003715D01*
X017201Y003905D01*
X017129Y004080D01*
X016995Y004214D01*
X016820Y004286D01*
X016630Y004286D01*
X016455Y004214D01*
X016321Y004080D01*
X016249Y003905D01*
X016249Y003715D01*
X016321Y003540D01*
X016455Y003406D01*
X016630Y003334D01*
X016820Y003334D01*
X016613Y003341D02*
X015837Y003341D01*
X016088Y003500D02*
X016362Y003500D01*
X016273Y003658D02*
X016177Y003658D01*
X016201Y003817D02*
X016249Y003817D01*
X016278Y003975D02*
X016172Y003975D01*
X016075Y004134D02*
X016375Y004134D01*
X017075Y004134D02*
X017375Y004134D01*
X017278Y003975D02*
X017172Y003975D01*
X017201Y003817D02*
X017249Y003817D01*
X017273Y003658D02*
X017177Y003658D01*
X017088Y003500D02*
X017362Y003500D01*
X018088Y003500D02*
X025146Y003500D01*
X025303Y003658D02*
X018177Y003658D01*
X018201Y003817D02*
X025459Y003817D01*
X025616Y003975D02*
X018172Y003975D01*
X018075Y004134D02*
X025773Y004134D01*
X025930Y004292D02*
X006596Y004292D01*
X006437Y004451D02*
X026087Y004451D01*
X026243Y004609D02*
X006279Y004609D01*
X006120Y004768D02*
X026400Y004768D01*
X026557Y004926D02*
X005962Y004926D01*
X007864Y003024D02*
X024675Y003024D01*
X024518Y002866D02*
X008022Y002866D01*
X008181Y002707D02*
X024362Y002707D01*
X024205Y002549D02*
X008339Y002549D01*
X008498Y002390D02*
X024048Y002390D01*
X023891Y002232D02*
X008656Y002232D01*
X008815Y002073D02*
X023734Y002073D01*
X023578Y001915D02*
X008973Y001915D01*
X009132Y001756D02*
X023421Y001756D01*
X023264Y001598D02*
X009290Y001598D01*
X009449Y001439D02*
X023107Y001439D01*
X022950Y001281D02*
X009607Y001281D01*
X023497Y014119D02*
X026302Y014119D01*
X026302Y014278D02*
X023655Y014278D01*
X023501Y014124D02*
X023501Y014124D01*
X023230Y014305D02*
X022230Y014305D01*
X021380Y015155D01*
X021230Y015155D01*
X021772Y015379D02*
X021930Y015505D01*
X027230Y020805D01*
X027230Y021305D01*
X028230Y022305D01*
X029230Y022305D01*
X029730Y022805D01*
X030236Y022995D02*
X031910Y022995D01*
X031910Y022837D02*
X030270Y022837D01*
X030262Y022678D02*
X031910Y022678D01*
X031910Y022520D02*
X030196Y022520D01*
X030050Y022361D02*
X031910Y022361D01*
X031910Y022203D02*
X030096Y022203D01*
X030215Y022044D02*
X031910Y022044D01*
X031910Y021886D02*
X030270Y021886D01*
X030270Y021727D02*
X031910Y021727D01*
X031910Y021569D02*
X030217Y021569D01*
X030099Y021410D02*
X031910Y021410D01*
X031910Y021252D02*
X029909Y021252D01*
X030114Y021093D02*
X031910Y021093D01*
X031910Y020935D02*
X030193Y020935D01*
X030210Y020785D02*
X029750Y020785D01*
X029750Y020325D01*
X029768Y020325D01*
X029842Y020337D01*
X029914Y020360D01*
X029982Y020394D01*
X030043Y020439D01*
X030096Y020492D01*
X030141Y020553D01*
X030175Y020621D01*
X030198Y020693D01*
X030210Y020767D01*
X030210Y020785D01*
X030210Y020776D02*
X031910Y020776D01*
X031910Y020618D02*
X030173Y020618D01*
X030063Y020459D02*
X031910Y020459D01*
X031910Y020301D02*
X028923Y020301D01*
X029148Y020459D02*
X029397Y020459D01*
X029287Y020618D02*
X029237Y020618D01*
X029710Y020618D02*
X029750Y020618D01*
X029750Y020776D02*
X029710Y020776D01*
X029710Y020459D02*
X029750Y020459D01*
X028537Y020301D02*
X027178Y020301D01*
X027337Y020459D02*
X028312Y020459D01*
X028223Y020618D02*
X027495Y020618D01*
X027550Y020776D02*
X028190Y020776D01*
X028199Y020935D02*
X027550Y020935D01*
X027550Y021093D02*
X028265Y021093D01*
X028413Y021252D02*
X027629Y021252D01*
X027788Y021410D02*
X028361Y021410D01*
X028243Y021569D02*
X027946Y021569D01*
X028105Y021727D02*
X028190Y021727D01*
X028190Y022678D02*
X026641Y022678D01*
X026658Y022837D02*
X028190Y022837D01*
X028190Y022995D02*
X026615Y022995D01*
X026487Y023154D02*
X028190Y023154D01*
X028303Y023312D02*
X000550Y023312D01*
X000550Y023154D02*
X025973Y023154D01*
X026004Y024980D02*
X026193Y024980D01*
X026368Y025053D01*
X026502Y025187D01*
X026575Y025362D01*
X026575Y025551D01*
X026502Y025726D01*
X026368Y025860D01*
X026193Y025933D01*
X026004Y025933D01*
X025829Y025860D01*
X025695Y025726D01*
X025622Y025551D01*
X025622Y025362D01*
X025695Y025187D01*
X025829Y025053D01*
X026004Y024980D01*
X025826Y025056D02*
X002252Y025056D01*
X002412Y025214D02*
X025684Y025214D01*
X025622Y025373D02*
X002573Y025373D01*
X002733Y025531D02*
X025622Y025531D01*
X025680Y025690D02*
X007461Y025690D01*
X007454Y025680D02*
X007492Y025733D01*
X007522Y025792D01*
X007542Y025854D01*
X007553Y025919D01*
X007553Y025984D01*
X007542Y026049D01*
X007522Y026111D01*
X007492Y026170D01*
X007454Y026223D01*
X007431Y026246D01*
X007408Y026269D01*
X007355Y026307D01*
X007296Y026337D01*
X007234Y026357D01*
X007169Y026368D01*
X007104Y026368D01*
X007039Y026357D01*
X006977Y026337D01*
X006918Y026307D01*
X006865Y026269D01*
X006842Y026246D01*
X007136Y025951D01*
X006842Y025657D01*
X006865Y025634D01*
X006918Y025595D01*
X006977Y025566D01*
X007039Y025545D01*
X007104Y025535D01*
X007169Y025535D01*
X007234Y025545D01*
X007296Y025566D01*
X007355Y025595D01*
X007408Y025634D01*
X007431Y025657D01*
X007454Y025680D01*
X007431Y025657D02*
X007136Y025951D01*
X007136Y025951D01*
X006842Y025657D01*
X006819Y025680D01*
X006780Y025733D01*
X006751Y025792D01*
X006730Y025854D01*
X006720Y025919D01*
X006720Y025984D01*
X006730Y026049D01*
X006751Y026111D01*
X006780Y026170D01*
X006819Y026223D01*
X006842Y026246D01*
X007136Y025951D01*
X007136Y025951D01*
X007136Y025951D01*
X007431Y025657D01*
X007398Y025690D02*
X007398Y025690D01*
X007540Y025848D02*
X025118Y025848D01*
X025120Y025846D02*
X025173Y025808D01*
X025232Y025778D01*
X025294Y025758D01*
X025359Y025747D01*
X025424Y025747D01*
X025489Y025758D01*
X025551Y025778D01*
X025610Y025808D01*
X025663Y025846D01*
X025686Y025869D01*
X025709Y025892D01*
X025747Y025945D01*
X025777Y026004D01*
X025797Y026066D01*
X025808Y026131D01*
X025808Y026196D01*
X025797Y026261D01*
X025777Y026323D01*
X025747Y026382D01*
X025709Y026435D01*
X025686Y026458D01*
X025391Y026164D01*
X025097Y026458D01*
X025120Y026481D01*
X025173Y026520D01*
X025232Y026549D01*
X025294Y026570D01*
X025359Y026580D01*
X025424Y026580D01*
X025489Y026570D01*
X025551Y026549D01*
X025610Y026520D01*
X025663Y026481D01*
X025686Y026458D01*
X025391Y026164D01*
X025391Y026164D01*
X025097Y026458D01*
X025074Y026435D01*
X025035Y026382D01*
X025006Y026323D01*
X024985Y026261D01*
X024975Y026196D01*
X024975Y026131D01*
X024985Y026066D01*
X025006Y026004D01*
X025035Y025945D01*
X025074Y025892D01*
X025097Y025869D01*
X025120Y025846D01*
X025097Y025869D02*
X025391Y026164D01*
X025391Y026164D01*
X025391Y026164D01*
X025097Y025869D01*
X025005Y026007D02*
X007549Y026007D01*
X007495Y026165D02*
X024975Y026165D01*
X025006Y026324D02*
X008182Y026324D01*
X008247Y026389D02*
X008320Y026564D01*
X008320Y026753D01*
X008247Y026928D01*
X008113Y027062D01*
X007938Y027135D01*
X007749Y027135D01*
X007574Y027062D01*
X007440Y026928D01*
X007367Y026753D01*
X007367Y026564D01*
X007440Y026389D01*
X007574Y026255D01*
X007749Y026182D01*
X007938Y026182D01*
X008113Y026255D01*
X008247Y026389D01*
X008286Y026482D02*
X025122Y026482D01*
X025231Y026324D02*
X025231Y026324D01*
X025390Y026165D02*
X025390Y026165D01*
X025391Y026164D02*
X025391Y026164D01*
X025686Y025869D01*
X025391Y026164D01*
X025393Y026165D02*
X025393Y026165D01*
X025548Y026007D02*
X025548Y026007D01*
X025665Y025848D02*
X025817Y025848D01*
X025778Y026007D02*
X029276Y026007D01*
X029117Y026165D02*
X025808Y026165D01*
X025777Y026324D02*
X028959Y026324D01*
X028800Y026482D02*
X025661Y026482D01*
X025551Y026324D02*
X025551Y026324D01*
X025234Y026007D02*
X025234Y026007D01*
X026380Y025848D02*
X029434Y025848D01*
X029593Y025690D02*
X026517Y025690D01*
X026575Y025531D02*
X029751Y025531D01*
X029910Y025373D02*
X026575Y025373D01*
X026514Y025214D02*
X030068Y025214D01*
X030227Y025056D02*
X026371Y025056D01*
X028325Y026958D02*
X008218Y026958D01*
X008301Y026799D02*
X028483Y026799D01*
X028642Y026641D02*
X008320Y026641D01*
X007984Y027116D02*
X028166Y027116D01*
X028008Y027275D02*
X004495Y027275D01*
X004655Y027433D02*
X027849Y027433D01*
X027691Y027592D02*
X004815Y027592D01*
X004976Y027750D02*
X027532Y027750D01*
X027374Y027909D02*
X005136Y027909D01*
X005296Y028067D02*
X027215Y028067D01*
X027057Y028226D02*
X005456Y028226D01*
X005616Y028384D02*
X026898Y028384D01*
X026740Y028543D02*
X005777Y028543D01*
X005937Y028701D02*
X026581Y028701D01*
X026423Y028860D02*
X006097Y028860D01*
X006257Y029018D02*
X026264Y029018D01*
X026106Y029177D02*
X016646Y029177D01*
X016649Y029178D02*
X016857Y029386D01*
X016970Y029658D01*
X016970Y029952D01*
X016857Y030224D01*
X016649Y030432D01*
X016377Y030545D01*
X016083Y030545D01*
X015811Y030432D01*
X015603Y030224D01*
X015490Y029952D01*
X015490Y029658D01*
X015603Y029386D01*
X015811Y029178D01*
X016083Y029065D01*
X016377Y029065D01*
X016649Y029178D01*
X016807Y029335D02*
X025947Y029335D01*
X025789Y029494D02*
X016902Y029494D01*
X016968Y029652D02*
X025630Y029652D01*
X025472Y029811D02*
X016970Y029811D01*
X016963Y029969D02*
X025313Y029969D01*
X025155Y030128D02*
X016897Y030128D01*
X016795Y030286D02*
X024996Y030286D01*
X024838Y030445D02*
X016620Y030445D01*
X015840Y030445D02*
X007699Y030445D01*
X007859Y030603D02*
X024679Y030603D01*
X024521Y030762D02*
X008020Y030762D01*
X008180Y030920D02*
X024362Y030920D01*
X024204Y031079D02*
X008340Y031079D01*
X008500Y031237D02*
X024045Y031237D01*
X023887Y031396D02*
X008660Y031396D01*
X008821Y031554D02*
X023728Y031554D01*
X023570Y031713D02*
X008981Y031713D01*
X009141Y031871D02*
X023411Y031871D01*
X023253Y032030D02*
X009301Y032030D01*
X009461Y032188D02*
X023094Y032188D01*
X022936Y032347D02*
X009622Y032347D01*
X007539Y030286D02*
X015665Y030286D01*
X015563Y030128D02*
X007379Y030128D01*
X007219Y029969D02*
X015497Y029969D01*
X015490Y029811D02*
X007058Y029811D01*
X006898Y029652D02*
X015492Y029652D01*
X015558Y029494D02*
X006738Y029494D01*
X006578Y029335D02*
X015653Y029335D01*
X015814Y029177D02*
X006418Y029177D01*
X007704Y027116D02*
X004335Y027116D01*
X004175Y026958D02*
X007469Y026958D01*
X007386Y026799D02*
X004014Y026799D01*
X003854Y026641D02*
X007367Y026641D01*
X007401Y026482D02*
X003694Y026482D01*
X003534Y026324D02*
X006950Y026324D01*
X006923Y026165D02*
X006923Y026165D01*
X006778Y026165D02*
X003374Y026165D01*
X003213Y026007D02*
X006724Y026007D01*
X006732Y025848D02*
X003053Y025848D01*
X002893Y025690D02*
X006812Y025690D01*
X006875Y025690D02*
X006875Y025690D01*
X007033Y025848D02*
X007033Y025848D01*
X007136Y025951D02*
X007431Y026246D01*
X007136Y025951D01*
X007136Y025951D01*
X007081Y026007D02*
X007081Y026007D01*
X007192Y026007D02*
X007192Y026007D01*
X007240Y025848D02*
X007240Y025848D01*
X007350Y026165D02*
X007350Y026165D01*
X007323Y026324D02*
X007505Y026324D01*
X012906Y024266D02*
X012883Y024195D01*
X012872Y024122D01*
X012872Y024102D01*
X013327Y024102D01*
X013327Y024557D01*
X013307Y024557D01*
X013234Y024545D01*
X013163Y024522D01*
X013097Y024488D01*
X013036Y024445D01*
X012984Y024392D01*
X012940Y024332D01*
X012906Y024266D01*
X012906Y024263D02*
X001451Y024263D01*
X001291Y024105D02*
X012872Y024105D01*
X012872Y024067D02*
X012872Y024047D01*
X012883Y023974D01*
X012906Y023903D01*
X012940Y023837D01*
X012984Y023777D01*
X013036Y023724D01*
X013097Y023681D01*
X013163Y023647D01*
X013234Y023624D01*
X013307Y023612D01*
X013327Y023612D01*
X013327Y024067D01*
X013362Y024067D01*
X013362Y024102D01*
X013816Y024102D01*
X013816Y024122D01*
X013805Y024195D01*
X013782Y024266D01*
X013748Y024332D01*
X013704Y024392D01*
X013652Y024445D01*
X013592Y024488D01*
X013525Y024522D01*
X013455Y024545D01*
X013381Y024557D01*
X013362Y024557D01*
X013362Y024102D01*
X013327Y024102D01*
X013327Y024067D01*
X012872Y024067D01*
X012893Y023946D02*
X001131Y023946D01*
X000971Y023788D02*
X012976Y023788D01*
X013218Y023629D02*
X000810Y023629D01*
X000650Y023471D02*
X031812Y023471D01*
X031910Y023312D02*
X029917Y023312D01*
X030145Y023154D02*
X031910Y023154D01*
X031653Y023629D02*
X015252Y023629D01*
X015227Y023621D02*
X015298Y023644D01*
X015365Y023678D01*
X015425Y023722D01*
X015478Y023775D01*
X015522Y023835D01*
X015556Y023902D01*
X015579Y023973D01*
X015591Y024047D01*
X015591Y024066D01*
X015134Y024066D01*
X015134Y023609D01*
X015153Y023609D01*
X015227Y023621D01*
X015134Y023629D02*
X015097Y023629D01*
X015097Y023609D02*
X015097Y024066D01*
X014641Y024066D01*
X014641Y024047D01*
X014652Y023973D01*
X014675Y023902D01*
X014709Y023835D01*
X014753Y023775D01*
X014806Y023722D01*
X014867Y023678D01*
X014933Y023644D01*
X015005Y023621D01*
X015078Y023609D01*
X015097Y023609D01*
X014980Y023629D02*
X013471Y023629D01*
X013455Y023624D02*
X013525Y023647D01*
X013592Y023681D01*
X013652Y023724D01*
X013704Y023777D01*
X013748Y023837D01*
X013782Y023903D01*
X013805Y023974D01*
X013816Y024047D01*
X013816Y024067D01*
X013362Y024067D01*
X013362Y023612D01*
X013381Y023612D01*
X013455Y023624D01*
X013362Y023629D02*
X013327Y023629D01*
X013327Y023788D02*
X013362Y023788D01*
X013362Y023946D02*
X013327Y023946D01*
X013327Y024105D02*
X013362Y024105D01*
X013362Y024263D02*
X013327Y024263D01*
X013327Y024422D02*
X013362Y024422D01*
X013675Y024422D02*
X014781Y024422D01*
X014806Y024447D02*
X014753Y024394D01*
X014709Y024334D01*
X014675Y024267D01*
X014652Y024196D01*
X014641Y024122D01*
X014641Y024103D01*
X015097Y024103D01*
X015097Y024066D01*
X015134Y024066D01*
X015134Y024103D01*
X015097Y024103D01*
X015097Y024560D01*
X015078Y024560D01*
X015005Y024548D01*
X014933Y024525D01*
X014867Y024491D01*
X014806Y024447D01*
X014674Y024263D02*
X013783Y024263D01*
X013816Y024105D02*
X014641Y024105D01*
X014661Y023946D02*
X013796Y023946D01*
X013712Y023788D02*
X014744Y023788D01*
X015097Y023788D02*
X015134Y023788D01*
X015134Y023946D02*
X015097Y023946D01*
X015097Y024105D02*
X015134Y024105D01*
X015134Y024103D02*
X015134Y024560D01*
X015153Y024560D01*
X015227Y024548D01*
X015298Y024525D01*
X015365Y024491D01*
X015425Y024447D01*
X015478Y024394D01*
X015522Y024334D01*
X015556Y024267D01*
X015579Y024196D01*
X015591Y024122D01*
X015591Y024103D01*
X015134Y024103D01*
X015134Y024263D02*
X015097Y024263D01*
X015097Y024422D02*
X015134Y024422D01*
X015451Y024422D02*
X030861Y024422D01*
X030702Y024580D02*
X001772Y024580D01*
X001932Y024739D02*
X030544Y024739D01*
X030385Y024897D02*
X002092Y024897D01*
X001611Y024422D02*
X013013Y024422D01*
X015488Y023788D02*
X031495Y023788D01*
X031336Y023946D02*
X015571Y023946D01*
X015591Y024105D02*
X031178Y024105D01*
X031019Y024263D02*
X015558Y024263D01*
X023374Y016497D02*
X023433Y016497D01*
X023404Y016526D02*
X023487Y016442D01*
X023645Y016377D01*
X023815Y016377D01*
X023973Y016442D01*
X024093Y016562D01*
X024158Y016720D01*
X024158Y016781D01*
X024363Y016985D01*
X025294Y016985D01*
X025411Y017034D01*
X026754Y018377D01*
X026802Y018377D01*
X026802Y018329D01*
X024099Y015626D01*
X024088Y015653D01*
X023968Y015773D01*
X023810Y015838D01*
X023640Y015838D01*
X023482Y015773D01*
X023439Y015730D01*
X022606Y015729D01*
X023404Y016526D01*
X023216Y016338D02*
X024810Y016338D01*
X024652Y016180D02*
X023057Y016180D01*
X022899Y016021D02*
X024493Y016021D01*
X024335Y015863D02*
X022740Y015863D01*
X022318Y015409D02*
X023725Y015410D01*
X024036Y015704D02*
X024176Y015704D01*
X024027Y016497D02*
X024969Y016497D01*
X025127Y016655D02*
X024131Y016655D01*
X024191Y016814D02*
X025286Y016814D01*
X025444Y016972D02*
X024350Y016972D01*
X024230Y017305D02*
X023730Y016805D01*
X025508Y017131D02*
X025603Y017131D01*
X025667Y017289D02*
X025761Y017289D01*
X025825Y017448D02*
X025920Y017448D01*
X025984Y017606D02*
X026078Y017606D01*
X026142Y017765D02*
X026237Y017765D01*
X026301Y017923D02*
X026395Y017923D01*
X026459Y018082D02*
X026554Y018082D01*
X026618Y018240D02*
X026712Y018240D01*
X027230Y018305D02*
X023230Y014305D01*
X023814Y014436D02*
X026306Y014436D01*
X026465Y014595D02*
X023972Y014595D01*
X026861Y019984D02*
X031910Y019984D01*
X031910Y020142D02*
X027020Y020142D01*
X029270Y023154D02*
X029315Y023154D01*
X029157Y023312D02*
X029543Y023312D01*
X003094Y018557D02*
X000550Y018557D01*
X000550Y018399D02*
X002905Y018399D01*
X002832Y018240D02*
X000550Y018240D01*
X000550Y018082D02*
X002812Y018082D01*
X002835Y017923D02*
X000550Y017923D01*
X000550Y017765D02*
X002911Y017765D01*
D23*
X010597Y013839D03*
D24*
X010230Y009705D02*
X013130Y006805D01*
X024230Y006805D01*
X025020Y007595D01*
X025020Y007951D01*
X025366Y007951D01*
X025371Y007946D01*
X025020Y007951D02*
X023826Y009115D01*
X024967Y010257D02*
X026084Y009171D01*
X026084Y008659D01*
X026079Y008654D01*
M02*
