G75*
%MOIN*%
%OFA0B0*%
%FSLAX24Y24*%
%IPPOS*%
%LPD*%
%AMOC8*
5,1,8,0,0,1.08239X$1,22.5*
%
%ADD10C,0.1060*%
%ADD11R,0.0572X0.0651*%
%ADD12OC8,0.0456*%
%ADD13C,0.0456*%
%ADD14R,0.0651X0.0572*%
%ADD15R,0.0769X0.0729*%
%ADD16R,0.0660X0.0660*%
%ADD17C,0.0660*%
%ADD18C,0.0651*%
%ADD19C,0.0645*%
%ADD20C,0.0532*%
%ADD21C,0.0436*%
%ADD22C,0.0397*%
D10*
X002230Y010805D03*
X016230Y029805D03*
X030230Y010805D03*
D11*
X011151Y019452D03*
X010403Y019452D03*
D12*
X026740Y014250D03*
D13*
X028118Y014250D03*
D14*
X014513Y017059D03*
X014513Y017807D03*
X014512Y018852D03*
X014512Y019600D03*
D15*
G36*
X024439Y010243D02*
X024981Y010785D01*
X025495Y010271D01*
X024953Y009729D01*
X024439Y010243D01*
G37*
G36*
X023298Y009101D02*
X023840Y009643D01*
X024354Y009129D01*
X023812Y008587D01*
X023298Y009101D01*
G37*
D16*
X028730Y022805D03*
D17*
X028730Y021805D03*
X028730Y020805D03*
X029730Y020805D03*
X029730Y021805D03*
X029730Y022805D03*
D18*
X015116Y024085D03*
X003344Y015525D03*
D19*
X005116Y015525D03*
X005116Y018085D03*
X003344Y018085D03*
X013344Y021525D03*
X015116Y021525D03*
X013344Y024085D03*
D20*
X007844Y026659D03*
X007136Y025951D03*
X005126Y009649D03*
X005834Y008941D03*
X008626Y006169D03*
X009334Y005461D03*
X015725Y003810D03*
X016725Y003810D03*
X017725Y003810D03*
X025371Y007946D03*
X026079Y008654D03*
X026099Y025456D03*
X025391Y026164D03*
D21*
X005708Y005798D03*
X004002Y007661D03*
X007662Y003794D03*
X009834Y001825D03*
X012812Y001545D03*
X016286Y001452D03*
X019202Y001483D03*
X020230Y004805D03*
X017915Y005676D03*
X017100Y007441D03*
X018480Y008805D03*
X020336Y009526D03*
X018730Y011305D03*
X019474Y013432D03*
X019680Y014755D03*
X021230Y015155D03*
X021772Y015379D03*
X022318Y015409D03*
X021930Y016205D03*
X020810Y016960D03*
X017730Y017805D03*
X017163Y017073D03*
X017730Y015955D03*
X017730Y015305D03*
X016587Y014827D03*
X015711Y015668D03*
X014230Y016102D03*
X012048Y015124D03*
X011436Y015122D03*
X011430Y016055D03*
X010429Y018272D03*
X009172Y019466D03*
X008230Y017555D03*
X007730Y015305D03*
X010610Y011660D03*
X012249Y012276D03*
X014230Y013305D03*
X014731Y011444D03*
X016355Y009820D03*
X012230Y009305D03*
X010230Y009705D03*
X000931Y013063D03*
X000962Y016385D03*
X001086Y020266D03*
X001773Y023966D03*
X003153Y025452D03*
X007992Y030140D03*
X010194Y031879D03*
X013855Y031941D03*
X018136Y029602D03*
X018818Y031754D03*
X022478Y031692D03*
X022291Y028774D03*
X025549Y028898D03*
X027930Y026598D03*
X029599Y024929D03*
X031126Y023089D03*
X031219Y019923D03*
X028180Y017055D03*
X027230Y018305D03*
X026730Y018805D03*
X027709Y019683D03*
X026230Y021805D03*
X026230Y022805D03*
X021880Y021805D03*
X018744Y019797D03*
X017481Y020857D03*
X015586Y019984D03*
X015681Y018727D03*
X010990Y020640D03*
X010475Y022515D03*
X011919Y025478D03*
X017667Y023403D03*
X019654Y025327D03*
X023675Y018525D03*
X025260Y016885D03*
X023730Y016805D03*
X023725Y015410D03*
X025244Y011797D03*
X022756Y008035D03*
X026274Y005426D03*
X024072Y003439D03*
X022991Y002326D03*
X028477Y007506D03*
X029792Y009274D03*
X031219Y010547D03*
X031281Y013217D03*
X031250Y015514D03*
D22*
X010597Y013839D03*
M02*
