G75*
%MOIN*%
%OFA0B0*%
%FSLAX24Y24*%
%IPPOS*%
%LPD*%
%AMOC8*
5,1,8,0,0,1.08239X$1,22.5*
%
%ADD10C,0.0060*%
%ADD11C,0.0050*%
%ADD12C,0.0028*%
%ADD13R,0.0118X0.0276*%
%ADD14C,0.0120*%
%ADD15C,0.0020*%
%ADD16C,0.0100*%
%ADD17C,0.0030*%
%ADD18R,0.0059X0.0118*%
%ADD19R,0.0118X0.0118*%
%ADD20C,0.0080*%
%ADD21R,0.0620X0.0240*%
%ADD22C,0.0040*%
%ADD23R,0.0340X0.0300*%
D10*
X010172Y004754D02*
X010172Y005254D01*
X010422Y005504D01*
X011922Y005504D01*
X012172Y005254D01*
X012172Y004754D01*
X011922Y004504D01*
X010422Y004504D01*
X010172Y004754D01*
X010422Y005504D02*
X010172Y005754D01*
X010172Y006254D01*
X010422Y006504D01*
X011922Y006504D01*
X012172Y006254D01*
X012172Y005754D01*
X011922Y005504D01*
X011922Y006504D02*
X012172Y006754D01*
X012172Y007254D01*
X011922Y007504D01*
X010422Y007504D01*
X010172Y007254D01*
X010172Y006754D01*
X010422Y006504D01*
X016421Y007074D02*
X016848Y007074D01*
X016634Y007287D02*
X016634Y006860D01*
X018521Y008274D02*
X018948Y008274D01*
X018734Y008487D02*
X018734Y008060D01*
X018491Y004274D02*
X018391Y004174D01*
X018291Y004274D01*
X017491Y004274D01*
X017391Y004174D01*
X017291Y004274D01*
X016391Y004274D01*
X016391Y003274D01*
X017291Y003274D01*
X017391Y003374D01*
X017491Y003274D01*
X018291Y003274D01*
X018391Y003374D01*
X018491Y003274D01*
X019291Y003274D01*
X019391Y003374D01*
X019491Y003274D01*
X020291Y003274D01*
X020391Y003374D01*
X020491Y003274D01*
X021391Y003274D01*
X021391Y004274D01*
X020491Y004274D01*
X020391Y004174D01*
X020291Y004274D01*
X019491Y004274D01*
X019391Y004174D01*
X019291Y004274D01*
X018491Y004274D01*
X015534Y013110D02*
X015534Y013537D01*
X015321Y013324D02*
X015748Y013324D01*
X011134Y017760D02*
X011134Y018187D01*
X010921Y017974D02*
X011348Y017974D01*
X010441Y018874D02*
X010441Y020774D01*
X010439Y020804D01*
X010434Y020834D01*
X010425Y020863D01*
X010412Y020890D01*
X010397Y020916D01*
X010378Y020940D01*
X010357Y020961D01*
X010333Y020980D01*
X010307Y020995D01*
X010280Y021008D01*
X010251Y021017D01*
X010221Y021022D01*
X010191Y021024D01*
X005691Y021024D01*
X005661Y021022D01*
X005631Y021017D01*
X005602Y021008D01*
X005575Y020995D01*
X005549Y020980D01*
X005525Y020961D01*
X005504Y020940D01*
X005485Y020916D01*
X005470Y020890D01*
X005457Y020863D01*
X005448Y020834D01*
X005443Y020804D01*
X005441Y020774D01*
X005441Y018874D01*
X005443Y018844D01*
X005448Y018814D01*
X005457Y018785D01*
X005470Y018758D01*
X005485Y018732D01*
X005504Y018708D01*
X005525Y018687D01*
X005549Y018668D01*
X005575Y018653D01*
X005602Y018640D01*
X005631Y018631D01*
X005661Y018626D01*
X005691Y018624D01*
X010191Y018624D01*
X010221Y018626D01*
X010251Y018631D01*
X010280Y018640D01*
X010307Y018653D01*
X010333Y018668D01*
X010357Y018687D01*
X010378Y018708D01*
X010397Y018732D01*
X010412Y018758D01*
X010425Y018785D01*
X010434Y018814D01*
X010439Y018844D01*
X010441Y018874D01*
X009241Y014654D02*
X009241Y013514D01*
X008941Y013514D01*
X008941Y014654D01*
X009241Y014654D01*
X003491Y016424D02*
X003491Y017324D01*
X003391Y017424D01*
X003491Y017524D01*
X003491Y018324D01*
X003391Y018424D01*
X003491Y018524D01*
X003491Y019324D01*
X003391Y019424D01*
X003491Y019524D01*
X003491Y020324D01*
X003391Y020424D01*
X003491Y020524D01*
X003491Y021424D01*
X002491Y021424D01*
X002491Y020524D01*
X002591Y020424D01*
X002491Y020324D01*
X002491Y019524D01*
X002591Y019424D01*
X002491Y019324D01*
X002491Y018524D01*
X002591Y018424D01*
X002491Y018324D01*
X002491Y017524D01*
X002591Y017424D01*
X002491Y017324D01*
X002491Y016424D01*
X003491Y016424D01*
X015921Y019574D02*
X016348Y019574D01*
X016134Y019787D02*
X016134Y019360D01*
X027517Y020159D02*
X027517Y018392D01*
X027518Y018388D02*
X027519Y018371D01*
X027524Y018354D01*
X027531Y018339D01*
X027541Y018325D01*
X027553Y018313D01*
X027567Y018303D01*
X027582Y018296D01*
X027599Y018291D01*
X027616Y018290D01*
X027620Y018289D02*
X027671Y018289D01*
X027915Y018289D02*
X028167Y018289D01*
X028411Y018289D02*
X028667Y018289D01*
X028911Y018289D02*
X029167Y018289D01*
X029407Y018289D02*
X029458Y018289D01*
X029466Y018290D02*
X029483Y018291D01*
X029500Y018296D01*
X029515Y018303D01*
X029529Y018313D01*
X029541Y018325D01*
X029551Y018339D01*
X029558Y018354D01*
X029563Y018371D01*
X029564Y018388D01*
X029564Y020159D01*
X029563Y020176D01*
X029558Y020193D01*
X029551Y020208D01*
X029541Y020222D01*
X029529Y020234D01*
X029515Y020244D01*
X029500Y020251D01*
X029483Y020256D01*
X029466Y020257D01*
X029470Y020258D02*
X029411Y020258D01*
X029167Y020258D02*
X028915Y020258D01*
X028667Y020258D02*
X028415Y020258D01*
X028167Y020258D02*
X027915Y020258D01*
X027671Y020258D02*
X027620Y020258D01*
X027616Y020257D02*
X027599Y020256D01*
X027582Y020251D01*
X027567Y020244D01*
X027553Y020234D01*
X027541Y020222D01*
X027531Y020208D01*
X027524Y020193D01*
X027519Y020176D01*
X027518Y020159D01*
X030617Y020209D02*
X030617Y018442D01*
X030618Y018438D02*
X030619Y018421D01*
X030624Y018404D01*
X030631Y018389D01*
X030641Y018375D01*
X030653Y018363D01*
X030667Y018353D01*
X030682Y018346D01*
X030699Y018341D01*
X030716Y018340D01*
X030720Y018339D02*
X030771Y018339D01*
X031015Y018339D02*
X031267Y018339D01*
X031511Y018339D02*
X031767Y018339D01*
X032011Y018339D02*
X032267Y018339D01*
X032507Y018339D02*
X032558Y018339D01*
X032566Y018340D02*
X032583Y018341D01*
X032600Y018346D01*
X032615Y018353D01*
X032629Y018363D01*
X032641Y018375D01*
X032651Y018389D01*
X032658Y018404D01*
X032663Y018421D01*
X032664Y018438D01*
X032664Y020209D01*
X032663Y020226D01*
X032658Y020243D01*
X032651Y020258D01*
X032641Y020272D01*
X032629Y020284D01*
X032615Y020294D01*
X032600Y020301D01*
X032583Y020306D01*
X032566Y020307D01*
X032570Y020308D02*
X032511Y020308D01*
X032267Y020308D02*
X032015Y020308D01*
X031767Y020308D02*
X031515Y020308D01*
X031267Y020308D02*
X031015Y020308D01*
X030771Y020308D02*
X030720Y020308D01*
X030716Y020307D02*
X030699Y020306D01*
X030682Y020301D01*
X030667Y020294D01*
X030653Y020284D01*
X030641Y020272D01*
X030631Y020258D01*
X030624Y020243D01*
X030619Y020226D01*
X030618Y020209D01*
X029731Y014136D02*
X029731Y013112D01*
X029729Y013092D01*
X029725Y013072D01*
X029717Y013054D01*
X029707Y013037D01*
X029694Y013021D01*
X029678Y013008D01*
X029661Y012998D01*
X029643Y012990D01*
X029623Y012986D01*
X029603Y012984D01*
X028579Y012984D02*
X028559Y012986D01*
X028539Y012990D01*
X028521Y012998D01*
X028504Y013008D01*
X028488Y013021D01*
X028475Y013037D01*
X028465Y013054D01*
X028457Y013072D01*
X028453Y013092D01*
X028451Y013112D01*
X028452Y013112D02*
X028452Y014136D01*
X028451Y014136D02*
X028453Y014156D01*
X028457Y014176D01*
X028465Y014194D01*
X028475Y014211D01*
X028488Y014227D01*
X028504Y014240D01*
X028521Y014250D01*
X028539Y014258D01*
X028559Y014262D01*
X028579Y014264D01*
X029603Y014264D02*
X029623Y014262D01*
X029643Y014258D01*
X029661Y014250D01*
X029678Y014240D01*
X029694Y014227D01*
X029707Y014211D01*
X029717Y014194D01*
X029725Y014176D01*
X029729Y014156D01*
X029731Y014136D01*
D11*
X006795Y006072D02*
X006795Y005639D01*
X007583Y005639D02*
X007583Y006072D01*
X007567Y007219D02*
X007567Y009063D01*
X007692Y009188D01*
X009535Y009188D01*
X009535Y007219D01*
X007567Y007219D01*
X007797Y008834D02*
X007799Y008856D01*
X007804Y008876D01*
X007814Y008896D01*
X007826Y008914D01*
X007841Y008929D01*
X007859Y008941D01*
X007879Y008951D01*
X007899Y008956D01*
X007921Y008958D01*
X007943Y008956D01*
X007963Y008951D01*
X007983Y008941D01*
X008001Y008929D01*
X008016Y008914D01*
X008028Y008896D01*
X008038Y008876D01*
X008043Y008856D01*
X008045Y008834D01*
X008043Y008812D01*
X008038Y008792D01*
X008028Y008772D01*
X008016Y008754D01*
X008001Y008739D01*
X007983Y008727D01*
X007963Y008717D01*
X007943Y008712D01*
X007921Y008710D01*
X007899Y008712D01*
X007879Y008717D01*
X007859Y008727D01*
X007841Y008739D01*
X007826Y008754D01*
X007814Y008772D01*
X007804Y008792D01*
X007799Y008812D01*
X007797Y008834D01*
X005781Y007246D02*
X004521Y007246D01*
X004521Y006261D01*
X005781Y006261D01*
X005781Y007246D01*
X007315Y013549D02*
X007315Y013849D01*
X007315Y013699D02*
X007766Y013699D01*
X007691Y014009D02*
X007766Y014084D01*
X007766Y014234D01*
X007691Y014309D01*
X007616Y014309D01*
X007541Y014234D01*
X007541Y014159D01*
X007541Y014234D02*
X007466Y014309D01*
X007391Y014309D01*
X007315Y014234D01*
X007315Y014084D01*
X007391Y014009D01*
X003216Y015999D02*
X003216Y016299D01*
X003216Y016149D02*
X002765Y016149D01*
X002916Y015999D01*
X002316Y016524D02*
X002241Y016449D01*
X002316Y016524D02*
X002316Y016674D01*
X002241Y016749D01*
X002166Y016749D01*
X002091Y016674D01*
X002091Y016524D01*
X002016Y016449D01*
X001941Y016449D01*
X001865Y016524D01*
X001865Y016674D01*
X001941Y016749D01*
X001865Y016909D02*
X002166Y016909D01*
X002316Y017059D01*
X002166Y017209D01*
X001865Y017209D01*
X001941Y017369D02*
X001865Y017444D01*
X001865Y017595D01*
X001941Y017670D01*
X002016Y017670D01*
X002091Y017595D01*
X002166Y017670D01*
X002241Y017670D01*
X002316Y017595D01*
X002316Y017444D01*
X002241Y017369D01*
X002091Y017520D02*
X002091Y017595D01*
X006116Y017899D02*
X006116Y018349D01*
X006341Y018349D01*
X006416Y018274D01*
X006416Y018124D01*
X006341Y018049D01*
X006116Y018049D01*
X006266Y018049D02*
X006416Y017899D01*
X006576Y017899D02*
X006877Y017899D01*
X007037Y017974D02*
X007112Y017899D01*
X007262Y017899D01*
X007337Y017974D01*
X007337Y018049D01*
X007262Y018124D01*
X007112Y018124D01*
X007037Y018199D01*
X007037Y018274D01*
X007112Y018349D01*
X007262Y018349D01*
X007337Y018274D01*
X006877Y018349D02*
X006576Y018349D01*
X006576Y017899D01*
X006576Y018124D02*
X006726Y018124D01*
X009616Y017999D02*
X009916Y017999D01*
X009766Y017999D02*
X009766Y018449D01*
X009616Y018299D01*
X010076Y018374D02*
X010076Y018074D01*
X010377Y018374D01*
X010377Y018074D01*
X010301Y017999D01*
X010151Y017999D01*
X010076Y018074D01*
X010076Y018374D02*
X010151Y018449D01*
X010301Y018449D01*
X010377Y018374D01*
X013911Y016844D02*
X014511Y016844D01*
X014511Y015044D02*
X013911Y015044D01*
X017254Y017346D02*
X017254Y017661D01*
X017648Y017661D01*
X019599Y019344D02*
X019599Y020604D01*
X020583Y020604D01*
X020583Y019344D01*
X019599Y019344D01*
X015311Y019562D02*
X015311Y020546D01*
X007727Y021274D02*
X007651Y021199D01*
X007501Y021199D01*
X007426Y021274D01*
X007266Y021274D02*
X007266Y021649D01*
X007426Y021574D02*
X007501Y021649D01*
X007651Y021649D01*
X007727Y021574D01*
X007727Y021499D01*
X007651Y021424D01*
X007727Y021349D01*
X007727Y021274D01*
X007651Y021424D02*
X007576Y021424D01*
X007266Y021274D02*
X007191Y021199D01*
X007041Y021199D01*
X006966Y021274D01*
X006966Y021649D01*
X006116Y021199D02*
X005816Y021199D01*
X005966Y021199D02*
X005966Y021649D01*
X005816Y021499D01*
X003216Y021624D02*
X003141Y021549D01*
X003216Y021624D02*
X003216Y021774D01*
X003141Y021849D01*
X002991Y021849D01*
X002916Y021774D01*
X002916Y021699D01*
X002991Y021549D01*
X002765Y021549D01*
X002765Y021849D01*
X017254Y010180D02*
X017254Y009787D01*
X017648Y009787D01*
X020521Y007466D02*
X020521Y006482D01*
X023281Y007082D02*
X023281Y008066D01*
X023866Y007699D02*
X024016Y007849D01*
X024166Y007699D01*
X024166Y007399D01*
X024326Y007399D02*
X024326Y007849D01*
X024551Y007849D01*
X024627Y007774D01*
X024627Y007624D01*
X024551Y007549D01*
X024326Y007549D01*
X024476Y007549D02*
X024627Y007399D01*
X024787Y007399D02*
X025087Y007399D01*
X025247Y007399D02*
X025247Y007849D01*
X025547Y007849D01*
X025397Y007624D02*
X025247Y007624D01*
X025087Y007849D02*
X024787Y007849D01*
X024787Y007399D01*
X024787Y007624D02*
X024937Y007624D01*
X024166Y007624D02*
X023866Y007624D01*
X023866Y007699D02*
X023866Y007399D01*
X024734Y009787D02*
X025128Y009787D01*
X025128Y010180D01*
X029915Y013421D02*
X029915Y013571D01*
X029915Y013496D02*
X030366Y013496D01*
X030366Y013421D02*
X030366Y013571D01*
X030291Y013728D02*
X030366Y013803D01*
X030366Y013953D01*
X030291Y014028D01*
X030366Y014188D02*
X030366Y014488D01*
X030366Y014338D02*
X029915Y014338D01*
X030066Y014188D01*
X029991Y014028D02*
X029915Y013953D01*
X029915Y013803D01*
X029991Y013728D01*
X030291Y013728D01*
X025128Y017267D02*
X025128Y017424D01*
X024892Y017661D01*
X024734Y017661D01*
X026940Y018449D02*
X027316Y018449D01*
X027391Y018524D01*
X027391Y018674D01*
X027316Y018749D01*
X026940Y018749D01*
X027016Y018909D02*
X026940Y018984D01*
X026940Y019134D01*
X027016Y019209D01*
X027091Y019209D01*
X027391Y018909D01*
X027391Y019209D01*
X030040Y019184D02*
X030266Y018959D01*
X030266Y019259D01*
X030491Y019184D02*
X030040Y019184D01*
X030040Y018799D02*
X030416Y018799D01*
X030491Y018724D01*
X030491Y018574D01*
X030416Y018499D01*
X030040Y018499D01*
X029862Y022849D02*
X029712Y022849D01*
X029637Y022924D01*
X029937Y023224D01*
X029937Y022924D01*
X029862Y022849D01*
X029637Y022924D02*
X029637Y023224D01*
X029712Y023299D01*
X029862Y023299D01*
X029937Y023224D01*
X030416Y023224D02*
X030416Y022924D01*
X030491Y022849D01*
X030641Y022849D01*
X030716Y022924D01*
X030876Y022849D02*
X031177Y022849D01*
X031337Y022924D02*
X031337Y023224D01*
X031412Y023299D01*
X031562Y023299D01*
X031637Y023224D01*
X031337Y022924D01*
X031412Y022849D01*
X031562Y022849D01*
X031637Y022924D01*
X031637Y023224D01*
X030876Y023299D02*
X030876Y022849D01*
X030716Y023224D02*
X030641Y023299D01*
X030491Y023299D01*
X030416Y023224D01*
X029477Y023299D02*
X029477Y022849D01*
X029477Y023074D02*
X029176Y023074D01*
X029016Y023224D02*
X028941Y023299D01*
X028791Y023299D01*
X028716Y023224D01*
X028716Y022924D01*
X028791Y022849D01*
X028941Y022849D01*
X029016Y022924D01*
X029176Y022849D02*
X029176Y023299D01*
X026687Y022849D02*
X026387Y022849D01*
X026537Y022849D02*
X026537Y023299D01*
X026387Y023149D01*
X026227Y022849D02*
X025926Y022849D01*
X025926Y023299D01*
X025766Y023224D02*
X025691Y023299D01*
X025541Y023299D01*
X025466Y023224D01*
X025466Y022924D01*
X025541Y022849D01*
X025691Y022849D01*
X025766Y022924D01*
X024937Y022849D02*
X024637Y022849D01*
X024787Y022849D02*
X024787Y023299D01*
X024637Y023149D01*
X024477Y023074D02*
X024176Y023074D01*
X024016Y023224D02*
X023941Y023299D01*
X023791Y023299D01*
X023716Y023224D01*
X023716Y022924D01*
X023791Y022849D01*
X023941Y022849D01*
X024016Y022924D01*
X024176Y022849D02*
X024176Y023299D01*
X024477Y023299D02*
X024477Y022849D01*
X033276Y007499D02*
X033276Y007049D01*
X033126Y007049D02*
X033427Y007049D01*
X033587Y007049D02*
X033887Y007349D01*
X033887Y007424D01*
X033812Y007499D01*
X033662Y007499D01*
X033587Y007424D01*
X033276Y007499D02*
X033126Y007349D01*
X032966Y007274D02*
X032666Y007274D01*
X032816Y007424D02*
X032816Y007124D01*
X033587Y007049D02*
X033887Y007049D01*
X033812Y005299D02*
X033587Y005299D01*
X033587Y004849D01*
X033812Y004849D01*
X033887Y004924D01*
X033887Y005224D01*
X033812Y005299D01*
X033427Y005299D02*
X033427Y004849D01*
X033126Y005299D01*
X033126Y004849D01*
X032966Y004924D02*
X032966Y005074D01*
X032816Y005074D01*
X032666Y005224D02*
X032666Y004924D01*
X032741Y004849D01*
X032891Y004849D01*
X032966Y004924D01*
X032966Y005224D02*
X032891Y005299D01*
X032741Y005299D01*
X032666Y005224D01*
X021706Y003549D02*
X021405Y003549D01*
X021556Y003549D02*
X021556Y003999D01*
X021405Y003849D01*
X021181Y003099D02*
X021031Y003099D01*
X020955Y003024D01*
X020795Y003099D02*
X020795Y002799D01*
X020645Y002649D01*
X020495Y002799D01*
X020495Y003099D01*
X020335Y003024D02*
X020260Y003099D01*
X020110Y003099D01*
X020035Y003024D01*
X020035Y002949D01*
X020110Y002874D01*
X020260Y002874D01*
X020335Y002799D01*
X020335Y002724D01*
X020260Y002649D01*
X020110Y002649D01*
X020035Y002724D01*
X020955Y002649D02*
X021256Y002949D01*
X021256Y003024D01*
X021181Y003099D01*
X021256Y002649D02*
X020955Y002649D01*
X016156Y003624D02*
X016081Y003549D01*
X015931Y003549D01*
X015855Y003624D01*
X015855Y003774D02*
X016006Y003849D01*
X016081Y003849D01*
X016156Y003774D01*
X016156Y003624D01*
X015855Y003774D02*
X015855Y003999D01*
X016156Y003999D01*
D12*
X020275Y006600D02*
X020275Y007387D01*
X020767Y007387D02*
X020767Y006600D01*
X023035Y007200D02*
X023035Y007987D01*
X023527Y007987D02*
X023527Y007200D01*
X015557Y019680D02*
X015557Y020467D01*
X015065Y020467D02*
X015065Y019680D01*
D13*
X015311Y020074D03*
X023281Y007594D03*
X020521Y006994D03*
D14*
X024301Y017070D02*
X024303Y017100D01*
X024309Y017130D01*
X024318Y017159D01*
X024331Y017186D01*
X024348Y017211D01*
X024367Y017234D01*
X024390Y017255D01*
X024415Y017272D01*
X024441Y017286D01*
X024470Y017296D01*
X024499Y017303D01*
X024529Y017306D01*
X024560Y017305D01*
X024590Y017300D01*
X024619Y017291D01*
X024646Y017279D01*
X024672Y017264D01*
X024696Y017245D01*
X024717Y017223D01*
X024735Y017199D01*
X024750Y017172D01*
X024761Y017144D01*
X024769Y017115D01*
X024773Y017085D01*
X024773Y017055D01*
X024769Y017025D01*
X024761Y016996D01*
X024750Y016968D01*
X024735Y016941D01*
X024717Y016917D01*
X024696Y016895D01*
X024672Y016876D01*
X024646Y016861D01*
X024619Y016849D01*
X024590Y016840D01*
X024560Y016835D01*
X024529Y016834D01*
X024499Y016837D01*
X024470Y016844D01*
X024441Y016854D01*
X024415Y016868D01*
X024390Y016885D01*
X024367Y016906D01*
X024348Y016929D01*
X024331Y016954D01*
X024318Y016981D01*
X024309Y017010D01*
X024303Y017040D01*
X024301Y017070D01*
D15*
X027785Y018835D02*
X027787Y018862D01*
X027793Y018889D01*
X027802Y018915D01*
X027815Y018939D01*
X027831Y018962D01*
X027850Y018981D01*
X027872Y018998D01*
X027896Y019012D01*
X027921Y019022D01*
X027948Y019029D01*
X027975Y019032D01*
X028003Y019031D01*
X028030Y019026D01*
X028056Y019018D01*
X028080Y019006D01*
X028103Y018990D01*
X028124Y018972D01*
X028141Y018951D01*
X028156Y018927D01*
X028167Y018902D01*
X028175Y018876D01*
X028179Y018849D01*
X028179Y018821D01*
X028175Y018794D01*
X028167Y018768D01*
X028156Y018743D01*
X028141Y018719D01*
X028124Y018698D01*
X028103Y018680D01*
X028081Y018664D01*
X028056Y018652D01*
X028030Y018644D01*
X028003Y018639D01*
X027975Y018638D01*
X027948Y018641D01*
X027921Y018648D01*
X027896Y018658D01*
X027872Y018672D01*
X027850Y018689D01*
X027831Y018708D01*
X027815Y018731D01*
X027802Y018755D01*
X027793Y018781D01*
X027787Y018808D01*
X027785Y018835D01*
X030885Y018885D02*
X030887Y018912D01*
X030893Y018939D01*
X030902Y018965D01*
X030915Y018989D01*
X030931Y019012D01*
X030950Y019031D01*
X030972Y019048D01*
X030996Y019062D01*
X031021Y019072D01*
X031048Y019079D01*
X031075Y019082D01*
X031103Y019081D01*
X031130Y019076D01*
X031156Y019068D01*
X031180Y019056D01*
X031203Y019040D01*
X031224Y019022D01*
X031241Y019001D01*
X031256Y018977D01*
X031267Y018952D01*
X031275Y018926D01*
X031279Y018899D01*
X031279Y018871D01*
X031275Y018844D01*
X031267Y018818D01*
X031256Y018793D01*
X031241Y018769D01*
X031224Y018748D01*
X031203Y018730D01*
X031181Y018714D01*
X031156Y018702D01*
X031130Y018694D01*
X031103Y018689D01*
X031075Y018688D01*
X031048Y018691D01*
X031021Y018698D01*
X030996Y018708D01*
X030972Y018722D01*
X030950Y018739D01*
X030931Y018758D01*
X030915Y018781D01*
X030902Y018805D01*
X030893Y018831D01*
X030887Y018858D01*
X030885Y018885D01*
X029266Y013935D02*
X029268Y013962D01*
X029274Y013989D01*
X029283Y014015D01*
X029296Y014039D01*
X029312Y014062D01*
X029331Y014081D01*
X029353Y014098D01*
X029377Y014112D01*
X029402Y014122D01*
X029429Y014129D01*
X029456Y014132D01*
X029484Y014131D01*
X029511Y014126D01*
X029537Y014118D01*
X029561Y014106D01*
X029584Y014090D01*
X029605Y014072D01*
X029622Y014051D01*
X029637Y014027D01*
X029648Y014002D01*
X029656Y013976D01*
X029660Y013949D01*
X029660Y013921D01*
X029656Y013894D01*
X029648Y013868D01*
X029637Y013843D01*
X029622Y013819D01*
X029605Y013798D01*
X029584Y013780D01*
X029562Y013764D01*
X029537Y013752D01*
X029511Y013744D01*
X029484Y013739D01*
X029456Y013738D01*
X029429Y013741D01*
X029402Y013748D01*
X029377Y013758D01*
X029353Y013772D01*
X029331Y013789D01*
X029312Y013808D01*
X029296Y013831D01*
X029283Y013855D01*
X029274Y013881D01*
X029268Y013908D01*
X029266Y013935D01*
X011421Y015279D02*
X011421Y015425D01*
X011421Y015500D02*
X011201Y015500D01*
X011201Y015610D01*
X011237Y015646D01*
X011311Y015646D01*
X011347Y015610D01*
X011347Y015500D01*
X011347Y015573D02*
X011421Y015646D01*
X011421Y015721D02*
X011274Y015721D01*
X011201Y015794D01*
X011274Y015867D01*
X011421Y015867D01*
X011384Y015942D02*
X011421Y015978D01*
X011421Y016052D01*
X011384Y016088D01*
X011347Y016088D01*
X011311Y016052D01*
X011311Y015978D01*
X011274Y015942D01*
X011237Y015942D01*
X011201Y015978D01*
X011201Y016052D01*
X011237Y016088D01*
X011201Y016163D02*
X011421Y016163D01*
X011421Y016309D01*
X011311Y016236D02*
X011311Y016163D01*
X011201Y016163D02*
X011201Y016309D01*
X011311Y015867D02*
X011311Y015721D01*
X011201Y015425D02*
X011201Y015279D01*
X011421Y015279D01*
X011311Y015279D02*
X011311Y015352D01*
X001371Y010874D02*
X001371Y010452D01*
X001371Y010058D02*
X001371Y009636D01*
X001371Y009242D02*
X001371Y008820D01*
X001371Y008427D02*
X001371Y008005D01*
X001371Y007611D02*
X001371Y007189D01*
X001371Y006796D02*
X001371Y006374D01*
X007861Y004449D02*
X008141Y004449D01*
X008141Y004356D02*
X008141Y004543D01*
X007954Y004356D02*
X007861Y004449D01*
X007861Y004267D02*
X008141Y004080D01*
X008141Y003990D02*
X008047Y003897D01*
X008047Y003944D02*
X008047Y003804D01*
X008141Y003804D02*
X007861Y003804D01*
X007861Y003944D01*
X007907Y003990D01*
X008001Y003990D01*
X008047Y003944D01*
X007861Y004080D02*
X008141Y004267D01*
X008741Y004177D02*
X009021Y003990D01*
X009021Y003807D02*
X008741Y003807D01*
X008741Y003714D02*
X008741Y003900D01*
X008741Y003990D02*
X009021Y004177D01*
X009021Y004266D02*
X009021Y004453D01*
X009021Y004359D02*
X008741Y004359D01*
X008834Y004266D01*
D16*
X003041Y007874D02*
X002341Y007874D01*
X002341Y007574D01*
X001541Y007574D01*
X001541Y007874D01*
X001041Y007874D01*
X001041Y010674D01*
X001541Y010674D01*
X001541Y010974D01*
X002341Y010974D01*
X002341Y010674D01*
X003041Y010674D01*
X003041Y007874D01*
D17*
X001826Y007205D02*
X001826Y007020D01*
X001456Y007020D01*
X001456Y007205D01*
X001517Y007267D01*
X001579Y007267D01*
X001641Y007205D01*
X001641Y007020D01*
X001764Y006899D02*
X001826Y006837D01*
X001826Y006714D01*
X001764Y006652D01*
X001517Y006652D01*
X001456Y006714D01*
X001456Y006837D01*
X001517Y006899D01*
X001641Y007205D02*
X001702Y007267D01*
X001764Y007267D01*
X001826Y007205D01*
X001641Y006531D02*
X001702Y006469D01*
X001702Y006284D01*
X001826Y006284D02*
X001456Y006284D01*
X001456Y006469D01*
X001517Y006531D01*
X001641Y006531D01*
X007345Y009006D02*
X007539Y009006D01*
X007442Y009006D02*
X007442Y009296D01*
X007345Y009199D01*
X014461Y012007D02*
X014523Y011945D01*
X014770Y011945D01*
X014831Y012007D01*
X014831Y012130D01*
X014770Y012192D01*
X014831Y012313D02*
X014831Y012560D01*
X014831Y012682D02*
X014831Y012928D01*
X014831Y012805D02*
X014461Y012805D01*
X014585Y012682D01*
X014461Y012437D02*
X014831Y012437D01*
X014585Y012313D02*
X014461Y012437D01*
X014523Y012192D02*
X014461Y012130D01*
X014461Y012007D01*
X015274Y007903D02*
X015212Y007842D01*
X015212Y007595D01*
X015274Y007533D01*
X015397Y007533D01*
X015459Y007595D01*
X015580Y007533D02*
X015827Y007533D01*
X015704Y007533D02*
X015704Y007903D01*
X015580Y007780D01*
X015459Y007842D02*
X015397Y007903D01*
X015274Y007903D01*
X018461Y007498D02*
X018461Y007375D01*
X018523Y007313D01*
X018523Y007192D02*
X018461Y007130D01*
X018461Y007007D01*
X018523Y006945D01*
X018770Y006945D01*
X018831Y007007D01*
X018831Y007130D01*
X018770Y007192D01*
X018770Y007313D02*
X018831Y007375D01*
X018831Y007498D01*
X018770Y007560D01*
X018708Y007560D01*
X018646Y007498D01*
X018646Y007437D01*
X018646Y007498D02*
X018585Y007560D01*
X018523Y007560D01*
X018461Y007498D01*
X028050Y010089D02*
X028112Y010027D01*
X028359Y010027D01*
X028420Y010089D01*
X028420Y010213D01*
X028359Y010274D01*
X028420Y010396D02*
X028173Y010643D01*
X028112Y010643D01*
X028050Y010581D01*
X028050Y010457D01*
X028112Y010396D01*
X028112Y010274D02*
X028050Y010213D01*
X028050Y010089D01*
X028420Y010396D02*
X028420Y010643D01*
X028359Y010764D02*
X028420Y010826D01*
X028420Y010949D01*
X028359Y011011D01*
X028112Y011011D01*
X028050Y010949D01*
X028050Y010826D01*
X028112Y010764D01*
X028173Y010764D01*
X028235Y010826D01*
X028235Y011011D01*
X017070Y020089D02*
X017070Y020213D01*
X017009Y020274D01*
X017009Y020396D02*
X017070Y020457D01*
X017070Y020581D01*
X017009Y020643D01*
X016947Y020643D01*
X016885Y020581D01*
X016885Y020519D01*
X016885Y020581D02*
X016823Y020643D01*
X016762Y020643D01*
X016700Y020581D01*
X016700Y020457D01*
X016762Y020396D01*
X016762Y020274D02*
X016700Y020213D01*
X016700Y020089D01*
X016762Y020027D01*
X017009Y020027D01*
X017070Y020089D01*
X017009Y020764D02*
X017070Y020826D01*
X017070Y020949D01*
X017009Y021011D01*
X016947Y021011D01*
X016885Y020949D01*
X016885Y020887D01*
X016885Y020949D02*
X016823Y021011D01*
X016762Y021011D01*
X016700Y020949D01*
X016700Y020826D01*
X016762Y020764D01*
X012320Y019161D02*
X012320Y018914D01*
X012073Y019161D01*
X012012Y019161D01*
X011950Y019099D01*
X011950Y018976D01*
X012012Y018914D01*
X012012Y018793D02*
X011950Y018731D01*
X011950Y018607D01*
X012012Y018546D01*
X012259Y018546D01*
X012320Y018607D01*
X012320Y018731D01*
X012259Y018793D01*
D18*
X009047Y005263D03*
X008575Y005263D03*
X008247Y005273D03*
X007775Y005273D03*
D19*
X008011Y005273D03*
X008811Y005263D03*
D20*
X012884Y006307D02*
X013278Y006307D01*
X013081Y006700D01*
X012884Y006307D01*
X011091Y015074D02*
X011091Y016074D01*
X010271Y015574D02*
X010273Y015609D01*
X010279Y015644D01*
X010288Y015678D01*
X010302Y015711D01*
X010318Y015742D01*
X010338Y015771D01*
X010362Y015797D01*
X010388Y015821D01*
X010416Y015842D01*
X010447Y015860D01*
X010479Y015874D01*
X010512Y015884D01*
X010547Y015891D01*
X010582Y015894D01*
X010617Y015893D01*
X010652Y015888D01*
X010687Y015879D01*
X010720Y015867D01*
X010751Y015851D01*
X010781Y015832D01*
X010808Y015809D01*
X010832Y015784D01*
X010854Y015756D01*
X010872Y015726D01*
X010887Y015694D01*
X010899Y015661D01*
X010907Y015627D01*
X010911Y015592D01*
X010911Y015556D01*
X010907Y015521D01*
X010899Y015487D01*
X010887Y015454D01*
X010872Y015422D01*
X010854Y015392D01*
X010832Y015364D01*
X010808Y015339D01*
X010781Y015316D01*
X010751Y015297D01*
X010720Y015281D01*
X010687Y015269D01*
X010652Y015260D01*
X010617Y015255D01*
X010582Y015254D01*
X010547Y015257D01*
X010512Y015264D01*
X010479Y015274D01*
X010447Y015288D01*
X010416Y015306D01*
X010388Y015327D01*
X010362Y015351D01*
X010338Y015377D01*
X010318Y015406D01*
X010302Y015437D01*
X010288Y015470D01*
X010279Y015504D01*
X010273Y015539D01*
X010271Y015574D01*
X010091Y016074D02*
X010091Y015074D01*
X025001Y005074D02*
X025001Y003674D01*
X027581Y003674D01*
X027581Y005074D01*
X025001Y005074D01*
X028099Y005403D02*
X028098Y006672D01*
X032017Y006672D01*
X032017Y005403D01*
X032387Y010327D02*
X031049Y010327D01*
X030694Y010681D01*
X030694Y010741D01*
X030891Y010800D02*
X030919Y010755D01*
X030950Y010713D01*
X030983Y010673D01*
X031020Y010635D01*
X031058Y010600D01*
X031100Y010568D01*
X031143Y010538D01*
X031189Y010512D01*
X031236Y010489D01*
X031284Y010469D01*
X031334Y010453D01*
X031385Y010440D01*
X031437Y010431D01*
X031489Y010426D01*
X031541Y010424D01*
X031593Y010426D01*
X031645Y010431D01*
X031697Y010440D01*
X031748Y010453D01*
X031798Y010469D01*
X031846Y010489D01*
X031893Y010512D01*
X031939Y010538D01*
X031982Y010568D01*
X032024Y010600D01*
X032062Y010635D01*
X032099Y010673D01*
X032132Y010713D01*
X032163Y010755D01*
X032191Y010800D01*
X032387Y010741D02*
X032387Y010327D01*
X032191Y011548D02*
X032163Y011593D01*
X032132Y011635D01*
X032099Y011675D01*
X032062Y011713D01*
X032024Y011748D01*
X031982Y011780D01*
X031939Y011810D01*
X031893Y011836D01*
X031846Y011859D01*
X031798Y011879D01*
X031748Y011895D01*
X031697Y011908D01*
X031645Y011917D01*
X031593Y011922D01*
X031541Y011924D01*
X031489Y011922D01*
X031437Y011917D01*
X031385Y011908D01*
X031334Y011895D01*
X031284Y011879D01*
X031236Y011859D01*
X031189Y011836D01*
X031143Y011810D01*
X031100Y011780D01*
X031058Y011748D01*
X031020Y011713D01*
X030983Y011675D01*
X030950Y011635D01*
X030919Y011593D01*
X030891Y011548D01*
X030694Y011587D02*
X030694Y011666D01*
X031049Y012020D01*
X032387Y012020D01*
X032387Y011607D01*
X032337Y013177D02*
X030999Y013177D01*
X030644Y013531D01*
X030644Y013591D01*
X030841Y013650D02*
X030869Y013605D01*
X030900Y013563D01*
X030933Y013523D01*
X030970Y013485D01*
X031008Y013450D01*
X031050Y013418D01*
X031093Y013388D01*
X031139Y013362D01*
X031186Y013339D01*
X031234Y013319D01*
X031284Y013303D01*
X031335Y013290D01*
X031387Y013281D01*
X031439Y013276D01*
X031491Y013274D01*
X031543Y013276D01*
X031595Y013281D01*
X031647Y013290D01*
X031698Y013303D01*
X031748Y013319D01*
X031796Y013339D01*
X031843Y013362D01*
X031889Y013388D01*
X031932Y013418D01*
X031974Y013450D01*
X032012Y013485D01*
X032049Y013523D01*
X032082Y013563D01*
X032113Y013605D01*
X032141Y013650D01*
X032337Y013591D02*
X032337Y013177D01*
X032141Y014398D02*
X032113Y014443D01*
X032082Y014485D01*
X032049Y014525D01*
X032012Y014563D01*
X031974Y014598D01*
X031932Y014630D01*
X031889Y014660D01*
X031843Y014686D01*
X031796Y014709D01*
X031748Y014729D01*
X031698Y014745D01*
X031647Y014758D01*
X031595Y014767D01*
X031543Y014772D01*
X031491Y014774D01*
X031439Y014772D01*
X031387Y014767D01*
X031335Y014758D01*
X031284Y014745D01*
X031234Y014729D01*
X031186Y014709D01*
X031139Y014686D01*
X031093Y014660D01*
X031050Y014630D01*
X031008Y014598D01*
X030970Y014563D01*
X030933Y014525D01*
X030900Y014485D01*
X030869Y014443D01*
X030841Y014398D01*
X030644Y014437D02*
X030644Y014516D01*
X030999Y014870D01*
X032337Y014870D01*
X032337Y014457D01*
D21*
X013081Y006724D03*
D22*
X008931Y014894D02*
X008777Y014894D01*
X008700Y014970D01*
X008547Y014970D02*
X008547Y015277D01*
X008470Y015354D01*
X008317Y015354D01*
X008240Y015277D01*
X008240Y015201D01*
X008317Y015124D01*
X008547Y015124D01*
X008547Y014970D02*
X008470Y014894D01*
X008317Y014894D01*
X008240Y014970D01*
X008087Y014894D02*
X007933Y015047D01*
X008010Y015047D02*
X007780Y015047D01*
X007780Y014894D02*
X007780Y015354D01*
X008010Y015354D01*
X008087Y015277D01*
X008087Y015124D01*
X008010Y015047D01*
X008700Y015201D02*
X008777Y015124D01*
X009007Y015124D01*
X009007Y015277D02*
X008931Y015354D01*
X008777Y015354D01*
X008700Y015277D01*
X008700Y015201D01*
X009007Y015277D02*
X009007Y014970D01*
X008931Y014894D01*
X025266Y003214D02*
X025453Y003214D01*
X025406Y003354D02*
X025266Y003214D01*
X025406Y003074D02*
X025406Y003354D01*
X026083Y003874D02*
X026237Y003874D01*
X026160Y003874D02*
X026160Y004334D01*
X026083Y004334D02*
X026237Y004334D01*
X026390Y004257D02*
X026390Y003950D01*
X026467Y003874D01*
X026620Y003874D01*
X026697Y003950D01*
X026850Y004104D02*
X027157Y004104D01*
X027081Y003874D02*
X027081Y004334D01*
X026850Y004104D01*
X026697Y004257D02*
X026620Y004334D01*
X026467Y004334D01*
X026390Y004257D01*
X026524Y005777D02*
X026711Y005964D01*
X026711Y006011D01*
X026664Y006058D01*
X026571Y006058D01*
X026524Y006011D01*
X026524Y005777D02*
X026711Y005777D01*
X027376Y005774D02*
X027562Y005774D01*
X027469Y005774D02*
X027469Y006054D01*
X027376Y005960D01*
X025801Y005960D02*
X025754Y005914D01*
X025801Y005867D01*
X025801Y005820D01*
X025754Y005774D01*
X025661Y005774D01*
X025614Y005820D01*
X025708Y005914D02*
X025754Y005914D01*
X025801Y005960D02*
X025801Y006007D01*
X025754Y006054D01*
X025661Y006054D01*
X025614Y006007D01*
X028210Y007639D02*
X028287Y007562D01*
X028594Y007562D01*
X028671Y007639D01*
X028671Y007793D01*
X028594Y007869D01*
X028594Y008023D02*
X028671Y008100D01*
X028671Y008253D01*
X028594Y008330D01*
X028517Y008330D01*
X028441Y008253D01*
X028441Y008176D01*
X028441Y008253D02*
X028364Y008330D01*
X028287Y008330D01*
X028210Y008253D01*
X028210Y008100D01*
X028287Y008023D01*
X028287Y007869D02*
X028210Y007793D01*
X028210Y007639D01*
X028287Y008483D02*
X028210Y008560D01*
X028210Y008713D01*
X028287Y008790D01*
X028594Y008483D01*
X028671Y008560D01*
X028671Y008713D01*
X028594Y008790D01*
X028287Y008790D01*
X028287Y008483D02*
X028594Y008483D01*
X028590Y009644D02*
X028897Y009644D01*
X028744Y009644D02*
X028744Y010104D01*
X028590Y009951D01*
X028437Y010027D02*
X028360Y010104D01*
X028130Y010104D01*
X028130Y009644D01*
X028130Y009797D02*
X028360Y009797D01*
X028437Y009874D01*
X028437Y010027D01*
X028283Y009797D02*
X028437Y009644D01*
X029050Y009644D02*
X029050Y009720D01*
X029357Y010027D01*
X029357Y010104D01*
X029050Y010104D01*
X031062Y010101D02*
X031062Y009794D01*
X031138Y009717D01*
X031292Y009717D01*
X031369Y009794D01*
X031522Y009947D02*
X031829Y009947D01*
X031982Y009794D02*
X032059Y009717D01*
X032213Y009717D01*
X032289Y009794D01*
X032289Y009871D01*
X032213Y009947D01*
X032136Y009947D01*
X032213Y009947D02*
X032289Y010024D01*
X032289Y010101D01*
X032213Y010178D01*
X032059Y010178D01*
X031982Y010101D01*
X031752Y010178D02*
X031522Y009947D01*
X031369Y010101D02*
X031292Y010178D01*
X031138Y010178D01*
X031062Y010101D01*
X031752Y010178D02*
X031752Y009717D01*
X030062Y012194D02*
X030139Y012270D01*
X030139Y012347D01*
X030062Y012424D01*
X029832Y012424D01*
X029832Y012270D01*
X029908Y012194D01*
X030062Y012194D01*
X029832Y012424D02*
X029985Y012577D01*
X030139Y012654D01*
X029525Y012654D02*
X029525Y012194D01*
X029678Y012194D02*
X029371Y012194D01*
X029218Y012194D02*
X029064Y012347D01*
X029141Y012347D02*
X028911Y012347D01*
X028911Y012194D02*
X028911Y012654D01*
X029141Y012654D01*
X029218Y012577D01*
X029218Y012424D01*
X029141Y012347D01*
X029371Y012501D02*
X029525Y012654D01*
X031012Y012644D02*
X031088Y012567D01*
X031242Y012567D01*
X031319Y012644D01*
X031472Y012797D02*
X031779Y012797D01*
X031932Y012797D02*
X032163Y013028D01*
X032163Y012567D01*
X032239Y012797D02*
X031932Y012797D01*
X031702Y012567D02*
X031702Y013028D01*
X031472Y012797D01*
X031319Y012951D02*
X031242Y013028D01*
X031088Y013028D01*
X031012Y012951D01*
X031012Y012644D01*
X031510Y015312D02*
X031510Y015543D01*
X031587Y015619D01*
X031741Y015619D01*
X031817Y015543D01*
X031817Y015312D01*
X031971Y015312D02*
X031510Y015312D01*
X031817Y015466D02*
X031971Y015619D01*
X031971Y015773D02*
X031664Y016080D01*
X031587Y016080D01*
X031510Y016003D01*
X031510Y015850D01*
X031587Y015773D01*
X031971Y015773D02*
X031971Y016080D01*
X031741Y016233D02*
X031741Y016540D01*
X031971Y016463D02*
X031510Y016463D01*
X031741Y016233D01*
X032810Y016360D02*
X032887Y016283D01*
X032810Y016360D02*
X032810Y016513D01*
X032887Y016590D01*
X032964Y016590D01*
X033271Y016283D01*
X033271Y016590D01*
X033271Y016130D02*
X033271Y015823D01*
X032964Y016130D01*
X032887Y016130D01*
X032810Y016053D01*
X032810Y015900D01*
X032887Y015823D01*
X032887Y015669D02*
X033041Y015669D01*
X033117Y015593D01*
X033117Y015362D01*
X033271Y015362D02*
X032810Y015362D01*
X032810Y015593D01*
X032887Y015669D01*
X033117Y015516D02*
X033271Y015669D01*
X029139Y017297D02*
X028832Y016990D01*
X028832Y016914D01*
X028678Y016914D02*
X028371Y016914D01*
X028678Y017221D01*
X028678Y017297D01*
X028601Y017374D01*
X028448Y017374D01*
X028371Y017297D01*
X028218Y017297D02*
X028218Y017144D01*
X028141Y017067D01*
X027911Y017067D01*
X028064Y017067D02*
X028218Y016914D01*
X027911Y016914D02*
X027911Y017374D01*
X028141Y017374D01*
X028218Y017297D01*
X028832Y017374D02*
X029139Y017374D01*
X029139Y017297D01*
X027071Y019162D02*
X026610Y019162D01*
X026610Y019393D01*
X026687Y019469D01*
X026841Y019469D01*
X026917Y019393D01*
X026917Y019162D01*
X026917Y019316D02*
X027071Y019469D01*
X027071Y019623D02*
X026764Y019930D01*
X026687Y019930D01*
X026610Y019853D01*
X026610Y019700D01*
X026687Y019623D01*
X027071Y019623D02*
X027071Y019930D01*
X026994Y020083D02*
X027071Y020160D01*
X027071Y020313D01*
X026994Y020390D01*
X026917Y020390D01*
X026841Y020313D01*
X026841Y020083D01*
X026994Y020083D01*
X026841Y020083D02*
X026687Y020237D01*
X026610Y020390D01*
X027910Y021112D02*
X027910Y021343D01*
X027987Y021419D01*
X028141Y021419D01*
X028217Y021343D01*
X028217Y021112D01*
X028371Y021112D02*
X027910Y021112D01*
X028217Y021266D02*
X028371Y021419D01*
X028371Y021573D02*
X028064Y021880D01*
X027987Y021880D01*
X027910Y021803D01*
X027910Y021650D01*
X027987Y021573D01*
X028371Y021573D02*
X028371Y021880D01*
X028294Y022033D02*
X028217Y022033D01*
X028141Y022110D01*
X028141Y022263D01*
X028217Y022340D01*
X028294Y022340D01*
X028371Y022263D01*
X028371Y022110D01*
X028294Y022033D01*
X028141Y022110D02*
X028064Y022033D01*
X027987Y022033D01*
X027910Y022110D01*
X027910Y022263D01*
X027987Y022340D01*
X028064Y022340D01*
X028141Y022263D01*
X031480Y021854D02*
X031480Y021394D01*
X031480Y021547D02*
X031710Y021547D01*
X031787Y021624D01*
X031787Y021777D01*
X031710Y021854D01*
X031480Y021854D01*
X031633Y021547D02*
X031787Y021394D01*
X031940Y021394D02*
X032247Y021701D01*
X032247Y021777D01*
X032170Y021854D01*
X032017Y021854D01*
X031940Y021777D01*
X032400Y021854D02*
X032400Y021624D01*
X032554Y021701D01*
X032631Y021701D01*
X032707Y021624D01*
X032707Y021470D01*
X032631Y021394D01*
X032477Y021394D01*
X032400Y021470D01*
X032247Y021394D02*
X031940Y021394D01*
X032400Y021854D02*
X032707Y021854D01*
X032670Y006657D02*
X032516Y006657D01*
X032440Y006581D01*
X032440Y006504D01*
X032516Y006351D01*
X032286Y006351D01*
X032286Y006657D01*
X032670Y006657D02*
X032746Y006581D01*
X032746Y006427D01*
X032670Y006351D01*
X032670Y006197D02*
X032286Y006197D01*
X032286Y005890D02*
X032670Y005890D01*
X032746Y005967D01*
X032746Y006120D01*
X032670Y006197D01*
D23*
X030018Y006823D03*
M02*
