G75*
%MOIN*%
%OFA0B0*%
%FSLAX24Y24*%
%IPPOS*%
%LPD*%
%AMOC8*
5,1,8,0,0,1.08239X$1,22.5*
%
%ADD10R,0.0651X0.0572*%
%ADD11R,0.0454X0.0532*%
%ADD12C,0.0560*%
%ADD13C,0.0550*%
%ADD14C,0.0532*%
%ADD15C,0.0030*%
%ADD16OC8,0.0670*%
%ADD17OC8,0.0910*%
%ADD18C,0.0600*%
%ADD19OC8,0.0600*%
%ADD20C,0.0540*%
%ADD21C,0.0436*%
D10*
X015211Y015239D03*
X015211Y015908D03*
X016651Y018059D03*
X016651Y018728D03*
D11*
X013561Y015877D03*
X013561Y015011D03*
D12*
X003001Y010304D03*
D13*
X003001Y010204D03*
X003001Y008344D03*
X003001Y008244D03*
D14*
X002041Y007894D03*
X001841Y007894D03*
X001841Y010654D03*
X002041Y010654D03*
D15*
X000746Y010717D02*
X000746Y010862D01*
X000698Y010911D01*
X000601Y010911D01*
X000553Y010862D01*
X000553Y010717D01*
X000456Y010717D02*
X000746Y010717D01*
X000649Y011012D02*
X000746Y011109D01*
X000649Y011205D01*
X000456Y011205D01*
X000456Y011307D02*
X000456Y011452D01*
X000504Y011500D01*
X000698Y011500D01*
X000746Y011452D01*
X000746Y011307D01*
X000456Y011307D01*
X000601Y011205D02*
X000601Y011012D01*
X000649Y011012D02*
X000456Y011012D01*
X000504Y011601D02*
X000456Y011650D01*
X000456Y011746D01*
X000504Y011795D01*
X000553Y011795D01*
X000601Y011746D01*
X000601Y011650D01*
X000649Y011601D01*
X000698Y011601D01*
X000746Y011650D01*
X000746Y011746D01*
X000698Y011795D01*
X000698Y010321D02*
X000601Y010321D01*
X000553Y010273D01*
X000553Y010128D01*
X000553Y010225D02*
X000456Y010321D01*
X000456Y010128D02*
X000746Y010128D01*
X000746Y010273D01*
X000698Y010321D01*
X000746Y010027D02*
X000746Y009833D01*
X000456Y009833D01*
X000456Y010027D01*
X000601Y009930D02*
X000601Y009833D01*
X000504Y009732D02*
X000698Y009732D01*
X000746Y009684D01*
X000746Y009539D01*
X000456Y009539D01*
X000456Y009684D01*
X000504Y009732D01*
X000456Y009438D02*
X000456Y009244D01*
X000746Y009244D01*
X000698Y009143D02*
X000746Y009094D01*
X000746Y008998D01*
X000698Y008949D01*
X000504Y008949D01*
X000456Y008998D01*
X000456Y009094D01*
X000504Y009143D01*
X000698Y009143D01*
X000698Y008848D02*
X000746Y008800D01*
X000746Y008703D01*
X000698Y008655D01*
X000649Y008655D01*
X000601Y008703D01*
X000601Y008800D01*
X000553Y008848D01*
X000504Y008848D01*
X000456Y008800D01*
X000456Y008703D01*
X000504Y008655D01*
X000456Y008259D02*
X000456Y008114D01*
X000504Y008065D01*
X000649Y008065D01*
X000601Y007966D02*
X000601Y007869D01*
X000698Y007917D02*
X000456Y007917D01*
X000456Y007769D02*
X000456Y007673D01*
X000456Y007721D02*
X000649Y007721D01*
X000649Y007673D01*
X000649Y007571D02*
X000649Y007426D01*
X000601Y007378D01*
X000504Y007378D01*
X000456Y007426D01*
X000456Y007571D01*
X000746Y007571D01*
X000746Y007721D02*
X000794Y007721D01*
X000698Y007917D02*
X000746Y007966D01*
X000649Y008259D02*
X000408Y008259D01*
X000359Y008211D01*
X000359Y008162D01*
X000504Y007277D02*
X000601Y007277D01*
X000649Y007228D01*
X000649Y007132D01*
X000601Y007083D01*
X000504Y007083D01*
X000456Y007132D01*
X000456Y007228D01*
X000504Y007277D01*
X000456Y006982D02*
X000746Y006982D01*
X000649Y006885D01*
X000746Y006789D01*
X000456Y006789D01*
D16*
X010672Y007004D03*
X011672Y007004D03*
X011672Y006004D03*
X010672Y006004D03*
X010672Y005004D03*
X011672Y005004D03*
D17*
X033041Y004324D03*
X033041Y006524D03*
X030791Y022324D03*
X029091Y022324D03*
X025841Y022324D03*
X024091Y022324D03*
D18*
X005941Y020324D03*
D19*
X006941Y020324D03*
X007941Y020324D03*
X008941Y020324D03*
X009941Y020324D03*
X009941Y019324D03*
X008941Y019324D03*
X007941Y019324D03*
X006941Y019324D03*
X005941Y019324D03*
D20*
X003231Y018924D02*
X002751Y018924D01*
X002751Y019924D02*
X003231Y019924D01*
X003231Y020924D02*
X002751Y020924D01*
X002751Y017924D02*
X003231Y017924D01*
X003231Y016924D02*
X002751Y016924D01*
X016891Y004014D02*
X016891Y003534D01*
X017891Y003534D02*
X017891Y004014D01*
X018891Y004014D02*
X018891Y003534D01*
X019891Y003534D02*
X019891Y004014D01*
X020891Y004014D02*
X020891Y003534D01*
D21*
X003861Y003074D03*
X002461Y004394D03*
X004241Y005824D03*
X005391Y005474D03*
X005841Y004514D03*
X006291Y006474D03*
X007441Y007024D03*
X005991Y007824D03*
X004891Y009624D03*
X003591Y009924D03*
X006141Y012074D03*
X006941Y011224D03*
X007891Y010374D03*
X007241Y010324D03*
X007391Y009674D03*
X010091Y009174D03*
X011541Y009974D03*
X011931Y008224D03*
X014041Y007474D03*
X015216Y008884D03*
X016541Y008924D03*
X018491Y008924D03*
X019191Y008774D03*
X019941Y008824D03*
X019271Y010314D03*
X018691Y010124D03*
X021391Y010574D03*
X023391Y012074D03*
X024861Y011184D03*
X024861Y010364D03*
X025911Y009324D03*
X025101Y008354D03*
X025101Y007064D03*
X027741Y007424D03*
X025391Y004424D03*
X023841Y002824D03*
X017391Y005474D03*
X016191Y006374D03*
X012691Y005274D03*
X012251Y006484D03*
X013891Y009574D03*
X012691Y012674D03*
X011841Y012574D03*
X010691Y014174D03*
X009141Y013224D03*
X007291Y013624D03*
X006391Y015074D03*
X004391Y015574D03*
X003191Y014224D03*
X004091Y012574D03*
X009641Y016824D03*
X012791Y018274D03*
X013391Y016624D03*
X015761Y017074D03*
X016121Y015934D03*
X015841Y014724D03*
X014421Y014714D03*
X014341Y014124D03*
X015941Y013074D03*
X017731Y013474D03*
X017681Y014214D03*
X017711Y014834D03*
X018671Y015844D03*
X017641Y016574D03*
X017841Y017224D03*
X017641Y018824D03*
X015941Y018724D03*
X015291Y018974D03*
X012801Y021244D03*
X014601Y022534D03*
X017941Y021224D03*
X020891Y022574D03*
X020991Y019521D03*
X020301Y018894D03*
X020791Y017324D03*
X020091Y015674D03*
X019641Y014224D03*
X018661Y012944D03*
X023691Y015224D03*
X024931Y014404D03*
X024571Y013714D03*
X026891Y015574D03*
X026641Y017174D03*
X028191Y017174D03*
X029281Y017014D03*
X030191Y018124D03*
X028911Y018794D03*
X029291Y019724D03*
X027741Y019074D03*
X025391Y019074D03*
X024441Y018774D03*
X023741Y016424D03*
X027441Y013824D03*
X027441Y012324D03*
X026421Y010874D03*
X029891Y015574D03*
X032541Y015324D03*
X031941Y017274D03*
X031891Y018974D03*
X032291Y010374D03*
X032891Y008574D03*
X032241Y004324D03*
X014091Y003114D03*
X002661Y006074D03*
X010741Y020674D03*
X009351Y022454D03*
X004561Y021404D03*
X003301Y022514D03*
M02*
