  0
SECTION
  2
HEADER
  9
$ACADVER
  1
AC1014
  9
$HANDSEED
  5
FFFF
  9
$MEASUREMENT
 70
     1
  0
ENDSEC
  0
SECTION
  2
TABLES
  0
TABLE
  2
VPORT
  5
8
330
0
100
AcDbSymbolTable
 70
     4
  0
VPORT
  5
2E
330
8
100
AcDbSymbolTableRecord
100
AcDbViewportTableRecord
  2
*ACTIVE
 70
     0
 10
0.0
 20
0.0
 11
1.0
 21
1.0
 12
210.0
 22
148.5
 13
0.0
 23
0.0
 14
10.0
 24
10.0
 15
10.0
 25
10.0
 16
0.0
 26
0.0
 36
1.0
 17
0.0
 27
0.0
 37
0.0
 40
341.0
 41
1.24
 42
50.0
 43
0.0
 44
0.0
 50
0.0
 51
0.0
 71
     0
 72
   100
 73
     1
 74
     3
 75
     0
 76
     0
 77
     0
 78
     0
  0
ENDTAB
  0
TABLE
  2
LTYPE
  5
5
330
0
100
AcDbSymbolTable
 70
     1
  0
LTYPE
  5
14
330
5
100
AcDbSymbolTableRecord
100
AcDbLinetypeTableRecord
  2
BYBLOCK
 70
     0
  3

 72
    65
 73
     0
 40
0.0
  0
LTYPE
  5
15
330
5
100
AcDbSymbolTableRecord
100
AcDbLinetypeTableRecord
  2
BYLAYER
 70
     0
  3

 72
    65
 73
     0
 40
0.0
  0
LTYPE
  5
16
330
5
100
AcDbSymbolTableRecord
100
AcDbLinetypeTableRecord
  2
CONTINUOUS
 70
     0
  3
Solid line
 72
    65
 73
     0
 40
0.0
  0
ENDTAB
  0
TABLE
  2
LAYER
  5
2
100
AcDbSymbolTable
 70
2
  0
LAYER
  5
50
100
AcDbSymbolTableRecord
100
AcDbLayerTableRecord
  2
0
 70
0
  6
CONTINUOUS
  0
LAYER
  5
51
100
AcDbSymbolTableRecord
100
AcDbLayerTableRecord
  2
Layer_1
 70
0
  6
CONTINUOUS
  0
ENDTAB
  0
TABLE
  2
STYLE
  5
3
330
0
100
AcDbSymbolTable
 70
     1
  0
STYLE
  5
11
330
3
100
AcDbSymbolTableRecord
100
AcDbTextStyleTableRecord
  2
STANDARD
 70
     0
 40
0.0
 41
1.0
 50
0.0
 71
     0
 42
2.5
  3
txt
  4

  0
ENDTAB
  0
TABLE
  2
VIEW
  5
6
330
0
100
AcDbSymbolTable
 70
     0
  0
ENDTAB
  0
TABLE
  2
UCS
  5
7
330
0
100
AcDbSymbolTable
 70
     0
  0
ENDTAB
  0
TABLE
  2
APPID
  5
9
330
0
100
AcDbSymbolTable
 70
     2
  0
APPID
  5
12
330
9
100
AcDbSymbolTableRecord
100
AcDbRegAppTableRecord
  2
ACAD
 70
     0
  0
ENDTAB
  0
TABLE
  2
DIMSTYLE
  5
A
330
0
100
AcDbSymbolTable
 70
     1
  0
DIMSTYLE
105
27
330
A
100
AcDbSymbolTableRecord
100
AcDbDimStyleTableRecord
  2
ISO-25
 70
     0
  3

  4

  5

  6

  7

 40
1.0
 41
2.5
 42
0.625
 43
3.75
 44
1.25
 45
0.0
 46
0.0
 47
0.0
 48
0.0
140
2.5
141
2.5
142
0.0
143
0.03937007874016
144
1.0
145
0.0
146
1.0
147
0.625
 71
     0
 72
     0
 73
     0
 74
     0
 75
     0
 76
     0
 77
     1
 78
     8
170
     0
171
     3
172
     1
173
     0
174
     0
175
     0
176
     0
177
     0
178
     0
270
     2
271
     2
272
     2
273
     2
274
     3
340
11
275
     0
280
     0
281
     0
282
     0
283
     0
284
     8
285
     0
286
     0
287
     3
288
     0
  0
ENDTAB
  0
TABLE
  2
BLOCK_RECORD
  5
1
330
0
100
AcDbSymbolTable
 70
     1
  0
BLOCK_RECORD
  5
1F
330
1
100
AcDbSymbolTableRecord
100
AcDbBlockTableRecord
  2
*MODEL_SPACE
  0
BLOCK_RECORD
  5
1B
330
1
100
AcDbSymbolTableRecord
100
AcDbBlockTableRecord
  2
*PAPER_SPACE
  0
ENDTAB
  0
ENDSEC
  0
SECTION
  2
BLOCKS
  0
BLOCK
  5
20
330
1F
100
AcDbEntity
  8
0
100
AcDbBlockBegin
  2
*MODEL_SPACE
 70
     0
 10
0.0
 20
0.0
 30
0.0
  3
*MODEL_SPACE
  1

  0
ENDBLK
  5
21
330
1F
100
AcDbEntity
  8
0
100
AcDbBlockEnd
  0
BLOCK
  5
1C
330
1B
100
AcDbEntity
 67
     1
  8
0
100
AcDbBlockBegin
  2
*PAPER_SPACE
  1

  0
ENDBLK
  5
1D
330
1B
100
AcDbEntity
 67
     1
  8
0
100
AcDbBlockEnd
  0
ENDSEC
  0
SECTION
  2
ENTITIES
  0
LWPOLYLINE
  5
100
100
AcDbEntity
  8
Layer_1
 62
7
100
AcDbPolyline
 90
34
 70
0
 10
18.849904
 20
276.740656
 30
0.0
 10
18.814874
 20
276.879307
 30
0.0
 10
18.807878
 20
277.316623
 30
0.0
 10
18.814874
 20
277.753748
 30
0.0
 10
18.849791
 20
277.892568
 30
0.0
 10
18.925170
 20
277.969505
 30
0.0
 10
19.015445
 20
277.964734
 30
0.0
 10
19.128763
 20
277.890309
 30
0.0
 10
19.422950
 20
277.533881
 30
0.0
 10
19.581698
 20
277.318410
 30
0.0
 10
19.759029
 20
277.530838
 30
0.0
 10
20.014641
 20
277.847792
 30
0.0
 10
20.202025
 20
277.967939
 30
0.0
 10
20.311938
 20
277.950692
 30
0.0
 10
20.379984
 20
277.836021
 30
0.0
 10
20.413184
 20
277.235651
 30
0.0
 10
20.383669
 20
276.832426
 30
0.0
 10
20.351637
 20
276.749160
 30
0.0
 10
20.301429
 20
276.713689
 30
0.0
 10
20.212303
 20
276.719197
 30
0.0
 10
20.132169
 20
276.789125
 30
0.0
 10
20.020553
 20
277.092974
 30
0.0
 10
19.979448
 20
277.258531
 30
0.0
 10
19.850892
 20
277.079816
 30
0.0
 10
19.682865
 20
276.841302
 30
0.0
 10
19.592766
 20
276.772090
 30
0.0
 10
19.488591
 20
276.850170
 30
0.0
 10
19.274541
 20
277.131350
 30
0.0
 10
19.109193
 20
277.363131
 30
0.0
 10
19.091554
 20
277.098299
 30
0.0
 10
19.032437
 20
276.762218
 30
0.0
 10
18.940603
 20
276.684750
 30
0.0
 10
18.849898
 20
276.740656
 30
0.0
 10
18.849904
 20
276.740656
 30
0.0
  0
LWPOLYLINE
  5
101
100
AcDbEntity
  8
Layer_1
 62
7
100
AcDbPolyline
 90
21
 70
0
 10
21.607446
 20
276.702536
 30
0.0
 10
21.352487
 20
276.777974
 30
0.0
 10
21.224915
 20
276.868259
 30
0.0
 10
21.142299
 20
276.994544
 30
0.0
 10
21.100807
 20
277.166022
 30
0.0
 10
21.096604
 20
277.391889
 30
0.0
 10
21.158741
 20
277.711827
 30
0.0
 10
21.226195
 20
277.809988
 30
0.0
 10
21.323192
 20
277.878294
 30
0.0
 10
21.605498
 20
277.954277
 30
0.0
 10
21.967317
 20
277.976516
 30
0.0
 10
22.304170
 20
277.946215
 30
0.0
 10
22.511579
 20
277.864578
 30
0.0
 10
22.590214
 20
277.673813
 30
0.0
 10
22.620396
 20
277.346878
 30
0.0
 10
22.562650
 20
276.903772
 30
0.0
 10
22.482105
 20
276.789325
 30
0.0
 10
22.360243
 20
276.729931
 30
0.0
 10
21.994656
 20
276.694122
 30
0.0
 10
21.607446
 20
276.702528
 30
0.0
 10
21.607446
 20
276.702536
 30
0.0
  0
LWPOLYLINE
  5
102
100
AcDbEntity
  8
Layer_1
 62
7
100
AcDbPolyline
 90
15
 70
0
 10
22.175467
 20
277.078662
 30
0.0
 10
22.230898
 20
277.137492
 30
0.0
 10
22.244828
 20
277.359242
 30
0.0
 10
22.251432
 20
277.609787
 30
0.0
 10
21.893733
 20
277.602337
 30
0.0
 10
21.514263
 20
277.565447
 30
0.0
 10
21.448687
 20
277.502480
 30
0.0
 10
21.413376
 20
277.386214
 30
0.0
 10
21.398048
 20
277.269495
 30
0.0
 10
21.429689
 20
277.174618
 30
0.0
 10
21.480814
 20
277.093814
 30
0.0
 10
21.551367
 20
277.049320
 30
0.0
 10
21.850987
 20
277.036374
 30
0.0
 10
22.175481
 20
277.078651
 30
0.0
 10
22.175467
 20
277.078662
 30
0.0
  0
LWPOLYLINE
  5
103
100
AcDbEntity
  8
Layer_1
 62
7
100
AcDbPolyline
 90
22
 70
0
 10
23.977591
 20
276.732542
 30
0.0
 10
23.894685
 20
277.107835
 30
0.0
 10
23.809192
 20
277.530280
 30
0.0
 10
23.731481
 20
277.603956
 30
0.0
 10
23.586375
 20
277.665704
 30
0.0
 10
23.440218
 20
277.745952
 30
0.0
 10
23.389649
 20
277.826512
 30
0.0
 10
23.434952
 20
277.899111
 30
0.0
 10
23.576412
 20
277.955478
 30
0.0
 10
24.091764
 20
277.970916
 30
0.0
 10
24.621193
 20
277.940323
 30
0.0
 10
24.721394
 20
277.871955
 30
0.0
 10
24.732200
 20
277.773084
 30
0.0
 10
24.615131
 20
277.691998
 30
0.0
 10
24.441578
 20
277.652852
 30
0.0
 10
24.333045
 20
277.640455
 30
0.0
 10
24.270318
 20
277.581967
 30
0.0
 10
24.219862
 20
277.198942
 30
0.0
 10
24.159421
 20
276.780587
 30
0.0
 10
24.068430
 20
276.684715
 30
0.0
 10
23.977591
 20
276.732536
 30
0.0
 10
23.977591
 20
276.732542
 30
0.0
  0
LWPOLYLINE
  5
104
100
AcDbEntity
  8
Layer_1
 62
7
100
AcDbPolyline
 90
23
 70
0
 10
25.894975
 20
276.702183
 30
0.0
 10
25.703758
 20
276.769525
 30
0.0
 10
25.576216
 20
276.873884
 30
0.0
 10
25.473128
 20
277.051445
 30
0.0
 10
25.421764
 20
277.240859
 30
0.0
 10
25.423338
 20
277.432820
 30
0.0
 10
25.479067
 20
277.618020
 30
0.0
 10
25.590426
 20
277.803446
 30
0.0
 10
25.738121
 20
277.915866
 30
0.0
 10
25.871037
 20
277.957490
 30
0.0
 10
26.166916
 20
277.965588
 30
0.0
 10
26.619544
 20
277.929681
 30
0.0
 10
26.757490
 20
277.877216
 30
0.0
 10
26.864789
 20
277.794849
 30
0.0
 10
26.978320
 20
277.600583
 30
0.0
 10
26.993468
 20
277.293597
 30
0.0
 10
26.966438
 20
277.062814
 30
0.0
 10
26.911147
 20
276.910980
 30
0.0
 10
26.812706
 20
276.813992
 30
0.0
 10
26.656224
 20
276.747745
 30
0.0
 10
26.269776
 20
276.692037
 30
0.0
 10
25.894975
 20
276.702183
 30
0.0
 10
25.894975
 20
276.702183
 30
0.0
  0
LWPOLYLINE
  5
105
100
AcDbEntity
  8
Layer_1
 62
7
100
AcDbPolyline
 90
12
 70
0
 10
26.352945
 20
277.052370
 30
0.0
 10
26.532303
 20
277.093208
 30
0.0
 10
26.588631
 20
277.303137
 30
0.0
 10
26.553272
 20
277.553809
 30
0.0
 10
26.403455
 20
277.608829
 30
0.0
 10
26.068412
 20
277.648395
 30
0.0
 10
25.819246
 20
277.665385
 30
0.0
 10
25.819246
 20
277.332210
 30
0.0
 10
25.819246
 20
276.999033
 30
0.0
 10
26.010466
 20
277.013963
 30
0.0
 10
26.352948
 20
277.052362
 30
0.0
 10
26.352945
 20
277.052370
 30
0.0
  0
LWPOLYLINE
  5
106
100
AcDbEntity
  8
Layer_1
 62
7
100
AcDbPolyline
 90
33
 70
0
 10
28.913520
 20
276.701052
 30
0.0
 10
28.674361
 20
276.828271
 30
0.0
 10
28.285861
 20
277.207892
 30
0.0
 10
28.133387
 20
277.418810
 30
0.0
 10
28.434106
 20
277.452364
 30
0.0
 10
28.792706
 20
277.482195
 30
0.0
 10
28.870712
 20
277.527341
 30
0.0
 10
28.756334
 20
277.583794
 30
0.0
 10
28.214675
 20
277.652682
 30
0.0
 10
28.025750
 20
277.652837
 30
0.0
 10
28.017227
 20
277.253016
 30
0.0
 10
27.984654
 20
276.818267
 30
0.0
 10
27.944848
 20
276.735254
 30
0.0
 10
27.880716
 20
276.707235
 30
0.0
 10
27.814230
 20
276.715351
 30
0.0
 10
27.768538
 20
276.765084
 30
0.0
 10
27.718483
 20
277.031480
 30
0.0
 10
27.697683
 20
277.637050
 30
0.0
 10
27.696555
 20
278.003702
 30
0.0
 10
28.084785
 20
277.989111
 30
0.0
 10
28.702777
 20
277.955742
 30
0.0
 10
29.046327
 20
277.895581
 30
0.0
 10
29.194487
 20
277.780447
 30
0.0
 10
29.226307
 20
277.582158
 30
0.0
 10
29.190099
 20
277.370467
 30
0.0
 10
29.051814
 20
277.188627
 30
0.0
 10
28.948171
 20
277.050747
 30
0.0
 10
29.040881
 20
276.902392
 30
0.0
 10
29.126932
 20
276.776599
 30
0.0
 10
29.105781
 20
276.707167
 30
0.0
 10
29.038292
 20
276.682920
 30
0.0
 10
28.913401
 20
276.701015
 30
0.0
 10
28.913520
 20
276.701052
 30
0.0
  0
LWPOLYLINE
  5
107
100
AcDbEntity
  8
Layer_1
 62
7
100
AcDbPolyline
 90
19
 70
0
 10
32.223473
 20
276.707091
 30
0.0
 10
32.148300
 20
276.845005
 30
0.0
 10
32.079799
 20
277.987378
 30
0.0
 10
32.754477
 20
277.980351
 30
0.0
 10
33.420036
 20
277.964377
 30
0.0
 10
33.492705
 20
277.895526
 30
0.0
 10
33.636989
 20
277.700774
 30
0.0
 10
33.699574
 20
277.507053
 30
0.0
 10
33.653278
 20
277.331261
 30
0.0
 10
33.547871
 20
277.197909
 30
0.0
 10
33.159937
 20
277.140646
 30
0.0
 10
32.614522
 20
277.081970
 30
0.0
 10
32.534080
 20
277.017123
 30
0.0
 10
32.507338
 20
276.901285
 30
0.0
 10
32.473731
 20
276.782076
 30
0.0
 10
32.411591
 20
276.707490
 30
0.0
 10
32.326358
 20
276.681249
 30
0.0
 10
32.223473
 20
276.707077
 30
0.0
 10
32.223473
 20
276.707091
 30
0.0
  0
LWPOLYLINE
  5
108
100
AcDbEntity
  8
Layer_1
 62
7
100
AcDbPolyline
 90
11
 70
0
 10
33.265785
 20
277.480225
 30
0.0
 10
33.315984
 20
277.535101
 30
0.0
 10
33.294235
 20
277.604817
 30
0.0
 10
33.036284
 20
277.649369
 30
0.0
 10
32.723087
 20
277.641774
 30
0.0
 10
32.560658
 20
277.585220
 30
0.0
 10
32.508898
 20
277.543307
 30
0.0
 10
32.561045
 20
277.515395
 30
0.0
 10
32.908454
 20
277.457606
 30
0.0
 10
33.265785
 20
277.480219
 30
0.0
 10
33.265785
 20
277.480225
 30
0.0
  0
LWPOLYLINE
  5
109
100
AcDbEntity
  8
Layer_1
 62
7
100
AcDbPolyline
 90
36
 70
0
 10
36.718999
 20
276.714824
 30
0.0
 10
36.669222
 20
276.774710
 30
0.0
 10
36.637239
 20
276.893391
 30
0.0
 10
36.604369
 20
277.450044
 30
0.0
 10
36.589778
 20
277.977345
 30
0.0
 10
37.120720
 20
277.977190
 30
0.0
 10
37.890536
 20
277.935532
 30
0.0
 10
38.051059
 20
277.863209
 30
0.0
 10
38.139934
 20
277.738280
 30
0.0
 10
38.190713
 20
277.540273
 30
0.0
 10
38.169824
 20
277.352363
 30
0.0
 10
38.086777
 20
277.205212
 30
0.0
 10
37.951083
 20
277.129482
 30
0.0
 10
37.876195
 20
277.115427
 30
0.0
 10
37.956891
 20
276.945504
 30
0.0
 10
38.017195
 20
276.798922
 30
0.0
 10
38.011848
 20
276.727482
 30
0.0
 10
37.939349
 20
276.679618
 30
0.0
 10
37.817388
 20
276.713483
 30
0.0
 10
37.427718
 20
277.025040
 30
0.0
 10
37.227892
 20
277.232772
 30
0.0
 10
37.176289
 20
277.332797
 30
0.0
 10
37.204371
 20
277.412401
 30
0.0
 10
37.472281
 20
277.446764
 30
0.0
 10
37.734996
 20
277.488041
 30
0.0
 10
37.825477
 20
277.559882
 30
0.0
 10
37.723428
 20
277.622509
 30
0.0
 10
37.367710
 20
277.648807
 30
0.0
 10
37.014243
 20
277.657838
 30
0.0
 10
37.013679
 20
277.301897
 30
0.0
 10
36.991637
 20
276.853243
 30
0.0
 10
36.949799
 20
276.755618
 30
0.0
 10
36.884090
 20
276.696807
 30
0.0
 10
36.803988
 20
276.681617
 30
0.0
 10
36.718968
 20
276.714858
 30
0.0
 10
36.718999
 20
276.714824
 30
0.0
  0
LWPOLYLINE
  5
10a
100
AcDbEntity
  8
Layer_1
 62
7
100
AcDbPolyline
 90
40
 70
0
 10
41.394913
 20
276.693488
 30
0.0
 10
41.261696
 20
276.715614
 30
0.0
 10
41.182181
 20
276.757854
 30
0.0
 10
41.130238
 20
276.835574
 30
0.0
 10
41.117934
 20
276.918588
 30
0.0
 10
41.157336
 20
276.976704
 30
0.0
 10
41.557157
 20
277.011471
 30
0.0
 10
41.993906
 20
277.051889
 30
0.0
 10
42.090416
 20
277.078844
 30
0.0
 10
42.067076
 20
277.103345
 30
0.0
 10
41.765759
 20
277.129423
 30
0.0
 10
41.397639
 20
277.176978
 30
0.0
 10
41.168391
 20
277.273641
 30
0.0
 10
41.072367
 20
277.388684
 30
0.0
 10
41.047326
 20
277.567412
 30
0.0
 10
41.071482
 20
277.716063
 30
0.0
 10
41.148235
 20
277.825705
 30
0.0
 10
41.284643
 20
277.902484
 30
0.0
 10
41.487765
 20
277.952543
 30
0.0
 10
41.940962
 20
277.974430
 30
0.0
 10
42.345212
 20
277.946476
 30
0.0
 10
42.435479
 20
277.910582
 30
0.0
 10
42.449516
 20
277.826969
 30
0.0
 10
42.438367
 20
277.747075
 30
0.0
 10
42.391567
 20
277.707185
 30
0.0
 10
41.911019
 20
277.654147
 30
0.0
 10
41.449532
 20
277.613572
 30
0.0
 10
41.432865
 20
277.593133
 30
0.0
 10
41.489908
 20
277.573185
 30
0.0
 10
41.822339
 20
277.535331
 30
0.0
 10
42.192392
 20
277.491035
 30
0.0
 10
42.364330
 20
277.409311
 30
0.0
 10
42.462316
 20
277.272347
 30
0.0
 10
42.479776
 20
277.073111
 30
0.0
 10
42.453409
 20
276.929025
 30
0.0
 10
42.391240
 20
276.830875
 30
0.0
 10
42.281642
 20
276.767743
 30
0.0
 10
42.112988
 20
276.728706
 30
0.0
 10
41.394913
 20
276.693468
 30
0.0
 10
41.394913
 20
276.693488
 30
0.0
  0
LWPOLYLINE
  5
10b
100
AcDbEntity
  8
Layer_1
 62
7
100
AcDbPolyline
 90
37
 70
0
 10
30.066629
 20
276.736993
 30
0.0
 10
30.014477
 20
276.842346
 30
0.0
 10
30.035438
 20
276.912191
 30
0.0
 10
30.111900
 20
276.958422
 30
0.0
 10
30.512806
 20
277.006966
 30
0.0
 10
30.876761
 20
277.034345
 30
0.0
 10
30.964779
 20
277.071146
 30
0.0
 10
30.756177
 20
277.119624
 30
0.0
 10
30.385095
 20
277.167371
 30
0.0
 10
30.118263
 20
277.292527
 30
0.0
 10
29.983717
 20
277.473680
 30
0.0
 10
29.974814
 20
277.578563
 30
0.0
 10
30.009496
 20
277.689416
 30
0.0
 10
30.078217
 20
277.797040
 30
0.0
 10
30.170204
 20
277.865582
 30
0.0
 10
30.547572
 20
277.943862
 30
0.0
 10
30.934549
 20
277.975047
 30
0.0
 10
31.192625
 20
277.958607
 30
0.0
 10
31.328417
 20
277.893169
 30
0.0
 10
31.348542
 20
277.777362
 30
0.0
 10
31.320166
 20
277.727561
 30
0.0
 10
31.244094
 20
277.693812
 30
0.0
 10
30.820817
 20
277.641506
 30
0.0
 10
30.412450
 20
277.594999
 30
0.0
 10
30.452889
 20
277.563355
 30
0.0
 10
30.727619
 20
277.538179
 30
0.0
 10
31.104937
 20
277.481441
 30
0.0
 10
31.328241
 20
277.347355
 30
0.0
 10
31.410384
 20
277.221444
 30
0.0
 10
31.440977
 20
277.071791
 30
0.0
 10
31.419132
 20
276.928091
 30
0.0
 10
31.343961
 20
276.820042
 30
0.0
 10
31.132384
 20
276.737769
 30
0.0
 10
30.617092
 20
276.709654
 30
0.0
 10
30.195994
 20
276.707590
 30
0.0
 10
30.066615
 20
276.737001
 30
0.0
 10
30.066629
 20
276.736993
 30
0.0
  0
LWPOLYLINE
  5
10c
100
AcDbEntity
  8
Layer_1
 62
7
100
AcDbPolyline
 90
21
 70
0
 10
34.739295
 20
276.734735
 30
0.0
 10
34.569087
 20
276.804661
 30
0.0
 10
34.481705
 20
276.909629
 30
0.0
 10
34.423670
 20
277.077023
 30
0.0
 10
34.416690
 20
277.502661
 30
0.0
 10
34.498298
 20
277.761987
 30
0.0
 10
34.666944
 20
277.900067
 30
0.0
 10
34.832616
 20
277.956774
 30
0.0
 10
35.171597
 20
277.964541
 30
0.0
 10
35.646749
 20
277.933561
 30
0.0
 10
35.789523
 20
277.864956
 30
0.0
 10
35.882467
 20
277.745869
 30
0.0
 10
35.932881
 20
277.560817
 30
0.0
 10
35.948064
 20
277.294314
 30
0.0
 10
35.938773
 20
277.064396
 30
0.0
 10
35.895915
 20
276.933995
 30
0.0
 10
35.774229
 20
276.791380
 30
0.0
 10
35.584436
 20
276.739712
 30
0.0
 10
35.288408
 20
276.709749
 30
0.0
 10
34.739295
 20
276.734735
 30
0.0
 10
34.739295
 20
276.734735
 30
0.0
  0
LWPOLYLINE
  5
10d
100
AcDbEntity
  8
Layer_1
 62
7
100
AcDbPolyline
 90
15
 70
0
 10
35.579287
 20
277.139724
 30
0.0
 10
35.626726
 20
277.331927
 30
0.0
 10
35.568817
 20
277.519761
 30
0.0
 10
35.405572
 20
277.631719
 30
0.0
 10
35.154356
 20
277.644602
 30
0.0
 10
34.899854
 20
277.599357
 30
0.0
 10
34.780711
 20
277.496024
 30
0.0
 10
34.733139
 20
277.330161
 30
0.0
 10
34.748828
 20
277.189764
 30
0.0
 10
34.795080
 20
277.127828
 30
0.0
 10
34.871024
 20
277.092698
 30
0.0
 10
35.214238
 20
277.078391
 30
0.0
 10
35.495428
 20
277.091889
 30
0.0
 10
35.579293
 20
277.139724
 30
0.0
 10
35.579287
 20
277.139724
 30
0.0
  0
LWPOLYLINE
  5
10e
100
AcDbEntity
  8
Layer_1
 62
7
100
AcDbPolyline
 90
23
 70
0
 10
39.487941
 20
276.758608
 30
0.0
 10
39.442088
 20
277.146838
 30
0.0
 10
39.392087
 20
277.575319
 30
0.0
 10
39.311840
 20
277.637931
 30
0.0
 10
39.161376
 20
277.660548
 30
0.0
 10
38.959696
 20
277.741589
 30
0.0
 10
38.919983
 20
277.809316
 30
0.0
 10
38.935084
 20
277.881452
 30
0.0
 10
39.086971
 20
277.935221
 30
0.0
 10
39.471132
 20
277.952998
 30
0.0
 10
40.064570
 20
277.919520
 30
0.0
 10
40.229677
 20
277.874652
 30
0.0
 10
40.314603
 20
277.809756
 30
0.0
 10
40.323547
 20
277.764256
 30
0.0
 10
40.289954
 20
277.724435
 30
0.0
 10
40.093570
 20
277.660757
 30
0.0
 10
39.904980
 20
277.609245
 30
0.0
 10
39.798052
 20
277.015472
 30
0.0
 10
39.765948
 20
276.855844
 30
0.0
 10
39.713216
 20
276.777895
 30
0.0
 10
39.593840
 20
276.727729
 30
0.0
 10
39.487941
 20
276.758619
 30
0.0
 10
39.487941
 20
276.758608
 30
0.0
  0
LWPOLYLINE
  5
10f
100
AcDbEntity
  8
Layer_1
 62
7
100
AcDbPolyline
 90
32
 70
0
 10
19.154450
 20
279.181288
 30
0.0
 10
18.652545
 20
279.223931
 30
0.0
 10
18.576449
 20
279.291702
 30
0.0
 10
18.543625
 20
279.418964
 30
0.0
 10
18.390037
 20
280.515361
 30
0.0
 10
18.159136
 20
282.065294
 30
0.0
 10
17.984534
 20
282.747034
 30
0.0
 10
17.938699
 20
282.914011
 30
0.0
 10
17.956957
 20
282.970056
 30
0.0
 10
18.060384
 20
282.991986
 30
0.0
 10
19.075789
 20
283.006803
 30
0.0
 10
20.006651
 20
282.978033
 30
0.0
 10
20.067395
 20
282.693454
 30
0.0
 10
20.186923
 20
281.396126
 30
0.0
 10
20.324639
 20
280.160289
 30
0.0
 10
20.364659
 20
280.168831
 30
0.0
 10
20.486726
 20
280.335583
 30
0.0
 10
21.236702
 20
281.535196
 30
0.0
 10
21.989551
 20
282.720095
 30
0.0
 10
22.148558
 20
282.903397
 30
0.0
 10
22.274402
 20
282.968310
 30
0.0
 10
22.593262
 20
283.020715
 30
0.0
 10
22.858247
 20
283.009969
 30
0.0
 10
22.909476
 20
282.974857
 30
0.0
 10
22.921987
 20
282.908417
 30
0.0
 10
22.878994
 20
282.746990
 30
0.0
 10
22.694878
 20
282.391483
 30
0.0
 10
21.572451
 20
280.510369
 30
0.0
 10
20.754836
 20
279.161044
 30
0.0
 10
20.186974
 20
279.164713
 30
0.0
 10
19.154450
 20
279.181280
 30
0.0
 10
19.154450
 20
279.181288
 30
0.0
  0
LWPOLYLINE
  5
110
100
AcDbEntity
  8
Layer_1
 62
7
100
AcDbPolyline
 90
22
 70
0
 10
22.829274
 20
279.189303
 30
0.0
 10
22.769546
 20
279.265261
 30
0.0
 10
22.773686
 20
279.459140
 30
0.0
 10
23.020121
 20
280.526958
 30
0.0
 10
23.492928
 20
282.531862
 30
0.0
 10
23.492038
 20
282.689182
 30
0.0
 10
23.422223
 20
282.820807
 30
0.0
 10
23.340215
 20
282.965042
 30
0.0
 10
23.348350
 20
283.008565
 30
0.0
 10
23.405197
 20
283.037182
 30
0.0
 10
24.358969
 20
283.064960
 30
0.0
 10
25.340487
 20
283.033148
 30
0.0
 10
25.377565
 20
282.937326
 30
0.0
 10
25.353746
 20
282.701015
 30
0.0
 10
25.067118
 20
281.488850
 30
0.0
 10
24.475973
 20
279.387378
 30
0.0
 10
24.427139
 20
279.287357
 30
0.0
 10
24.342375
 20
279.231181
 30
0.0
 10
23.860697
 20
279.182236
 30
0.0
 10
23.148512
 20
279.161159
 30
0.0
 10
22.829274
 20
279.189320
 30
0.0
 10
22.829274
 20
279.189303
 30
0.0
  0
LWPOLYLINE
  5
111
100
AcDbEntity
  8
Layer_1
 62
7
100
AcDbPolyline
 90
50
 70
0
 10
28.426780
 20
279.182643
 30
0.0
 10
27.993599
 20
279.224113
 30
0.0
 10
27.917402
 20
279.283065
 30
0.0
 10
27.885321
 20
279.387199
 30
0.0
 10
27.949214
 20
279.785269
 30
0.0
 10
28.147322
 20
280.549468
 30
0.0
 10
28.178675
 20
280.780331
 30
0.0
 10
28.165365
 20
280.856367
 30
0.0
 10
28.115802
 20
280.897100
 30
0.0
 10
27.772893
 20
280.918685
 30
0.0
 10
27.489855
 20
280.920943
 30
0.0
 10
27.464145
 20
280.825501
 30
0.0
 10
26.979335
 20
279.229681
 30
0.0
 10
25.733640
 20
279.182586
 30
0.0
 10
25.341416
 20
279.216975
 30
0.0
 10
25.273934
 20
279.257629
 30
0.0
 10
25.274538
 20
279.327070
 30
0.0
 10
25.726325
 20
281.187490
 30
0.0
 10
26.040500
 20
282.503778
 30
0.0
 10
26.039885
 20
282.643559
 30
0.0
 10
25.948120
 20
282.813751
 30
0.0
 10
25.851185
 20
283.019573
 30
0.0
 10
26.092849
 20
283.069562
 30
0.0
 10
26.964258
 20
283.071988
 30
0.0
 10
27.815815
 20
283.039900
 30
0.0
 10
27.925334
 20
282.988116
 30
0.0
 10
27.946905
 20
282.889709
 30
0.0
 10
27.847950
 20
282.379976
 30
0.0
 10
27.612187
 20
281.368539
 30
0.0
 10
27.819943
 20
281.510289
 30
0.0
 10
28.455823
 20
282.138416
 30
0.0
 10
29.151003
 20
282.810008
 30
0.0
 10
29.349783
 20
282.950608
 30
0.0
 10
29.526645
 20
283.025074
 30
0.0
 10
30.308065
 20
283.064915
 30
0.0
 10
30.977216
 20
283.048603
 30
0.0
 10
30.982656
 20
283.000634
 30
0.0
 10
30.926782
 20
282.903637
 30
0.0
 10
30.567924
 20
282.473866
 30
0.0
 10
29.664762
 20
281.403706
 30
0.0
 10
29.674562
 20
281.368865
 30
0.0
 10
29.800234
 20
281.348794
 30
0.0
 10
30.035026
 20
281.300467
 30
0.0
 10
30.101803
 20
281.257058
 30
0.0
 10
30.098927
 20
281.146777
 30
0.0
 10
29.844596
 20
280.098112
 30
0.0
 10
29.604866
 20
279.170990
 30
0.0
 10
29.201243
 20
279.169014
 30
0.0
 10
28.426771
 20
279.182617
 30
0.0
 10
28.426780
 20
279.182643
 30
0.0
  0
LWPOLYLINE
  5
112
100
AcDbEntity
  8
Layer_1
 62
7
100
AcDbPolyline
 90
16
 70
0
 10
30.918424
 20
279.176857
 30
0.0
 10
30.670543
 20
279.195867
 30
0.0
 10
30.625607
 20
279.247145
 30
0.0
 10
30.825793
 20
280.005453
 30
0.0
 10
31.212602
 20
281.457272
 30
0.0
 10
31.605028
 20
282.907819
 30
0.0
 10
31.648007
 20
283.013118
 30
0.0
 10
31.725306
 20
283.052551
 30
0.0
 10
32.886266
 20
283.061215
 30
0.0
 10
33.378188
 20
283.045891
 30
0.0
 10
33.362355
 20
282.893169
 30
0.0
 10
33.152848
 20
281.963982
 30
0.0
 10
32.795962
 20
280.578136
 30
0.0
 10
32.422863
 20
279.197073
 30
0.0
 10
30.918424
 20
279.176837
 30
0.0
 10
30.918424
 20
279.176857
 30
0.0
  0
LWPOLYLINE
  5
113
100
AcDbEntity
  8
Layer_1
 62
7
100
AcDbPolyline
 90
45
 70
0
 10
33.352119
 20
279.188146
 30
0.0
 10
33.281786
 20
279.230344
 30
0.0
 10
33.264111
 20
279.335641
 30
0.0
 10
33.327111
 20
279.755054
 30
0.0
 10
33.653524
 20
281.048479
 30
0.0
 10
33.945889
 20
282.209598
 30
0.0
 10
34.024285
 20
282.649512
 30
0.0
 10
33.954751
 20
282.806473
 30
0.0
 10
33.888523
 20
282.925890
 30
0.0
 10
33.934008
 20
283.020818
 30
0.0
 10
34.111126
 20
283.058604
 30
0.0
 10
34.921277
 20
283.064972
 30
0.0
 10
35.859751
 20
283.064972
 30
0.0
 10
35.916407
 20
282.995438
 30
0.0
 10
36.172900
 20
282.517859
 30
0.0
 10
36.528575
 20
281.709906
 30
0.0
 10
36.993381
 20
280.689218
 30
0.0
 10
37.102557
 20
280.977730
 30
0.0
 10
37.328630
 20
281.801767
 30
0.0
 10
37.590321
 20
282.786836
 30
0.0
 10
37.680386
 20
283.111329
 30
0.0
 10
37.897796
 20
283.109354
 30
0.0
 10
38.262418
 20
283.080532
 30
0.0
 10
38.487404
 20
283.020541
 30
0.0
 10
38.510611
 20
282.944516
 30
0.0
 10
38.452727
 20
282.645649
 30
0.0
 10
38.054380
 20
281.023882
 30
0.0
 10
37.611073
 20
279.414469
 30
0.0
 10
37.533975
 20
279.171097
 30
0.0
 10
36.827937
 20
279.171252
 30
0.0
 10
36.060664
 20
279.193985
 30
0.0
 10
35.900201
 20
279.235677
 30
0.0
 10
35.799576
 20
279.309544
 30
0.0
 10
35.612001
 20
279.639122
 30
0.0
 10
35.164302
 20
280.677681
 30
0.0
 10
34.818074
 20
281.500173
 30
0.0
 10
34.773396
 20
281.604143
 30
0.0
 10
34.721001
 20
281.465406
 30
0.0
 10
34.518775
 20
280.770402
 30
0.0
 10
34.151542
 20
279.470787
 30
0.0
 10
34.061750
 20
279.289096
 30
0.0
 10
33.965216
 20
279.226178
 30
0.0
 10
33.653621
 20
279.168503
 30
0.0
 10
33.352113
 20
279.188205
 30
0.0
 10
33.352119
 20
279.188146
 30
0.0
  0
LWPOLYLINE
  5
114
100
AcDbEntity
  8
Layer_1
 62
7
100
AcDbPolyline
 90
58
 70
0
 10
39.068598
 20
279.208043
 30
0.0
 10
38.647473
 20
279.311820
 30
0.0
 10
38.519038
 20
279.406813
 30
0.0
 10
38.429695
 20
279.538646
 30
0.0
 10
38.381762
 20
279.750031
 30
0.0
 10
38.647617
 20
280.992216
 30
0.0
 10
39.059477
 20
282.407823
 30
0.0
 10
39.150181
 20
282.592078
 30
0.0
 10
39.270426
 20
282.740911
 30
0.0
 10
39.430878
 20
282.857631
 30
0.0
 10
39.642201
 20
282.945552
 30
0.0
 10
40.260115
 20
283.048241
 30
0.0
 10
41.209488
 20
283.075470
 30
0.0
 10
42.318572
 20
283.053801
 30
0.0
 10
42.968618
 20
283.006094
 30
0.0
 10
43.191210
 20
282.890293
 30
0.0
 10
43.321230
 20
282.697081
 30
0.0
 10
43.335595
 20
282.311678
 30
0.0
 10
43.239789
 20
281.698962
 30
0.0
 10
43.146701
 20
281.367091
 30
0.0
 10
42.843143
 20
281.324440
 30
0.0
 10
42.154783
 20
281.305758
 30
0.0
 10
41.589100
 20
281.310415
 30
0.0
 10
41.460801
 20
281.354868
 30
0.0
 10
41.420908
 20
281.425466
 30
0.0
 10
41.414248
 20
281.537019
 30
0.0
 10
41.505858
 20
281.952417
 30
0.0
 10
41.600945
 20
282.313812
 30
0.0
 10
41.614428
 20
282.507862
 30
0.0
 10
41.532983
 20
282.588407
 30
0.0
 10
41.343284
 20
282.609284
 30
0.0
 10
41.027121
 20
282.590629
 30
0.0
 10
40.937474
 20
282.549974
 30
0.0
 10
40.881723
 20
282.455270
 30
0.0
 10
40.489612
 20
281.119759
 30
0.0
 10
40.152108
 20
279.733320
 30
0.0
 10
40.148434
 20
279.636630
 30
0.0
 10
40.199674
 20
279.600425
 30
0.0
 10
40.478411
 20
279.578762
 30
0.0
 10
40.769097
 20
279.606944
 30
0.0
 10
40.843342
 20
279.654129
 30
0.0
 10
40.904092
 20
279.749150
 30
0.0
 10
41.013177
 20
280.144527
 30
0.0
 10
41.061432
 20
280.524063
 30
0.0
 10
40.980679
 20
280.749924
 30
0.0
 10
40.913059
 20
280.876110
 30
0.0
 10
40.963565
 20
280.943913
 30
0.0
 10
41.650166
 20
280.985851
 30
0.0
 10
42.504973
 20
280.974412
 30
0.0
 10
42.951589
 20
280.918981
 30
0.0
 10
42.994191
 20
280.826107
 30
0.0
 10
42.824991
 20
280.111476
 30
0.0
 10
42.582239
 20
279.383814
 30
0.0
 10
42.473908
 20
279.246287
 30
0.0
 10
41.985943
 20
279.203327
 30
0.0
 10
40.527119
 20
279.187882
 30
0.0
 10
39.068589
 20
279.208040
 30
0.0
 10
39.068598
 20
279.208043
 30
0.0
  0
LWPOLYLINE
  5
115
100
AcDbEntity
  8
Layer_1
 62
7
100
AcDbPolyline
 90
69
 70
0
 10
29.516149
 20
284.157239
 30
0.0
 10
28.774977
 20
284.293824
 30
0.0
 10
28.475165
 20
284.393358
 30
0.0
 10
28.271176
 20
284.529616
 30
0.0
 10
28.125354
 20
284.739900
 30
0.0
 10
28.000045
 20
285.061513
 30
0.0
 10
27.824064
 20
285.788577
 30
0.0
 10
27.707804
 20
286.796607
 30
0.0
 10
27.640430
 20
287.420161
 30
0.0
 10
27.544061
 20
287.641332
 30
0.0
 10
27.333806
 20
287.802218
 30
0.0
 10
26.714523
 20
288.235081
 30
0.0
 10
26.278631
 20
288.696149
 30
0.0
 10
26.166113
 20
288.879138
 30
0.0
 10
26.100642
 20
289.065096
 30
0.0
 10
26.063134
 20
289.659102
 30
0.0
 10
26.087583
 20
290.195278
 30
0.0
 10
26.211563
 20
290.578376
 30
0.0
 10
26.320780
 20
290.736881
 30
0.0
 10
26.376924
 20
290.670421
 30
0.0
 10
26.455708
 20
290.342853
 30
0.0
 10
26.600728
 20
289.937238
 30
0.0
 10
26.719557
 20
289.725825
 30
0.0
 10
26.882614
 20
289.542965
 30
0.0
 10
27.122249
 20
289.345679
 30
0.0
 10
27.383667
 20
289.204988
 30
0.0
 10
27.667784
 20
289.120514
 30
0.0
 10
27.975514
 20
289.091881
 30
0.0
 10
28.203960
 20
289.102005
 30
0.0
 10
28.348906
 20
289.169492
 30
0.0
 10
28.684279
 20
289.410738
 30
0.0
 10
29.198852
 20
289.769379
 30
0.0
 10
29.728034
 20
290.049042
 30
0.0
 10
30.244622
 20
290.237548
 30
0.0
 10
30.721410
 20
290.322720
 30
0.0
 10
31.046453
 20
290.290690
 30
0.0
 10
31.613766
 20
290.030752
 30
0.0
 10
32.146729
 20
289.737668
 30
0.0
 10
32.587243
 20
289.417187
 30
0.0
 10
32.923325
 20
289.176339
 30
0.0
 10
33.062411
 20
289.124169
 30
0.0
 10
33.305764
 20
289.115844
 30
0.0
 10
33.628198
 20
289.141512
 30
0.0
 10
33.909643
 20
289.217032
 30
0.0
 10
34.159122
 20
289.345899
 30
0.0
 10
34.385656
 20
289.531606
 30
0.0
 10
34.680998
 20
289.926330
 30
0.0
 10
34.858424
 20
290.435566
 30
0.0
 10
34.926601
 20
290.593680
 30
0.0
 10
35.015469
 20
290.619496
 30
0.0
 10
35.125000
 20
290.454222
 30
0.0
 10
35.231818
 20
290.157430
 30
0.0
 10
35.283412
 20
289.682972
 30
0.0
 10
35.232382
 20
289.207129
 30
0.0
 10
35.078974
 20
288.816966
 30
0.0
 10
34.854794
 20
288.489952
 30
0.0
 10
34.503133
 20
288.181864
 30
0.0
 10
33.902594
 20
287.749180
 30
0.0
 10
33.606997
 20
287.508230
 30
0.0
 10
33.513477
 20
286.182390
 30
0.0
 10
33.438615
 20
285.619722
 30
0.0
 10
33.333265
 20
285.157522
 30
0.0
 10
33.200709
 20
284.807013
 30
0.0
 10
33.044234
 20
284.579416
 30
0.0
 10
32.876438
 20
284.459404
 30
0.0
 10
32.638704
 20
284.347768
 30
0.0
 10
32.051348
 20
284.188208
 30
0.0
 10
29.516143
 20
284.157239
 30
0.0
 10
29.516149
 20
284.157239
 30
0.0
  0
LWPOLYLINE
  5
116
100
AcDbEntity
  8
Layer_1
 62
7
100
AcDbPolyline
 90
19
 70
0
 10
29.571137
 20
284.808656
 30
0.0
 10
29.205338
 20
285.231656
 30
0.0
 10
28.733242
 20
285.788362
 30
0.0
 10
28.586898
 20
285.971242
 30
0.0
 10
28.485270
 20
285.895914
 30
0.0
 10
28.337804
 20
285.811541
 30
0.0
 10
28.175195
 20
285.896098
 30
0.0
 10
28.052107
 20
285.966100
 30
0.0
 10
28.093293
 20
285.809009
 30
0.0
 10
28.219803
 20
285.567250
 30
0.0
 10
28.445099
 20
285.342220
 30
0.0
 10
28.547408
 20
285.300465
 30
0.0
 10
28.612205
 20
285.324801
 30
0.0
 10
28.686680
 20
285.347083
 30
0.0
 10
28.793358
 20
285.321245
 30
0.0
 10
28.977706
 20
285.192069
 30
0.0
 10
29.594316
 20
284.769320
 30
0.0
 10
29.571146
 20
284.808656
 30
0.0
 10
29.571137
 20
284.808656
 30
0.0
  0
LWPOLYLINE
  5
117
100
AcDbEntity
  8
Layer_1
 62
7
100
AcDbPolyline
 90
50
 70
0
 10
30.900093
 20
285.027302
 30
0.0
 10
31.342014
 20
285.528653
 30
0.0
 10
31.830160
 20
286.173782
 30
0.0
 10
32.135772
 20
286.576888
 30
0.0
 10
32.250334
 20
286.626180
 30
0.0
 10
32.661967
 20
286.611497
 30
0.0
 10
33.003239
 20
286.592617
 30
0.0
 10
33.102350
 20
286.798913
 30
0.0
 10
33.201463
 20
287.005209
 30
0.0
 10
33.209140
 20
287.387648
 30
0.0
 10
33.216816
 20
287.770084
 30
0.0
 10
32.935675
 20
288.025044
 30
0.0
 10
32.654531
 20
288.280004
 30
0.0
 10
32.672565
 20
288.430659
 30
0.0
 10
32.686545
 20
288.654094
 30
0.0
 10
32.652916
 20
288.824086
 30
0.0
 10
32.553560
 20
288.985840
 30
0.0
 10
32.370358
 20
289.184557
 30
0.0
 10
32.105007
 20
289.429961
 30
0.0
 10
32.040466
 20
289.463520
 30
0.0
 10
32.006162
 20
289.448663
 30
0.0
 10
31.984967
 20
288.949209
 30
0.0
 10
31.952833
 20
288.456316
 30
0.0
 10
31.773201
 20
288.463739
 30
0.0
 10
31.281487
 20
288.524599
 30
0.0
 10
30.626148
 20
288.544916
 30
0.0
 10
29.971821
 20
288.524684
 30
0.0
 10
29.483143
 20
288.463894
 30
0.0
 10
29.309681
 20
288.454073
 30
0.0
 10
29.291816
 20
289.002318
 30
0.0
 10
29.298505
 20
289.525998
 30
0.0
 10
29.210313
 20
289.455959
 30
0.0
 10
28.880728
 20
289.157211
 30
0.0
 10
28.668641
 20
288.914504
 30
0.0
 10
28.604244
 20
288.546102
 30
0.0
 10
28.552416
 20
288.232716
 30
0.0
 10
28.343919
 20
288.020780
 30
0.0
 10
28.145711
 20
287.805809
 30
0.0
 10
28.052312
 20
287.551229
 30
0.0
 10
28.059629
 20
287.229645
 30
0.0
 10
28.163570
 20
286.813662
 30
0.0
 10
28.232182
 20
286.598882
 30
0.0
 10
28.678005
 20
286.614320
 30
0.0
 10
29.123832
 20
286.629757
 30
0.0
 10
29.167178
 20
286.562549
 30
0.0
 10
30.126472
 20
285.308331
 30
0.0
 10
30.460071
 20
284.943805
 30
0.0
 10
30.648882
 20
284.791743
 30
0.0
 10
30.900091
 20
285.027339
 30
0.0
 10
30.900093
 20
285.027302
 30
0.0
  0
LWPOLYLINE
  5
118
100
AcDbEntity
  8
Layer_1
 62
7
100
AcDbPolyline
 90
11
 70
0
 10
30.541595
 20
285.600496
 30
0.0
 10
29.898588
 20
286.629571
 30
0.0
 10
30.416306
 20
286.693578
 30
0.0
 10
31.170299
 20
286.702765
 30
0.0
 10
31.321417
 20
286.682139
 30
0.0
 10
31.358419
 20
286.648754
 30
0.0
 10
31.099822
 20
286.154520
 30
0.0
 10
30.726098
 20
285.608731
 30
0.0
 10
30.627754
 20
285.537926
 30
0.0
 10
30.541595
 20
285.600490
 30
0.0
 10
30.541595
 20
285.600496
 30
0.0
  0
LWPOLYLINE
  5
119
100
AcDbEntity
  8
Layer_1
 62
7
100
AcDbPolyline
 90
17
 70
0
 10
32.178899
 20
285.099537
 30
0.0
 10
32.491753
 20
285.283494
 30
0.0
 10
32.686315
 20
285.312855
 30
0.0
 10
32.864169
 20
285.352598
 30
0.0
 10
33.043498
 20
285.555046
 30
0.0
 10
33.179335
 20
285.805886
 30
0.0
 10
33.227724
 20
285.966837
 30
0.0
 10
33.102457
 20
285.894255
 30
0.0
 10
32.939028
 20
285.816061
 30
0.0
 10
32.803894
 20
285.881075
 30
0.0
 10
32.706485
 20
285.950609
 30
0.0
 10
32.563192
 20
285.794156
 30
0.0
 10
32.111755
 20
285.266855
 30
0.0
 10
31.764842
 20
284.862324
 30
0.0
 10
31.859051
 20
284.896274
 30
0.0
 10
32.178899
 20
285.099537
 30
0.0
 10
32.178899
 20
285.099537
 30
0.0
  0
ENDSEC
  0
SECTION
  2
OBJECTS
  0
DICTIONARY
  5
C
330
0
100
AcDbDictionary
  3
ACAD_GROUP
350
D
  3
ACAD_MLINESTYLE
350
17
  0
DICTIONARY
  5
D
330
C
100
AcDbDictionary
  0
DICTIONARY
  5
1A
330
C
100
AcDbDictionary
  0
DICTIONARY
  5
17
330
C
100
AcDbDictionary
  3
STANDARD
350
18
  0
DICTIONARY
  5
19
330
C
100
AcDbDictionary
  0
ENDSEC
  0
EOF
