<?xml version="1.0" encoding="UTF-8" standalone="no"?>
<!-- Created with Inkscape (http://www.inkscape.org/) -->

<svg
   xmlns:dc="http://purl.org/dc/elements/1.1/"
   xmlns:cc="http://creativecommons.org/ns#"
   xmlns:rdf="http://www.w3.org/1999/02/22-rdf-syntax-ns#"
   xmlns:svg="http://www.w3.org/2000/svg"
   xmlns="http://www.w3.org/2000/svg"
   xmlns:sodipodi="http://sodipodi.sourceforge.net/DTD/sodipodi-0.dtd"
   xmlns:inkscape="http://www.inkscape.org/namespaces/inkscape"
   width="744.09448819"
   height="1052.3622047"
   id="svg2"
   version="1.1"
   inkscape:version="0.48.5 r10040"
   sodipodi:docname="New document 1">
  <defs
     id="defs4" />
  <sodipodi:namedview
     id="base"
     pagecolor="#ffffff"
     bordercolor="#666666"
     borderopacity="1.0"
     inkscape:pageopacity="0.0"
     inkscape:pageshadow="2"
     inkscape:zoom="0.7"
     inkscape:cx="489.28571"
     inkscape:cy="691.42857"
     inkscape:document-units="px"
     inkscape:current-layer="layer1"
     showgrid="false"
     inkscape:window-width="1280"
     inkscape:window-height="752"
     inkscape:window-x="0"
     inkscape:window-y="0"
     inkscape:window-maximized="1" />
  <metadata
     id="metadata7">
    <rdf:RDF>
      <cc:Work
         rdf:about="">
        <dc:format>image/svg+xml</dc:format>
        <dc:type
           rdf:resource="http://purl.org/dc/dcmitype/StillImage" />
        <dc:title></dc:title>
      </cc:Work>
    </rdf:RDF>
  </metadata>
  <g
     inkscape:label="Layer 1"
     inkscape:groupmode="layer"
     id="layer1">
    <path
       style="fill:#000000"
       d="m 74.33502,483.79448 c -0.95723,-1.46041 -1.07626,-3.09157 -1.07626,-14.74995 0,-11.64381 0.11989,-13.2913 1.07334,-14.74937 0.59031,-0.90279 1.45902,-1.78942 1.93041,-1.97032 2.68457,-1.03018 6.96972,2.71992 12.74764,11.15593 1.96319,2.86632 3.79258,5.34941 4.06534,5.51796 0.27274,0.16851 2.31636,-2.27944 4.54133,-5.44004 5.09618,-7.23908 8.57814,-10.67475 11.34463,-11.19374 4.53242,-0.85028 5.818,3.60805 5.40755,18.75316 -0.28116,10.37462 -0.78038,12.70628 -2.86188,13.36693 -3.13512,0.99504 -6.02615,-2.90889 -7.19294,-9.71312 -0.4006,-2.33604 -0.8743,-4.24393 -1.05271,-4.2397 -0.17841,0.004 -1.65987,2.06372 -3.29217,4.5767 -3.75496,5.7808 -5.51627,7.88053 -6.61035,7.88053 -1.19555,0 -3.20214,-2.26534 -8.14941,-9.20028 l -4.2344,-5.93567 -0.45155,6.78207 c -0.31867,4.78662 -0.76412,7.31893 -1.51395,8.60672 -1.42235,2.44276 -3.29076,2.66345 -4.67462,0.55219 z m 70.61788,0.97621 c -2.0289,-0.28466 -4.96707,-1.15403 -6.52924,-1.93191 -5.16711,-2.57292 -7.00242,-6.97621 -6.55289,-15.72178 0.36801,-7.15977 1.94118,-10.53686 5.80264,-12.45633 7.09279,-3.52574 26.75045,-3.29904 30.43343,0.35096 1.66207,1.64718 2.77899,6.96102 2.78669,13.25782 0.0132,10.42176 -1.7372,14.57169 -6.66229,15.79937 -3.60922,0.89966 -14.93084,1.31187 -19.27834,0.70187 z m 14.54646,-9.63227 c 1.5834,-0.75764 1.60986,-0.86473 1.77626,-7.18531 l 0.16895,-6.41624 -9.16031,0.19051 c -10.6496,0.22146 -11.16424,0.453 -12.30147,5.53468 -0.6177,2.76018 -0.56805,3.40441 0.41761,5.41877 1.69918,3.47254 3.01397,3.90396 10.78907,3.54026 3.68644,-0.17247 7.42591,-0.65961 8.30995,-1.08263 z m 46.15056,8.86386 c -0.52409,-0.79986 -1.46313,-5.05065 -2.12314,-9.61089 -1.79263,-12.38612 -1.41388,-11.70079 -7.89551,-14.28648 -6.61927,-2.64059 -6.73023,-5.86745 -0.25515,-7.42081 3.07534,-0.73775 23.19977,-0.44595 26.75582,0.38795 2.21683,0.51987 3.67827,2.72164 2.84276,4.28284 -0.76639,1.43199 -4.74754,3.07901 -7.44256,3.07901 -4.66547,0 -5.13732,0.96599 -5.67794,11.62415 -0.3243,6.39355 -0.69659,8.9705 -1.54779,10.71366 -1.375,2.8159 -3.28671,3.32113 -4.65649,1.23057 z m 49.10225,0.77741 c -3.75058,-0.80269 -6.58668,-2.33037 -8.16304,-4.39708 -4.38923,-5.75458 -5.32917,-12.95424 -2.48788,-19.05659 1.9636,-4.21734 3.42973,-5.90301 6.63413,-7.62751 2.11977,-1.14081 3.29677,-1.27729 10.98099,-1.27333 10.46288,0.004 14.48999,0.99065 17.87181,4.37244 2.92442,2.92445 3.73021,6.06327 3.29532,12.83659 -0.61012,9.50237 -2.13296,11.96719 -8.63644,13.97867 -4.45953,1.37932 -15.43307,2.03611 -19.49489,1.16681 z m 11.7282,-8.96793 c 2.13051,-0.3306 4.19744,-0.8012 4.5932,-1.0458 1.64317,-1.01553 2.02434,-9.38884 0.53695,-11.7955 -0.61894,-1.00147 -5.47357,-1.94851 -12.41681,-2.42228 l -6.38086,-0.43537 0,8.53227 0,8.53227 4.89694,-0.38225 c 2.6933,-0.21031 6.64007,-0.65273 8.77058,-0.98334 z m 65.5737,8.99694 c -3.98934,-0.9712 -6.98497,-3.3902 -16.07372,-12.97968 -3.3541,-3.53891 -4.45476,-5.06144 -3.90468,-5.40139 0.42127,-0.26038 3.8868,-0.64705 7.70113,-0.85927 3.81434,-0.21229 7.94689,-0.55602 9.18341,-0.76397 6.69985,-1.12676 -4.24953,-4.35621 -14.8028,-4.366 l -4.8382,-0.004 -0.21823,10.23904 c -0.24234,11.36641 -0.81699,13.66391 -3.49593,13.97691 -2.68505,0.31372 -3.59072,-1.49638 -4.15461,-8.30362 -0.27875,-3.36516 -0.51847,-10.34377 -0.5327,-15.50804 l -0.026,-9.38958 9.94224,0.37356 c 26.68667,1.0027 29.23319,1.91054 29.23319,10.42165 0,4.43996 -0.98314,6.65726 -4.46857,10.07792 -1.45984,1.43271 -2.65424,3.02166 -2.65424,3.53098 0,0.50933 1.06841,2.21898 2.37428,3.79924 2.52691,3.05793 2.79553,3.86595 1.66198,4.99947 -0.77915,0.77918 -2.18742,0.82412 -4.92661,0.15729 z m 84.76461,-0.15487 c -0.90687,-0.43817 -1.49177,-1.51126 -1.9251,-3.53187 -0.63099,-2.94213 -2.18346,-28.8337 -1.75418,-29.25502 0.12847,-0.12605 7.90335,-0.0451 17.27775,0.17973 l 17.04435,0.40887 1.861,1.76319 c 2.79613,2.64909 5.29118,7.33458 5.29764,9.94842 0.007,2.76702 -1.87352,6.59896 -3.88495,7.91688 -1.10671,0.72514 -3.71633,1.11034 -9.9346,1.46641 -15.59564,0.89299 -16.08027,1.07077 -16.71236,6.12979 -0.59845,4.78994 -3.51703,6.78672 -7.26955,4.97352 z m 26.69257,-19.7992 c 1.40977,-0.54099 1.77552,-2.14267 0.7286,-3.19069 -0.68297,-0.68366 -2.4502,-0.98889 -6.60586,-1.14092 -6.90136,-0.25248 -10.42702,0.22302 -12.1803,1.64275 l -1.32551,1.07334 1.33539,0.7147 c 2.84613,1.52317 14.86282,2.12298 18.04768,0.90082 z m 88.43339,19.60115 c -2.06687,-1.44765 -2.53817,-4.47074 -2.93556,-18.82827 l -0.37378,-13.50365 13.5969,0.004 c 20.2467,0.007 23.6242,0.79838 26.1011,6.11822 3.0656,6.58437 0.5875,14.57323 -4.8363,15.59074 l -1.9178,0.35979 2.0665,4.35156 c 1.6995,3.57862 1.9495,4.57037 1.4074,5.58328 -1.6235,3.03351 -6.67,0.46285 -14.959,-7.62014 -5.0567,-4.93099 -6.4432,-6.62806 -6.4388,-7.88139 0.01,-0.8785 0.3268,-1.79585 0.7195,-2.03856 0.3927,-0.24269 3.4801,-0.63871 6.8609,-0.88001 5.881,-0.42003 9.045,-1.43326 9.045,-2.89682 0,-1.4615 -3.0613,-2.05617 -11.723,-2.27726 l -9.05186,-0.23105 -0.0132,9.11532 c -0.009,5.01342 -0.26172,10.18374 -0.56431,11.4896 -0.91321,3.94134 -4.10362,5.56053 -6.98279,3.54391 z m 119.74546,0.54612 c -0.8162,-0.14035 -2.3514,-0.3955 -3.4116,-0.56693 -3.0484,-0.49297 -5.038,-5.47053 -2.6725,-6.68623 0.5713,-0.29361 5.1789,-0.69428 10.239,-0.89037 9.2418,-0.35812 16.2312,-1.61742 13.0585,-2.35279 -0.8161,-0.18919 -4.2885,-0.48978 -7.7164,-0.66803 -7.4481,-0.38734 -12.5918,-1.62914 -15.298,-3.6933 -2.4209,-1.84649 -3.1032,-3.50222 -3.1004,-7.52321 0.01,-5.81163 3.1242,-8.5398 11.2792,-9.86284 5.0604,-0.821 18.5694,-0.72541 21.9584,0.15531 2.6029,0.67648 2.6711,0.75455 2.6711,3.06046 0,1.94132 -0.2666,2.49221 -1.484,3.06754 -0.8161,0.38571 -6.354,0.99694 -12.3064,1.35829 -5.9524,0.36135 -11.2706,0.82896 -11.8182,1.03909 -1.8354,0.70429 1.4103,1.38544 9.5472,2.00362 9.1054,0.69177 11.5392,1.25765 13.8799,3.22726 2.4468,2.05884 3.2592,4.42462 2.9564,8.60975 -0.4216,5.82845 -2.4937,7.77408 -9.393,8.81986 -4.5562,0.69058 -16.2769,1.2658 -18.3892,0.90245 z m -290.10605,-1.11364 c -0.85905,-0.62151 -1.33552,-1.58409 -1.33552,-2.69802 0,-2.86454 2.3991,-3.65708 12.76168,-4.21576 9.42197,-0.508 11.57456,-0.81367 11.57456,-1.64357 0,-0.71709 -2.19248,-1.22661 -5.3421,-1.24146 -14.13143,-0.0666 -23.05825,-6.87867 -19.12171,-14.59181 2.30096,-4.50842 4.08063,-5.35001 13.77961,-6.51609 15.48945,-1.86226 21.72424,-0.5662 20.51196,4.2639 -0.51911,2.06834 -2.10898,2.47763 -13.51446,3.47914 -5.58739,0.49064 -10.29342,1.02657 -10.45784,1.19099 -0.70442,0.70442 0.77581,0.97129 8.07109,1.45508 8.57612,0.56876 12.06414,1.67695 15.3814,4.88687 3.67477,3.55587 3.88977,10.76118 0.40293,13.50393 -2.69733,2.12171 -5.5467,2.55443 -18.61438,2.82691 -11.12517,0.23197 -12.93296,0.14211 -14.09722,-0.70011 z m 119.66233,0.0581 c -1.51852,-0.40902 -3.47995,-1.21483 -4.35884,-1.79069 -3.42479,-2.24398 -5.20495,-10.3975 -3.90278,-17.87515 1.06624,-6.12273 2.37072,-8.19431 6.4088,-10.17716 3.34038,-1.64029 3.66552,-1.68183 12.92368,-1.65111 5.85168,0.0198 10.52236,0.32397 12.16813,0.79342 5.80883,1.65695 7.71638,5.70379 7.71638,16.37048 0,5.66027 -0.18897,6.96511 -1.33552,9.22737 -0.73453,1.44916 -2.13684,3.09269 -3.11623,3.65225 -3.63786,2.07848 -20.70464,3.01257 -26.50362,1.45059 z m 21.51137,-10.37134 c 1.74139,-2.15176 1.58767,-7.72978 -0.2683,-9.73241 -2.75629,-2.97409 -4.85378,-3.60588 -10.61388,-3.19701 -5.84955,0.41523 -8.34103,1.40594 -9.56872,3.80492 -1.29895,2.53824 -1.67753,6.1743 -0.8165,7.84303 1.36324,2.64207 3.00872,3.03583 11.91871,2.85211 7.81691,-0.16125 8.26945,-0.23721 9.34869,-1.57064 z m 100.09665,9.76002 c -0.6204,-0.62039 -0.929,-3.23339 -1.1742,-9.94226 -0.4507,-12.33136 -0.5672,-12.54459 -7.1888,-13.15552 -4.4745,-0.41285 -7.3666,-3.23597 -5.7951,-5.65712 0.8127,-1.25224 4.9839,-1.80898 13.7277,-1.83225 13.3212,-0.0354 20.0049,1.09958 21.6004,3.66828 1.0271,1.65362 -0.8235,2.90108 -5.6604,3.81568 -2.381,0.4502 -4.5543,1.04384 -4.8296,1.31915 -0.4894,0.48934 -1.4226,5.67185 -2.7383,15.206 -0.5355,3.88027 -0.9327,4.99272 -2.1726,6.08406 -1.7165,1.51096 -4.5127,1.75037 -5.7691,0.49398 z M 82.13412,421.29259 c -14.4263,-0.40117 -14.63485,-0.48232 -15.64263,-6.08667 -0.37002,-2.05772 -2.13995,-14.69262 -3.9332,-28.07757 -4.86198,-36.29019 -7.44494,-50.5055 -10.38454,-57.15091 -0.64557,-1.45942 -1.17376,-3.38365 -1.17376,-4.27607 0,-1.51415 0.20833,-1.6476 3.11623,-1.99687 1.71392,-0.20591 13.4155,-0.37664 26.0035,-0.37948 17.4134,-0.004 23.11476,0.17225 23.83841,0.73681 1.06115,0.82779 1.54829,5.10251 4.61663,40.51097 1.91488,22.09776 2.83807,30.38219 3.52677,31.64855 0.70453,1.29546 2.57864,-1.52973 23.35701,-35.20997 20.66496,-33.49641 21.88943,-35.1875 26.57441,-36.70057 4.02418,-1.29967 12.76715,-1.9235 14.95169,-1.06685 1.32204,0.51842 1.63231,1.01275 1.63231,2.60062 0,3.87127 -3.98929,10.96001 -34.56023,61.41163 l -20.9383,34.55478 -14.54241,-0.0937 c -7.99832,-0.0515 -19.89718,-0.24266 -26.44189,-0.42464 z m 94.10855,-0.20503 c -2.99735,-1.5088 -2.42793,-5.49983 4.88743,-34.25601 9.34117,-36.71939 11.78395,-47.07786 12.10808,-51.34357 0.30424,-4.00405 0.23846,-4.27283 -1.81065,-7.39957 -4.22032,-6.43973 -4.9388,-6.25248 23.98912,-6.25248 19.59851,0 24.33824,0.15355 25.13567,0.81463 2.14545,1.77845 1.0936,7.72048 -7.00071,39.54794 -5.17261,20.33909 -12.94777,47.97919 -15.13862,53.81655 -1.6355,4.35773 -2.23584,4.55789 -15.75656,5.25349 -15.20238,0.78215 -24.62872,0.71754 -26.41376,-0.18105 z m 143.34651,0.17071 c -5.2234,-0.22012 -10.2154,-0.69802 -11.0933,-1.06199 -3.36717,-1.39599 -3.64835,-4.9511 -1.13669,-14.37064 5.52783,-20.7312 6.04234,-22.96238 5.87627,-25.48259 -0.21933,-3.32993 -0.61029,-3.4632 -10.39169,-3.54305 l -7.24831,-0.0592 -0.65816,2.44419 c -3.43739,12.76551 -11.87282,40.53192 -12.41546,40.86729 -0.78078,0.48256 -19.91809,1.20606 -31.90099,1.20606 -5.67329,0 -8.53785,-0.25114 -10.04448,-0.88065 -1.95784,-0.81803 -2.07963,-1.01852 -1.71267,-2.81945 1.29872,-6.37382 4.83466,-20.93447 11.56981,-47.64347 4.19848,-16.64955 7.81903,-31.81853 8.04568,-33.70881 0.4021,-3.35351 0.34468,-3.54615 -2.36572,-7.93809 -1.52779,-2.47564 -2.64488,-4.84755 -2.48242,-5.27091 0.51521,-1.34258 6.48648,-1.62375 28.50471,-1.34223 24.88469,0.31819 24.88051,0.31742 25.1646,4.66793 0.11593,1.77426 -0.75104,6.23972 -2.53414,13.0538 -4.36532,16.68187 -6.42435,25.51519 -6.03768,25.90186 0.85412,0.85413 6.13212,-3.96243 21.60468,-19.71578 17.23534,-17.54814 21.09811,-20.74657 27.42264,-22.70644 2.78347,-0.86257 5.8766,-1.02026 20.01137,-1.02026 9.19545,0 16.90681,0.18787 17.13635,0.41752 1.05279,1.05327 -1.00323,3.94036 -10.48158,14.71844 -11.40653,12.97067 -22.32283,25.90536 -23.12912,27.40568 -0.46541,0.86595 -0.0249,1.04456 3.4693,1.40622 2.20135,0.22786 4.9071,0.78478 6.0128,1.23763 2.00532,0.82123 2.00946,0.8312 1.63647,3.93588 -0.20569,1.71189 -3.1366,13.79676 -6.51319,26.85522 l -6.13925,23.74269 -10.33638,0.0517 c -5.68502,0.0284 -14.61008,-0.12847 -19.83345,-0.34855 z m 63.80848,0.14805 c -6.56708,-0.19381 -7.86123,-0.50439 -7.49875,-1.8 0.15685,-0.56044 2.46372,-9.29923 5.12656,-19.41955 5.04793,-19.1851 18.40945,-68.95184 19.95546,-74.32661 0.8048,-2.79796 1.10358,-3.15753 3.08015,-3.70648 2.53889,-0.70517 11.96279,-0.77561 29.73109,-0.22225 l 12.59764,0.39232 -0.40546,3.91104 c -0.223,2.15106 -2.63734,12.85907 -5.36527,23.79554 -5.32044,21.33057 -18.29429,70.50614 -18.69421,70.85775 -0.32028,0.28162 -32.07154,0.70871 -38.52721,0.51824 z m 62.32455,-0.28882 c -1.96481,-0.70882 -2.08704,-0.91363 -2.25383,-3.7772 -0.22525,-3.86773 1.2037,-10.15296 9.97252,-43.86407 7.30604,-28.08759 9.49476,-37.53901 9.49476,-41.00082 0,-1.36636 -0.55894,-2.62812 -1.78069,-4.0196 -2.09801,-2.3895 -2.24761,-3.93597 -0.53107,-5.48919 1.1856,-1.07275 2.48229,-1.13073 25.283,-1.13073 l 24.03336,0 1.45091,1.7807 c 2.38871,2.93158 9.90177,18.70886 15.67701,32.92118 6.03344,14.84771 11.1752,26.13877 11.90322,26.13877 0.75929,0 3.8346,-10.20558 8.5854,-28.49123 2.4173,-9.30418 5.433,-20.65616 6.7016,-25.22661 l 2.3065,-8.30995 5.5677,0.0517 c 6.3024,0.0583 13.5647,1.15236 15.0992,2.27443 0.9672,0.70721 0.9137,1.28475 -0.888,9.60064 -4.0698,18.78455 -16.9228,68.1281 -21.5539,82.74726 l -1.9744,6.23246 -18.08098,-0.004 c -20.45736,-0.004 -23.16171,-0.36797 -26.33527,-3.54151 -2.20178,-2.20176 -5.18494,-8.62638 -16.26873,-35.03657 -4.24728,-10.12033 -8.23718,-19.59875 -8.86655,-21.0632 l -1.14415,-2.6626 -1.34177,3.55295 c -0.7379,1.95391 -3.06838,9.96327 -5.1788,17.79835 -10.17998,37.79416 -10.17327,37.77537 -14.17611,39.54603 -3.44452,1.52367 -12.60085,2.09078 -15.70093,0.97243 z m 146.39329,-0.50969 c -9.4603,-0.99812 -13.8447,-3.26681 -16.3617,-8.4664 -0.7235,-1.49446 -1.2275,-3.71724 -1.2275,-5.41336 0,-6.81468 12.3702,-55.32718 17.3556,-68.06336 5.4283,-13.86786 16.0131,-17.1548 55.0596,-17.09781 19.8424,0.029 40.8812,0.85872 45.0496,1.77669 4.1253,0.90852 8.0656,4.36171 9.03,7.91351 0.4111,1.51428 0.5518,5.28416 0.3681,9.86975 -0.2386,5.95901 -0.7216,9.04783 -2.4535,15.69103 -1.1861,4.54929 -2.2588,8.37379 -2.3839,8.49889 -0.8692,0.8692 -11.3935,1.51994 -25.402,1.57067 -16.2387,0.0587 -16.4681,0.0427 -17.7722,-1.25767 -1.9146,-1.90887 -1.6491,-5.42946 1.1539,-15.30264 4.4883,-15.80967 4.3138,-16.51475 -4.1634,-16.8217 -3.0657,-0.11109 -6.7091,0.10384 -8.0966,0.47747 -2.2088,0.59475 -2.672,1.02608 -3.7235,3.46642 -3.084,7.15799 -17.4653,60.80951 -18.6847,69.70636 -0.362,2.64053 -0.2948,2.82813 1.2181,3.40333 2.167,0.8239 12.0074,0.7114 14.5824,-0.16675 2.8454,-0.97032 4.2899,-4.15201 6.2506,-13.76693 1.855,-9.09684 1.7178,-11.65397 -0.8322,-15.50362 -3.6677,-5.53723 -3.216,-5.69641 17.1449,-6.04186 16.2307,-0.27536 31.0352,0.48531 33.3281,1.71245 0.6896,0.36905 1.091,1.24407 1.091,2.37841 0,4.17408 -8.0382,32.31676 -10.5497,36.93572 -0.8557,1.57366 -2.1041,3.15853 -2.7742,3.52193 -0.6767,0.36696 -6.2327,0.8561 -12.4963,1.10018 -15.0548,0.58659 -68.83,0.4997 -74.7105,-0.12077 z M 347.48683,293.86321 c -4.88796,-0.48293 -13.44966,-2.06071 -18.98071,-3.49779 -12.30167,-3.19624 -15.48809,-6.3529 -19.8452,-19.65978 -3.76341,-11.49367 -5.7598,-23.34656 -7.48401,-44.43401 -1.33266,-16.29848 -1.87058,-19.07353 -4.19329,-21.63255 -1.05339,-1.16059 -3.47637,-3.01464 -5.38438,-4.12012 -11.70291,-6.78051 -21.58104,-15.14913 -27.02198,-22.89262 -4.78096,-6.80425 -5.53448,-10.17141 -5.51864,-24.66028 0.0154,-13.22746 0.38803,-15.54115 3.80107,-23.54171 1.22242,-2.86551 2.04491,-4.05916 2.79696,-4.05916 1.13997,0 1.54235,1.17508 3.45538,10.09064 0.5604,2.61171 2.2316,7.28604 3.71378,10.38742 2.225,4.65568 3.4837,6.41621 7.21888,10.09697 7.82081,7.70686 17.06698,11.52313 27.98807,11.55182 6.0634,0.0154 6.34983,-0.0436 9.56214,-1.98759 1.82134,-1.1022 5.68621,-3.88233 8.58857,-6.17807 17.01117,-13.45563 36.87789,-22.34954 52.16887,-23.35492 6.45759,-0.42458 8.12243,0.12011 22.85233,7.47697 11.17887,5.58329 16.90776,9.1941 24.92981,15.7128 3.10141,2.52018 6.97443,5.29573 8.60674,6.16792 2.73866,1.46328 3.49494,1.58291 9.79387,1.54919 11.81211,-0.0634 20.20889,-3.29607 27.65495,-10.64721 6.27608,-6.19607 9.85725,-13.0435 12.1071,-23.14956 0.80476,-3.61492 2.51056,-5.61271 4.02179,-4.71025 1.52367,0.90991 4.10943,6.4324 5.54047,11.83304 1.756,6.62687 1.7626,17.66207 0.0154,24.33626 -1.7578,6.71173 -5.49536,13.81069 -9.66962,18.36616 -3.76051,4.10391 -12.1264,10.61223 -24.38495,18.9704 -4.70271,3.20643 -7.56874,5.54263 -7.56993,6.17051 -0.007,2.18582 -1.83056,28.07822 -2.39498,33.95347 -1.99819,20.80003 -6.30292,35.50534 -12.01682,41.05054 -4.25678,4.13103 -14.96149,8.34882 -25.42679,10.01846 -4.18798,0.66817 -59.36643,1.34216 -64.92408,0.79305 z m 1.40821,-16.68214 c -0.44805,-0.56521 -4.66356,-5.43989 -9.36781,-10.83259 -4.70423,-5.39272 -10.14468,-11.80823 -12.08988,-14.25669 -1.94519,-2.44845 -3.63166,-4.55597 -3.74768,-4.68339 -0.11593,-0.12737 -1.28719,0.7407 -2.6026,1.92911 -1.31541,1.18839 -3.01484,2.16071 -3.77648,2.16071 -0.76164,0 -2.63553,-0.97443 -4.16422,-2.16544 -1.52869,-1.19099 -2.94719,-1.99768 -3.1522,-1.79267 -0.5976,0.59759 1.97885,6.72544 4.29452,10.21416 3.29766,4.9681 8.73829,8.32966 10.04902,6.20887 0.49504,-0.80099 3.04451,-0.75099 4.63916,0.0911 0.71309,0.37651 2.83752,1.86516 4.72099,3.30812 3.31138,2.53692 15.34151,10.78479 15.79075,10.82615 0.12165,0.011 -0.14564,-0.44211 -0.59357,-1.00735 z m 34.03321,-5.59931 c 7.07877,-7.24403 15.1609,-17.20672 23.81806,-29.36015 3.5181,-4.93891 7.04001,-9.58434 7.82648,-10.32317 1.63193,-1.53313 1.69975,-1.5376 13.47532,-0.88628 l 8.73961,0.4834 2.53816,-5.28302 2.53815,-5.28301 0.19667,-9.79388 0.19667,-9.79385 -7.19974,-6.52924 -7.19979,-6.52924 0.4618,-3.85818 c 1.08396,-9.05611 0.15421,-11.37576 -7.7392,-19.30657 -6.47017,-6.5009 -8.54199,-8.00333 -9.32673,-6.76346 -0.29359,0.46387 -0.53791,6.21959 -0.5429,12.79048 -0.007,9.38788 -0.18347,12.09175 -0.82295,12.62249 -0.61218,0.50808 -1.75211,0.46105 -4.60013,-0.18985 -12.12251,-2.77021 -46.66198,-2.77215 -58.64618,-0.004 -2.68547,0.62045 -3.99912,0.69496 -4.44215,0.25193 -0.41635,-0.41637 -0.57107,-5.16348 -0.4576,-14.04 l 0.17137,-13.41095 -2.25854,1.79366 c -5.10357,4.05307 -12.78012,11.72655 -13.87165,13.86611 -0.84921,1.6646 -1.2986,4.23552 -1.64918,9.43439 -0.55643,8.25245 -0.76062,8.6645 -6.6666,13.45294 -8.60385,6.97584 -9.77069,14.78574 -4.61859,30.91313 l 1.75711,5.50026 11.41709,-0.39536 11.41712,-0.39537 1.1101,1.72114 c 2.98509,4.62822 18.8069,25.31424 24.56654,32.11923 6.14004,7.25465 12.18215,13.22935 13.37837,13.22935 0.29555,0 3.1905,-2.71506 6.4332,-6.03343 z m -9.18077,-14.67891 c -1.38199,-1.64238 -16.46679,-25.78426 -16.46679,-26.35359 0,-1.16809 24.49955,-2.57816 32.56725,-1.8744 3.88856,0.3392 4.82556,0.60824 4.81757,1.38321 -0.0246,2.39076 -12.24033,22.48274 -16.19308,26.63388 -2.25525,2.36845 -2.88582,2.39658 -4.72495,0.21096 z m 41.92974,12.82908 c 7.18203,-4.80971 9.85144,-5.93193 12.99442,-5.46283 3.33703,0.49805 5.75962,-1.14462 9.14705,-6.20234 2.42877,-3.62634 5.27503,-9.98841 4.71791,-10.54555 -0.14277,-0.14277 -1.58631,0.69371 -3.20799,1.85876 -3.59435,2.5823 -5.01773,2.64512 -7.64592,0.33757 -1.11542,-0.97941 -2.23799,-1.78071 -2.49452,-1.78071 -0.25648,0 -1.90784,1.80295 -3.66963,4.00658 -1.76179,2.20362 -6.96413,8.28026 -11.56079,13.50365 -4.59663,5.2234 -8.59453,9.88524 -8.88418,10.35966 -0.64193,1.05137 3.54093,-1.34498 10.60365,-6.07479 z"
       id="path3050"
       inkscape:connector-curvature="0" />
    <path
       style="fill:#000000"
       d="m 82.065894,941.63669 c -2.6369,-2.63691 -1.5843,-27.90735 1.23504,-29.64979 1.6084,-0.99405 5.16219,1.27514 8.77572,5.60357 3.33998,4.00075 7.0305,7.28343 8.201146,7.2948 1.17063,0.0115 4.82102,-3.25509 8.11194,-7.25885 9.06006,-11.02246 13.52921,-7.89694 13.52921,9.46174 0,11.13841 -0.71534,13.84572 -3.65834,13.84572 -2.01208,0 -4.19863,-2.06605 -4.85897,-4.59122 -1.43191,-5.47566 -3.677,-5.81688 -7.55199,-1.14781 -1.57179,1.89388 -4.31326,3.44342 -6.092166,3.44342 -1.77892,0 -3.829,-1.54954 -4.55574,-3.44342 -1.91496,-4.99028 -7.71701,-4.22917 -7.71701,1.01232 0,4.79147 -3.02546,7.8229 -5.41884,5.42952 z m 62.017186,-2.60527 c -4.81179,-5.31694 -4.92439,-19.60058 -0.19191,-24.33312 4.16931,-4.16934 24.01391,-4.95793 30.97773,-1.23103 3.46814,1.8561 4.44031,4.85406 4.44031,13.69293 0,13.4888 -3.23642,16.0693 -20.15381,16.0693 -8.00589,0 -12.37433,-1.21675 -15.07241,-4.19808 z m 22.4509,-4.92756 c 12.65586,-4.81175 4.03007,-17.47615 -9.9929,-14.67155 -5.88246,1.17648 -7.07476,2.49885 -7.07476,7.84653 0,5.86488 1.74914,7.46664 9.60692,8.79752 0.86475,0.14647 4.22209,-0.74116 7.46074,-1.9725 z m 48.67754,7.53283 c -0.80739,-0.80742 -1.468,-5.51767 -1.468,-10.46727 0,-7.89717 -0.84596,-9.31859 -6.90776,-11.60665 -11.06571,-4.17685 -6.6177,-7.32406 10.35118,-7.32406 16.96888,0 21.41689,3.14721 10.35118,7.32406 -6.10505,2.30439 -6.90776,3.68187 -6.90776,11.85377 0,8.89151 -2.33797,13.30102 -5.41884,10.22015 z m 41.13103,-3.50922 c -1.96546,-2.80609 -3.57359,-7.74138 -3.57359,-10.96727 0,-3.22589 1.60813,-8.16119 3.57359,-10.96728 2.9969,-4.27865 5.73001,-5.10202 16.93603,-5.10202 15.68086,0 19.5593,3.1864 19.5593,16.0693 0,12.88289 -3.87844,16.0693 -19.5593,16.0693 -11.20602,0 -13.93913,-0.82337 -16.93603,-5.10203 z m 26.8433,-5.63366 c 3.24345,-1.90897 1.72401,-9.7621 -2.29561,-11.86484 -2.20953,-1.15582 -7.37466,-1.59144 -11.47807,-0.96802 -6.37332,0.9683 -7.46075,2.07143 -7.46075,7.56851 0,3.53924 1.29128,6.96705 2.86952,7.61735 2.83763,1.16923 15.03586,-0.39367 18.36491,-2.353 z m 30.27029,7.73803 c -0.69407,-1.80876 -0.94503,-8.84716 -0.55769,-15.64089 l 0.70429,-12.35224 15.70203,-0.6835 c 9.59998,-0.41789 16.9599,0.36043 18.93881,2.00279 4.2504,3.52751 4.13647,12.29338 -0.2066,15.89781 -1.89388,1.57179 -3.44342,5.31387 -3.44342,8.31573 0,7.39183 -3.73403,6.86115 -11.69609,-1.66228 -7.34257,-7.86021 -6.93149,-11.24468 1.3658,-11.24468 8.46829,0 8.8849,-3.94069 0.55049,-5.20707 -11.2638,-1.71147 -15.47198,1.56304 -15.47198,12.03921 0,9.18003 -3.62239,14.43306 -5.88564,8.53512 z m 60.98038,-0.5178 c 0,-1.93353 1.5961,-4.12795 3.54689,-4.87655 2.98606,-1.14586 2.80459,-1.88098 -1.14781,-4.64935 -5.41538,-3.79307 -6.18909,-12.70359 -1.44495,-16.64089 4.12976,-3.4274 29.34718,-2.29991 30.55556,1.36617 0.48491,1.4711 -1.40955,3.40191 -4.2099,4.29071 -4.88615,1.5508 -4.91438,1.7128 -0.70025,4.01592 8.47467,4.63166 10.01624,10.61309 4.22728,16.40205 -5.06931,5.06934 -30.82682,5.14613 -30.82682,0.0918 z m 16.6432,-7.18734 c -1.57823,-0.63682 -4.1608,-0.63682 -5.73903,0 -1.57824,0.63683 -0.28695,1.15789 2.86952,1.15789 3.15647,0 4.44775,-0.52106 2.86951,-1.15789 z m 99.85923,8.22331 c -2.85816,-1.66474 -4.01733,-5.24034 -4.01733,-12.3921 0,-13.61285 4.1294,-17.26701 19.51272,-17.26701 14.95269,0 19.51273,3.75533 19.51273,16.0693 0,12.24439 -4.58524,16.08475 -19.1028,15.99949 -6.53839,-0.0383 -13.69579,-1.12274 -15.90532,-2.40968 z m 26.65582,-10.14639 c 3.33525,-8.69154 -6.82863,-14.59558 -17.88795,-10.39085 -5.55647,2.11257 -7.91514,8.75665 -4.36794,12.30385 3.13641,3.13641 20.9043,1.60918 22.25589,-1.913 z m 48.98999,6.2238 c -8.05641,-8.40909 -7.85341,-11.96284 0.68336,-11.96284 3.78777,0 6.88685,-0.91255 6.88685,-2.02787 0,-2.86624 -7.6478,-4.51566 -14.69301,-3.16889 -5.363,1.0252 -5.96752,2.17721 -5.96752,11.37174 0,8.50339 -0.67836,10.10242 -4.01733,9.46966 -4.35742,-0.82578 -6.63474,-14.06792 -4.13332,-24.03437 1.25563,-5.00286 2.48186,-5.38395 17.32392,-5.38395 14.50431,0 16.31833,0.52758 19.73301,5.73903 3.51098,5.35843 3.4821,6.15771 -0.43543,12.05198 -2.30767,3.47212 -4.23429,7.77355 -4.28135,9.55873 -0.15059,5.71225 -4.71679,5.04856 -11.09918,-1.61322 z m 52.69737,4.85176 c -0.83076,-0.83078 -1.51049,-5.88589 -1.51049,-11.23359 0,-8.79223 -0.67581,-9.9587 -7.05904,-12.18388 -11.08279,-3.8635 -5.64696,-7.17081 11.78575,-7.17081 12.08129,0 15.93382,0.77238 15.93382,3.19455 0,1.75702 -2.58257,3.84275 -5.73904,4.63496 -4.88119,1.2251 -5.73904,2.76443 -5.73904,10.29806 0,8.44079 -4.45542,15.67723 -7.67196,12.46071 z m 42.10618,-1.84937 c 0,-3.23728 3.12279,-4.50999 16.0693,-6.54918 4.52426,-0.71263 4.12788,-0.97013 -1.87262,-1.21659 -10.55577,-0.43352 -16.4923,-4.12834 -16.4923,-10.26451 0,-8.32505 4.44544,-10.70863 19.97185,-10.70863 11.45677,0 14.46237,0.7306 14.46237,3.51546 0,1.93352 -1.5961,4.12795 -3.54689,4.87655 -2.98606,1.14585 -2.80459,1.88098 1.14781,4.64935 5.19987,3.64213 6.2016,12.08085 1.93996,16.3425 -1.55957,1.55957 -9.02941,2.75474 -17.21711,2.75474 -11.24234,0 -14.46237,-0.75693 -14.46237,-3.39969 z M 428.1741,937.77269 c -0.66718,-1.73866 -0.89302,-8.19507 -0.50185,-14.34759 l 0.71121,-11.18639 15.70202,-0.6835 c 18.30218,-0.79669 22.72651,1.6409 21.71895,11.96605 -0.66998,6.86549 -1.10103,7.11881 -14.07614,8.27257 -9.42921,0.83845 -14.04238,2.36494 -15.60946,5.16513 -2.67474,4.77949 -6.28117,5.14888 -7.94473,0.81373 z m 28.90454,-15.04902 c 0,-3.20295 -8.73932,-5.35489 -15.18106,-3.73811 -3.11699,0.78232 -5.04751,2.42514 -4.29007,3.65072 1.76345,2.85329 19.47113,2.93278 19.47113,0.0875 z M 76.650744,877.10332 c -1.68041,-1.06771 -4.6755,-17.34089 -7.49307,-40.71201 -2.58153,-21.41333 -5.7122,-41.30623 -6.95702,-44.20646 -5.04971,-11.76507 -4.26814,-12.14472 23.56237,-11.44524 l 25.825656,0.64908 1.6433,12.62588 c 0.9038,6.94423 2.45334,22.87554 3.44342,35.40289 0.99007,12.52736 2.83315,23.11055 4.09574,23.51818 1.26259,0.40763 12.15546,-15.52365 24.20636,-35.40289 l 21.91076,-36.14406 10.80174,-0.69968 c 5.94098,-0.38484 10.80176,0.18594 10.80176,1.26828 0,2.99527 -55.19334,93.30878 -58.20293,95.23815 -3.51099,2.25078 -50.076596,2.17083 -53.638086,-0.092 z m 107.994536,-1.817 c -0.77372,-2.01629 3.46323,-22.09288 9.41546,-44.61467 8.38898,-31.74187 10.27935,-41.96303 8.40771,-45.46023 -3.3249,-6.2126 0.31459,-7.26615 25.10103,-7.26615 21.29299,0 24.62108,1.48193 23.19941,10.33026 -2.46095,15.31641 -23.49842,87.1232 -25.98723,88.70162 -1.65192,1.04767 -11.04186,1.92067 -20.86656,1.94 -14.26444,0.028 -18.14644,-0.70337 -19.26982,-3.63083 z m 66.42082,0.79646 c -1.55434,-1.96915 1.18718,-15.79796 8.7375,-44.07382 8.07312,-30.23384 10.40666,-42.31763 8.76461,-45.38583 -1.23084,-2.29984 -1.61263,-5.19319 -0.84844,-6.4297 0.76421,-1.23648 11.69117,-2.24816 24.28216,-2.24816 27.38032,0 27.49533,0.12993 21.48617,24.26134 -2.31958,9.31493 -3.38491,17.73881 -2.36735,18.7197 1.01755,0.98089 11.10306,-8.03031 22.41229,-20.0249 l 20.56218,-21.80833 19.35311,-0.80948 c 24.48732,-1.02421 24.84286,0.87582 4.43161,23.68181 -15.70014,17.54216 -17.77969,21.89215 -10.46575,21.89215 2.45066,0 5.05487,0.96939 5.78713,2.1542 1.53668,2.48643 -9.85588,45.77595 -13.17726,50.07102 -1.46325,1.89218 -8.79363,2.86952 -21.5227,2.86952 -15.35437,0 -19.58425,-0.73118 -20.6751,-3.57391 -0.75429,-1.96564 0.90385,-11.23824 3.68476,-20.6058 2.78093,-9.36753 4.40255,-18.08953 3.60363,-19.38224 -2.0487,-3.31484 -16.20901,-2.92927 -19.06677,0.51918 -1.30791,1.57824 -4.46814,11.0324 -7.02277,21.00923 -2.55463,9.97686 -6.00138,19.00002 -7.65946,20.05148 -4.90352,3.10957 -37.71487,2.387 -40.29955,-0.88746 z m 140.29782,-0.50104 c -1.55732,-4.05835 20.76764,-89.82397 24.57577,-94.41249 3.01139,-3.62849 35.43636,-4.58558 40.77241,-1.20347 2.47786,1.57052 0.73331,10.83741 -8.96082,47.59885 -6.62074,25.10674 -13.0387,46.93992 -14.26212,48.51815 -3.39701,4.38212 -40.42035,3.94175 -42.12524,-0.50104 z m 66.44346,-0.33716 c -0.78253,-2.03924 3.48148,-22.06526 9.47561,-44.50225 8.59758,-32.18221 10.37594,-41.77074 8.42371,-45.41852 -3.415,-6.38098 0.10605,-7.37854 26.04308,-7.37854 16.97946,0 21.98323,0.77018 24.49011,3.76956 1.73283,2.07324 7.92947,15.71816 13.77029,30.32206 5.84085,14.60387 11.6207,26.88618 12.84412,27.29398 1.22345,0.40781 5.64869,-12.2561 9.83389,-28.14205 5.22032,-19.81499 8.88836,-29.56802 11.68282,-31.06354 6.07688,-3.25227 15.82367,-2.63261 17.25484,1.09698 1.46256,3.81134 -21.20833,90.49183 -24.79943,94.81883 -1.61854,1.95022 -9.12793,2.91121 -22.74887,2.91121 l -20.33278,0 -4.26523,-8.60856 c -2.34587,-4.7347 -7.69825,-17.38927 -11.89418,-28.12127 -8.91756,-22.8087 -11.39648,-26.80773 -14.00315,-22.59006 -0.97862,1.58344 -4.573,14.28691 -7.9875,28.22992 -3.41452,13.94302 -7.22186,26.64222 -8.46076,28.22045 -3.35054,4.26824 -17.60429,3.65005 -19.32657,-0.8382 z m 139.82773,0.88368 c -8.61994,-4.15428 -8.72093,-12.02216 -0.56684,-44.1595 9.98914,-39.36978 12.43197,-44.4315 23.97264,-49.67305 7.80649,-3.54558 15.28985,-4.25795 45.16998,-4.30003 39.69007,-0.0558 49.53853,1.96633 51.70988,10.61763 1.55285,6.18709 -0.20798,20.23299 -3.68209,29.37043 -2.16885,5.70454 -2.83233,5.87382 -23.0226,5.87382 -24.14516,0 -25.35242,-1.07614 -19.72732,-17.58489 5.44382,-15.97674 5.10239,-16.84933 -6.59291,-16.84933 l -10.26613,0 -3.43281,12.05198 c -13.32226,46.77197 -16.87203,62.66815 -14.60459,65.40028 3.07642,3.70684 11.37142,3.71954 16.15713,0.0248 5.23795,-4.044 9.4288,-21.20805 6.50991,-26.66204 -1.26541,-2.36444 -1.64842,-4.95132 -0.8511,-5.74863 0.79731,-0.79729 12.03815,-1.44964 24.97968,-1.44964 16.75013,0 23.80492,0.82463 24.48403,2.86192 1.02782,3.08345 -7.39998,35.44789 -10.46322,40.18085 -2.43216,3.7579 -91.98582,3.79871 -99.77364,0.0454 z M 348.03696,747.8468 c -14.20935,-3.23401 -21.76638,-6.85479 -24.3388,-11.6614 -5.3715,-10.03674 -9.16397,-27.18542 -10.3104,-46.62128 -1.7514,-29.69152 -1.59302,-29.32877 -16.93895,-38.80082 -7.59045,-4.6851 -16.64975,-12.25348 -20.13178,-16.81868 -5.73252,-7.51573 -6.33096,-10.09655 -6.33096,-27.30305 0,-11.86842 1.04907,-20.0518 2.79427,-21.79699 2.19527,-2.19528 3.08223,-1.8508 4.13768,1.60693 6.03432,19.76898 16.1552,30.19554 34.01058,35.03782 10.98307,2.97856 17.25758,0.76701 30.23623,-10.65728 10.90724,-9.60092 36.58513,-21.12715 47.06668,-21.12715 10.86663,0 35.62752,11.0955 46.89593,21.01437 13.26207,11.67373 20.1633,13.6188 33.99321,9.58075 13.54988,-3.95626 26.21086,-16.10785 28.28109,-27.14321 1.807,-9.63203 4.56981,-11.99463 7.46745,-6.38573 4.05466,7.8485 5.18256,21.31076 2.59901,31.02107 -3.64599,13.70339 -11.45934,23.07239 -27.4966,32.97115 -15.34661,9.47246 -15.38633,9.56215 -16.6775,37.65301 -1.15981,25.23289 -7.39624,47.37159 -14.69092,52.15126 -9.97988,6.53906 -30.73708,9.76488 -61.54078,9.56388 -16.41364,-0.10721 -33.97509,-1.13521 -39.02544,-2.28465 z m 56.38492,-29.97833 c 6.4833,-7.79047 14.45018,-18.18758 17.70417,-23.10472 5.37052,-8.11538 6.77927,-8.90687 15.26935,-8.57875 5.14412,0.1988 10.5432,0.26567 11.99791,0.14852 3.59351,-0.28922 7.68533,-12.74509 7.68533,-23.39474 0,-7.29294 -1.33447,-9.74093 -8.13963,-14.93146 -6.84658,-5.22215 -7.91967,-7.20985 -6.75496,-12.51265 1.08878,-4.95727 -0.16575,-8.07008 -5.87189,-14.56896 -10.17384,-11.58737 -13.66774,-10.86305 -13.66774,2.83343 l 0,11.09815 -34.43421,0.0643 -34.43422,0.0643 0,-10.77988 c 0,-5.92893 -0.70684,-11.48673 -1.57077,-12.35066 -0.86393,-0.86391 -4.99604,1.74912 -9.18246,5.80676 -5.85792,5.67776 -7.61168,9.29214 -7.61168,15.68731 0,6.6115 -1.64201,9.76345 -8.03465,15.42308 -8.72788,7.72706 -9.85402,13.48761 -5.61833,28.73956 2.56849,9.24868 3.02862,9.47914 17.43165,8.73029 9.00441,-0.4682 9.92449,0.1033 17.05988,10.59586 12.87025,18.92569 27.73447,35.19469 32.15575,35.19469 2.37732,0 9.3895,-6.20135 16.0165,-14.16452 z M 379.05897,700.7217 c -3.83485,-6.04692 -6.61998,-12.06414 -6.18916,-13.37161 0.43082,-1.30747 7.17111,-2.68509 14.9784,-3.06141 10.98817,-0.52964 14.4955,0.0985 15.52467,2.78056 1.42987,3.72615 -9.88609,22.203 -14.53035,23.72541 -1.54612,0.5068 -5.94871,-4.02603 -9.78356,-10.07295 z m -24.43392,26.14615 c -0.94465,-1.57823 -5.27011,-7.15658 -9.61218,-12.39632 -6.40359,-7.72747 -9.35657,-9.5268 -15.63506,-9.5268 -4.40771,0 -7.74042,1.16383 -7.74042,2.70307 0,5.50835 7.28036,12.90711 12.70056,12.90711 3.05436,0 8.9357,2.0622 13.06962,4.58264 8.82514,5.38069 9.49909,5.54226 7.21748,1.7303 z m 86.90865,-6.31294 c 6.01531,0 13.24932,-6.28078 13.24932,-11.50346 0,-2.97606 -1.90373,-3.8471 -8.00265,-3.66153 -6.64284,0.20202 -9.56832,2.13878 -17.2171,11.39761 -5.06796,6.13478 -9.21446,11.66021 -9.21446,12.27874 0,0.61853 3.67463,-1.0435 8.16586,-3.69337 4.49124,-2.6499 10.34978,-4.81799 13.01903,-4.81799 z"
       id="path3208"
       inkscape:connector-curvature="0" />
  </g>
</svg>
