  0
SECTION
  2
HEADER
  9
$ACADVER
  1
AC1014
  9
$HANDSEED
  5
FFFF
  9
$MEASUREMENT
 70
     1
  0
ENDSEC
  0
SECTION
  2
TABLES
  0
TABLE
  2
VPORT
  5
8
330
0
100
AcDbSymbolTable
 70
     4
  0
VPORT
  5
2E
330
8
100
AcDbSymbolTableRecord
100
AcDbViewportTableRecord
  2
*ACTIVE
 70
     0
 10
0.0
 20
0.0
 11
1.0
 21
1.0
 12
210.0
 22
148.5
 13
0.0
 23
0.0
 14
10.0
 24
10.0
 15
10.0
 25
10.0
 16
0.0
 26
0.0
 36
1.0
 17
0.0
 27
0.0
 37
0.0
 40
341.0
 41
1.24
 42
50.0
 43
0.0
 44
0.0
 50
0.0
 51
0.0
 71
     0
 72
   100
 73
     1
 74
     3
 75
     0
 76
     0
 77
     0
 78
     0
  0
ENDTAB
  0
TABLE
  2
LTYPE
  5
5
330
0
100
AcDbSymbolTable
 70
     1
  0
LTYPE
  5
14
330
5
100
AcDbSymbolTableRecord
100
AcDbLinetypeTableRecord
  2
BYBLOCK
 70
     0
  3

 72
    65
 73
     0
 40
0.0
  0
LTYPE
  5
15
330
5
100
AcDbSymbolTableRecord
100
AcDbLinetypeTableRecord
  2
BYLAYER
 70
     0
  3

 72
    65
 73
     0
 40
0.0
  0
LTYPE
  5
16
330
5
100
AcDbSymbolTableRecord
100
AcDbLinetypeTableRecord
  2
CONTINUOUS
 70
     0
  3
Solid line
 72
    65
 73
     0
 40
0.0
  0
ENDTAB
  0
TABLE
  2
LAYER
  5
2
100
AcDbSymbolTable
 70
2
  0
LAYER
  5
50
100
AcDbSymbolTableRecord
100
AcDbLayerTableRecord
  2
0
 70
0
  6
CONTINUOUS
  0
LAYER
  5
51
100
AcDbSymbolTableRecord
100
AcDbLayerTableRecord
  2
Layer_1
 70
0
  6
CONTINUOUS
  0
ENDTAB
  0
TABLE
  2
STYLE
  5
3
330
0
100
AcDbSymbolTable
 70
     1
  0
STYLE
  5
11
330
3
100
AcDbSymbolTableRecord
100
AcDbTextStyleTableRecord
  2
STANDARD
 70
     0
 40
0.0
 41
1.0
 50
0.0
 71
     0
 42
2.5
  3
txt
  4

  0
ENDTAB
  0
TABLE
  2
VIEW
  5
6
330
0
100
AcDbSymbolTable
 70
     0
  0
ENDTAB
  0
TABLE
  2
UCS
  5
7
330
0
100
AcDbSymbolTable
 70
     0
  0
ENDTAB
  0
TABLE
  2
APPID
  5
9
330
0
100
AcDbSymbolTable
 70
     2
  0
APPID
  5
12
330
9
100
AcDbSymbolTableRecord
100
AcDbRegAppTableRecord
  2
ACAD
 70
     0
  0
ENDTAB
  0
TABLE
  2
DIMSTYLE
  5
A
330
0
100
AcDbSymbolTable
 70
     1
  0
DIMSTYLE
105
27
330
A
100
AcDbSymbolTableRecord
100
AcDbDimStyleTableRecord
  2
ISO-25
 70
     0
  3

  4

  5

  6

  7

 40
1.0
 41
2.5
 42
0.625
 43
3.75
 44
1.25
 45
0.0
 46
0.0
 47
0.0
 48
0.0
140
2.5
141
2.5
142
0.0
143
0.03937007874016
144
1.0
145
0.0
146
1.0
147
0.625
 71
     0
 72
     0
 73
     0
 74
     0
 75
     0
 76
     0
 77
     1
 78
     8
170
     0
171
     3
172
     1
173
     0
174
     0
175
     0
176
     0
177
     0
178
     0
270
     2
271
     2
272
     2
273
     2
274
     3
340
11
275
     0
280
     0
281
     0
282
     0
283
     0
284
     8
285
     0
286
     0
287
     3
288
     0
  0
ENDTAB
  0
TABLE
  2
BLOCK_RECORD
  5
1
330
0
100
AcDbSymbolTable
 70
     1
  0
BLOCK_RECORD
  5
1F
330
1
100
AcDbSymbolTableRecord
100
AcDbBlockTableRecord
  2
*MODEL_SPACE
  0
BLOCK_RECORD
  5
1B
330
1
100
AcDbSymbolTableRecord
100
AcDbBlockTableRecord
  2
*PAPER_SPACE
  0
ENDTAB
  0
ENDSEC
  0
SECTION
  2
BLOCKS
  0
BLOCK
  5
20
330
1F
100
AcDbEntity
  8
0
100
AcDbBlockBegin
  2
*MODEL_SPACE
 70
     0
 10
0.0
 20
0.0
 30
0.0
  3
*MODEL_SPACE
  1

  0
ENDBLK
  5
21
330
1F
100
AcDbEntity
  8
0
100
AcDbBlockEnd
  0
BLOCK
  5
1C
330
1B
100
AcDbEntity
 67
     1
  8
0
100
AcDbBlockBegin
  2
*PAPER_SPACE
  1

  0
ENDBLK
  5
1D
330
1B
100
AcDbEntity
 67
     1
  8
0
100
AcDbBlockEnd
  0
ENDSEC
  0
SECTION
  2
ENTITIES
  0
SPLINE
  5
100
100
AcDbEntity
  8
Layer_1
 62
7
100
AcDbSpline
 70
8
 71
3
 72
8
 73
4
 74
0
 40
0
 40
0
 40
0
 40
0
 40
1
 40
1
 40
1
 40
1
 10
18.849904
 20
276.740656
 30
0.0
 10
18.812526
 20
276.797682
 30
0.0
 10
18.807878
 20
276.861376
 30
0.0
 10
18.807878
 20
277.316623
 30
0.0
  0
SPLINE
  5
101
100
AcDbEntity
  8
Layer_1
 62
7
100
AcDbSpline
 70
8
 71
3
 72
8
 73
4
 74
0
 40
0
 40
0
 40
0
 40
0
 40
1
 40
1
 40
1
 40
1
 10
18.807878
 20
277.316623
 30
0.0
 10
18.807878
 20
277.771300
 30
0.0
 10
18.812563
 20
277.835630
 30
0.0
 10
18.849791
 20
277.892568
 30
0.0
  0
SPLINE
  5
102
100
AcDbEntity
  8
Layer_1
 62
7
100
AcDbSpline
 70
8
 71
3
 72
8
 73
4
 74
0
 40
0
 40
0
 40
0
 40
0
 40
1
 40
1
 40
1
 40
1
 10
18.849791
 20
277.892568
 30
0.0
 10
18.872849
 20
277.927821
 30
0.0
 10
18.906763
 20
277.962441
 30
0.0
 10
18.925170
 20
277.969505
 30
0.0
  0
SPLINE
  5
103
100
AcDbEntity
  8
Layer_1
 62
7
100
AcDbSpline
 70
8
 71
3
 72
8
 73
4
 74
0
 40
0
 40
0
 40
0
 40
0
 40
1
 40
1
 40
1
 40
1
 10
18.925170
 20
277.969505
 30
0.0
 10
19.029998
 20
278.009733
 30
0.0
 10
19.197331
 20
277.863296
 30
0.0
 10
19.422950
 20
277.533881
 30
0.0
  0
SPLINE
  5
104
100
AcDbEntity
  8
Layer_1
 62
7
100
AcDbSpline
 70
8
 71
3
 72
8
 73
4
 74
0
 40
0
 40
0
 40
0
 40
0
 40
1
 40
1
 40
1
 40
1
 10
19.422950
 20
277.533881
 30
0.0
 10
19.499610
 20
277.421954
 30
0.0
 10
19.571047
 20
277.324991
 30
0.0
 10
19.581698
 20
277.318410
 30
0.0
  0
SPLINE
  5
105
100
AcDbEntity
  8
Layer_1
 62
7
100
AcDbSpline
 70
8
 71
3
 72
8
 73
4
 74
0
 40
0
 40
0
 40
0
 40
0
 40
1
 40
1
 40
1
 40
1
 10
19.581698
 20
277.318410
 30
0.0
 10
19.592337
 20
277.311834
 30
0.0
 10
19.672147
 20
277.407420
 30
0.0
 10
19.759029
 20
277.530838
 30
0.0
  0
SPLINE
  5
106
100
AcDbEntity
  8
Layer_1
 62
7
100
AcDbSpline
 70
8
 71
3
 72
8
 73
4
 74
0
 40
0
 40
0
 40
0
 40
0
 40
1
 40
1
 40
1
 40
1
 10
19.759029
 20
277.530838
 30
0.0
 10
19.958030
 20
277.813515
 30
0.0
 10
20.093996
 20
277.947672
 30
0.0
 10
20.202025
 20
277.967939
 30
0.0
  0
SPLINE
  5
107
100
AcDbEntity
  8
Layer_1
 62
7
100
AcDbSpline
 70
8
 71
3
 72
8
 73
4
 74
0
 40
0
 40
0
 40
0
 40
0
 40
1
 40
1
 40
1
 40
1
 10
20.202025
 20
277.967939
 30
0.0
 10
20.379009
 20
278.001142
 30
0.0
 10
20.429211
 20
277.827050
 30
0.0
 10
20.413184
 20
277.235651
 30
0.0
  0
SPLINE
  5
108
100
AcDbEntity
  8
Layer_1
 62
7
100
AcDbSpline
 70
8
 71
3
 72
8
 73
4
 74
0
 40
0
 40
0
 40
0
 40
0
 40
1
 40
1
 40
1
 40
1
 10
20.413184
 20
277.235651
 30
0.0
 10
20.402205
 20
276.830535
 30
0.0
 10
20.382709
 20
276.739487
 30
0.0
 10
20.301429
 20
276.713689
 30
0.0
  0
SPLINE
  5
109
100
AcDbEntity
  8
Layer_1
 62
7
100
AcDbSpline
 70
8
 71
3
 72
8
 73
4
 74
0
 40
0
 40
0
 40
0
 40
0
 40
1
 40
1
 40
1
 40
1
 10
20.301429
 20
276.713689
 30
0.0
 10
20.179007
 20
276.674833
 30
0.0
 10
20.066115
 20
276.827278
 30
0.0
 10
20.020553
 20
277.092974
 30
0.0
  0
SPLINE
  5
10a
100
AcDbEntity
  8
Layer_1
 62
7
100
AcDbSpline
 70
8
 71
3
 72
8
 73
4
 74
0
 40
0
 40
0
 40
0
 40
0
 40
1
 40
1
 40
1
 40
1
 10
20.020553
 20
277.092974
 30
0.0
 10
20.004918
 20
277.184193
 30
0.0
 10
19.986413
 20
277.258694
 30
0.0
 10
19.979448
 20
277.258531
 30
0.0
  0
SPLINE
  5
10b
100
AcDbEntity
  8
Layer_1
 62
7
100
AcDbSpline
 70
8
 71
3
 72
8
 73
4
 74
0
 40
0
 40
0
 40
0
 40
0
 40
1
 40
1
 40
1
 40
1
 10
19.979448
 20
277.258531
 30
0.0
 10
19.972477
 20
277.258373
 30
0.0
 10
19.914630
 20
277.177945
 30
0.0
 10
19.850892
 20
277.079816
 30
0.0
  0
SPLINE
  5
10c
100
AcDbEntity
  8
Layer_1
 62
7
100
AcDbSpline
 70
8
 71
3
 72
8
 73
4
 74
0
 40
0
 40
0
 40
0
 40
0
 40
1
 40
1
 40
1
 40
1
 10
19.850892
 20
277.079816
 30
0.0
 10
19.704264
 20
276.854081
 30
0.0
 10
19.635489
 20
276.772090
 30
0.0
 10
19.592766
 20
276.772090
 30
0.0
  0
SPLINE
  5
10d
100
AcDbEntity
  8
Layer_1
 62
7
100
AcDbSpline
 70
8
 71
3
 72
8
 73
4
 74
0
 40
0
 40
0
 40
0
 40
0
 40
1
 40
1
 40
1
 40
1
 10
19.592766
 20
276.772090
 30
0.0
 10
19.546081
 20
276.772090
 30
0.0
 10
19.467725
 20
276.860549
 30
0.0
 10
19.274541
 20
277.131350
 30
0.0
  0
SPLINE
  5
10e
100
AcDbEntity
  8
Layer_1
 62
7
100
AcDbSpline
 70
8
 71
3
 72
8
 73
4
 74
0
 40
0
 40
0
 40
0
 40
0
 40
1
 40
1
 40
1
 40
1
 10
19.091554
 20
277.098299
 30
0.0
 10
19.079108
 20
276.911386
 30
0.0
 10
19.061717
 20
276.812504
 30
0.0
 10
19.032437
 20
276.762218
 30
0.0
  0
SPLINE
  5
10f
100
AcDbEntity
  8
Layer_1
 62
7
100
AcDbSpline
 70
8
 71
3
 72
8
 73
4
 74
0
 40
0
 40
0
 40
0
 40
0
 40
1
 40
1
 40
1
 40
1
 10
19.032437
 20
276.762218
 30
0.0
 10
18.976895
 20
276.666829
 30
0.0
 10
18.903935
 20
276.658213
 30
0.0
 10
18.849898
 20
276.740656
 30
0.0
  0
LWPOLYLINE
  5
110
100
AcDbEntity
  8
Layer_1
 62
7
100
AcDbPolyline
 90
3
 70
1
 10
19.274541
 20
277.131350
 30
0.0
 10
19.109193
 20
277.363131
 30
0.0
 10
19.091554
 20
277.098299
 30
0.0
  0
SPLINE
  5
111
100
AcDbEntity
  8
Layer_1
 62
7
100
AcDbSpline
 70
8
 71
3
 72
8
 73
4
 74
0
 40
0
 40
0
 40
0
 40
0
 40
1
 40
1
 40
1
 40
1
 10
21.607446
 20
276.702536
 30
0.0
 10
21.528221
 20
276.713656
 30
0.0
 10
21.413489
 20
276.747598
 30
0.0
 10
21.352487
 20
276.777974
 30
0.0
  0
SPLINE
  5
112
100
AcDbEntity
  8
Layer_1
 62
7
100
AcDbSpline
 70
8
 71
3
 72
8
 73
4
 74
0
 40
0
 40
0
 40
0
 40
0
 40
1
 40
1
 40
1
 40
1
 10
21.352487
 20
276.777974
 30
0.0
 10
21.150718
 20
276.878442
 30
0.0
 10
21.079050
 20
277.050386
 30
0.0
 10
21.096604
 20
277.391889
 30
0.0
  0
SPLINE
  5
113
100
AcDbEntity
  8
Layer_1
 62
7
100
AcDbSpline
 70
8
 71
3
 72
8
 73
4
 74
0
 40
0
 40
0
 40
0
 40
0
 40
1
 40
1
 40
1
 40
1
 10
21.096604
 20
277.391889
 30
0.0
 10
21.110970
 20
277.671470
 30
0.0
 10
21.172407
 20
277.803341
 30
0.0
 10
21.323192
 20
277.878294
 30
0.0
  0
SPLINE
  5
114
100
AcDbEntity
  8
Layer_1
 62
7
100
AcDbSpline
 70
8
 71
3
 72
8
 73
4
 74
0
 40
0
 40
0
 40
0
 40
0
 40
1
 40
1
 40
1
 40
1
 10
21.323192
 20
277.878294
 30
0.0
 10
21.600157
 20
278.015970
 30
0.0
 10
22.367764
 20
278.007117
 30
0.0
 10
22.511579
 20
277.864578
 30
0.0
  0
SPLINE
  5
115
100
AcDbEntity
  8
Layer_1
 62
7
100
AcDbSpline
 70
8
 71
3
 72
8
 73
4
 74
0
 40
0
 40
0
 40
0
 40
0
 40
1
 40
1
 40
1
 40
1
 10
22.511579
 20
277.864578
 30
0.0
 10
22.576482
 20
277.800259
 30
0.0
 10
22.620096
 20
277.592758
 30
0.0
 10
22.620396
 20
277.346878
 30
0.0
  0
SPLINE
  5
116
100
AcDbEntity
  8
Layer_1
 62
7
100
AcDbSpline
 70
8
 71
3
 72
8
 73
4
 74
0
 40
0
 40
0
 40
0
 40
0
 40
1
 40
1
 40
1
 40
1
 10
22.620396
 20
277.346878
 30
0.0
 10
22.620960
 20
276.939919
 30
0.0
 10
22.552561
 20
276.777870
 30
0.0
 10
22.360243
 20
276.729931
 30
0.0
  0
SPLINE
  5
117
100
AcDbEntity
  8
Layer_1
 62
7
100
AcDbSpline
 70
8
 71
3
 72
8
 73
4
 74
0
 40
0
 40
0
 40
0
 40
0
 40
1
 40
1
 40
1
 40
1
 10
22.360243
 20
276.729931
 30
0.0
 10
22.219307
 20
276.694800
 30
0.0
 10
21.777212
 20
276.678705
 30
0.0
 10
21.607446
 20
276.702528
 30
0.0
  0
LWPOLYLINE
  5
118
100
AcDbEntity
  8
Layer_1
 62
7
100
AcDbPolyline
 90
2
 70
1
 10
18.849898
 20
276.740656
 30
0.0
 10
18.849904
 20
276.740656
 30
0.0
  0
SPLINE
  5
119
100
AcDbEntity
  8
Layer_1
 62
7
100
AcDbSpline
 70
8
 71
3
 72
8
 73
4
 74
0
 40
0
 40
0
 40
0
 40
0
 40
1
 40
1
 40
1
 40
1
 10
22.175467
 20
277.078662
 30
0.0
 10
22.237299
 20
277.108247
 30
0.0
 10
22.238332
 20
277.112430
 30
0.0
 10
22.244828
 20
277.359242
 30
0.0
  0
LWPOLYLINE
  5
11a
100
AcDbEntity
  8
Layer_1
 62
7
100
AcDbPolyline
 90
2
 70
1
 10
21.607446
 20
276.702528
 30
0.0
 10
21.607446
 20
276.702536
 30
0.0
  0
SPLINE
  5
11b
100
AcDbEntity
  8
Layer_1
 62
7
100
AcDbSpline
 70
8
 71
3
 72
8
 73
4
 74
0
 40
0
 40
0
 40
0
 40
0
 40
1
 40
1
 40
1
 40
1
 10
21.893733
 20
277.602337
 30
0.0
 10
21.477881
 20
277.593701
 30
0.0
 10
21.457784
 20
277.584641
 30
0.0
 10
21.413376
 20
277.386214
 30
0.0
  0
SPLINE
  5
11c
100
AcDbEntity
  8
Layer_1
 62
7
100
AcDbSpline
 70
8
 71
3
 72
8
 73
4
 74
0
 40
0
 40
0
 40
0
 40
0
 40
1
 40
1
 40
1
 40
1
 10
21.413376
 20
277.386214
 30
0.0
 10
21.389246
 20
277.278433
 30
0.0
 10
21.391194
 20
277.253276
 30
0.0
 10
21.429689
 20
277.174618
 30
0.0
  0
SPLINE
  5
11d
100
AcDbEntity
  8
Layer_1
 62
7
100
AcDbSpline
 70
8
 71
3
 72
8
 73
4
 74
0
 40
0
 40
0
 40
0
 40
0
 40
1
 40
1
 40
1
 40
1
 10
21.429689
 20
277.174618
 30
0.0
 10
21.496039
 20
277.039018
 30
0.0
 10
21.547381
 20
277.022172
 30
0.0
 10
21.850987
 20
277.036374
 30
0.0
  0
SPLINE
  5
11e
100
AcDbEntity
  8
Layer_1
 62
7
100
AcDbSpline
 70
8
 71
3
 72
8
 73
4
 74
0
 40
0
 40
0
 40
0
 40
0
 40
1
 40
1
 40
1
 40
1
 10
21.850987
 20
277.036374
 30
0.0
 10
21.994940
 20
277.043119
 30
0.0
 10
22.140962
 20
277.062141
 30
0.0
 10
22.175481
 20
277.078651
 30
0.0
  0
LWPOLYLINE
  5
11f
100
AcDbEntity
  8
Layer_1
 62
7
100
AcDbPolyline
 90
3
 70
1
 10
22.244828
 20
277.359242
 30
0.0
 10
22.251432
 20
277.609787
 30
0.0
 10
21.893733
 20
277.602337
 30
0.0
  0
SPLINE
  5
120
100
AcDbEntity
  8
Layer_1
 62
7
100
AcDbSpline
 70
8
 71
3
 72
8
 73
4
 74
0
 40
0
 40
0
 40
0
 40
0
 40
1
 40
1
 40
1
 40
1
 10
23.977591
 20
276.732542
 30
0.0
 10
23.957130
 20
276.763775
 30
0.0
 10
23.920458
 20
276.929762
 30
0.0
 10
23.894685
 20
277.107835
 30
0.0
  0
SPLINE
  5
121
100
AcDbEntity
  8
Layer_1
 62
7
100
AcDbSpline
 70
8
 71
3
 72
8
 73
4
 74
0
 40
0
 40
0
 40
0
 40
0
 40
1
 40
1
 40
1
 40
1
 10
23.894685
 20
277.107835
 30
0.0
 10
23.824686
 20
277.591496
 30
0.0
 10
23.839474
 20
277.564736
 30
0.0
 10
23.586375
 20
277.665704
 30
0.0
  0
SPLINE
  5
122
100
AcDbEntity
  8
Layer_1
 62
7
100
AcDbSpline
 70
8
 71
3
 72
8
 73
4
 74
0
 40
0
 40
0
 40
0
 40
0
 40
1
 40
1
 40
1
 40
1
 10
23.586375
 20
277.665704
 30
0.0
 10
23.327901
 20
277.768817
 30
0.0
 10
23.323566
 20
277.894820
 30
0.0
 10
23.576412
 20
277.955478
 30
0.0
  0
SPLINE
  5
123
100
AcDbEntity
  8
Layer_1
 62
7
100
AcDbSpline
 70
8
 71
3
 72
8
 73
4
 74
0
 40
0
 40
0
 40
0
 40
0
 40
1
 40
1
 40
1
 40
1
 10
23.576412
 20
277.955478
 30
0.0
 10
23.696500
 20
277.984285
 30
0.0
 10
24.482334
 20
277.972892
 30
0.0
 10
24.621193
 20
277.940323
 30
0.0
  0
SPLINE
  5
124
100
AcDbEntity
  8
Layer_1
 62
7
100
AcDbSpline
 70
8
 71
3
 72
8
 73
4
 74
0
 40
0
 40
0
 40
0
 40
0
 40
1
 40
1
 40
1
 40
1
 10
24.621193
 20
277.940323
 30
0.0
 10
24.707759
 20
277.920031
 30
0.0
 10
24.764827
 20
277.834047
 30
0.0
 10
24.732200
 20
277.773084
 30
0.0
  0
SPLINE
  5
125
100
AcDbEntity
  8
Layer_1
 62
7
100
AcDbSpline
 70
8
 71
3
 72
8
 73
4
 74
0
 40
0
 40
0
 40
0
 40
0
 40
1
 40
1
 40
1
 40
1
 10
24.732200
 20
277.773084
 30
0.0
 10
24.702273
 20
277.717164
 30
0.0
 10
24.546816
 20
277.652852
 30
0.0
 10
24.441578
 20
277.652852
 30
0.0
  0
SPLINE
  5
126
100
AcDbEntity
  8
Layer_1
 62
7
100
AcDbSpline
 70
8
 71
3
 72
8
 73
4
 74
0
 40
0
 40
0
 40
0
 40
0
 40
1
 40
1
 40
1
 40
1
 10
24.441578
 20
277.652852
 30
0.0
 10
24.259396
 20
277.652852
 30
0.0
 10
24.240972
 20
277.615130
 30
0.0
 10
24.219862
 20
277.198942
 30
0.0
  0
SPLINE
  5
127
100
AcDbEntity
  8
Layer_1
 62
7
100
AcDbSpline
 70
8
 71
3
 72
8
 73
4
 74
0
 40
0
 40
0
 40
0
 40
0
 40
1
 40
1
 40
1
 40
1
 10
24.219862
 20
277.198942
 30
0.0
 10
24.207190
 20
276.949283
 30
0.0
 10
24.192656
 20
276.848657
 30
0.0
 10
24.159421
 20
276.780587
 30
0.0
  0
SPLINE
  5
128
100
AcDbEntity
  8
Layer_1
 62
7
100
AcDbSpline
 70
8
 71
3
 72
8
 73
4
 74
0
 40
0
 40
0
 40
0
 40
0
 40
1
 40
1
 40
1
 40
1
 10
24.159421
 20
276.780587
 30
0.0
 10
24.105728
 20
276.670631
 30
0.0
 10
24.031081
 20
276.650901
 30
0.0
 10
23.977591
 20
276.732536
 30
0.0
  0
LWPOLYLINE
  5
129
100
AcDbEntity
  8
Layer_1
 62
7
100
AcDbPolyline
 90
2
 70
1
 10
22.175481
 20
277.078651
 30
0.0
 10
22.175467
 20
277.078662
 30
0.0
  0
SPLINE
  5
12a
100
AcDbEntity
  8
Layer_1
 62
7
100
AcDbSpline
 70
8
 71
3
 72
8
 73
4
 74
0
 40
0
 40
0
 40
0
 40
0
 40
1
 40
1
 40
1
 40
1
 10
25.894975
 20
276.702183
 30
0.0
 10
25.748518
 20
276.733527
 30
0.0
 10
25.637772
 20
276.793183
 30
0.0
 10
25.576216
 20
276.873884
 30
0.0
  0
SPLINE
  5
12b
100
AcDbEntity
  8
Layer_1
 62
7
100
AcDbSpline
 70
8
 71
3
 72
8
 73
4
 74
0
 40
0
 40
0
 40
0
 40
0
 40
1
 40
1
 40
1
 40
1
 10
25.576216
 20
276.873884
 30
0.0
 10
25.404823
 20
277.098593
 30
0.0
 10
25.368120
 20
277.379731
 30
0.0
 10
25.479067
 20
277.618020
 30
0.0
  0
SPLINE
  5
12c
100
AcDbEntity
  8
Layer_1
 62
7
100
AcDbSpline
 70
8
 71
3
 72
8
 73
4
 74
0
 40
0
 40
0
 40
0
 40
0
 40
1
 40
1
 40
1
 40
1
 10
25.479067
 20
277.618020
 30
0.0
 10
25.555744
 20
277.782702
 30
0.0
 10
25.612995
 20
277.848525
 30
0.0
 10
25.738121
 20
277.915866
 30
0.0
  0
SPLINE
  5
12d
100
AcDbEntity
  8
Layer_1
 62
7
100
AcDbSpline
 70
8
 71
3
 72
8
 73
4
 74
0
 40
0
 40
0
 40
0
 40
0
 40
1
 40
1
 40
1
 40
1
 10
25.738121
 20
277.915866
 30
0.0
 10
25.820897
 20
277.960412
 30
0.0
 10
25.866857
 20
277.965743
 30
0.0
 10
26.166916
 20
277.965588
 30
0.0
  0
SPLINE
  5
12e
100
AcDbEntity
  8
Layer_1
 62
7
100
AcDbSpline
 70
8
 71
3
 72
8
 73
4
 74
0
 40
0
 40
0
 40
0
 40
0
 40
1
 40
1
 40
1
 40
1
 10
26.166916
 20
277.965588
 30
0.0
 10
26.575480
 20
277.965432
 30
0.0
 10
26.732735
 20
277.926903
 30
0.0
 10
26.864789
 20
277.794849
 30
0.0
  0
SPLINE
  5
12f
100
AcDbEntity
  8
Layer_1
 62
7
100
AcDbSpline
 70
8
 71
3
 72
8
 73
4
 74
0
 40
0
 40
0
 40
0
 40
0
 40
1
 40
1
 40
1
 40
1
 10
26.864789
 20
277.794849
 30
0.0
 10
26.978985
 20
277.680653
 30
0.0
 10
27.010450
 20
277.558087
 30
0.0
 10
26.993468
 20
277.293597
 30
0.0
  0
SPLINE
  5
130
100
AcDbEntity
  8
Layer_1
 62
7
100
AcDbSpline
 70
8
 71
3
 72
8
 73
4
 74
0
 40
0
 40
0
 40
0
 40
0
 40
1
 40
1
 40
1
 40
1
 10
26.993468
 20
277.293597
 30
0.0
 10
26.969649
 20
276.922540
 30
0.0
 10
26.910179
 20
276.826293
 30
0.0
 10
26.656224
 20
276.747745
 30
0.0
  0
SPLINE
  5
131
100
AcDbEntity
  8
Layer_1
 62
7
100
AcDbSpline
 70
8
 71
3
 72
8
 73
4
 74
0
 40
0
 40
0
 40
0
 40
0
 40
1
 40
1
 40
1
 40
1
 10
26.656224
 20
276.747745
 30
0.0
 10
26.482085
 20
276.693886
 30
0.0
 10
26.053584
 20
276.668238
 30
0.0
 10
25.894975
 20
276.702183
 30
0.0
  0
LWPOLYLINE
  5
132
100
AcDbEntity
  8
Layer_1
 62
7
100
AcDbPolyline
 90
2
 70
1
 10
23.977591
 20
276.732536
 30
0.0
 10
23.977591
 20
276.732542
 30
0.0
  0
SPLINE
  5
133
100
AcDbEntity
  8
Layer_1
 62
7
100
AcDbSpline
 70
8
 71
3
 72
8
 73
4
 74
0
 40
0
 40
0
 40
0
 40
0
 40
1
 40
1
 40
1
 40
1
 10
26.352945
 20
277.052370
 30
0.0
 10
26.436139
 20
277.065268
 30
0.0
 10
26.516852
 20
277.083657
 30
0.0
 10
26.532303
 20
277.093208
 30
0.0
  0
SPLINE
  5
134
100
AcDbEntity
  8
Layer_1
 62
7
100
AcDbSpline
 70
8
 71
3
 72
8
 73
4
 74
0
 40
0
 40
0
 40
0
 40
0
 40
1
 40
1
 40
1
 40
1
 10
26.532303
 20
277.093208
 30
0.0
 10
26.596469
 20
277.132863
 30
0.0
 10
26.611354
 20
277.459831
 30
0.0
 10
26.553272
 20
277.553809
 30
0.0
  0
SPLINE
  5
135
100
AcDbEntity
  8
Layer_1
 62
7
100
AcDbSpline
 70
8
 71
3
 72
8
 73
4
 74
0
 40
0
 40
0
 40
0
 40
0
 40
1
 40
1
 40
1
 40
1
 10
26.553272
 20
277.553809
 30
0.0
 10
26.529114
 20
277.592913
 30
0.0
 10
26.339537
 20
277.629896
 30
0.0
 10
26.068412
 20
277.648395
 30
0.0
  0
LWPOLYLINE
  5
136
100
AcDbEntity
  8
Layer_1
 62
7
100
AcDbPolyline
 90
2
 70
1
 10
25.894975
 20
276.702183
 30
0.0
 10
25.894975
 20
276.702183
 30
0.0
  0
SPLINE
  5
137
100
AcDbEntity
  8
Layer_1
 62
7
100
AcDbSpline
 70
8
 71
3
 72
8
 73
4
 74
0
 40
0
 40
0
 40
0
 40
0
 40
1
 40
1
 40
1
 40
1
 10
26.010466
 20
277.013963
 30
0.0
 10
26.115636
 20
277.022175
 30
0.0
 10
26.269755
 20
277.039447
 30
0.0
 10
26.352948
 20
277.052362
 30
0.0
  0
LWPOLYLINE
  5
138
100
AcDbEntity
  8
Layer_1
 62
7
100
AcDbPolyline
 90
5
 70
1
 10
26.068412
 20
277.648395
 30
0.0
 10
25.819246
 20
277.665385
 30
0.0
 10
25.819246
 20
277.332210
 30
0.0
 10
25.819246
 20
276.999033
 30
0.0
 10
26.010466
 20
277.013963
 30
0.0
  0
SPLINE
  5
139
100
AcDbEntity
  8
Layer_1
 62
7
100
AcDbSpline
 70
8
 71
3
 72
8
 73
4
 74
0
 40
0
 40
0
 40
0
 40
0
 40
1
 40
1
 40
1
 40
1
 10
28.913520
 20
276.701052
 30
0.0
 10
28.757739
 20
276.738974
 30
0.0
 10
28.640763
 20
276.833433
 30
0.0
 10
28.285861
 20
277.207892
 30
0.0
  0
SPLINE
  5
13a
100
AcDbEntity
  8
Layer_1
 62
7
100
AcDbSpline
 70
8
 71
3
 72
8
 73
4
 74
0
 40
0
 40
0
 40
0
 40
0
 40
1
 40
1
 40
1
 40
1
 10
28.285861
 20
277.207892
 30
0.0
 10
28.154886
 20
277.346082
 30
0.0
 10
28.111907
 20
277.405535
 30
0.0
 10
28.133387
 20
277.418810
 30
0.0
  0
SPLINE
  5
13b
100
AcDbEntity
  8
Layer_1
 62
7
100
AcDbSpline
 70
8
 71
3
 72
8
 73
4
 74
0
 40
0
 40
0
 40
0
 40
0
 40
1
 40
1
 40
1
 40
1
 10
28.133387
 20
277.418810
 30
0.0
 10
28.149840
 20
277.428970
 30
0.0
 10
28.285161
 20
277.444069
 30
0.0
 10
28.434106
 20
277.452364
 30
0.0
  0
SPLINE
  5
13c
100
AcDbEntity
  8
Layer_1
 62
7
100
AcDbSpline
 70
8
 71
3
 72
8
 73
4
 74
0
 40
0
 40
0
 40
0
 40
0
 40
1
 40
1
 40
1
 40
1
 10
28.434106
 20
277.452364
 30
0.0
 10
28.583052
 20
277.460661
 30
0.0
 10
28.744424
 20
277.474067
 30
0.0
 10
28.792706
 20
277.482195
 30
0.0
  0
SPLINE
  5
13d
100
AcDbEntity
  8
Layer_1
 62
7
100
AcDbSpline
 70
8
 71
3
 72
8
 73
4
 74
0
 40
0
 40
0
 40
0
 40
0
 40
1
 40
1
 40
1
 40
1
 10
28.792706
 20
277.482195
 30
0.0
 10
29.054329
 20
277.526193
 30
0.0
 10
28.626768
 20
277.652298
 30
0.0
 10
28.214675
 20
277.652682
 30
0.0
  0
LWPOLYLINE
  5
13e
100
AcDbEntity
  8
Layer_1
 62
7
100
AcDbPolyline
 90
2
 70
1
 10
26.352948
 20
277.052362
 30
0.0
 10
26.352945
 20
277.052370
 30
0.0
  0
SPLINE
  5
13f
100
AcDbEntity
  8
Layer_1
 62
7
100
AcDbSpline
 70
8
 71
3
 72
8
 73
4
 74
0
 40
0
 40
0
 40
0
 40
0
 40
1
 40
1
 40
1
 40
1
 10
28.017227
 20
277.253016
 30
0.0
 10
28.007772
 20
276.809171
 30
0.0
 10
27.985324
 20
276.719458
 30
0.0
 10
27.880716
 20
276.707235
 30
0.0
  0
SPLINE
  5
140
100
AcDbEntity
  8
Layer_1
 62
7
100
AcDbSpline
 70
8
 71
3
 72
8
 73
4
 74
0
 40
0
 40
0
 40
0
 40
0
 40
1
 40
1
 40
1
 40
1
 10
27.880716
 20
276.707235
 30
0.0
 10
27.775867
 20
276.694987
 30
0.0
 10
27.740502
 20
276.765666
 30
0.0
 10
27.718483
 20
277.031480
 30
0.0
  0
SPLINE
  5
141
100
AcDbEntity
  8
Layer_1
 62
7
100
AcDbSpline
 70
8
 71
3
 72
8
 73
4
 74
0
 40
0
 40
0
 40
0
 40
0
 40
1
 40
1
 40
1
 40
1
 10
27.718483
 20
277.031480
 30
0.0
 10
27.707589
 20
277.162886
 30
0.0
 10
27.698248
 20
277.435391
 30
0.0
 10
27.697683
 20
277.637050
 30
0.0
  0
LWPOLYLINE
  5
142
100
AcDbEntity
  8
Layer_1
 62
7
100
AcDbPolyline
 90
3
 70
1
 10
28.214675
 20
277.652682
 30
0.0
 10
28.025750
 20
277.652837
 30
0.0
 10
28.017227
 20
277.253016
 30
0.0
  0
SPLINE
  5
143
100
AcDbEntity
  8
Layer_1
 62
7
100
AcDbSpline
 70
8
 71
3
 72
8
 73
4
 74
0
 40
0
 40
0
 40
0
 40
0
 40
1
 40
1
 40
1
 40
1
 10
28.084785
 20
277.989111
 30
0.0
 10
29.126869
 20
277.949955
 30
0.0
 10
29.226307
 20
277.914505
 30
0.0
 10
29.226307
 20
277.582158
 30
0.0
  0
SPLINE
  5
144
100
AcDbEntity
  8
Layer_1
 62
7
100
AcDbSpline
 70
8
 71
3
 72
8
 73
4
 74
0
 40
0
 40
0
 40
0
 40
0
 40
1
 40
1
 40
1
 40
1
 10
29.226307
 20
277.582158
 30
0.0
 10
29.226307
 20
277.408783
 30
0.0
 10
29.187916
 20
277.322200
 30
0.0
 10
29.051814
 20
277.188627
 30
0.0
  0
SPLINE
  5
145
100
AcDbEntity
  8
Layer_1
 62
7
100
AcDbSpline
 70
8
 71
3
 72
8
 73
4
 74
0
 40
0
 40
0
 40
0
 40
0
 40
1
 40
1
 40
1
 40
1
 10
29.051814
 20
277.188627
 30
0.0
 10
28.994808
 20
277.132682
 30
0.0
 10
28.948171
 20
277.070636
 30
0.0
 10
28.948171
 20
277.050747
 30
0.0
  0
SPLINE
  5
146
100
AcDbEntity
  8
Layer_1
 62
7
100
AcDbSpline
 70
8
 71
3
 72
8
 73
4
 74
0
 40
0
 40
0
 40
0
 40
0
 40
1
 40
1
 40
1
 40
1
 10
28.948171
 20
277.050747
 30
0.0
 10
28.948171
 20
277.030851
 30
0.0
 10
28.989889
 20
276.964097
 30
0.0
 10
29.040881
 20
276.902392
 30
0.0
  0
SPLINE
  5
147
100
AcDbEntity
  8
Layer_1
 62
7
100
AcDbSpline
 70
8
 71
3
 72
8
 73
4
 74
0
 40
0
 40
0
 40
0
 40
0
 40
1
 40
1
 40
1
 40
1
 10
29.040881
 20
276.902392
 30
0.0
 10
29.139555
 20
276.782981
 30
0.0
 10
29.150045
 20
276.751431
 30
0.0
 10
29.105781
 20
276.707167
 30
0.0
  0
SPLINE
  5
148
100
AcDbEntity
  8
Layer_1
 62
7
100
AcDbSpline
 70
8
 71
3
 72
8
 73
4
 74
0
 40
0
 40
0
 40
0
 40
0
 40
1
 40
1
 40
1
 40
1
 10
29.105781
 20
276.707167
 30
0.0
 10
29.075355
 20
276.676741
 30
0.0
 10
29.020364
 20
276.674985
 30
0.0
 10
28.913401
 20
276.701015
 30
0.0
  0
LWPOLYLINE
  5
149
100
AcDbEntity
  8
Layer_1
 62
7
100
AcDbPolyline
 90
3
 70
1
 10
27.697683
 20
277.637050
 30
0.0
 10
27.696555
 20
278.003702
 30
0.0
 10
28.084785
 20
277.989111
 30
0.0
  0
SPLINE
  5
14a
100
AcDbEntity
  8
Layer_1
 62
7
100
AcDbSpline
 70
8
 71
3
 72
8
 73
4
 74
0
 40
0
 40
0
 40
0
 40
0
 40
1
 40
1
 40
1
 40
1
 10
32.223473
 20
276.707091
 30
0.0
 10
32.188060
 20
276.724194
 30
0.0
 10
32.165219
 20
276.766104
 30
0.0
 10
32.148300
 20
276.845005
 30
0.0
  0
SPLINE
  5
14b
100
AcDbEntity
  8
Layer_1
 62
7
100
AcDbSpline
 70
8
 71
3
 72
8
 73
4
 74
0
 40
0
 40
0
 40
0
 40
0
 40
1
 40
1
 40
1
 40
1
 10
32.148300
 20
276.845005
 30
0.0
 10
32.123662
 20
276.959892
 30
0.0
 10
32.063038
 20
277.970925
 30
0.0
 10
32.079799
 20
277.987378
 30
0.0
  0
SPLINE
  5
14c
100
AcDbEntity
  8
Layer_1
 62
7
100
AcDbSpline
 70
8
 71
3
 72
8
 73
4
 74
0
 40
0
 40
0
 40
0
 40
0
 40
1
 40
1
 40
1
 40
1
 10
32.079799
 20
277.987378
 30
0.0
 10
32.084823
 20
277.992289
 30
0.0
 10
32.388418
 20
277.989071
 30
0.0
 10
32.754477
 20
277.980351
 30
0.0
  0
LWPOLYLINE
  5
14d
100
AcDbEntity
  8
Layer_1
 62
7
100
AcDbPolyline
 90
2
 70
1
 10
28.913401
 20
276.701015
 30
0.0
 10
28.913520
 20
276.701052
 30
0.0
  0
SPLINE
  5
14e
100
AcDbEntity
  8
Layer_1
 62
7
100
AcDbSpline
 70
8
 71
3
 72
8
 73
4
 74
0
 40
0
 40
0
 40
0
 40
0
 40
1
 40
1
 40
1
 40
1
 10
33.492705
 20
277.895526
 30
0.0
 10
33.601891
 20
277.792083
 30
0.0
 10
33.699320
 20
277.609121
 30
0.0
 10
33.699574
 20
277.507053
 30
0.0
  0
SPLINE
  5
14f
100
AcDbEntity
  8
Layer_1
 62
7
100
AcDbSpline
 70
8
 71
3
 72
8
 73
4
 74
0
 40
0
 40
0
 40
0
 40
0
 40
1
 40
1
 40
1
 40
1
 10
33.699574
 20
277.507053
 30
0.0
 10
33.699845
 20
277.399004
 30
0.0
 10
33.626414
 20
277.249373
 30
0.0
 10
33.547871
 20
277.197909
 30
0.0
  0
SPLINE
  5
150
100
AcDbEntity
  8
Layer_1
 62
7
100
AcDbSpline
 70
8
 71
3
 72
8
 73
4
 74
0
 40
0
 40
0
 40
0
 40
0
 40
1
 40
1
 40
1
 40
1
 10
33.547871
 20
277.197909
 30
0.0
 10
33.504655
 20
277.169591
 30
0.0
 10
33.402753
 20
277.154552
 30
0.0
 10
33.159937
 20
277.140646
 30
0.0
  0
SPLINE
  5
151
100
AcDbEntity
  8
Layer_1
 62
7
100
AcDbSpline
 70
8
 71
3
 72
8
 73
4
 74
0
 40
0
 40
0
 40
0
 40
0
 40
1
 40
1
 40
1
 40
1
 10
33.159937
 20
277.140646
 30
0.0
 10
32.550947
 20
277.105775
 30
0.0
 10
32.532021
 20
277.098835
 30
0.0
 10
32.507338
 20
276.901285
 30
0.0
  0
SPLINE
  5
152
100
AcDbEntity
  8
Layer_1
 62
7
100
AcDbSpline
 70
8
 71
3
 72
8
 73
4
 74
0
 40
0
 40
0
 40
0
 40
0
 40
1
 40
1
 40
1
 40
1
 10
32.507338
 20
276.901285
 30
0.0
 10
32.483970
 20
276.714245
 30
0.0
 10
32.370003
 20
276.636273
 30
0.0
 10
32.223473
 20
276.707077
 30
0.0
  0
LWPOLYLINE
  5
153
100
AcDbEntity
  8
Layer_1
 62
7
100
AcDbPolyline
 90
3
 70
1
 10
32.754477
 20
277.980351
 30
0.0
 10
33.420036
 20
277.964377
 30
0.0
 10
33.492705
 20
277.895526
 30
0.0
  0
SPLINE
  5
154
100
AcDbEntity
  8
Layer_1
 62
7
100
AcDbSpline
 70
8
 71
3
 72
8
 73
4
 74
0
 40
0
 40
0
 40
0
 40
0
 40
1
 40
1
 40
1
 40
1
 10
33.265785
 20
277.480225
 30
0.0
 10
33.320835
 20
277.501363
 30
0.0
 10
33.335115
 20
277.563892
 30
0.0
 10
33.294235
 20
277.604817
 30
0.0
  0
SPLINE
  5
155
100
AcDbEntity
  8
Layer_1
 62
7
100
AcDbSpline
 70
8
 71
3
 72
8
 73
4
 74
0
 40
0
 40
0
 40
0
 40
0
 40
1
 40
1
 40
1
 40
1
 10
33.294235
 20
277.604817
 30
0.0
 10
33.267565
 20
277.631516
 30
0.0
 10
33.198559
 20
277.643431
 30
0.0
 10
33.036284
 20
277.649369
 30
0.0
  0
SPLINE
  5
156
100
AcDbEntity
  8
Layer_1
 62
7
100
AcDbSpline
 70
8
 71
3
 72
8
 73
4
 74
0
 40
0
 40
0
 40
0
 40
0
 40
1
 40
1
 40
1
 40
1
 10
33.036284
 20
277.649369
 30
0.0
 10
32.766796
 20
277.659219
 30
0.0
 10
32.629122
 20
277.640648
 30
0.0
 10
32.560658
 20
277.585220
 30
0.0
  0
LWPOLYLINE
  5
157
100
AcDbEntity
  8
Layer_1
 62
7
100
AcDbPolyline
 90
2
 70
1
 10
32.223473
 20
276.707077
 30
0.0
 10
32.223473
 20
276.707091
 30
0.0
  0
SPLINE
  5
158
100
AcDbEntity
  8
Layer_1
 62
7
100
AcDbSpline
 70
8
 71
3
 72
8
 73
4
 74
0
 40
0
 40
0
 40
0
 40
0
 40
1
 40
1
 40
1
 40
1
 10
32.561045
 20
277.515395
 30
0.0
 10
32.672181
 20
277.455917
 30
0.0
 10
33.141420
 20
277.432495
 30
0.0
 10
33.265785
 20
277.480219
 30
0.0
  0
LWPOLYLINE
  5
159
100
AcDbEntity
  8
Layer_1
 62
7
100
AcDbPolyline
 90
3
 70
1
 10
32.560658
 20
277.585220
 30
0.0
 10
32.508898
 20
277.543307
 30
0.0
 10
32.561045
 20
277.515395
 30
0.0
  0
SPLINE
  5
15a
100
AcDbEntity
  8
Layer_1
 62
7
100
AcDbSpline
 70
8
 71
3
 72
8
 73
4
 74
0
 40
0
 40
0
 40
0
 40
0
 40
1
 40
1
 40
1
 40
1
 10
36.718999
 20
276.714824
 30
0.0
 10
36.638292
 20
276.771353
 30
0.0
 10
36.619888
 20
276.889401
 30
0.0
 10
36.604369
 20
277.450044
 30
0.0
  0
LWPOLYLINE
  5
15b
100
AcDbEntity
  8
Layer_1
 62
7
100
AcDbPolyline
 90
2
 70
1
 10
33.265785
 20
277.480219
 30
0.0
 10
33.265785
 20
277.480225
 30
0.0
  0
SPLINE
  5
15c
100
AcDbEntity
  8
Layer_1
 62
7
100
AcDbSpline
 70
8
 71
3
 72
8
 73
4
 74
0
 40
0
 40
0
 40
0
 40
0
 40
1
 40
1
 40
1
 40
1
 10
37.120720
 20
277.977190
 30
0.0
 10
37.911329
 20
277.976916
 30
0.0
 10
38.043217
 20
277.946013
 30
0.0
 10
38.139934
 20
277.738280
 30
0.0
  0
SPLINE
  5
15d
100
AcDbEntity
  8
Layer_1
 62
7
100
AcDbSpline
 70
8
 71
3
 72
8
 73
4
 74
0
 40
0
 40
0
 40
0
 40
0
 40
1
 40
1
 40
1
 40
1
 10
38.139934
 20
277.738280
 30
0.0
 10
38.259645
 20
277.481167
 30
0.0
 10
38.162879
 20
277.169213
 30
0.0
 10
37.951083
 20
277.129482
 30
0.0
  0
LWPOLYLINE
  5
15e
100
AcDbEntity
  8
Layer_1
 62
7
100
AcDbPolyline
 90
3
 70
1
 10
36.604369
 20
277.450044
 30
0.0
 10
36.589778
 20
277.977345
 30
0.0
 10
37.120720
 20
277.977190
 30
0.0
  0
SPLINE
  5
15f
100
AcDbEntity
  8
Layer_1
 62
7
100
AcDbSpline
 70
8
 71
3
 72
8
 73
4
 74
0
 40
0
 40
0
 40
0
 40
0
 40
1
 40
1
 40
1
 40
1
 10
37.956891
 20
276.945504
 30
0.0
 10
38.023255
 20
276.805762
 30
0.0
 10
38.033017
 20
276.767035
 30
0.0
 10
38.011848
 20
276.727482
 30
0.0
  0
SPLINE
  5
160
100
AcDbEntity
  8
Layer_1
 62
7
100
AcDbSpline
 70
8
 71
3
 72
8
 73
4
 74
0
 40
0
 40
0
 40
0
 40
0
 40
1
 40
1
 40
1
 40
1
 10
38.011848
 20
276.727482
 30
0.0
 10
37.948452
 20
276.609027
 30
0.0
 10
37.751393
 20
276.709419
 30
0.0
 10
37.427718
 20
277.025040
 30
0.0
  0
SPLINE
  5
161
100
AcDbEntity
  8
Layer_1
 62
7
100
AcDbSpline
 70
8
 71
3
 72
8
 73
4
 74
0
 40
0
 40
0
 40
0
 40
0
 40
1
 40
1
 40
1
 40
1
 10
37.427718
 20
277.025040
 30
0.0
 10
37.230259
 20
277.217589
 30
0.0
 10
37.176117
 20
277.283857
 30
0.0
 10
37.176289
 20
277.332797
 30
0.0
  0
SPLINE
  5
162
100
AcDbEntity
  8
Layer_1
 62
7
100
AcDbSpline
 70
8
 71
3
 72
8
 73
4
 74
0
 40
0
 40
0
 40
0
 40
0
 40
1
 40
1
 40
1
 40
1
 10
37.176289
 20
277.332797
 30
0.0
 10
37.176572
 20
277.367102
 30
0.0
 10
37.189046
 20
277.402924
 30
0.0
 10
37.204371
 20
277.412401
 30
0.0
  0
SPLINE
  5
163
100
AcDbEntity
  8
Layer_1
 62
7
100
AcDbSpline
 70
8
 71
3
 72
8
 73
4
 74
0
 40
0
 40
0
 40
0
 40
0
 40
1
 40
1
 40
1
 40
1
 10
37.204371
 20
277.412401
 30
0.0
 10
37.219695
 20
277.421884
 30
0.0
 10
37.340266
 20
277.437350
 30
0.0
 10
37.472281
 20
277.446764
 30
0.0
  0
SPLINE
  5
164
100
AcDbEntity
  8
Layer_1
 62
7
100
AcDbSpline
 70
8
 71
3
 72
8
 73
4
 74
0
 40
0
 40
0
 40
0
 40
0
 40
1
 40
1
 40
1
 40
1
 10
37.472281
 20
277.446764
 30
0.0
 10
37.701926
 20
277.463162
 30
0.0
 10
37.825477
 20
277.502732
 30
0.0
 10
37.825477
 20
277.559882
 30
0.0
  0
SPLINE
  5
165
100
AcDbEntity
  8
Layer_1
 62
7
100
AcDbSpline
 70
8
 71
3
 72
8
 73
4
 74
0
 40
0
 40
0
 40
0
 40
0
 40
1
 40
1
 40
1
 40
1
 10
37.825477
 20
277.559882
 30
0.0
 10
37.825477
 20
277.616953
 30
0.0
 10
37.705936
 20
277.640174
 30
0.0
 10
37.367710
 20
277.648807
 30
0.0
  0
LWPOLYLINE
  5
166
100
AcDbEntity
  8
Layer_1
 62
7
100
AcDbPolyline
 90
3
 70
1
 10
37.951083
 20
277.129482
 30
0.0
 10
37.876195
 20
277.115427
 30
0.0
 10
37.956891
 20
276.945504
 30
0.0
  0
SPLINE
  5
167
100
AcDbEntity
  8
Layer_1
 62
7
100
AcDbSpline
 70
8
 71
3
 72
8
 73
4
 74
0
 40
0
 40
0
 40
0
 40
0
 40
1
 40
1
 40
1
 40
1
 10
37.013679
 20
277.301897
 30
0.0
 10
37.013396
 20
277.106131
 30
0.0
 10
37.003462
 20
276.904235
 30
0.0
 10
36.991637
 20
276.853243
 30
0.0
  0
SPLINE
  5
168
100
AcDbEntity
  8
Layer_1
 62
7
100
AcDbSpline
 70
8
 71
3
 72
8
 73
4
 74
0
 40
0
 40
0
 40
0
 40
0
 40
1
 40
1
 40
1
 40
1
 10
36.991637
 20
276.853243
 30
0.0
 10
36.955978
 20
276.699338
 30
0.0
 10
36.831394
 20
276.636112
 30
0.0
 10
36.718968
 20
276.714858
 30
0.0
  0
LWPOLYLINE
  5
169
100
AcDbEntity
  8
Layer_1
 62
7
100
AcDbPolyline
 90
3
 70
1
 10
37.367710
 20
277.648807
 30
0.0
 10
37.014243
 20
277.657838
 30
0.0
 10
37.013679
 20
277.301897
 30
0.0
  0
SPLINE
  5
16a
100
AcDbEntity
  8
Layer_1
 62
7
100
AcDbSpline
 70
8
 71
3
 72
8
 73
4
 74
0
 40
0
 40
0
 40
0
 40
0
 40
1
 40
1
 40
1
 40
1
 10
41.394913
 20
276.693488
 30
0.0
 10
41.363042
 20
276.698963
 30
0.0
 10
41.303095
 20
276.708926
 30
0.0
 10
41.261696
 20
276.715614
 30
0.0
  0
SPLINE
  5
16b
100
AcDbEntity
  8
Layer_1
 62
7
100
AcDbSpline
 70
8
 71
3
 72
8
 73
4
 74
0
 40
0
 40
0
 40
0
 40
0
 40
1
 40
1
 40
1
 40
1
 10
41.261696
 20
276.715614
 30
0.0
 10
41.142658
 20
276.734862
 30
0.0
 10
41.064967
 20
276.929231
 30
0.0
 10
41.157336
 20
276.976704
 30
0.0
  0
SPLINE
  5
16c
100
AcDbEntity
  8
Layer_1
 62
7
100
AcDbSpline
 70
8
 71
3
 72
8
 73
4
 74
0
 40
0
 40
0
 40
0
 40
0
 40
1
 40
1
 40
1
 40
1
 10
41.157336
 20
276.976704
 30
0.0
 10
41.179631
 20
276.988162
 30
0.0
 10
41.359568
 20
277.003825
 30
0.0
 10
41.557157
 20
277.011471
 30
0.0
  0
SPLINE
  5
16d
100
AcDbEntity
  8
Layer_1
 62
7
100
AcDbSpline
 70
8
 71
3
 72
8
 73
4
 74
0
 40
0
 40
0
 40
0
 40
0
 40
1
 40
1
 40
1
 40
1
 10
41.557157
 20
277.011471
 30
0.0
 10
41.918038
 20
277.025469
 30
0.0
 10
42.190966
 20
277.074629
 30
0.0
 10
42.067076
 20
277.103345
 30
0.0
  0
SPLINE
  5
16e
100
AcDbEntity
  8
Layer_1
 62
7
100
AcDbSpline
 70
8
 71
3
 72
8
 73
4
 74
0
 40
0
 40
0
 40
0
 40
0
 40
1
 40
1
 40
1
 40
1
 10
42.067076
 20
277.103345
 30
0.0
 10
42.035208
 20
277.110739
 30
0.0
 10
41.899614
 20
277.122480
 30
0.0
 10
41.765759
 20
277.129423
 30
0.0
  0
SPLINE
  5
16f
100
AcDbEntity
  8
Layer_1
 62
7
100
AcDbSpline
 70
8
 71
3
 72
8
 73
4
 74
0
 40
0
 40
0
 40
0
 40
0
 40
1
 40
1
 40
1
 40
1
 10
41.765759
 20
277.129423
 30
0.0
 10
41.474921
 20
277.144550
 30
0.0
 10
41.274066
 20
277.193038
 30
0.0
 10
41.168391
 20
277.273641
 30
0.0
  0
SPLINE
  5
170
100
AcDbEntity
  8
Layer_1
 62
7
100
AcDbSpline
 70
8
 71
3
 72
8
 73
4
 74
0
 40
0
 40
0
 40
0
 40
0
 40
1
 40
1
 40
1
 40
1
 10
41.168391
 20
277.273641
 30
0.0
 10
41.073857
 20
277.345743
 30
0.0
 10
41.047216
 20
277.410397
 30
0.0
 10
41.047326
 20
277.567412
 30
0.0
  0
SPLINE
  5
171
100
AcDbEntity
  8
Layer_1
 62
7
100
AcDbSpline
 70
8
 71
3
 72
8
 73
4
 74
0
 40
0
 40
0
 40
0
 40
0
 40
1
 40
1
 40
1
 40
1
 10
41.047326
 20
277.567412
 30
0.0
 10
41.047608
 20
277.794349
 30
0.0
 10
41.169322
 20
277.900880
 30
0.0
 10
41.487765
 20
277.952543
 30
0.0
  0
SPLINE
  5
172
100
AcDbEntity
  8
Layer_1
 62
7
100
AcDbSpline
 70
8
 71
3
 72
8
 73
4
 74
0
 40
0
 40
0
 40
0
 40
0
 40
1
 40
1
 40
1
 40
1
 10
41.487765
 20
277.952543
 30
0.0
 10
41.685365
 20
277.984604
 30
0.0
 10
42.212875
 20
277.980870
 30
0.0
 10
42.345212
 20
277.946476
 30
0.0
  0
SPLINE
  5
173
100
AcDbEntity
  8
Layer_1
 62
7
100
AcDbSpline
 70
8
 71
3
 72
8
 73
4
 74
0
 40
0
 40
0
 40
0
 40
0
 40
1
 40
1
 40
1
 40
1
 10
42.345212
 20
277.946476
 30
0.0
 10
42.446852
 20
277.920060
 30
0.0
 10
42.449516
 20
277.917012
 30
0.0
 10
42.449516
 20
277.826969
 30
0.0
  0
SPLINE
  5
174
100
AcDbEntity
  8
Layer_1
 62
7
100
AcDbSpline
 70
8
 71
3
 72
8
 73
4
 74
0
 40
0
 40
0
 40
0
 40
0
 40
1
 40
1
 40
1
 40
1
 10
42.449516
 20
277.826969
 30
0.0
 10
42.449516
 20
277.751164
 30
0.0
 10
42.439102
 20
277.729653
 30
0.0
 10
42.391567
 20
277.707185
 30
0.0
  0
SPLINE
  5
175
100
AcDbEntity
  8
Layer_1
 62
7
100
AcDbSpline
 70
8
 71
3
 72
8
 73
4
 74
0
 40
0
 40
0
 40
0
 40
0
 40
1
 40
1
 40
1
 40
1
 10
42.391567
 20
277.707185
 30
0.0
 10
42.359699
 20
277.692114
 30
0.0
 10
42.143451
 20
277.668255
 30
0.0
 10
41.911019
 20
277.654147
 30
0.0
  0
SPLINE
  5
176
100
AcDbEntity
  8
Layer_1
 62
7
100
AcDbSpline
 70
8
 71
3
 72
8
 73
4
 74
0
 40
0
 40
0
 40
0
 40
0
 40
1
 40
1
 40
1
 40
1
 10
41.911019
 20
277.654147
 30
0.0
 10
41.678583
 20
277.640036
 30
0.0
 10
41.470916
 20
277.621776
 30
0.0
 10
41.449532
 20
277.613572
 30
0.0
  0
SPLINE
  5
177
100
AcDbEntity
  8
Layer_1
 62
7
100
AcDbSpline
 70
8
 71
3
 72
8
 73
4
 74
0
 40
0
 40
0
 40
0
 40
0
 40
1
 40
1
 40
1
 40
1
 10
41.449532
 20
277.613572
 30
0.0
 10
41.377862
 20
277.586055
 30
0.0
 10
41.504602
 20
277.559470
 30
0.0
 10
41.822339
 20
277.535331
 30
0.0
  0
SPLINE
  5
178
100
AcDbEntity
  8
Layer_1
 62
7
100
AcDbSpline
 70
8
 71
3
 72
8
 73
4
 74
0
 40
0
 40
0
 40
0
 40
0
 40
1
 40
1
 40
1
 40
1
 10
41.822339
 20
277.535331
 30
0.0
 10
42.177894
 20
277.508323
 30
0.0
 10
42.272929
 20
277.486222
 30
0.0
 10
42.364330
 20
277.409311
 30
0.0
  0
SPLINE
  5
179
100
AcDbEntity
  8
Layer_1
 62
7
100
AcDbSpline
 70
8
 71
3
 72
8
 73
4
 74
0
 40
0
 40
0
 40
0
 40
0
 40
1
 40
1
 40
1
 40
1
 10
42.364330
 20
277.409311
 30
0.0
 10
42.459876
 20
277.328917
 30
0.0
 10
42.491598
 20
277.236534
 30
0.0
 10
42.479776
 20
277.073111
 30
0.0
  0
SPLINE
  5
17a
100
AcDbEntity
  8
Layer_1
 62
7
100
AcDbSpline
 70
8
 71
3
 72
8
 73
4
 74
0
 40
0
 40
0
 40
0
 40
0
 40
1
 40
1
 40
1
 40
1
 10
42.479776
 20
277.073111
 30
0.0
 10
42.463322
 20
276.845518
 30
0.0
 10
42.382398
 20
276.769544
 30
0.0
 10
42.112988
 20
276.728706
 30
0.0
  0
SPLINE
  5
17b
100
AcDbEntity
  8
Layer_1
 62
7
100
AcDbSpline
 70
8
 71
3
 72
8
 73
4
 74
0
 40
0
 40
0
 40
0
 40
0
 40
1
 40
1
 40
1
 40
1
 10
42.112988
 20
276.728706
 30
0.0
 10
41.935075
 20
276.701726
 30
0.0
 10
41.477396
 20
276.679278
 30
0.0
 10
41.394913
 20
276.693468
 30
0.0
  0
LWPOLYLINE
  5
17c
100
AcDbEntity
  8
Layer_1
 62
7
100
AcDbPolyline
 90
2
 70
1
 10
36.718968
 20
276.714858
 30
0.0
 10
36.718999
 20
276.714824
 30
0.0
  0
SPLINE
  5
17d
100
AcDbEntity
  8
Layer_1
 62
7
100
AcDbSpline
 70
8
 71
3
 72
8
 73
4
 74
0
 40
0
 40
0
 40
0
 40
0
 40
1
 40
1
 40
1
 40
1
 10
30.066629
 20
276.736993
 30
0.0
 10
30.033084
 20
276.761264
 30
0.0
 10
30.014477
 20
276.798850
 30
0.0
 10
30.014477
 20
276.842346
 30
0.0
  0
SPLINE
  5
17e
100
AcDbEntity
  8
Layer_1
 62
7
100
AcDbSpline
 70
8
 71
3
 72
8
 73
4
 74
0
 40
0
 40
0
 40
0
 40
0
 40
1
 40
1
 40
1
 40
1
 10
30.014477
 20
276.842346
 30
0.0
 10
30.014477
 20
276.954205
 30
0.0
 10
30.108161
 20
276.985151
 30
0.0
 10
30.512806
 20
277.006966
 30
0.0
  0
SPLINE
  5
17f
100
AcDbEntity
  8
Layer_1
 62
7
100
AcDbSpline
 70
8
 71
3
 72
8
 73
4
 74
0
 40
0
 40
0
 40
0
 40
0
 40
1
 40
1
 40
1
 40
1
 10
30.512806
 20
277.006966
 30
0.0
 10
30.880722
 20
277.026807
 30
0.0
 10
30.964779
 20
277.038742
 30
0.0
 10
30.964779
 20
277.071146
 30
0.0
  0
SPLINE
  5
180
100
AcDbEntity
  8
Layer_1
 62
7
100
AcDbSpline
 70
8
 71
3
 72
8
 73
4
 74
0
 40
0
 40
0
 40
0
 40
0
 40
1
 40
1
 40
1
 40
1
 10
30.964779
 20
277.071146
 30
0.0
 10
30.964779
 20
277.099143
 30
0.0
 10
30.879164
 20
277.119045
 30
0.0
 10
30.756177
 20
277.119624
 30
0.0
  0
SPLINE
  5
181
100
AcDbEntity
  8
Layer_1
 62
7
100
AcDbSpline
 70
8
 71
3
 72
8
 73
4
 74
0
 40
0
 40
0
 40
0
 40
0
 40
1
 40
1
 40
1
 40
1
 10
30.756177
 20
277.119624
 30
0.0
 10
30.204362
 20
277.122164
 30
0.0
 10
29.855781
 20
277.388229
 30
0.0
 10
30.009496
 20
277.689416
 30
0.0
  0
SPLINE
  5
182
100
AcDbEntity
  8
Layer_1
 62
7
100
AcDbSpline
 70
8
 71
3
 72
8
 73
4
 74
0
 40
0
 40
0
 40
0
 40
0
 40
1
 40
1
 40
1
 40
1
 10
30.009496
 20
277.689416
 30
0.0
 10
30.099347
 20
277.865464
 30
0.0
 10
30.168842
 20
277.898328
 30
0.0
 10
30.547572
 20
277.943862
 30
0.0
  0
SPLINE
  5
183
100
AcDbEntity
  8
Layer_1
 62
7
100
AcDbSpline
 70
8
 71
3
 72
8
 73
4
 74
0
 40
0
 40
0
 40
0
 40
0
 40
1
 40
1
 40
1
 40
1
 10
30.547572
 20
277.943862
 30
0.0
 10
31.152417
 20
278.016582
 30
0.0
 10
31.395879
 20
277.965960
 30
0.0
 10
31.348542
 20
277.777362
 30
0.0
  0
SPLINE
  5
184
100
AcDbEntity
  8
Layer_1
 62
7
100
AcDbSpline
 70
8
 71
3
 72
8
 73
4
 74
0
 40
0
 40
0
 40
0
 40
0
 40
1
 40
1
 40
1
 40
1
 10
31.348542
 20
277.777362
 30
0.0
 10
31.328278
 20
277.696596
 30
0.0
 10
31.266186
 20
277.680614
 30
0.0
 10
30.820817
 20
277.641506
 30
0.0
  0
SPLINE
  5
185
100
AcDbEntity
  8
Layer_1
 62
7
100
AcDbSpline
 70
8
 71
3
 72
8
 73
4
 74
0
 40
0
 40
0
 40
0
 40
0
 40
1
 40
1
 40
1
 40
1
 10
30.820817
 20
277.641506
 30
0.0
 10
30.602637
 20
277.622343
 30
0.0
 10
30.418871
 20
277.601419
 30
0.0
 10
30.412450
 20
277.594999
 30
0.0
  0
SPLINE
  5
186
100
AcDbEntity
  8
Layer_1
 62
7
100
AcDbSpline
 70
8
 71
3
 72
8
 73
4
 74
0
 40
0
 40
0
 40
0
 40
0
 40
1
 40
1
 40
1
 40
1
 10
30.412450
 20
277.594999
 30
0.0
 10
30.384933
 20
277.567482
 30
0.0
 10
30.442747
 20
277.557071
 30
0.0
 10
30.727619
 20
277.538179
 30
0.0
  0
SPLINE
  5
187
100
AcDbEntity
  8
Layer_1
 62
7
100
AcDbSpline
 70
8
 71
3
 72
8
 73
4
 74
0
 40
0
 40
0
 40
0
 40
0
 40
1
 40
1
 40
1
 40
1
 10
30.727619
 20
277.538179
 30
0.0
 10
31.062504
 20
277.515968
 30
0.0
 10
31.198707
 20
277.472698
 30
0.0
 10
31.328241
 20
277.347355
 30
0.0
  0
SPLINE
  5
188
100
AcDbEntity
  8
Layer_1
 62
7
100
AcDbSpline
 70
8
 71
3
 72
8
 73
4
 74
0
 40
0
 40
0
 40
0
 40
0
 40
1
 40
1
 40
1
 40
1
 10
31.328241
 20
277.347355
 30
0.0
 10
31.471737
 20
277.208501
 30
0.0
 10
31.480133
 20
276.927143
 30
0.0
 10
31.343961
 20
276.820042
 30
0.0
  0
SPLINE
  5
189
100
AcDbEntity
  8
Layer_1
 62
7
100
AcDbSpline
 70
8
 71
3
 72
8
 73
4
 74
0
 40
0
 40
0
 40
0
 40
0
 40
1
 40
1
 40
1
 40
1
 10
31.343961
 20
276.820042
 30
0.0
 10
31.238636
 20
276.737193
 30
0.0
 10
31.127370
 20
276.720293
 30
0.0
 10
30.617092
 20
276.709654
 30
0.0
  0
SPLINE
  5
18a
100
AcDbEntity
  8
Layer_1
 62
7
100
AcDbSpline
 70
8
 71
3
 72
8
 73
4
 74
0
 40
0
 40
0
 40
0
 40
0
 40
1
 40
1
 40
1
 40
1
 10
30.617092
 20
276.709654
 30
0.0
 10
30.182670
 20
276.700594
 30
0.0
 10
30.112078
 20
276.704094
 30
0.0
 10
30.066615
 20
276.737001
 30
0.0
  0
LWPOLYLINE
  5
18b
100
AcDbEntity
  8
Layer_1
 62
7
100
AcDbPolyline
 90
2
 70
1
 10
41.394913
 20
276.693468
 30
0.0
 10
41.394913
 20
276.693488
 30
0.0
  0
SPLINE
  5
18c
100
AcDbEntity
  8
Layer_1
 62
7
100
AcDbSpline
 70
8
 71
3
 72
8
 73
4
 74
0
 40
0
 40
0
 40
0
 40
0
 40
1
 40
1
 40
1
 40
1
 10
34.739295
 20
276.734735
 30
0.0
 10
34.679997
 20
276.750709
 30
0.0
 10
34.603408
 20
276.782173
 30
0.0
 10
34.569087
 20
276.804661
 30
0.0
  0
SPLINE
  5
18d
100
AcDbEntity
  8
Layer_1
 62
7
100
AcDbSpline
 70
8
 71
3
 72
8
 73
4
 74
0
 40
0
 40
0
 40
0
 40
0
 40
1
 40
1
 40
1
 40
1
 10
34.569087
 20
276.804661
 30
0.0
 10
34.435353
 20
276.892285
 30
0.0
 10
34.365842
 20
277.210669
 30
0.0
 10
34.416690
 20
277.502661
 30
0.0
  0
SPLINE
  5
18e
100
AcDbEntity
  8
Layer_1
 62
7
100
AcDbSpline
 70
8
 71
3
 72
8
 73
4
 74
0
 40
0
 40
0
 40
0
 40
0
 40
1
 40
1
 40
1
 40
1
 10
34.416690
 20
277.502661
 30
0.0
 10
34.458323
 20
277.741749
 30
0.0
 10
34.509261
 20
277.822639
 30
0.0
 10
34.666944
 20
277.900067
 30
0.0
  0
SPLINE
  5
18f
100
AcDbEntity
  8
Layer_1
 62
7
100
AcDbSpline
 70
8
 71
3
 72
8
 73
4
 74
0
 40
0
 40
0
 40
0
 40
0
 40
1
 40
1
 40
1
 40
1
 10
34.666944
 20
277.900067
 30
0.0
 10
34.797382
 20
277.964120
 30
0.0
 10
34.810079
 20
277.965740
 30
0.0
 10
35.171597
 20
277.964541
 30
0.0
  0
SPLINE
  5
190
100
AcDbEntity
  8
Layer_1
 62
7
100
AcDbSpline
 70
8
 71
3
 72
8
 73
4
 74
0
 40
0
 40
0
 40
0
 40
0
 40
1
 40
1
 40
1
 40
1
 10
35.171597
 20
277.964541
 30
0.0
 10
35.400099
 20
277.963694
 30
0.0
 10
35.582485
 20
277.951897
 30
0.0
 10
35.646749
 20
277.933561
 30
0.0
  0
SPLINE
  5
191
100
AcDbEntity
  8
Layer_1
 62
7
100
AcDbSpline
 70
8
 71
3
 72
8
 73
4
 74
0
 40
0
 40
0
 40
0
 40
0
 40
1
 40
1
 40
1
 40
1
 10
35.646749
 20
277.933561
 30
0.0
 10
35.873577
 20
277.868859
 30
0.0
 10
35.948064
 20
277.710834
 30
0.0
 10
35.948064
 20
277.294314
 30
0.0
  0
SPLINE
  5
192
100
AcDbEntity
  8
Layer_1
 62
7
100
AcDbSpline
 70
8
 71
3
 72
8
 73
4
 74
0
 40
0
 40
0
 40
0
 40
0
 40
1
 40
1
 40
1
 40
1
 10
35.948064
 20
277.294314
 30
0.0
 10
35.948064
 20
277.073286
 30
0.0
 10
35.940670
 20
277.022333
 30
0.0
 10
35.895915
 20
276.933995
 30
0.0
  0
SPLINE
  5
193
100
AcDbEntity
  8
Layer_1
 62
7
100
AcDbSpline
 70
8
 71
3
 72
8
 73
4
 74
0
 40
0
 40
0
 40
0
 40
0
 40
1
 40
1
 40
1
 40
1
 10
35.895915
 20
276.933995
 30
0.0
 10
35.867233
 20
276.877407
 30
0.0
 10
35.812473
 20
276.813229
 30
0.0
 10
35.774229
 20
276.791380
 30
0.0
  0
SPLINE
  5
194
100
AcDbEntity
  8
Layer_1
 62
7
100
AcDbSpline
 70
8
 71
3
 72
8
 73
4
 74
0
 40
0
 40
0
 40
0
 40
0
 40
1
 40
1
 40
1
 40
1
 10
35.774229
 20
276.791380
 30
0.0
 10
35.632176
 20
276.710218
 30
0.0
 10
34.965739
 20
276.673741
 30
0.0
 10
34.739295
 20
276.734735
 30
0.0
  0
LWPOLYLINE
  5
195
100
AcDbEntity
  8
Layer_1
 62
7
100
AcDbPolyline
 90
2
 70
1
 10
30.066615
 20
276.737001
 30
0.0
 10
30.066629
 20
276.736993
 30
0.0
  0
SPLINE
  5
196
100
AcDbEntity
  8
Layer_1
 62
7
100
AcDbSpline
 70
8
 71
3
 72
8
 73
4
 74
0
 40
0
 40
0
 40
0
 40
0
 40
1
 40
1
 40
1
 40
1
 10
35.579287
 20
277.139724
 30
0.0
 10
35.647286
 20
277.223747
 30
0.0
 10
35.641283
 20
277.441563
 30
0.0
 10
35.568817
 20
277.519761
 30
0.0
  0
SPLINE
  5
197
100
AcDbEntity
  8
Layer_1
 62
7
100
AcDbSpline
 70
8
 71
3
 72
8
 73
4
 74
0
 40
0
 40
0
 40
0
 40
0
 40
1
 40
1
 40
1
 40
1
 10
35.568817
 20
277.519761
 30
0.0
 10
35.461186
 20
277.635896
 30
0.0
 10
35.379282
 20
277.660568
 30
0.0
 10
35.154356
 20
277.644602
 30
0.0
  0
SPLINE
  5
198
100
AcDbEntity
  8
Layer_1
 62
7
100
AcDbSpline
 70
8
 71
3
 72
8
 73
4
 74
0
 40
0
 40
0
 40
0
 40
0
 40
1
 40
1
 40
1
 40
1
 10
35.154356
 20
277.644602
 30
0.0
 10
34.925940
 20
277.628374
 30
0.0
 10
34.828649
 20
277.589702
 30
0.0
 10
34.780711
 20
277.496024
 30
0.0
  0
SPLINE
  5
199
100
AcDbEntity
  8
Layer_1
 62
7
100
AcDbSpline
 70
8
 71
3
 72
8
 73
4
 74
0
 40
0
 40
0
 40
0
 40
0
 40
1
 40
1
 40
1
 40
1
 10
34.780711
 20
277.496024
 30
0.0
 10
34.729987
 20
277.396910
 30
0.0
 10
34.715204
 20
277.254924
 30
0.0
 10
34.748828
 20
277.189764
 30
0.0
  0
SPLINE
  5
19a
100
AcDbEntity
  8
Layer_1
 62
7
100
AcDbSpline
 70
8
 71
3
 72
8
 73
4
 74
0
 40
0
 40
0
 40
0
 40
0
 40
1
 40
1
 40
1
 40
1
 10
34.748828
 20
277.189764
 30
0.0
 10
34.802061
 20
277.086592
 30
0.0
 10
34.866315
 20
277.071217
 30
0.0
 10
35.214238
 20
277.078391
 30
0.0
  0
SPLINE
  5
19b
100
AcDbEntity
  8
Layer_1
 62
7
100
AcDbSpline
 70
8
 71
3
 72
8
 73
4
 74
0
 40
0
 40
0
 40
0
 40
0
 40
1
 40
1
 40
1
 40
1
 10
35.214238
 20
277.078391
 30
0.0
 10
35.519479
 20
277.084685
 30
0.0
 10
35.537151
 20
277.087648
 30
0.0
 10
35.579293
 20
277.139724
 30
0.0
  0
LWPOLYLINE
  5
19c
100
AcDbEntity
  8
Layer_1
 62
7
100
AcDbPolyline
 90
2
 70
1
 10
34.739295
 20
276.734735
 30
0.0
 10
34.739295
 20
276.734735
 30
0.0
  0
SPLINE
  5
19d
100
AcDbEntity
  8
Layer_1
 62
7
100
AcDbSpline
 70
8
 71
3
 72
8
 73
4
 74
0
 40
0
 40
0
 40
0
 40
0
 40
1
 40
1
 40
1
 40
1
 10
39.487941
 20
276.758608
 30
0.0
 10
39.463726
 20
276.782823
 30
0.0
 10
39.451664
 20
276.884866
 30
0.0
 10
39.442088
 20
277.146838
 30
0.0
  0
SPLINE
  5
19e
100
AcDbEntity
  8
Layer_1
 62
7
100
AcDbSpline
 70
8
 71
3
 72
8
 73
4
 74
0
 40
0
 40
0
 40
0
 40
0
 40
1
 40
1
 40
1
 40
1
 10
39.442088
 20
277.146838
 30
0.0
 10
39.424477
 20
277.628363
 30
0.0
 10
39.419934
 20
277.636692
 30
0.0
 10
39.161376
 20
277.660548
 30
0.0
  0
SPLINE
  5
19f
100
AcDbEntity
  8
Layer_1
 62
7
100
AcDbSpline
 70
8
 71
3
 72
8
 73
4
 74
0
 40
0
 40
0
 40
0
 40
0
 40
1
 40
1
 40
1
 40
1
 10
39.161376
 20
277.660548
 30
0.0
 10
38.986652
 20
277.676663
 30
0.0
 10
38.873718
 20
277.786907
 30
0.0
 10
38.935084
 20
277.881452
 30
0.0
  0
SPLINE
  5
1a0
100
AcDbEntity
  8
Layer_1
 62
7
100
AcDbSpline
 70
8
 71
3
 72
8
 73
4
 74
0
 40
0
 40
0
 40
0
 40
0
 40
1
 40
1
 40
1
 40
1
 10
38.935084
 20
277.881452
 30
0.0
 10
38.966817
 20
277.930349
 30
0.0
 10
39.129699
 20
277.952089
 30
0.0
 10
39.471132
 20
277.952998
 30
0.0
  0
SPLINE
  5
1a1
100
AcDbEntity
  8
Layer_1
 62
7
100
AcDbSpline
 70
8
 71
3
 72
8
 73
4
 74
0
 40
0
 40
0
 40
0
 40
0
 40
1
 40
1
 40
1
 40
1
 10
39.471132
 20
277.952998
 30
0.0
 10
39.991309
 20
277.954409
 30
0.0
 10
40.252300
 20
277.910060
 30
0.0
 10
40.314603
 20
277.809756
 30
0.0
  0
SPLINE
  5
1a2
100
AcDbEntity
  8
Layer_1
 62
7
100
AcDbSpline
 70
8
 71
3
 72
8
 73
4
 74
0
 40
0
 40
0
 40
0
 40
0
 40
1
 40
1
 40
1
 40
1
 10
40.314603
 20
277.809756
 30
0.0
 10
40.354710
 20
277.745183
 30
0.0
 10
40.282444
 20
277.696472
 30
0.0
 10
40.093570
 20
277.660757
 30
0.0
  0
SPLINE
  5
1a3
100
AcDbEntity
  8
Layer_1
 62
7
100
AcDbSpline
 70
8
 71
3
 72
8
 73
4
 74
0
 40
0
 40
0
 40
0
 40
0
 40
1
 40
1
 40
1
 40
1
 10
40.093570
 20
277.660757
 30
0.0
 10
40.000595
 20
277.643174
 30
0.0
 10
39.915730
 20
277.619998
 30
0.0
 10
39.904980
 20
277.609245
 30
0.0
  0
SPLINE
  5
1a4
100
AcDbEntity
  8
Layer_1
 62
7
100
AcDbSpline
 70
8
 71
3
 72
8
 73
4
 74
0
 40
0
 40
0
 40
0
 40
0
 40
1
 40
1
 40
1
 40
1
 10
39.904980
 20
277.609245
 30
0.0
 10
39.885874
 20
277.590139
 30
0.0
 10
39.849431
 20
277.387769
 30
0.0
 10
39.798052
 20
277.015472
 30
0.0
  0
SPLINE
  5
1a5
100
AcDbEntity
  8
Layer_1
 62
7
100
AcDbSpline
 70
8
 71
3
 72
8
 73
4
 74
0
 40
0
 40
0
 40
0
 40
0
 40
1
 40
1
 40
1
 40
1
 10
39.798052
 20
277.015472
 30
0.0
 10
39.777139
 20
276.863950
 30
0.0
 10
39.761631
 20
276.820511
 30
0.0
 10
39.713216
 20
276.777895
 30
0.0
  0
SPLINE
  5
1a6
100
AcDbEntity
  8
Layer_1
 62
7
100
AcDbSpline
 70
8
 71
3
 72
8
 73
4
 74
0
 40
0
 40
0
 40
0
 40
0
 40
1
 40
1
 40
1
 40
1
 10
39.713216
 20
276.777895
 30
0.0
 10
39.646188
 20
276.718894
 30
0.0
 10
39.536999
 20
276.709546
 30
0.0
 10
39.487941
 20
276.758619
 30
0.0
  0
LWPOLYLINE
  5
1a7
100
AcDbEntity
  8
Layer_1
 62
7
100
AcDbPolyline
 90
2
 70
1
 10
35.579293
 20
277.139724
 30
0.0
 10
35.579287
 20
277.139724
 30
0.0
  0
SPLINE
  5
1a8
100
AcDbEntity
  8
Layer_1
 62
7
100
AcDbSpline
 70
8
 71
3
 72
8
 73
4
 74
0
 40
0
 40
0
 40
0
 40
0
 40
1
 40
1
 40
1
 40
1
 10
19.154450
 20
279.181288
 30
0.0
 10
18.591120
 20
279.196951
 30
0.0
 10
18.582975
 20
279.200112
 30
0.0
 10
18.543625
 20
279.418964
 30
0.0
  0
SPLINE
  5
1a9
100
AcDbEntity
  8
Layer_1
 62
7
100
AcDbSpline
 70
8
 71
3
 72
8
 73
4
 74
0
 40
0
 40
0
 40
0
 40
0
 40
1
 40
1
 40
1
 40
1
 10
18.543625
 20
279.418964
 30
0.0
 10
18.529175
 20
279.499316
 30
0.0
 10
18.460062
 20
279.992694
 30
0.0
 10
18.390037
 20
280.515361
 30
0.0
  0
SPLINE
  5
1aa
100
AcDbEntity
  8
Layer_1
 62
7
100
AcDbSpline
 70
8
 71
3
 72
8
 73
4
 74
0
 40
0
 40
0
 40
0
 40
0
 40
1
 40
1
 40
1
 40
1
 10
18.390037
 20
280.515361
 30
0.0
 10
18.200183
 20
281.932447
 30
0.0
 10
18.099323
 20
282.487539
 30
0.0
 10
17.984534
 20
282.747034
 30
0.0
  0
SPLINE
  5
1ab
100
AcDbEntity
  8
Layer_1
 62
7
100
AcDbSpline
 70
8
 71
3
 72
8
 73
4
 74
0
 40
0
 40
0
 40
0
 40
0
 40
1
 40
1
 40
1
 40
1
 10
17.984534
 20
282.747034
 30
0.0
 10
17.959332
 20
282.804023
 30
0.0
 10
17.938699
 20
282.879162
 30
0.0
 10
17.938699
 20
282.914011
 30
0.0
  0
SPLINE
  5
1ac
100
AcDbEntity
  8
Layer_1
 62
7
100
AcDbSpline
 70
8
 71
3
 72
8
 73
4
 74
0
 40
0
 40
0
 40
0
 40
0
 40
1
 40
1
 40
1
 40
1
 10
17.938699
 20
282.914011
 30
0.0
 10
17.938699
 20
282.973136
 30
0.0
 10
17.946827
 20
282.978346
 30
0.0
 10
18.060384
 20
282.991986
 30
0.0
  0
SPLINE
  5
1ad
100
AcDbEntity
  8
Layer_1
 62
7
100
AcDbSpline
 70
8
 71
3
 72
8
 73
4
 74
0
 40
0
 40
0
 40
0
 40
0
 40
1
 40
1
 40
1
 40
1
 10
18.060384
 20
282.991986
 30
0.0
 10
18.127311
 20
283.000029
 30
0.0
 10
18.584242
 20
283.006690
 30
0.0
 10
19.075789
 20
283.006803
 30
0.0
  0
SPLINE
  5
1ae
100
AcDbEntity
  8
Layer_1
 62
7
100
AcDbSpline
 70
8
 71
3
 72
8
 73
4
 74
0
 40
0
 40
0
 40
0
 40
0
 40
1
 40
1
 40
1
 40
1
 10
19.075789
 20
283.006803
 30
0.0
 10
19.755761
 20
283.006961
 30
0.0
 10
19.978392
 20
283.000086
 30
0.0
 10
20.006651
 20
282.978033
 30
0.0
  0
SPLINE
  5
1af
100
AcDbEntity
  8
Layer_1
 62
7
100
AcDbSpline
 70
8
 71
3
 72
8
 73
4
 74
0
 40
0
 40
0
 40
0
 40
0
 40
1
 40
1
 40
1
 40
1
 10
20.006651
 20
282.978033
 30
0.0
 10
20.048087
 20
282.945707
 30
0.0
 10
20.067109
 20
282.778784
 30
0.0
 10
20.186923
 20
281.396126
 30
0.0
  0
SPLINE
  5
1b0
100
AcDbEntity
  8
Layer_1
 62
7
100
AcDbSpline
 70
8
 71
3
 72
8
 73
4
 74
0
 40
0
 40
0
 40
0
 40
0
 40
1
 40
1
 40
1
 40
1
 10
20.186923
 20
281.396126
 30
0.0
 10
20.261698
 20
280.533237
 30
0.0
 10
20.297746
 20
280.209740
 30
0.0
 10
20.324639
 20
280.160289
 30
0.0
  0
SPLINE
  5
1b1
100
AcDbEntity
  8
Layer_1
 62
7
100
AcDbSpline
 70
8
 71
3
 72
8
 73
4
 74
0
 40
0
 40
0
 40
0
 40
0
 40
1
 40
1
 40
1
 40
1
 10
20.324639
 20
280.160289
 30
0.0
 10
20.352156
 20
280.109703
 30
0.0
 10
20.425333
 20
280.220024
 30
0.0
 10
21.236702
 20
281.535196
 30
0.0
  0
SPLINE
  5
1b2
100
AcDbEntity
  8
Layer_1
 62
7
100
AcDbSpline
 70
8
 71
3
 72
8
 73
4
 74
0
 40
0
 40
0
 40
0
 40
0
 40
1
 40
1
 40
1
 40
1
 10
21.236702
 20
281.535196
 30
0.0
 10
22.043643
 20
282.843190
 30
0.0
 10
22.091458
 20
282.909227
 30
0.0
 10
22.274402
 20
282.968310
 30
0.0
  0
SPLINE
  5
1b3
100
AcDbEntity
  8
Layer_1
 62
7
100
AcDbSpline
 70
8
 71
3
 72
8
 73
4
 74
0
 40
0
 40
0
 40
0
 40
0
 40
1
 40
1
 40
1
 40
1
 10
22.274402
 20
282.968310
 30
0.0
 10
22.431541
 20
283.019060
 30
0.0
 10
22.772942
 20
283.043421
 30
0.0
 10
22.858247
 20
283.009969
 30
0.0
  0
SPLINE
  5
1b4
100
AcDbEntity
  8
Layer_1
 62
7
100
AcDbSpline
 70
8
 71
3
 72
8
 73
4
 74
0
 40
0
 40
0
 40
0
 40
0
 40
1
 40
1
 40
1
 40
1
 10
22.858247
 20
283.009969
 30
0.0
 10
22.909871
 20
282.989734
 30
0.0
 10
22.921987
 20
282.970421
 30
0.0
 10
22.921987
 20
282.908417
 30
0.0
  0
SPLINE
  5
1b5
100
AcDbEntity
  8
Layer_1
 62
7
100
AcDbSpline
 70
8
 71
3
 72
8
 73
4
 74
0
 40
0
 40
0
 40
0
 40
0
 40
1
 40
1
 40
1
 40
1
 10
22.921987
 20
282.908417
 30
0.0
 10
22.921987
 20
282.757251
 30
0.0
 10
22.766209
 20
282.480441
 30
0.0
 10
21.572451
 20
280.510369
 30
0.0
  0
LWPOLYLINE
  5
1b6
100
AcDbEntity
  8
Layer_1
 62
7
100
AcDbPolyline
 90
2
 70
1
 10
39.487941
 20
276.758619
 30
0.0
 10
39.487941
 20
276.758608
 30
0.0
  0
SPLINE
  5
1b7
100
AcDbEntity
  8
Layer_1
 62
7
100
AcDbSpline
 70
8
 71
3
 72
8
 73
4
 74
0
 40
0
 40
0
 40
0
 40
0
 40
1
 40
1
 40
1
 40
1
 10
20.186974
 20
279.164713
 30
0.0
 10
19.874647
 20
279.166689
 30
0.0
 10
19.410013
 20
279.174196
 30
0.0
 10
19.154450
 20
279.181280
 30
0.0
  0
LWPOLYLINE
  5
1b8
100
AcDbEntity
  8
Layer_1
 62
7
100
AcDbPolyline
 90
3
 70
1
 10
21.572451
 20
280.510369
 30
0.0
 10
20.754836
 20
279.161044
 30
0.0
 10
20.186974
 20
279.164713
 30
0.0
  0
SPLINE
  5
1b9
100
AcDbEntity
  8
Layer_1
 62
7
100
AcDbSpline
 70
8
 71
3
 72
8
 73
4
 74
0
 40
0
 40
0
 40
0
 40
0
 40
1
 40
1
 40
1
 40
1
 10
22.829274
 20
279.189303
 30
0.0
 10
22.712231
 20
279.248220
 30
0.0
 10
22.734467
 20
279.404066
 30
0.0
 10
23.020121
 20
280.526958
 30
0.0
  0
SPLINE
  5
1ba
100
AcDbEntity
  8
Layer_1
 62
7
100
AcDbSpline
 70
8
 71
3
 72
8
 73
4
 74
0
 40
0
 40
0
 40
0
 40
0
 40
1
 40
1
 40
1
 40
1
 10
23.020121
 20
280.526958
 30
0.0
 10
23.384882
 20
281.960804
 30
0.0
 10
23.480270
 20
282.365292
 30
0.0
 10
23.492928
 20
282.531862
 30
0.0
  0
SPLINE
  5
1bb
100
AcDbEntity
  8
Layer_1
 62
7
100
AcDbSpline
 70
8
 71
3
 72
8
 73
4
 74
0
 40
0
 40
0
 40
0
 40
0
 40
1
 40
1
 40
1
 40
1
 10
23.492928
 20
282.531862
 30
0.0
 10
23.504809
 20
282.688216
 30
0.0
 10
23.502241
 20
282.698712
 30
0.0
 10
23.422223
 20
282.820807
 30
0.0
  0
SPLINE
  5
1bc
100
AcDbEntity
  8
Layer_1
 62
7
100
AcDbSpline
 70
8
 71
3
 72
8
 73
4
 74
0
 40
0
 40
0
 40
0
 40
0
 40
1
 40
1
 40
1
 40
1
 10
23.422223
 20
282.820807
 30
0.0
 10
23.257425
 20
283.072270
 30
0.0
 10
23.229369
 20
283.064960
 30
0.0
 10
24.358969
 20
283.064960
 30
0.0
  0
SPLINE
  5
1bd
100
AcDbEntity
  8
Layer_1
 62
7
100
AcDbSpline
 70
8
 71
3
 72
8
 73
4
 74
0
 40
0
 40
0
 40
0
 40
0
 40
1
 40
1
 40
1
 40
1
 10
24.358969
 20
283.064960
 30
0.0
 10
25.124268
 20
283.064960
 30
0.0
 10
25.309347
 20
283.058949
 30
0.0
 10
25.340487
 20
283.033148
 30
0.0
  0
SPLINE
  5
1be
100
AcDbEntity
  8
Layer_1
 62
7
100
AcDbSpline
 70
8
 71
3
 72
8
 73
4
 74
0
 40
0
 40
0
 40
0
 40
0
 40
1
 40
1
 40
1
 40
1
 10
25.340487
 20
283.033148
 30
0.0
 10
25.424265
 20
282.963702
 30
0.0
 10
25.383190
 20
282.731673
 30
0.0
 10
25.067118
 20
281.488850
 30
0.0
  0
SPLINE
  5
1bf
100
AcDbEntity
  8
Layer_1
 62
7
100
AcDbSpline
 70
8
 71
3
 72
8
 73
4
 74
0
 40
0
 40
0
 40
0
 40
0
 40
1
 40
1
 40
1
 40
1
 10
25.067118
 20
281.488850
 30
0.0
 10
24.865135
 20
280.694631
 30
0.0
 10
24.561523
 20
279.615321
 30
0.0
 10
24.475973
 20
279.387378
 30
0.0
  0
SPLINE
  5
1c0
100
AcDbEntity
  8
Layer_1
 62
7
100
AcDbSpline
 70
8
 71
3
 72
8
 73
4
 74
0
 40
0
 40
0
 40
0
 40
0
 40
1
 40
1
 40
1
 40
1
 10
24.475973
 20
279.387378
 30
0.0
 10
24.412109
 20
279.217215
 30
0.0
 10
24.388667
 20
279.209397
 30
0.0
 10
23.860697
 20
279.182236
 30
0.0
  0
SPLINE
  5
1c1
100
AcDbEntity
  8
Layer_1
 62
7
100
AcDbSpline
 70
8
 71
3
 72
8
 73
4
 74
0
 40
0
 40
0
 40
0
 40
0
 40
1
 40
1
 40
1
 40
1
 10
23.860697
 20
279.182236
 30
0.0
 10
23.267065
 20
279.151694
 30
0.0
 10
22.898977
 20
279.154212
 30
0.0
 10
22.829274
 20
279.189320
 30
0.0
  0
LWPOLYLINE
  5
1c2
100
AcDbEntity
  8
Layer_1
 62
7
100
AcDbPolyline
 90
2
 70
1
 10
19.154450
 20
279.181280
 30
0.0
 10
19.154450
 20
279.181288
 30
0.0
  0
SPLINE
  5
1c3
100
AcDbEntity
  8
Layer_1
 62
7
100
AcDbSpline
 70
8
 71
3
 72
8
 73
4
 74
0
 40
0
 40
0
 40
0
 40
0
 40
1
 40
1
 40
1
 40
1
 10
28.426780
 20
279.182643
 30
0.0
 10
28.222812
 20
279.191251
 30
0.0
 10
28.027881
 20
279.209905
 30
0.0
 10
27.993599
 20
279.224113
 30
0.0
  0
SPLINE
  5
1c4
100
AcDbEntity
  8
Layer_1
 62
7
100
AcDbSpline
 70
8
 71
3
 72
8
 73
4
 74
0
 40
0
 40
0
 40
0
 40
0
 40
1
 40
1
 40
1
 40
1
 10
27.993599
 20
279.224113
 30
0.0
 10
27.862115
 20
279.278624
 30
0.0
 10
27.851136
 20
279.417446
 30
0.0
 10
27.949214
 20
279.785269
 30
0.0
  0
SPLINE
  5
1c5
100
AcDbEntity
  8
Layer_1
 62
7
100
AcDbSpline
 70
8
 71
3
 72
8
 73
4
 74
0
 40
0
 40
0
 40
0
 40
0
 40
1
 40
1
 40
1
 40
1
 10
27.949214
 20
279.785269
 30
0.0
 10
28.165069
 20
280.594795
 30
0.0
 10
28.185160
 20
280.681920
 30
0.0
 10
28.178675
 20
280.780331
 30
0.0
  0
SPLINE
  5
1c6
100
AcDbEntity
  8
Layer_1
 62
7
100
AcDbSpline
 70
8
 71
3
 72
8
 73
4
 74
0
 40
0
 40
0
 40
0
 40
0
 40
1
 40
1
 40
1
 40
1
 10
28.178675
 20
280.780331
 30
0.0
 10
28.170095
 20
280.910362
 30
0.0
 10
28.154855
 20
280.915566
 30
0.0
 10
27.772893
 20
280.918685
 30
0.0
  0
LWPOLYLINE
  5
1c7
100
AcDbEntity
  8
Layer_1
 62
7
100
AcDbPolyline
 90
2
 70
1
 10
22.829274
 20
279.189320
 30
0.0
 10
22.829274
 20
279.189303
 30
0.0
  0
SPLINE
  5
1c8
100
AcDbEntity
  8
Layer_1
 62
7
100
AcDbSpline
 70
8
 71
3
 72
8
 73
4
 74
0
 40
0
 40
0
 40
0
 40
0
 40
1
 40
1
 40
1
 40
1
 10
27.464145
 20
280.825501
 30
0.0
 10
27.329917
 20
280.327023
 30
0.0
 10
27.000524
 20
279.242779
 30
0.0
 10
26.979335
 20
279.229681
 30
0.0
  0
SPLINE
  5
1c9
100
AcDbEntity
  8
Layer_1
 62
7
100
AcDbSpline
 70
8
 71
3
 72
8
 73
4
 74
0
 40
0
 40
0
 40
0
 40
0
 40
1
 40
1
 40
1
 40
1
 10
26.979335
 20
279.229681
 30
0.0
 10
26.948846
 20
279.210828
 30
0.0
 10
26.201559
 20
279.182586
 30
0.0
 10
25.733640
 20
279.182586
 30
0.0
  0
SPLINE
  5
1ca
100
AcDbEntity
  8
Layer_1
 62
7
100
AcDbSpline
 70
8
 71
3
 72
8
 73
4
 74
0
 40
0
 40
0
 40
0
 40
0
 40
1
 40
1
 40
1
 40
1
 10
25.733640
 20
279.182586
 30
0.0
 10
25.512107
 20
279.182586
 30
0.0
 10
25.400248
 20
279.192408
 30
0.0
 10
25.341416
 20
279.216975
 30
0.0
  0
SPLINE
  5
1cb
100
AcDbEntity
  8
Layer_1
 62
7
100
AcDbSpline
 70
8
 71
3
 72
8
 73
4
 74
0
 40
0
 40
0
 40
0
 40
0
 40
1
 40
1
 40
1
 40
1
 10
25.341416
 20
279.216975
 30
0.0
 10
25.264965
 20
279.248917
 30
0.0
 10
25.260209
 20
279.256746
 30
0.0
 10
25.274538
 20
279.327070
 30
0.0
  0
SPLINE
  5
1cc
100
AcDbEntity
  8
Layer_1
 62
7
100
AcDbSpline
 70
8
 71
3
 72
8
 73
4
 74
0
 40
0
 40
0
 40
0
 40
0
 40
1
 40
1
 40
1
 40
1
 10
25.274538
 20
279.327070
 30
0.0
 10
25.325250
 20
279.575962
 30
0.0
 10
25.463324
 20
280.144535
 30
0.0
 10
25.726325
 20
281.187490
 30
0.0
  0
SPLINE
  5
1cd
100
AcDbEntity
  8
Layer_1
 62
7
100
AcDbSpline
 70
8
 71
3
 72
8
 73
4
 74
0
 40
0
 40
0
 40
0
 40
0
 40
1
 40
1
 40
1
 40
1
 10
25.726325
 20
281.187490
 30
0.0
 10
25.890270
 20
281.837634
 30
0.0
 10
26.031649
 20
282.429966
 30
0.0
 10
26.040500
 20
282.503778
 30
0.0
  0
SPLINE
  5
1ce
100
AcDbEntity
  8
Layer_1
 62
7
100
AcDbSpline
 70
8
 71
3
 72
8
 73
4
 74
0
 40
0
 40
0
 40
0
 40
0
 40
1
 40
1
 40
1
 40
1
 10
26.040500
 20
282.503778
 30
0.0
 10
26.056192
 20
282.634729
 30
0.0
 10
26.053962
 20
282.642251
 30
0.0
 10
25.948120
 20
282.813751
 30
0.0
  0
SPLINE
  5
1cf
100
AcDbEntity
  8
Layer_1
 62
7
100
AcDbSpline
 70
8
 71
3
 72
8
 73
4
 74
0
 40
0
 40
0
 40
0
 40
0
 40
1
 40
1
 40
1
 40
1
 10
25.948120
 20
282.813751
 30
0.0
 10
25.888461
 20
282.910421
 30
0.0
 10
25.844841
 20
283.003044
 30
0.0
 10
25.851185
 20
283.019573
 30
0.0
  0
SPLINE
  5
1d0
100
AcDbEntity
  8
Layer_1
 62
7
100
AcDbSpline
 70
8
 71
3
 72
8
 73
4
 74
0
 40
0
 40
0
 40
0
 40
0
 40
1
 40
1
 40
1
 40
1
 10
25.851185
 20
283.019573
 30
0.0
 10
25.871308
 20
283.071999
 30
0.0
 10
26.104474
 20
283.082980
 30
0.0
 10
26.964258
 20
283.071988
 30
0.0
  0
SPLINE
  5
1d1
100
AcDbEntity
  8
Layer_1
 62
7
100
AcDbSpline
 70
8
 71
3
 72
8
 73
4
 74
0
 40
0
 40
0
 40
0
 40
0
 40
1
 40
1
 40
1
 40
1
 10
26.964258
 20
283.071988
 30
0.0
 10
27.935975
 20
283.059570
 30
0.0
 10
27.935811
 20
283.059598
 30
0.0
 10
27.946905
 20
282.889709
 30
0.0
  0
SPLINE
  5
1d2
100
AcDbEntity
  8
Layer_1
 62
7
100
AcDbSpline
 70
8
 71
3
 72
8
 73
4
 74
0
 40
0
 40
0
 40
0
 40
0
 40
1
 40
1
 40
1
 40
1
 10
27.946905
 20
282.889709
 30
0.0
 10
27.951421
 20
282.820426
 30
0.0
 10
27.917580
 20
282.646055
 30
0.0
 10
27.847950
 20
282.379976
 30
0.0
  0
SPLINE
  5
1d3
100
AcDbEntity
  8
Layer_1
 62
7
100
AcDbSpline
 70
8
 71
3
 72
8
 73
4
 74
0
 40
0
 40
0
 40
0
 40
0
 40
1
 40
1
 40
1
 40
1
 10
27.847950
 20
282.379976
 30
0.0
 10
27.677490
 20
281.728567
 30
0.0
 10
27.597088
 20
281.383637
 30
0.0
 10
27.612187
 20
281.368539
 30
0.0
  0
SPLINE
  5
1d4
100
AcDbEntity
  8
Layer_1
 62
7
100
AcDbSpline
 70
8
 71
3
 72
8
 73
4
 74
0
 40
0
 40
0
 40
0
 40
0
 40
1
 40
1
 40
1
 40
1
 10
27.612187
 20
281.368539
 30
0.0
 10
27.645540
 20
281.335186
 30
0.0
 10
27.851638
 20
281.523267
 30
0.0
 10
28.455823
 20
282.138416
 30
0.0
  0
SPLINE
  5
1d5
100
AcDbEntity
  8
Layer_1
 62
7
100
AcDbSpline
 70
8
 71
3
 72
8
 73
4
 74
0
 40
0
 40
0
 40
0
 40
0
 40
1
 40
1
 40
1
 40
1
 10
28.455823
 20
282.138416
 30
0.0
 10
29.128841
 20
282.823649
 30
0.0
 10
29.279678
 20
282.948544
 30
0.0
 10
29.526645
 20
283.025074
 30
0.0
  0
SPLINE
  5
1d6
100
AcDbEntity
  8
Layer_1
 62
7
100
AcDbSpline
 70
8
 71
3
 72
8
 73
4
 74
0
 40
0
 40
0
 40
0
 40
0
 40
1
 40
1
 40
1
 40
1
 10
29.526645
 20
283.025074
 30
0.0
 10
29.635334
 20
283.058757
 30
0.0
 10
29.756120
 20
283.064915
 30
0.0
 10
30.308065
 20
283.064915
 30
0.0
  0
SPLINE
  5
1d7
100
AcDbEntity
  8
Layer_1
 62
7
100
AcDbSpline
 70
8
 71
3
 72
8
 73
4
 74
0
 40
0
 40
0
 40
0
 40
0
 40
1
 40
1
 40
1
 40
1
 10
30.308065
 20
283.064915
 30
0.0
 10
30.667136
 20
283.064915
 30
0.0
 10
30.968253
 20
283.057577
 30
0.0
 10
30.977216
 20
283.048603
 30
0.0
  0
SPLINE
  5
1d8
100
AcDbEntity
  8
Layer_1
 62
7
100
AcDbSpline
 70
8
 71
3
 72
8
 73
4
 74
0
 40
0
 40
0
 40
0
 40
0
 40
1
 40
1
 40
1
 40
1
 10
30.977216
 20
283.048603
 30
0.0
 10
31.018328
 20
283.007474
 30
0.0
 10
30.938044
 20
282.894735
 30
0.0
 10
30.567924
 20
282.473866
 30
0.0
  0
SPLINE
  5
1d9
100
AcDbEntity
  8
Layer_1
 62
7
100
AcDbSpline
 70
8
 71
3
 72
8
 73
4
 74
0
 40
0
 40
0
 40
0
 40
0
 40
1
 40
1
 40
1
 40
1
 10
30.567924
 20
282.473866
 30
0.0
 10
30.122515
 20
281.967375
 30
0.0
 10
29.696246
 20
281.462293
 30
0.0
 10
29.664762
 20
281.403706
 30
0.0
  0
SPLINE
  5
1da
100
AcDbEntity
  8
Layer_1
 62
7
100
AcDbSpline
 70
8
 71
3
 72
8
 73
4
 74
0
 40
0
 40
0
 40
0
 40
0
 40
1
 40
1
 40
1
 40
1
 10
29.664762
 20
281.403706
 30
0.0
 10
29.646586
 20
281.369890
 30
0.0
 10
29.663915
 20
281.362917
 30
0.0
 10
29.800234
 20
281.348794
 30
0.0
  0
SPLINE
  5
1db
100
AcDbEntity
  8
Layer_1
 62
7
100
AcDbSpline
 70
8
 71
3
 72
8
 73
4
 74
0
 40
0
 40
0
 40
0
 40
0
 40
1
 40
1
 40
1
 40
1
 10
29.800234
 20
281.348794
 30
0.0
 10
29.886193
 20
281.339904
 30
0.0
 10
29.991849
 20
281.318151
 30
0.0
 10
30.035026
 20
281.300467
 30
0.0
  0
SPLINE
  5
1dc
100
AcDbEntity
  8
Layer_1
 62
7
100
AcDbSpline
 70
8
 71
3
 72
8
 73
4
 74
0
 40
0
 40
0
 40
0
 40
0
 40
1
 40
1
 40
1
 40
1
 10
30.035026
 20
281.300467
 30
0.0
 10
30.113331
 20
281.268398
 30
0.0
 10
30.113492
 20
281.268008
 30
0.0
 10
30.098927
 20
281.146777
 30
0.0
  0
SPLINE
  5
1dd
100
AcDbEntity
  8
Layer_1
 62
7
100
AcDbSpline
 70
8
 71
3
 72
8
 73
4
 74
0
 40
0
 40
0
 40
0
 40
0
 40
1
 40
1
 40
1
 40
1
 10
30.098927
 20
281.146777
 30
0.0
 10
30.090883
 20
281.079930
 30
0.0
 10
29.976448
 20
280.608029
 30
0.0
 10
29.844596
 20
280.098112
 30
0.0
  0
LWPOLYLINE
  5
1de
100
AcDbEntity
  8
Layer_1
 62
7
100
AcDbPolyline
 90
3
 70
1
 10
27.772893
 20
280.918685
 30
0.0
 10
27.489855
 20
280.920943
 30
0.0
 10
27.464145
 20
280.825501
 30
0.0
  0
SPLINE
  5
1df
100
AcDbEntity
  8
Layer_1
 62
7
100
AcDbSpline
 70
8
 71
3
 72
8
 73
4
 74
0
 40
0
 40
0
 40
0
 40
0
 40
1
 40
1
 40
1
 40
1
 10
29.201243
 20
279.169014
 30
0.0
 10
28.979249
 20
279.167885
 30
0.0
 10
28.630736
 20
279.174038
 30
0.0
 10
28.426771
 20
279.182617
 30
0.0
  0
LWPOLYLINE
  5
1e0
100
AcDbEntity
  8
Layer_1
 62
7
100
AcDbPolyline
 90
3
 70
1
 10
29.844596
 20
280.098112
 30
0.0
 10
29.604866
 20
279.170990
 30
0.0
 10
29.201243
 20
279.169014
 30
0.0
  0
SPLINE
  5
1e1
100
AcDbEntity
  8
Layer_1
 62
7
100
AcDbSpline
 70
8
 71
3
 72
8
 73
4
 74
0
 40
0
 40
0
 40
0
 40
0
 40
1
 40
1
 40
1
 40
1
 10
30.918424
 20
279.176857
 30
0.0
 10
30.661988
 20
279.184421
 30
0.0
 10
30.611451
 20
279.196556
 30
0.0
 10
30.625607
 20
279.247145
 30
0.0
  0
SPLINE
  5
1e2
100
AcDbEntity
  8
Layer_1
 62
7
100
AcDbSpline
 70
8
 71
3
 72
8
 73
4
 74
0
 40
0
 40
0
 40
0
 40
0
 40
1
 40
1
 40
1
 40
1
 10
30.625607
 20
279.247145
 30
0.0
 10
30.631731
 20
279.269017
 30
0.0
 10
30.721811
 20
279.610269
 30
0.0
 10
30.825793
 20
280.005453
 30
0.0
  0
SPLINE
  5
1e3
100
AcDbEntity
  8
Layer_1
 62
7
100
AcDbSpline
 70
8
 71
3
 72
8
 73
4
 74
0
 40
0
 40
0
 40
0
 40
0
 40
1
 40
1
 40
1
 40
1
 10
30.825793
 20
280.005453
 30
0.0
 10
31.022908
 20
280.754609
 30
0.0
 10
31.544658
 20
282.697939
 30
0.0
 10
31.605028
 20
282.907819
 30
0.0
  0
SPLINE
  5
1e4
100
AcDbEntity
  8
Layer_1
 62
7
100
AcDbSpline
 70
8
 71
3
 72
8
 73
4
 74
0
 40
0
 40
0
 40
0
 40
0
 40
1
 40
1
 40
1
 40
1
 10
31.605028
 20
282.907819
 30
0.0
 10
31.636454
 20
283.017076
 30
0.0
 10
31.648121
 20
283.031116
 30
0.0
 10
31.725306
 20
283.052551
 30
0.0
  0
SPLINE
  5
1e5
100
AcDbEntity
  8
Layer_1
 62
7
100
AcDbSpline
 70
8
 71
3
 72
8
 73
4
 74
0
 40
0
 40
0
 40
0
 40
0
 40
1
 40
1
 40
1
 40
1
 10
31.725306
 20
283.052551
 30
0.0
 10
31.824445
 20
283.080096
 30
0.0
 10
32.192437
 20
283.082839
 30
0.0
 10
32.886266
 20
283.061215
 30
0.0
  0
LWPOLYLINE
  5
1e6
100
AcDbEntity
  8
Layer_1
 62
7
100
AcDbPolyline
 90
2
 70
1
 10
28.426771
 20
279.182617
 30
0.0
 10
28.426780
 20
279.182643
 30
0.0
  0
SPLINE
  5
1e7
100
AcDbEntity
  8
Layer_1
 62
7
100
AcDbSpline
 70
8
 71
3
 72
8
 73
4
 74
0
 40
0
 40
0
 40
0
 40
0
 40
1
 40
1
 40
1
 40
1
 10
33.362355
 20
282.893169
 30
0.0
 10
33.353635
 20
282.809174
 30
0.0
 10
33.259370
 20
282.391039
 30
0.0
 10
33.152848
 20
281.963982
 30
0.0
  0
SPLINE
  5
1e8
100
AcDbEntity
  8
Layer_1
 62
7
100
AcDbSpline
 70
8
 71
3
 72
8
 73
4
 74
0
 40
0
 40
0
 40
0
 40
0
 40
1
 40
1
 40
1
 40
1
 10
33.152848
 20
281.963982
 30
0.0
 10
32.945093
 20
281.131049
 30
0.0
 10
32.438478
 20
279.210803
 30
0.0
 10
32.422863
 20
279.197073
 30
0.0
  0
SPLINE
  5
1e9
100
AcDbEntity
  8
Layer_1
 62
7
100
AcDbSpline
 70
8
 71
3
 72
8
 73
4
 74
0
 40
0
 40
0
 40
0
 40
0
 40
1
 40
1
 40
1
 40
1
 10
32.422863
 20
279.197073
 30
0.0
 10
32.410360
 20
279.186066
 30
0.0
 10
31.170510
 20
279.169387
 30
0.0
 10
30.918424
 20
279.176837
 30
0.0
  0
LWPOLYLINE
  5
1ea
100
AcDbEntity
  8
Layer_1
 62
7
100
AcDbPolyline
 90
3
 70
1
 10
32.886266
 20
283.061215
 30
0.0
 10
33.378188
 20
283.045891
 30
0.0
 10
33.362355
 20
282.893169
 30
0.0
  0
SPLINE
  5
1eb
100
AcDbEntity
  8
Layer_1
 62
7
100
AcDbSpline
 70
8
 71
3
 72
8
 73
4
 74
0
 40
0
 40
0
 40
0
 40
0
 40
1
 40
1
 40
1
 40
1
 10
33.352119
 20
279.188146
 30
0.0
 10
33.275397
 20
279.215832
 30
0.0
 10
33.270622
 20
279.223822
 30
0.0
 10
33.264111
 20
279.335641
 30
0.0
  0
SPLINE
  5
1ec
100
AcDbEntity
  8
Layer_1
 62
7
100
AcDbSpline
 70
8
 71
3
 72
8
 73
4
 74
0
 40
0
 40
0
 40
0
 40
0
 40
1
 40
1
 40
1
 40
1
 10
33.264111
 20
279.335641
 30
0.0
 10
33.255306
 20
279.486670
 30
0.0
 10
33.311112
 20
279.732101
 30
0.0
 10
33.653524
 20
281.048479
 30
0.0
  0
SPLINE
  5
1ed
100
AcDbEntity
  8
Layer_1
 62
7
100
AcDbSpline
 70
8
 71
3
 72
8
 73
4
 74
0
 40
0
 40
0
 40
0
 40
0
 40
1
 40
1
 40
1
 40
1
 10
33.653524
 20
281.048479
 30
0.0
 10
33.938817
 20
282.145266
 30
0.0
 10
34.024285
 20
282.514331
 30
0.0
 10
34.024285
 20
282.649512
 30
0.0
  0
SPLINE
  5
1ee
100
AcDbEntity
  8
Layer_1
 62
7
100
AcDbSpline
 70
8
 71
3
 72
8
 73
4
 74
0
 40
0
 40
0
 40
0
 40
0
 40
1
 40
1
 40
1
 40
1
 10
34.024285
 20
282.649512
 30
0.0
 10
34.024285
 20
282.702866
 30
0.0
 10
34.002469
 20
282.752137
 30
0.0
 10
33.954751
 20
282.806473
 30
0.0
  0
SPLINE
  5
1ef
100
AcDbEntity
  8
Layer_1
 62
7
100
AcDbSpline
 70
8
 71
3
 72
8
 73
4
 74
0
 40
0
 40
0
 40
0
 40
0
 40
1
 40
1
 40
1
 40
1
 10
33.954751
 20
282.806473
 30
0.0
 10
33.872825
 20
282.899778
 30
0.0
 10
33.866983
 20
282.960166
 30
0.0
 10
33.934008
 20
283.020818
 30
0.0
  0
SPLINE
  5
1f0
100
AcDbEntity
  8
Layer_1
 62
7
100
AcDbSpline
 70
8
 71
3
 72
8
 73
4
 74
0
 40
0
 40
0
 40
0
 40
0
 40
1
 40
1
 40
1
 40
1
 10
33.934008
 20
283.020818
 30
0.0
 10
33.980303
 20
283.062708
 30
0.0
 10
34.030937
 20
283.064972
 30
0.0
 10
34.921277
 20
283.064972
 30
0.0
  0
LWPOLYLINE
  5
1f1
100
AcDbEntity
  8
Layer_1
 62
7
100
AcDbPolyline
 90
2
 70
1
 10
30.918424
 20
279.176837
 30
0.0
 10
30.918424
 20
279.176857
 30
0.0
  0
SPLINE
  5
1f2
100
AcDbEntity
  8
Layer_1
 62
7
100
AcDbSpline
 70
8
 71
3
 72
8
 73
4
 74
0
 40
0
 40
0
 40
0
 40
0
 40
1
 40
1
 40
1
 40
1
 10
35.916407
 20
282.995438
 30
0.0
 10
36.009682
 20
282.880963
 30
0.0
 10
36.303057
 20
282.264880
 30
0.0
 10
36.528575
 20
281.709906
 30
0.0
  0
SPLINE
  5
1f3
100
AcDbEntity
  8
Layer_1
 62
7
100
AcDbSpline
 70
8
 71
3
 72
8
 73
4
 74
0
 40
0
 40
0
 40
0
 40
0
 40
1
 40
1
 40
1
 40
1
 10
36.528575
 20
281.709906
 30
0.0
 10
36.764172
 20
281.130120
 30
0.0
 10
36.964953
 20
280.689218
 30
0.0
 10
36.993381
 20
280.689218
 30
0.0
  0
SPLINE
  5
1f4
100
AcDbEntity
  8
Layer_1
 62
7
100
AcDbSpline
 70
8
 71
3
 72
8
 73
4
 74
0
 40
0
 40
0
 40
0
 40
0
 40
1
 40
1
 40
1
 40
1
 10
36.993381
 20
280.689218
 30
0.0
 10
37.023032
 20
280.689218
 30
0.0
 10
37.143117
 20
281.087733
 30
0.0
 10
37.328630
 20
281.801767
 30
0.0
  0
SPLINE
  5
1f5
100
AcDbEntity
  8
Layer_1
 62
7
100
AcDbSpline
 70
8
 71
3
 72
8
 73
4
 74
0
 40
0
 40
0
 40
0
 40
0
 40
1
 40
1
 40
1
 40
1
 10
37.328630
 20
281.801767
 30
0.0
 10
37.423022
 20
282.165083
 30
0.0
 10
37.540782
 20
282.608364
 30
0.0
 10
37.590321
 20
282.786836
 30
0.0
  0
LWPOLYLINE
  5
1f6
100
AcDbEntity
  8
Layer_1
 62
7
100
AcDbPolyline
 90
3
 70
1
 10
34.921277
 20
283.064972
 30
0.0
 10
35.859751
 20
283.064972
 30
0.0
 10
35.916407
 20
282.995438
 30
0.0
  0
SPLINE
  5
1f7
100
AcDbEntity
  8
Layer_1
 62
7
100
AcDbSpline
 70
8
 71
3
 72
8
 73
4
 74
0
 40
0
 40
0
 40
0
 40
0
 40
1
 40
1
 40
1
 40
1
 10
37.897796
 20
283.109354
 30
0.0
 10
38.143900
 20
283.107096
 30
0.0
 10
38.427482
 20
283.064356
 30
0.0
 10
38.487404
 20
283.020541
 30
0.0
  0
SPLINE
  5
1f8
100
AcDbEntity
  8
Layer_1
 62
7
100
AcDbSpline
 70
8
 71
3
 72
8
 73
4
 74
0
 40
0
 40
0
 40
0
 40
0
 40
1
 40
1
 40
1
 40
1
 10
38.487404
 20
283.020541
 30
0.0
 10
38.525171
 20
282.992940
 30
0.0
 10
38.523082
 20
282.970373
 30
0.0
 10
38.452727
 20
282.645649
 30
0.0
  0
SPLINE
  5
1f9
100
AcDbEntity
  8
Layer_1
 62
7
100
AcDbSpline
 70
8
 71
3
 72
8
 73
4
 74
0
 40
0
 40
0
 40
0
 40
0
 40
1
 40
1
 40
1
 40
1
 10
38.452727
 20
282.645649
 30
0.0
 10
38.293808
 20
281.912132
 30
0.0
 10
37.791912
 20
279.985328
 30
0.0
 10
37.611073
 20
279.414469
 30
0.0
  0
LWPOLYLINE
  5
1fa
100
AcDbEntity
  8
Layer_1
 62
7
100
AcDbPolyline
 90
3
 70
1
 10
37.590321
 20
282.786836
 30
0.0
 10
37.680386
 20
283.111329
 30
0.0
 10
37.897796
 20
283.109354
 30
0.0
  0
SPLINE
  5
1fb
100
AcDbEntity
  8
Layer_1
 62
7
100
AcDbSpline
 70
8
 71
3
 72
8
 73
4
 74
0
 40
0
 40
0
 40
0
 40
0
 40
1
 40
1
 40
1
 40
1
 10
36.827937
 20
279.171252
 30
0.0
 10
36.029101
 20
279.171410
 30
0.0
 10
35.923499
 20
279.185617
 30
0.0
 10
35.799576
 20
279.309544
 30
0.0
  0
SPLINE
  5
1fc
100
AcDbEntity
  8
Layer_1
 62
7
100
AcDbSpline
 70
8
 71
3
 72
8
 73
4
 74
0
 40
0
 40
0
 40
0
 40
0
 40
1
 40
1
 40
1
 40
1
 10
35.799576
 20
279.309544
 30
0.0
 10
35.713599
 20
279.395520
 30
0.0
 10
35.597109
 20
279.646396
 30
0.0
 10
35.164302
 20
280.677681
 30
0.0
  0
SPLINE
  5
1fd
100
AcDbEntity
  8
Layer_1
 62
7
100
AcDbSpline
 70
8
 71
3
 72
8
 73
4
 74
0
 40
0
 40
0
 40
0
 40
0
 40
1
 40
1
 40
1
 40
1
 10
35.164302
 20
280.677681
 30
0.0
 10
34.998451
 20
281.072866
 30
0.0
 10
34.842650
 20
281.442989
 30
0.0
 10
34.818074
 20
281.500173
 30
0.0
  0
LWPOLYLINE
  5
1fe
100
AcDbEntity
  8
Layer_1
 62
7
100
AcDbPolyline
 90
3
 70
1
 10
37.611073
 20
279.414469
 30
0.0
 10
37.533975
 20
279.171097
 30
0.0
 10
36.827937
 20
279.171252
 30
0.0
  0
SPLINE
  5
1ff
100
AcDbEntity
  8
Layer_1
 62
7
100
AcDbSpline
 70
8
 71
3
 72
8
 73
4
 74
0
 40
0
 40
0
 40
0
 40
0
 40
1
 40
1
 40
1
 40
1
 10
34.721001
 20
281.465406
 30
0.0
 10
34.692186
 20
281.389107
 30
0.0
 10
34.601184
 20
281.076351
 30
0.0
 10
34.518775
 20
280.770402
 30
0.0
  0
SPLINE
  5
200
100
AcDbEntity
  8
Layer_1
 62
7
100
AcDbSpline
 70
8
 71
3
 72
8
 73
4
 74
0
 40
0
 40
0
 40
0
 40
0
 40
1
 40
1
 40
1
 40
1
 10
34.518775
 20
280.770402
 30
0.0
 10
34.121259
 20
279.294586
 30
0.0
 10
34.121522
 20
279.295320
 30
0.0
 10
33.965216
 20
279.226178
 30
0.0
  0
SPLINE
  5
201
100
AcDbEntity
  8
Layer_1
 62
7
100
AcDbSpline
 70
8
 71
3
 72
8
 73
4
 74
0
 40
0
 40
0
 40
0
 40
0
 40
1
 40
1
 40
1
 40
1
 10
33.965216
 20
279.226178
 30
0.0
 10
33.830712
 20
279.166680
 30
0.0
 10
33.473167
 20
279.144534
 30
0.0
 10
33.352113
 20
279.188205
 30
0.0
  0
LWPOLYLINE
  5
202
100
AcDbEntity
  8
Layer_1
 62
7
100
AcDbPolyline
 90
3
 70
1
 10
34.818074
 20
281.500173
 30
0.0
 10
34.773396
 20
281.604143
 30
0.0
 10
34.721001
 20
281.465406
 30
0.0
  0
SPLINE
  5
203
100
AcDbEntity
  8
Layer_1
 62
7
100
AcDbSpline
 70
8
 71
3
 72
8
 73
4
 74
0
 40
0
 40
0
 40
0
 40
0
 40
1
 40
1
 40
1
 40
1
 10
39.068598
 20
279.208043
 30
0.0
 10
38.699186
 20
279.247018
 30
0.0
 10
38.527979
 20
279.335607
 30
0.0
 10
38.429695
 20
279.538646
 30
0.0
  0
SPLINE
  5
204
100
AcDbEntity
  8
Layer_1
 62
7
100
AcDbSpline
 70
8
 71
3
 72
8
 73
4
 74
0
 40
0
 40
0
 40
0
 40
0
 40
1
 40
1
 40
1
 40
1
 10
38.429695
 20
279.538646
 30
0.0
 10
38.401442
 20
279.597001
 30
0.0
 10
38.381762
 20
279.683799
 30
0.0
 10
38.381762
 20
279.750031
 30
0.0
  0
SPLINE
  5
205
100
AcDbEntity
  8
Layer_1
 62
7
100
AcDbSpline
 70
8
 71
3
 72
8
 73
4
 74
0
 40
0
 40
0
 40
0
 40
0
 40
1
 40
1
 40
1
 40
1
 10
38.381762
 20
279.750031
 30
0.0
 10
38.381762
 20
280.016135
 30
0.0
 10
38.864802
 20
281.910490
 30
0.0
 10
39.059477
 20
282.407823
 30
0.0
  0
SPLINE
  5
206
100
AcDbEntity
  8
Layer_1
 62
7
100
AcDbSpline
 70
8
 71
3
 72
8
 73
4
 74
0
 40
0
 40
0
 40
0
 40
0
 40
1
 40
1
 40
1
 40
1
 10
39.059477
 20
282.407823
 30
0.0
 10
39.271445
 20
282.949345
 30
0.0
 10
39.684768
 20
283.077697
 30
0.0
 10
41.209488
 20
283.075470
 30
0.0
  0
SPLINE
  5
207
100
AcDbEntity
  8
Layer_1
 62
7
100
AcDbSpline
 70
8
 71
3
 72
8
 73
4
 74
0
 40
0
 40
0
 40
0
 40
0
 40
1
 40
1
 40
1
 40
1
 10
41.209488
 20
283.075470
 30
0.0
 10
41.984309
 20
283.074341
 30
0.0
 10
42.805847
 20
283.041939
 30
0.0
 10
42.968618
 20
283.006094
 30
0.0
  0
SPLINE
  5
208
100
AcDbEntity
  8
Layer_1
 62
7
100
AcDbSpline
 70
8
 71
3
 72
8
 73
4
 74
0
 40
0
 40
0
 40
0
 40
0
 40
1
 40
1
 40
1
 40
1
 10
42.968618
 20
283.006094
 30
0.0
 10
43.129708
 20
282.970616
 30
0.0
 10
43.283570
 20
282.835773
 30
0.0
 10
43.321230
 20
282.697081
 30
0.0
  0
SPLINE
  5
209
100
AcDbEntity
  8
Layer_1
 62
7
100
AcDbSpline
 70
8
 71
3
 72
8
 73
4
 74
0
 40
0
 40
0
 40
0
 40
0
 40
1
 40
1
 40
1
 40
1
 10
43.321230
 20
282.697081
 30
0.0
 10
43.337288
 20
282.637950
 30
0.0
 10
43.342791
 20
282.490740
 30
0.0
 10
43.335595
 20
282.311678
 30
0.0
  0
SPLINE
  5
20a
100
AcDbEntity
  8
Layer_1
 62
7
100
AcDbSpline
 70
8
 71
3
 72
8
 73
4
 74
0
 40
0
 40
0
 40
0
 40
0
 40
1
 40
1
 40
1
 40
1
 10
43.335595
 20
282.311678
 30
0.0
 10
43.326281
 20
282.078985
 30
0.0
 10
43.307429
 20
281.958372
 30
0.0
 10
43.239789
 20
281.698962
 30
0.0
  0
SPLINE
  5
20b
100
AcDbEntity
  8
Layer_1
 62
7
100
AcDbSpline
 70
8
 71
3
 72
8
 73
4
 74
0
 40
0
 40
0
 40
0
 40
0
 40
1
 40
1
 40
1
 40
1
 10
43.239789
 20
281.698962
 30
0.0
 10
43.193473
 20
281.521317
 30
0.0
 10
43.151586
 20
281.371976
 30
0.0
 10
43.146701
 20
281.367091
 30
0.0
  0
SPLINE
  5
20c
100
AcDbEntity
  8
Layer_1
 62
7
100
AcDbSpline
 70
8
 71
3
 72
8
 73
4
 74
0
 40
0
 40
0
 40
0
 40
0
 40
1
 40
1
 40
1
 40
1
 10
43.146701
 20
281.367091
 30
0.0
 10
43.112758
 20
281.333151
 30
0.0
 10
42.701797
 20
281.307739
 30
0.0
 10
42.154783
 20
281.305758
 30
0.0
  0
SPLINE
  5
20d
100
AcDbEntity
  8
Layer_1
 62
7
100
AcDbSpline
 70
8
 71
3
 72
8
 73
4
 74
0
 40
0
 40
0
 40
0
 40
0
 40
1
 40
1
 40
1
 40
1
 10
42.154783
 20
281.305758
 30
0.0
 10
41.520683
 20
281.303500
 30
0.0
 10
41.511722
 20
281.304065
 30
0.0
 10
41.460801
 20
281.354868
 30
0.0
  0
SPLINE
  5
20e
100
AcDbEntity
  8
Layer_1
 62
7
100
AcDbSpline
 70
8
 71
3
 72
8
 73
4
 74
0
 40
0
 40
0
 40
0
 40
0
 40
1
 40
1
 40
1
 40
1
 10
41.460801
 20
281.354868
 30
0.0
 10
41.386038
 20
281.429408
 30
0.0
 10
41.396404
 20
281.566882
 30
0.0
 10
41.505858
 20
281.952417
 30
0.0
  0
SPLINE
  5
20f
100
AcDbEntity
  8
Layer_1
 62
7
100
AcDbSpline
 70
8
 71
3
 72
8
 73
4
 74
0
 40
0
 40
0
 40
0
 40
0
 40
1
 40
1
 40
1
 40
1
 10
41.505858
 20
281.952417
 30
0.0
 10
41.681121
 20
282.569768
 30
0.0
 10
41.674308
 20
282.597298
 30
0.0
 10
41.343284
 20
282.609284
 30
0.0
  0
SPLINE
  5
210
100
AcDbEntity
  8
Layer_1
 62
7
100
AcDbSpline
 70
8
 71
3
 72
8
 73
4
 74
0
 40
0
 40
0
 40
0
 40
0
 40
1
 40
1
 40
1
 40
1
 10
41.343284
 20
282.609284
 30
0.0
 10
41.223571
 20
282.613630
 30
0.0
 10
41.081300
 20
282.605220
 30
0.0
 10
41.027121
 20
282.590629
 30
0.0
  0
SPLINE
  5
211
100
AcDbEntity
  8
Layer_1
 62
7
100
AcDbSpline
 70
8
 71
3
 72
8
 73
4
 74
0
 40
0
 40
0
 40
0
 40
0
 40
1
 40
1
 40
1
 40
1
 10
41.027121
 20
282.590629
 30
0.0
 10
40.940869
 20
282.567402
 30
0.0
 10
40.922781
 20
282.550562
 30
0.0
 10
40.881723
 20
282.455270
 30
0.0
  0
SPLINE
  5
212
100
AcDbEntity
  8
Layer_1
 62
7
100
AcDbSpline
 70
8
 71
3
 72
8
 73
4
 74
0
 40
0
 40
0
 40
0
 40
0
 40
1
 40
1
 40
1
 40
1
 10
40.881723
 20
282.455270
 30
0.0
 10
40.761296
 20
282.175760
 30
0.0
 10
40.199725
 20
280.080733
 30
0.0
 10
40.152108
 20
279.733320
 30
0.0
  0
SPLINE
  5
213
100
AcDbEntity
  8
Layer_1
 62
7
100
AcDbSpline
 70
8
 71
3
 72
8
 73
4
 74
0
 40
0
 40
0
 40
0
 40
0
 40
1
 40
1
 40
1
 40
1
 10
40.152108
 20
279.733320
 30
0.0
 10
40.137969
 20
279.630211
 30
0.0
 10
40.140594
 20
279.622887
 30
0.0
 10
40.199674
 20
279.600425
 30
0.0
  0
SPLINE
  5
214
100
AcDbEntity
  8
Layer_1
 62
7
100
AcDbSpline
 70
8
 71
3
 72
8
 73
4
 74
0
 40
0
 40
0
 40
0
 40
0
 40
1
 40
1
 40
1
 40
1
 10
40.199674
 20
279.600425
 30
0.0
 10
40.284293
 20
279.568254
 30
0.0
 10
40.668547
 20
279.572654
 30
0.0
 10
40.769097
 20
279.606944
 30
0.0
  0
SPLINE
  5
215
100
AcDbEntity
  8
Layer_1
 62
7
100
AcDbSpline
 70
8
 71
3
 72
8
 73
4
 74
0
 40
0
 40
0
 40
0
 40
0
 40
1
 40
1
 40
1
 40
1
 10
40.769097
 20
279.606944
 30
0.0
 10
40.880208
 20
279.644835
 30
0.0
 10
40.936613
 20
279.769075
 30
0.0
 10
41.013177
 20
280.144527
 30
0.0
  0
SPLINE
  5
216
100
AcDbEntity
  8
Layer_1
 62
7
100
AcDbSpline
 70
8
 71
3
 72
8
 73
4
 74
0
 40
0
 40
0
 40
0
 40
0
 40
1
 40
1
 40
1
 40
1
 10
41.013177
 20
280.144527
 30
0.0
 10
41.085612
 20
280.499749
 30
0.0
 10
41.080255
 20
280.599602
 30
0.0
 10
40.980679
 20
280.749924
 30
0.0
  0
SPLINE
  5
217
100
AcDbEntity
  8
Layer_1
 62
7
100
AcDbSpline
 70
8
 71
3
 72
8
 73
4
 74
0
 40
0
 40
0
 40
0
 40
0
 40
1
 40
1
 40
1
 40
1
 10
40.980679
 20
280.749924
 30
0.0
 10
40.837460
 20
280.966146
 30
0.0
 10
40.855098
 20
280.972363
 30
0.0
 10
41.650166
 20
280.985851
 30
0.0
  0
SPLINE
  5
218
100
AcDbEntity
  8
Layer_1
 62
7
100
AcDbSpline
 70
8
 71
3
 72
8
 73
4
 74
0
 40
0
 40
0
 40
0
 40
0
 40
1
 40
1
 40
1
 40
1
 10
41.650166
 20
280.985851
 30
0.0
 10
42.283956
 20
280.996604
 30
0.0
 10
42.862054
 20
280.966886
 30
0.0
 10
42.951589
 20
280.918981
 30
0.0
  0
SPLINE
  5
219
100
AcDbEntity
  8
Layer_1
 62
7
100
AcDbSpline
 70
8
 71
3
 72
8
 73
4
 74
0
 40
0
 40
0
 40
0
 40
0
 40
1
 40
1
 40
1
 40
1
 10
42.951589
 20
280.918981
 30
0.0
 10
42.978513
 20
280.904560
 30
0.0
 10
42.994191
 20
280.870402
 30
0.0
 10
42.994191
 20
280.826107
 30
0.0
  0
SPLINE
  5
21a
100
AcDbEntity
  8
Layer_1
 62
7
100
AcDbSpline
 70
8
 71
3
 72
8
 73
4
 74
0
 40
0
 40
0
 40
0
 40
0
 40
1
 40
1
 40
1
 40
1
 10
42.994191
 20
280.826107
 30
0.0
 10
42.994191
 20
280.663116
 30
0.0
 10
42.680309
 20
279.564179
 30
0.0
 10
42.582239
 20
279.383814
 30
0.0
  0
SPLINE
  5
21b
100
AcDbEntity
  8
Layer_1
 62
7
100
AcDbSpline
 70
8
 71
3
 72
8
 73
4
 74
0
 40
0
 40
0
 40
0
 40
0
 40
1
 40
1
 40
1
 40
1
 10
42.582239
 20
279.383814
 30
0.0
 10
42.548824
 20
279.322365
 30
0.0
 10
42.500076
 20
279.260477
 30
0.0
 10
42.473908
 20
279.246287
 30
0.0
  0
SPLINE
  5
21c
100
AcDbEntity
  8
Layer_1
 62
7
100
AcDbSpline
 70
8
 71
3
 72
8
 73
4
 74
0
 40
0
 40
0
 40
0
 40
0
 40
1
 40
1
 40
1
 40
1
 10
42.473908
 20
279.246287
 30
0.0
 10
42.447492
 20
279.231950
 30
0.0
 10
42.230531
 20
279.212858
 30
0.0
 10
41.985943
 20
279.203327
 30
0.0
  0
SPLINE
  5
21d
100
AcDbEntity
  8
Layer_1
 62
7
100
AcDbSpline
 70
8
 71
3
 72
8
 73
4
 74
0
 40
0
 40
0
 40
0
 40
0
 40
1
 40
1
 40
1
 40
1
 10
41.985943
 20
279.203327
 30
0.0
 10
41.398071
 20
279.180410
 30
0.0
 10
39.298217
 20
279.183825
 30
0.0
 10
39.068589
 20
279.208040
 30
0.0
  0
LWPOLYLINE
  5
21e
100
AcDbEntity
  8
Layer_1
 62
7
100
AcDbPolyline
 90
2
 70
1
 10
33.352113
 20
279.188205
 30
0.0
 10
33.352119
 20
279.188146
 30
0.0
  0
SPLINE
  5
21f
100
AcDbEntity
  8
Layer_1
 62
7
100
AcDbSpline
 70
8
 71
3
 72
8
 73
4
 74
0
 40
0
 40
0
 40
0
 40
0
 40
1
 40
1
 40
1
 40
1
 10
29.516149
 20
284.157239
 30
0.0
 10
29.325279
 20
284.176092
 30
0.0
 10
28.990956
 20
284.237706
 30
0.0
 10
28.774977
 20
284.293824
 30
0.0
  0
SPLINE
  5
220
100
AcDbEntity
  8
Layer_1
 62
7
100
AcDbSpline
 70
8
 71
3
 72
8
 73
4
 74
0
 40
0
 40
0
 40
0
 40
0
 40
1
 40
1
 40
1
 40
1
 10
28.774977
 20
284.293824
 30
0.0
 10
28.294609
 20
284.418634
 30
0.0
 10
28.170186
 20
284.541897
 30
0.0
 10
28.000045
 20
285.061513
 30
0.0
  0
SPLINE
  5
221
100
AcDbEntity
  8
Layer_1
 62
7
100
AcDbSpline
 70
8
 71
3
 72
8
 73
4
 74
0
 40
0
 40
0
 40
0
 40
0
 40
1
 40
1
 40
1
 40
1
 10
28.000045
 20
285.061513
 30
0.0
 10
27.853089
 20
285.510328
 30
0.0
 10
27.775131
 20
285.973170
 30
0.0
 10
27.707804
 20
286.796607
 30
0.0
  0
SPLINE
  5
222
100
AcDbEntity
  8
Layer_1
 62
7
100
AcDbSpline
 70
8
 71
3
 72
8
 73
4
 74
0
 40
0
 40
0
 40
0
 40
0
 40
1
 40
1
 40
1
 40
1
 10
27.707804
 20
286.796607
 30
0.0
 10
27.655765
 20
287.433043
 30
0.0
 10
27.634759
 20
287.541405
 30
0.0
 10
27.544061
 20
287.641332
 30
0.0
  0
SPLINE
  5
223
100
AcDbEntity
  8
Layer_1
 62
7
100
AcDbSpline
 70
8
 71
3
 72
8
 73
4
 74
0
 40
0
 40
0
 40
0
 40
0
 40
1
 40
1
 40
1
 40
1
 10
27.544061
 20
287.641332
 30
0.0
 10
27.502928
 20
287.686651
 30
0.0
 10
27.408313
 20
287.759050
 30
0.0
 10
27.333806
 20
287.802218
 30
0.0
  0
SPLINE
  5
224
100
AcDbEntity
  8
Layer_1
 62
7
100
AcDbSpline
 70
8
 71
3
 72
8
 73
4
 74
0
 40
0
 40
0
 40
0
 40
0
 40
1
 40
1
 40
1
 40
1
 10
27.333806
 20
287.802218
 30
0.0
 10
26.876823
 20
288.066988
 30
0.0
 10
26.491093
 20
288.393773
 30
0.0
 10
26.278631
 20
288.696149
 30
0.0
  0
SPLINE
  5
225
100
AcDbEntity
  8
Layer_1
 62
7
100
AcDbSpline
 70
8
 71
3
 72
8
 73
4
 74
0
 40
0
 40
0
 40
0
 40
0
 40
1
 40
1
 40
1
 40
1
 10
26.278631
 20
288.696149
 30
0.0
 10
26.091941
 20
288.961844
 30
0.0
 10
26.062516
 20
289.093329
 30
0.0
 10
26.063134
 20
289.659102
 30
0.0
  0
SPLINE
  5
226
100
AcDbEntity
  8
Layer_1
 62
7
100
AcDbSpline
 70
8
 71
3
 72
8
 73
4
 74
0
 40
0
 40
0
 40
0
 40
0
 40
1
 40
1
 40
1
 40
1
 10
26.063134
 20
289.659102
 30
0.0
 10
26.063699
 20
290.175617
 30
0.0
 10
26.078290
 20
290.265965
 30
0.0
 10
26.211563
 20
290.578376
 30
0.0
  0
SPLINE
  5
227
100
AcDbEntity
  8
Layer_1
 62
7
100
AcDbSpline
 70
8
 71
3
 72
8
 73
4
 74
0
 40
0
 40
0
 40
0
 40
0
 40
1
 40
1
 40
1
 40
1
 10
26.211563
 20
290.578376
 30
0.0
 10
26.259296
 20
290.690272
 30
0.0
 10
26.291412
 20
290.736881
 30
0.0
 10
26.320780
 20
290.736881
 30
0.0
  0
SPLINE
  5
228
100
AcDbEntity
  8
Layer_1
 62
7
100
AcDbSpline
 70
8
 71
3
 72
8
 73
4
 74
0
 40
0
 40
0
 40
0
 40
0
 40
1
 40
1
 40
1
 40
1
 10
26.320780
 20
290.736881
 30
0.0
 10
26.365295
 20
290.736881
 30
0.0
 10
26.381007
 20
290.690997
 30
0.0
 10
26.455708
 20
290.342853
 30
0.0
  0
SPLINE
  5
229
100
AcDbEntity
  8
Layer_1
 62
7
100
AcDbSpline
 70
8
 71
3
 72
8
 73
4
 74
0
 40
0
 40
0
 40
0
 40
0
 40
1
 40
1
 40
1
 40
1
 10
26.455708
 20
290.342853
 30
0.0
 10
26.477580
 20
290.240869
 30
0.0
 10
26.542850
 20
290.058342
 30
0.0
 10
26.600728
 20
289.937238
 30
0.0
  0
SPLINE
  5
22a
100
AcDbEntity
  8
Layer_1
 62
7
100
AcDbSpline
 70
8
 71
3
 72
8
 73
4
 74
0
 40
0
 40
0
 40
0
 40
0
 40
1
 40
1
 40
1
 40
1
 10
26.600728
 20
289.937238
 30
0.0
 10
26.687610
 20
289.755439
 30
0.0
 10
26.736762
 20
289.686692
 30
0.0
 10
26.882614
 20
289.542965
 30
0.0
  0
SPLINE
  5
22b
100
AcDbEntity
  8
Layer_1
 62
7
100
AcDbSpline
 70
8
 71
3
 72
8
 73
4
 74
0
 40
0
 40
0
 40
0
 40
0
 40
1
 40
1
 40
1
 40
1
 10
26.882614
 20
289.542965
 30
0.0
 10
27.188010
 20
289.242020
 30
0.0
 10
27.549060
 20
289.092998
 30
0.0
 10
27.975514
 20
289.091881
 30
0.0
  0
SPLINE
  5
22c
100
AcDbEntity
  8
Layer_1
 62
7
100
AcDbSpline
 70
8
 71
3
 72
8
 73
4
 74
0
 40
0
 40
0
 40
0
 40
0
 40
1
 40
1
 40
1
 40
1
 10
27.975514
 20
289.091881
 30
0.0
 10
28.212285
 20
289.091316
 30
0.0
 10
28.223470
 20
289.093574
 30
0.0
 10
28.348906
 20
289.169492
 30
0.0
  0
SPLINE
  5
22d
100
AcDbEntity
  8
Layer_1
 62
7
100
AcDbSpline
 70
8
 71
3
 72
8
 73
4
 74
0
 40
0
 40
0
 40
0
 40
0
 40
1
 40
1
 40
1
 40
1
 10
28.348906
 20
289.169492
 30
0.0
 10
28.420026
 20
289.212531
 30
0.0
 10
28.570944
 20
289.321093
 30
0.0
 10
28.684279
 20
289.410738
 30
0.0
  0
SPLINE
  5
22e
100
AcDbEntity
  8
Layer_1
 62
7
100
AcDbSpline
 70
8
 71
3
 72
8
 73
4
 74
0
 40
0
 40
0
 40
0
 40
0
 40
1
 40
1
 40
1
 40
1
 10
28.684279
 20
289.410738
 30
0.0
 10
29.348546
 20
289.936165
 30
0.0
 10
30.124315
 20
290.283460
 30
0.0
 10
30.721410
 20
290.322720
 30
0.0
  0
SPLINE
  5
22f
100
AcDbEntity
  8
Layer_1
 62
7
100
AcDbSpline
 70
8
 71
3
 72
8
 73
4
 74
0
 40
0
 40
0
 40
0
 40
0
 40
1
 40
1
 40
1
 40
1
 10
30.721410
 20
290.322720
 30
0.0
 10
30.973570
 20
290.339314
 30
0.0
 10
31.038580
 20
290.318035
 30
0.0
 10
31.613766
 20
290.030752
 30
0.0
  0
SPLINE
  5
230
100
AcDbEntity
  8
Layer_1
 62
7
100
AcDbSpline
 70
8
 71
3
 72
8
 73
4
 74
0
 40
0
 40
0
 40
0
 40
0
 40
1
 40
1
 40
1
 40
1
 10
31.613766
 20
290.030752
 30
0.0
 10
32.050284
 20
289.812733
 30
0.0
 10
32.273991
 20
289.671735
 30
0.0
 10
32.587243
 20
289.417187
 30
0.0
  0
SPLINE
  5
231
100
AcDbEntity
  8
Layer_1
 62
7
100
AcDbSpline
 70
8
 71
3
 72
8
 73
4
 74
0
 40
0
 40
0
 40
0
 40
0
 40
1
 40
1
 40
1
 40
1
 10
32.587243
 20
289.417187
 30
0.0
 10
32.708348
 20
289.318776
 30
0.0
 10
32.859585
 20
289.210394
 30
0.0
 10
32.923325
 20
289.176339
 30
0.0
  0
SPLINE
  5
232
100
AcDbEntity
  8
Layer_1
 62
7
100
AcDbSpline
 70
8
 71
3
 72
8
 73
4
 74
0
 40
0
 40
0
 40
0
 40
0
 40
1
 40
1
 40
1
 40
1
 10
32.923325
 20
289.176339
 30
0.0
 10
33.030267
 20
289.119197
 30
0.0
 10
33.059799
 20
289.114526
 30
0.0
 10
33.305764
 20
289.115844
 30
0.0
  0
SPLINE
  5
233
100
AcDbEntity
  8
Layer_1
 62
7
100
AcDbSpline
 70
8
 71
3
 72
8
 73
4
 74
0
 40
0
 40
0
 40
0
 40
0
 40
1
 40
1
 40
1
 40
1
 10
33.305764
 20
289.115844
 30
0.0
 10
33.767011
 20
289.118384
 30
0.0
 10
34.094897
 20
289.244552
 30
0.0
 10
34.385656
 20
289.531606
 30
0.0
  0
SPLINE
  5
234
100
AcDbEntity
  8
Layer_1
 62
7
100
AcDbSpline
 70
8
 71
3
 72
8
 73
4
 74
0
 40
0
 40
0
 40
0
 40
0
 40
1
 40
1
 40
1
 40
1
 10
34.385656
 20
289.531606
 30
0.0
 10
34.630730
 20
289.773552
 30
0.0
 10
34.770571
 20
290.040938
 30
0.0
 10
34.858424
 20
290.435566
 30
0.0
  0
SPLINE
  5
235
100
AcDbEntity
  8
Layer_1
 62
7
100
AcDbSpline
 70
8
 71
3
 72
8
 73
4
 74
0
 40
0
 40
0
 40
0
 40
0
 40
1
 40
1
 40
1
 40
1
 10
34.858424
 20
290.435566
 30
0.0
 10
34.889849
 20
290.576725
 30
0.0
 10
34.956456
 20
290.654734
 30
0.0
 10
35.015469
 20
290.619496
 30
0.0
  0
SPLINE
  5
236
100
AcDbEntity
  8
Layer_1
 62
7
100
AcDbSpline
 70
8
 71
3
 72
8
 73
4
 74
0
 40
0
 40
0
 40
0
 40
0
 40
1
 40
1
 40
1
 40
1
 10
35.015469
 20
290.619496
 30
0.0
 10
35.074967
 20
290.583964
 30
0.0
 10
35.175938
 20
290.368318
 30
0.0
 10
35.231818
 20
290.157430
 30
0.0
  0
SPLINE
  5
237
100
AcDbEntity
  8
Layer_1
 62
7
100
AcDbSpline
 70
8
 71
3
 72
8
 73
4
 74
0
 40
0
 40
0
 40
0
 40
0
 40
1
 40
1
 40
1
 40
1
 10
35.231818
 20
290.157430
 30
0.0
 10
35.300387
 20
289.898658
 30
0.0
 10
35.300646
 20
289.467747
 30
0.0
 10
35.232382
 20
289.207129
 30
0.0
  0
SPLINE
  5
238
100
AcDbEntity
  8
Layer_1
 62
7
100
AcDbSpline
 70
8
 71
3
 72
8
 73
4
 74
0
 40
0
 40
0
 40
0
 40
0
 40
1
 40
1
 40
1
 40
1
 10
35.232382
 20
289.207129
 30
0.0
 10
35.163743
 20
288.945043
 30
0.0
 10
35.017795
 20
288.667839
 30
0.0
 10
34.854794
 20
288.489952
 30
0.0
  0
SPLINE
  5
239
100
AcDbEntity
  8
Layer_1
 62
7
100
AcDbSpline
 70
8
 71
3
 72
8
 73
4
 74
0
 40
0
 40
0
 40
0
 40
0
 40
1
 40
1
 40
1
 40
1
 10
34.854794
 20
288.489952
 30
0.0
 10
34.707951
 20
288.329700
 30
0.0
 10
34.381273
 20
288.075559
 30
0.0
 10
33.902594
 20
287.749180
 30
0.0
  0
SPLINE
  5
23a
100
AcDbEntity
  8
Layer_1
 62
7
100
AcDbSpline
 70
8
 71
3
 72
8
 73
4
 74
0
 40
0
 40
0
 40
0
 40
0
 40
1
 40
1
 40
1
 40
1
 10
33.902594
 20
287.749180
 30
0.0
 10
33.718957
 20
287.623975
 30
0.0
 10
33.607042
 20
287.532750
 30
0.0
 10
33.606997
 20
287.508230
 30
0.0
  0
SPLINE
  5
23b
100
AcDbEntity
  8
Layer_1
 62
7
100
AcDbSpline
 70
8
 71
3
 72
8
 73
4
 74
0
 40
0
 40
0
 40
0
 40
0
 40
1
 40
1
 40
1
 40
1
 10
33.606997
 20
287.508230
 30
0.0
 10
33.606723
 20
287.422878
 30
0.0
 10
33.535516
 20
286.411811
 30
0.0
 10
33.513477
 20
286.182390
 30
0.0
  0
SPLINE
  5
23c
100
AcDbEntity
  8
Layer_1
 62
7
100
AcDbSpline
 70
8
 71
3
 72
8
 73
4
 74
0
 40
0
 40
0
 40
0
 40
0
 40
1
 40
1
 40
1
 40
1
 10
33.513477
 20
286.182390
 30
0.0
 10
33.435448
 20
285.370174
 30
0.0
 10
33.267354
 20
284.795951
 30
0.0
 10
33.044234
 20
284.579416
 30
0.0
  0
SPLINE
  5
23d
100
AcDbEntity
  8
Layer_1
 62
7
100
AcDbSpline
 70
8
 71
3
 72
8
 73
4
 74
0
 40
0
 40
0
 40
0
 40
0
 40
1
 40
1
 40
1
 40
1
 10
33.044234
 20
284.579416
 30
0.0
 10
32.878011
 20
284.418103
 30
0.0
 10
32.460006
 20
284.253404
 30
0.0
 10
32.051348
 20
284.188208
 30
0.0
  0
SPLINE
  5
23e
100
AcDbEntity
  8
Layer_1
 62
7
100
AcDbSpline
 70
8
 71
3
 72
8
 73
4
 74
0
 40
0
 40
0
 40
0
 40
0
 40
1
 40
1
 40
1
 40
1
 10
32.051348
 20
284.188208
 30
0.0
 10
31.887812
 20
284.162130
 30
0.0
 10
29.733164
 20
284.135799
 30
0.0
 10
29.516143
 20
284.157239
 30
0.0
  0
LWPOLYLINE
  5
23f
100
AcDbEntity
  8
Layer_1
 62
7
100
AcDbPolyline
 90
2
 70
1
 10
39.068589
 20
279.208040
 30
0.0
 10
39.068598
 20
279.208043
 30
0.0
  0
SPLINE
  5
240
100
AcDbEntity
  8
Layer_1
 62
7
100
AcDbSpline
 70
8
 71
3
 72
8
 73
4
 74
0
 40
0
 40
0
 40
0
 40
0
 40
1
 40
1
 40
1
 40
1
 10
29.571137
 20
284.808656
 30
0.0
 10
29.553639
 20
284.830726
 30
0.0
 10
29.389030
 20
285.021079
 30
0.0
 10
29.205338
 20
285.231656
 30
0.0
  0
SPLINE
  5
241
100
AcDbEntity
  8
Layer_1
 62
7
100
AcDbSpline
 70
8
 71
3
 72
8
 73
4
 74
0
 40
0
 40
0
 40
0
 40
0
 40
1
 40
1
 40
1
 40
1
 10
29.205338
 20
285.231656
 30
0.0
 10
29.021642
 20
285.442237
 30
0.0
 10
28.809199
 20
285.692754
 30
0.0
 10
28.733242
 20
285.788362
 30
0.0
  0
SPLINE
  5
242
100
AcDbEntity
  8
Layer_1
 62
7
100
AcDbSpline
 70
8
 71
3
 72
8
 73
4
 74
0
 40
0
 40
0
 40
0
 40
0
 40
1
 40
1
 40
1
 40
1
 10
28.733242
 20
285.788362
 30
0.0
 10
28.657285
 20
285.883971
 30
0.0
 10
28.591431
 20
285.966267
 30
0.0
 10
28.586898
 20
285.971242
 30
0.0
  0
SPLINE
  5
243
100
AcDbEntity
  8
Layer_1
 62
7
100
AcDbSpline
 70
8
 71
3
 72
8
 73
4
 74
0
 40
0
 40
0
 40
0
 40
0
 40
1
 40
1
 40
1
 40
1
 10
28.586898
 20
285.971242
 30
0.0
 10
28.582383
 20
285.976209
 30
0.0
 10
28.536635
 20
285.942320
 30
0.0
 10
28.485270
 20
285.895914
 30
0.0
  0
SPLINE
  5
244
100
AcDbEntity
  8
Layer_1
 62
7
100
AcDbSpline
 70
8
 71
3
 72
8
 73
4
 74
0
 40
0
 40
0
 40
0
 40
0
 40
1
 40
1
 40
1
 40
1
 10
28.485270
 20
285.895914
 30
0.0
 10
28.433906
 20
285.849509
 30
0.0
 10
28.367544
 20
285.811541
 30
0.0
 10
28.337804
 20
285.811541
 30
0.0
  0
SPLINE
  5
245
100
AcDbEntity
  8
Layer_1
 62
7
100
AcDbSpline
 70
8
 71
3
 72
8
 73
4
 74
0
 40
0
 40
0
 40
0
 40
0
 40
1
 40
1
 40
1
 40
1
 10
28.337804
 20
285.811541
 30
0.0
 10
28.308063
 20
285.811541
 30
0.0
 10
28.234888
 20
285.849590
 30
0.0
 10
28.175195
 20
285.896098
 30
0.0
  0
SPLINE
  5
246
100
AcDbEntity
  8
Layer_1
 62
7
100
AcDbSpline
 70
8
 71
3
 72
8
 73
4
 74
0
 40
0
 40
0
 40
0
 40
0
 40
1
 40
1
 40
1
 40
1
 10
28.175195
 20
285.896098
 30
0.0
 10
28.115502
 20
285.942605
 30
0.0
 10
28.060110
 20
285.974104
 30
0.0
 10
28.052107
 20
285.966100
 30
0.0
  0
SPLINE
  5
247
100
AcDbEntity
  8
Layer_1
 62
7
100
AcDbSpline
 70
8
 71
3
 72
8
 73
4
 74
0
 40
0
 40
0
 40
0
 40
0
 40
1
 40
1
 40
1
 40
1
 10
28.052107
 20
285.966100
 30
0.0
 10
28.028767
 20
285.942761
 30
0.0
 10
28.129379
 20
285.703481
 30
0.0
 10
28.219803
 20
285.567250
 30
0.0
  0
SPLINE
  5
248
100
AcDbEntity
  8
Layer_1
 62
7
100
AcDbSpline
 70
8
 71
3
 72
8
 73
4
 74
0
 40
0
 40
0
 40
0
 40
0
 40
1
 40
1
 40
1
 40
1
 10
28.219803
 20
285.567250
 30
0.0
 10
28.348573
 20
285.373250
 30
0.0
 10
28.561022
 20
285.241986
 30
0.0
 10
28.612205
 20
285.324801
 30
0.0
  0
SPLINE
  5
249
100
AcDbEntity
  8
Layer_1
 62
7
100
AcDbSpline
 70
8
 71
3
 72
8
 73
4
 74
0
 40
0
 40
0
 40
0
 40
0
 40
1
 40
1
 40
1
 40
1
 10
28.612205
 20
285.324801
 30
0.0
 10
28.631538
 20
285.356080
 30
0.0
 10
28.731089
 20
285.354127
 30
0.0
 10
28.793358
 20
285.321245
 30
0.0
  0
SPLINE
  5
24a
100
AcDbEntity
  8
Layer_1
 62
7
100
AcDbSpline
 70
8
 71
3
 72
8
 73
4
 74
0
 40
0
 40
0
 40
0
 40
0
 40
1
 40
1
 40
1
 40
1
 10
28.793358
 20
285.321245
 30
0.0
 10
28.821213
 20
285.306541
 30
0.0
 10
28.904159
 20
285.248415
 30
0.0
 10
28.977706
 20
285.192069
 30
0.0
  0
SPLINE
  5
24b
100
AcDbEntity
  8
Layer_1
 62
7
100
AcDbSpline
 70
8
 71
3
 72
8
 73
4
 74
0
 40
0
 40
0
 40
0
 40
0
 40
1
 40
1
 40
1
 40
1
 10
28.977706
 20
285.192069
 30
0.0
 10
29.107011
 20
285.093004
 30
0.0
 10
29.576773
 20
284.770934
 30
0.0
 10
29.594316
 20
284.769320
 30
0.0
  0
SPLINE
  5
24c
100
AcDbEntity
  8
Layer_1
 62
7
100
AcDbSpline
 70
8
 71
3
 72
8
 73
4
 74
0
 40
0
 40
0
 40
0
 40
0
 40
1
 40
1
 40
1
 40
1
 10
29.594316
 20
284.769320
 30
0.0
 10
29.599057
 20
284.768756
 30
0.0
 10
29.588615
 20
284.786592
 30
0.0
 10
29.571146
 20
284.808656
 30
0.0
  0
LWPOLYLINE
  5
24d
100
AcDbEntity
  8
Layer_1
 62
7
100
AcDbPolyline
 90
2
 70
1
 10
29.516143
 20
284.157239
 30
0.0
 10
29.516149
 20
284.157239
 30
0.0
  0
SPLINE
  5
24e
100
AcDbEntity
  8
Layer_1
 62
7
100
AcDbSpline
 70
8
 71
3
 72
8
 73
4
 74
0
 40
0
 40
0
 40
0
 40
0
 40
1
 40
1
 40
1
 40
1
 10
30.900093
 20
285.027302
 30
0.0
 10
31.176510
 20
285.310174
 30
0.0
 10
31.492108
 20
285.699206
 30
0.0
 10
31.830160
 20
286.173782
 30
0.0
  0
SPLINE
  5
24f
100
AcDbEntity
  8
Layer_1
 62
7
100
AcDbSpline
 70
8
 71
3
 72
8
 73
4
 74
0
 40
0
 40
0
 40
0
 40
0
 40
1
 40
1
 40
1
 40
1
 10
31.830160
 20
286.173782
 30
0.0
 10
31.967537
 20
286.366639
 30
0.0
 10
32.105061
 20
286.548037
 30
0.0
 10
32.135772
 20
286.576888
 30
0.0
  0
SPLINE
  5
250
100
AcDbEntity
  8
Layer_1
 62
7
100
AcDbSpline
 70
8
 71
3
 72
8
 73
4
 74
0
 40
0
 40
0
 40
0
 40
0
 40
1
 40
1
 40
1
 40
1
 10
32.135772
 20
286.576888
 30
0.0
 10
32.199498
 20
286.636756
 30
0.0
 10
32.202145
 20
286.636928
 30
0.0
 10
32.661967
 20
286.611497
 30
0.0
  0
LWPOLYLINE
  5
251
100
AcDbEntity
  8
Layer_1
 62
7
100
AcDbPolyline
 90
2
 70
1
 10
29.571146
 20
284.808656
 30
0.0
 10
29.571137
 20
284.808656
 30
0.0
  0
SPLINE
  5
252
100
AcDbEntity
  8
Layer_1
 62
7
100
AcDbSpline
 70
8
 71
3
 72
8
 73
4
 74
0
 40
0
 40
0
 40
0
 40
0
 40
1
 40
1
 40
1
 40
1
 10
32.672565
 20
288.430659
 30
0.0
 10
32.714892
 20
288.784290
 30
0.0
 10
32.678576
 20
288.874869
 30
0.0
 10
32.370358
 20
289.184557
 30
0.0
  0
SPLINE
  5
253
100
AcDbEntity
  8
Layer_1
 62
7
100
AcDbSpline
 70
8
 71
3
 72
8
 73
4
 74
0
 40
0
 40
0
 40
0
 40
0
 40
1
 40
1
 40
1
 40
1
 10
32.370358
 20
289.184557
 30
0.0
 10
32.117707
 20
289.438410
 30
0.0
 10
32.036806
 20
289.497078
 30
0.0
 10
32.006162
 20
289.448663
 30
0.0
  0
SPLINE
  5
254
100
AcDbEntity
  8
Layer_1
 62
7
100
AcDbSpline
 70
8
 71
3
 72
8
 73
4
 74
0
 40
0
 40
0
 40
0
 40
0
 40
1
 40
1
 40
1
 40
1
 10
32.006162
 20
289.448663
 30
0.0
 10
31.994704
 20
289.430545
 30
0.0
 10
31.985164
 20
289.205794
 30
0.0
 10
31.984967
 20
288.949209
 30
0.0
  0
SPLINE
  5
255
100
AcDbEntity
  8
Layer_1
 62
7
100
AcDbSpline
 70
8
 71
3
 72
8
 73
4
 74
0
 40
0
 40
0
 40
0
 40
0
 40
1
 40
1
 40
1
 40
1
 10
31.984967
 20
288.949209
 30
0.0
 10
31.984693
 20
288.582625
 30
0.0
 10
31.977798
 20
288.477043
 30
0.0
 10
31.952833
 20
288.456316
 30
0.0
  0
SPLINE
  5
256
100
AcDbEntity
  8
Layer_1
 62
7
100
AcDbSpline
 70
8
 71
3
 72
8
 73
4
 74
0
 40
0
 40
0
 40
0
 40
0
 40
1
 40
1
 40
1
 40
1
 10
31.952833
 20
288.456316
 30
0.0
 10
31.928929
 20
288.436476
 30
0.0
 10
31.884414
 20
288.438311
 30
0.0
 10
31.773201
 20
288.463739
 30
0.0
  0
SPLINE
  5
257
100
AcDbEntity
  8
Layer_1
 62
7
100
AcDbSpline
 70
8
 71
3
 72
8
 73
4
 74
0
 40
0
 40
0
 40
0
 40
0
 40
1
 40
1
 40
1
 40
1
 10
31.773201
 20
288.463739
 30
0.0
 10
31.299836
 20
288.571912
 30
0.0
 10
29.951110
 20
288.571988
 30
0.0
 10
29.483143
 20
288.463894
 30
0.0
  0
SPLINE
  5
258
100
AcDbEntity
  8
Layer_1
 62
7
100
AcDbSpline
 70
8
 71
3
 72
8
 73
4
 74
0
 40
0
 40
0
 40
0
 40
0
 40
1
 40
1
 40
1
 40
1
 10
29.483143
 20
288.463894
 30
0.0
 10
29.378278
 20
288.439679
 30
0.0
 10
29.326981
 20
288.436772
 30
0.0
 10
29.309681
 20
288.454073
 30
0.0
  0
SPLINE
  5
259
100
AcDbEntity
  8
Layer_1
 62
7
100
AcDbSpline
 70
8
 71
3
 72
8
 73
4
 74
0
 40
0
 40
0
 40
0
 40
0
 40
1
 40
1
 40
1
 40
1
 10
29.309681
 20
288.454073
 30
0.0
 10
29.293425
 20
288.470329
 30
0.0
 10
29.287385
 20
288.655701
 30
0.0
 10
29.291816
 20
289.002318
 30
0.0
  0
LWPOLYLINE
  5
25a
100
AcDbEntity
  8
Layer_1
 62
7
100
AcDbPolyline
 90
9
 70
1
 10
32.661967
 20
286.611497
 30
0.0
 10
33.003239
 20
286.592617
 30
0.0
 10
33.102350
 20
286.798913
 30
0.0
 10
33.201463
 20
287.005209
 30
0.0
 10
33.209140
 20
287.387648
 30
0.0
 10
33.216816
 20
287.770084
 30
0.0
 10
32.935675
 20
288.025044
 30
0.0
 10
32.654531
 20
288.280004
 30
0.0
 10
32.672565
 20
288.430659
 30
0.0
  0
SPLINE
  5
25b
100
AcDbEntity
  8
Layer_1
 62
7
100
AcDbSpline
 70
8
 71
3
 72
8
 73
4
 74
0
 40
0
 40
0
 40
0
 40
0
 40
1
 40
1
 40
1
 40
1
 10
29.210313
 20
289.455959
 30
0.0
 10
29.011025
 20
289.297691
 30
0.0
 10
28.711265
 20
288.998050
 30
0.0
 10
28.668641
 20
288.914504
 30
0.0
  0
SPLINE
  5
25c
100
AcDbEntity
  8
Layer_1
 62
7
100
AcDbSpline
 70
8
 71
3
 72
8
 73
4
 74
0
 40
0
 40
0
 40
0
 40
0
 40
1
 40
1
 40
1
 40
1
 10
28.668641
 20
288.914504
 30
0.0
 10
28.635480
 20
288.849503
 30
0.0
 10
28.617932
 20
288.749111
 30
0.0
 10
28.604244
 20
288.546102
 30
0.0
  0
SPLINE
  5
25d
100
AcDbEntity
  8
Layer_1
 62
7
100
AcDbSpline
 70
8
 71
3
 72
8
 73
4
 74
0
 40
0
 40
0
 40
0
 40
0
 40
1
 40
1
 40
1
 40
1
 10
28.604244
 20
288.546102
 30
0.0
 10
28.582513
 20
288.223853
 30
0.0
 10
28.574543
 20
288.207763
 30
0.0
 10
28.343919
 20
288.020780
 30
0.0
  0
SPLINE
  5
25e
100
AcDbEntity
  8
Layer_1
 62
7
100
AcDbSpline
 70
8
 71
3
 72
8
 73
4
 74
0
 40
0
 40
0
 40
0
 40
0
 40
1
 40
1
 40
1
 40
1
 10
28.343919
 20
288.020780
 30
0.0
 10
28.007950
 20
287.748382
 30
0.0
 10
27.962385
 20
287.443415
 30
0.0
 10
28.163570
 20
286.813662
 30
0.0
  0
LWPOLYLINE
  5
25f
100
AcDbEntity
  8
Layer_1
 62
7
100
AcDbPolyline
 90
3
 70
1
 10
29.291816
 20
289.002318
 30
0.0
 10
29.298505
 20
289.525998
 30
0.0
 10
29.210313
 20
289.455959
 30
0.0
  0
SPLINE
  5
260
100
AcDbEntity
  8
Layer_1
 62
7
100
AcDbSpline
 70
8
 71
3
 72
8
 73
4
 74
0
 40
0
 40
0
 40
0
 40
0
 40
1
 40
1
 40
1
 40
1
 10
29.167178
 20
286.562549
 30
0.0
 10
29.283742
 20
286.381822
 30
0.0
 10
29.901566
 20
285.574057
 30
0.0
 10
30.126472
 20
285.308331
 30
0.0
  0
SPLINE
  5
261
100
AcDbEntity
  8
Layer_1
 62
7
100
AcDbSpline
 70
8
 71
3
 72
8
 73
4
 74
0
 40
0
 40
0
 40
0
 40
0
 40
1
 40
1
 40
1
 40
1
 10
30.126472
 20
285.308331
 30
0.0
 10
30.366233
 20
285.025047
 30
0.0
 10
30.602171
 20
284.791743
 30
0.0
 10
30.648882
 20
284.791743
 30
0.0
  0
SPLINE
  5
262
100
AcDbEntity
  8
Layer_1
 62
7
100
AcDbSpline
 70
8
 71
3
 72
8
 73
4
 74
0
 40
0
 40
0
 40
0
 40
0
 40
1
 40
1
 40
1
 40
1
 10
30.648882
 20
284.791743
 30
0.0
 10
30.660425
 20
284.791743
 30
0.0
 10
30.773466
 20
284.897762
 30
0.0
 10
30.900091
 20
285.027339
 30
0.0
  0
LWPOLYLINE
  5
263
100
AcDbEntity
  8
Layer_1
 62
7
100
AcDbPolyline
 90
5
 70
1
 10
28.163570
 20
286.813662
 30
0.0
 10
28.232182
 20
286.598882
 30
0.0
 10
28.678005
 20
286.614320
 30
0.0
 10
29.123832
 20
286.629757
 30
0.0
 10
29.167178
 20
286.562549
 30
0.0
  0
SPLINE
  5
264
100
AcDbEntity
  8
Layer_1
 62
7
100
AcDbSpline
 70
8
 71
3
 72
8
 73
4
 74
0
 40
0
 40
0
 40
0
 40
0
 40
1
 40
1
 40
1
 40
1
 10
30.541595
 20
285.600496
 30
0.0
 10
30.487631
 20
285.664631
 30
0.0
 10
29.898588
 20
286.607340
 30
0.0
 10
29.898588
 20
286.629571
 30
0.0
  0
SPLINE
  5
265
100
AcDbEntity
  8
Layer_1
 62
7
100
AcDbSpline
 70
8
 71
3
 72
8
 73
4
 74
0
 40
0
 40
0
 40
0
 40
0
 40
1
 40
1
 40
1
 40
1
 10
29.898588
 20
286.629571
 30
0.0
 10
29.898588
 20
286.675184
 30
0.0
 10
30.855265
 20
286.730245
 30
0.0
 10
31.170299
 20
286.702765
 30
0.0
  0
SPLINE
  5
266
100
AcDbEntity
  8
Layer_1
 62
7
100
AcDbSpline
 70
8
 71
3
 72
8
 73
4
 74
0
 40
0
 40
0
 40
0
 40
0
 40
1
 40
1
 40
1
 40
1
 10
31.170299
 20
286.702765
 30
0.0
 10
31.322143
 20
286.689529
 30
0.0
 10
31.358730
 20
286.679002
 30
0.0
 10
31.358419
 20
286.648754
 30
0.0
  0
SPLINE
  5
267
100
AcDbEntity
  8
Layer_1
 62
7
100
AcDbSpline
 70
8
 71
3
 72
8
 73
4
 74
0
 40
0
 40
0
 40
0
 40
0
 40
1
 40
1
 40
1
 40
1
 10
31.358419
 20
286.648754
 30
0.0
 10
31.357573
 20
286.555397
 30
0.0
 10
30.880448
 20
285.770828
 30
0.0
 10
30.726098
 20
285.608731
 30
0.0
  0
SPLINE
  5
268
100
AcDbEntity
  8
Layer_1
 62
7
100
AcDbSpline
 70
8
 71
3
 72
8
 73
4
 74
0
 40
0
 40
0
 40
0
 40
0
 40
1
 40
1
 40
1
 40
1
 10
30.726098
 20
285.608731
 30
0.0
 10
30.638033
 20
285.516247
 30
0.0
 10
30.613412
 20
285.515149
 30
0.0
 10
30.541595
 20
285.600490
 30
0.0
  0
LWPOLYLINE
  5
269
100
AcDbEntity
  8
Layer_1
 62
7
100
AcDbPolyline
 90
2
 70
1
 10
30.900091
 20
285.027339
 30
0.0
 10
30.900093
 20
285.027302
 30
0.0
  0
SPLINE
  5
26a
100
AcDbEntity
  8
Layer_1
 62
7
100
AcDbSpline
 70
8
 71
3
 72
8
 73
4
 74
0
 40
0
 40
0
 40
0
 40
0
 40
1
 40
1
 40
1
 40
1
 10
32.178899
 20
285.099537
 30
0.0
 10
32.459349
 20
285.287350
 30
0.0
 10
32.563587
 20
285.331171
 30
0.0
 10
32.686315
 20
285.312855
 30
0.0
  0
SPLINE
  5
26b
100
AcDbEntity
  8
Layer_1
 62
7
100
AcDbSpline
 70
8
 71
3
 72
8
 73
4
 74
0
 40
0
 40
0
 40
0
 40
0
 40
1
 40
1
 40
1
 40
1
 10
32.686315
 20
285.312855
 30
0.0
 10
32.816622
 20
285.293410
 30
0.0
 10
32.911223
 20
285.357550
 30
0.0
 10
33.043498
 20
285.555046
 30
0.0
  0
SPLINE
  5
26c
100
AcDbEntity
  8
Layer_1
 62
7
100
AcDbSpline
 70
8
 71
3
 72
8
 73
4
 74
0
 40
0
 40
0
 40
0
 40
0
 40
1
 40
1
 40
1
 40
1
 10
33.043498
 20
285.555046
 30
0.0
 10
33.138339
 20
285.696651
 30
0.0
 10
33.249481
 20
285.945083
 30
0.0
 10
33.227724
 20
285.966837
 30
0.0
  0
SPLINE
  5
26d
100
AcDbEntity
  8
Layer_1
 62
7
100
AcDbSpline
 70
8
 71
3
 72
8
 73
4
 74
0
 40
0
 40
0
 40
0
 40
0
 40
1
 40
1
 40
1
 40
1
 10
33.227724
 20
285.966837
 30
0.0
 10
33.222136
 20
285.972425
 30
0.0
 10
33.165782
 20
285.939744
 30
0.0
 10
33.102457
 20
285.894255
 30
0.0
  0
SPLINE
  5
26e
100
AcDbEntity
  8
Layer_1
 62
7
100
AcDbSpline
 70
8
 71
3
 72
8
 73
4
 74
0
 40
0
 40
0
 40
0
 40
0
 40
1
 40
1
 40
1
 40
1
 10
33.102457
 20
285.894255
 30
0.0
 10
32.962102
 20
285.793420
 30
0.0
 10
32.906521
 20
285.790967
 30
0.0
 10
32.803894
 20
285.881075
 30
0.0
  0
SPLINE
  5
26f
100
AcDbEntity
  8
Layer_1
 62
7
100
AcDbSpline
 70
8
 71
3
 72
8
 73
4
 74
0
 40
0
 40
0
 40
0
 40
0
 40
1
 40
1
 40
1
 40
1
 10
32.803894
 20
285.881075
 30
0.0
 10
32.760339
 20
285.919319
 30
0.0
 10
32.716504
 20
285.950609
 30
0.0
 10
32.706485
 20
285.950609
 30
0.0
  0
SPLINE
  5
270
100
AcDbEntity
  8
Layer_1
 62
7
100
AcDbSpline
 70
8
 71
3
 72
8
 73
4
 74
0
 40
0
 40
0
 40
0
 40
0
 40
1
 40
1
 40
1
 40
1
 10
32.706485
 20
285.950609
 30
0.0
 10
32.696466
 20
285.950609
 30
0.0
 10
32.631987
 20
285.880206
 30
0.0
 10
32.563192
 20
285.794156
 30
0.0
  0
SPLINE
  5
271
100
AcDbEntity
  8
Layer_1
 62
7
100
AcDbSpline
 70
8
 71
3
 72
8
 73
4
 74
0
 40
0
 40
0
 40
0
 40
0
 40
1
 40
1
 40
1
 40
1
 10
32.563192
 20
285.794156
 30
0.0
 10
32.494395
 20
285.708107
 30
0.0
 10
32.291251
 20
285.470823
 30
0.0
 10
32.111755
 20
285.266855
 30
0.0
  0
SPLINE
  5
272
100
AcDbEntity
  8
Layer_1
 62
7
100
AcDbSpline
 70
8
 71
3
 72
8
 73
4
 74
0
 40
0
 40
0
 40
0
 40
0
 40
1
 40
1
 40
1
 40
1
 10
32.111755
 20
285.266855
 30
0.0
 10
31.932265
 20
285.062888
 30
0.0
 10
31.776151
 20
284.880849
 30
0.0
 10
31.764842
 20
284.862324
 30
0.0
  0
SPLINE
  5
273
100
AcDbEntity
  8
Layer_1
 62
7
100
AcDbSpline
 70
8
 71
3
 72
8
 73
4
 74
0
 40
0
 40
0
 40
0
 40
0
 40
1
 40
1
 40
1
 40
1
 10
31.764842
 20
284.862324
 30
0.0
 10
31.739781
 20
284.821269
 30
0.0
 10
31.903108
 20
284.914842
 30
0.0
 10
32.178899
 20
285.099537
 30
0.0
  0
LWPOLYLINE
  5
274
100
AcDbEntity
  8
Layer_1
 62
7
100
AcDbPolyline
 90
2
 70
1
 10
30.541595
 20
285.600490
 30
0.0
 10
30.541595
 20
285.600496
 30
0.0
  0
LWPOLYLINE
  5
275
100
AcDbEntity
  8
Layer_1
 62
7
100
AcDbPolyline
 90
2
 70
1
 10
32.178899
 20
285.099537
 30
0.0
 10
32.178899
 20
285.099537
 30
0.0
  0
ENDSEC
  0
SECTION
  2
OBJECTS
  0
DICTIONARY
  5
C
330
0
100
AcDbDictionary
  3
ACAD_GROUP
350
D
  3
ACAD_MLINESTYLE
350
17
  0
DICTIONARY
  5
D
330
C
100
AcDbDictionary
  0
DICTIONARY
  5
1A
330
C
100
AcDbDictionary
  0
DICTIONARY
  5
17
330
C
100
AcDbDictionary
  3
STANDARD
350
18
  0
DICTIONARY
  5
19
330
C
100
AcDbDictionary
  0
ENDSEC
  0
EOF
