<?xml version="1.0" encoding="UTF-8" standalone="no"?>
<!-- Created with Inkscape (http://www.inkscape.org/) -->

<svg
   xmlns:dc="http://purl.org/dc/elements/1.1/"
   xmlns:cc="http://creativecommons.org/ns#"
   xmlns:rdf="http://www.w3.org/1999/02/22-rdf-syntax-ns#"
   xmlns:svg="http://www.w3.org/2000/svg"
   xmlns="http://www.w3.org/2000/svg"
   xmlns:sodipodi="http://sodipodi.sourceforge.net/DTD/sodipodi-0.dtd"
   xmlns:inkscape="http://www.inkscape.org/namespaces/inkscape"
   width="744.09448819"
   height="1052.3622047"
   id="svg2"
   version="1.1"
   inkscape:version="0.48.5 r10040"
   sodipodi:docname="New document 1">
  <defs
     id="defs4" />
  <sodipodi:namedview
     id="base"
     pagecolor="#ffffff"
     bordercolor="#666666"
     borderopacity="1.0"
     inkscape:pageopacity="0.0"
     inkscape:pageshadow="2"
     inkscape:zoom="5.6"
     inkscape:cx="97.024118"
     inkscape:cy="997.08956"
     inkscape:document-units="px"
     inkscape:current-layer="layer1"
     showgrid="false"
     inkscape:window-width="1280"
     inkscape:window-height="752"
     inkscape:window-x="0"
     inkscape:window-y="0"
     inkscape:window-maximized="1" />
  <metadata
     id="metadata7">
    <rdf:RDF>
      <cc:Work
         rdf:about="">
        <dc:format>image/svg+xml</dc:format>
        <dc:type
           rdf:resource="http://purl.org/dc/dcmitype/StillImage" />
        <dc:title></dc:title>
      </cc:Work>
    </rdf:RDF>
  </metadata>
  <g
     inkscape:label="Layer 1"
     inkscape:groupmode="layer"
     id="layer1">
    <path
       style="fill:#000000"
       d="m 66.790998,71.785078 c -0.13244,-0.20206 -0.14891,-0.42775 -0.14891,-2.04083 0,-1.61106 0.0166,-1.839 0.14851,-2.04075 0.0817,-0.12491 0.20187,-0.24758 0.26709,-0.27261 0.37144,-0.14254 0.96435,0.37633 1.76379,1.54355 0.27163,0.39659 0.52475,0.74016 0.56249,0.76348 0.0377,0.0233 0.32049,-0.31539 0.62834,-0.7527 0.70512,-1.00161 1.18689,-1.47697 1.56967,-1.54878 0.62711,-0.11765 0.80499,0.49921 0.7482,2.59472 -0.0389,1.43545 -0.10798,1.75806 -0.39598,1.84947 -0.43378,0.13768 -0.83379,-0.40248 -0.99523,-1.34392 -0.0554,-0.32322 -0.12097,-0.5872 -0.14565,-0.58662 -0.0247,5.6e-4 -0.22967,0.28554 -0.45551,0.63324 -0.51955,0.79985 -0.76324,1.09037 -0.91462,1.09037 -0.16542,0 -0.44306,-0.31344 -1.12757,-1.27297 l -0.58588,-0.82127 -0.0625,0.93838 c -0.0441,0.66229 -0.10572,1.01266 -0.20947,1.19084 -0.1968,0.33799 -0.45532,0.36852 -0.64679,0.0764 z m 9.77082,0.13507 c -0.28072,-0.0394 -0.68725,-0.15967 -0.9034,-0.2673 -0.71493,-0.35599 -0.96887,-0.96524 -0.90667,-2.17529 0.0509,-0.99064 0.26859,-1.4579 0.80287,-1.72348 0.98137,-0.48783 3.70124,-0.45646 4.21082,0.0486 0.22997,0.2279 0.38451,0.96314 0.38557,1.83437 0.002,1.44198 -0.24036,2.01617 -0.9218,2.18603 -0.49938,0.12448 -2.06586,0.18151 -2.66739,0.0971 z m 2.01267,-1.33273 c 0.21909,-0.10483 0.22275,-0.11965 0.24577,-0.99418 l 0.0234,-0.88776 -1.26744,0.0264 c -1.47349,0.0306 -1.5447,0.0627 -1.70205,0.76579 -0.0855,0.3819 -0.0786,0.47104 0.0578,0.74975 0.2351,0.48047 0.41702,0.54016 1.49279,0.48984 0.51007,-0.0239 1.02747,-0.0913 1.14978,-0.1498 z m 6.38548,1.22641 c -0.0725,-0.11067 -0.20244,-0.69881 -0.29376,-1.32978 -0.24803,-1.71376 -0.19563,-1.61894 -1.09244,-1.9767 -0.91585,-0.36536 -0.93121,-0.81183 -0.0353,-1.02676 0.42551,-0.10207 3.20996,-0.0617 3.70198,0.0537 0.30673,0.0719 0.50894,0.37657 0.39333,0.59258 -0.10604,0.19814 -0.65687,0.42602 -1.02976,0.42602 -0.64553,0 -0.71081,0.13366 -0.78561,1.60834 -0.0449,0.88462 -0.0964,1.24117 -0.21416,1.48236 -0.19025,0.38961 -0.45475,0.45952 -0.64428,0.17026 z m 6.79388,0.10757 c -0.51894,-0.11106 -0.91135,-0.32244 -1.12946,-0.60839 -0.6073,-0.79621 -0.73735,-1.79237 -0.34423,-2.6367 0.27169,-0.58352 0.47455,-0.81675 0.91791,-1.05536 0.2933,-0.15784 0.45615,-0.17673 1.51935,-0.17618 1.44767,5.5e-4 2.00487,0.13707 2.47278,0.60498 0.40463,0.40463 0.51612,0.83892 0.45595,1.77609 -0.0844,1.31477 -0.29512,1.6558 -1.19496,1.93412 -0.61703,0.19084 -2.13534,0.28172 -2.69734,0.16144 z m 1.62273,-1.24082 c 0.29478,-0.0457 0.58077,-0.11086 0.63552,-0.1447 0.22736,-0.14051 0.2801,-1.29906 0.0743,-1.63205 -0.0856,-0.13856 -0.75733,-0.2696 -1.71801,-0.33515 l -0.88287,-0.0602 0,1.18054 0,1.18055 0.67755,-0.0529 c 0.37265,-0.0291 0.91874,-0.0903 1.21352,-0.13606 z m 9.072902,1.24483 c -0.55198,-0.13437 -0.96646,-0.46907 -2.22399,-1.79589 -0.464082,-0.48965 -0.616372,-0.70031 -0.540262,-0.74735 0.0583,-0.036 0.537782,-0.0895 1.065542,-0.11889 0.52776,-0.0294 1.09955,-0.0769 1.27063,-0.1057 0.92701,-0.1559 -0.58797,-0.60273 -2.048142,-0.60409 l -0.66942,-5.5e-4 -0.0302,1.41669 c -0.0335,1.57268 -0.11304,1.89056 -0.4837,1.93387 -0.37151,0.0434 -0.49682,-0.20704 -0.57484,-1.1489 -0.0386,-0.46561 -0.0717,-1.43118 -0.0737,-2.14572 l -0.004,-1.29916 1.37562,0.0517 c 3.692422,0.13874 4.044762,0.26435 4.044762,1.44196 0,0.61432 -0.13603,0.92111 -0.61828,1.3944 -0.20199,0.19823 -0.36724,0.41808 -0.36724,0.48855 0,0.0705 0.14782,0.30703 0.3285,0.52567 0.34963,0.42311 0.3868,0.5349 0.22996,0.69174 -0.10781,0.10781 -0.30266,0.11403 -0.68166,0.0218 z m 11.72818,-0.0214 c -0.12548,-0.0606 -0.20641,-0.2091 -0.26636,-0.48867 -0.0873,-0.40708 -0.30211,-3.98948 -0.24272,-4.04778 0.0178,-0.0174 1.09353,-0.006 2.39059,0.0249 l 2.35828,0.0566 0.25749,0.24396 c 0.38688,0.36653 0.7321,1.01482 0.733,1.37648 9.6e-4,0.38285 -0.25923,0.91304 -0.53753,1.09539 -0.15313,0.10034 -0.5142,0.15363 -1.37457,0.2029 -2.15784,0.12356 -2.2249,0.14815 -2.31236,0.84813 -0.0828,0.66274 -0.48662,0.93902 -1.00582,0.68814 z m 3.69323,-2.73945 c 0.19506,-0.0749 0.24566,-0.29646 0.10081,-0.44147 -0.0945,-0.0946 -0.33901,-0.13682 -0.914,-0.15786 -0.95488,-0.0349 -1.4427,0.0309 -1.68529,0.2273 l -0.1834,0.14851 0.18477,0.0989 c 0.39379,0.21075 2.05645,0.29374 2.49711,0.12464 z m 12.2358,2.71205 c -0.28597,-0.2003 -0.35118,-0.61858 -0.40617,-2.60511 l -0.0517,-1.86839 1.88129,5.5e-4 c 2.80137,9.7e-4 3.26869,0.11047 3.61139,0.84653 0.42417,0.91103 0.0813,2.01638 -0.66916,2.15716 l -0.26535,0.0498 0.28593,0.60209 c 0.23515,0.49515 0.26974,0.63237 0.19473,0.77252 -0.22463,0.41972 -0.92287,0.064 -2.06975,-1.05434 -0.69966,-0.68226 -0.8915,-0.91707 -0.89089,-1.09048 0.001,-0.12155 0.0452,-0.24848 0.0995,-0.28206 0.0543,-0.0336 0.48152,-0.0884 0.94929,-0.12176 0.8137,-0.0581 1.25148,-0.19831 1.25148,-0.40081 0,-0.20222 -0.42357,-0.2845 -1.62201,-0.31509 l -1.25244,-0.032 -0.002,1.26121 c -0.001,0.69366 -0.0362,1.40904 -0.0781,1.58972 -0.12635,0.54533 -0.56779,0.76936 -0.96615,0.49034 z m 16.5682,0.0756 c -0.11293,-0.0194 -0.32534,-0.0547 -0.47203,-0.0784 -0.42179,-0.0682 -0.69707,-0.75691 -0.36978,-0.92512 0.079,-0.0406 0.71657,-0.0961 1.41669,-0.12319 1.27871,-0.0496 2.24578,-0.22379 1.8068,-0.32554 -0.11292,-0.0262 -0.59337,-0.0678 -1.06766,-0.0924 -1.03053,-0.0536 -1.74222,-0.22541 -2.11666,-0.51101 -0.33496,-0.25548 -0.42936,-0.48457 -0.42897,-1.04092 0.001,-0.80411 0.43227,-1.18158 1.56061,-1.36464 0.70016,-0.1136 2.56929,-0.10037 3.0382,0.0215 0.36014,0.0936 0.36958,0.1044 0.36958,0.42345 0,0.2686 -0.0369,0.34482 -0.20533,0.42443 -0.11292,0.0534 -0.87915,0.13794 -1.70273,0.18793 -0.82359,0.05 -1.55942,0.1147 -1.63519,0.14377 -0.25395,0.0975 0.19513,0.1917 1.32097,0.27723 1.25984,0.0957 1.59658,0.17401 1.92044,0.44653 0.33855,0.28486 0.45095,0.6122 0.40906,1.19126 -0.0583,0.80643 -0.34504,1.07563 -1.29964,1.22033 -0.6304,0.0956 -2.2521,0.17514 -2.54436,0.12486 z m -40.13959,-0.15415 c -0.11886,-0.086 -0.18479,-0.21918 -0.18479,-0.3733 0,-0.39635 0.33195,-0.506 1.76573,-0.5833 1.30364,-0.0703 1.60148,-0.11259 1.60148,-0.22741 0,-0.0992 -0.30336,-0.16972 -0.73914,-0.17177 -1.95525,-0.009 -3.19038,-0.95175 -2.64572,-2.01895 0.31837,-0.62379 0.56461,-0.74024 1.90657,-0.90158 2.14315,-0.25767 3.00581,-0.0783 2.83808,0.58996 -0.0718,0.28618 -0.29181,0.34281 -1.86989,0.48138 -0.77308,0.0679 -1.42422,0.14204 -1.44697,0.16479 -0.0975,0.0975 0.10735,0.13439 1.11674,0.20133 1.1866,0.0787 1.66921,0.23202 2.12819,0.67615 0.50845,0.492 0.5382,1.48894 0.0557,1.86843 -0.3732,0.29356 -0.76745,0.35344 -2.57552,0.39114 -1.53929,0.0321 -1.78942,0.0197 -1.95051,-0.0969 z m 16.55669,0.008 c -0.21011,-0.0566 -0.48149,-0.16809 -0.6031,-0.24777 -0.47386,-0.31048 -0.72016,-1.43861 -0.53999,-2.47323 0.14752,-0.84716 0.32801,-1.13378 0.88673,-1.40813 0.46218,-0.22696 0.50717,-0.2327 1.78814,-0.22845 0.80965,0.003 1.4559,0.0448 1.68361,0.10977 0.80372,0.22926 1.06765,0.78919 1.06765,2.26505 0,0.78317 -0.0262,0.96371 -0.18478,1.27672 -0.10163,0.20051 -0.29566,0.42791 -0.43117,0.50533 -0.50334,0.28758 -2.86473,0.41683 -3.66709,0.20071 z m 2.97635,-1.435 c 0.24094,-0.29772 0.21967,-1.06951 -0.0371,-1.34659 -0.38137,-0.4115 -0.67158,-0.49892 -1.46856,-0.44235 -0.80935,0.0575 -1.15408,0.19453 -1.32394,0.52646 -0.17973,0.35119 -0.23211,0.85429 -0.11297,1.08517 0.18862,0.36557 0.41629,0.42005 1.64909,0.39463 1.08156,-0.0223 1.14418,-0.0328 1.2935,-0.21732 z m 13.84956,1.35041 c -0.0858,-0.0858 -0.12854,-0.44737 -0.16247,-1.37562 -0.0624,-1.70619 -0.0785,-1.7357 -0.99465,-1.82023 -0.6191,-0.0571 -1.01926,-0.44773 -0.80182,-0.78273 0.11244,-0.17326 0.68958,-0.25029 1.89938,-0.25351 1.84315,-0.005 2.76792,0.15214 2.98868,0.50755 0.14211,0.2288 -0.11395,0.4014 -0.78319,0.52795 -0.32944,0.0623 -0.63014,0.14442 -0.66823,0.18252 -0.0677,0.0677 -0.19683,0.78476 -0.37888,2.10392 -0.0741,0.53689 -0.12905,0.69081 -0.3006,0.84181 -0.2375,0.20906 -0.62439,0.24218 -0.79822,0.0683 z m -72.047802,-8.5843 c -1.99605,-0.0555 -2.02491,-0.0667 -2.16434,-0.84216 -0.0512,-0.28471 -0.29609,-2.0329 -0.54421,-3.88487 -0.67271,-5.02117 -1.03009,-6.988033 -1.43682,-7.907503 -0.0893,-0.20193 -0.16241,-0.46817 -0.16241,-0.59165 0,-0.2095 0.0288,-0.22796 0.43117,-0.27629 0.23714,-0.0285 1.85619,-0.0521 3.59789,-0.0525 2.40935,-5.6e-4 3.1982,0.0238 3.29833,0.10194 0.14682,0.11454 0.21422,0.706 0.63876,5.605183 0.26495,3.05748 0.39268,4.20373 0.48797,4.37895 0.0975,0.17924 0.35679,-0.21166 3.23172,-4.87172 2.85924,-4.634623 3.02866,-4.868613 3.67689,-5.077963 0.55679,-0.17982 1.76648,-0.26614 2.06874,-0.14761 0.18292,0.0717 0.22585,0.14013 0.22585,0.35983 0,0.53563 -0.55197,1.51645 -4.78182,8.497023 l -2.89706,4.78107 -2.01211,-0.013 c -1.10667,-0.007 -2.75301,-0.0336 -3.65855,-0.0587 z m 13.02103,-0.0284 c -0.41472,-0.20876 -0.33593,-0.76097 0.67623,-4.73972 1.29246,-5.08056 1.63045,-6.513783 1.6753,-7.103993 0.0421,-0.55401 0.033,-0.5912 -0.25053,-1.02382 -0.58393,-0.89101 -0.68334,-0.86511 3.31918,-0.86511 2.71169,0 3.36748,0.0213 3.47782,0.11272 0.29685,0.24607 0.15131,1.06822 -0.96863,5.471923 -0.71569,2.81416 -1.79148,6.63849 -2.09461,7.44616 -0.22629,0.60294 -0.30935,0.63064 -2.18011,0.72688 -2.10342,0.10822 -3.40767,0.0993 -3.65465,-0.0251 z m 19.833682,0.0236 c -0.72272,-0.0305 -1.413422,-0.0966 -1.534892,-0.14694 -0.46589,-0.19315 -0.50479,-0.68504 -0.15727,-1.98835 0.76484,-2.8684 0.83603,-3.17711 0.81305,-3.52581 -0.0304,-0.46074 -0.0844,-0.47918 -1.43781,-0.49023 l -1.00289,-0.008 -0.0911,0.33818 c -0.47561,1.76626 -1.64275,5.60807 -1.71783,5.65448 -0.10803,0.0668 -2.7559,0.16687 -4.41388,0.16687 -0.78496,0 -1.18131,-0.0348 -1.38977,-0.12185 -0.27089,-0.11318 -0.28774,-0.14092 -0.23697,-0.3901 0.17969,-0.8819 0.66893,-2.89653 1.60082,-6.59204 0.58091,-2.30366 1.08186,-4.402473 1.11322,-4.664013 0.0556,-0.464 0.0477,-0.49065 -0.32733,-1.09833 -0.21139,-0.34253 -0.36595,-0.67072 -0.34347,-0.72929 0.0713,-0.18576 0.89748,-0.22467 3.94396,-0.18572 3.44309,0.044 3.44251,0.0439 3.48182,0.64587 0.016,0.24549 -0.10391,0.86334 -0.35063,1.80614 -0.60399,2.308143 -0.88888,3.530333 -0.83538,3.583833 0.11818,0.11818 0.84845,-0.54825 2.989262,-2.727913 2.38471,-2.42799 2.91917,-2.87053 3.79425,-3.1417 0.38512,-0.11935 0.8131,-0.14117 2.76881,-0.14117 1.2723,0 2.33925,0.026 2.37101,0.0578 0.14567,0.14573 -0.1388,0.5452 -1.45025,2.03647 -1.57822,1.794653 -3.08862,3.584313 -3.20018,3.791903 -0.0644,0.11982 -0.003,0.14453 0.48002,0.19457 0.30458,0.0315 0.67895,0.10858 0.83194,0.17124 0.27746,0.11363 0.27803,0.11501 0.22642,0.54457 -0.0285,0.23686 -0.43398,1.90895 -0.90117,3.71574 l -0.84944,3.28508 -1.43016,0.007 c -0.78659,0.004 -2.02148,-0.0178 -2.74419,-0.0482 z m 8.82866,0.0205 c -0.90863,-0.0268 -1.0877,-0.0698 -1.03754,-0.24905 0.0217,-0.0775 0.34088,-1.28666 0.70932,-2.68692 0.69844,-2.65449 2.54716,-9.540303 2.76107,-10.283973 0.11135,-0.38713 0.15269,-0.43688 0.42618,-0.51283 0.35128,-0.0976 1.65519,-0.10732 4.11364,-0.0307 l 1.74303,0.0543 -0.0561,0.54114 c -0.0309,0.29762 -0.36491,1.7792 -0.74235,3.292393 -0.73614,2.95134 -2.53123,9.75536 -2.58656,9.80401 -0.0443,0.039 -4.43747,0.0981 -5.33069,0.0717 z m 8.62333,-0.04 c -0.27185,-0.0981 -0.28877,-0.12641 -0.31184,-0.52262 -0.0312,-0.53514 0.16654,-1.40478 1.37981,-6.06911 1.01088,-3.886253 1.31372,-5.193963 1.31372,-5.672953 0,-0.18905 -0.0773,-0.36363 -0.24638,-0.55616 -0.29029,-0.33061 -0.31099,-0.54458 -0.0735,-0.75949 0.16404,-0.14843 0.34345,-0.15645 3.4982,-0.15645 l 3.3253,0 0.20075,0.24638 c 0.3305,0.40562 1.37002,2.58859 2.1691,4.555033 0.83479,2.05436 1.54622,3.61661 1.64695,3.61661 0.10506,0 0.53056,-1.41206 1.18789,-3.9421 0.33446,-1.287343 0.75172,-2.858023 0.92725,-3.490403 l 0.31913,-1.14978 0.77035,0.007 c 0.87202,0.008 1.87684,0.15944 2.08916,0.31469 0.13382,0.0978 0.12642,0.17776 -0.12287,1.32836 -0.5631,2.599073 -2.34147,9.426333 -2.98224,11.449063 l -0.27318,0.86234 -2.50171,-5.5e-4 c -2.83052,-5.6e-4 -3.2047,-0.0509 -3.6438,-0.49001 -0.30464,-0.30464 -0.7174,-1.19357 -2.25097,-4.84773 -0.58766,-1.40026 -1.13971,-2.71172 -1.22679,-2.91434 l -0.15831,-0.3684 -0.18565,0.49159 c -0.1021,0.27035 -0.42455,1.37854 -0.71655,2.46261 -1.40852,5.22927 -1.40759,5.22667 -1.96143,5.47166 -0.47659,0.21082 -1.74348,0.28929 -2.17241,0.13455 z m 20.25524,-0.0705 c -1.30894,-0.1381 -1.91558,-0.452 -2.26383,-1.17143 -0.10011,-0.20677 -0.16984,-0.51432 -0.16984,-0.749 0,-0.94289 1.71156,-7.65517 2.40135,-9.417373 0.75107,-1.91878 2.2156,-2.37357 7.61815,-2.36568 2.74543,0.004 5.65639,0.11881 6.23314,0.24582 0.57079,0.12571 1.11597,0.6035 1.24941,1.09493 0.0569,0.20952 0.0764,0.73113 0.0509,1.3656 -0.033,0.824503 -0.0998,1.251873 -0.33947,2.171043 -0.16411,0.62945 -0.31253,1.15861 -0.32984,1.17592 -0.12027,0.12026 -1.57643,0.2103 -3.51467,0.21732 -2.24681,0.008 -2.27856,0.006 -2.45899,-0.17401 -0.26491,-0.26412 -0.22818,-0.75123 0.15965,-2.1173 0.62101,-2.187463 0.59687,-2.285013 -0.57605,-2.327483 -0.42418,-0.0154 -0.92829,0.0144 -1.12026,0.0661 -0.30562,0.0823 -0.36971,0.14197 -0.51519,0.47962 -0.42671,0.99039 -2.41653,8.413713 -2.58525,9.644703 -0.0501,0.36535 -0.0408,0.3913 0.16854,0.47089 0.29983,0.11399 1.66136,0.0984 2.01764,-0.0231 0.3937,-0.13426 0.59356,-0.57448 0.86485,-1.90482 0.25666,-1.25866 0.23768,-1.61247 -0.11515,-2.14511 -0.50747,-0.76614 -0.44497,-0.78817 2.3722,-0.83596 2.24571,-0.0381 4.29409,0.0672 4.61134,0.23694 0.0954,0.0511 0.15095,0.17213 0.15095,0.32908 0,0.57753 -1.11218,4.4714 -1.45967,5.11049 -0.1184,0.21773 -0.29113,0.43702 -0.38385,0.4873 -0.0936,0.0508 -0.86236,0.11845 -1.72901,0.15222 -2.08301,0.0812 -9.52344,0.0691 -10.33708,-0.0167 z M 104.58478,45.505845 c -0.67631,-0.0668 -1.86092,-0.28512 -2.6262,-0.48396 -1.70209,-0.44224 -2.142962,-0.879 -2.745822,-2.72016 -0.52071,-1.59029 -0.79694,-3.23028 -1.0355,-6.14797 -0.18439,-2.25509 -0.25882,-2.63905 -0.58019,-2.99312 -0.14575,-0.16058 -0.481,-0.41711 -0.745,-0.57007 -1.61923,-0.93816 -2.98599,-2.09606 -3.73881,-3.16747 -0.6615,-0.94144 -0.76576,-1.40733 -0.76357,-3.41204 0.002,-1.83017 0.0537,-2.1503 0.52593,-3.25727 0.16913,-0.39648 0.28293,-0.56163 0.38699,-0.56163 0.15773,0 0.2134,0.16258 0.47809,1.39616 0.0775,0.36136 0.30877,1.00811 0.51385,1.43722 0.30785,0.64417 0.48201,0.88776 0.99881,1.39703 1.08211,1.06634 2.36142,1.59437 3.87248,1.59833 0.83895,0.002 0.878582,-0.006 1.323042,-0.275 0.252,-0.1525 0.78675,-0.53717 1.18833,-0.85481 2.3537,-1.86175 5.10249,-3.09232 7.21818,-3.23143 0.89348,-0.0588 1.12383,0.0166 3.16189,1.03453 1.54672,0.77251 2.33938,1.27211 3.44933,2.17405 0.42911,0.3487 0.96499,0.73273 1.19084,0.8534 0.37893,0.20247 0.48357,0.21902 1.3551,0.21435 1.63434,-0.009 2.79614,-0.45605 3.82639,-1.47317 0.86837,-0.85729 1.36387,-1.80472 1.67516,-3.20301 0.11135,-0.50017 0.34736,-0.77658 0.55646,-0.65172 0.21082,0.1259 0.56859,0.89 0.76659,1.63724 0.24296,0.91691 0.24388,2.44376 0.002,3.36721 -0.24321,0.92865 -0.76035,1.91087 -1.33791,2.54118 -0.52031,0.56782 -1.67783,1.46832 -3.37394,2.62478 -0.65068,0.44364 -1.04723,0.76688 -1.04739,0.85376 -9.7e-4,0.30243 -0.25328,3.88495 -0.33137,4.69786 -0.27648,2.87793 -0.87209,4.91258 -1.66267,5.67983 -0.58898,0.57158 -2.0701,1.15516 -3.5181,1.38617 -0.57946,0.0924 -8.21404,0.1857 -8.98301,0.10973 z m 0.19484,-2.30817 c -0.062,-0.0782 -0.64526,-0.75268 -1.29614,-1.49882 -0.65089,-0.74615 -1.40364,-1.63381 -1.67278,-1.97258 -0.26914,-0.33877 -0.50248,-0.63037 -0.51854,-0.648 -0.016,-0.0176 -0.1781,0.10248 -0.3601,0.26691 -0.182,0.16443 -0.41714,0.29896 -0.52252,0.29896 -0.10538,0 -0.36466,-0.13482 -0.576172,-0.29961 -0.21151,-0.16479 -0.40778,-0.2764 -0.43614,-0.24804 -0.0827,0.0827 0.2738,0.93054 0.5942,1.41325 0.456272,0.6874 1.209042,1.15251 1.390402,0.85907 0.0685,-0.11083 0.42124,-0.10391 0.64188,0.0126 0.0987,0.0521 0.3926,0.25806 0.6532,0.45771 0.45817,0.35102 2.12268,1.49221 2.18484,1.49793 0.0168,0.002 -0.0202,-0.0612 -0.0821,-0.13938 z m 4.7089,-0.77473 c 0.97943,-1.0023 2.09769,-2.38076 3.29551,-4.06233 0.48677,-0.68335 0.97406,-1.3261 1.08288,-1.42833 0.2258,-0.21213 0.23518,-0.21274 1.86447,-0.12263 l 1.20923,0.0669 0.35118,-0.73097 0.35119,-0.73097 0.0272,-1.3551 0.0272,-1.35509 -0.99617,-0.9034 -0.99618,-0.9034 0.0639,-0.53382 c 0.14998,-1.25302 0.0213,-1.57397 -1.07081,-2.67129 -0.89522,-0.89948 -1.18188,-1.10736 -1.29046,-0.93581 -0.0406,0.0642 -0.0744,0.86056 -0.0751,1.76972 -9.7e-4,1.29892 -0.0254,1.67303 -0.11386,1.74647 -0.0847,0.0703 -0.24243,0.0638 -0.63649,-0.0263 -1.67728,-0.38329 -6.45623,-0.38356 -8.11438,-5.5e-4 -0.37157,0.0858 -0.55333,0.0961 -0.61463,0.0348 -0.0576,-0.0576 -0.079,-0.71443 -0.0633,-1.9426 l 0.0237,-1.85556 -0.31249,0.24817 c -0.70614,0.56079 -1.76828,1.62251 -1.91931,1.91854 -0.1175,0.23032 -0.17968,0.58604 -0.22818,1.30536 -0.077,1.14183 -0.10524,1.19884 -0.92241,1.86138 -1.190442,0.96519 -1.351892,2.04578 -0.639032,4.27719 l 0.243112,0.76103 1.57969,-0.0547 1.5797,-0.0547 0.15359,0.23814 c 0.41302,0.64037 2.60216,3.50253 3.39907,4.44408 0.84955,1.00376 1.68555,1.83043 1.85106,1.83043 0.0409,0 0.44144,-0.37566 0.89011,-0.83479 z m -1.27027,-2.031 c -0.19121,-0.22725 -2.27837,-3.56756 -2.27837,-3.64633 0,-0.16162 3.3898,-0.35672 4.50606,-0.25935 0.53803,0.0469 0.66767,0.0842 0.66657,0.19138 -0.003,0.33079 -1.6936,3.11076 -2.24051,3.68512 -0.31204,0.3277 -0.39928,0.33159 -0.65375,0.0292 z m 5.80147,1.77505 c 0.99372,-0.66548 1.36307,-0.82075 1.79793,-0.75585 0.46172,0.0689 0.79692,-0.15837 1.26561,-0.85816 0.33605,-0.50175 0.72986,-1.38202 0.65277,-1.4591 -0.0198,-0.0198 -0.21948,0.096 -0.44386,0.25718 -0.49732,0.35729 -0.69426,0.36598 -1.0579,0.0467 -0.15433,-0.13551 -0.30965,-0.24638 -0.34515,-0.24638 -0.0355,0 -0.26397,0.24946 -0.50773,0.55436 -0.24377,0.3049 -0.96357,1.14567 -1.59958,1.86839 -0.63599,0.72272 -1.18915,1.36774 -1.22922,1.43338 -0.0888,0.14547 0.48992,-0.18609 1.46713,-0.84052 z"
       id="path3050"
       inkscape:connector-curvature="0" />
    <text
       xml:space="preserve"
       style="font-size:9.59465218px;font-style:italic;font-variant:normal;font-weight:bold;font-stretch:normal;line-height:125%;letter-spacing:0px;word-spacing:0px;fill:#000000;fill-opacity:1;stroke:none;font-family:Apple Chancery;-inkscape-font-specification:Apple Chancery Bold Italic"
       x="78.919106"
       y="80.68383"
       id="text3229"
       sodipodi:linespacing="125%"><tspan
         sodipodi:role="line"
         id="tspan3231"
         x="78.919106"
         y="80.68383">Digital Dash </tspan></text>
    <text
       xml:space="preserve"
       style="font-size:7.19598913px;font-style:italic;font-variant:normal;font-weight:bold;font-stretch:normal;line-height:125%;letter-spacing:0px;word-spacing:0px;fill:#000000;fill-opacity:1;stroke:none;font-family:Apple Chancery;-inkscape-font-specification:Apple Chancery Bold Italic"
       x="91.576645"
       y="88.932938"
       id="text3233"
       sodipodi:linespacing="125%"><tspan
         sodipodi:role="line"
         id="tspan3235"
         x="91.576645"
         y="88.932938">Rev - ver .1</tspan></text>
  </g>
</svg>
