  0
SECTION
  2
HEADER
  9
$ACADVER
  1
AC1014
  9
$HANDSEED
  5
FFFF
  9
$MEASUREMENT
 70
     1
  0
ENDSEC
  0
SECTION
  2
TABLES
  0
TABLE
  2
VPORT
  5
8
330
0
100
AcDbSymbolTable
 70
     4
  0
VPORT
  5
2E
330
8
100
AcDbSymbolTableRecord
100
AcDbViewportTableRecord
  2
*ACTIVE
 70
     0
 10
0.0
 20
0.0
 11
1.0
 21
1.0
 12
210.0
 22
148.5
 13
0.0
 23
0.0
 14
10.0
 24
10.0
 15
10.0
 25
10.0
 16
0.0
 26
0.0
 36
1.0
 17
0.0
 27
0.0
 37
0.0
 40
341.0
 41
1.24
 42
50.0
 43
0.0
 44
0.0
 50
0.0
 51
0.0
 71
     0
 72
   100
 73
     1
 74
     3
 75
     0
 76
     0
 77
     0
 78
     0
  0
ENDTAB
  0
TABLE
  2
LTYPE
  5
5
330
0
100
AcDbSymbolTable
 70
     1
  0
LTYPE
  5
14
330
5
100
AcDbSymbolTableRecord
100
AcDbLinetypeTableRecord
  2
BYBLOCK
 70
     0
  3

 72
    65
 73
     0
 40
0.0
  0
LTYPE
  5
15
330
5
100
AcDbSymbolTableRecord
100
AcDbLinetypeTableRecord
  2
BYLAYER
 70
     0
  3

 72
    65
 73
     0
 40
0.0
  0
LTYPE
  5
16
330
5
100
AcDbSymbolTableRecord
100
AcDbLinetypeTableRecord
  2
CONTINUOUS
 70
     0
  3
Solid line
 72
    65
 73
     0
 40
0.0
  0
ENDTAB
  0
TABLE
  2
LAYER
  5
2
100
AcDbSymbolTable
 70
2
  0
LAYER
  5
50
100
AcDbSymbolTableRecord
100
AcDbLayerTableRecord
  2
0
 70
0
  6
CONTINUOUS
  0
LAYER
  5
51
100
AcDbSymbolTableRecord
100
AcDbLayerTableRecord
  2
Layer_1
 70
0
  6
CONTINUOUS
  0
ENDTAB
  0
TABLE
  2
STYLE
  5
3
330
0
100
AcDbSymbolTable
 70
     1
  0
STYLE
  5
11
330
3
100
AcDbSymbolTableRecord
100
AcDbTextStyleTableRecord
  2
STANDARD
 70
     0
 40
0.0
 41
1.0
 50
0.0
 71
     0
 42
2.5
  3
txt
  4

  0
ENDTAB
  0
TABLE
  2
VIEW
  5
6
330
0
100
AcDbSymbolTable
 70
     0
  0
ENDTAB
  0
TABLE
  2
UCS
  5
7
330
0
100
AcDbSymbolTable
 70
     0
  0
ENDTAB
  0
TABLE
  2
APPID
  5
9
330
0
100
AcDbSymbolTable
 70
     2
  0
APPID
  5
12
330
9
100
AcDbSymbolTableRecord
100
AcDbRegAppTableRecord
  2
ACAD
 70
     0
  0
ENDTAB
  0
TABLE
  2
DIMSTYLE
  5
A
330
0
100
AcDbSymbolTable
 70
     1
  0
DIMSTYLE
105
27
330
A
100
AcDbSymbolTableRecord
100
AcDbDimStyleTableRecord
  2
ISO-25
 70
     0
  3

  4

  5

  6

  7

 40
1.0
 41
2.5
 42
0.625
 43
3.75
 44
1.25
 45
0.0
 46
0.0
 47
0.0
 48
0.0
140
2.5
141
2.5
142
0.0
143
0.03937007874016
144
1.0
145
0.0
146
1.0
147
0.625
 71
     0
 72
     0
 73
     0
 74
     0
 75
     0
 76
     0
 77
     1
 78
     8
170
     0
171
     3
172
     1
173
     0
174
     0
175
     0
176
     0
177
     0
178
     0
270
     2
271
     2
272
     2
273
     2
274
     3
340
11
275
     0
280
     0
281
     0
282
     0
283
     0
284
     8
285
     0
286
     0
287
     3
288
     0
  0
ENDTAB
  0
TABLE
  2
BLOCK_RECORD
  5
1
330
0
100
AcDbSymbolTable
 70
     1
  0
BLOCK_RECORD
  5
1F
330
1
100
AcDbSymbolTableRecord
100
AcDbBlockTableRecord
  2
*MODEL_SPACE
  0
BLOCK_RECORD
  5
1B
330
1
100
AcDbSymbolTableRecord
100
AcDbBlockTableRecord
  2
*PAPER_SPACE
  0
ENDTAB
  0
ENDSEC
  0
SECTION
  2
BLOCKS
  0
BLOCK
  5
20
330
1F
100
AcDbEntity
  8
0
100
AcDbBlockBegin
  2
*MODEL_SPACE
 70
     0
 10
0.0
 20
0.0
 30
0.0
  3
*MODEL_SPACE
  1

  0
ENDBLK
  5
21
330
1F
100
AcDbEntity
  8
0
100
AcDbBlockEnd
  0
BLOCK
  5
1C
330
1B
100
AcDbEntity
 67
     1
  8
0
100
AcDbBlockBegin
  2
*PAPER_SPACE
  1

  0
ENDBLK
  5
1D
330
1B
100
AcDbEntity
 67
     1
  8
0
100
AcDbBlockEnd
  0
ENDSEC
  0
SECTION
  2
ENTITIES
  0
LWPOLYLINE
  5
100
100
AcDbEntity
  8
Layer_1
 62
7
100
AcDbPolyline
 90
56
 70
0
 10
26.317222
 20
290.879306
 30
0.0
 10
26.158472
 20
290.782292
 30
0.0
 10
26.079097
 20
290.632361
 30
0.0
 10
25.920347
 20
289.662222
 30
0.0
 10
25.964444
 20
289.036042
 30
0.0
 10
26.167292
 20
288.612708
 30
0.0
 10
27.260903
 20
287.677847
 30
0.0
 10
27.437292
 20
287.545556
 30
0.0
 10
27.499028
 20
287.395625
 30
0.0
 10
27.569583
 20
286.787083
 30
0.0
 10
27.869444
 20
285.014375
 30
0.0
 10
28.169306
 20
284.432292
 30
0.0
 10
28.742569
 20
284.158889
 30
0.0
 10
29.501042
 20
284.017778
 30
0.0
 10
29.518681
 20
284.017778
 30
0.0
 10
29.977292
 20
284.008958
 30
0.0
 10
30.806319
 20
284.017778
 30
0.0
 10
31.617708
 20
284.026597
 30
0.0
 10
31.908750
 20
284.035417
 30
0.0
 10
32.076319
 20
284.053056
 30
0.0
 10
33.143472
 20
284.476389
 30
0.0
 10
33.469792
 20
285.120208
 30
0.0
 10
33.655000
 20
286.169722
 30
0.0
 10
33.707917
 20
286.892917
 30
0.0
 10
33.734361
 20
287.289792
 30
0.0
 10
33.752000
 20
287.457361
 30
0.0
 10
33.778444
 20
287.483819
 30
0.0
 10
33.981291
 20
287.633750
 30
0.0
 10
34.960250
 20
288.392222
 30
0.0
 10
35.365944
 20
289.168333
 30
0.0
 10
35.365944
 20
290.191389
 30
0.0
 10
35.251291
 20
290.517708
 30
0.0
 10
35.180736
 20
290.641181
 30
0.0
 10
35.083722
 20
290.738194
 30
0.0
 10
34.933791
 20
290.764653
 30
0.0
 10
34.819138
 20
290.685278
 30
0.0
 10
34.722125
 20
290.464792
 30
0.0
 10
34.289972
 20
289.635764
 30
0.0
 10
33.302194
 20
289.256528
 30
0.0
 10
33.081708
 20
289.265347
 30
0.0
 10
32.993513
 20
289.300625
 30
0.0
 10
32.676013
 20
289.529931
 30
0.0
 10
31.679416
 20
290.156111
 30
0.0
 10
31.088513
 20
290.420694
 30
0.0
 10
30.709277
 20
290.464792
 30
0.0
 10
28.592611
 20
289.521111
 30
0.0
 10
28.275111
 20
289.291806
 30
0.0
 10
28.178097
 20
289.238889
 30
0.0
 10
27.975250
 20
289.230069
 30
0.0
 10
26.978652
 20
289.644583
 30
0.0
 10
26.731708
 20
289.997361
 30
0.0
 10
26.590597
 20
290.376597
 30
0.0
 10
26.511222
 20
290.711736
 30
0.0
 10
26.458305
 20
290.817569
 30
0.0
 10
26.317194
 20
290.879306
 30
0.0
 10
26.317222
 20
290.879306
 30
0.0
  0
LWPOLYLINE
  5
101
100
AcDbEntity
  8
Layer_1
 62
7
100
AcDbPolyline
 90
180
 70
0
 10
34.995556
 20
290.394236
 30
0.0
 10
35.092569
 20
290.120833
 30
0.0
 10
35.092569
 20
289.238889
 30
0.0
 10
34.748611
 20
288.586250
 30
0.0
 10
33.822569
 20
287.863056
 30
0.0
 10
33.593264
 20
287.704306
 30
0.0
 10
33.522708
 20
287.633750
 30
0.0
 10
33.496264
 20
287.598472
 30
0.0
 10
33.469820
 20
287.510278
 30
0.0
 10
33.452181
 20
287.307431
 30
0.0
 10
33.425737
 20
286.910556
 30
0.0
 10
33.372820
 20
286.196181
 30
0.0
 10
33.346376
 20
286.037431
 30
0.0
 10
33.328737
 20
286.063889
 30
0.0
 10
33.275820
 20
286.099167
 30
0.0
 10
33.240543
 20
286.107986
 30
0.0
 10
33.196445
 20
286.107986
 30
0.0
 10
33.161168
 20
286.090347
 30
0.0
 10
33.117070
 20
286.072708
 30
0.0
 10
33.020056
 20
286.010972
 30
0.0
 10
32.931862
 20
285.958056
 30
0.0
 10
32.896584
 20
285.984514
 30
0.0
 10
32.826029
 20
286.046250
 30
0.0
 10
32.790751
 20
286.063889
 30
0.0
 10
32.702556
 20
286.090347
 30
0.0
 10
32.676112
 20
286.090347
 30
0.0
 10
32.658473
 20
286.081528
 30
0.0
 10
32.640834
 20
286.072708
 30
0.0
 10
32.614390
 20
286.063889
 30
0.0
 10
32.596751
 20
286.037431
 30
0.0
 10
32.552654
 20
286.002153
 30
0.0
 10
32.455640
 20
285.878681
 30
0.0
 10
32.005849
 20
285.358333
 30
0.0
 10
31.767724
 20
285.084931
 30
0.0
 10
31.688349
 20
284.996736
 30
0.0
 10
31.661904
 20
284.961458
 30
0.0
 10
31.644265
 20
284.935000
 30
0.0
 10
31.617821
 20
284.864444
 30
0.0
 10
31.626627
 20
284.829167
 30
0.0
 10
31.644265
 20
284.785069
 30
0.0
 10
31.679543
 20
284.740972
 30
0.0
 10
31.714821
 20
284.723333
 30
0.0
 10
31.794196
 20
284.714514
 30
0.0
 10
31.829474
 20
284.723333
 30
0.0
 10
31.926488
 20
284.776250
 30
0.0
 10
32.261627
 20
284.979097
 30
0.0
 10
32.543849
 20
285.155486
 30
0.0
 10
32.667321
 20
285.173125
 30
0.0
 10
32.940724
 20
285.234861
 30
0.0
 10
33.161210
 20
285.472986
 30
0.0
 10
33.284682
 20
285.702292
 30
0.0
 10
33.196488
 20
285.199583
 30
0.0
 10
32.949543
 20
284.679236
 30
0.0
 10
32.032321
 20
284.326458
 30
0.0
 10
31.900029
 20
284.317639
 30
0.0
 10
31.608988
 20
284.308819
 30
0.0
 10
30.806418
 20
284.300000
 30
0.0
 10
29.977390
 20
284.291181
 30
0.0
 10
29.527599
 20
284.300000
 30
0.0
 10
29.518793
 20
284.300000
 30
0.0
 10
28.813238
 20
284.432292
 30
0.0
 10
28.372266
 20
284.626319
 30
0.0
 10
28.134141
 20
285.102569
 30
0.0
 10
28.054766
 20
285.578819
 30
0.0
 10
28.098863
 20
285.490625
 30
0.0
 10
28.372266
 20
285.226042
 30
0.0
 10
28.531016
 20
285.164306
 30
0.0
 10
28.733863
 20
285.252500
 30
0.0
 10
28.680946
 20
285.208403
 30
0.0
 10
28.725043
 20
285.199583
 30
0.0
 10
28.892613
 20
285.076111
 30
0.0
 10
29.245391
 20
284.829167
 30
0.0
 10
29.430599
 20
284.705694
 30
0.0
 10
29.492335
 20
284.661597
 30
0.0
 10
29.518779
 20
284.652778
 30
0.0
 10
29.527585
 20
284.643958
 30
0.0
 10
29.545224
 20
284.635139
 30
0.0
 10
29.554029
 20
284.635139
 30
0.0
 10
29.580473
 20
284.626319
 30
0.0
 10
29.615751
 20
284.626319
 30
0.0
 10
29.668668
 20
284.643958
 30
0.0
 10
29.712765
 20
284.688056
 30
0.0
 10
29.730404
 20
284.732153
 30
0.0
 10
29.739209
 20
284.767431
 30
0.0
 10
29.739209
 20
284.785069
 30
0.0
 10
29.730404
 20
284.811528
 30
0.0
 10
29.712765
 20
284.855625
 30
0.0
 10
29.677487
 20
284.899722
 30
0.0
 10
29.642209
 20
284.952639
 30
0.0
 10
29.633404
 20
284.952639
 30
0.0
 10
29.554029
 20
285.040833
 30
0.0
 10
29.315904
 20
285.323056
 30
0.0
 10
28.839654
 20
285.878681
 30
0.0
 10
28.742640
 20
286.002153
 30
0.0
 10
28.707362
 20
286.046250
 30
0.0
 10
28.689723
 20
286.063889
 30
0.0
 10
28.636807
 20
286.107986
 30
0.0
 10
28.610362
 20
286.107986
 30
0.0
 10
28.592724
 20
286.116806
 30
0.0
 10
28.539807
 20
286.107986
 30
0.0
 10
28.504529
 20
286.090347
 30
0.0
 10
28.469251
 20
286.063889
 30
0.0
 10
28.389876
 20
286.002153
 30
0.0
 10
28.336960
 20
285.958056
 30
0.0
 10
28.266404
 20
286.010972
 30
0.0
 10
28.160571
 20
286.072708
 30
0.0
 10
28.116474
 20
286.099167
 30
0.0
 10
28.072376
 20
286.107986
 30
0.0
 10
27.975362
 20
286.072708
 30
0.0
 10
27.851890
 20
286.804722
 30
0.0
 10
27.781335
 20
287.448542
 30
0.0
 10
27.649043
 20
287.739583
 30
0.0
 10
27.402099
 20
287.924792
 30
0.0
 10
26.396682
 20
288.780278
 30
0.0
 10
26.237932
 20
289.097778
 30
0.0
 10
26.202654
 20
289.662222
 30
0.0
 10
26.308487
 20
290.332500
 30
0.0
 10
26.317307
 20
290.314861
 30
0.0
 10
26.476057
 20
289.873889
 30
0.0
 10
26.784737
 20
289.441736
 30
0.0
 10
27.975362
 20
288.947847
 30
0.0
 10
28.231126
 20
288.965486
 30
0.0
 10
28.425154
 20
289.044861
 30
0.0
 10
28.769112
 20
289.300625
 30
0.0
 10
28.945501
 20
289.406458
 30
0.0
 10
28.777932
 20
289.256528
 30
0.0
 10
28.636821
 20
289.106597
 30
0.0
 10
28.539807
 20
288.974306
 30
0.0
 10
28.460432
 20
288.559792
 30
0.0
 10
28.425154
 20
288.295208
 30
0.0
 10
28.257585
 20
288.127639
 30
0.0
 10
27.913626
 20
287.572014
 30
0.0
 10
28.028279
 20
286.769444
 30
0.0
 10
28.098835
 20
286.557778
 30
0.0
 10
28.134112
 20
286.451944
 30
0.0
 10
28.239946
 20
286.460764
 30
0.0
 10
28.680918
 20
286.469583
 30
0.0
 10
29.051335
 20
286.487222
 30
0.0
 10
30.021474
 20
285.217222
 30
0.0
 10
30.356612
 20
284.846806
 30
0.0
 10
30.488904
 20
284.723333
 30
0.0
 10
30.550640
 20
284.679236
 30
0.0
 10
30.647654
 20
284.652778
 30
0.0
 10
30.682932
 20
284.652778
 30
0.0
 10
30.700571
 20
284.661597
 30
0.0
 10
30.718210
 20
284.670417
 30
0.0
 10
30.735849
 20
284.679236
 30
0.0
 10
30.762293
 20
284.705694
 30
0.0
 10
30.824029
 20
284.758611
 30
0.0
 10
31.000418
 20
284.926181
 30
0.0
 10
31.944098
 20
286.090347
 30
0.0
 10
32.138126
 20
286.354931
 30
0.0
 10
32.208682
 20
286.443125
 30
0.0
 10
32.235126
 20
286.478403
 30
0.0
 10
32.261570
 20
286.487222
 30
0.0
 10
32.658445
 20
286.469583
 30
0.0
 10
32.993584
 20
286.451944
 30
0.0
 10
33.090598
 20
286.443125
 30
0.0
 10
33.134695
 20
286.531319
 30
0.0
 10
33.231709
 20
286.734167
 30
0.0
 10
33.328723
 20
286.945833
 30
0.0
 10
33.346362
 20
286.972292
 30
0.0
 10
33.346362
 20
286.998750
 30
0.0
 10
33.346362
 20
287.386806
 30
0.0
 10
33.355167
 20
287.766042
 30
0.0
 10
33.355167
 20
287.827778
 30
0.0
 10
33.311070
 20
287.871875
 30
0.0
 10
33.028848
 20
288.127639
 30
0.0
 10
32.799542
 20
288.339306
 30
0.0
 10
32.808347
 20
288.409861
 30
0.0
 10
32.781903
 20
288.877292
 30
0.0
 10
32.473223
 20
289.282986
 30
0.0
 10
32.340931
 20
289.406458
 30
0.0
 10
32.499681
 20
289.309444
 30
0.0
 10
32.852459
 20
289.053681
 30
0.0
 10
33.037667
 20
288.983125
 30
0.0
 10
33.302250
 20
288.974306
 30
0.0
 10
34.484056
 20
289.432917
 30
0.0
 10
34.995584
 20
290.394236
 30
0.0
 10
34.995556
 20
290.394236
 30
0.0
  0
LWPOLYLINE
  5
102
100
AcDbEntity
  8
Layer_1
 62
7
100
AcDbPolyline
 90
19
 70
0
 10
30.726944
 20
290.182569
 30
0.0
 10
31.000347
 20
290.156111
 30
0.0
 10
31.547153
 20
289.900347
 30
0.0
 10
32.049861
 20
289.591667
 30
0.0
 10
31.891111
 20
289.521111
 30
0.0
 10
31.864667
 20
289.459375
 30
0.0
 10
31.855862
 20
289.415278
 30
0.0
 10
31.847056
 20
289.291806
 30
0.0
 10
31.847056
 20
288.947847
 30
0.0
 10
31.838251
 20
288.595069
 30
0.0
 10
31.802973
 20
288.603889
 30
0.0
 10
29.448181
 20
288.603889
 30
0.0
 10
29.430543
 20
288.603889
 30
0.0
 10
29.430543
 20
288.612708
 30
0.0
 10
29.430543
 20
289.000764
 30
0.0
 10
29.439348
 20
289.521111
 30
0.0
 10
29.439348
 20
289.706319
 30
0.0
 10
30.726987
 20
290.182569
 30
0.0
 10
30.726944
 20
290.182569
 30
0.0
  0
LWPOLYLINE
  5
103
100
AcDbEntity
  8
Layer_1
 62
7
100
AcDbPolyline
 90
53
 70
0
 10
32.129236
 20
289.221250
 30
0.0
 10
32.270347
 20
289.088958
 30
0.0
 10
32.526111
 20
288.771458
 30
0.0
 10
32.534916
 20
288.445139
 30
0.0
 10
32.517278
 20
288.295208
 30
0.0
 10
32.508472
 20
288.224653
 30
0.0
 10
32.561389
 20
288.171736
 30
0.0
 10
32.843611
 20
287.924792
 30
0.0
 10
33.072917
 20
287.721944
 30
0.0
 10
33.064111
 20
287.386806
 30
0.0
 10
33.064111
 20
287.051667
 30
0.0
 10
32.975917
 20
286.857639
 30
0.0
 10
32.923000
 20
286.742986
 30
0.0
 10
32.667222
 20
286.751806
 30
0.0
 10
32.243889
 20
286.769444
 30
0.0
 10
32.041042
 20
286.681250
 30
0.0
 10
31.988125
 20
286.619514
 30
0.0
 10
31.908750
 20
286.522500
 30
0.0
 10
31.714722
 20
286.257917
 30
0.0
 10
30.797500
 20
285.129028
 30
0.0
 10
30.647569
 20
284.970278
 30
0.0
 10
30.559375
 20
285.040833
 30
0.0
 10
30.233056
 20
285.402431
 30
0.0
 10
29.289375
 20
286.637153
 30
0.0
 10
29.245278
 20
286.707708
 30
0.0
 10
29.201181
 20
286.769444
 30
0.0
 10
29.121806
 20
286.769444
 30
0.0
 10
28.672014
 20
286.751806
 30
0.0
 10
28.336875
 20
286.742986
 30
0.0
 10
28.301597
 20
286.857639
 30
0.0
 10
28.195764
 20
287.527917
 30
0.0
 10
28.433889
 20
287.907153
 30
0.0
 10
28.680833
 20
288.171736
 30
0.0
 10
28.742569
 20
288.533333
 30
0.0
 10
28.795486
 20
288.850833
 30
0.0
 10
28.848403
 20
288.921389
 30
0.0
 10
28.980694
 20
289.053681
 30
0.0
 10
29.148264
 20
289.212431
 30
0.0
 10
29.148264
 20
289.000764
 30
0.0
 10
29.148264
 20
288.603889
 30
0.0
 10
29.157069
 20
288.480417
 30
0.0
 10
29.165875
 20
288.436319
 30
0.0
 10
29.209972
 20
288.356944
 30
0.0
 10
29.368722
 20
288.304028
 30
0.0
 10
29.518652
 20
288.330486
 30
0.0
 10
31.741152
 20
288.330486
 30
0.0
 10
31.891083
 20
288.304028
 30
0.0
 10
32.041013
 20
288.348125
 30
0.0
 10
32.102750
 20
288.462778
 30
0.0
 10
32.120388
 20
288.559792
 30
0.0
 10
32.129194
 20
288.947847
 30
0.0
 10
32.129194
 20
289.221250
 30
0.0
 10
32.129236
 20
289.221250
 30
0.0
  0
LWPOLYLINE
  5
104
100
AcDbEntity
  8
Layer_1
 62
7
100
AcDbPolyline
 90
31
 70
0
 10
31.185556
 20
286.840000
 30
0.0
 10
30.409444
 20
286.831181
 30
0.0
 10
30.039028
 20
286.804722
 30
0.0
 10
29.906736
 20
286.787083
 30
0.0
 10
29.853819
 20
286.769444
 30
0.0
 10
29.809722
 20
286.742986
 30
0.0
 10
29.756806
 20
286.628333
 30
0.0
 10
29.756806
 20
286.610694
 30
0.0
 10
29.765611
 20
286.593056
 30
0.0
 10
29.765611
 20
286.584236
 30
0.0
 10
29.774416
 20
286.566597
 30
0.0
 10
29.783222
 20
286.548958
 30
0.0
 10
29.800860
 20
286.513681
 30
0.0
 10
29.871416
 20
286.399028
 30
0.0
 10
30.083083
 20
286.055069
 30
0.0
 10
30.303569
 20
285.711111
 30
0.0
 10
30.382944
 20
285.587639
 30
0.0
 10
30.400583
 20
285.561181
 30
0.0
 10
30.400583
 20
285.552361
 30
0.0
 10
30.435860
 20
285.508264
 30
0.0
 10
30.506416
 20
285.437708
 30
0.0
 10
30.629888
 20
285.393611
 30
0.0
 10
30.823916
 20
285.508264
 30
0.0
 10
31.220791
 20
286.081528
 30
0.0
 10
31.405999
 20
286.407847
 30
0.0
 10
31.467735
 20
286.531319
 30
0.0
 10
31.503013
 20
286.645972
 30
0.0
 10
31.450097
 20
286.769444
 30
0.0
 10
31.361902
 20
286.813542
 30
0.0
 10
31.185556
 20
286.840000
 30
0.0
 10
31.185556
 20
286.840000
 30
0.0
  0
LWPOLYLINE
  5
105
100
AcDbEntity
  8
Layer_1
 62
7
100
AcDbPolyline
 90
13
 70
0
 10
31.159111
 20
286.566597
 30
0.0
 10
31.159111
 20
286.557778
 30
0.0
 10
31.167917
 20
286.557778
 30
0.0
 10
31.159111
 20
286.531319
 30
0.0
 10
30.982722
 20
286.231458
 30
0.0
 10
30.629945
 20
285.711111
 30
0.0
 10
30.612306
 20
285.737569
 30
0.0
 10
30.532931
 20
285.861042
 30
0.0
 10
30.321264
 20
286.205000
 30
0.0
 10
30.118417
 20
286.522500
 30
0.0
 10
30.427097
 20
286.548958
 30
0.0
 10
31.159111
 20
286.566597
 30
0.0
 10
31.159111
 20
286.566597
 30
0.0
  0
LWPOLYLINE
  5
106
100
AcDbEntity
  8
Layer_1
 62
7
100
AcDbPolyline
 90
13
 70
0
 10
28.566195
 20
285.772847
 30
0.0
 10
28.619111
 20
285.702292
 30
0.0
 10
28.830778
 20
285.455347
 30
0.0
 10
28.689667
 20
285.490625
 30
0.0
 10
28.601472
 20
285.481806
 30
0.0
 10
28.557375
 20
285.446528
 30
0.0
 10
28.522097
 20
285.464167
 30
0.0
 10
28.336889
 20
285.649375
 30
0.0
 10
28.328084
 20
285.667014
 30
0.0
 10
28.336889
 20
285.667014
 30
0.0
 10
28.469181
 20
285.711111
 30
0.0
 10
28.566195
 20
285.772847
 30
0.0
 10
28.566195
 20
285.772847
 30
0.0
  0
LWPOLYLINE
  5
107
100
AcDbEntity
  8
Layer_1
 62
7
100
AcDbPolyline
 90
10
 70
0
 10
32.728972
 20
285.764028
 30
0.0
 10
32.949459
 20
285.675833
 30
0.0
 10
32.923014
 20
285.631736
 30
0.0
 10
32.781903
 20
285.472986
 30
0.0
 10
32.711348
 20
285.455347
 30
0.0
 10
32.437945
 20
285.411250
 30
0.0
 10
32.411501
 20
285.393611
 30
0.0
 10
32.676084
 20
285.702292
 30
0.0
 10
32.729001
 20
285.764028
 30
0.0
 10
32.728972
 20
285.764028
 30
0.0
  0
LWPOLYLINE
  5
108
100
AcDbEntity
  8
Layer_1
 62
7
100
AcDbPolyline
 90
50
 70
0
 10
37.570847
 20
283.250486
 30
0.0
 10
37.544403
 20
283.153472
 30
0.0
 10
37.456209
 20
282.827153
 30
0.0
 10
37.191625
 20
281.839375
 30
0.0
 10
36.971139
 20
281.036806
 30
0.0
 10
36.662459
 20
281.760000
 30
0.0
 10
36.300862
 20
282.580208
 30
0.0
 10
36.142112
 20
282.888889
 30
0.0
 10
36.027459
 20
283.082917
 30
0.0
 10
35.965723
 20
283.153472
 30
0.0
 10
35.930445
 20
283.206389
 30
0.0
 10
35.859889
 20
283.206389
 30
0.0
 10
34.925028
 20
283.206389
 30
0.0
 10
34.104820
 20
283.197569
 30
0.0
 10
33.946070
 20
283.179931
 30
0.0
 10
33.840237
 20
283.127014
 30
0.0
 10
33.752042
 20
282.915347
 30
0.0
 10
33.849056
 20
282.712500
 30
0.0
 10
33.884334
 20
282.650764
 30
0.0
 10
33.804959
 20
282.245069
 30
0.0
 10
33.513917
 20
281.080903
 30
0.0
 10
33.125862
 20
279.325833
 30
0.0
 10
33.161139
 20
279.158264
 30
0.0
 10
33.240514
 20
279.087708
 30
0.0
 10
33.302250
 20
279.052431
 30
0.0
 10
33.663848
 20
279.025972
 30
0.0
 10
34.025445
 20
279.096528
 30
0.0
 10
34.166556
 20
279.193542
 30
0.0
 10
34.281209
 20
279.422847
 30
0.0
 10
34.651625
 20
280.736944
 30
0.0
 10
34.792737
 20
281.195556
 30
0.0
 10
35.030862
 20
280.622292
 30
0.0
 10
35.701139
 20
279.211181
 30
0.0
 10
36.045098
 20
279.052431
 30
0.0
 10
36.830028
 20
279.025972
 30
0.0
 10
37.535584
 20
279.025972
 30
0.0
 10
37.641417
 20
279.025972
 30
0.0
 10
37.667861
 20
279.131806
 30
0.0
 10
37.747236
 20
279.369931
 30
0.0
 10
38.193607
 20
280.986689
 30
0.0
 10
38.593903
 20
282.615486
 30
0.0
 10
38.646820
 20
282.932986
 30
0.0
 10
38.638014
 20
283.047639
 30
0.0
 10
38.567459
 20
283.135833
 30
0.0
 10
38.443987
 20
283.188750
 30
0.0
 10
38.285237
 20
283.224028
 30
0.0
 10
37.897181
 20
283.250486
 30
0.0
 10
37.685514
 20
283.250486
 30
0.0
 10
37.570862
 20
283.250486
 30
0.0
 10
37.570847
 20
283.250486
 30
0.0
  0
LWPOLYLINE
  5
109
100
AcDbEntity
  8
Layer_1
 62
7
100
AcDbPolyline
 90
80
 70
0
 10
26.969875
 20
283.215208
 30
0.0
 10
26.087931
 20
283.206389
 30
0.0
 10
25.885084
 20
283.188750
 30
0.0
 10
25.805709
 20
283.162292
 30
0.0
 10
25.717514
 20
283.074097
 30
0.0
 10
25.708695
 20
282.985903
 30
0.0
 10
25.717514
 20
282.950625
 30
0.0
 10
25.743972
 20
282.888889
 30
0.0
 10
25.832167
 20
282.738958
 30
0.0
 10
25.902722
 20
282.606667
 30
0.0
 10
25.902722
 20
282.518472
 30
0.0
 10
25.876264
 20
282.386181
 30
0.0
 10
25.805709
 20
282.095139
 30
0.0
 10
25.585222
 20
281.222014
 30
0.0
 10
25.135431
 20
279.352292
 30
0.0
 10
25.126611
 20
279.290556
 30
0.0
 10
25.153070
 20
279.184722
 30
0.0
 10
25.285361
 20
279.087708
 30
0.0
 10
25.735153
 20
279.043611
 30
0.0
 10
26.528903
 20
279.061250
 30
0.0
 10
26.846403
 20
279.070069
 30
0.0
 10
26.952236
 20
279.078889
 30
0.0
 10
26.987514
 20
279.087708
 30
0.0
 10
27.049250
 20
279.105347
 30
0.0
 10
27.075709
 20
279.122986
 30
0.0
 10
27.084528
 20
279.140625
 30
0.0
 10
27.102167
 20
279.149444
 30
0.0
 10
27.110986
 20
279.167083
 30
0.0
 10
27.119806
 20
279.193542
 30
0.0
 10
27.137445
 20
279.237639
 30
0.0
 10
27.181542
 20
279.369931
 30
0.0
 10
27.313834
 20
279.802083
 30
0.0
 10
27.596056
 20
280.781042
 30
0.0
 10
27.772445
 20
280.781042
 30
0.0
 10
28.037028
 20
280.763403
 30
0.0
 10
28.010570
 20
280.578194
 30
0.0
 10
27.816542
 20
279.819722
 30
0.0
 10
27.745986
 20
279.378750
 30
0.0
 10
27.940014
 20
279.096528
 30
0.0
 10
28.028209
 20
279.070069
 30
0.0
 10
28.134042
 20
279.061250
 30
0.0
 10
28.231056
 20
279.052431
 30
0.0
 10
28.425084
 20
279.043611
 30
0.0
 10
29.201195
 20
279.025972
 30
0.0
 10
29.606889
 20
279.025972
 30
0.0
 10
29.712722
 20
279.034792
 30
0.0
 10
29.739167
 20
279.131806
 30
0.0
 10
29.977292
 20
280.066667
 30
0.0
 10
30.153681
 20
280.754583
 30
0.0
 10
30.215417
 20
280.992708
 30
0.0
 10
30.241861
 20
281.133819
 30
0.0
 10
30.233056
 20
281.310208
 30
0.0
 10
30.153681
 20
281.398403
 30
0.0
 10
30.091944
 20
281.433681
 30
0.0
 10
29.897917
 20
281.468958
 30
0.0
 10
30.065486
 20
281.680625
 30
0.0
 10
30.674028
 20
282.377361
 30
0.0
 10
31.044444
 20
282.818333
 30
0.0
 10
31.115000
 20
282.959444
 30
0.0
 10
31.123805
 20
283.047639
 30
0.0
 10
31.079708
 20
283.144653
 30
0.0
 10
31.053264
 20
283.162292
 30
0.0
 10
31.035625
 20
283.171111
 30
0.0
 10
31.017986
 20
283.179931
 30
0.0
 10
31.000347
 20
283.188750
 30
0.0
 10
30.973903
 20
283.188750
 30
0.0
 10
30.929806
 20
283.197569
 30
0.0
 10
30.779875
 20
283.197569
 30
0.0
 10
30.312445
 20
283.206389
 30
0.0
 10
29.483417
 20
283.162292
 30
0.0
 10
29.060084
 20
282.915347
 30
0.0
 10
28.354528
 20
282.236250
 30
0.0
 10
27.825361
 20
281.715903
 30
0.0
 10
27.984111
 20
282.342083
 30
0.0
 10
28.063486
 20
282.686042
 30
0.0
 10
28.089945
 20
282.897708
 30
0.0
 10
28.037028
 20
283.065278
 30
0.0
 10
27.843000
 20
283.179931
 30
0.0
 10
26.969875
 20
283.215208
 30
0.0
 10
26.969875
 20
283.215208
 30
0.0
  0
LWPOLYLINE
  5
10a
100
AcDbEntity
  8
Layer_1
 62
7
100
AcDbPolyline
 90
38
 70
0
 10
32.085153
 20
283.215208
 30
0.0
 10
31.688278
 20
283.188750
 30
0.0
 10
31.538347
 20
283.100556
 30
0.0
 10
31.467792
 20
282.950625
 30
0.0
 10
31.077226
 20
281.495955
 30
0.0
 10
30.691681
 20
280.040208
 30
0.0
 10
30.550570
 20
279.519861
 30
0.0
 10
30.488834
 20
279.281736
 30
0.0
 10
30.515278
 20
279.122986
 30
0.0
 10
30.638750
 20
279.061250
 30
0.0
 10
30.779861
 20
279.043611
 30
0.0
 10
30.912153
 20
279.034792
 30
0.0
 10
31.758819
 20
279.034792
 30
0.0
 10
32.217431
 20
279.043611
 30
0.0
 10
32.367361
 20
279.052431
 30
0.0
 10
32.420278
 20
279.052431
 30
0.0
 10
32.437917
 20
279.052431
 30
0.0
 10
32.455556
 20
279.061250
 30
0.0
 10
32.473194
 20
279.061250
 30
0.0
 10
32.482000
 20
279.070069
 30
0.0
 10
32.517278
 20
279.087708
 30
0.0
 10
32.543722
 20
279.114167
 30
0.0
 10
32.543722
 20
279.131806
 30
0.0
 10
32.552527
 20
279.140625
 30
0.0
 10
32.561332
 20
279.158264
 30
0.0
 10
32.570138
 20
279.175903
 30
0.0
 10
32.587777
 20
279.246458
 30
0.0
 10
32.649513
 20
279.484583
 30
0.0
 10
32.852360
 20
280.234236
 30
0.0
 10
33.293332
 20
281.927569
 30
0.0
 10
33.434443
 20
282.527292
 30
0.0
 10
33.504999
 20
282.880069
 30
0.0
 10
33.522638
 20
283.030000
 30
0.0
 10
33.531443
 20
283.179931
 30
0.0
 10
33.381513
 20
283.188750
 30
0.0
 10
32.887624
 20
283.206389
 30
0.0
 10
32.085054
 20
283.215208
 30
0.0
 10
32.085153
 20
283.215208
 30
0.0
  0
LWPOLYLINE
  5
10b
100
AcDbEntity
  8
Layer_1
 62
7
100
AcDbPolyline
 90
71
 70
0
 10
41.213278
 20
283.215208
 30
0.0
 10
39.599320
 20
283.082917
 30
0.0
 10
38.929042
 20
282.456736
 30
0.0
 10
38.514528
 20
281.027986
 30
0.0
 10
38.320500
 20
280.234236
 30
0.0
 10
38.241111
 20
279.749167
 30
0.0
 10
38.302847
 20
279.475764
 30
0.0
 10
38.585069
 20
279.184722
 30
0.0
 10
39.052500
 20
279.070069
 30
0.0
 10
39.114236
 20
279.070069
 30
0.0
 10
39.537569
 20
279.052431
 30
0.0
 10
40.393056
 20
279.043611
 30
0.0
 10
41.989375
 20
279.061250
 30
0.0
 10
42.324514
 20
279.078889
 30
0.0
 10
42.439167
 20
279.096528
 30
0.0
 10
42.483264
 20
279.105347
 30
0.0
 10
42.545000
 20
279.122986
 30
0.0
 10
42.633194
 20
279.211181
 30
0.0
 10
42.703750
 20
279.317014
 30
0.0
 10
42.818403
 20
279.616875
 30
0.0
 10
42.959514
 20
280.075486
 30
0.0
 10
43.082986
 20
280.525278
 30
0.0
 10
43.135903
 20
280.825139
 30
0.0
 10
43.021250
 20
281.045625
 30
0.0
 10
42.818403
 20
281.089722
 30
0.0
 10
42.509722
 20
281.116181
 30
0.0
 10
41.645417
 20
281.125000
 30
0.0
 10
41.186806
 20
281.116181
 30
0.0
 10
40.913403
 20
281.080903
 30
0.0
 10
40.807569
 20
281.001528
 30
0.0
 10
40.772292
 20
280.851597
 30
0.0
 10
40.860486
 20
280.675208
 30
0.0
 10
40.922222
 20
280.516458
 30
0.0
 10
40.878125
 20
280.172500
 30
0.0
 10
40.772292
 20
279.810903
 30
0.0
 10
40.719375
 20
279.740347
 30
0.0
 10
40.472431
 20
279.722708
 30
0.0
 10
40.322500
 20
279.722708
 30
0.0
 10
40.296056
 20
279.722708
 30
0.0
 10
40.410709
 20
280.234236
 30
0.0
 10
40.622375
 20
281.080903
 30
0.0
 10
40.860500
 20
281.918750
 30
0.0
 10
41.010431
 20
282.403819
 30
0.0
 10
41.036875
 20
282.447917
 30
0.0
 10
41.063319
 20
282.456736
 30
0.0
 10
41.336722
 20
282.465556
 30
0.0
 10
41.477833
 20
282.456736
 30
0.0
 10
41.460194
 20
282.342083
 30
0.0
 10
41.372000
 20
281.989306
 30
0.0
 10
41.274986
 20
281.548333
 30
0.0
 10
41.363180
 20
281.257292
 30
0.0
 10
41.451375
 20
281.195556
 30
0.0
 10
41.574847
 20
281.169097
 30
0.0
 10
42.156930
 20
281.160278
 30
0.0
 10
42.853666
 20
281.186736
 30
0.0
 10
43.074153
 20
281.204375
 30
0.0
 10
43.153528
 20
281.222014
 30
0.0
 10
43.250541
 20
281.266111
 30
0.0
 10
43.268180
 20
281.292569
 30
0.0
 10
43.268180
 20
281.301389
 30
0.0
 10
43.276986
 20
281.319028
 30
0.0
 10
43.285791
 20
281.327847
 30
0.0
 10
43.294596
 20
281.354306
 30
0.0
 10
43.312235
 20
281.433681
 30
0.0
 10
43.373971
 20
281.662986
 30
0.0
 10
43.479805
 20
282.306806
 30
0.0
 10
43.453360
 20
282.730139
 30
0.0
 10
42.994749
 20
283.144653
 30
0.0
 10
42.324472
 20
283.197569
 30
0.0
 10
41.213222
 20
283.215208
 30
0.0
 10
41.213278
 20
283.215208
 30
0.0
  0
LWPOLYLINE
  5
10c
100
AcDbEntity
  8
Layer_1
 62
7
100
AcDbPolyline
 90
26
 70
0
 10
24.359306
 20
283.206389
 30
0.0
 10
23.371528
 20
283.171111
 30
0.0
 10
23.239236
 20
283.100556
 30
0.0
 10
23.203958
 20
282.932986
 30
0.0
 10
23.300972
 20
282.747778
 30
0.0
 10
23.353889
 20
282.659583
 30
0.0
 10
23.353889
 20
282.544931
 30
0.0
 10
22.886458
 20
280.560556
 30
0.0
 10
22.630694
 20
279.475764
 30
0.0
 10
22.630694
 20
279.228819
 30
0.0
 10
22.762986
 20
279.061250
 30
0.0
 10
22.921736
 20
279.025972
 30
0.0
 10
23.151042
 20
279.017153
 30
0.0
 10
23.865417
 20
279.043611
 30
0.0
 10
24.385764
 20
279.096528
 30
0.0
 10
24.535694
 20
279.202361
 30
0.0
 10
24.606250
 20
279.334653
 30
0.0
 10
24.862014
 20
280.190139
 30
0.0
 10
25.205972
 20
281.451319
 30
0.0
 10
25.497014
 20
282.677222
 30
0.0
 10
25.514653
 20
282.941806
 30
0.0
 10
25.426458
 20
283.144653
 30
0.0
 10
25.302986
 20
283.188750
 30
0.0
 10
25.126597
 20
283.197569
 30
0.0
 10
24.359306
 20
283.206389
 30
0.0
 10
24.359306
 20
283.206389
 30
0.0
  0
LWPOLYLINE
  5
10d
100
AcDbEntity
  8
Layer_1
 62
7
100
AcDbPolyline
 90
39
 70
0
 10
22.586597
 20
283.162292
 30
0.0
 10
22.233819
 20
283.100556
 30
0.0
 10
22.057431
 20
283.012361
 30
0.0
 10
21.872222
 20
282.800694
 30
0.0
 10
21.113750
 20
281.610069
 30
0.0
 10
20.417014
 20
280.490000
 30
0.0
 10
20.328819
 20
281.407222
 30
0.0
 10
20.205347
 20
282.712500
 30
0.0
 10
20.170069
 20
282.941806
 30
0.0
 10
20.090694
 20
283.091736
 30
0.0
 10
20.020139
 20
283.127014
 30
0.0
 10
19.958403
 20
283.135833
 30
0.0
 10
19.790833
 20
283.144653
 30
0.0
 10
19.076458
 20
283.144653
 30
0.0
 10
18.406181
 20
283.144653
 30
0.0
 10
18.044583
 20
283.135833
 30
0.0
 10
17.877014
 20
283.091736
 30
0.0
 10
17.806458
 20
282.985903
 30
0.0
 10
17.797639
 20
282.915347
 30
0.0
 10
17.859375
 20
282.686042
 30
0.0
 10
18.247431
 20
280.498819
 30
0.0
 10
18.406181
 20
279.396389
 30
0.0
 10
18.450278
 20
279.228819
 30
0.0
 10
18.600208
 20
279.096528
 30
0.0
 10
19.014722
 20
279.052431
 30
0.0
 10
19.014722
 20
279.043611
 30
0.0
 10
19.147014
 20
279.043611
 30
0.0
 10
20.187708
 20
279.025972
 30
0.0
 10
20.752153
 20
279.017153
 30
0.0
 10
20.831528
 20
279.017153
 30
0.0
 10
20.875625
 20
279.087708
 30
0.0
 10
21.695833
 20
280.437083
 30
0.0
 10
22.815903
 20
282.324444
 30
0.0
 10
23.062847
 20
282.906528
 30
0.0
 10
23.027569
 20
283.047639
 30
0.0
 10
22.912917
 20
283.144653
 30
0.0
 10
22.754167
 20
283.162292
 30
0.0
 10
22.586597
 20
283.162292
 30
0.0
 10
22.586597
 20
283.162292
 30
0.0
  0
LWPOLYLINE
  5
10e
100
AcDbEntity
  8
Layer_1
 62
7
100
AcDbPolyline
 90
52
 70
0
 10
37.791319
 20
282.968264
 30
0.0
 10
37.897153
 20
282.968264
 30
0.0
 10
38.241111
 20
282.941806
 30
0.0
 10
38.364583
 20
282.915347
 30
0.0
 10
38.311667
 20
282.677222
 30
0.0
 10
37.914813
 20
281.061862
 30
0.0
 10
37.473819
 20
279.458125
 30
0.0
 10
37.429722
 20
279.308194
 30
0.0
 10
36.830000
 20
279.308194
 30
0.0
 10
36.080347
 20
279.334653
 30
0.0
 10
35.895139
 20
279.405208
 30
0.0
 10
35.295417
 20
280.728125
 30
0.0
 10
34.951458
 20
281.557153
 30
0.0
 10
34.907361
 20
281.662986
 30
0.0
 10
34.766250
 20
281.980486
 30
0.0
 10
34.642778
 20
281.654167
 30
0.0
 10
34.589861
 20
281.513056
 30
0.0
 10
34.378194
 20
280.807500
 30
0.0
 10
34.016597
 20
279.519861
 30
0.0
 10
33.954861
 20
279.378750
 30
0.0
 10
33.910764
 20
279.352292
 30
0.0
 10
33.646181
 20
279.308194
 30
0.0
 10
33.399236
 20
279.317014
 30
0.0
 10
33.408041
 20
279.343472
 30
0.0
 10
33.787278
 20
281.010347
 30
0.0
 10
34.087139
 20
282.174514
 30
0.0
 10
34.166514
 20
282.650764
 30
0.0
 10
34.060680
 20
282.897708
 30
0.0
 10
34.051875
 20
282.906528
 30
0.0
 10
34.113611
 20
282.915347
 30
0.0
 10
34.925000
 20
282.924167
 30
0.0
 10
35.789306
 20
282.924167
 30
0.0
 10
35.806944
 20
282.906528
 30
0.0
 10
35.895139
 20
282.756597
 30
0.0
 10
36.045069
 20
282.456736
 30
0.0
 10
36.397847
 20
281.654167
 30
0.0
 10
36.706528
 20
280.922153
 30
0.0
 10
36.821181
 20
280.701667
 30
0.0
 10
36.856458
 20
280.631111
 30
0.0
 10
36.882903
 20
280.595833
 30
0.0
 10
36.909347
 20
280.578194
 30
0.0
 10
36.935791
 20
280.560556
 30
0.0
 10
36.962235
 20
280.551736
 30
0.0
 10
36.997513
 20
280.551736
 30
0.0
 10
37.112166
 20
280.604653
 30
0.0
 10
37.129805
 20
280.639931
 30
0.0
 10
37.165082
 20
280.710486
 30
0.0
 10
37.235638
 20
280.939792
 30
0.0
 10
37.464944
 20
281.768819
 30
0.0
 10
37.729527
 20
282.747778
 30
0.0
 10
37.791263
 20
282.968264
 30
0.0
 10
37.791319
 20
282.968264
 30
0.0
  0
LWPOLYLINE
  5
10f
100
AcDbEntity
  8
Layer_1
 62
7
100
AcDbPolyline
 90
70
 70
0
 10
26.096736
 20
282.932986
 30
0.0
 10
26.961042
 20
282.932986
 30
0.0
 10
27.790069
 20
282.897708
 30
0.0
 10
27.807708
 20
282.906528
 30
0.0
 10
27.807708
 20
282.880069
 30
0.0
 10
27.790069
 20
282.738958
 30
0.0
 10
27.710694
 20
282.412639
 30
0.0
 10
27.525486
 20
281.671806
 30
0.0
 10
27.481389
 20
281.468958
 30
0.0
 10
27.472569
 20
281.398403
 30
0.0
 10
27.472569
 20
281.363125
 30
0.0
 10
27.472569
 20
281.336667
 30
0.0
 10
27.481389
 20
281.310208
 30
0.0
 10
27.499028
 20
281.292569
 30
0.0
 10
27.516667
 20
281.266111
 30
0.0
 10
27.604861
 20
281.222014
 30
0.0
 10
27.675417
 20
281.230833
 30
0.0
 10
27.754792
 20
281.274931
 30
0.0
 10
27.913542
 20
281.407222
 30
0.0
 10
28.557361
 20
282.042222
 30
0.0
 10
29.245278
 20
282.703681
 30
0.0
 10
29.571597
 20
282.888889
 30
0.0
 10
30.312431
 20
282.924167
 30
0.0
 10
30.753403
 20
282.915347
 30
0.0
 10
30.462361
 20
282.571389
 30
0.0
 10
29.853819
 20
281.865833
 30
0.0
 10
29.650972
 20
281.610069
 30
0.0
 10
29.580417
 20
281.530694
 30
0.0
 10
29.536319
 20
281.468958
 30
0.0
 10
29.518681
 20
281.354306
 30
0.0
 10
29.624514
 20
281.239653
 30
0.0
 10
29.783264
 20
281.204375
 30
0.0
 10
29.959653
 20
281.169097
 30
0.0
 10
29.959653
 20
281.160278
 30
0.0
 10
29.933209
 20
281.054444
 30
0.0
 10
29.880292
 20
280.825139
 30
0.0
 10
29.703903
 20
280.137222
 30
0.0
 10
29.492236
 20
279.308194
 30
0.0
 10
29.201195
 20
279.308194
 30
0.0
 10
28.433903
 20
279.325833
 30
0.0
 10
28.160500
 20
279.343472
 30
0.0
 10
28.063486
 20
279.352292
 30
0.0
 10
28.045847
 20
279.352292
 30
0.0
 10
28.028209
 20
279.396389
 30
0.0
 10
28.089945
 20
279.749167
 30
0.0
 10
28.283972
 20
280.516458
 30
0.0
 10
28.319250
 20
280.789861
 30
0.0
 10
28.292806
 20
280.913333
 30
0.0
 10
28.160514
 20
281.027986
 30
0.0
 10
27.772459
 20
281.063264
 30
0.0
 10
27.490237
 20
281.063264
 30
0.0
 10
27.384403
 20
281.063264
 30
0.0
 10
27.357945
 20
280.957431
 30
0.0
 10
27.331487
 20
280.860417
 30
0.0
 10
27.040445
 20
279.890278
 30
0.0
 10
26.908153
 20
279.458125
 30
0.0
 10
26.872875
 20
279.361111
 30
0.0
 10
26.828778
 20
279.352292
 30
0.0
 10
26.511278
 20
279.343472
 30
0.0
 10
25.735167
 20
279.325833
 30
0.0
 10
25.417667
 20
279.343472
 30
0.0
 10
25.867459
 20
281.151458
 30
0.0
 10
26.079125
 20
282.033403
 30
0.0
 10
26.149681
 20
282.324444
 30
0.0
 10
26.184959
 20
282.483194
 30
0.0
 10
26.176139
 20
282.686042
 30
0.0
 10
26.070278
 20
282.888889
 30
0.0
 10
26.043819
 20
282.924167
 30
0.0
 10
26.096736
 20
282.932986
 30
0.0
 10
26.096736
 20
282.932986
 30
0.0
  0
LWPOLYLINE
  5
110
100
AcDbEntity
  8
Layer_1
 62
7
100
AcDbPolyline
 90
20
 70
0
 10
32.085139
 20
282.932986
 30
0.0
 10
32.878889
 20
282.924167
 30
0.0
 10
33.222847
 20
282.915347
 30
0.0
 10
33.222847
 20
282.906528
 30
0.0
 10
33.152292
 20
282.589028
 30
0.0
 10
33.020000
 20
281.998125
 30
0.0
 10
32.579028
 20
280.313611
 30
0.0
 10
32.376181
 20
279.555139
 30
0.0
 10
32.314444
 20
279.334653
 30
0.0
 10
32.217431
 20
279.325833
 30
0.0
 10
31.758819
 20
279.317014
 30
0.0
 10
30.920972
 20
279.317014
 30
0.0
 10
30.788681
 20
279.325833
 30
0.0
 10
30.823958
 20
279.449306
 30
0.0
 10
30.965069
 20
279.969653
 30
0.0
 10
31.350642
 20
281.421020
 30
0.0
 10
31.741181
 20
282.871250
 30
0.0
 10
31.758819
 20
282.915347
 30
0.0
 10
32.085139
 20
282.932986
 30
0.0
 10
32.085139
 20
282.932986
 30
0.0
  0
LWPOLYLINE
  5
111
100
AcDbEntity
  8
Layer_1
 62
7
100
AcDbPolyline
 90
62
 70
0
 10
41.213264
 20
282.932986
 30
0.0
 10
42.315694
 20
282.915347
 30
0.0
 10
42.941875
 20
282.871250
 30
0.0
 10
43.188819
 20
282.659583
 30
0.0
 10
43.197625
 20
282.315625
 30
0.0
 10
43.100611
 20
281.733542
 30
0.0
 10
43.038875
 20
281.504236
 30
0.0
 10
43.038875
 20
281.486597
 30
0.0
 10
43.030069
 20
281.486597
 30
0.0
 10
42.836042
 20
281.468958
 30
0.0
 10
42.156944
 20
281.442500
 30
0.0
 10
41.601319
 20
281.451319
 30
0.0
 10
41.557222
 20
281.460139
 30
0.0
 10
41.557222
 20
281.530694
 30
0.0
 10
41.645417
 20
281.909931
 30
0.0
 10
41.742431
 20
282.289167
 30
0.0
 10
41.751236
 20
282.544931
 30
0.0
 10
41.574847
 20
282.721319
 30
0.0
 10
41.345541
 20
282.747778
 30
0.0
 10
40.992764
 20
282.730139
 30
0.0
 10
40.842833
 20
282.650764
 30
0.0
 10
40.754639
 20
282.509653
 30
0.0
 10
40.587069
 20
281.998125
 30
0.0
 10
40.348944
 20
281.160278
 30
0.0
 10
40.128458
 20
280.295972
 30
0.0
 10
40.013805
 20
279.749167
 30
0.0
 10
40.013805
 20
279.590417
 30
0.0
 10
40.084361
 20
279.502222
 30
0.0
 10
40.146097
 20
279.466944
 30
0.0
 10
40.296028
 20
279.440486
 30
0.0
 10
40.481236
 20
279.440486
 30
0.0
 10
40.816375
 20
279.475764
 30
0.0
 10
41.036861
 20
279.687431
 30
0.0
 10
41.151514
 20
280.119583
 30
0.0
 10
41.204430
 20
280.534097
 30
0.0
 10
41.098597
 20
280.816319
 30
0.0
 10
41.098597
 20
280.825139
 30
0.0
 10
41.195611
 20
280.833958
 30
0.0
 10
41.654222
 20
280.842778
 30
0.0
 10
42.500889
 20
280.833958
 30
0.0
 10
42.783111
 20
280.807500
 30
0.0
 10
42.853666
 20
280.798681
 30
0.0
 10
42.809569
 20
280.587014
 30
0.0
 10
42.686097
 20
280.146042
 30
0.0
 10
42.553805
 20
279.705069
 30
0.0
 10
42.456791
 20
279.449306
 30
0.0
 10
42.412694
 20
279.387569
 30
0.0
 10
42.403889
 20
279.378750
 30
0.0
 10
42.298056
 20
279.361111
 30
0.0
 10
41.980556
 20
279.343472
 30
0.0
 10
40.393056
 20
279.325833
 30
0.0
 10
39.537569
 20
279.334653
 30
0.0
 10
39.087778
 20
279.352292
 30
0.0
 10
38.708542
 20
279.440486
 30
0.0
 10
38.558611
 20
279.599236
 30
0.0
 10
38.523333
 20
279.749167
 30
0.0
 10
38.593889
 20
280.181319
 30
0.0
 10
38.787917
 20
280.957431
 30
0.0
 10
39.193611
 20
282.359722
 30
0.0
 10
39.687500
 20
282.809514
 30
0.0
 10
41.213264
 20
282.932986
 30
0.0
 10
41.213264
 20
282.932986
 30
0.0
  0
LWPOLYLINE
  5
112
100
AcDbEntity
  8
Layer_1
 62
7
100
AcDbPolyline
 90
20
 70
0
 10
24.359306
 20
282.924167
 30
0.0
 10
25.117778
 20
282.915347
 30
0.0
 10
25.232431
 20
282.906528
 30
0.0
 10
25.214792
 20
282.721319
 30
0.0
 10
24.932569
 20
281.521875
 30
0.0
 10
24.588611
 20
280.260694
 30
0.0
 10
24.341667
 20
279.440486
 30
0.0
 10
24.315208
 20
279.369931
 30
0.0
 10
24.297569
 20
279.361111
 30
0.0
 10
23.856597
 20
279.325833
 30
0.0
 10
23.151042
 20
279.299375
 30
0.0
 10
22.948194
 20
279.308194
 30
0.0
 10
22.904097
 20
279.317014
 30
0.0
 10
22.912917
 20
279.440486
 30
0.0
 10
23.159861
 20
280.490000
 30
0.0
 10
23.636111
 20
282.518472
 30
0.0
 10
23.627292
 20
282.721319
 30
0.0
 10
23.539097
 20
282.897708
 30
0.0
 10
24.359306
 20
282.924167
 30
0.0
 10
24.359306
 20
282.924167
 30
0.0
  0
LWPOLYLINE
  5
113
100
AcDbEntity
  8
Layer_1
 62
7
100
AcDbPolyline
 90
32
 70
0
 10
22.604236
 20
282.880069
 30
0.0
 10
22.745347
 20
282.880069
 30
0.0
 10
22.771806
 20
282.880069
 30
0.0
 10
22.568958
 20
282.456736
 30
0.0
 10
21.448889
 20
280.587014
 30
0.0
 10
20.672778
 20
279.299375
 30
0.0
 10
20.187708
 20
279.308194
 30
0.0
 10
19.155833
 20
279.325833
 30
0.0
 10
18.706042
 20
279.352292
 30
0.0
 10
18.679583
 20
279.440486
 30
0.0
 10
18.529653
 20
280.534097
 30
0.0
 10
18.115139
 20
282.800694
 30
0.0
 10
18.097500
 20
282.853611
 30
0.0
 10
18.415000
 20
282.862431
 30
0.0
 10
19.076458
 20
282.862431
 30
0.0
 10
19.782014
 20
282.862431
 30
0.0
 10
19.896667
 20
282.853611
 30
0.0
 10
19.923125
 20
282.677222
 30
0.0
 10
20.046597
 20
281.380764
 30
0.0
 10
20.134792
 20
280.454722
 30
0.0
 10
20.161250
 20
280.234236
 30
0.0
 10
20.196528
 20
280.093125
 30
0.0
 10
20.249444
 20
280.040208
 30
0.0
 10
20.355278
 20
280.013750
 30
0.0
 10
20.461111
 20
280.066667
 30
0.0
 10
20.602222
 20
280.260694
 30
0.0
 10
21.360694
 20
281.460139
 30
0.0
 10
22.101528
 20
282.633125
 30
0.0
 10
22.233819
 20
282.791875
 30
0.0
 10
22.322014
 20
282.835972
 30
0.0
 10
22.604236
 20
282.880069
 30
0.0
 10
22.604236
 20
282.880069
 30
0.0
  0
LWPOLYLINE
  5
114
100
AcDbEntity
  8
Layer_1
 62
7
100
AcDbPolyline
 90
28
 70
0
 10
27.551944
 20
278.152847
 30
0.0
 10
27.551944
 20
278.002917
 30
0.0
 10
27.560764
 20
277.632500
 30
0.0
 10
27.578403
 20
277.023958
 30
0.0
 10
27.640139
 20
276.697639
 30
0.0
 10
27.754792
 20
276.591806
 30
0.0
 10
27.895903
 20
276.565347
 30
0.0
 10
28.045833
 20
276.635903
 30
0.0
 10
28.125208
 20
276.785833
 30
0.0
 10
28.151667
 20
277.147431
 30
0.0
 10
28.186944
 20
277.112153
 30
0.0
 10
28.557361
 20
276.741736
 30
0.0
 10
28.380972
 20
276.688819
 30
0.0
 10
28.883681
 20
276.565347
 30
0.0
 10
29.042431
 20
276.538889
 30
0.0
 10
29.201181
 20
276.609444
 30
0.0
 10
29.262917
 20
276.697639
 30
0.0
 10
29.262917
 20
276.821111
 30
0.0
 10
29.148264
 20
276.988681
 30
0.0
 10
29.112986
 20
277.041597
 30
0.0
 10
29.148264
 20
277.085694
 30
0.0
 10
29.368750
 20
277.579583
 30
0.0
 10
29.324653
 20
277.844167
 30
0.0
 10
29.095347
 20
278.029375
 30
0.0
 10
28.089931
 20
278.126389
 30
0.0
 10
27.701875
 20
278.144028
 30
0.0
 10
27.551944
 20
278.152847
 30
0.0
 10
27.551944
 20
278.152847
 30
0.0
  0
LWPOLYLINE
  5
115
100
AcDbEntity
  8
Layer_1
 62
7
100
AcDbPolyline
 90
37
 70
0
 10
32.058681
 20
278.126389
 30
0.0
 10
32.032236
 20
278.117569
 30
0.0
 10
32.014597
 20
278.117569
 30
0.0
 10
31.979320
 20
278.091111
 30
0.0
 10
31.961681
 20
278.064653
 30
0.0
 10
31.952875
 20
278.047014
 30
0.0
 10
31.944070
 20
278.029375
 30
0.0
 10
31.935265
 20
278.002917
 30
0.0
 10
31.935265
 20
277.985278
 30
0.0
 10
31.935265
 20
277.941181
 30
0.0
 10
31.935265
 20
277.808889
 30
0.0
 10
31.961709
 20
277.447292
 30
0.0
 10
31.988153
 20
277.059236
 30
0.0
 10
32.014597
 20
276.812292
 30
0.0
 10
32.085153
 20
276.706458
 30
0.0
 10
32.085153
 20
276.618264
 30
0.0
 10
32.164528
 20
276.582986
 30
0.0
 10
32.490847
 20
276.591806
 30
0.0
 10
32.649597
 20
276.882847
 30
0.0
 10
32.658403
 20
276.953403
 30
0.0
 10
32.667208
 20
276.953403
 30
0.0
 10
33.169916
 20
276.997500
 30
0.0
 10
33.628528
 20
277.076875
 30
0.0
 10
33.778458
 20
277.270903
 30
0.0
 10
33.840194
 20
277.509028
 30
0.0
 10
33.760819
 20
277.764792
 30
0.0
 10
33.593250
 20
277.994097
 30
0.0
 10
33.513875
 20
278.064653
 30
0.0
 10
33.478597
 20
278.099931
 30
0.0
 10
33.425680
 20
278.108750
 30
0.0
 10
32.755403
 20
278.117569
 30
0.0
 10
32.279153
 20
278.126389
 30
0.0
 10
32.138041
 20
278.126389
 30
0.0
 10
32.093944
 20
278.126389
 30
0.0
 10
32.067500
 20
278.126389
 30
0.0
 10
32.058695
 20
278.126389
 30
0.0
 10
32.058681
 20
278.126389
 30
0.0
  0
LWPOLYLINE
  5
116
100
AcDbEntity
  8
Layer_1
 62
7
100
AcDbPolyline
 90
17
 70
0
 10
21.969236
 20
278.117569
 30
0.0
 10
21.263681
 20
278.002917
 30
0.0
 10
21.034375
 20
277.773611
 30
0.0
 10
20.955000
 20
277.403194
 30
0.0
 10
21.007917
 20
276.944583
 30
0.0
 10
21.290139
 20
276.653542
 30
0.0
 10
21.466528
 20
276.600625
 30
0.0
 10
21.466528
 20
276.582986
 30
0.0
 10
21.590000
 20
276.565347
 30
0.0
 10
22.392569
 20
276.591806
 30
0.0
 10
22.692431
 20
276.847569
 30
0.0
 10
22.762986
 20
277.350278
 30
0.0
 10
22.727708
 20
277.703056
 30
0.0
 10
22.613056
 20
277.967639
 30
0.0
 10
22.330833
 20
278.082292
 30
0.0
 10
21.969236
 20
278.117569
 30
0.0
 10
21.969236
 20
278.117569
 30
0.0
  0
LWPOLYLINE
  5
117
100
AcDbEntity
  8
Layer_1
 62
7
100
AcDbPolyline
 90
24
 70
0
 10
36.441944
 20
278.117569
 30
0.0
 10
36.450750
 20
277.976458
 30
0.0
 10
36.459555
 20
277.447292
 30
0.0
 10
36.494833
 20
276.874028
 30
0.0
 10
36.627125
 20
276.627083
 30
0.0
 10
36.635930
 20
276.600625
 30
0.0
 10
36.944610
 20
276.574167
 30
0.0
 10
37.129819
 20
276.821111
 30
0.0
 10
37.147458
 20
277.015139
 30
0.0
 10
37.147458
 20
277.120972
 30
0.0
 10
37.332666
 20
276.926944
 30
0.0
 10
37.755999
 20
276.591806
 30
0.0
 10
37.950027
 20
276.538889
 30
0.0
 10
38.135235
 20
276.662361
 30
0.0
 10
38.152874
 20
276.829931
 30
0.0
 10
38.082319
 20
277.006319
 30
0.0
 10
38.064680
 20
277.041597
 30
0.0
 10
38.302805
 20
277.306181
 30
0.0
 10
38.267527
 20
277.800069
 30
0.0
 10
37.923569
 20
278.073472
 30
0.0
 10
37.120999
 20
278.117569
 30
0.0
 10
36.591833
 20
278.117569
 30
0.0
 10
36.441902
 20
278.117569
 30
0.0
 10
36.441944
 20
278.117569
 30
0.0
  0
LWPOLYLINE
  5
118
100
AcDbEntity
  8
Layer_1
 62
7
100
AcDbPolyline
 90
30
 70
0
 10
41.945278
 20
278.117569
 30
0.0
 10
41.469028
 20
278.091111
 30
0.0
 10
41.054514
 20
277.932361
 30
0.0
 10
40.904583
 20
277.570764
 30
0.0
 10
40.939861
 20
277.332639
 30
0.0
 10
41.080972
 20
277.165069
 30
0.0
 10
41.204444
 20
277.129792
 30
0.0
 10
41.178000
 20
277.129792
 30
0.0
 10
41.142722
 20
277.120972
 30
0.0
 10
41.089806
 20
277.103333
 30
0.0
 10
40.975153
 20
276.935764
 30
0.0
 10
41.001597
 20
276.785833
 30
0.0
 10
41.239722
 20
276.574167
 30
0.0
 10
41.257361
 20
276.574167
 30
0.0
 10
41.372014
 20
276.556528
 30
0.0
 10
41.521944
 20
276.547708
 30
0.0
 10
41.724792
 20
276.556528
 30
0.0
 10
42.130486
 20
276.591806
 30
0.0
 10
42.492083
 20
276.724097
 30
0.0
 10
42.624375
 20
277.059236
 30
0.0
 10
42.456806
 20
277.517847
 30
0.0
 10
42.377431
 20
277.561944
 30
0.0
 10
42.447986
 20
277.579583
 30
0.0
 10
42.562639
 20
277.685417
 30
0.0
 10
42.589083
 20
277.826528
 30
0.0
 10
42.589083
 20
277.897083
 30
0.0
 10
42.544986
 20
278.002917
 30
0.0
 10
42.377416
 20
278.082292
 30
0.0
 10
41.945264
 20
278.117569
 30
0.0
 10
41.945278
 20
278.117569
 30
0.0
  0
LWPOLYLINE
  5
119
100
AcDbEntity
  8
Layer_1
 62
7
100
AcDbPolyline
 90
33
 70
0
 10
20.178889
 20
278.108750
 30
0.0
 10
19.640903
 20
277.614861
 30
0.0
 10
19.587986
 20
277.544306
 30
0.0
 10
19.535069
 20
277.614861
 30
0.0
 10
19.217569
 20
277.994097
 30
0.0
 10
19.067639
 20
278.099931
 30
0.0
 10
18.873611
 20
278.099931
 30
0.0
 10
18.785417
 20
278.038194
 30
0.0
 10
18.732500
 20
277.967639
 30
0.0
 10
18.670764
 20
277.764792
 30
0.0
 10
18.670764
 20
277.315000
 30
0.0
 10
18.670764
 20
276.882847
 30
0.0
 10
18.591389
 20
276.882847
 30
0.0
 10
18.732500
 20
276.662361
 30
0.0
 10
18.847153
 20
276.600625
 30
0.0
 10
18.952986
 20
276.547708
 30
0.0
 10
19.155833
 20
276.688819
 30
0.0
 10
19.217569
 20
276.979861
 30
0.0
 10
19.385139
 20
276.759375
 30
0.0
 10
19.596806
 20
276.627083
 30
0.0
 10
19.720278
 20
276.680000
 30
0.0
 10
19.790833
 20
276.750556
 30
0.0
 10
19.923125
 20
276.944583
 30
0.0
 10
20.020139
 20
276.706458
 30
0.0
 10
20.152431
 20
276.591806
 30
0.0
 10
20.346458
 20
276.582986
 30
0.0
 10
20.469931
 20
276.662361
 30
0.0
 10
20.522847
 20
276.803472
 30
0.0
 10
20.558125
 20
277.235625
 30
0.0
 10
20.514028
 20
277.879444
 30
0.0
 10
20.390556
 20
278.064653
 30
0.0
 10
20.178889
 20
278.108750
 30
0.0
 10
20.178889
 20
278.108750
 30
0.0
  0
LWPOLYLINE
  5
11a
100
AcDbEntity
  8
Layer_1
 62
7
100
AcDbPolyline
 90
28
 70
0
 10
23.768403
 20
278.108750
 30
0.0
 10
23.539097
 20
278.091111
 30
0.0
 10
23.353889
 20
278.011736
 30
0.0
 10
23.248056
 20
277.817708
 30
0.0
 10
23.353889
 20
277.641319
 30
0.0
 10
23.530278
 20
277.535486
 30
0.0
 10
23.662569
 20
277.482569
 30
0.0
 10
23.689028
 20
277.464931
 30
0.0
 10
23.750764
 20
277.085694
 30
0.0
 10
23.803681
 20
276.838750
 30
0.0
 10
23.821319
 20
276.741736
 30
0.0
 10
23.838958
 20
276.697639
 30
0.0
 10
23.838958
 20
276.688819
 30
0.0
 10
23.856597
 20
276.653542
 30
0.0
 10
23.953611
 20
276.565347
 30
0.0
 10
24.103542
 20
276.547708
 30
0.0
 10
24.288750
 20
276.715278
 30
0.0
 10
24.359306
 20
277.191528
 30
0.0
 10
24.394583
 20
277.509028
 30
0.0
 10
24.438681
 20
277.509028
 30
0.0
 10
24.667986
 20
277.561944
 30
0.0
 10
24.853194
 20
277.703056
 30
0.0
 10
24.835556
 20
277.950000
 30
0.0
 10
24.650347
 20
278.073472
 30
0.0
 10
24.421042
 20
278.099931
 30
0.0
 10
24.094722
 20
278.108750
 30
0.0
 10
23.768403
 20
278.108750
 30
0.0
 10
23.768403
 20
278.108750
 30
0.0
  0
LWPOLYLINE
  5
11b
100
AcDbEntity
  8
Layer_1
 62
7
100
AcDbPolyline
 90
15
 70
0
 10
26.167292
 20
278.108750
 30
0.0
 10
25.858611
 20
278.099931
 30
0.0
 10
25.673403
 20
278.038194
 30
0.0
 10
25.347083
 20
277.676597
 30
0.0
 10
25.461736
 20
276.785833
 30
0.0
 10
25.867431
 20
276.565347
 30
0.0
 10
26.281944
 20
276.547708
 30
0.0
 10
26.696458
 20
276.609444
 30
0.0
 10
27.031597
 20
276.838750
 30
0.0
 10
27.137431
 20
277.288542
 30
0.0
 10
27.110972
 20
277.632500
 30
0.0
 10
26.961042
 20
277.897083
 30
0.0
 10
26.652361
 20
278.064653
 30
0.0
 10
26.167292
 20
278.108750
 30
0.0
 10
26.167292
 20
278.108750
 30
0.0
  0
LWPOLYLINE
  5
11c
100
AcDbEntity
  8
Layer_1
 62
7
100
AcDbPolyline
 90
19
 70
0
 10
35.171944
 20
278.108750
 30
0.0
 10
34.810347
 20
278.099931
 30
0.0
 10
34.607500
 20
278.029375
 30
0.0
 10
34.378194
 20
277.835347
 30
0.0
 10
34.281181
 20
277.526667
 30
0.0
 10
34.289986
 20
277.050417
 30
0.0
 10
34.492833
 20
276.688819
 30
0.0
 10
34.704500
 20
276.600625
 30
0.0
 10
35.295403
 20
276.565347
 30
0.0
 10
35.604083
 20
276.600625
 30
0.0
 10
35.842208
 20
276.671181
 30
0.0
 10
36.018597
 20
276.874028
 30
0.0
 10
36.080333
 20
277.041597
 30
0.0
 10
36.089138
 20
277.297361
 30
0.0
 10
36.009763
 20
277.808889
 30
0.0
 10
35.683444
 20
278.073472
 30
0.0
 10
35.480597
 20
278.099931
 30
0.0
 10
35.171916
 20
278.108750
 30
0.0
 10
35.171944
 20
278.108750
 30
0.0
  0
LWPOLYLINE
  5
11d
100
AcDbEntity
  8
Layer_1
 62
7
100
AcDbPolyline
 90
25
 70
0
 10
31.220833
 20
278.099931
 30
0.0
 10
30.532917
 20
278.082292
 30
0.0
 10
30.109583
 20
277.994097
 30
0.0
 10
29.880278
 20
277.755972
 30
0.0
 10
29.845000
 20
277.438472
 30
0.0
 10
30.030208
 20
277.182708
 30
0.0
 10
30.259514
 20
277.120972
 30
0.0
 10
30.065486
 20
277.094514
 30
0.0
 10
29.924375
 20
276.997500
 30
0.0
 10
29.871458
 20
276.838750
 30
0.0
 10
29.986111
 20
276.627083
 30
0.0
 10
29.994916
 20
276.627083
 30
0.0
 10
30.188944
 20
276.565347
 30
0.0
 10
30.621097
 20
276.565347
 30
0.0
 10
31.150264
 20
276.600625
 30
0.0
 10
31.432486
 20
276.706458
 30
0.0
 10
31.582416
 20
277.076875
 30
0.0
 10
31.423666
 20
277.447292
 30
0.0
 10
31.256097
 20
277.553125
 30
0.0
 10
31.282541
 20
277.553125
 30
0.0
 10
31.414833
 20
277.623681
 30
0.0
 10
31.485388
 20
277.747153
 30
0.0
 10
31.432472
 20
277.985278
 30
0.0
 10
31.220805
 20
278.099931
 30
0.0
 10
31.220833
 20
278.099931
 30
0.0
  0
LWPOLYLINE
  5
11e
100
AcDbEntity
  8
Layer_1
 62
7
100
AcDbPolyline
 90
27
 70
0
 10
39.467014
 20
278.091111
 30
0.0
 10
39.070139
 20
278.073472
 30
0.0
 10
38.937847
 20
278.047014
 30
0.0
 10
38.814375
 20
277.958819
 30
0.0
 10
38.779097
 20
277.782431
 30
0.0
 10
38.858472
 20
277.641319
 30
0.0
 10
39.149514
 20
277.517847
 30
0.0
 10
39.264167
 20
277.500208
 30
0.0
 10
39.299444
 20
277.138611
 30
0.0
 10
39.317083
 20
276.847569
 30
0.0
 10
39.343528
 20
276.777014
 30
0.0
 10
39.343528
 20
276.759375
 30
0.0
 10
39.352333
 20
276.759375
 30
0.0
 10
39.387611
 20
276.662361
 30
0.0
 10
39.608097
 20
276.582986
 30
0.0
 10
39.802125
 20
276.671181
 30
0.0
 10
39.899138
 20
276.812292
 30
0.0
 10
39.934416
 20
276.997500
 30
0.0
 10
40.004972
 20
277.420833
 30
0.0
 10
40.022611
 20
277.500208
 30
0.0
 10
40.119625
 20
277.517847
 30
0.0
 10
40.366569
 20
277.606042
 30
0.0
 10
40.454763
 20
277.729514
 30
0.0
 10
40.437125
 20
277.888264
 30
0.0
 10
40.084347
 20
278.055833
 30
0.0
 10
39.466986
 20
278.091111
 30
0.0
 10
39.467014
 20
278.091111
 30
0.0
  0
LWPOLYLINE
  5
11f
100
AcDbEntity
  8
Layer_1
 62
7
100
AcDbPolyline
 90
30
 70
0
 10
27.834167
 20
277.852986
 30
0.0
 10
28.081111
 20
277.844167
 30
0.0
 10
28.998333
 20
277.764792
 30
0.0
 10
29.068889
 20
277.720694
 30
0.0
 10
29.086528
 20
277.579583
 30
0.0
 10
28.954236
 20
277.288542
 30
0.0
 10
28.866042
 20
277.191528
 30
0.0
 10
28.830764
 20
277.138611
 30
0.0
 10
28.804320
 20
277.050417
 30
0.0
 10
28.830764
 20
276.971042
 30
0.0
 10
28.857208
 20
276.918125
 30
0.0
 10
28.892486
 20
276.865208
 30
0.0
 10
28.760194
 20
276.935764
 30
0.0
 10
28.389778
 20
277.306181
 30
0.0
 10
28.442694
 20
277.315000
 30
0.0
 10
28.813111
 20
277.341458
 30
0.0
 10
28.936583
 20
277.385556
 30
0.0
 10
28.998319
 20
277.456111
 30
0.0
 10
28.998319
 20
277.597222
 30
0.0
 10
28.892486
 20
277.685417
 30
0.0
 10
28.795472
 20
277.720694
 30
0.0
 10
28.213389
 20
277.791250
 30
0.0
 10
28.028180
 20
277.791250
 30
0.0
 10
27.887069
 20
277.791250
 30
0.0
 10
27.887069
 20
277.658958
 30
0.0
 10
27.878250
 20
277.253264
 30
0.0
 10
27.860611
 20
277.041597
 30
0.0
 10
27.842972
 20
277.641319
 30
0.0
 10
27.834153
 20
277.852986
 30
0.0
 10
27.834167
 20
277.852986
 30
0.0
  0
LWPOLYLINE
  5
120
100
AcDbEntity
  8
Layer_1
 62
7
100
AcDbPolyline
 90
21
 70
0
 10
32.217431
 20
277.844167
 30
0.0
 10
32.279167
 20
277.844167
 30
0.0
 10
32.755417
 20
277.835347
 30
0.0
 10
33.355139
 20
277.826528
 30
0.0
 10
33.399236
 20
277.791250
 30
0.0
 10
33.513889
 20
277.632500
 30
0.0
 10
33.557986
 20
277.509028
 30
0.0
 10
33.522708
 20
277.394375
 30
0.0
 10
33.469792
 20
277.315000
 30
0.0
 10
33.152292
 20
277.279722
 30
0.0
 10
32.570208
 20
277.217986
 30
0.0
 10
32.411458
 20
277.076875
 30
0.0
 10
32.367361
 20
276.918125
 30
0.0
 10
32.332083
 20
276.821111
 30
0.0
 10
32.287986
 20
276.829931
 30
0.0
 10
32.287986
 20
276.874028
 30
0.0
 10
32.261542
 20
277.076875
 30
0.0
 10
32.235098
 20
277.464931
 30
0.0
 10
32.217459
 20
277.826528
 30
0.0
 10
32.217459
 20
277.844167
 30
0.0
 10
32.217431
 20
277.844167
 30
0.0
  0
LWPOLYLINE
  5
121
100
AcDbEntity
  8
Layer_1
 62
7
100
AcDbPolyline
 90
16
 70
0
 10
21.969236
 20
277.835347
 30
0.0
 10
22.277917
 20
277.808889
 30
0.0
 10
22.410208
 20
277.764792
 30
0.0
 10
22.454306
 20
277.641319
 30
0.0
 10
22.480764
 20
277.350278
 30
0.0
 10
22.436667
 20
276.962222
 30
0.0
 10
22.322014
 20
276.865208
 30
0.0
 10
21.625278
 20
276.838750
 30
0.0
 10
21.413611
 20
276.900486
 30
0.0
 10
21.272500
 20
277.050417
 30
0.0
 10
21.254861
 20
277.262083
 30
0.0
 10
21.237222
 20
277.385556
 30
0.0
 10
21.290139
 20
277.650139
 30
0.0
 10
21.387153
 20
277.755972
 30
0.0
 10
21.969236
 20
277.835347
 30
0.0
 10
21.969236
 20
277.835347
 30
0.0
  0
LWPOLYLINE
  5
122
100
AcDbEntity
  8
Layer_1
 62
7
100
AcDbPolyline
 90
19
 70
0
 10
21.254861
 20
277.262083
 30
0.0
 10
21.298958
 20
277.112153
 30
0.0
 10
21.510625
 20
276.918125
 30
0.0
 10
21.854583
 20
276.891667
 30
0.0
 10
22.075069
 20
276.918125
 30
0.0
 10
22.154444
 20
276.926944
 30
0.0
 10
22.233819
 20
276.953403
 30
0.0
 10
22.436667
 20
277.050417
 30
0.0
 10
22.366111
 20
277.103333
 30
0.0
 10
22.383750
 20
277.359097
 30
0.0
 10
22.392569
 20
277.606042
 30
0.0
 10
22.392569
 20
277.755972
 30
0.0
 10
22.251458
 20
277.747153
 30
0.0
 10
21.889861
 20
277.747153
 30
0.0
 10
21.457708
 20
277.694236
 30
0.0
 10
21.325417
 20
277.561944
 30
0.0
 10
21.272500
 20
277.420833
 30
0.0
 10
21.254861
 20
277.262083
 30
0.0
 10
21.254861
 20
277.262083
 30
0.0
  0
LWPOLYLINE
  5
123
100
AcDbEntity
  8
Layer_1
 62
7
100
AcDbPolyline
 90
31
 70
0
 10
36.732986
 20
277.835347
 30
0.0
 10
37.121042
 20
277.835347
 30
0.0
 10
37.861875
 20
277.800069
 30
0.0
 10
38.011806
 20
277.676597
 30
0.0
 10
38.038250
 20
277.394375
 30
0.0
 10
37.923597
 20
277.270903
 30
0.0
 10
37.853041
 20
277.253264
 30
0.0
 10
37.667833
 20
277.217986
 30
0.0
 10
37.747208
 20
277.059236
 30
0.0
 10
37.826583
 20
276.882847
 30
0.0
 10
37.526722
 20
277.129792
 30
0.0
 10
37.367972
 20
277.297361
 30
0.0
 10
37.482625
 20
277.306181
 30
0.0
 10
37.773666
 20
277.350278
 30
0.0
 10
37.888319
 20
277.412014
 30
0.0
 10
37.967694
 20
277.561944
 30
0.0
 10
37.879500
 20
277.711875
 30
0.0
 10
37.747208
 20
277.764792
 30
0.0
 10
37.367972
 20
277.791250
 30
0.0
 10
37.015194
 20
277.800069
 30
0.0
 10
36.874083
 20
277.800069
 30
0.0
 10
36.874083
 20
277.658958
 30
0.0
 10
36.874083
 20
277.306181
 30
0.0
 10
36.865278
 20
277.032778
 30
0.0
 10
36.856472
 20
276.882847
 30
0.0
 10
36.821195
 20
276.821111
 30
0.0
 10
36.803556
 20
276.829931
 30
0.0
 10
36.777112
 20
276.918125
 30
0.0
 10
36.741834
 20
277.456111
 30
0.0
 10
36.733028
 20
277.835347
 30
0.0
 10
36.732986
 20
277.835347
 30
0.0
  0
LWPOLYLINE
  5
124
100
AcDbEntity
  8
Layer_1
 62
7
100
AcDbPolyline
 90
37
 70
0
 10
41.936458
 20
277.835347
 30
0.0
 10
42.201042
 20
277.817708
 30
0.0
 10
41.901181
 20
277.791250
 30
0.0
 10
41.592500
 20
277.773611
 30
0.0
 10
41.477847
 20
277.764792
 30
0.0
 10
41.442569
 20
277.755972
 30
0.0
 10
41.398472
 20
277.747153
 30
0.0
 10
41.319097
 20
277.694236
 30
0.0
 10
41.292653
 20
277.588403
 30
0.0
 10
41.336750
 20
277.491389
 30
0.0
 10
41.407306
 20
277.447292
 30
0.0
 10
41.460222
 20
277.438472
 30
0.0
 10
41.813000
 20
277.394375
 30
0.0
 10
42.156959
 20
277.350278
 30
0.0
 10
42.271611
 20
277.297361
 30
0.0
 10
42.342167
 20
277.085694
 30
0.0
 10
42.298070
 20
276.935764
 30
0.0
 10
42.095222
 20
276.865208
 30
0.0
 10
41.707167
 20
276.838750
 30
0.0
 10
41.513139
 20
276.829931
 30
0.0
 10
41.416125
 20
276.829931
 30
0.0
 10
41.301472
 20
276.856389
 30
0.0
 10
41.566056
 20
276.874028
 30
0.0
 10
42.015847
 20
276.909306
 30
0.0
 10
42.165778
 20
276.962222
 30
0.0
 10
42.227514
 20
277.032778
 30
0.0
 10
42.201070
 20
277.182708
 30
0.0
 10
42.095237
 20
277.244444
 30
0.0
 10
41.962945
 20
277.253264
 30
0.0
 10
41.768917
 20
277.270903
 30
0.0
 10
41.257389
 20
277.385556
 30
0.0
 10
41.204473
 20
277.438472
 30
0.0
 10
41.186834
 20
277.570764
 30
0.0
 10
41.239750
 20
277.720694
 30
0.0
 10
41.513153
 20
277.808889
 30
0.0
 10
41.936487
 20
277.835347
 30
0.0
 10
41.936458
 20
277.835347
 30
0.0
  0
LWPOLYLINE
  5
125
100
AcDbEntity
  8
Layer_1
 62
7
100
AcDbPolyline
 90
45
 70
0
 10
18.979444
 20
277.826528
 30
0.0
 10
19.032361
 20
277.782431
 30
0.0
 10
19.305764
 20
277.456111
 30
0.0
 10
19.411597
 20
277.306181
 30
0.0
 10
19.455694
 20
277.253264
 30
0.0
 10
19.473333
 20
277.226806
 30
0.0
 10
19.508611
 20
277.200347
 30
0.0
 10
19.543889
 20
277.182708
 30
0.0
 10
19.579167
 20
277.173889
 30
0.0
 10
19.623264
 20
277.182708
 30
0.0
 10
19.667361
 20
277.200347
 30
0.0
 10
19.702639
 20
277.226806
 30
0.0
 10
19.746736
 20
277.288542
 30
0.0
 10
19.870208
 20
277.447292
 30
0.0
 10
20.231806
 20
277.826528
 30
0.0
 10
20.240625
 20
277.800069
 30
0.0
 10
20.275903
 20
277.235625
 30
0.0
 10
20.249444
 20
276.874028
 30
0.0
 10
20.161250
 20
277.120972
 30
0.0
 10
20.134792
 20
277.244444
 30
0.0
 10
20.117153
 20
277.288542
 30
0.0
 10
20.108333
 20
277.323819
 30
0.0
 10
20.081875
 20
277.350278
 30
0.0
 10
20.073056
 20
277.367917
 30
0.0
 10
20.046597
 20
277.376736
 30
0.0
 10
20.020139
 20
277.394375
 30
0.0
 10
19.976042
 20
277.403194
 30
0.0
 10
19.940764
 20
277.394375
 30
0.0
 10
19.914306
 20
277.385556
 30
0.0
 10
19.896667
 20
277.367917
 30
0.0
 10
19.870208
 20
277.350278
 30
0.0
 10
19.852569
 20
277.332639
 30
0.0
 10
19.826111
 20
277.288542
 30
0.0
 10
19.729097
 20
277.156250
 30
0.0
 10
19.587986
 20
276.962222
 30
0.0
 10
19.385139
 20
277.209167
 30
0.0
 10
19.226389
 20
277.447292
 30
0.0
 10
18.997083
 20
277.764792
 30
0.0
 10
18.970625
 20
277.376736
 30
0.0
 10
18.952986
 20
277.103333
 30
0.0
 10
18.952986
 20
277.315000
 30
0.0
 10
18.952986
 20
277.747153
 30
0.0
 10
18.970625
 20
277.817708
 30
0.0
 10
18.979444
 20
277.826528
 30
0.0
 10
18.979444
 20
277.826528
 30
0.0
  0
LWPOLYLINE
  5
126
100
AcDbEntity
  8
Layer_1
 62
7
100
AcDbPolyline
 90
16
 70
0
 10
23.777222
 20
277.826528
 30
0.0
 10
24.085903
 20
277.826528
 30
0.0
 10
24.412222
 20
277.817708
 30
0.0
 10
24.500417
 20
277.808889
 30
0.0
 10
24.438681
 20
277.791250
 30
0.0
 10
24.288750
 20
277.773611
 30
0.0
 10
24.147639
 20
277.641319
 30
0.0
 10
24.077083
 20
277.209167
 30
0.0
 10
24.050625
 20
277.015139
 30
0.0
 10
24.032986
 20
277.129792
 30
0.0
 10
23.935972
 20
277.597222
 30
0.0
 10
23.794861
 20
277.729514
 30
0.0
 10
23.636111
 20
277.800069
 30
0.0
 10
23.609653
 20
277.817708
 30
0.0
 10
23.777222
 20
277.826528
 30
0.0
 10
23.777222
 20
277.826528
 30
0.0
  0
LWPOLYLINE
  5
127
100
AcDbEntity
  8
Layer_1
 62
7
100
AcDbPolyline
 90
27
 70
0
 10
26.167292
 20
277.826528
 30
0.0
 10
26.581806
 20
277.791250
 30
0.0
 10
26.767014
 20
277.694236
 30
0.0
 10
26.837569
 20
277.561944
 30
0.0
 10
26.855208
 20
277.306181
 30
0.0
 10
26.793472
 20
276.988681
 30
0.0
 10
26.617083
 20
276.882847
 30
0.0
 10
26.264306
 20
276.829931
 30
0.0
 10
25.920347
 20
276.838750
 30
0.0
 10
25.876250
 20
276.865208
 30
0.0
 10
26.017361
 20
276.874028
 30
0.0
 10
26.378958
 20
276.909306
 30
0.0
 10
26.537708
 20
276.935764
 30
0.0
 10
26.537708
 20
276.944583
 30
0.0
 10
26.546528
 20
276.953403
 30
0.0
 10
26.608264
 20
276.971042
 30
0.0
 10
26.705278
 20
277.129792
 30
0.0
 10
26.731736
 20
277.297361
 30
0.0
 10
26.722917
 20
277.464931
 30
0.0
 10
26.670000
 20
277.623681
 30
0.0
 10
26.555347
 20
277.711875
 30
0.0
 10
26.431875
 20
277.747153
 30
0.0
 10
26.079097
 20
277.791250
 30
0.0
 10
25.849792
 20
277.808889
 30
0.0
 10
25.885069
 20
277.817708
 30
0.0
 10
26.167292
 20
277.826528
 30
0.0
 10
26.167292
 20
277.826528
 30
0.0
  0
LWPOLYLINE
  5
128
100
AcDbEntity
  8
Layer_1
 62
7
100
AcDbPolyline
 90
34
 70
0
 10
35.171944
 20
277.826528
 30
0.0
 10
35.462986
 20
277.817708
 30
0.0
 10
35.604097
 20
277.800069
 30
0.0
 10
35.754028
 20
277.685417
 30
0.0
 10
35.806944
 20
277.297361
 30
0.0
 10
35.806944
 20
277.279722
 30
0.0
 10
35.754028
 20
277.279722
 30
0.0
 10
35.771667
 20
277.332639
 30
0.0
 10
35.674653
 20
277.614861
 30
0.0
 10
35.445347
 20
277.764792
 30
0.0
 10
35.145486
 20
277.782431
 30
0.0
 10
34.845625
 20
277.729514
 30
0.0
 10
34.651597
 20
277.561944
 30
0.0
 10
34.589861
 20
277.341458
 30
0.0
 10
34.625139
 20
277.120972
 30
0.0
 10
34.836806
 20
276.953403
 30
0.0
 10
35.216042
 20
276.935764
 30
0.0
 10
35.515903
 20
276.953403
 30
0.0
 10
35.692292
 20
277.050417
 30
0.0
 10
35.798125
 20
277.182708
 30
0.0
 10
35.798125
 20
277.085694
 30
0.0
 10
35.771681
 20
276.997500
 30
0.0
 10
35.701125
 20
276.918125
 30
0.0
 10
35.560014
 20
276.882847
 30
0.0
 10
35.277792
 20
276.847569
 30
0.0
 10
34.775084
 20
276.874028
 30
0.0
 10
34.642792
 20
276.926944
 30
0.0
 10
34.563417
 20
277.103333
 30
0.0
 10
34.554612
 20
277.482569
 30
0.0
 10
34.616348
 20
277.685417
 30
0.0
 10
34.731000
 20
277.773611
 30
0.0
 10
34.854473
 20
277.817708
 30
0.0
 10
35.171973
 20
277.826528
 30
0.0
 10
35.171944
 20
277.826528
 30
0.0
  0
LWPOLYLINE
  5
129
100
AcDbEntity
  8
Layer_1
 62
7
100
AcDbPolyline
 90
35
 70
0
 10
31.115000
 20
277.817708
 30
0.0
 10
30.806319
 20
277.782431
 30
0.0
 10
30.524097
 20
277.755972
 30
0.0
 10
30.427083
 20
277.738333
 30
0.0
 10
30.391806
 20
277.738333
 30
0.0
 10
30.374167
 20
277.729514
 30
0.0
 10
30.356528
 20
277.729514
 30
0.0
 10
30.338889
 20
277.720694
 30
0.0
 10
30.312445
 20
277.694236
 30
0.0
 10
30.268347
 20
277.606042
 30
0.0
 10
30.321264
 20
277.473750
 30
0.0
 10
30.427097
 20
277.420833
 30
0.0
 10
30.718139
 20
277.394375
 30
0.0
 10
31.062097
 20
277.350278
 30
0.0
 10
31.229667
 20
277.244444
 30
0.0
 10
31.300222
 20
277.068056
 30
0.0
 10
31.256125
 20
276.926944
 30
0.0
 10
31.115014
 20
276.874028
 30
0.0
 10
30.612306
 20
276.847569
 30
0.0
 10
30.374181
 20
276.847569
 30
0.0
 10
30.524111
 20
276.865208
 30
0.0
 10
30.894528
 20
276.891667
 30
0.0
 10
31.000361
 20
276.918125
 30
0.0
 10
31.070917
 20
276.971042
 30
0.0
 10
31.106195
 20
277.068056
 30
0.0
 10
31.018000
 20
277.209167
 30
0.0
 10
30.938625
 20
277.244444
 30
0.0
 10
30.753417
 20
277.262083
 30
0.0
 10
30.206611
 20
277.403194
 30
0.0
 10
30.118417
 20
277.509028
 30
0.0
 10
30.136056
 20
277.623681
 30
0.0
 10
30.233070
 20
277.738333
 30
0.0
 10
30.568209
 20
277.800069
 30
0.0
 10
31.115014
 20
277.817708
 30
0.0
 10
31.115000
 20
277.817708
 30
0.0
  0
LWPOLYLINE
  5
12a
100
AcDbEntity
  8
Layer_1
 62
7
100
AcDbPolyline
 90
19
 70
0
 10
39.475833
 20
277.808889
 30
0.0
 10
40.005000
 20
277.782431
 30
0.0
 10
39.934444
 20
277.764792
 30
0.0
 10
39.881528
 20
277.755972
 30
0.0
 10
39.802153
 20
277.711875
 30
0.0
 10
39.766875
 20
277.641319
 30
0.0
 10
39.749236
 20
277.597222
 30
0.0
 10
39.722792
 20
277.473750
 30
0.0
 10
39.661056
 20
277.032778
 30
0.0
 10
39.634612
 20
276.900486
 30
0.0
 10
39.616973
 20
276.882847
 30
0.0
 10
39.599334
 20
276.874028
 30
0.0
 10
39.599334
 20
276.882847
 30
0.0
 10
39.581695
 20
277.156250
 30
0.0
 10
39.519959
 20
277.641319
 30
0.0
 10
39.352389
 20
277.773611
 30
0.0
 10
39.202459
 20
277.800069
 30
0.0
 10
39.475862
 20
277.808889
 30
0.0
 10
39.475833
 20
277.808889
 30
0.0
  0
LWPOLYLINE
  5
12b
100
AcDbEntity
  8
Layer_1
 62
7
100
AcDbPolyline
 90
17
 70
0
 10
33.037639
 20
277.791250
 30
0.0
 10
32.473194
 20
277.694236
 30
0.0
 10
32.420278
 20
277.650139
 30
0.0
 10
32.252708
 20
277.517847
 30
0.0
 10
32.437917
 20
277.420833
 30
0.0
 10
32.490833
 20
277.394375
 30
0.0
 10
32.676042
 20
277.341458
 30
0.0
 10
32.905347
 20
277.315000
 30
0.0
 10
33.125833
 20
277.315000
 30
0.0
 10
33.319861
 20
277.350278
 30
0.0
 10
33.408056
 20
277.385556
 30
0.0
 10
33.408056
 20
277.447292
 30
0.0
 10
33.452153
 20
277.500208
 30
0.0
 10
33.390417
 20
277.703056
 30
0.0
 10
33.240486
 20
277.773611
 30
0.0
 10
33.037639
 20
277.791250
 30
0.0
 10
33.037639
 20
277.791250
 30
0.0
  0
LWPOLYLINE
  5
12c
100
AcDbEntity
  8
Layer_1
 62
7
100
AcDbPolyline
 90
7
 70
0
 10
25.682222
 20
277.650139
 30
0.0
 10
25.682222
 20
277.332639
 30
0.0
 10
25.682222
 20
276.997500
 30
0.0
 10
25.682222
 20
276.979861
 30
0.0
 10
25.602847
 20
277.561944
 30
0.0
 10
25.682222
 20
277.650139
 30
0.0
 10
25.682222
 20
277.650139
 30
0.0
  0
LWPOLYLINE
  5
12d
100
AcDbEntity
  8
Layer_1
 62
7
100
AcDbPolyline
 90
13
 70
0
 10
25.964444
 20
277.517847
 30
0.0
 10
26.061458
 20
277.509028
 30
0.0
 10
26.378958
 20
277.473750
 30
0.0
 10
26.440694
 20
277.456111
 30
0.0
 10
26.440694
 20
277.429653
 30
0.0
 10
26.449514
 20
277.306181
 30
0.0
 10
26.431875
 20
277.209167
 30
0.0
 10
26.334861
 20
277.191528
 30
0.0
 10
25.999722
 20
277.156250
 30
0.0
 10
25.964444
 20
277.156250
 30
0.0
 10
25.964444
 20
277.332639
 30
0.0
 10
25.964444
 20
277.517847
 30
0.0
 10
25.964444
 20
277.517847
 30
0.0
  0
LWPOLYLINE
  5
12e
100
AcDbEntity
  8
Layer_1
 62
7
100
AcDbPolyline
 90
13
 70
0
 10
35.163125
 20
277.500208
 30
0.0
 10
35.365972
 20
277.500208
 30
0.0
 10
35.462986
 20
277.420833
 30
0.0
 10
35.489430
 20
277.323819
 30
0.0
 10
35.471791
 20
277.226806
 30
0.0
 10
35.207208
 20
277.217986
 30
0.0
 10
34.907347
 20
277.226806
 30
0.0
 10
34.872069
 20
277.253264
 30
0.0
 10
34.872069
 20
277.315000
 30
0.0
 10
34.907347
 20
277.429653
 30
0.0
 10
34.951444
 20
277.464931
 30
0.0
 10
35.163111
 20
277.500208
 30
0.0
 10
35.163125
 20
277.500208
 30
0.0
  0
LWPOLYLINE
  5
12f
100
AcDbEntity
  8
Layer_1
 62
7
100
AcDbPolyline
 90
13
 70
0
 10
21.898681
 20
277.464931
 30
0.0
 10
22.101528
 20
277.464931
 30
0.0
 10
22.101528
 20
277.359097
 30
0.0
 10
22.092708
 20
277.200347
 30
0.0
 10
22.039792
 20
277.191528
 30
0.0
 10
21.845764
 20
277.173889
 30
0.0
 10
21.598819
 20
277.182708
 30
0.0
 10
21.554722
 20
277.235625
 30
0.0
 10
21.537083
 20
277.279722
 30
0.0
 10
21.554722
 20
277.359097
 30
0.0
 10
21.572361
 20
277.438472
 30
0.0
 10
21.898681
 20
277.464931
 30
0.0
 10
21.898681
 20
277.464931
 30
0.0
  0
ENDSEC
  0
SECTION
  2
OBJECTS
  0
DICTIONARY
  5
C
330
0
100
AcDbDictionary
  3
ACAD_GROUP
350
D
  3
ACAD_MLINESTYLE
350
17
  0
DICTIONARY
  5
D
330
C
100
AcDbDictionary
  0
DICTIONARY
  5
1A
330
C
100
AcDbDictionary
  0
DICTIONARY
  5
17
330
C
100
AcDbDictionary
  3
STANDARD
350
18
  0
DICTIONARY
  5
19
330
C
100
AcDbDictionary
  0
ENDSEC
  0
EOF
